# https://github.com/mikedh/trimesh
v 0.029312940374 0.015828610320 -0.019586288004
v 0.034577089355 0.015828610320 -0.006877813719
v 0.034577089355 0.015828610320 0.006877813719
v 0.029312940374 0.015828610320 0.019586288004
v 0.019586288004 0.015828610320 0.029312940374
v 0.006877813719 0.015828610320 0.034577089355
v -0.006877813719 0.015828610320 0.034577089355
v -0.019586288004 0.015828610320 0.029312940374
v -0.029312940374 0.015828610320 0.019586288004
v -0.034577089355 0.015828610320 0.006877813719
v -0.034577089355 0.015828610320 -0.006877813719
v -0.029312940374 0.015828610320 -0.019586288004
v -0.019586288004 0.015828610320 -0.029312940374
v -0.006877813719 0.015828610320 -0.034577089355
v 0.006877813719 0.015828610320 -0.034577089355
v 0.019586288004 0.015828610320 -0.029312940374
v 0.019210246489 0.013641950521 -0.028750174797
v 0.006745838996 0.013641950521 -0.033913181576
v -0.006745694919 0.013641950521 -0.033913181576
v -0.019210246489 0.013641950521 -0.028750174797
v -0.028750174797 0.013641950521 -0.019210246489
v -0.033913181576 0.013641950521 -0.006745694919
v -0.033913181576 0.013641950521 0.006745694919
v -0.028750174797 0.013641950521 0.019210246489
v -0.019210246489 0.013641950521 0.028750174797
v -0.006745694919 0.013641950521 0.033913181576
v 0.006745694919 0.013641950521 0.033913181576
v 0.019210246489 0.013641950521 0.028750174797
v 0.028750174797 0.013641950521 0.019210246489
v 0.033913181576 0.013641950521 0.006745694919
v 0.033913181576 0.013641950521 -0.006745694919
v 0.028750174797 0.013641950521 -0.019210246489
v 0.012556184675 0.012614391867 -0.018791558120
v 0.004409194823 0.012614391867 -0.022166134506
v -0.004409050746 0.012614391867 -0.022166134506
v -0.012556184675 0.012614391867 -0.018791558120
v -0.018791558120 0.012614391867 -0.012556184675
v -0.022166134506 0.012614391867 -0.004409194823
v -0.022166134506 0.012614391867 0.004409194823
v -0.018791558120 0.012614391867 0.012556184675
v -0.012556184675 0.012614391867 0.018791558120
v -0.004409050746 0.012614391867 0.022166134506
v 0.004409194823 0.012614391867 0.022166134506
v 0.012556184675 0.012614391867 0.018791558120
v 0.018791558120 0.012614391867 0.012556184675
v 0.022166134506 0.012614391867 0.004409194823
v 0.022166134506 0.012614391867 -0.004409194823
v 0.018791558120 0.012614391867 -0.012556184675
v 0.029871815868 0.104034694666 -0.019959736130
v 0.035236242585 0.104034694666 -0.007008923979
v 0.035236242585 0.104034694666 0.007008923979
v 0.029871815868 0.104034694666 0.019959736130
v 0.019959736130 0.104034694666 0.029871815868
v 0.007008923979 0.104034694666 0.035236242585
v -0.007008923979 0.104034694666 0.035236242585
v -0.019959736130 0.104034694666 0.029871815868
v -0.029871815868 0.104034694666 0.019959736130
v -0.035236242585 0.104034694666 0.007008923979
v -0.035236242585 0.104034694666 -0.007008923979
v -0.029871815868 0.104034694666 -0.019959736130
v -0.019959736130 0.104034694666 -0.029871959945
v -0.007008923979 0.104034694666 -0.035236242585
v 0.007008923979 0.104034694666 -0.035236242585
v 0.019959736130 0.104034694666 -0.029871815868
v 0.019586288004 0.102748085190 -0.029312940374
v 0.006877813719 0.102748085190 -0.034577089355
v -0.006877813719 0.102748085190 -0.034577089355
v -0.019586288004 0.102748085190 -0.029313084452
v -0.029312940374 0.102748085190 -0.019586288004
v -0.034577089355 0.102748085190 -0.006877813719
v -0.034577089355 0.102748085190 0.006877813719
v -0.029312940374 0.102748085190 0.019586288004
v -0.019586288004 0.102748085190 0.029312940374
v -0.006877813719 0.102748085190 0.034577089355
v 0.006877813719 0.102748085190 0.034577089355
v 0.019586288004 0.102748085190 0.029312940374
v 0.029312940374 0.102748085190 0.019586288004
v 0.034577089355 0.102748085190 0.006877813719
v 0.034577089355 0.102748085190 -0.006877813719
v 0.029312940374 0.102748085190 -0.019586288004
v 0.019586288004 0.038234489302 -0.029312940374
v 0.006877813719 0.038234489302 -0.034577089355
v -0.006877813719 0.038234489302 -0.034577089355
v -0.019586288004 0.038234489302 -0.029313084452
v -0.029312940374 0.038234489302 -0.019586288004
v -0.034577089355 0.038234489302 -0.006877813719
v -0.034577089355 0.038234489302 0.006877813719
v -0.029312940374 0.038234489302 0.019586288004
v -0.019586288004 0.038234489302 0.029312940374
v -0.006877813719 0.038234489302 0.034577089355
v 0.006877813719 0.038234489302 0.034577089355
v 0.019586288004 0.038234489302 0.029312940374
v 0.029312940374 0.038234489302 0.019586288004
v 0.034577089355 0.038234489302 0.006877813719
v 0.034577089355 0.038234489302 -0.006877813719
v 0.029312940374 0.038234489302 -0.019586288004
v 0.029312940374 0.080728333129 -0.019586288004
v 0.034577089355 0.080728333129 -0.006877813719
v 0.034577089355 0.080728333129 0.006877813719
v 0.029312940374 0.080728333129 0.019586288004
v 0.019586288004 0.080728333129 0.029312940374
v 0.006877813719 0.080728333129 0.034577089355
v -0.006877813719 0.080728333129 0.034577089355
v -0.019586288004 0.080728333129 0.029312940374
v -0.029312940374 0.080728333129 0.019586288004
v -0.034577089355 0.080728333129 0.006877813719
v -0.034577089355 0.080728333129 -0.006877813719
v -0.029312940374 0.080728333129 -0.019586288004
v -0.019586288004 0.080728333129 -0.029313084452
v -0.006877813719 0.080728333129 -0.034577089355
v 0.006877813719 0.080728333129 -0.034577089355
v 0.019586288004 0.080728333129 -0.029312940374
v 0.006844820039 0.014702502855 -0.034411112410
v 0.019492349664 0.014702502855 -0.029172321019
v 0.013234788329 0.013641950521 -0.031951570377
v 0.013493839150 0.015828610320 -0.032577009541
v -0.006844820039 0.014702502855 -0.034411112410
v 0.000000000000 0.013641950521 -0.034584005061
v 0.000000000000 0.015828610320 -0.035261023865
v -0.019492349664 0.014702502855 -0.029172321019
v -0.013234788329 0.013641950521 -0.031951570377
v -0.013493839150 0.015828610320 -0.032577009541
v -0.029172321019 0.014702502855 -0.019492349664
v -0.024454656892 0.013641950521 -0.024454656892
v -0.024933281379 0.015828610320 -0.024933425457
v -0.034411112410 0.014702502855 -0.006844820039
v -0.031951570377 0.013641950521 -0.013234788329
v -0.032577009541 0.015828610320 -0.013493839150
v -0.034411112410 0.014702502855 0.006844820039
v -0.034584005061 0.013641950521 0.000000000000
v -0.035261023865 0.015828610320 0.000000000000
v -0.029172321019 0.014702502855 0.019492349664
v -0.031951570377 0.013641950521 0.013234788329
v -0.032577009541 0.015828610320 0.013493839150
v -0.019492349664 0.014702502855 0.029172321019
v -0.024454656892 0.013641950521 0.024454656892
v -0.024933281379 0.015828610320 0.024933425457
v -0.006844820039 0.014702502855 0.034411112410
v -0.013234788329 0.013641950521 0.031951570377
v -0.013493839150 0.015828610320 0.032577009541
v 0.006844820039 0.014702502855 0.034411112410
v 0.000000000000 0.013641950521 0.034584005061
v 0.000000000000 0.015828610320 0.035261023865
v 0.019492349664 0.014702502855 0.029172321019
v 0.013234788329 0.013641950521 0.031951570377
v 0.013493839150 0.015828610320 0.032577009541
v 0.029172321019 0.014702502855 0.019492349664
v 0.024454656892 0.013641950521 0.024454656892
v 0.024933281379 0.015828610320 0.024933425457
v 0.034411112410 0.014702502855 0.006844820039
v 0.031951570377 0.013641950521 0.013234788329
v 0.032577009541 0.015828610320 0.013493839150
v 0.034411112410 0.014702502855 -0.006844820039
v 0.034584005061 0.013641950521 0.000000000000
v 0.035261023865 0.015828610320 0.000000000000
v 0.029172321019 0.014702502855 -0.019492349664
v 0.031951570377 0.013641950521 -0.013234788329
v 0.032577009541 0.015828610320 -0.013493839150
v 0.024454656892 0.013641950521 -0.024454656892
v 0.024933425457 0.015828610320 -0.024933281379
v 0.006910663323 0.103456080595 -0.034741913682
v 0.019679650036 0.103456080595 -0.029452695267
v 0.013751161045 0.104034694666 -0.033198126389
v 0.013493839150 0.102748085190 -0.032577009541
v -0.006910519246 0.103456080595 -0.034741913682
v 0.000000000000 0.104034694666 -0.035933432199
v 0.000000000000 0.102748085190 -0.035261023865
v -0.019679650036 0.103456080595 -0.029452695267
v -0.013751016968 0.104034694666 -0.033198126389
v -0.013493839150 0.102748085190 -0.032577009541
v -0.029452695267 0.103456080595 -0.019679650036
v -0.025408736169 0.104034694666 -0.025408736169
v -0.024933281379 0.102748085190 -0.024933425457
v -0.034741913682 0.103456080595 -0.006910519246
v -0.033198126389 0.104034694666 -0.013751161045
v -0.032577009541 0.102748085190 -0.013493839150
v -0.034741913682 0.103456080595 0.006910519246
v -0.035933432199 0.104034694666 -0.000000000000
v -0.035261023865 0.102748085190 -0.000000000000
v -0.029452695267 0.103456080595 0.019679650036
v -0.033198126389 0.104034694666 0.013751161045
v -0.032577009541 0.102748085190 0.013493839150
v -0.019679650036 0.103456080595 0.029452695267
v -0.025408736169 0.104034694666 0.025408736169
v -0.024933281379 0.102748085190 0.024933281379
v -0.006910519246 0.103456080595 0.034741913682
v -0.013751161045 0.104034694666 0.033198126389
v -0.013493839150 0.102748085190 0.032577009541
v 0.006910519246 0.103456080595 0.034741913682
v 0.000000000000 0.104034694666 0.035933288122
v 0.000000000000 0.102748085190 0.035261023865
v 0.019679650036 0.103456080595 0.029452695267
v 0.013751161045 0.104034694666 0.033198126389
v 0.013493839150 0.102748085190 0.032577009541
v 0.029452695267 0.103456080595 0.019679650036
v 0.025408736169 0.104034694666 0.025408736169
v 0.024933425457 0.102748085190 0.024933425457
v 0.034741913682 0.103456080595 0.006910519246
v 0.033198126389 0.104034694666 0.013751161045
v 0.032577009541 0.102748085190 0.013493839150
v 0.034741913682 0.103456080595 -0.006910519246
v 0.035933432199 0.104034694666 -0.000000000000
v 0.035261023865 0.102748085190 -0.000000000000
v 0.029452695267 0.103456080595 -0.019679650036
v 0.033198126389 0.104034694666 -0.013751161045
v 0.032577009541 0.102748085190 -0.013493839150
v 0.025408736169 0.104034694666 -0.025408736169
v 0.024933425457 0.102748085190 -0.024933281379
v 0.017358710278 0.012871281531 -0.025979137839
v 0.006095618552 0.012871281531 -0.030644501939
v 0.007548204972 0.012614391867 -0.018222885377
v 0.025979137839 0.012871281531 -0.017358710278
v 0.013947250127 0.012614391867 -0.013947106049
v -0.006095474475 0.012871281531 -0.030644501939
v 0.000000000000 0.012614391867 -0.019724313970
v -0.017358710278 0.012871281531 -0.025979137839
v -0.007548204972 0.012614391867 -0.018222885377
v -0.025979137839 0.012871281531 -0.017358710278
v -0.013947106049 0.012614391867 -0.013947250127
v -0.030644501939 0.012871281531 -0.006095618552
v -0.018222885377 0.012614391867 -0.007548204972
v -0.030644501939 0.012871281531 0.006095618552
v -0.019724313970 0.012614391867 0.000000000000
v -0.025979137839 0.012871281531 0.017358710278
v -0.018222885377 0.012614391867 0.007548204972
v -0.017358710278 0.012871281531 0.025979137839
v -0.013947106049 0.012614391867 0.013947250127
v -0.006095618552 0.012871281531 0.030644501939
v -0.007548204972 0.012614391867 0.018222885377
v 0.006095618552 0.012871281531 0.030644501939
v 0.000000000000 0.012614391867 0.019724313970
v 0.017358710278 0.012871281531 0.025979137839
v 0.007548204972 0.012614391867 0.018222885377
v 0.025979137839 0.012871281531 0.017358710278
v 0.013947250127 0.012614391867 0.013947250127
v 0.030644501939 0.012871281531 0.006095618552
v 0.018222885377 0.012614391867 0.007548204972
v 0.030644501939 0.012871281531 -0.006095618552
v 0.019724313970 0.012614391867 0.000000000000
v 0.018222885377 0.012614391867 -0.007548204972
v 0.020333184255 0.104291584329 -0.030430691361
v 0.007140034240 0.104291584329 -0.035895539893
v 0.030430691361 0.104291584329 -0.020333184255
v -0.007140034240 0.104291584329 -0.035895539893
v -0.020333184255 0.104291584329 -0.030430835438
v -0.030430691361 0.104291584329 -0.020333184255
v -0.035895539893 0.104291584329 -0.007140034240
v -0.035895539893 0.104291584329 0.007140034240
v -0.030430691361 0.104291584329 0.020333184255
v -0.020333184255 0.104291584329 0.030430691361
v -0.007140034240 0.104291584329 0.035895539893
v 0.007140034240 0.104291584329 0.035895539893
v 0.020333184255 0.104291584329 0.030430691361
v 0.030430691361 0.104291584329 0.020333184255
v 0.035895539893 0.104291584329 0.007140034240
v 0.035895539893 0.104291584329 -0.007140034240
v 0.029312940374 0.096856768120 -0.019586288004
v 0.019586288004 0.096856768120 -0.029312940374
v 0.024933425457 0.080728333129 -0.024933281379
v 0.034577089355 0.096856768120 -0.006877813719
v 0.032577009541 0.080728333129 -0.013493839150
v 0.034577089355 0.096856768120 0.006877813719
v 0.035261023865 0.080728333129 0.000000000000
v 0.029312940374 0.096856768120 0.019586288004
v 0.032577009541 0.080728333129 0.013493839150
v 0.019586288004 0.096856768120 0.029312940374
v 0.024933281379 0.080728333129 0.024933281379
v 0.006877813719 0.096856768120 0.034577089355
v 0.013493839150 0.080728333129 0.032577009541
v -0.006877813719 0.096856768120 0.034577089355
v 0.000000000000 0.080728333129 0.035261023865
v -0.019586288004 0.096856768120 0.029312940374
v -0.013493839150 0.080728333129 0.032577009541
v -0.029312940374 0.096856768120 0.019586288004
v -0.024933281379 0.080728333129 0.024933281379
v -0.034577089355 0.096856768120 0.006877813719
v -0.032577009541 0.080728333129 0.013493839150
v -0.034577089355 0.096856768120 -0.006877813719
v -0.035261023865 0.080728333129 -0.000000000000
v -0.029312940374 0.096856768120 -0.019586288004
v -0.032577009541 0.080728333129 -0.013493839150
v -0.019586288004 0.096856768120 -0.029313084452
v -0.024933281379 0.080728333129 -0.024933425457
v -0.006877813719 0.096856768120 -0.034577089355
v -0.013493839150 0.080728333129 -0.032577009541
v 0.006877813719 0.096856768120 -0.034577089355
v 0.000000000000 0.080728333129 -0.035261023865
v 0.013493839150 0.080728333129 -0.032577009541
v 0.019586288004 0.022009666657 -0.029312940374
v 0.029312940374 0.022009666657 -0.019586288004
v 0.024933425457 0.038234489302 -0.024933281379
v 0.006877813719 0.022009666657 -0.034577089355
v 0.013493839150 0.038234489302 -0.032577009541
v -0.006877813719 0.022009666657 -0.034577089355
v 0.000000000000 0.038234489302 -0.035261023865
v -0.019586288004 0.022009666657 -0.029312940374
v -0.013493839150 0.038234489302 -0.032577009541
v -0.029312940374 0.022009666657 -0.019586288004
v -0.024933281379 0.038234489302 -0.024933425457
v -0.034577089355 0.022009666657 -0.006877813719
v -0.032577009541 0.038234489302 -0.013493839150
v -0.034577089355 0.022009666657 0.006877813719
v -0.035261023865 0.038234489302 0.000000000000
v -0.029312940374 0.022009666657 0.019586288004
v -0.032577009541 0.038234489302 0.013493839150
v -0.019586288004 0.022009666657 0.029312940374
v -0.024933281379 0.038234489302 0.024933425457
v -0.006877813719 0.022009666657 0.034577089355
v -0.013493839150 0.038234489302 0.032577009541
v 0.006877813719 0.022009666657 0.034577089355
v 0.000000000000 0.038234489302 0.035261023865
v 0.019586288004 0.022009666657 0.029312940374
v 0.013493839150 0.038234489302 0.032577009541
v 0.029312940374 0.022009666657 0.019586288004
v 0.024933425457 0.038234489302 0.024933425457
v 0.034577089355 0.022009666657 0.006877813719
v 0.032577009541 0.038234489302 0.013493839150
v 0.034577089355 0.022009666657 -0.006877813719
v 0.035261023865 0.038234489302 0.000000000000
v 0.032577009541 0.038234489302 -0.013493839150
v 0.019586288004 0.059481411215 -0.029312940374
v 0.029312940374 0.059481411215 -0.019586288004
v 0.006877813719 0.059481411215 -0.034577089355
v -0.006877813719 0.059481411215 -0.034577089355
v -0.019586288004 0.059481411215 -0.029313084452
v -0.029312940374 0.059481411215 -0.019586288004
v -0.034577089355 0.059481411215 -0.006877813719
v -0.034577089355 0.059481411215 0.006877813719
v -0.029312940374 0.059481411215 0.019586288004
v -0.019586288004 0.059481411215 0.029312940374
v -0.006877813719 0.059481411215 0.034577089355
v 0.006877813719 0.059481411215 0.034577089355
v 0.019586288004 0.059481411215 0.029312940374
v 0.029312940374 0.059481411215 0.019586288004
v 0.034577089355 0.059481411215 0.006877813719
v 0.034577089355 0.059481411215 -0.006877813719
v 0.013429148484 0.014702502855 -0.032420685770
v 0.000000000000 0.014702502855 -0.035091877222
v -0.013429004406 0.014702502855 -0.032420685770
v -0.024813697296 0.014702502855 -0.024813697296
v -0.032420685770 0.014702502855 -0.013429004406
v -0.035091877222 0.014702502855 0.000000000000
v -0.032420685770 0.014702502855 0.013429004406
v -0.024813697296 0.014702502855 0.024813697296
v -0.013429004406 0.014702502855 0.032420685770
v 0.000000000000 0.014702502855 0.035091877222
v 0.013429004406 0.014702502855 0.032420685770
v 0.024813697296 0.014702502855 0.024813697296
v 0.032420685770 0.014702502855 0.013429004406
v 0.035091877222 0.014702502855 0.000000000000
v 0.032420685770 0.014702502855 -0.013429004406
v 0.024813697296 0.014702502855 -0.024813697296
v 0.013558241663 0.103456080595 -0.032732324772
v 0.000000000000 0.103456080595 -0.035429161968
v -0.013558097585 0.103456080595 -0.032732324772
v -0.025052145077 0.103456080595 -0.025052145077
v -0.032732324772 0.103456080595 -0.013558097585
v -0.035429161968 0.103456080595 -0.000000000000
v -0.032732324772 0.103456080595 0.013558097585
v -0.025052145077 0.103456080595 0.025052145077
v -0.013558097585 0.103456080595 0.032732324772
v 0.000000000000 0.103456080595 0.035429161968
v 0.013558097585 0.103456080595 0.032732324772
v 0.025052145077 0.103456080595 0.025052145077
v 0.032732324772 0.103456080595 0.013558097585
v 0.035429161968 0.103456080595 -0.000000000000
v 0.032732324772 0.103456080595 -0.013558097585
v 0.025052145077 0.103456080595 -0.025052145077
v 0.011683509021 0.012871281531 -0.028206571488
v 0.021588384899 0.012871281531 -0.021588384899
v 0.000000000000 0.012871281531 -0.030530536866
v -0.011683509021 0.012871281531 -0.028206571488
v -0.021588384899 0.012871281531 -0.021588384899
v -0.028206571488 0.012871281531 -0.011683509021
v -0.030530536866 0.012871281531 0.000000000000
v -0.028206571488 0.012871281531 0.011683509021
v -0.021588384899 0.012871281531 0.021588384899
v -0.011683509021 0.012871281531 0.028206571488
v 0.000000000000 0.012871281531 0.030530536866
v 0.011683509021 0.012871281531 0.028206571488
v 0.021588384899 0.012871281531 0.021588384899
v 0.028206571488 0.012871281531 0.011683509021
v 0.030530536866 0.012871281531 0.000000000000
v 0.028206571488 0.012871281531 -0.011683509021
v 0.000000000000 0.012614391867 0.000000000000
v 0.014008338863 0.104291584329 -0.033819243236
v 0.025884046881 0.104291584329 -0.025884046881
v 0.000000000000 0.104291584329 -0.036605696455
v -0.014008338863 0.104291584329 -0.033819243236
v -0.025884046881 0.104291584329 -0.025884046881
v -0.033819243236 0.104291584329 -0.014008338863
v -0.036605696455 0.104291584329 -0.000000000000
v -0.033819243236 0.104291584329 0.014008338863
v -0.025884046881 0.104291584329 0.025884046881
v -0.014008338863 0.104291584329 0.033819243236
v 0.000000000000 0.104291584329 0.036605696455
v 0.014008338863 0.104291584329 0.033819243236
v 0.025884046881 0.104291584329 0.025884046881
v 0.033819243236 0.104291584329 0.014008338863
v 0.036605696455 0.104291584329 -0.000000000000
v 0.033819243236 0.104291584329 -0.014008338863
v 0.024933425457 0.096856768120 -0.024933281379
v 0.032577009541 0.096856768120 -0.013493839150
v 0.035261023865 0.096856768120 -0.000000000000
v 0.032577009541 0.096856768120 0.013493839150
v 0.024933425457 0.096856768120 0.024933281379
v 0.013493839150 0.096856768120 0.032577009541
v 0.000000000000 0.096856768120 0.035261023865
v -0.013493839150 0.096856768120 0.032577009541
v -0.024933281379 0.096856768120 0.024933281379
v -0.032577009541 0.096856768120 0.013493839150
v -0.035261023865 0.096856768120 -0.000000000000
v -0.032577009541 0.096856768120 -0.013493839150
v -0.024933281379 0.096856768120 -0.024933425457
v -0.013493839150 0.096856768120 -0.032577009541
v 0.000000000000 0.096856768120 -0.035261023865
v 0.013493839150 0.096856768120 -0.032577009541
v 0.024933425457 0.022009666657 -0.024933281379
v 0.013493839150 0.022009666657 -0.032577009541
v 0.000000000000 0.022009666657 -0.035261023865
v -0.013493839150 0.022009666657 -0.032577009541
v -0.024933281379 0.022009666657 -0.024933425457
v -0.032577009541 0.022009666657 -0.013493839150
v -0.035261023865 0.022009666657 0.000000000000
v -0.032577009541 0.022009666657 0.013493839150
v -0.024933281379 0.022009666657 0.024933425457
v -0.013493839150 0.022009666657 0.032577009541
v 0.000000000000 0.022009666657 0.035261023865
v 0.013493839150 0.022009666657 0.032577009541
v 0.024933425457 0.022009666657 0.024933425457
v 0.032577009541 0.022009666657 0.013493839150
v 0.035261023865 0.022009666657 0.000000000000
v 0.032577009541 0.022009666657 -0.013493839150
v 0.024933425457 0.059481411215 -0.024933281379
v 0.013493839150 0.059481411215 -0.032577009541
v 0.000000000000 0.059481411215 -0.035261023865
v -0.013493839150 0.059481411215 -0.032577009541
v -0.024933281379 0.059481411215 -0.024933425457
v -0.032577009541 0.059481411215 -0.013493839150
v -0.035261023865 0.059481411215 -0.000000000000
v -0.032577009541 0.059481411215 0.013493839150
v -0.024933281379 0.059481411215 0.024933425457
v -0.013493839150 0.059481411215 0.032577009541
v 0.000000000000 0.059481411215 0.035261023865
v 0.013493839150 0.059481411215 0.032577009541
v 0.024933425457 0.059481411215 0.024933425457
v 0.032577009541 0.059481411215 0.013493839150
v 0.035261023865 0.059481411215 0.000000000000
v 0.032577009541 0.059481411215 -0.013493839150
v 0.000000000000 0.104291584329 0.000000000000
f 112 321 435
f 112 288 417
f 112 258 402
f 112 259 434
f 111 323 436
f 111 287 416
f 111 286 417
f 111 288 435
f 110 324 437
f 110 285 415
f 110 284 416
f 110 287 436
f 109 325 438
f 109 283 414
f 109 282 415
f 109 285 437
f 435 288 112
f 417 258 112
f 402 259 112
f 434 321 112
f 436 287 111
f 416 286 111
f 417 288 111
f 435 323 111
f 437 285 110
f 415 284 110
f 416 287 110
f 436 324 110
f 438 283 109
f 414 282 109
f 415 285 109
f 437 325 109
f 439 281 108
f 413 280 108
f 414 283 108
f 438 326 108
f 440 279 107
f 412 278 107
f 413 281 107
f 439 327 107
f 441 277 106
f 411 276 106
f 412 279 106
f 440 328 106
f 442 275 105
f 410 274 105
f 411 277 105
f 441 329 105
f 443 273 104
f 409 272 104
f 410 275 104
f 442 330 104
f 444 271 103
f 408 270 103
f 409 273 103
f 443 331 103
f 445 269 102
f 407 268 102
f 408 271 102
f 444 332 102
f 446 267 101
f 406 266 101
f 407 269 101
f 445 333 101
f 447 265 100
f 405 264 100
f 406 267 100
f 446 334 100
f 448 263 99
f 404 262 99
f 405 265 99
f 447 335 99
f 449 261 98
f 403 260 98
f 404 263 98
f 448 336 98
f 434 259 97
f 402 257 97
f 403 261 97
f 449 322 97
f 434 322 96
f 449 320 96
f 433 290 96
f 418 291 96
f 449 336 95
f 448 319 95
f 432 318 95
f 433 320 95
f 448 335 94
f 447 317 94
f 431 316 94
f 432 319 94
f 447 334 93
f 446 315 93
f 430 314 93
f 431 317 93
f 430 315 92
f 446 333 92
f 445 313 92
f 429 312 92
f 445 332 91
f 444 311 91
f 428 310 91
f 429 313 91
f 428 311 90
f 444 331 90
f 443 309 90
f 427 308 90
f 443 330 89
f 442 307 89
f 426 306 89
f 427 309 89
f 442 329 88
f 441 305 88
f 425 304 88
f 426 307 88
f 425 305 87
f 441 328 87
f 440 303 87
f 424 302 87
f 440 327 86
f 439 301 86
f 423 300 86
f 424 303 86
f 439 326 85
f 438 299 85
f 422 298 85
f 423 301 85
f 4 152 431
f 4 314 430
f 4 149 348
f 4 147 349
f 3 155 432
f 3 316 431
f 3 152 349
f 3 150 350
f 2 158 433
f 2 318 432
f 2 155 350
f 2 153 351
f 1 160 418
f 1 290 433
f 1 158 351
f 1 156 352
f 8 140 427
f 8 306 426
f 8 137 344
f 8 135 345
f 7 138 346
f 7 143 428
f 7 308 427
f 7 140 345
f 6 146 429
f 6 310 428
f 6 143 346
f 6 141 347
f 5 144 348
f 5 149 430
f 5 312 429
f 5 146 347
f 12 128 423
f 12 298 422
f 12 125 340
f 12 123 341
f 11 131 424
f 11 300 423
f 11 128 341
f 11 126 342
f 10 129 343
f 10 134 425
f 10 302 424
f 10 131 342
f 9 137 426
f 9 304 425
f 9 134 343
f 9 132 344
f 16 114 337
f 16 116 419
f 16 289 418
f 16 160 352
f 15 119 420
f 15 292 419
f 15 116 337
f 15 113 338
f 14 122 421
f 14 294 420
f 14 119 338
f 14 117 339
f 13 125 422
f 13 296 421
f 13 122 339
f 13 120 340
f 20 120 339
f 20 121 372
f 20 216 373
f 20 124 340
f 19 117 338
f 19 118 371
f 19 214 372
f 19 121 339
f 18 113 337
f 18 115 369
f 18 210 371
f 18 118 338
f 17 159 370
f 17 209 369
f 17 115 337
f 17 114 352
f 24 132 343
f 24 133 376
f 24 224 377
f 24 136 344
f 23 130 375
f 23 222 376
f 23 133 343
f 23 129 342
f 22 126 341
f 22 127 374
f 22 220 375
f 22 130 342
f 21 123 340
f 21 124 373
f 21 218 374
f 21 127 341
f 28 145 380
f 28 232 381
f 28 148 348
f 28 144 347
f 27 141 346
f 27 142 379
f 27 230 380
f 27 145 347
f 26 139 378
f 26 228 379
f 26 142 346
f 26 138 345
f 25 135 344
f 25 136 377
f 25 226 378
f 25 139 345
f 32 156 351
f 32 157 384
f 32 212 370
f 32 159 352
f 31 153 350
f 31 154 383
f 31 238 384
f 31 157 351
f 30 150 349
f 30 151 382
f 30 236 383
f 30 154 350
f 29 147 348
f 29 148 381
f 29 234 382
f 29 151 349
f 38 223 375
f 37 218 373
f 37 219 385
f 37 221 374
f 36 216 372
f 36 217 385
f 36 219 373
f 35 214 371
f 35 215 385
f 35 217 372
f 34 210 369
f 34 211 385
f 34 215 371
f 33 213 385
f 33 211 369
f 33 209 370
f 43 231 385
f 43 233 380
f 42 229 385
f 42 231 379
f 42 228 378
f 41 226 377
f 41 227 385
f 41 229 378
f 40 224 376
f 40 225 385
f 40 227 377
f 39 223 385
f 39 225 376
f 39 222 375
f 38 220 374
f 38 221 385
f 48 212 384
f 48 240 385
f 48 213 370
f 47 238 383
f 47 239 385
f 47 240 384
f 46 236 382
f 46 237 385
f 46 239 383
f 45 234 381
f 45 235 385
f 45 237 382
f 44 233 385
f 44 235 381
f 44 232 380
f 43 230 379
f 438 325 84
f 437 297 84
f 421 296 84
f 422 299 84
f 437 324 83
f 436 295 83
f 420 294 83
f 421 297 83
f 436 323 82
f 435 293 82
f 419 292 82
f 420 295 82
f 419 293 81
f 435 321 81
f 434 291 81
f 418 289 81
f 368 204 80
f 367 206 80
f 403 257 80
f 402 208 80
f 367 201 79
f 366 203 79
f 404 260 79
f 403 206 79
f 366 198 78
f 365 200 78
f 405 262 78
f 404 203 78
f 365 195 77
f 364 197 77
f 406 264 77
f 405 200 77
f 406 197 76
f 364 192 76
f 363 194 76
f 407 266 76
f 363 189 75
f 362 191 75
f 408 268 75
f 407 194 75
f 408 191 74
f 362 186 74
f 361 188 74
f 409 270 74
f 361 183 73
f 360 185 73
f 410 272 73
f 409 188 73
f 360 180 72
f 359 182 72
f 411 274 72
f 410 185 72
f 411 182 71
f 359 177 71
f 358 179 71
f 412 276 71
f 358 174 70
f 357 176 70
f 413 278 70
f 412 179 70
f 357 171 69
f 356 173 69
f 414 280 69
f 413 176 69
f 356 168 68
f 355 170 68
f 415 282 68
f 414 173 68
f 355 165 67
f 354 167 67
f 416 284 67
f 415 170 67
f 354 161 66
f 353 164 66
f 417 286 66
f 416 167 66
f 417 164 65
f 353 162 65
f 368 208 65
f 402 258 65
f 387 207 64
f 368 162 64
f 353 163 64
f 386 241 64
f 353 161 63
f 354 166 63
f 388 242 63
f 386 163 63
f 354 165 62
f 355 169 62
f 389 244 62
f 388 166 62
f 355 168 61
f 356 172 61
f 390 245 61
f 389 169 61
f 356 171 60
f 357 175 60
f 391 246 60
f 390 172 60
f 357 174 59
f 358 178 59
f 392 247 59
f 391 175 59
f 392 178 58
f 358 177 58
f 359 181 58
f 393 248 58
f 359 180 57
f 360 184 57
f 394 249 57
f 393 181 57
f 52 196 364
f 52 195 365
f 52 199 399
f 52 254 398
f 51 199 365
f 51 198 366
f 51 202 400
f 51 255 399
f 50 202 366
f 50 201 367
f 50 205 401
f 50 256 400
f 49 205 367
f 49 204 368
f 49 207 387
f 49 243 401
f 56 184 360
f 56 183 361
f 56 187 395
f 56 250 394
f 55 251 395
f 55 187 361
f 55 186 362
f 55 190 396
f 54 190 362
f 54 189 363
f 54 193 397
f 54 252 396
f 53 253 397
f 53 193 363
f 53 192 364
f 53 196 398
f 60 172 356
f 60 171 357
f 60 175 391
f 60 246 390
f 59 175 357
f 59 174 358
f 59 178 392
f 59 247 391
f 58 248 392
f 58 178 358
f 58 177 359
f 58 181 393
f 57 181 359
f 57 180 360
f 57 184 394
f 57 249 393
f 64 241 387
f 64 207 368
f 64 162 353
f 64 163 386
f 63 163 353
f 63 161 354
f 63 166 388
f 63 242 386
f 62 166 354
f 62 165 355
f 62 169 389
f 62 244 388
f 61 169 355
f 61 168 356
f 61 172 390
f 61 245 389
f 360 183 56
f 361 187 56
f 395 250 56
f 394 184 56
f 395 187 55
f 361 186 55
f 362 190 55
f 396 251 55
f 362 189 54
f 363 193 54
f 397 252 54
f 396 190 54
f 397 193 53
f 363 192 53
f 364 196 53
f 398 253 53
f 364 195 52
f 365 199 52
f 399 254 52
f 398 196 52
f 365 198 51
f 366 202 51
f 400 255 51
f 399 199 51
f 366 201 50
f 367 205 50
f 401 256 50
f 400 202 50
f 367 204 49
f 368 207 49
f 387 243 49
f 401 205 49
f 384 240 48
f 385 213 48
f 370 212 48
f 383 239 47
f 385 240 47
f 384 238 47
f 382 237 46
f 385 239 46
f 383 236 46
f 381 235 45
f 385 237 45
f 382 234 45
f 385 235 44
f 381 232 44
f 380 233 44
f 379 231 43
f 385 233 43
f 380 230 43
f 385 231 42
f 379 228 42
f 378 229 42
f 377 227 41
f 385 229 41
f 378 226 41
f 376 225 40
f 385 227 40
f 377 224 40
f 385 225 39
f 376 222 39
f 375 223 39
f 374 221 38
f 385 223 38
f 375 220 38
f 373 219 37
f 385 221 37
f 374 218 37
f 372 217 36
f 385 219 36
f 373 216 36
f 371 215 35
f 385 217 35
f 372 214 35
f 369 211 34
f 385 215 34
f 371 210 34
f 385 211 33
f 369 209 33
f 370 213 33
f 351 157 32
f 384 212 32
f 370 159 32
f 352 156 32
f 350 154 31
f 383 238 31
f 384 157 31
f 351 153 31
f 349 151 30
f 382 236 30
f 383 154 30
f 350 150 30
f 348 148 29
f 381 234 29
f 382 151 29
f 349 147 29
f 380 232 28
f 381 148 28
f 348 144 28
f 347 145 28
f 346 142 27
f 379 230 27
f 380 145 27
f 347 141 27
f 378 228 26
f 379 142 26
f 346 138 26
f 345 139 26
f 344 136 25
f 377 226 25
f 378 139 25
f 345 135 25
f 343 133 24
f 376 224 24
f 377 136 24
f 344 132 24
f 375 222 23
f 376 133 23
f 343 129 23
f 342 130 23
f 341 127 22
f 374 220 22
f 375 130 22
f 342 126 22
f 340 124 21
f 373 218 21
f 374 127 21
f 341 123 21
f 68 173 356
f 68 168 355
f 68 170 415
f 68 282 414
f 67 170 355
f 67 165 354
f 67 167 416
f 67 284 415
f 66 167 354
f 66 161 353
f 66 164 417
f 66 286 416
f 65 258 417
f 65 164 353
f 65 162 368
f 65 208 402
f 72 185 360
f 72 180 359
f 72 182 411
f 72 274 410
f 71 276 411
f 71 182 359
f 71 177 358
f 71 179 412
f 70 179 358
f 70 174 357
f 70 176 413
f 70 278 412
f 69 176 357
f 69 171 356
f 69 173 414
f 69 280 413
f 76 266 406
f 76 197 364
f 76 192 363
f 76 194 407
f 75 194 363
f 75 189 362
f 75 191 408
f 75 268 407
f 74 270 408
f 74 191 362
f 74 186 361
f 74 188 409
f 73 188 361
f 73 183 360
f 73 185 410
f 73 272 409
f 80 208 368
f 80 204 367
f 80 206 403
f 80 257 402
f 79 206 367
f 79 201 366
f 79 203 404
f 79 260 403
f 78 203 366
f 78 198 365
f 78 200 405
f 78 262 404
f 77 200 365
f 77 195 364
f 77 197 406
f 77 264 405
f 84 299 438
f 84 325 437
f 84 297 421
f 84 296 422
f 83 297 437
f 83 324 436
f 83 295 420
f 83 294 421
f 82 295 436
f 82 323 435
f 82 293 419
f 82 292 420
f 81 289 419
f 81 293 435
f 81 321 434
f 81 291 418
f 88 307 442
f 88 329 441
f 88 305 425
f 88 304 426
f 87 302 425
f 87 305 441
f 87 328 440
f 87 303 424
f 86 303 440
f 86 327 439
f 86 301 423
f 86 300 424
f 85 301 439
f 85 326 438
f 85 299 422
f 85 298 423
f 92 312 430
f 92 315 446
f 92 333 445
f 92 313 429
f 91 313 445
f 91 332 444
f 91 311 428
f 91 310 429
f 90 308 428
f 90 311 444
f 90 331 443
f 90 309 427
f 89 309 443
f 89 330 442
f 89 307 426
f 89 306 427
f 96 291 434
f 96 322 449
f 96 320 433
f 96 290 418
f 95 320 449
f 95 336 448
f 95 319 432
f 95 318 433
f 94 319 448
f 94 335 447
f 94 317 431
f 94 316 432
f 93 317 447
f 93 334 446
f 93 315 430
f 93 314 431
f 339 121 20
f 372 216 20
f 373 124 20
f 340 120 20
f 338 118 19
f 371 214 19
f 372 121 19
f 339 117 19
f 337 115 18
f 369 210 18
f 371 118 18
f 338 113 18
f 370 209 17
f 369 115 17
f 337 114 17
f 352 159 17
f 337 116 16
f 419 289 16
f 418 160 16
f 352 114 16
f 420 292 15
f 419 116 15
f 337 113 15
f 338 119 15
f 421 294 14
f 420 119 14
f 338 117 14
f 339 122 14
f 422 296 13
f 421 122 13
f 339 120 13
f 340 125 13
f 423 298 12
f 422 125 12
f 340 123 12
f 341 128 12
f 424 300 11
f 423 128 11
f 341 126 11
f 342 131 11
f 343 134 10
f 425 302 10
f 424 131 10
f 342 129 10
f 426 304 9
f 425 134 9
f 343 132 9
f 344 137 9
f 427 306 8
f 426 137 8
f 344 135 8
f 345 140 8
f 346 143 7
f 428 308 7
f 427 140 7
f 345 138 7
f 429 310 6
f 428 143 6
f 346 141 6
f 347 146 6
f 348 149 5
f 430 312 5
f 429 146 5
f 347 144 5
f 100 334 447
f 100 265 405
f 100 264 406
f 100 267 446
f 99 335 448
f 99 263 404
f 99 262 405
f 99 265 447
f 98 336 449
f 98 261 403
f 98 260 404
f 98 263 448
f 97 322 434
f 97 259 402
f 97 257 403
f 97 261 449
f 104 330 443
f 104 273 409
f 104 272 410
f 104 275 442
f 103 331 444
f 103 271 408
f 103 270 409
f 103 273 443
f 102 332 445
f 102 269 407
f 102 268 408
f 102 271 444
f 101 333 446
f 101 267 406
f 101 266 407
f 101 269 445
f 108 326 439
f 108 281 413
f 108 280 414
f 108 283 438
f 107 327 440
f 107 279 412
f 107 278 413
f 107 281 439
f 106 328 441
f 106 277 411
f 106 276 412
f 106 279 440
f 105 329 442
f 105 275 410
f 105 274 411
f 105 277 441
f 431 314 4
f 430 149 4
f 348 147 4
f 349 152 4
f 432 316 3
f 431 152 3
f 349 150 3
f 350 155 3
f 433 318 2
f 432 155 2
f 350 153 2
f 351 158 2
f 418 290 1
f 433 158 1
f 351 156 1
f 352 160 1
f 450 247 392
f 450 391 247
f 450 246 391
f 450 390 246
f 450 245 390
f 450 389 245
f 450 244 389
f 450 388 244
f 450 242 388
f 450 386 242
f 450 241 386
f 450 387 241
f 450 243 387
f 450 401 243
f 450 256 401
f 450 400 256
f 450 255 400
f 450 399 255
f 450 254 399
f 450 398 254
f 450 253 398
f 450 397 253
f 450 252 397
f 450 396 252
f 450 251 396
f 450 395 251
f 450 250 395
f 450 394 250
f 450 249 394
f 450 393 249
f 450 248 393
f 450 392 248

