# https://github.com/mikedh/trimesh
v 0.00300000 0.00000000 0.00004706
v 0.00300000 0.18000000 0.00004706
v 0.00295154 0.18000000 -0.00053912
v 0.00295154 0.00000000 -0.00053912
v 0.00278965 0.18000000 -0.00110458
v 0.00278965 0.00000000 -0.00110458
v 0.00252055 0.18000000 -0.00162758
v 0.00252055 0.00000000 -0.00162758
v 0.00215459 0.18000000 -0.00208805
v 0.00215459 0.00000000 -0.00208805
v 0.00170584 0.18000000 -0.00246827
v 0.00170584 0.00000000 -0.00246827
v 0.00119152 0.18000000 -0.00275363
v 0.00119152 0.00000000 -0.00275363
v 0.00063142 0.18000000 -0.00293318
v 0.00063142 0.00000000 -0.00293318
v 0.00004706 0.18000000 -0.00300000
v 0.00004706 0.00000000 -0.00300000
v -0.00053912 0.18000000 -0.00295154
v -0.00053912 0.00000000 -0.00295154
v -0.00110458 0.18000000 -0.00278965
v -0.00110458 0.00000000 -0.00278965
v -0.00162759 0.18000000 -0.00252055
v -0.00162759 0.00000000 -0.00252055
v -0.00208805 0.18000000 -0.00215459
v -0.00208805 0.00000000 -0.00215459
v -0.00246827 0.18000000 -0.00170584
v -0.00246827 0.00000000 -0.00170584
v -0.00275363 0.18000000 -0.00119152
v -0.00275363 0.00000000 -0.00119152
v -0.00293318 0.18000000 -0.00063142
v -0.00293318 0.00000000 -0.00063142
v -0.00300000 0.18000000 -0.00004706
v -0.00300000 0.00000000 -0.00004706
v -0.00295154 0.18000000 0.00053912
v -0.00295154 0.00000000 0.00053912
v -0.00278965 0.18000000 0.00110458
v -0.00278965 0.00000000 0.00110458
v -0.00252055 0.18000000 0.00162759
v -0.00252055 0.00000000 0.00162759
v -0.00215459 0.18000000 0.00208805
v -0.00215459 0.00000000 0.00208805
v -0.00170584 0.18000000 0.00246827
v -0.00170584 0.00000000 0.00246827
v -0.00119152 0.18000000 0.00275363
v -0.00119152 0.00000000 0.00275363
v -0.00063142 0.18000000 0.00293318
v -0.00063142 0.00000000 0.00293318
v -0.00004705 0.18000000 0.00300000
v -0.00004705 0.00000000 0.00300000
v 0.00053912 0.18000000 0.00295154
v 0.00053912 0.00000000 0.00295154
v 0.00110458 0.18000000 0.00278965
v 0.00110458 0.00000000 0.00278965
v 0.00162759 0.18000000 0.00252055
v 0.00162759 0.00000000 0.00252055
v 0.00208805 0.18000000 0.00215459
v 0.00208805 0.00000000 0.00215459
v 0.00246827 0.18000000 0.00170583
v 0.00246827 0.00000000 0.00170583
v 0.00275363 0.18000000 0.00119152
v 0.00275363 0.00000000 0.00119152
v 0.00293318 0.18000000 0.00063142
v 0.00293318 0.00000000 0.00063142
f 3 2 1
f 4 3 1
f 5 3 4
f 6 5 4
f 7 5 6
f 8 7 6
f 9 7 8
f 10 9 8
f 11 9 10
f 12 11 10
f 13 11 12
f 14 13 12
f 15 13 14
f 16 15 14
f 17 15 16
f 18 17 16
f 19 17 18
f 20 19 18
f 21 19 20
f 22 21 20
f 23 21 22
f 24 23 22
f 25 23 24
f 26 25 24
f 27 25 26
f 28 27 26
f 29 27 28
f 30 29 28
f 31 29 30
f 32 31 30
f 33 31 32
f 34 33 32
f 35 33 34
f 36 35 34
f 37 35 36
f 38 37 36
f 39 37 38
f 40 39 38
f 41 39 40
f 42 41 40
f 43 41 42
f 44 43 42
f 45 43 44
f 46 45 44
f 47 45 46
f 48 47 46
f 49 47 48
f 50 49 48
f 51 49 50
f 52 51 50
f 53 51 52
f 54 53 52
f 55 53 54
f 56 55 54
f 57 55 56
f 58 57 56
f 59 57 58
f 60 59 58
f 61 59 60
f 62 61 60
f 63 61 62
f 64 63 62
f 2 63 64
f 1 2 64
f 49 51 47
f 45 47 51
f 53 45 51
f 43 45 53
f 55 43 53
f 41 43 55
f 57 41 55
f 39 41 57
f 59 39 57
f 37 39 59
f 61 37 59
f 35 37 61
f 63 35 61
f 33 35 63
f 2 33 63
f 31 33 2
f 3 31 2
f 29 31 3
f 5 29 3
f 27 29 5
f 7 27 5
f 25 27 7
f 9 25 7
f 23 25 9
f 11 23 9
f 21 23 11
f 13 21 11
f 15 21 13
f 19 21 15
f 17 19 15
f 50 48 52
f 46 52 48
f 54 52 46
f 44 54 46
f 56 54 44
f 42 56 44
f 58 56 42
f 40 58 42
f 60 58 40
f 38 60 40
f 62 60 38
f 36 62 38
f 64 62 36
f 34 64 36
f 1 64 34
f 32 1 34
f 4 1 32
f 30 4 32
f 6 4 30
f 28 6 30
f 8 6 28
f 26 8 28
f 10 8 26
f 12 10 26
f 24 12 26
f 14 12 24
f 22 14 24
f 16 14 22
f 20 16 22
f 18 16 20

