# https://github.com/mikedh/trimesh
v 0.03200000 0.00000000 0.00000000
v 0.03193149 0.00209290 0.00000000
v 0.03172624 0.00417684 0.00000000
v 0.03138513 0.00624289 0.00000000
v 0.03090963 0.00828221 0.00000000
v 0.03030176 0.01028606 0.00000000
v 0.02956415 0.01224587 0.00000000
v 0.02869993 0.01415324 0.00000000
v 0.02771281 0.01600000 0.00000000
v 0.02660703 0.01777825 0.00000000
v 0.02538731 0.01948037 0.00000000
v 0.02405887 0.02109907 0.00000000
v 0.02262742 0.02262742 0.00000000
v 0.02109907 0.02405887 0.00000000
v 0.01948037 0.02538731 0.00000000
v 0.01777825 0.02660703 0.00000000
v 0.01600000 0.02771281 0.00000000
v 0.01415324 0.02869993 0.00000000
v 0.01224587 0.02956415 0.00000000
v 0.01028606 0.03030176 0.00000000
v 0.00828221 0.03090963 0.00000000
v 0.00624289 0.03138513 0.00000000
v 0.00417684 0.03172624 0.00000000
v 0.00209290 0.03193149 0.00000000
v 0.00000000 0.03200000 0.00000000
v -0.00209290 0.03193149 0.00000000
v -0.00417684 0.03172624 0.00000000
v -0.00624289 0.03138513 0.00000000
v -0.00828221 0.03090963 0.00000000
v -0.01028606 0.03030176 0.00000000
v -0.01224587 0.02956415 0.00000000
v -0.01415324 0.02869993 0.00000000
v -0.01600000 0.02771281 0.00000000
v -0.01777825 0.02660703 0.00000000
v -0.01948037 0.02538731 0.00000000
v -0.02109907 0.02405887 0.00000000
v -0.02262742 0.02262742 0.00000000
v -0.02405887 0.02109907 0.00000000
v -0.02538731 0.01948037 0.00000000
v -0.02660703 0.01777825 0.00000000
v -0.02771281 0.01600000 0.00000000
v -0.02869993 0.01415324 0.00000000
v -0.02956415 0.01224587 0.00000000
v -0.03030176 0.01028606 0.00000000
v -0.03090963 0.00828221 0.00000000
v -0.03138513 0.00624289 0.00000000
v -0.03172624 0.00417684 0.00000000
v -0.03193149 0.00209290 0.00000000
v -0.03200000 0.00000000 0.00000000
v -0.03193149 -0.00209290 0.00000000
v -0.03172624 -0.00417684 0.00000000
v -0.03138513 -0.00624289 0.00000000
v -0.03090963 -0.00828221 0.00000000
v -0.03030176 -0.01028606 0.00000000
v -0.02956415 -0.01224587 0.00000000
v -0.02869993 -0.01415324 0.00000000
v -0.02771281 -0.01600000 0.00000000
v -0.02660703 -0.01777825 0.00000000
v -0.02538731 -0.01948037 0.00000000
v -0.02405887 -0.02109907 0.00000000
v -0.02262742 -0.02262742 0.00000000
v -0.02109907 -0.02405887 0.00000000
v -0.01948037 -0.02538731 0.00000000
v -0.01777825 -0.02660703 0.00000000
v -0.01600000 -0.02771281 0.00000000
v -0.01415324 -0.02869993 0.00000000
v -0.01224587 -0.02956415 0.00000000
v -0.01028606 -0.03030176 0.00000000
v -0.00828221 -0.03090963 0.00000000
v -0.00624289 -0.03138513 0.00000000
v -0.00417684 -0.03172624 0.00000000
v -0.00209290 -0.03193149 0.00000000
v -0.00000000 -0.03200000 0.00000000
v 0.00209290 -0.03193149 0.00000000
v 0.00417684 -0.03172624 0.00000000
v 0.00624289 -0.03138513 0.00000000
v 0.00828221 -0.03090963 0.00000000
v 0.01028606 -0.03030176 0.00000000
v 0.01224587 -0.02956415 0.00000000
v 0.01415324 -0.02869993 0.00000000
v 0.01600000 -0.02771281 0.00000000
v 0.01777825 -0.02660703 0.00000000
v 0.01948037 -0.02538731 0.00000000
v 0.02109907 -0.02405887 0.00000000
v 0.02262742 -0.02262742 0.00000000
v 0.02405887 -0.02109907 0.00000000
v 0.02538731 -0.01948037 0.00000000
v 0.02660703 -0.01777825 0.00000000
v 0.02771281 -0.01600000 0.00000000
v 0.02869993 -0.01415324 0.00000000
v 0.02956415 -0.01224587 0.00000000
v 0.03030176 -0.01028606 0.00000000
v 0.03090963 -0.00828221 0.00000000
v 0.03138513 -0.00624289 0.00000000
v 0.03172624 -0.00417684 0.00000000
v 0.03193149 -0.00209290 0.00000000
v 0.03200000 0.00000000 0.10400000
v 0.03193149 0.00209290 0.10400000
v 0.03172624 0.00417684 0.10400000
v 0.03138513 0.00624289 0.10400000
v 0.03090963 0.00828221 0.10400000
v 0.03030176 0.01028606 0.10400000
v 0.02956415 0.01224587 0.10400000
v 0.02869993 0.01415324 0.10400000
v 0.02771281 0.01600000 0.10400000
v 0.02660703 0.01777825 0.10400000
v 0.02538731 0.01948037 0.10400000
v 0.02405887 0.02109907 0.10400000
v 0.02262742 0.02262742 0.10400000
v 0.02109907 0.02405887 0.10400000
v 0.01948037 0.02538731 0.10400000
v 0.01777825 0.02660703 0.10400000
v 0.01600000 0.02771281 0.10400000
v 0.01415324 0.02869993 0.10400000
v 0.01224587 0.02956415 0.10400000
v 0.01028606 0.03030176 0.10400000
v 0.00828221 0.03090963 0.10400000
v 0.00624289 0.03138513 0.10400000
v 0.00417684 0.03172624 0.10400000
v 0.00209290 0.03193149 0.10400000
v 0.00000000 0.03200000 0.10400000
v -0.00209290 0.03193149 0.10400000
v -0.00417684 0.03172624 0.10400000
v -0.00624289 0.03138513 0.10400000
v -0.00828221 0.03090963 0.10400000
v -0.01028606 0.03030176 0.10400000
v -0.01224587 0.02956415 0.10400000
v -0.01415324 0.02869993 0.10400000
v -0.01600000 0.02771281 0.10400000
v -0.01777825 0.02660703 0.10400000
v -0.01948037 0.02538731 0.10400000
v -0.02109907 0.02405887 0.10400000
v -0.02262742 0.02262742 0.10400000
v -0.02405887 0.02109907 0.10400000
v -0.02538731 0.01948037 0.10400000
v -0.02660703 0.01777825 0.10400000
v -0.02771281 0.01600000 0.10400000
v -0.02869993 0.01415324 0.10400000
v -0.02956415 0.01224587 0.10400000
v -0.03030176 0.01028606 0.10400000
v -0.03090963 0.00828221 0.10400000
v -0.03138513 0.00624289 0.10400000
v -0.03172624 0.00417684 0.10400000
v -0.03193149 0.00209290 0.10400000
v -0.03200000 0.00000000 0.10400000
v -0.03193149 -0.00209290 0.10400000
v -0.03172624 -0.00417684 0.10400000
v -0.03138513 -0.00624289 0.10400000
v -0.03090963 -0.00828221 0.10400000
v -0.03030176 -0.01028606 0.10400000
v -0.02956415 -0.01224587 0.10400000
v -0.02869993 -0.01415324 0.10400000
v -0.02771281 -0.01600000 0.10400000
v -0.02660703 -0.01777825 0.10400000
v -0.02538731 -0.01948037 0.10400000
v -0.02405887 -0.02109907 0.10400000
v -0.02262742 -0.02262742 0.10400000
v -0.02109907 -0.02405887 0.10400000
v -0.01948037 -0.02538731 0.10400000
v -0.01777825 -0.02660703 0.10400000
v -0.01600000 -0.02771281 0.10400000
v -0.01415324 -0.02869993 0.10400000
v -0.01224587 -0.02956415 0.10400000
v -0.01028606 -0.03030176 0.10400000
v -0.00828221 -0.03090963 0.10400000
v -0.00624289 -0.03138513 0.10400000
v -0.00417684 -0.03172624 0.10400000
v -0.00209290 -0.03193149 0.10400000
v -0.00000000 -0.03200000 0.10400000
v 0.00209290 -0.03193149 0.10400000
v 0.00417684 -0.03172624 0.10400000
v 0.00624289 -0.03138513 0.10400000
v 0.00828221 -0.03090963 0.10400000
v 0.01028606 -0.03030176 0.10400000
v 0.01224587 -0.02956415 0.10400000
v 0.01415324 -0.02869993 0.10400000
v 0.01600000 -0.02771281 0.10400000
v 0.01777825 -0.02660703 0.10400000
v 0.01948037 -0.02538731 0.10400000
v 0.02109907 -0.02405887 0.10400000
v 0.02262742 -0.02262742 0.10400000
v 0.02405887 -0.02109907 0.10400000
v 0.02538731 -0.01948037 0.10400000
v 0.02660703 -0.01777825 0.10400000
v 0.02771281 -0.01600000 0.10400000
v 0.02869993 -0.01415324 0.10400000
v 0.02956415 -0.01224587 0.10400000
v 0.03030176 -0.01028606 0.10400000
v 0.03090963 -0.00828221 0.10400000
v 0.03138513 -0.00624289 0.10400000
v 0.03172624 -0.00417684 0.10400000
v 0.03193149 -0.00209290 0.10400000
v 0.02800000 0.00000000 0.10400000
v 0.02794005 0.00183129 0.10400000
v 0.02776046 0.00365473 0.10400000
v 0.02746199 0.00546253 0.10400000
v 0.02704592 0.00724693 0.10400000
v 0.02651404 0.00900031 0.10400000
v 0.02586863 0.01071514 0.10400000
v 0.02511244 0.01238408 0.10400000
v 0.02424871 0.01400000 0.10400000
v 0.02328115 0.01555597 0.10400000
v 0.02221389 0.01704532 0.10400000
v 0.02105151 0.01846168 0.10400000
v 0.01979899 0.01979899 0.10400000
v 0.01846168 0.02105151 0.10400000
v 0.01704532 0.02221389 0.10400000
v 0.01555597 0.02328115 0.10400000
v 0.01400000 0.02424871 0.10400000
v 0.01238408 0.02511244 0.10400000
v 0.01071514 0.02586863 0.10400000
v 0.00900031 0.02651404 0.10400000
v 0.00724693 0.02704592 0.10400000
v 0.00546253 0.02746199 0.10400000
v 0.00365473 0.02776046 0.10400000
v 0.00183129 0.02794005 0.10400000
v 0.00000000 0.02800000 0.10400000
v -0.00183129 0.02794005 0.10400000
v -0.00365473 0.02776046 0.10400000
v -0.00546253 0.02746199 0.10400000
v -0.00724693 0.02704592 0.10400000
v -0.00900031 0.02651404 0.10400000
v -0.01071514 0.02586863 0.10400000
v -0.01238408 0.02511244 0.10400000
v -0.01400000 0.02424871 0.10400000
v -0.01555597 0.02328115 0.10400000
v -0.01704532 0.02221389 0.10400000
v -0.01846168 0.02105151 0.10400000
v -0.01979899 0.01979899 0.10400000
v -0.02105151 0.01846168 0.10400000
v -0.02221389 0.01704532 0.10400000
v -0.02328115 0.01555597 0.10400000
v -0.02424871 0.01400000 0.10400000
v -0.02511244 0.01238408 0.10400000
v -0.02586863 0.01071514 0.10400000
v -0.02651404 0.00900031 0.10400000
v -0.02704592 0.00724693 0.10400000
v -0.02746199 0.00546253 0.10400000
v -0.02776046 0.00365473 0.10400000
v -0.02794005 0.00183129 0.10400000
v -0.02800000 0.00000000 0.10400000
v -0.02794005 -0.00183129 0.10400000
v -0.02776046 -0.00365473 0.10400000
v -0.02746199 -0.00546253 0.10400000
v -0.02704592 -0.00724693 0.10400000
v -0.02651404 -0.00900031 0.10400000
v -0.02586863 -0.01071514 0.10400000
v -0.02511244 -0.01238408 0.10400000
v -0.02424871 -0.01400000 0.10400000
v -0.02328115 -0.01555597 0.10400000
v -0.02221389 -0.01704532 0.10400000
v -0.02105151 -0.01846168 0.10400000
v -0.01979899 -0.01979899 0.10400000
v -0.01846168 -0.02105151 0.10400000
v -0.01704532 -0.02221389 0.10400000
v -0.01555597 -0.02328115 0.10400000
v -0.01400000 -0.02424871 0.10400000
v -0.01238408 -0.02511244 0.10400000
v -0.01071514 -0.02586863 0.10400000
v -0.00900031 -0.02651404 0.10400000
v -0.00724693 -0.02704592 0.10400000
v -0.00546253 -0.02746199 0.10400000
v -0.00365473 -0.02776046 0.10400000
v -0.00183129 -0.02794005 0.10400000
v -0.00000000 -0.02800000 0.10400000
v 0.00183129 -0.02794005 0.10400000
v 0.00365473 -0.02776046 0.10400000
v 0.00546253 -0.02746199 0.10400000
v 0.00724693 -0.02704592 0.10400000
v 0.00900031 -0.02651404 0.10400000
v 0.01071514 -0.02586863 0.10400000
v 0.01238408 -0.02511244 0.10400000
v 0.01400000 -0.02424871 0.10400000
v 0.01555597 -0.02328115 0.10400000
v 0.01704532 -0.02221389 0.10400000
v 0.01846168 -0.02105151 0.10400000
v 0.01979899 -0.01979899 0.10400000
v 0.02105151 -0.01846168 0.10400000
v 0.02221389 -0.01704532 0.10400000
v 0.02328115 -0.01555597 0.10400000
v 0.02424871 -0.01400000 0.10400000
v 0.02511244 -0.01238408 0.10400000
v 0.02586863 -0.01071514 0.10400000
v 0.02651404 -0.00900031 0.10400000
v 0.02704592 -0.00724693 0.10400000
v 0.02746199 -0.00546253 0.10400000
v 0.02776046 -0.00365473 0.10400000
v 0.02794005 -0.00183129 0.10400000
v 0.02800000 0.00000000 0.00400000
v 0.02794005 0.00183129 0.00400000
v 0.02776046 0.00365473 0.00400000
v 0.02746199 0.00546253 0.00400000
v 0.02704592 0.00724693 0.00400000
v 0.02651404 0.00900031 0.00400000
v 0.02586863 0.01071514 0.00400000
v 0.02511244 0.01238408 0.00400000
v 0.02424871 0.01400000 0.00400000
v 0.02328115 0.01555597 0.00400000
v 0.02221389 0.01704532 0.00400000
v 0.02105151 0.01846168 0.00400000
v 0.01979899 0.01979899 0.00400000
v 0.01846168 0.02105151 0.00400000
v 0.01704532 0.02221389 0.00400000
v 0.01555597 0.02328115 0.00400000
v 0.01400000 0.02424871 0.00400000
v 0.01238408 0.02511244 0.00400000
v 0.01071514 0.02586863 0.00400000
v 0.00900031 0.02651404 0.00400000
v 0.00724693 0.02704592 0.00400000
v 0.00546253 0.02746199 0.00400000
v 0.00365473 0.02776046 0.00400000
v 0.00183129 0.02794005 0.00400000
v 0.00000000 0.02800000 0.00400000
v -0.00183129 0.02794005 0.00400000
v -0.00365473 0.02776046 0.00400000
v -0.00546253 0.02746199 0.00400000
v -0.00724693 0.02704592 0.00400000
v -0.00900031 0.02651404 0.00400000
v -0.01071514 0.02586863 0.00400000
v -0.01238408 0.02511244 0.00400000
v -0.01400000 0.02424871 0.00400000
v -0.01555597 0.02328115 0.00400000
v -0.01704532 0.02221389 0.00400000
v -0.01846168 0.02105151 0.00400000
v -0.01979899 0.01979899 0.00400000
v -0.02105151 0.01846168 0.00400000
v -0.02221389 0.01704532 0.00400000
v -0.02328115 0.01555597 0.00400000
v -0.02424871 0.01400000 0.00400000
v -0.02511244 0.01238408 0.00400000
v -0.02586863 0.01071514 0.00400000
v -0.02651404 0.00900031 0.00400000
v -0.02704592 0.00724693 0.00400000
v -0.02746199 0.00546253 0.00400000
v -0.02776046 0.00365473 0.00400000
v -0.02794005 0.00183129 0.00400000
v -0.02800000 0.00000000 0.00400000
v -0.02794005 -0.00183129 0.00400000
v -0.02776046 -0.00365473 0.00400000
v -0.02746199 -0.00546253 0.00400000
v -0.02704592 -0.00724693 0.00400000
v -0.02651404 -0.00900031 0.00400000
v -0.02586863 -0.01071514 0.00400000
v -0.02511244 -0.01238408 0.00400000
v -0.02424871 -0.01400000 0.00400000
v -0.02328115 -0.01555597 0.00400000
v -0.02221389 -0.01704532 0.00400000
v -0.02105151 -0.01846168 0.00400000
v -0.01979899 -0.01979899 0.00400000
v -0.01846168 -0.02105151 0.00400000
v -0.01704532 -0.02221389 0.00400000
v -0.01555597 -0.02328115 0.00400000
v -0.01400000 -0.02424871 0.00400000
v -0.01238408 -0.02511244 0.00400000
v -0.01071514 -0.02586863 0.00400000
v -0.00900031 -0.02651404 0.00400000
v -0.00724693 -0.02704592 0.00400000
v -0.00546253 -0.02746199 0.00400000
v -0.00365473 -0.02776046 0.00400000
v -0.00183129 -0.02794005 0.00400000
v -0.00000000 -0.02800000 0.00400000
v 0.00183129 -0.02794005 0.00400000
v 0.00365473 -0.02776046 0.00400000
v 0.00546253 -0.02746199 0.00400000
v 0.00724693 -0.02704592 0.00400000
v 0.00900031 -0.02651404 0.00400000
v 0.01071514 -0.02586863 0.00400000
v 0.01238408 -0.02511244 0.00400000
v 0.01400000 -0.02424871 0.00400000
v 0.01555597 -0.02328115 0.00400000
v 0.01704532 -0.02221389 0.00400000
v 0.01846168 -0.02105151 0.00400000
v 0.01979899 -0.01979899 0.00400000
v 0.02105151 -0.01846168 0.00400000
v 0.02221389 -0.01704532 0.00400000
v 0.02328115 -0.01555597 0.00400000
v 0.02424871 -0.01400000 0.00400000
v 0.02511244 -0.01238408 0.00400000
v 0.02586863 -0.01071514 0.00400000
v 0.02651404 -0.00900031 0.00400000
v 0.02704592 -0.00724693 0.00400000
v 0.02746199 -0.00546253 0.00400000
v 0.02776046 -0.00365473 0.00400000
v 0.02794005 -0.00183129 0.00400000
v 0.00000000 0.00000000 0.00000000
v 0.00000000 0.00000000 0.00400000
f 1 2 98
f 1 98 97
f 289 193 194
f 289 194 290
f 97 98 194
f 97 194 193
f 385 2 1
f 386 289 290
f 2 3 99
f 2 99 98
f 290 194 195
f 290 195 291
f 98 99 195
f 98 195 194
f 385 3 2
f 386 290 291
f 3 4 100
f 3 100 99
f 291 195 196
f 291 196 292
f 99 100 196
f 99 196 195
f 385 4 3
f 386 291 292
f 4 5 101
f 4 101 100
f 292 196 197
f 292 197 293
f 100 101 197
f 100 197 196
f 385 5 4
f 386 292 293
f 5 6 102
f 5 102 101
f 293 197 198
f 293 198 294
f 101 102 198
f 101 198 197
f 385 6 5
f 386 293 294
f 6 7 103
f 6 103 102
f 294 198 199
f 294 199 295
f 102 103 199
f 102 199 198
f 385 7 6
f 386 294 295
f 7 8 104
f 7 104 103
f 295 199 200
f 295 200 296
f 103 104 200
f 103 200 199
f 385 8 7
f 386 295 296
f 8 9 105
f 8 105 104
f 296 200 201
f 296 201 297
f 104 105 201
f 104 201 200
f 385 9 8
f 386 296 297
f 9 10 106
f 9 106 105
f 297 201 202
f 297 202 298
f 105 106 202
f 105 202 201
f 385 10 9
f 386 297 298
f 10 11 107
f 10 107 106
f 298 202 203
f 298 203 299
f 106 107 203
f 106 203 202
f 385 11 10
f 386 298 299
f 11 12 108
f 11 108 107
f 299 203 204
f 299 204 300
f 107 108 204
f 107 204 203
f 385 12 11
f 386 299 300
f 12 13 109
f 12 109 108
f 300 204 205
f 300 205 301
f 108 109 205
f 108 205 204
f 385 13 12
f 386 300 301
f 13 14 110
f 13 110 109
f 301 205 206
f 301 206 302
f 109 110 206
f 109 206 205
f 385 14 13
f 386 301 302
f 14 15 111
f 14 111 110
f 302 206 207
f 302 207 303
f 110 111 207
f 110 207 206
f 385 15 14
f 386 302 303
f 15 16 112
f 15 112 111
f 303 207 208
f 303 208 304
f 111 112 208
f 111 208 207
f 385 16 15
f 386 303 304
f 16 17 113
f 16 113 112
f 304 208 209
f 304 209 305
f 112 113 209
f 112 209 208
f 385 17 16
f 386 304 305
f 17 18 114
f 17 114 113
f 305 209 210
f 305 210 306
f 113 114 210
f 113 210 209
f 385 18 17
f 386 305 306
f 18 19 115
f 18 115 114
f 306 210 211
f 306 211 307
f 114 115 211
f 114 211 210
f 385 19 18
f 386 306 307
f 19 20 116
f 19 116 115
f 307 211 212
f 307 212 308
f 115 116 212
f 115 212 211
f 385 20 19
f 386 307 308
f 20 21 117
f 20 117 116
f 308 212 213
f 308 213 309
f 116 117 213
f 116 213 212
f 385 21 20
f 386 308 309
f 21 22 118
f 21 118 117
f 309 213 214
f 309 214 310
f 117 118 214
f 117 214 213
f 385 22 21
f 386 309 310
f 22 23 119
f 22 119 118
f 310 214 215
f 310 215 311
f 118 119 215
f 118 215 214
f 385 23 22
f 386 310 311
f 23 24 120
f 23 120 119
f 311 215 216
f 311 216 312
f 119 120 216
f 119 216 215
f 385 24 23
f 386 311 312
f 24 25 121
f 24 121 120
f 312 216 217
f 312 217 313
f 120 121 217
f 120 217 216
f 385 25 24
f 386 312 313
f 25 26 122
f 25 122 121
f 313 217 218
f 313 218 314
f 121 122 218
f 121 218 217
f 385 26 25
f 386 313 314
f 26 27 123
f 26 123 122
f 314 218 219
f 314 219 315
f 122 123 219
f 122 219 218
f 385 27 26
f 386 314 315
f 27 28 124
f 27 124 123
f 315 219 220
f 315 220 316
f 123 124 220
f 123 220 219
f 385 28 27
f 386 315 316
f 28 29 125
f 28 125 124
f 316 220 221
f 316 221 317
f 124 125 221
f 124 221 220
f 385 29 28
f 386 316 317
f 29 30 126
f 29 126 125
f 317 221 222
f 317 222 318
f 125 126 222
f 125 222 221
f 385 30 29
f 386 317 318
f 30 31 127
f 30 127 126
f 318 222 223
f 318 223 319
f 126 127 223
f 126 223 222
f 385 31 30
f 386 318 319
f 31 32 128
f 31 128 127
f 319 223 224
f 319 224 320
f 127 128 224
f 127 224 223
f 385 32 31
f 386 319 320
f 32 33 129
f 32 129 128
f 320 224 225
f 320 225 321
f 128 129 225
f 128 225 224
f 385 33 32
f 386 320 321
f 33 34 130
f 33 130 129
f 321 225 226
f 321 226 322
f 129 130 226
f 129 226 225
f 385 34 33
f 386 321 322
f 34 35 131
f 34 131 130
f 322 226 227
f 322 227 323
f 130 131 227
f 130 227 226
f 385 35 34
f 386 322 323
f 35 36 132
f 35 132 131
f 323 227 228
f 323 228 324
f 131 132 228
f 131 228 227
f 385 36 35
f 386 323 324
f 36 37 133
f 36 133 132
f 324 228 229
f 324 229 325
f 132 133 229
f 132 229 228
f 385 37 36
f 386 324 325
f 37 38 134
f 37 134 133
f 325 229 230
f 325 230 326
f 133 134 230
f 133 230 229
f 385 38 37
f 386 325 326
f 38 39 135
f 38 135 134
f 326 230 231
f 326 231 327
f 134 135 231
f 134 231 230
f 385 39 38
f 386 326 327
f 39 40 136
f 39 136 135
f 327 231 232
f 327 232 328
f 135 136 232
f 135 232 231
f 385 40 39
f 386 327 328
f 40 41 137
f 40 137 136
f 328 232 233
f 328 233 329
f 136 137 233
f 136 233 232
f 385 41 40
f 386 328 329
f 41 42 138
f 41 138 137
f 329 233 234
f 329 234 330
f 137 138 234
f 137 234 233
f 385 42 41
f 386 329 330
f 42 43 139
f 42 139 138
f 330 234 235
f 330 235 331
f 138 139 235
f 138 235 234
f 385 43 42
f 386 330 331
f 43 44 140
f 43 140 139
f 331 235 236
f 331 236 332
f 139 140 236
f 139 236 235
f 385 44 43
f 386 331 332
f 44 45 141
f 44 141 140
f 332 236 237
f 332 237 333
f 140 141 237
f 140 237 236
f 385 45 44
f 386 332 333
f 45 46 142
f 45 142 141
f 333 237 238
f 333 238 334
f 141 142 238
f 141 238 237
f 385 46 45
f 386 333 334
f 46 47 143
f 46 143 142
f 334 238 239
f 334 239 335
f 142 143 239
f 142 239 238
f 385 47 46
f 386 334 335
f 47 48 144
f 47 144 143
f 335 239 240
f 335 240 336
f 143 144 240
f 143 240 239
f 385 48 47
f 386 335 336
f 48 49 145
f 48 145 144
f 336 240 241
f 336 241 337
f 144 145 241
f 144 241 240
f 385 49 48
f 386 336 337
f 49 50 146
f 49 146 145
f 337 241 242
f 337 242 338
f 145 146 242
f 145 242 241
f 385 50 49
f 386 337 338
f 50 51 147
f 50 147 146
f 338 242 243
f 338 243 339
f 146 147 243
f 146 243 242
f 385 51 50
f 386 338 339
f 51 52 148
f 51 148 147
f 339 243 244
f 339 244 340
f 147 148 244
f 147 244 243
f 385 52 51
f 386 339 340
f 52 53 149
f 52 149 148
f 340 244 245
f 340 245 341
f 148 149 245
f 148 245 244
f 385 53 52
f 386 340 341
f 53 54 150
f 53 150 149
f 341 245 246
f 341 246 342
f 149 150 246
f 149 246 245
f 385 54 53
f 386 341 342
f 54 55 151
f 54 151 150
f 342 246 247
f 342 247 343
f 150 151 247
f 150 247 246
f 385 55 54
f 386 342 343
f 55 56 152
f 55 152 151
f 343 247 248
f 343 248 344
f 151 152 248
f 151 248 247
f 385 56 55
f 386 343 344
f 56 57 153
f 56 153 152
f 344 248 249
f 344 249 345
f 152 153 249
f 152 249 248
f 385 57 56
f 386 344 345
f 57 58 154
f 57 154 153
f 345 249 250
f 345 250 346
f 153 154 250
f 153 250 249
f 385 58 57
f 386 345 346
f 58 59 155
f 58 155 154
f 346 250 251
f 346 251 347
f 154 155 251
f 154 251 250
f 385 59 58
f 386 346 347
f 59 60 156
f 59 156 155
f 347 251 252
f 347 252 348
f 155 156 252
f 155 252 251
f 385 60 59
f 386 347 348
f 60 61 157
f 60 157 156
f 348 252 253
f 348 253 349
f 156 157 253
f 156 253 252
f 385 61 60
f 386 348 349
f 61 62 158
f 61 158 157
f 349 253 254
f 349 254 350
f 157 158 254
f 157 254 253
f 385 62 61
f 386 349 350
f 62 63 159
f 62 159 158
f 350 254 255
f 350 255 351
f 158 159 255
f 158 255 254
f 385 63 62
f 386 350 351
f 63 64 160
f 63 160 159
f 351 255 256
f 351 256 352
f 159 160 256
f 159 256 255
f 385 64 63
f 386 351 352
f 64 65 161
f 64 161 160
f 352 256 257
f 352 257 353
f 160 161 257
f 160 257 256
f 385 65 64
f 386 352 353
f 65 66 162
f 65 162 161
f 353 257 258
f 353 258 354
f 161 162 258
f 161 258 257
f 385 66 65
f 386 353 354
f 66 67 163
f 66 163 162
f 354 258 259
f 354 259 355
f 162 163 259
f 162 259 258
f 385 67 66
f 386 354 355
f 67 68 164
f 67 164 163
f 355 259 260
f 355 260 356
f 163 164 260
f 163 260 259
f 385 68 67
f 386 355 356
f 68 69 165
f 68 165 164
f 356 260 261
f 356 261 357
f 164 165 261
f 164 261 260
f 385 69 68
f 386 356 357
f 69 70 166
f 69 166 165
f 357 261 262
f 357 262 358
f 165 166 262
f 165 262 261
f 385 70 69
f 386 357 358
f 70 71 167
f 70 167 166
f 358 262 263
f 358 263 359
f 166 167 263
f 166 263 262
f 385 71 70
f 386 358 359
f 71 72 168
f 71 168 167
f 359 263 264
f 359 264 360
f 167 168 264
f 167 264 263
f 385 72 71
f 386 359 360
f 72 73 169
f 72 169 168
f 360 264 265
f 360 265 361
f 168 169 265
f 168 265 264
f 385 73 72
f 386 360 361
f 73 74 170
f 73 170 169
f 361 265 266
f 361 266 362
f 169 170 266
f 169 266 265
f 385 74 73
f 386 361 362
f 74 75 171
f 74 171 170
f 362 266 267
f 362 267 363
f 170 171 267
f 170 267 266
f 385 75 74
f 386 362 363
f 75 76 172
f 75 172 171
f 363 267 268
f 363 268 364
f 171 172 268
f 171 268 267
f 385 76 75
f 386 363 364
f 76 77 173
f 76 173 172
f 364 268 269
f 364 269 365
f 172 173 269
f 172 269 268
f 385 77 76
f 386 364 365
f 77 78 174
f 77 174 173
f 365 269 270
f 365 270 366
f 173 174 270
f 173 270 269
f 385 78 77
f 386 365 366
f 78 79 175
f 78 175 174
f 366 270 271
f 366 271 367
f 174 175 271
f 174 271 270
f 385 79 78
f 386 366 367
f 79 80 176
f 79 176 175
f 367 271 272
f 367 272 368
f 175 176 272
f 175 272 271
f 385 80 79
f 386 367 368
f 80 81 177
f 80 177 176
f 368 272 273
f 368 273 369
f 176 177 273
f 176 273 272
f 385 81 80
f 386 368 369
f 81 82 178
f 81 178 177
f 369 273 274
f 369 274 370
f 177 178 274
f 177 274 273
f 385 82 81
f 386 369 370
f 82 83 179
f 82 179 178
f 370 274 275
f 370 275 371
f 178 179 275
f 178 275 274
f 385 83 82
f 386 370 371
f 83 84 180
f 83 180 179
f 371 275 276
f 371 276 372
f 179 180 276
f 179 276 275
f 385 84 83
f 386 371 372
f 84 85 181
f 84 181 180
f 372 276 277
f 372 277 373
f 180 181 277
f 180 277 276
f 385 85 84
f 386 372 373
f 85 86 182
f 85 182 181
f 373 277 278
f 373 278 374
f 181 182 278
f 181 278 277
f 385 86 85
f 386 373 374
f 86 87 183
f 86 183 182
f 374 278 279
f 374 279 375
f 182 183 279
f 182 279 278
f 385 87 86
f 386 374 375
f 87 88 184
f 87 184 183
f 375 279 280
f 375 280 376
f 183 184 280
f 183 280 279
f 385 88 87
f 386 375 376
f 88 89 185
f 88 185 184
f 376 280 281
f 376 281 377
f 184 185 281
f 184 281 280
f 385 89 88
f 386 376 377
f 89 90 186
f 89 186 185
f 377 281 282
f 377 282 378
f 185 186 282
f 185 282 281
f 385 90 89
f 386 377 378
f 90 91 187
f 90 187 186
f 378 282 283
f 378 283 379
f 186 187 283
f 186 283 282
f 385 91 90
f 386 378 379
f 91 92 188
f 91 188 187
f 379 283 284
f 379 284 380
f 187 188 284
f 187 284 283
f 385 92 91
f 386 379 380
f 92 93 189
f 92 189 188
f 380 284 285
f 380 285 381
f 188 189 285
f 188 285 284
f 385 93 92
f 386 380 381
f 93 94 190
f 93 190 189
f 381 285 286
f 381 286 382
f 189 190 286
f 189 286 285
f 385 94 93
f 386 381 382
f 94 95 191
f 94 191 190
f 382 286 287
f 382 287 383
f 190 191 287
f 190 287 286
f 385 95 94
f 386 382 383
f 95 96 192
f 95 192 191
f 383 287 288
f 383 288 384
f 191 192 288
f 191 288 287
f 385 96 95
f 386 383 384
f 96 1 97
f 96 97 192
f 384 288 193
f 384 193 289
f 192 97 193
f 192 193 288
f 385 1 96
f 386 384 289

