# https://github.com/mikedh/trimesh
v 0.00000000 0.00000000 0.00000000
v 0.02200000 0.00000000 0.00000000
v 0.02200000 0.00000000 0.04000000
v 0.02000000 0.00000000 0.04000000
v 0.02000000 0.00000000 0.00400000
v 0.00000000 0.00000000 0.00400000
v 0.02197350 0.00107949 0.00000000
v 0.02197350 0.00107949 0.04000000
v 0.01997591 0.00098135 0.04000000
v 0.01997591 0.00098135 0.00400000
v 0.02189406 0.00215638 0.00000000
v 0.02189406 0.00215638 0.04000000
v 0.01990369 0.00196034 0.04000000
v 0.01990369 0.00196034 0.00400000
v 0.02176188 0.00322807 0.00000000
v 0.02176188 0.00322807 0.04000000
v 0.01978353 0.00293461 0.04000000
v 0.01978353 0.00293461 0.00400000
v 0.02157728 0.00429199 0.00000000
v 0.02157728 0.00429199 0.04000000
v 0.01961571 0.00390181 0.04000000
v 0.01961571 0.00390181 0.00400000
v 0.02134069 0.00534556 0.00000000
v 0.02134069 0.00534556 0.04000000
v 0.01940063 0.00485960 0.04000000
v 0.01940063 0.00485960 0.00400000
v 0.02105269 0.00638626 0.00000000
v 0.02105269 0.00638626 0.04000000
v 0.01913881 0.00580569 0.04000000
v 0.01913881 0.00580569 0.00400000
v 0.02071397 0.00741158 0.00000000
v 0.02071397 0.00741158 0.04000000
v 0.01883088 0.00673780 0.04000000
v 0.01883088 0.00673780 0.00400000
v 0.02032535 0.00841904 0.00000000
v 0.02032535 0.00841904 0.04000000
v 0.01847759 0.00765367 0.04000000
v 0.01847759 0.00765367 0.00400000
v 0.01988776 0.00940621 0.00000000
v 0.01988776 0.00940621 0.04000000
v 0.01807979 0.00855110 0.04000000
v 0.01807979 0.00855110 0.00400000
v 0.01940227 0.01037073 0.00000000
v 0.01940227 0.01037073 0.04000000
v 0.01763843 0.00942793 0.04000000
v 0.01763843 0.00942793 0.00400000
v 0.01887003 0.01131026 0.00000000
v 0.01887003 0.01131026 0.04000000
v 0.01715457 0.01028205 0.04000000
v 0.01715457 0.01028205 0.00400000
v 0.01829233 0.01222255 0.00000000
v 0.01829233 0.01222255 0.04000000
v 0.01662939 0.01111140 0.04000000
v 0.01662939 0.01111140 0.00400000
v 0.01767057 0.01310538 0.00000000
v 0.01767057 0.01310538 0.04000000
v 0.01606415 0.01191399 0.04000000
v 0.01606415 0.01191399 0.00400000
v 0.01700623 0.01395665 0.00000000
v 0.01700623 0.01395665 0.04000000
v 0.01546021 0.01268787 0.04000000
v 0.01546021 0.01268787 0.00400000
v 0.01630092 0.01477430 0.00000000
v 0.01630092 0.01477430 0.04000000
v 0.01481902 0.01343118 0.04000000
v 0.01481902 0.01343118 0.00400000
v 0.01555635 0.01555635 0.00000000
v 0.01555635 0.01555635 0.04000000
v 0.01414214 0.01414214 0.04000000
v 0.01414214 0.01414214 0.00400000
v 0.01477430 0.01630092 0.00000000
v 0.01477430 0.01630092 0.04000000
v 0.01343118 0.01481902 0.04000000
v 0.01343118 0.01481902 0.00400000
v 0.01395665 0.01700623 0.00000000
v 0.01395665 0.01700623 0.04000000
v 0.01268787 0.01546021 0.04000000
v 0.01268787 0.01546021 0.00400000
v 0.01310538 0.01767057 0.00000000
v 0.01310538 0.01767057 0.04000000
v 0.01191399 0.01606415 0.04000000
v 0.01191399 0.01606415 0.00400000
v 0.01222255 0.01829233 0.00000000
v 0.01222255 0.01829233 0.04000000
v 0.01111140 0.01662939 0.04000000
v 0.01111140 0.01662939 0.00400000
v 0.01131026 0.01887003 0.00000000
v 0.01131026 0.01887003 0.04000000
v 0.01028205 0.01715457 0.04000000
v 0.01028205 0.01715457 0.00400000
v 0.01037073 0.01940227 0.00000000
v 0.01037073 0.01940227 0.04000000
v 0.00942793 0.01763843 0.04000000
v 0.00942793 0.01763843 0.00400000
v 0.00940621 0.01988776 0.00000000
v 0.00940621 0.01988776 0.04000000
v 0.00855110 0.01807979 0.04000000
v 0.00855110 0.01807979 0.00400000
v 0.00841904 0.02032535 0.00000000
v 0.00841904 0.02032535 0.04000000
v 0.00765367 0.01847759 0.04000000
v 0.00765367 0.01847759 0.00400000
v 0.00741158 0.02071397 0.00000000
v 0.00741158 0.02071397 0.04000000
v 0.00673780 0.01883088 0.04000000
v 0.00673780 0.01883088 0.00400000
v 0.00638626 0.02105269 0.00000000
v 0.00638626 0.02105269 0.04000000
v 0.00580569 0.01913881 0.04000000
v 0.00580569 0.01913881 0.00400000
v 0.00534556 0.02134069 0.00000000
v 0.00534556 0.02134069 0.04000000
v 0.00485960 0.01940063 0.04000000
v 0.00485960 0.01940063 0.00400000
v 0.00429199 0.02157728 0.00000000
v 0.00429199 0.02157728 0.04000000
v 0.00390181 0.01961571 0.04000000
v 0.00390181 0.01961571 0.00400000
v 0.00322807 0.02176188 0.00000000
v 0.00322807 0.02176188 0.04000000
v 0.00293461 0.01978353 0.04000000
v 0.00293461 0.01978353 0.00400000
v 0.00215638 0.02189406 0.00000000
v 0.00215638 0.02189406 0.04000000
v 0.00196034 0.01990369 0.04000000
v 0.00196034 0.01990369 0.00400000
v 0.00107949 0.02197350 0.00000000
v 0.00107949 0.02197350 0.04000000
v 0.00098135 0.01997591 0.04000000
v 0.00098135 0.01997591 0.00400000
v 0.00000000 0.02200000 0.00000000
v 0.00000000 0.02200000 0.04000000
v 0.00000000 0.02000000 0.04000000
v 0.00000000 0.02000000 0.00400000
v -0.00107949 0.02197350 0.00000000
v -0.00107949 0.02197350 0.04000000
v -0.00098135 0.01997591 0.04000000
v -0.00098135 0.01997591 0.00400000
v -0.00215638 0.02189406 0.00000000
v -0.00215638 0.02189406 0.04000000
v -0.00196034 0.01990369 0.04000000
v -0.00196034 0.01990369 0.00400000
v -0.00322807 0.02176188 0.00000000
v -0.00322807 0.02176188 0.04000000
v -0.00293461 0.01978353 0.04000000
v -0.00293461 0.01978353 0.00400000
v -0.00429199 0.02157728 0.00000000
v -0.00429199 0.02157728 0.04000000
v -0.00390181 0.01961571 0.04000000
v -0.00390181 0.01961571 0.00400000
v -0.00534556 0.02134069 0.00000000
v -0.00534556 0.02134069 0.04000000
v -0.00485960 0.01940063 0.04000000
v -0.00485960 0.01940063 0.00400000
v -0.00638626 0.02105269 0.00000000
v -0.00638626 0.02105269 0.04000000
v -0.00580569 0.01913881 0.04000000
v -0.00580569 0.01913881 0.00400000
v -0.00741158 0.02071397 0.00000000
v -0.00741158 0.02071397 0.04000000
v -0.00673780 0.01883088 0.04000000
v -0.00673780 0.01883088 0.00400000
v -0.00841904 0.02032535 0.00000000
v -0.00841904 0.02032535 0.04000000
v -0.00765367 0.01847759 0.04000000
v -0.00765367 0.01847759 0.00400000
v -0.00940621 0.01988776 0.00000000
v -0.00940621 0.01988776 0.04000000
v -0.00855110 0.01807979 0.04000000
v -0.00855110 0.01807979 0.00400000
v -0.01037073 0.01940227 0.00000000
v -0.01037073 0.01940227 0.04000000
v -0.00942793 0.01763843 0.04000000
v -0.00942793 0.01763843 0.00400000
v -0.01131026 0.01887003 0.00000000
v -0.01131026 0.01887003 0.04000000
v -0.01028205 0.01715457 0.04000000
v -0.01028205 0.01715457 0.00400000
v -0.01222255 0.01829233 0.00000000
v -0.01222255 0.01829233 0.04000000
v -0.01111140 0.01662939 0.04000000
v -0.01111140 0.01662939 0.00400000
v -0.01310538 0.01767057 0.00000000
v -0.01310538 0.01767057 0.04000000
v -0.01191399 0.01606415 0.04000000
v -0.01191399 0.01606415 0.00400000
v -0.01395665 0.01700623 0.00000000
v -0.01395665 0.01700623 0.04000000
v -0.01268787 0.01546021 0.04000000
v -0.01268787 0.01546021 0.00400000
v -0.01477430 0.01630092 0.00000000
v -0.01477430 0.01630092 0.04000000
v -0.01343118 0.01481902 0.04000000
v -0.01343118 0.01481902 0.00400000
v -0.01555635 0.01555635 0.00000000
v -0.01555635 0.01555635 0.04000000
v -0.01414214 0.01414214 0.04000000
v -0.01414214 0.01414214 0.00400000
v -0.01630092 0.01477430 0.00000000
v -0.01630092 0.01477430 0.04000000
v -0.01481902 0.01343118 0.04000000
v -0.01481902 0.01343118 0.00400000
v -0.01700623 0.01395665 0.00000000
v -0.01700623 0.01395665 0.04000000
v -0.01546021 0.01268787 0.04000000
v -0.01546021 0.01268787 0.00400000
v -0.01767057 0.01310538 0.00000000
v -0.01767057 0.01310538 0.04000000
v -0.01606415 0.01191399 0.04000000
v -0.01606415 0.01191399 0.00400000
v -0.01829233 0.01222255 0.00000000
v -0.01829233 0.01222255 0.04000000
v -0.01662939 0.01111140 0.04000000
v -0.01662939 0.01111140 0.00400000
v -0.01887003 0.01131026 0.00000000
v -0.01887003 0.01131026 0.04000000
v -0.01715457 0.01028205 0.04000000
v -0.01715457 0.01028205 0.00400000
v -0.01940227 0.01037073 0.00000000
v -0.01940227 0.01037073 0.04000000
v -0.01763843 0.00942793 0.04000000
v -0.01763843 0.00942793 0.00400000
v -0.01988776 0.00940621 0.00000000
v -0.01988776 0.00940621 0.04000000
v -0.01807979 0.00855110 0.04000000
v -0.01807979 0.00855110 0.00400000
v -0.02032535 0.00841904 0.00000000
v -0.02032535 0.00841904 0.04000000
v -0.01847759 0.00765367 0.04000000
v -0.01847759 0.00765367 0.00400000
v -0.02071397 0.00741158 0.00000000
v -0.02071397 0.00741158 0.04000000
v -0.01883088 0.00673780 0.04000000
v -0.01883088 0.00673780 0.00400000
v -0.02105269 0.00638626 0.00000000
v -0.02105269 0.00638626 0.04000000
v -0.01913881 0.00580569 0.04000000
v -0.01913881 0.00580569 0.00400000
v -0.02134069 0.00534556 0.00000000
v -0.02134069 0.00534556 0.04000000
v -0.01940063 0.00485960 0.04000000
v -0.01940063 0.00485960 0.00400000
v -0.02157728 0.00429199 0.00000000
v -0.02157728 0.00429199 0.04000000
v -0.01961571 0.00390181 0.04000000
v -0.01961571 0.00390181 0.00400000
v -0.02176188 0.00322807 0.00000000
v -0.02176188 0.00322807 0.04000000
v -0.01978353 0.00293461 0.04000000
v -0.01978353 0.00293461 0.00400000
v -0.02189406 0.00215638 0.00000000
v -0.02189406 0.00215638 0.04000000
v -0.01990369 0.00196034 0.04000000
v -0.01990369 0.00196034 0.00400000
v -0.02197350 0.00107949 0.00000000
v -0.02197350 0.00107949 0.04000000
v -0.01997591 0.00098135 0.04000000
v -0.01997591 0.00098135 0.00400000
v -0.02200000 0.00000000 0.00000000
v -0.02200000 0.00000000 0.04000000
v -0.02000000 0.00000000 0.04000000
v -0.02000000 0.00000000 0.00400000
v -0.02197350 -0.00107949 0.00000000
v -0.02197350 -0.00107949 0.04000000
v -0.01997591 -0.00098135 0.04000000
v -0.01997591 -0.00098135 0.00400000
v -0.02189406 -0.00215638 0.00000000
v -0.02189406 -0.00215638 0.04000000
v -0.01990369 -0.00196034 0.04000000
v -0.01990369 -0.00196034 0.00400000
v -0.02176188 -0.00322807 0.00000000
v -0.02176188 -0.00322807 0.04000000
v -0.01978353 -0.00293461 0.04000000
v -0.01978353 -0.00293461 0.00400000
v -0.02157728 -0.00429199 0.00000000
v -0.02157728 -0.00429199 0.04000000
v -0.01961571 -0.00390181 0.04000000
v -0.01961571 -0.00390181 0.00400000
v -0.02134069 -0.00534556 0.00000000
v -0.02134069 -0.00534556 0.04000000
v -0.01940063 -0.00485960 0.04000000
v -0.01940063 -0.00485960 0.00400000
v -0.02105269 -0.00638626 0.00000000
v -0.02105269 -0.00638626 0.04000000
v -0.01913881 -0.00580569 0.04000000
v -0.01913881 -0.00580569 0.00400000
v -0.02071397 -0.00741158 0.00000000
v -0.02071397 -0.00741158 0.04000000
v -0.01883088 -0.00673780 0.04000000
v -0.01883088 -0.00673780 0.00400000
v -0.02032535 -0.00841904 0.00000000
v -0.02032535 -0.00841904 0.04000000
v -0.01847759 -0.00765367 0.04000000
v -0.01847759 -0.00765367 0.00400000
v -0.01988776 -0.00940621 0.00000000
v -0.01988776 -0.00940621 0.04000000
v -0.01807979 -0.00855110 0.04000000
v -0.01807979 -0.00855110 0.00400000
v -0.01940227 -0.01037073 0.00000000
v -0.01940227 -0.01037073 0.04000000
v -0.01763843 -0.00942793 0.04000000
v -0.01763843 -0.00942793 0.00400000
v -0.01887003 -0.01131026 0.00000000
v -0.01887003 -0.01131026 0.04000000
v -0.01715457 -0.01028205 0.04000000
v -0.01715457 -0.01028205 0.00400000
v -0.01829233 -0.01222255 0.00000000
v -0.01829233 -0.01222255 0.04000000
v -0.01662939 -0.01111140 0.04000000
v -0.01662939 -0.01111140 0.00400000
v -0.01767057 -0.01310538 0.00000000
v -0.01767057 -0.01310538 0.04000000
v -0.01606415 -0.01191399 0.04000000
v -0.01606415 -0.01191399 0.00400000
v -0.01700623 -0.01395665 0.00000000
v -0.01700623 -0.01395665 0.04000000
v -0.01546021 -0.01268787 0.04000000
v -0.01546021 -0.01268787 0.00400000
v -0.01630092 -0.01477430 0.00000000
v -0.01630092 -0.01477430 0.04000000
v -0.01481902 -0.01343118 0.04000000
v -0.01481902 -0.01343118 0.00400000
v -0.01555635 -0.01555635 0.00000000
v -0.01555635 -0.01555635 0.04000000
v -0.01414214 -0.01414214 0.04000000
v -0.01414214 -0.01414214 0.00400000
v -0.01477430 -0.01630092 0.00000000
v -0.01477430 -0.01630092 0.04000000
v -0.01343118 -0.01481902 0.04000000
v -0.01343118 -0.01481902 0.00400000
v -0.01395665 -0.01700623 0.00000000
v -0.01395665 -0.01700623 0.04000000
v -0.01268787 -0.01546021 0.04000000
v -0.01268787 -0.01546021 0.00400000
v -0.01310538 -0.01767057 0.00000000
v -0.01310538 -0.01767057 0.04000000
v -0.01191399 -0.01606415 0.04000000
v -0.01191399 -0.01606415 0.00400000
v -0.01222255 -0.01829233 0.00000000
v -0.01222255 -0.01829233 0.04000000
v -0.01111140 -0.01662939 0.04000000
v -0.01111140 -0.01662939 0.00400000
v -0.01131026 -0.01887003 0.00000000
v -0.01131026 -0.01887003 0.04000000
v -0.01028205 -0.01715457 0.04000000
v -0.01028205 -0.01715457 0.00400000
v -0.01037073 -0.01940227 0.00000000
v -0.01037073 -0.01940227 0.04000000
v -0.00942793 -0.01763843 0.04000000
v -0.00942793 -0.01763843 0.00400000
v -0.00940621 -0.01988776 0.00000000
v -0.00940621 -0.01988776 0.04000000
v -0.00855110 -0.01807979 0.04000000
v -0.00855110 -0.01807979 0.00400000
v -0.00841904 -0.02032535 0.00000000
v -0.00841904 -0.02032535 0.04000000
v -0.00765367 -0.01847759 0.04000000
v -0.00765367 -0.01847759 0.00400000
v -0.00741158 -0.02071397 0.00000000
v -0.00741158 -0.02071397 0.04000000
v -0.00673780 -0.01883088 0.04000000
v -0.00673780 -0.01883088 0.00400000
v -0.00638626 -0.02105269 0.00000000
v -0.00638626 -0.02105269 0.04000000
v -0.00580569 -0.01913881 0.04000000
v -0.00580569 -0.01913881 0.00400000
v -0.00534556 -0.02134069 0.00000000
v -0.00534556 -0.02134069 0.04000000
v -0.00485960 -0.01940063 0.04000000
v -0.00485960 -0.01940063 0.00400000
v -0.00429199 -0.02157728 0.00000000
v -0.00429199 -0.02157728 0.04000000
v -0.00390181 -0.01961571 0.04000000
v -0.00390181 -0.01961571 0.00400000
v -0.00322807 -0.02176188 0.00000000
v -0.00322807 -0.02176188 0.04000000
v -0.00293461 -0.01978353 0.04000000
v -0.00293461 -0.01978353 0.00400000
v -0.00215638 -0.02189406 0.00000000
v -0.00215638 -0.02189406 0.04000000
v -0.00196034 -0.01990369 0.04000000
v -0.00196034 -0.01990369 0.00400000
v -0.00107949 -0.02197350 0.00000000
v -0.00107949 -0.02197350 0.04000000
v -0.00098135 -0.01997591 0.04000000
v -0.00098135 -0.01997591 0.00400000
v -0.00000000 -0.02200000 0.00000000
v -0.00000000 -0.02200000 0.04000000
v -0.00000000 -0.02000000 0.04000000
v -0.00000000 -0.02000000 0.00400000
v 0.00107949 -0.02197350 0.00000000
v 0.00107949 -0.02197350 0.04000000
v 0.00098135 -0.01997591 0.04000000
v 0.00098135 -0.01997591 0.00400000
v 0.00215638 -0.02189406 0.00000000
v 0.00215638 -0.02189406 0.04000000
v 0.00196034 -0.01990369 0.04000000
v 0.00196034 -0.01990369 0.00400000
v 0.00322807 -0.02176188 0.00000000
v 0.00322807 -0.02176188 0.04000000
v 0.00293461 -0.01978353 0.04000000
v 0.00293461 -0.01978353 0.00400000
v 0.00429199 -0.02157728 0.00000000
v 0.00429199 -0.02157728 0.04000000
v 0.00390181 -0.01961571 0.04000000
v 0.00390181 -0.01961571 0.00400000
v 0.00534556 -0.02134069 0.00000000
v 0.00534556 -0.02134069 0.04000000
v 0.00485960 -0.01940063 0.04000000
v 0.00485960 -0.01940063 0.00400000
v 0.00638626 -0.02105269 0.00000000
v 0.00638626 -0.02105269 0.04000000
v 0.00580569 -0.01913881 0.04000000
v 0.00580569 -0.01913881 0.00400000
v 0.00741158 -0.02071397 0.00000000
v 0.00741158 -0.02071397 0.04000000
v 0.00673780 -0.01883088 0.04000000
v 0.00673780 -0.01883088 0.00400000
v 0.00841904 -0.02032535 0.00000000
v 0.00841904 -0.02032535 0.04000000
v 0.00765367 -0.01847759 0.04000000
v 0.00765367 -0.01847759 0.00400000
v 0.00940621 -0.01988776 0.00000000
v 0.00940621 -0.01988776 0.04000000
v 0.00855110 -0.01807979 0.04000000
v 0.00855110 -0.01807979 0.00400000
v 0.01037073 -0.01940227 0.00000000
v 0.01037073 -0.01940227 0.04000000
v 0.00942793 -0.01763843 0.04000000
v 0.00942793 -0.01763843 0.00400000
v 0.01131026 -0.01887003 0.00000000
v 0.01131026 -0.01887003 0.04000000
v 0.01028205 -0.01715457 0.04000000
v 0.01028205 -0.01715457 0.00400000
v 0.01222255 -0.01829233 0.00000000
v 0.01222255 -0.01829233 0.04000000
v 0.01111140 -0.01662939 0.04000000
v 0.01111140 -0.01662939 0.00400000
v 0.01310538 -0.01767057 0.00000000
v 0.01310538 -0.01767057 0.04000000
v 0.01191399 -0.01606415 0.04000000
v 0.01191399 -0.01606415 0.00400000
v 0.01395665 -0.01700623 0.00000000
v 0.01395665 -0.01700623 0.04000000
v 0.01268787 -0.01546021 0.04000000
v 0.01268787 -0.01546021 0.00400000
v 0.01477430 -0.01630092 0.00000000
v 0.01477430 -0.01630092 0.04000000
v 0.01343118 -0.01481902 0.04000000
v 0.01343118 -0.01481902 0.00400000
v 0.01555635 -0.01555635 0.00000000
v 0.01555635 -0.01555635 0.04000000
v 0.01414214 -0.01414214 0.04000000
v 0.01414214 -0.01414214 0.00400000
v 0.01630092 -0.01477430 0.00000000
v 0.01630092 -0.01477430 0.04000000
v 0.01481902 -0.01343118 0.04000000
v 0.01481902 -0.01343118 0.00400000
v 0.01700623 -0.01395665 0.00000000
v 0.01700623 -0.01395665 0.04000000
v 0.01546021 -0.01268787 0.04000000
v 0.01546021 -0.01268787 0.00400000
v 0.01767057 -0.01310538 0.00000000
v 0.01767057 -0.01310538 0.04000000
v 0.01606415 -0.01191399 0.04000000
v 0.01606415 -0.01191399 0.00400000
v 0.01829233 -0.01222255 0.00000000
v 0.01829233 -0.01222255 0.04000000
v 0.01662939 -0.01111140 0.04000000
v 0.01662939 -0.01111140 0.00400000
v 0.01887003 -0.01131026 0.00000000
v 0.01887003 -0.01131026 0.04000000
v 0.01715457 -0.01028205 0.04000000
v 0.01715457 -0.01028205 0.00400000
v 0.01940227 -0.01037073 0.00000000
v 0.01940227 -0.01037073 0.04000000
v 0.01763843 -0.00942793 0.04000000
v 0.01763843 -0.00942793 0.00400000
v 0.01988776 -0.00940621 0.00000000
v 0.01988776 -0.00940621 0.04000000
v 0.01807979 -0.00855110 0.04000000
v 0.01807979 -0.00855110 0.00400000
v 0.02032535 -0.00841904 0.00000000
v 0.02032535 -0.00841904 0.04000000
v 0.01847759 -0.00765367 0.04000000
v 0.01847759 -0.00765367 0.00400000
v 0.02071397 -0.00741158 0.00000000
v 0.02071397 -0.00741158 0.04000000
v 0.01883088 -0.00673780 0.04000000
v 0.01883088 -0.00673780 0.00400000
v 0.02105269 -0.00638626 0.00000000
v 0.02105269 -0.00638626 0.04000000
v 0.01913881 -0.00580569 0.04000000
v 0.01913881 -0.00580569 0.00400000
v 0.02134069 -0.00534556 0.00000000
v 0.02134069 -0.00534556 0.04000000
v 0.01940063 -0.00485960 0.04000000
v 0.01940063 -0.00485960 0.00400000
v 0.02157728 -0.00429199 0.00000000
v 0.02157728 -0.00429199 0.04000000
v 0.01961571 -0.00390181 0.04000000
v 0.01961571 -0.00390181 0.00400000
v 0.02176188 -0.00322807 0.00000000
v 0.02176188 -0.00322807 0.04000000
v 0.01978353 -0.00293461 0.04000000
v 0.01978353 -0.00293461 0.00400000
v 0.02189406 -0.00215638 0.00000000
v 0.02189406 -0.00215638 0.04000000
v 0.01990369 -0.00196034 0.04000000
v 0.01990369 -0.00196034 0.00400000
v 0.02197350 -0.00107949 0.00000000
v 0.02197350 -0.00107949 0.04000000
v 0.01997591 -0.00098135 0.04000000
v 0.01997591 -0.00098135 0.00400000
f 2 1 7
f 2 7 3
f 3 7 8
f 3 8 4
f 4 8 9
f 4 9 5
f 5 9 10
f 5 10 6
f 7 1 11
f 7 11 8
f 8 11 12
f 8 12 9
f 9 12 13
f 9 13 10
f 10 13 14
f 10 14 6
f 11 1 15
f 11 15 12
f 12 15 16
f 12 16 13
f 13 16 17
f 13 17 14
f 14 17 18
f 14 18 6
f 15 1 19
f 15 19 16
f 16 19 20
f 16 20 17
f 17 20 21
f 17 21 18
f 18 21 22
f 18 22 6
f 19 1 23
f 19 23 20
f 20 23 24
f 20 24 21
f 21 24 25
f 21 25 22
f 22 25 26
f 22 26 6
f 23 1 27
f 23 27 24
f 24 27 28
f 24 28 25
f 25 28 29
f 25 29 26
f 26 29 30
f 26 30 6
f 27 1 31
f 27 31 28
f 28 31 32
f 28 32 29
f 29 32 33
f 29 33 30
f 30 33 34
f 30 34 6
f 31 1 35
f 31 35 32
f 32 35 36
f 32 36 33
f 33 36 37
f 33 37 34
f 34 37 38
f 34 38 6
f 35 1 39
f 35 39 36
f 36 39 40
f 36 40 37
f 37 40 41
f 37 41 38
f 38 41 42
f 38 42 6
f 39 1 43
f 39 43 40
f 40 43 44
f 40 44 41
f 41 44 45
f 41 45 42
f 42 45 46
f 42 46 6
f 43 1 47
f 43 47 44
f 44 47 48
f 44 48 45
f 45 48 49
f 45 49 46
f 46 49 50
f 46 50 6
f 47 1 51
f 47 51 48
f 48 51 52
f 48 52 49
f 49 52 53
f 49 53 50
f 50 53 54
f 50 54 6
f 51 1 55
f 51 55 52
f 52 55 56
f 52 56 53
f 53 56 57
f 53 57 54
f 54 57 58
f 54 58 6
f 55 1 59
f 55 59 56
f 56 59 60
f 56 60 57
f 57 60 61
f 57 61 58
f 58 61 62
f 58 62 6
f 59 1 63
f 59 63 60
f 60 63 64
f 60 64 61
f 61 64 65
f 61 65 62
f 62 65 66
f 62 66 6
f 63 1 67
f 63 67 64
f 64 67 68
f 64 68 65
f 65 68 69
f 65 69 66
f 66 69 70
f 66 70 6
f 67 1 71
f 67 71 68
f 68 71 72
f 68 72 69
f 69 72 73
f 69 73 70
f 70 73 74
f 70 74 6
f 71 1 75
f 71 75 72
f 72 75 76
f 72 76 73
f 73 76 77
f 73 77 74
f 74 77 78
f 74 78 6
f 75 1 79
f 75 79 76
f 76 79 80
f 76 80 77
f 77 80 81
f 77 81 78
f 78 81 82
f 78 82 6
f 79 1 83
f 79 83 80
f 80 83 84
f 80 84 81
f 81 84 85
f 81 85 82
f 82 85 86
f 82 86 6
f 83 1 87
f 83 87 84
f 84 87 88
f 84 88 85
f 85 88 89
f 85 89 86
f 86 89 90
f 86 90 6
f 87 1 91
f 87 91 88
f 88 91 92
f 88 92 89
f 89 92 93
f 89 93 90
f 90 93 94
f 90 94 6
f 91 1 95
f 91 95 92
f 92 95 96
f 92 96 93
f 93 96 97
f 93 97 94
f 94 97 98
f 94 98 6
f 95 1 99
f 95 99 96
f 96 99 100
f 96 100 97
f 97 100 101
f 97 101 98
f 98 101 102
f 98 102 6
f 99 1 103
f 99 103 100
f 100 103 104
f 100 104 101
f 101 104 105
f 101 105 102
f 102 105 106
f 102 106 6
f 103 1 107
f 103 107 104
f 104 107 108
f 104 108 105
f 105 108 109
f 105 109 106
f 106 109 110
f 106 110 6
f 107 1 111
f 107 111 108
f 108 111 112
f 108 112 109
f 109 112 113
f 109 113 110
f 110 113 114
f 110 114 6
f 111 1 115
f 111 115 112
f 112 115 116
f 112 116 113
f 113 116 117
f 113 117 114
f 114 117 118
f 114 118 6
f 115 1 119
f 115 119 116
f 116 119 120
f 116 120 117
f 117 120 121
f 117 121 118
f 118 121 122
f 118 122 6
f 119 1 123
f 119 123 120
f 120 123 124
f 120 124 121
f 121 124 125
f 121 125 122
f 122 125 126
f 122 126 6
f 123 1 127
f 123 127 124
f 124 127 128
f 124 128 125
f 125 128 129
f 125 129 126
f 126 129 130
f 126 130 6
f 127 1 131
f 127 131 128
f 128 131 132
f 128 132 129
f 129 132 133
f 129 133 130
f 130 133 134
f 130 134 6
f 131 1 135
f 131 135 132
f 132 135 136
f 132 136 133
f 133 136 137
f 133 137 134
f 134 137 138
f 134 138 6
f 135 1 139
f 135 139 136
f 136 139 140
f 136 140 137
f 137 140 141
f 137 141 138
f 138 141 142
f 138 142 6
f 139 1 143
f 139 143 140
f 140 143 144
f 140 144 141
f 141 144 145
f 141 145 142
f 142 145 146
f 142 146 6
f 143 1 147
f 143 147 144
f 144 147 148
f 144 148 145
f 145 148 149
f 145 149 146
f 146 149 150
f 146 150 6
f 147 1 151
f 147 151 148
f 148 151 152
f 148 152 149
f 149 152 153
f 149 153 150
f 150 153 154
f 150 154 6
f 151 1 155
f 151 155 152
f 152 155 156
f 152 156 153
f 153 156 157
f 153 157 154
f 154 157 158
f 154 158 6
f 155 1 159
f 155 159 156
f 156 159 160
f 156 160 157
f 157 160 161
f 157 161 158
f 158 161 162
f 158 162 6
f 159 1 163
f 159 163 160
f 160 163 164
f 160 164 161
f 161 164 165
f 161 165 162
f 162 165 166
f 162 166 6
f 163 1 167
f 163 167 164
f 164 167 168
f 164 168 165
f 165 168 169
f 165 169 166
f 166 169 170
f 166 170 6
f 167 1 171
f 167 171 168
f 168 171 172
f 168 172 169
f 169 172 173
f 169 173 170
f 170 173 174
f 170 174 6
f 171 1 175
f 171 175 172
f 172 175 176
f 172 176 173
f 173 176 177
f 173 177 174
f 174 177 178
f 174 178 6
f 175 1 179
f 175 179 176
f 176 179 180
f 176 180 177
f 177 180 181
f 177 181 178
f 178 181 182
f 178 182 6
f 179 1 183
f 179 183 180
f 180 183 184
f 180 184 181
f 181 184 185
f 181 185 182
f 182 185 186
f 182 186 6
f 183 1 187
f 183 187 184
f 184 187 188
f 184 188 185
f 185 188 189
f 185 189 186
f 186 189 190
f 186 190 6
f 187 1 191
f 187 191 188
f 188 191 192
f 188 192 189
f 189 192 193
f 189 193 190
f 190 193 194
f 190 194 6
f 191 1 195
f 191 195 192
f 192 195 196
f 192 196 193
f 193 196 197
f 193 197 194
f 194 197 198
f 194 198 6
f 195 1 199
f 195 199 196
f 196 199 200
f 196 200 197
f 197 200 201
f 197 201 198
f 198 201 202
f 198 202 6
f 199 1 203
f 199 203 200
f 200 203 204
f 200 204 201
f 201 204 205
f 201 205 202
f 202 205 206
f 202 206 6
f 203 1 207
f 203 207 204
f 204 207 208
f 204 208 205
f 205 208 209
f 205 209 206
f 206 209 210
f 206 210 6
f 207 1 211
f 207 211 208
f 208 211 212
f 208 212 209
f 209 212 213
f 209 213 210
f 210 213 214
f 210 214 6
f 211 1 215
f 211 215 212
f 212 215 216
f 212 216 213
f 213 216 217
f 213 217 214
f 214 217 218
f 214 218 6
f 215 1 219
f 215 219 216
f 216 219 220
f 216 220 217
f 217 220 221
f 217 221 218
f 218 221 222
f 218 222 6
f 219 1 223
f 219 223 220
f 220 223 224
f 220 224 221
f 221 224 225
f 221 225 222
f 222 225 226
f 222 226 6
f 223 1 227
f 223 227 224
f 224 227 228
f 224 228 225
f 225 228 229
f 225 229 226
f 226 229 230
f 226 230 6
f 227 1 231
f 227 231 228
f 228 231 232
f 228 232 229
f 229 232 233
f 229 233 230
f 230 233 234
f 230 234 6
f 231 1 235
f 231 235 232
f 232 235 236
f 232 236 233
f 233 236 237
f 233 237 234
f 234 237 238
f 234 238 6
f 235 1 239
f 235 239 236
f 236 239 240
f 236 240 237
f 237 240 241
f 237 241 238
f 238 241 242
f 238 242 6
f 239 1 243
f 239 243 240
f 240 243 244
f 240 244 241
f 241 244 245
f 241 245 242
f 242 245 246
f 242 246 6
f 243 1 247
f 243 247 244
f 244 247 248
f 244 248 245
f 245 248 249
f 245 249 246
f 246 249 250
f 246 250 6
f 247 1 251
f 247 251 248
f 248 251 252
f 248 252 249
f 249 252 253
f 249 253 250
f 250 253 254
f 250 254 6
f 251 1 255
f 251 255 252
f 252 255 256
f 252 256 253
f 253 256 257
f 253 257 254
f 254 257 258
f 254 258 6
f 255 1 259
f 255 259 256
f 256 259 260
f 256 260 257
f 257 260 261
f 257 261 258
f 258 261 262
f 258 262 6
f 259 1 263
f 259 263 260
f 260 263 264
f 260 264 261
f 261 264 265
f 261 265 262
f 262 265 266
f 262 266 6
f 263 1 267
f 263 267 264
f 264 267 268
f 264 268 265
f 265 268 269
f 265 269 266
f 266 269 270
f 266 270 6
f 267 1 271
f 267 271 268
f 268 271 272
f 268 272 269
f 269 272 273
f 269 273 270
f 270 273 274
f 270 274 6
f 271 1 275
f 271 275 272
f 272 275 276
f 272 276 273
f 273 276 277
f 273 277 274
f 274 277 278
f 274 278 6
f 275 1 279
f 275 279 276
f 276 279 280
f 276 280 277
f 277 280 281
f 277 281 278
f 278 281 282
f 278 282 6
f 279 1 283
f 279 283 280
f 280 283 284
f 280 284 281
f 281 284 285
f 281 285 282
f 282 285 286
f 282 286 6
f 283 1 287
f 283 287 284
f 284 287 288
f 284 288 285
f 285 288 289
f 285 289 286
f 286 289 290
f 286 290 6
f 287 1 291
f 287 291 288
f 288 291 292
f 288 292 289
f 289 292 293
f 289 293 290
f 290 293 294
f 290 294 6
f 291 1 295
f 291 295 292
f 292 295 296
f 292 296 293
f 293 296 297
f 293 297 294
f 294 297 298
f 294 298 6
f 295 1 299
f 295 299 296
f 296 299 300
f 296 300 297
f 297 300 301
f 297 301 298
f 298 301 302
f 298 302 6
f 299 1 303
f 299 303 300
f 300 303 304
f 300 304 301
f 301 304 305
f 301 305 302
f 302 305 306
f 302 306 6
f 303 1 307
f 303 307 304
f 304 307 308
f 304 308 305
f 305 308 309
f 305 309 306
f 306 309 310
f 306 310 6
f 307 1 311
f 307 311 308
f 308 311 312
f 308 312 309
f 309 312 313
f 309 313 310
f 310 313 314
f 310 314 6
f 311 1 315
f 311 315 312
f 312 315 316
f 312 316 313
f 313 316 317
f 313 317 314
f 314 317 318
f 314 318 6
f 315 1 319
f 315 319 316
f 316 319 320
f 316 320 317
f 317 320 321
f 317 321 318
f 318 321 322
f 318 322 6
f 319 1 323
f 319 323 320
f 320 323 324
f 320 324 321
f 321 324 325
f 321 325 322
f 322 325 326
f 322 326 6
f 323 1 327
f 323 327 324
f 324 327 328
f 324 328 325
f 325 328 329
f 325 329 326
f 326 329 330
f 326 330 6
f 327 1 331
f 327 331 328
f 328 331 332
f 328 332 329
f 329 332 333
f 329 333 330
f 330 333 334
f 330 334 6
f 331 1 335
f 331 335 332
f 332 335 336
f 332 336 333
f 333 336 337
f 333 337 334
f 334 337 338
f 334 338 6
f 335 1 339
f 335 339 336
f 336 339 340
f 336 340 337
f 337 340 341
f 337 341 338
f 338 341 342
f 338 342 6
f 339 1 343
f 339 343 340
f 340 343 344
f 340 344 341
f 341 344 345
f 341 345 342
f 342 345 346
f 342 346 6
f 343 1 347
f 343 347 344
f 344 347 348
f 344 348 345
f 345 348 349
f 345 349 346
f 346 349 350
f 346 350 6
f 347 1 351
f 347 351 348
f 348 351 352
f 348 352 349
f 349 352 353
f 349 353 350
f 350 353 354
f 350 354 6
f 351 1 355
f 351 355 352
f 352 355 356
f 352 356 353
f 353 356 357
f 353 357 354
f 354 357 358
f 354 358 6
f 355 1 359
f 355 359 356
f 356 359 360
f 356 360 357
f 357 360 361
f 357 361 358
f 358 361 362
f 358 362 6
f 359 1 363
f 359 363 360
f 360 363 364
f 360 364 361
f 361 364 365
f 361 365 362
f 362 365 366
f 362 366 6
f 363 1 367
f 363 367 364
f 364 367 368
f 364 368 365
f 365 368 369
f 365 369 366
f 366 369 370
f 366 370 6
f 367 1 371
f 367 371 368
f 368 371 372
f 368 372 369
f 369 372 373
f 369 373 370
f 370 373 374
f 370 374 6
f 371 1 375
f 371 375 372
f 372 375 376
f 372 376 373
f 373 376 377
f 373 377 374
f 374 377 378
f 374 378 6
f 375 1 379
f 375 379 376
f 376 379 380
f 376 380 377
f 377 380 381
f 377 381 378
f 378 381 382
f 378 382 6
f 379 1 383
f 379 383 380
f 380 383 384
f 380 384 381
f 381 384 385
f 381 385 382
f 382 385 386
f 382 386 6
f 383 1 387
f 383 387 384
f 384 387 388
f 384 388 385
f 385 388 389
f 385 389 386
f 386 389 390
f 386 390 6
f 387 1 391
f 387 391 388
f 388 391 392
f 388 392 389
f 389 392 393
f 389 393 390
f 390 393 394
f 390 394 6
f 391 1 395
f 391 395 392
f 392 395 396
f 392 396 393
f 393 396 397
f 393 397 394
f 394 397 398
f 394 398 6
f 395 1 399
f 395 399 396
f 396 399 400
f 396 400 397
f 397 400 401
f 397 401 398
f 398 401 402
f 398 402 6
f 399 1 403
f 399 403 400
f 400 403 404
f 400 404 401
f 401 404 405
f 401 405 402
f 402 405 406
f 402 406 6
f 403 1 407
f 403 407 404
f 404 407 408
f 404 408 405
f 405 408 409
f 405 409 406
f 406 409 410
f 406 410 6
f 407 1 411
f 407 411 408
f 408 411 412
f 408 412 409
f 409 412 413
f 409 413 410
f 410 413 414
f 410 414 6
f 411 1 415
f 411 415 412
f 412 415 416
f 412 416 413
f 413 416 417
f 413 417 414
f 414 417 418
f 414 418 6
f 415 1 419
f 415 419 416
f 416 419 420
f 416 420 417
f 417 420 421
f 417 421 418
f 418 421 422
f 418 422 6
f 419 1 423
f 419 423 420
f 420 423 424
f 420 424 421
f 421 424 425
f 421 425 422
f 422 425 426
f 422 426 6
f 423 1 427
f 423 427 424
f 424 427 428
f 424 428 425
f 425 428 429
f 425 429 426
f 426 429 430
f 426 430 6
f 427 1 431
f 427 431 428
f 428 431 432
f 428 432 429
f 429 432 433
f 429 433 430
f 430 433 434
f 430 434 6
f 431 1 435
f 431 435 432
f 432 435 436
f 432 436 433
f 433 436 437
f 433 437 434
f 434 437 438
f 434 438 6
f 435 1 439
f 435 439 436
f 436 439 440
f 436 440 437
f 437 440 441
f 437 441 438
f 438 441 442
f 438 442 6
f 439 1 443
f 439 443 440
f 440 443 444
f 440 444 441
f 441 444 445
f 441 445 442
f 442 445 446
f 442 446 6
f 443 1 447
f 443 447 444
f 444 447 448
f 444 448 445
f 445 448 449
f 445 449 446
f 446 449 450
f 446 450 6
f 447 1 451
f 447 451 448
f 448 451 452
f 448 452 449
f 449 452 453
f 449 453 450
f 450 453 454
f 450 454 6
f 451 1 455
f 451 455 452
f 452 455 456
f 452 456 453
f 453 456 457
f 453 457 454
f 454 457 458
f 454 458 6
f 455 1 459
f 455 459 456
f 456 459 460
f 456 460 457
f 457 460 461
f 457 461 458
f 458 461 462
f 458 462 6
f 459 1 463
f 459 463 460
f 460 463 464
f 460 464 461
f 461 464 465
f 461 465 462
f 462 465 466
f 462 466 6
f 463 1 467
f 463 467 464
f 464 467 468
f 464 468 465
f 465 468 469
f 465 469 466
f 466 469 470
f 466 470 6
f 467 1 471
f 467 471 468
f 468 471 472
f 468 472 469
f 469 472 473
f 469 473 470
f 470 473 474
f 470 474 6
f 471 1 475
f 471 475 472
f 472 475 476
f 472 476 473
f 473 476 477
f 473 477 474
f 474 477 478
f 474 478 6
f 475 1 479
f 475 479 476
f 476 479 480
f 476 480 477
f 477 480 481
f 477 481 478
f 478 481 482
f 478 482 6
f 479 1 483
f 479 483 480
f 480 483 484
f 480 484 481
f 481 484 485
f 481 485 482
f 482 485 486
f 482 486 6
f 483 1 487
f 483 487 484
f 484 487 488
f 484 488 485
f 485 488 489
f 485 489 486
f 486 489 490
f 486 490 6
f 487 1 491
f 487 491 488
f 488 491 492
f 488 492 489
f 489 492 493
f 489 493 490
f 490 493 494
f 490 494 6
f 491 1 495
f 491 495 492
f 492 495 496
f 492 496 493
f 493 496 497
f 493 497 494
f 494 497 498
f 494 498 6
f 495 1 499
f 495 499 496
f 496 499 500
f 496 500 497
f 497 500 501
f 497 501 498
f 498 501 502
f 498 502 6
f 499 1 503
f 499 503 500
f 500 503 504
f 500 504 501
f 501 504 505
f 501 505 502
f 502 505 506
f 502 506 6
f 503 1 507
f 503 507 504
f 504 507 508
f 504 508 505
f 505 508 509
f 505 509 506
f 506 509 510
f 506 510 6
f 507 1 511
f 507 511 508
f 508 511 512
f 508 512 509
f 509 512 513
f 509 513 510
f 510 513 514
f 510 514 6
f 511 1 2
f 511 2 512
f 512 2 3
f 512 3 513
f 513 3 4
f 513 4 514
f 514 4 5
f 514 5 6

