# https://github.com/mikedh/trimesh
v 0.01237437 0.01237437 0.00000000
v 0.01467673 0.00953118 0.00000000
v 0.01633766 0.00627144 0.00000000
v 0.01728455 0.00273760 0.00000000
v 0.01747602 -0.00091588 0.00000000
v 0.01690370 -0.00452933 0.00000000
v 0.01559261 -0.00794483 0.00000000
v 0.01360005 -0.01101311 0.00000000
v 0.01101311 -0.01360005 0.00000000
v 0.00794483 -0.01559261 0.00000000
v 0.00452933 -0.01690370 0.00000000
v 0.00091588 -0.01747602 0.00000000
v -0.00273760 -0.01728455 0.00000000
v -0.00627144 -0.01633766 0.00000000
v -0.00953118 -0.01467673 0.00000000
v -0.01237437 -0.01237437 0.00000000
v 0.00273760 0.01728455 0.00000000
v -0.00091588 0.01747602 0.00000000
v 0.00953118 0.01467673 0.00000000
v -0.01467673 -0.00953118 0.00000000
v -0.01633766 -0.00627144 0.00000000
v -0.01728455 -0.00273760 0.00000000
v -0.01690370 0.00452933 0.00000000
v -0.01559261 0.00794483 0.00000000
v -0.01412151 0.01033601 0.00000000
v -0.01360005 0.01101311 0.00000000
v -0.00452933 0.01690370 0.00000000
v -0.00794483 0.01559261 0.00000000
v -0.01101311 0.01360005 0.00000000
v 0.00627144 0.01633766 0.00000000
v -0.01747602 0.00091588 0.00000000
v -0.02793058 -0.00514224 -0.00100000
v -0.02802893 -0.00516034 -0.00110000
v -0.02161747 0.01841860 -0.00100000
v -0.02169359 0.01848345 -0.00110000
v -0.02319469 0.01656069 -0.00110000
v -0.02311330 0.01650258 -0.00100000
v -0.02560414 0.01251710 -0.00110000
v -0.02551430 0.01247318 -0.00100000
v -0.02668874 0.00970934 -0.00100000
v -0.02731518 0.00813208 -0.00110000
v -0.02721934 0.00810355 -0.00100000
v -0.02828114 0.00352524 -0.00110000
v -0.02818190 0.00351287 -0.00100000
v -0.02847565 -0.00117776 -0.00110000
v -0.02837574 -0.00117363 -0.00100000
v -0.02836809 -0.00134592 -0.00100000
v -0.02168008 0.01849809 -0.00110000
v -0.02160936 0.01842738 -0.00100000
v -0.02675971 -0.00951198 -0.00100000
v -0.02685394 -0.00954548 -0.00110000
v -0.02655035 -0.01035998 -0.00110000
v -0.02645719 -0.01032363 -0.00100000
v -0.02448304 -0.01458872 -0.00110000
v -0.02439713 -0.01453754 -0.00100000
v -0.02174790 -0.01841953 -0.00110000
v -0.02167159 -0.01835490 -0.00100000
v -0.01841953 -0.02174790 -0.00110000
v -0.01835490 -0.02167159 -0.00100000
v -0.01458872 -0.02448304 -0.00110000
v -0.01453754 -0.02439713 -0.00100000
v -0.01035998 -0.02655035 -0.00110000
v -0.01032363 -0.02645719 -0.00100000
v -0.00954548 -0.02685394 -0.00110000
v -0.00951198 -0.02675971 -0.00100000
v -0.01848345 0.02169359 -0.00110000
v -0.01849809 0.02168008 -0.00110000
v -0.01841860 0.02161747 -0.00100000
v -0.01842738 0.02160936 -0.00100000
v 0.00514224 0.02793058 -0.00100000
v 0.00516034 0.02802893 -0.00110000
v 0.00468837 0.02801034 -0.00100000
v 0.00117776 0.02847565 -0.00110000
v 0.00117363 0.02837574 -0.00100000
v -0.00352524 0.02828114 -0.00110000
v -0.00351287 0.02818190 -0.00100000
v -0.00813208 0.02731518 -0.00110000
v -0.00810355 0.02721934 -0.00100000
v -0.00970934 0.02668874 -0.00100000
v -0.01251710 0.02560414 -0.00110000
v -0.01247318 0.02551430 -0.00100000
v -0.01656069 0.02319469 -0.00110000
v -0.01650258 0.02311330 -0.00100000
v -0.00516034 -0.02802893 -0.00110000
v -0.00514224 -0.02793058 -0.00100000
v -0.00117776 -0.02847565 -0.00110000
v -0.00117363 -0.02837574 -0.00100000
v -0.00026057 -0.02839880 -0.00100000
v 0.00352524 -0.02828114 -0.00110000
v 0.00351287 -0.02818190 -0.00100000
v 0.00813208 -0.02731518 -0.00110000
v 0.00810355 -0.02721934 -0.00100000
v 0.01251710 -0.02560414 -0.00110000
v 0.01247318 -0.02551430 -0.00100000
v 0.01656069 -0.02319469 -0.00110000
v 0.01650258 -0.02311330 -0.00100000
v 0.01848345 -0.02169359 -0.00110000
v 0.01841860 -0.02161747 -0.00100000
v 0.01849809 -0.02168008 -0.00110000
v 0.00951198 0.02675971 -0.00100000
v 0.00954548 0.02685394 -0.00110000
v 0.02675971 0.00951198 -0.00100000
v 0.02685394 0.00954548 -0.00110000
v 0.02655035 0.01035998 -0.00110000
v 0.02645719 0.01032363 -0.00100000
v 0.02448304 0.01458872 -0.00110000
v 0.02439713 0.01453754 -0.00100000
v 0.02216586 0.01775485 -0.00100000
v 0.02174790 0.01841953 -0.00110000
v 0.02167159 0.01835490 -0.00100000
v 0.01841953 0.02174790 -0.00110000
v 0.01835490 0.02167159 -0.00100000
v 0.01458872 0.02448304 -0.00110000
v 0.01453754 0.02439713 -0.00100000
v 0.01035998 0.02655035 -0.00110000
v 0.01032363 0.02645719 -0.00100000
v 0.02169359 -0.01848345 -0.00110000
v 0.02161747 -0.01841860 -0.00100000
v 0.02168008 -0.01849809 -0.00110000
v 0.02836809 0.00134592 -0.00100000
v 0.02837574 0.00117363 -0.00100000
v 0.02847565 0.00117776 -0.00110000
v 0.02818190 -0.00351287 -0.00100000
v 0.02828114 -0.00352524 -0.00110000
v 0.02721934 -0.00810355 -0.00100000
v 0.02731518 -0.00813208 -0.00110000
v 0.02551430 -0.01247318 -0.00100000
v 0.02560414 -0.01251710 -0.00110000
v 0.02311330 -0.01650258 -0.00100000
v 0.02319469 -0.01656069 -0.00110000
v 0.02801034 0.00468837 -0.00100000
v 0.02802893 0.00516034 -0.00110000
v 0.02793058 0.00514224 -0.00100000
v 0.03195000 0.01152872 -0.05843588
v 0.03195000 0.00979618 -0.05773650
v 0.03195000 0.00737634 -0.05697111
v 0.03195000 0.00489801 -0.05642404
v 0.03195000 0.00238084 -0.05609962
v 0.03195000 -0.00015522 -0.05600042
v 0.03195000 -0.00269004 -0.05612724
v 0.03195000 -0.00267260 -0.06419957
v 0.03195000 -0.00358710 -0.05725330
v 0.03195000 -0.00355919 -0.05685518
v 0.03195000 -0.00337780 -0.05649968
v 0.03195000 -0.00307185 -0.05624343
v 0.03195000 0.01246475 -0.06825562
v 0.03195000 0.01182607 -0.06863482
v 0.03195000 0.01218193 -0.06850672
v 0.03195000 0.01144810 -0.06862161
v 0.03195000 -0.00197515 -0.06502486
v 0.03195000 -0.00230909 -0.06484731
v 0.03195000 0.01692542 -0.06193992
v 0.03195000 0.01678858 -0.06156502
v 0.03195000 -0.00255322 -0.06455845
v 0.03195000 0.01672987 -0.06269721
v 0.03195000 0.01690475 -0.06233848
v 0.03195000 0.01665307 -0.06139092
v 0.02895000 0.00000000 -0.10200000
v 0.02895000 -0.00363845 -0.10161758
v 0.02895000 -0.00711789 -0.10048705
v 0.02895000 -0.01028624 -0.09865779
v 0.02795000 -0.01611379 -0.10788602
v 0.02785000 -0.01617053 -0.10796836
v 0.02795000 -0.02830978 -0.08676194
v 0.02785000 -0.02840946 -0.08676991
v 0.02785000 -0.02811130 -0.08919095
v 0.02795000 -0.02801266 -0.08917449
v 0.02785000 -0.02695579 -0.09375393
v 0.02795000 -0.02686121 -0.09372146
v 0.02795000 -0.02573733 -0.09650625
v 0.02785000 -0.02506500 -0.09806450
v 0.02795000 -0.02497705 -0.09801690
v 0.02785000 -0.02249051 -0.10200506
v 0.02795000 -0.02241159 -0.10194364
v 0.02785000 -0.01930252 -0.10546813
v 0.02795000 -0.01923480 -0.10539456
v 0.02795000 -0.01910756 -0.10551098
v 0.02785000 -0.02841026 -0.08675000
v 0.02795000 -0.02831026 -0.08675000
v 0.02795000 -0.01219599 -0.11014796
v 0.02785000 -0.01223893 -0.11023827
v 0.02785000 -0.01144832 -0.11059954
v 0.02795000 -0.01140815 -0.11050797
v 0.02785000 -0.00699634 -0.11212791
v 0.02795000 -0.00697179 -0.11203097
v 0.02785000 -0.00235351 -0.11290266
v 0.02795000 -0.00234525 -0.11280300
v 0.02785000 0.00235351 -0.11290266
v 0.02795000 0.00234525 -0.11280300
v 0.02785000 0.00699634 -0.11212791
v 0.02795000 0.00697179 -0.11203097
v 0.02785000 0.01144832 -0.11059954
v 0.02795000 0.01140815 -0.11050797
v 0.02785000 0.01223893 -0.11023827
v 0.02795000 0.01219599 -0.11014796
v 0.02785000 -0.02840946 -0.08223009
v 0.02785000 -0.02841026 -0.08225000
v 0.02795000 -0.02830978 -0.08223806
v 0.02795000 -0.02831026 -0.08225000
v 0.02795000 -0.02686121 -0.07527854
v 0.02785000 -0.02811130 -0.07980905
v 0.02795000 -0.02801266 -0.07982551
v 0.02785000 0.01617053 -0.10796836
v 0.02795000 0.01611379 -0.10788602
v 0.02785000 0.01930252 -0.10546813
v 0.02795000 0.01923480 -0.10539456
v 0.02795000 0.01989674 -0.10476524
v 0.02785000 0.02249051 -0.10200506
v 0.02795000 0.02241159 -0.10194364
v 0.02785000 0.02506500 -0.09806450
v 0.02795000 0.02497705 -0.09801690
v 0.02785000 0.02695579 -0.09375393
v 0.02795000 0.02686121 -0.09372146
v 0.02785000 0.02811130 -0.08919095
v 0.02795000 0.02801266 -0.08917449
v 0.02785000 0.02840946 -0.08676991
v 0.02795000 0.02830978 -0.08676194
v 0.02785000 0.02841026 -0.08675000
v 0.02785000 0.02840946 -0.08223009
v 0.02795000 0.02830978 -0.08223806
v 0.02785000 0.02841026 -0.08225000
v 0.02795000 0.02801266 -0.07982551
v 0.02785000 0.02811130 -0.07980905
v 0.01900000 0.02795808 -0.09052543
v 0.01900000 -0.02795808 -0.09052543
v 0.00900000 -0.02795808 -0.09052543
v 0.00900000 0.02795808 -0.09052543
v -0.01055000 0.02762791 -0.09149633
v -0.01055000 -0.02762791 -0.09149633
v -0.01700000 -0.02846143 -0.08301779
v -0.01700000 -0.02821789 -0.08850010
v -0.01700000 -0.02692814 -0.09383410
v -0.01530000 0.02814250 -0.08900000
v -0.01700000 0.02692814 -0.09383410
v -0.01700000 0.02821789 -0.08850010
v -0.01700000 0.02846143 -0.08301779
v -0.00314403 -0.03084015 -0.07150000
v 0.00257637 -0.03089276 -0.07150000
v 0.03041850 -0.00597619 -0.03950000
v 0.00257637 -0.03089276 -0.03950000
v 0.00820903 -0.02989334 -0.03950000
v -0.00314403 -0.03084015 -0.03950000
v 0.00314403 0.03084015 -0.03950000
v 0.00875736 0.02973733 -0.03950000
v 0.03099869 -0.00028505 -0.03950000
v -0.00257637 0.03089276 -0.03950000
v -0.00875736 -0.02973733 -0.03950000
v -0.01407247 -0.02762183 -0.03950000
v -0.01890836 -0.02456571 -0.03950000
v -0.02310034 -0.02067303 -0.03950000
v -0.02650568 -0.01607636 -0.03950000
v -0.02900839 -0.01093222 -0.03950000
v -0.03052326 -0.00541580 -0.03950000
v -0.03099869 0.00028505 -0.03950000
v -0.03041850 0.00597619 -0.03950000
v -0.02880245 0.01146382 -0.03950000
v -0.02620556 0.01656106 -0.03950000
v -0.01356214 0.02787594 -0.03950000
v -0.00820903 0.02989334 -0.03950000
v -0.00257637 0.03089276 -0.07150000
v 0.00314403 0.03084015 -0.07150000
v -0.03052326 -0.00541580 -0.05350000
v -0.03099869 0.00028505 -0.05350000
v -0.03041850 0.00597619 -0.05350000
v -0.02130000 0.02575599 -0.09073529
v -0.02130000 0.02492296 -0.05550000
v -0.02130000 0.02635259 -0.08170876
v -0.02130000 0.02649897 -0.08473381
v -0.02130000 0.02629923 -0.08775582
v -0.02064653 -0.01750000 -0.12927169
v -0.02064653 0.01750000 -0.12927169
v -0.02042476 0.01750000 -0.12956199
v -0.02042476 -0.01750000 -0.12956199
v -0.02011352 0.01750000 -0.12975328
v -0.02011352 -0.01750000 -0.12975328
v -0.01975435 0.01750000 -0.12982000
v -0.01975435 -0.01750000 -0.12982000
v -0.02724073 -0.01750000 -0.12005682
v -0.02724073 0.01750000 -0.12005682
v -0.02716067 0.01750000 -0.12044887
v -0.02716067 -0.01750000 -0.12044887
v -0.02693332 0.01750000 -0.12077815
v -0.02693332 -0.01750000 -0.12077815
v -0.02724073 0.01750000 -0.10523421
v -0.02724073 -0.01750000 -0.10523421
v -0.00955000 0.01750000 -0.12982000
v -0.00955000 -0.01750000 -0.12982000
f 279 278 263
f 279 268 269
f 89 240 241
f 86 240 89
f 231 226 238
f 231 278 281
f 230 278 231
f 249 250 230
f 285 278 230
f 230 250 285
f 285 250 251
f 251 252 285
f 128 130 202
f 126 239 124
f 124 239 143
f 257 36 266
f 246 260 236
f 214 260 261
f 263 278 262
f 88 86 89
f 94 95 96
f 93 95 94
f 91 94 92
f 93 94 91
f 91 92 89
f 89 241 91
f 230 247 248
f 60 249 248
f 248 249 230
f 200 128 202
f 126 128 200
f 200 239 126
f 202 143 200
f 143 239 200
f 127 129 130
f 130 128 127
f 127 128 126
f 194 286 203
f 268 279 284
f 284 257 268
f 256 257 284
f 284 255 256
f 264 279 263
f 266 258 267
f 267 257 266
f 268 257 267
f 267 236 268
f 258 236 267
f 246 236 259
f 259 236 258
f 269 268 235
f 268 236 235
f 235 236 260
f 115 113 223
f 101 100 115
f 101 115 219
f 219 115 223
f 89 92 90
f 90 88 89
f 86 88 87
f 201 95 93
f 202 119 201
f 62 63 61
f 62 61 60
f 60 248 62
f 62 248 247
f 251 250 56
f 253 285 252
f 237 231 238
f 230 231 237
f 202 130 117
f 117 119 202
f 43 255 254
f 226 231 229
f 229 277 226
f 121 123 124
f 125 127 126
f 126 124 125
f 124 123 125
f 109 223 111
f 223 113 111
f 144 124 143
f 144 245 124
f 167 166 169
f 214 213 212
f 212 210 286
f 213 210 212
f 211 155 209
f 209 210 211
f 211 210 213
f 214 217 215
f 215 213 214
f 205 203 286
f 77 259 258
f 269 235 265
f 272 235 234
f 227 235 260
f 116 115 100
f 244 219 243
f 243 219 221
f 222 223 109
f 109 106 222
f 95 201 97
f 64 62 247
f 60 61 58
f 58 249 60
f 250 249 58
f 58 56 250
f 251 56 54
f 266 36 35
f 240 86 242
f 242 247 230
f 230 237 242
f 119 117 118
f 130 129 118
f 118 117 130
f 256 255 41
f 255 43 41
f 232 229 231
f 277 229 232
f 231 273 232
f 171 287 173
f 173 287 175
f 175 287 163
f 163 177 175
f 184 287 186
f 182 287 184
f 274 234 276
f 272 234 274
f 124 245 122
f 122 121 124
f 122 153 132
f 104 105 102
f 133 132 102
f 104 106 107
f 107 105 104
f 225 166 238
f 238 226 225
f 141 142 167
f 167 169 141
f 141 169 154
f 161 160 151
f 160 150 151
f 286 190 188
f 192 286 194
f 192 190 286
f 286 210 208
f 208 210 209
f 191 188 190
f 158 147 149
f 209 155 146
f 213 215 156
f 156 211 213
f 155 211 156
f 156 215 217
f 131 132 133
f 131 122 132
f 246 259 75
f 259 77 75
f 235 282 280
f 280 265 235
f 280 279 269
f 269 265 280
f 271 235 272
f 271 282 235
f 283 231 281
f 233 234 235
f 235 227 233
f 214 212 224
f 224 260 214
f 224 227 260
f 224 212 286
f 228 227 276
f 276 234 228
f 234 233 228
f 228 233 227
f 113 115 114
f 115 116 114
f 114 111 113
f 132 153 103
f 104 102 103
f 103 102 132
f 71 72 70
f 71 244 243
f 219 244 71
f 101 219 71
f 71 70 100
f 71 100 101
f 99 201 119
f 99 97 201
f 63 62 65
f 62 64 65
f 84 64 247
f 247 242 84
f 85 65 84
f 84 65 64
f 84 242 86
f 84 87 85
f 86 87 84
f 59 58 61
f 52 252 251
f 251 54 52
f 55 52 54
f 56 57 55
f 55 54 56
f 256 41 38
f 36 257 38
f 38 257 256
f 40 38 41
f 154 172 174
f 171 173 174
f 174 172 171
f 174 151 154
f 158 149 159
f 159 149 150
f 159 150 160
f 277 232 275
f 275 232 273
f 109 110 108
f 108 106 109
f 108 107 106
f 138 137 245
f 245 139 138
f 140 139 245
f 181 287 182
f 181 163 287
f 177 163 162
f 163 181 162
f 161 151 162
f 162 151 177
f 162 160 161
f 168 225 287
f 168 169 166
f 166 225 168
f 238 166 165
f 165 178 238
f 196 241 240
f 196 91 241
f 93 91 196
f 196 201 93
f 154 169 170
f 170 172 154
f 171 172 170
f 169 168 170
f 170 287 171
f 170 168 287
f 188 191 189
f 189 147 158
f 189 191 147
f 220 221 219
f 220 219 223
f 223 222 220
f 121 122 120
f 122 131 120
f 246 75 73
f 73 75 74
f 73 243 246
f 73 71 243
f 74 72 73
f 72 71 73
f 78 75 77
f 80 77 258
f 80 258 266
f 270 273 231
f 231 283 270
f 111 114 112
f 261 218 216
f 214 261 216
f 216 218 217
f 216 217 214
f 97 99 98
f 96 95 98
f 95 97 98
f 252 52 51
f 51 253 252
f 51 33 253
f 50 33 51
f 51 52 50
f 50 52 53
f 52 55 53
f 67 66 266
f 36 37 34
f 34 35 36
f 32 33 50
f 32 47 33
f 45 43 254
f 254 253 45
f 253 33 45
f 33 47 45
f 42 40 41
f 42 41 43
f 43 44 42
f 38 40 39
f 39 37 36
f 36 38 39
f 175 177 176
f 176 173 175
f 176 174 173
f 177 151 176
f 151 174 176
f 185 159 160
f 185 184 186
f 153 122 157
f 122 134 157
f 245 137 136
f 245 144 145
f 145 140 245
f 180 162 181
f 160 162 180
f 197 196 240
f 202 201 198
f 201 196 198
f 196 197 198
f 198 142 143
f 198 143 202
f 178 165 164
f 164 166 167
f 164 165 166
f 167 142 164
f 147 191 193
f 190 192 193
f 193 191 190
f 193 192 194
f 194 195 193
f 194 203 204
f 204 195 194
f 203 205 204
f 205 206 204
f 207 208 209
f 209 146 207
f 146 206 207
f 207 206 205
f 207 205 286
f 286 208 207
f 217 220 152
f 152 156 217
f 152 220 222
f 152 222 106
f 152 106 104
f 104 103 152
f 152 103 153
f 74 75 76
f 75 78 76
f 79 78 77
f 77 80 79
f 79 80 81
f 35 34 48
f 266 35 48
f 48 67 266
f 66 67 68
f 68 67 69
f 82 83 81
f 81 80 82
f 82 80 266
f 266 66 82
f 82 68 83
f 66 68 82
f 46 45 47
f 46 44 43
f 43 45 46
f 182 184 183
f 184 185 183
f 183 181 182
f 183 180 181
f 183 185 160
f 160 180 183
f 187 185 186
f 187 189 158
f 158 159 187
f 159 185 187
f 245 136 135
f 135 122 245
f 135 134 122
f 179 164 142
f 178 164 179
f 147 193 148
f 148 193 195
f 195 204 148
f 148 206 146
f 148 204 206
f 49 48 34
f 142 198 199
f 199 179 142
f 199 198 197
f 11 90 92
f 1 108 110
f 110 112 1
f 92 94 10
f 10 11 92
f 10 94 96
f 88 90 12
f 90 11 12
f 12 87 88
f 29 68 69
f 83 68 29
f 96 98 9
f 9 10 96
f 85 87 13
f 87 12 13
f 13 65 85
f 26 49 34
f 26 34 37
f 81 83 28
f 83 29 28
f 28 79 81
f 8 118 129
f 63 65 14
f 65 13 14
f 61 63 14
f 37 39 24
f 24 39 40
f 78 79 27
f 79 28 27
f 27 76 78
f 129 127 7
f 7 8 129
f 127 125 7
f 15 59 61
f 61 14 15
f 25 26 37
f 37 24 25
f 40 42 23
f 23 24 40
f 23 42 44
f 74 76 18
f 76 27 18
f 6 125 123
f 6 7 125
f 57 59 16
f 59 15 16
f 44 46 31
f 31 23 44
f 31 46 47
f 17 72 74
f 74 18 17
f 70 72 17
f 100 70 17
f 123 121 5
f 5 6 123
f 121 120 5
f 47 32 22
f 22 31 47
f 22 32 50
f 30 116 100
f 100 17 30
f 30 114 116
f 4 120 131
f 4 5 120
f 4 131 133
f 133 102 4
f 50 53 21
f 21 22 50
f 21 53 55
f 114 30 19
f 19 112 114
f 19 1 112
f 3 102 105
f 3 4 102
f 105 107 3
f 20 21 55
f 20 55 57
f 57 16 20
f 2 3 107
f 107 108 2
f 108 1 2
f 261 260 246
f 246 243 261
f 254 255 264
f 264 263 254
f 264 284 279
f 255 284 264
f 254 263 253
f 263 262 253
f 278 285 253
f 253 262 278
f 276 286 287
f 287 277 276
f 238 240 242
f 242 237 238
f 277 287 225
f 226 277 225
f 188 287 286
f 186 287 188
f 278 279 280
f 281 278 280
f 281 280 283
f 283 280 282
f 224 286 276
f 276 227 224
f 218 261 243
f 243 221 218
f 59 57 56
f 56 58 59
f 276 277 275
f 275 274 276
f 275 273 272
f 272 274 275
f 220 218 221
f 217 218 220
f 272 273 270
f 270 271 272
f 270 283 282
f 282 271 270
f 112 110 109
f 109 111 112
f 119 118 98
f 98 99 119
f 197 240 238
f 238 178 197
f 186 188 187
f 188 189 187
f 148 144 143
f 150 149 148
f 143 142 148
f 154 151 148
f 155 156 148
f 148 146 155
f 153 157 148
f 148 141 154
f 137 138 148
f 142 141 148
f 148 151 150
f 148 149 147
f 134 135 148
f 148 145 144
f 148 136 137
f 148 138 139
f 139 140 148
f 148 157 134
f 148 152 153
f 140 145 148
f 156 152 148
f 148 135 136
f 69 67 49
f 67 48 49
f 199 197 178
f 178 179 199
f 69 49 26
f 26 29 69
f 8 98 118
f 8 9 98
f 2 15 14
f 11 10 2
f 29 26 2
f 2 12 11
f 10 9 2
f 2 13 12
f 9 8 2
f 2 28 29
f 24 23 2
f 2 14 13
f 23 31 2
f 2 27 28
f 8 7 2
f 26 25 2
f 2 25 24
f 1 19 2
f 2 18 27
f 7 6 2
f 2 16 15
f 2 20 16
f 2 17 18
f 6 5 2
f 31 22 2
f 2 30 17
f 5 4 2
f 22 21 2
f 2 19 30
f 4 3 2
f 21 20 2

