# https://github.com/mikedh/trimesh
v 0.03152702 -0.01200001 -0.14418460
v 0.02989893 -0.01172750 -0.14418460
v 0.02910640 -0.01137500 -0.14418460
v 0.03152702 0.01200001 -0.14418460
v 0.02989893 0.01172749 -0.14418460
v 0.02910640 0.01137499 -0.14418460
v 0.04227298 -0.01200001 -0.14418460
v 0.04227298 0.01200001 -0.14418460
v 0.02240000 0.00000001 -0.14418460
v 0.02261266 -0.00234177 -0.14418460
v 0.02350622 -0.00524764 -0.14418460
v 0.02505025 -0.00786655 -0.14418460
v 0.02716031 -0.01005523 -0.14418460
v 0.04469360 -0.01137500 -0.14418460
v 0.04883298 -0.00775583 -0.14418460
v 0.04695682 -0.00978677 -0.14418460
v 0.05023720 -0.00537406 -0.14418460
v 0.05110598 -0.00274922 -0.14418460
v 0.05140000 0.00000001 -0.14418460
v 0.04352298 0.01184122 -0.14418460
v 0.04469360 0.01137499 -0.14418460
v 0.04352298 -0.01184123 -0.14418460
v 0.05110598 0.00274922 -0.14418460
v 0.05023720 0.00537409 -0.14418460
v 0.04883298 0.00775583 -0.14418460
v 0.04695682 0.00978677 -0.14418460
v 0.02350622 0.00524766 -0.14418460
v 0.02505025 0.00786654 -0.14418460
v 0.02716031 0.01005523 -0.14418460
v 0.02261266 0.00234176 -0.14418460
v 0.01247338 -0.00400000 -0.11217649
v 0.01247360 0.00399999 -0.11217841
v 0.01275436 -0.00400000 -0.11419081
v 0.01275436 0.00399999 -0.11419081
v 0.01278108 -0.00400000 -0.11435210
v 0.01278140 0.00399999 -0.11435400
v 0.01319949 -0.00400000 -0.11650906
v 0.01319991 0.00399999 -0.11651094
v 0.01372886 -0.00400000 -0.11864666
v 0.01372937 0.00399999 -0.11864853
v 0.01397511 -0.00400000 -0.11950699
v 0.01397511 0.00399999 -0.11950699
v 0.01511131 -0.00400000 -0.12282445
v 0.01511202 0.00399999 -0.12282625
v 0.01252237 -0.00460537 -0.11217085
v 0.01282968 -0.00460537 -0.11434392
v 0.01324732 -0.00460537 -0.11649850
v 0.01377586 -0.00460537 -0.11863374
v 0.01441345 -0.00460537 -0.12073899
v 0.01515723 -0.00460537 -0.12280661
v 0.01770969 -0.00887488 -0.11964814
v 0.01712365 -0.00887488 -0.11771307
v 0.01400864 -0.00646682 -0.11633053
v 0.01449056 -0.00709291 -0.11622420
v 0.01452758 -0.00646682 -0.11842701
v 0.01500343 -0.00709291 -0.11829615
v 0.01515360 -0.00646682 -0.12049405
v 0.01562212 -0.00709291 -0.12033899
v 0.01588388 -0.00646682 -0.12252413
v 0.01634386 -0.00709291 -0.12234533
v 0.01553872 -0.00584455 -0.12265831
v 0.01529852 -0.00522454 -0.12275168
v 0.01480202 -0.00584455 -0.12061039
v 0.01455736 -0.00522454 -0.12069136
v 0.01417051 -0.00584455 -0.11852521
v 0.01392202 -0.00522454 -0.11859354
v 0.01364701 -0.00584455 -0.11641032
v 0.01339535 -0.00522454 -0.11646584
v 0.01323334 -0.00584455 -0.11427627
v 0.01297918 -0.00522454 -0.11431886
v 0.01559518 -0.00770732 -0.11813341
v 0.01620476 -0.00770732 -0.12014618
v 0.01357384 0.00642965 -0.11422113
v 0.01321241 0.00580121 -0.11428171
v 0.01398425 0.00642965 -0.11633785
v 0.01362638 0.00580121 -0.11641683
v 0.01450360 0.00642965 -0.11843558
v 0.01415024 0.00580121 -0.11853277
v 0.01513009 0.00642965 -0.12050383
v 0.01478217 0.00580121 -0.12061898
v 0.01586090 0.00642965 -0.12253511
v 0.01551933 0.00580121 -0.12266790
v 0.01296392 0.00517554 -0.11432337
v 0.01265749 0.00517554 -0.11215718
v 0.01528450 0.00517554 -0.12275920
v 0.01454297 0.00517554 -0.12069815
v 0.01390730 0.00517554 -0.11859959
v 0.01338034 0.00517554 -0.11647113
v 0.01451042 0.00711520 -0.11622174
v 0.01502314 0.00711520 -0.11829267
v 0.01564163 0.00711520 -0.12033451
v 0.01636311 0.00711520 -0.12233985
v 0.01628193 0.00828729 -0.11794644
v 0.01688103 0.00828729 -0.11992429
v 0.05740000 0.03650000 -0.01810000
v 0.05740000 -0.03649999 0.01810000
v 0.05740000 -0.02603073 0.03000031
v 0.05740000 -0.02732841 0.02913322
v 0.05740000 -0.02449999 0.03030479
v 0.05440000 -0.03649999 0.01810000
v 0.05440000 0.03650000 -0.01810000
v 0.05440000 0.01500000 0.03720000
v 0.05440000 0.03650000 0.03720000
v 0.04690000 -0.02449999 0.03030479
v 0.06040000 0.01500000 0.03720000
v 0.06040000 0.03650000 0.03720000
v 0.04690000 -0.02603073 0.03000031
v 0.04690000 -0.02732841 0.02913322
v 0.04690000 -0.02819551 0.02783553
v 0.00350000 0.02175380 -0.00746809
v 0.00350000 -0.02127657 0.00873542
v 0.00350000 -0.02175380 0.00746809
v 0.00350000 -0.00189932 0.02292144
v 0.00350000 0.00189932 0.02292144
v 0.00350000 -0.00564617 0.02229621
v 0.00350000 0.00564617 0.02229621
v 0.00100000 -0.01828820 -0.01394782
v 0.00100000 -0.01991859 -0.01150000
v 0.00350000 -0.02268631 -0.00378568
v 0.00350000 -0.02300000 -0.00000000
v 0.00350000 -0.02268631 0.00378568
v 0.00350000 -0.00923899 0.02106279
v 0.00350000 -0.01257981 0.01925483
v 0.00350000 -0.01394782 0.01828820
v 0.00350000 0.00923899 0.02106279
v 0.00350000 0.01257981 0.01925483
v 0.00350000 0.01394782 0.01828820
v 0.00350000 0.02127657 0.00873542
v 0.00350000 0.02175380 0.00746809
v 0.00350000 0.02268631 0.00378568
v 0.00350000 0.02300000 0.00000000
v 0.00350000 0.02268631 -0.00378568
v 0.00100000 -0.01811724 -0.01409031
v 0.00350000 0.01409031 0.01811724
v 0.00350000 -0.01409031 0.01811724
v -0.00000000 -0.00209579 -0.01636636
v -0.00000000 -0.00483158 -0.01577675
v -0.00000000 -0.01503527 -0.00679637
v -0.00000000 -0.01503527 0.00679637
v -0.00000000 -0.01596759 0.00415764
v -0.00000000 -0.01644056 0.00139930
v -0.00000000 -0.01650000 -0.00000000
v -0.00000000 -0.01644056 -0.00139930
v -0.00000000 -0.01596759 -0.00415764
v -0.00000000 -0.00981145 -0.01326595
v -0.00000000 -0.01191228 -0.01141699
v -0.00000000 -0.01367041 -0.00923958
v -0.00000000 -0.00742836 -0.01473328
v -0.00000000 0.00615213 -0.01531017
v -0.00000000 0.00347621 -0.01612966
v -0.00000000 0.00070028 -0.01648513
v -0.00000000 0.00865107 -0.01405023
v -0.00000000 0.00867649 -0.01403455
v -0.00000000 0.01555748 -0.00549681
v -0.00000000 0.01440473 -0.00804697
v -0.00000000 0.01283759 -0.01036563
v -0.00000000 0.01090113 -0.01238609
v -0.00000000 0.01626266 -0.00278851
v -0.00000000 0.01650000 0.00000000
v -0.00000000 0.01626266 0.00278851
v -0.00000000 0.01555748 0.00549681
v -0.00000000 0.01440473 0.00804697
v -0.00000000 0.01283759 0.01036563
v -0.00000000 0.01090113 0.01238609
v -0.00000000 0.00867649 0.01403455
v -0.00000000 0.00865107 0.01405023
v -0.00000000 0.00615213 0.01531017
v -0.00000000 0.00347621 0.01612966
v -0.00000000 0.00070028 0.01648513
v -0.00000000 -0.00000190 0.01650000
v -0.00000000 -0.00742836 0.01473328
v -0.00000000 -0.00981145 0.01326595
v -0.00000000 -0.00483158 0.01577675
v -0.00000000 -0.00209579 0.01636636
v -0.00000000 -0.01191228 0.01141699
v -0.00000000 -0.01367041 0.00923958
v 0.06490000 -0.03895000 -0.01600000
v 0.05840000 -0.03895000 -0.01600000
v 0.05790000 -0.03895000 -0.01650000
v 0.05790000 -0.03895000 -0.03450000
v 0.05840000 -0.03895000 -0.03500000
v 0.06515000 -0.03895000 -0.01606699
v 0.06533302 -0.03895000 -0.01625000
v 0.06540000 -0.03895000 -0.01650000
v 0.06540000 -0.03895000 -0.03450000
v 0.06533302 -0.03895000 -0.03475000
v 0.06515000 -0.03895000 -0.03493301
v 0.06490000 -0.03895000 -0.03500000
v 0.06540000 0.01505000 0.03500000
v 0.06490000 0.01505000 0.03550000
v 0.05790000 0.03895000 0.03450000
v 0.05840000 0.03895000 0.03500000
v 0.05790000 0.03895000 0.01650000
v 0.06490000 0.03395000 0.03550000
v 0.06540000 0.03395000 0.03500000
v 0.06515000 0.01005000 0.03493301
v 0.06533302 0.01005000 0.03475000
v 0.05840000 0.03895000 0.01600000
v 0.06490000 0.03895000 0.01600000
v 0.06490000 0.03895000 0.03500000
v 0.06515000 0.03895000 0.01606699
v 0.06533302 0.03895000 0.01625000
v 0.06540000 0.03895000 0.01650000
v 0.06540000 0.03895000 0.03450000
v 0.06533302 0.03895000 0.03475000
v 0.06515000 0.03895000 0.03493301
v 0.07090000 0.00111162 0.01370499
v 0.07090000 -0.00529229 -0.01269071
v 0.07090000 -0.00468100 -0.01292868
v 0.07090000 -0.01370499 0.00111162
v 0.07090000 -0.01374241 0.00045671
v 0.07090000 -0.01337773 -0.00317786
v 0.07090000 -0.01321094 -0.00381228
v 0.07090000 0.01370499 -0.00111162
v 0.07090000 0.01374241 -0.00045671
v 0.07090000 0.01337773 0.00317786
v 0.07090000 0.01321094 0.00381228
v 0.07090000 -0.00111162 -0.01370499
v 0.07090000 -0.00045671 -0.01374241
v 0.07090000 0.01269071 -0.00529229
v 0.07090000 0.01292868 -0.00468100
v 0.07090000 0.01043418 -0.00895491
v 0.07090000 0.01084940 -0.00844708
v 0.07090000 0.00715627 -0.01174096
v 0.07090000 0.00770810 -0.01138629
v 0.07090000 0.00317786 -0.01337773
v 0.07090000 0.00381228 -0.01321094
v 0.07090000 -0.00895491 -0.01043418
v 0.07090000 -0.00844708 -0.01084940
v 0.07090000 -0.01174096 -0.00715627
v 0.07090000 -0.01138629 -0.00770810
v 0.07090000 -0.01269071 0.00529229
v 0.07090000 -0.01292868 0.00468100
v 0.07090000 -0.01043418 0.00895491
v 0.07090000 -0.01084940 0.00844708
v 0.07090000 -0.00715627 0.01174096
v 0.07090000 -0.00770810 0.01138629
v 0.07090000 -0.00317786 0.01337773
v 0.07090000 -0.00381228 0.01321094
v 0.07090000 0.00045671 0.01374241
v 0.07090000 0.00529229 0.01269071
v 0.07090000 0.00468100 0.01292868
v 0.07090000 0.00895491 0.01043418
v 0.07090000 0.00844708 0.01084940
v 0.07090000 0.01174096 0.00715627
v 0.07090000 0.01138629 0.00770810
f 107 123 108
f 179 100 120
f 120 180 179
f 131 193 101
f 191 193 131
f 162 128 161
f 97 236 197
f 97 237 236
f 98 237 97
f 100 179 178
f 130 191 131
f 113 104 102
f 128 134 103
f 134 127 103
f 103 127 126
f 126 125 103
f 21 20 95
f 95 26 21
f 25 203 24
f 184 185 211
f 23 225 19
f 96 183 184
f 96 184 235
f 135 111 108
f 120 100 121
f 100 108 109
f 109 111 100
f 108 111 109
f 197 240 189
f 189 240 195
f 189 190 197
f 197 236 239
f 234 237 98
f 98 96 234
f 234 96 235
f 196 97 197
f 197 190 196
f 196 190 105
f 159 130 131
f 132 94 93
f 132 159 131
f 131 101 132
f 95 20 8
f 202 26 95
f 202 25 26
f 203 25 202
f 198 101 193
f 191 130 129
f 128 103 129
f 129 103 191
f 129 161 128
f 107 104 115
f 104 113 115
f 195 204 205
f 205 194 195
f 191 103 192
f 116 103 125
f 230 185 231
f 213 185 230
f 219 19 226
f 19 227 226
f 19 225 224
f 224 227 19
f 220 23 24
f 24 203 220
f 186 14 16
f 16 15 186
f 17 185 186
f 186 15 17
f 182 96 177
f 183 96 182
f 124 108 123
f 124 135 108
f 175 135 124
f 238 240 197
f 197 239 238
f 99 196 105
f 97 196 99
f 130 159 160
f 161 129 160
f 160 129 130
f 74 154 110
f 132 89 110
f 159 132 158
f 158 110 154
f 132 110 158
f 29 94 6
f 94 132 6
f 120 121 118
f 52 51 118
f 3 118 51
f 22 14 186
f 95 199 201
f 201 202 95
f 122 123 107
f 107 115 122
f 194 205 206
f 200 106 206
f 206 106 194
f 111 135 176
f 176 135 175
f 112 140 121
f 100 111 112
f 112 121 100
f 174 115 113
f 166 125 126
f 103 116 114
f 114 116 168
f 185 229 228
f 228 231 185
f 218 19 219
f 218 209 19
f 208 185 19
f 19 209 208
f 208 229 185
f 212 211 185
f 185 213 212
f 235 184 232
f 184 233 232
f 184 211 210
f 210 233 184
f 225 23 222
f 19 185 18
f 185 17 18
f 28 92 29
f 90 132 93
f 90 89 132
f 93 94 90
f 74 110 73
f 101 4 5
f 5 132 101
f 5 6 132
f 70 118 46
f 69 118 70
f 46 118 117
f 118 147 117
f 121 140 141
f 141 118 121
f 10 50 49
f 10 49 9
f 9 49 43
f 44 30 9
f 13 3 51
f 120 118 119
f 118 3 119
f 119 180 120
f 2 181 180
f 1 181 2
f 180 119 2
f 2 119 3
f 10 11 62
f 62 50 10
f 216 204 217
f 204 245 217
f 204 243 246
f 246 245 204
f 207 242 204
f 195 240 207
f 207 204 195
f 244 243 204
f 188 7 187
f 7 22 187
f 187 22 186
f 111 176 139
f 139 112 111
f 140 112 139
f 123 122 171
f 125 166 167
f 167 116 125
f 168 116 167
f 126 127 165
f 165 166 126
f 169 114 168
f 23 220 223
f 223 222 23
f 221 220 203
f 203 214 221
f 203 204 215
f 215 214 203
f 215 204 216
f 83 154 74
f 83 155 154
f 84 155 83
f 92 28 81
f 92 81 79
f 89 90 77
f 90 79 77
f 67 118 69
f 144 118 143
f 46 117 45
f 145 117 146
f 146 117 147
f 143 118 142
f 118 141 142
f 43 49 41
f 41 9 43
f 68 70 46
f 46 47 68
f 69 70 68
f 68 67 69
f 66 67 68
f 72 13 51
f 64 49 50
f 50 62 64
f 66 49 64
f 61 11 12
f 61 62 11
f 61 64 62
f 204 242 241
f 241 244 204
f 173 122 115
f 173 171 122
f 115 174 173
f 172 124 123
f 123 171 172
f 175 124 172
f 163 127 134
f 163 128 162
f 163 134 128
f 113 114 170
f 114 169 170
f 170 174 113
f 156 155 84
f 156 32 157
f 84 32 156
f 149 32 150
f 84 83 34
f 34 32 84
f 82 28 27
f 82 81 28
f 92 79 91
f 91 79 90
f 91 90 94
f 91 94 29
f 29 92 91
f 89 77 75
f 75 110 89
f 75 73 110
f 118 67 53
f 54 118 53
f 138 147 118
f 118 144 138
f 133 117 145
f 145 45 133
f 133 45 117
f 66 68 48
f 48 68 47
f 48 49 66
f 48 41 49
f 48 47 37
f 52 118 71
f 71 51 52
f 71 72 51
f 59 61 12
f 164 165 127
f 127 163 164
f 32 149 152
f 150 32 151
f 137 136 31
f 31 148 137
f 145 148 31
f 31 45 145
f 136 151 31
f 31 151 32
f 36 38 37
f 36 34 83
f 27 30 85
f 85 82 27
f 85 30 44
f 80 79 81
f 81 82 80
f 80 77 79
f 80 78 77
f 82 85 80
f 88 83 74
f 88 36 83
f 38 36 88
f 76 75 77
f 77 78 76
f 74 73 76
f 73 75 76
f 76 88 74
f 78 88 76
f 39 48 37
f 41 48 39
f 40 41 39
f 37 38 39
f 39 38 40
f 60 59 12
f 12 13 60
f 64 61 63
f 66 64 63
f 157 32 153
f 32 152 153
f 32 34 33
f 33 31 32
f 46 45 33
f 45 31 33
f 42 41 40
f 44 9 42
f 9 41 42
f 13 72 58
f 58 60 13
f 34 36 35
f 35 33 34
f 35 36 37
f 46 33 35
f 35 47 46
f 37 47 35
f 87 88 78
f 87 42 40
f 40 38 87
f 38 88 87
f 56 118 54
f 56 71 118
f 54 53 56
f 72 71 56
f 56 58 72
f 59 60 57
f 60 58 57
f 61 59 57
f 57 63 61
f 58 56 57
f 78 80 86
f 86 87 78
f 86 80 85
f 42 87 86
f 86 85 44
f 44 42 86
f 55 56 53
f 55 57 56
f 65 53 67
f 65 55 53
f 65 67 66
f 66 63 65
f 63 57 65
f 57 55 65
f 97 108 98
f 107 108 97
f 98 108 96
f 96 108 100
f 96 178 177
f 100 178 96
f 195 194 189
f 189 194 190
f 7 188 181
f 7 181 1
f 8 101 95
f 8 4 101
f 95 101 198
f 198 199 95
f 200 192 106
f 106 192 103
f 190 194 106
f 105 190 106
f 102 105 106
f 106 103 102
f 99 105 102
f 102 104 99
f 107 97 99
f 99 104 107
f 206 198 193
f 206 201 199
f 193 191 206
f 206 204 203
f 203 202 206
f 206 192 200
f 199 198 206
f 206 205 204
f 191 192 206
f 202 201 206
f 102 103 114
f 114 113 102
f 19 18 2
f 20 21 2
f 2 16 14
f 2 25 24
f 2 5 4
f 14 22 2
f 24 23 2
f 29 6 2
f 2 7 1
f 2 21 26
f 26 25 2
f 2 23 19
f 2 8 20
f 2 13 12
f 2 11 10
f 4 8 2
f 15 16 2
f 2 17 15
f 2 28 29
f 2 30 27
f 10 9 2
f 12 11 2
f 2 22 7
f 2 18 17
f 27 28 2
f 6 5 2
f 2 9 30
f 3 13 2
f 186 185 187
f 177 178 187
f 187 182 177
f 180 181 187
f 187 179 180
f 187 185 184
f 184 183 187
f 181 188 187
f 187 178 179
f 183 182 187
f 241 234 235
f 241 239 236
f 241 228 229
f 241 213 230
f 241 210 211
f 211 212 241
f 230 231 241
f 236 237 241
f 240 238 241
f 219 226 241
f 241 224 225
f 225 222 241
f 237 234 241
f 220 221 241
f 241 246 243
f 241 218 219
f 229 208 241
f 235 232 241
f 241 226 227
f 227 224 241
f 241 238 239
f 216 217 241
f 241 207 240
f 231 228 241
f 209 218 241
f 241 208 209
f 241 212 213
f 241 232 233
f 233 210 241
f 243 244 241
f 241 223 220
f 241 217 245
f 245 246 241
f 242 207 241
f 241 215 216
f 222 223 241
f 241 221 214
f 214 215 241
f 153 176 175
f 140 139 153
f 161 160 153
f 153 169 168
f 153 148 145
f 153 158 154
f 153 149 150
f 162 161 153
f 153 160 159
f 153 156 157
f 168 167 153
f 159 158 153
f 145 146 153
f 175 172 153
f 153 173 174
f 154 155 153
f 153 144 143
f 153 141 140
f 153 139 176
f 143 142 153
f 153 167 166
f 166 165 153
f 153 163 162
f 174 170 153
f 137 148 153
f 150 151 153
f 153 146 147
f 153 142 141
f 171 173 153
f 153 172 171
f 147 138 153
f 153 170 169
f 155 156 153
f 165 164 153
f 153 136 137
f 153 138 144
f 153 164 163
f 153 152 149
f 153 151 136

