# https://github.com/mikedh/trimesh
v 0.03152702 -0.01200001 -0.14418460
v 0.02989893 -0.01172750 -0.14418460
v 0.02910640 -0.01137500 -0.14418460
v 0.03152702 0.01200001 -0.14418460
v 0.02989893 0.01172749 -0.14418460
v 0.02910640 0.01137499 -0.14418460
v 0.04227298 -0.01200001 -0.14418460
v 0.04227298 0.01200001 -0.14418460
v 0.02240000 0.00000001 -0.14418460
v 0.02261266 -0.00234177 -0.14418460
v 0.02350622 -0.00524764 -0.14418460
v 0.02505025 -0.00786655 -0.14418460
v 0.02716031 -0.01005523 -0.14418460
v 0.04469360 -0.01137500 -0.14418460
v 0.04883298 -0.00775583 -0.14418460
v 0.04695682 -0.00978677 -0.14418460
v 0.05023720 -0.00537406 -0.14418460
v 0.05110598 -0.00274922 -0.14418460
v 0.05140000 0.00000001 -0.14418460
v 0.04352298 0.01184122 -0.14418460
v 0.04469360 0.01137499 -0.14418460
v 0.04352298 -0.01184123 -0.14418460
v 0.05110598 0.00274922 -0.14418460
v 0.05023720 0.00537409 -0.14418460
v 0.04883298 0.00775583 -0.14418460
v 0.04695682 0.00978677 -0.14418460
v 0.02350622 0.00524766 -0.14418460
v 0.02505025 0.00786654 -0.14418460
v 0.02716031 0.01005523 -0.14418460
v 0.02261266 0.00234176 -0.14418460
v 0.01247338 -0.00400000 -0.11217649
v 0.01247360 0.00399999 -0.11217841
v 0.01275436 -0.00400000 -0.11419081
v 0.01275436 0.00399999 -0.11419081
v 0.01278108 -0.00400000 -0.11435210
v 0.01278140 0.00399999 -0.11435400
v 0.01319949 -0.00400000 -0.11650906
v 0.01319991 0.00399999 -0.11651094
v 0.01372886 -0.00400000 -0.11864666
v 0.01372937 0.00399999 -0.11864853
v 0.01397511 -0.00400000 -0.11950699
v 0.01397511 0.00399999 -0.11950699
v 0.01511131 -0.00400000 -0.12282445
v 0.01511202 0.00399999 -0.12282625
v 0.01252237 -0.00460537 -0.11217085
v 0.01282968 -0.00460537 -0.11434392
v 0.01324732 -0.00460537 -0.11649850
v 0.01377586 -0.00460537 -0.11863374
v 0.01441345 -0.00460537 -0.12073899
v 0.01515723 -0.00460537 -0.12280661
v 0.01770969 -0.00887488 -0.11964814
v 0.01712365 -0.00887488 -0.11771307
v 0.01400864 -0.00646682 -0.11633053
v 0.01449056 -0.00709291 -0.11622420
v 0.01452758 -0.00646682 -0.11842701
v 0.01500343 -0.00709291 -0.11829615
v 0.01515360 -0.00646682 -0.12049405
v 0.01562212 -0.00709291 -0.12033899
v 0.01588388 -0.00646682 -0.12252413
v 0.01634386 -0.00709291 -0.12234533
v 0.01553872 -0.00584455 -0.12265831
v 0.01529852 -0.00522454 -0.12275168
v 0.01480202 -0.00584455 -0.12061039
v 0.01455736 -0.00522454 -0.12069136
v 0.01417051 -0.00584455 -0.11852521
v 0.01392202 -0.00522454 -0.11859354
v 0.01364701 -0.00584455 -0.11641032
v 0.01339535 -0.00522454 -0.11646584
v 0.01323334 -0.00584455 -0.11427627
v 0.01297918 -0.00522454 -0.11431886
v 0.01559518 -0.00770732 -0.11813341
v 0.01620476 -0.00770732 -0.12014618
v 0.01357384 0.00642965 -0.11422113
v 0.01321241 0.00580121 -0.11428171
v 0.01398425 0.00642965 -0.11633785
v 0.01362638 0.00580121 -0.11641683
v 0.01450360 0.00642965 -0.11843558
v 0.01415024 0.00580121 -0.11853277
v 0.01513009 0.00642965 -0.12050383
v 0.01478217 0.00580121 -0.12061898
v 0.01586090 0.00642965 -0.12253511
v 0.01551933 0.00580121 -0.12266790
v 0.01296392 0.00517554 -0.11432337
v 0.01265749 0.00517554 -0.11215718
v 0.01528450 0.00517554 -0.12275920
v 0.01454297 0.00517554 -0.12069815
v 0.01390730 0.00517554 -0.11859959
v 0.01338034 0.00517554 -0.11647113
v 0.01451042 0.00711520 -0.11622174
v 0.01502314 0.00711520 -0.11829267
v 0.01564163 0.00711520 -0.12033451
v 0.01636311 0.00711520 -0.12233985
v 0.01628193 0.00828729 -0.11794644
v 0.01688103 0.00828729 -0.11992429
v 0.05740000 0.03650000 -0.01810000
v 0.05740000 -0.03649999 0.01810000
v 0.05740000 -0.02603073 0.03000031
v 0.05740000 -0.02732841 0.02913322
v 0.05740000 -0.02449999 0.03030479
v 0.05440000 -0.03649999 0.01810000
v 0.05440000 0.03650000 -0.01810000
v 0.05440000 0.01500000 0.03720000
v 0.05440000 0.03650000 0.03720000
v 0.04690000 -0.02449999 0.03030479
v 0.06040000 0.01500000 0.03720000
v 0.06040000 0.03650000 0.03720000
v 0.04690000 -0.02603073 0.03000031
v 0.04690000 -0.02732841 0.02913322
v 0.04690000 -0.02819551 0.02783553
v 0.00350000 0.02175380 -0.00746809
v 0.00350000 -0.02127657 0.00873542
v 0.00350000 -0.02175380 0.00746809
v 0.00350000 -0.00189932 0.02292144
v 0.00350000 0.00189932 0.02292144
v 0.00350000 -0.00564617 0.02229621
v 0.00350000 0.00564617 0.02229621
v 0.00100000 -0.01828820 -0.01394782
v 0.00100000 -0.01991859 -0.01150000
v 0.00350000 -0.02268631 -0.00378568
v 0.00350000 -0.02300000 -0.00000000
v 0.00350000 -0.02268631 0.00378568
v 0.00350000 -0.00923899 0.02106279
v 0.00350000 -0.01257981 0.01925483
v 0.00350000 -0.01394782 0.01828820
v 0.00350000 0.00923899 0.02106279
v 0.00350000 0.01257981 0.01925483
v 0.00350000 0.01394782 0.01828820
v 0.00350000 0.02127657 0.00873542
v 0.00350000 0.02175380 0.00746809
v 0.00350000 0.02268631 0.00378568
v 0.00350000 0.02300000 0.00000000
v 0.00350000 0.02268631 -0.00378568
v 0.00100000 -0.01811724 -0.01409031
v 0.00350000 0.01409031 0.01811724
v 0.00350000 -0.01409031 0.01811724
v -0.00000000 -0.00209579 -0.01636636
v -0.00000000 -0.00483158 -0.01577675
v -0.00000000 -0.01503527 -0.00679637
v -0.00000000 -0.01503527 0.00679637
v -0.00000000 -0.01596759 0.00415764
v -0.00000000 -0.01644056 0.00139930
v -0.00000000 -0.01650000 -0.00000000
v -0.00000000 -0.01644056 -0.00139930
v -0.00000000 -0.01596759 -0.00415764
v -0.00000000 -0.00981145 -0.01326595
v -0.00000000 -0.01191228 -0.01141699
v -0.00000000 -0.01367041 -0.00923958
v -0.00000000 -0.00742836 -0.01473328
v -0.00000000 0.00615213 -0.01531017
v -0.00000000 0.00347621 -0.01612966
v -0.00000000 0.00070028 -0.01648513
v -0.00000000 0.00865107 -0.01405023
v -0.00000000 0.00867649 -0.01403455
v -0.00000000 0.01555748 -0.00549681
v -0.00000000 0.01440473 -0.00804697
v -0.00000000 0.01283759 -0.01036563
v -0.00000000 0.01090113 -0.01238609
v -0.00000000 0.01626266 -0.00278851
v -0.00000000 0.01650000 0.00000000
v -0.00000000 0.01626266 0.00278851
v -0.00000000 0.01555748 0.00549681
v -0.00000000 0.01440473 0.00804697
v -0.00000000 0.01283759 0.01036563
v -0.00000000 0.01090113 0.01238609
v -0.00000000 0.00867649 0.01403455
v -0.00000000 0.00865107 0.01405023
v -0.00000000 0.00615213 0.01531017
v -0.00000000 0.00347621 0.01612966
v -0.00000000 0.00070028 0.01648513
v -0.00000000 -0.00000190 0.01650000
v -0.00000000 -0.00742836 0.01473328
v -0.00000000 -0.00981145 0.01326595
v -0.00000000 -0.00483158 0.01577675
v -0.00000000 -0.00209579 0.01636636
v -0.00000000 -0.01191228 0.01141699
v -0.00000000 -0.01367041 0.00923958
v 0.06490000 -0.03895000 -0.01600000
v 0.05840000 -0.03895000 -0.01600000
v 0.05790000 -0.03895000 -0.01650000
v 0.05790000 -0.03895000 -0.03450000
v 0.05840000 -0.03895000 -0.03500000
v 0.06515000 -0.03895000 -0.01606699
v 0.06533302 -0.03895000 -0.01625000
v 0.06540000 -0.03895000 -0.01650000
v 0.06540000 -0.03895000 -0.03450000
v 0.06533302 -0.03895000 -0.03475000
v 0.06515000 -0.03895000 -0.03493301
v 0.06490000 -0.03895000 -0.03500000
v 0.06540000 0.01505000 0.03500000
v 0.06490000 0.01505000 0.03550000
v 0.05790000 0.03895000 0.03450000
v 0.05840000 0.03895000 0.03500000
v 0.05790000 0.03895000 0.01650000
v 0.06490000 0.03395000 0.03550000
v 0.06540000 0.03395000 0.03500000
v 0.06515000 0.01005000 0.03493301
v 0.06533302 0.01005000 0.03475000
v 0.05840000 0.03895000 0.01600000
v 0.06490000 0.03895000 0.01600000
v 0.06490000 0.03895000 0.03500000
v 0.06515000 0.03895000 0.01606699
v 0.06533302 0.03895000 0.01625000
v 0.06540000 0.03895000 0.01650000
v 0.06540000 0.03895000 0.03450000
v 0.06533302 0.03895000 0.03475000
v 0.06515000 0.03895000 0.03493301
v 0.07090000 0.00111162 0.01370499
v 0.07090000 -0.00529229 -0.01269071
v 0.07090000 -0.00468100 -0.01292868
v 0.07090000 -0.01370499 0.00111162
v 0.07090000 -0.01374241 0.00045671
v 0.07090000 -0.01337773 -0.00317786
v 0.07090000 -0.01321094 -0.00381228
v 0.07090000 0.01370499 -0.00111162
v 0.07090000 0.01374241 -0.00045671
v 0.07090000 0.01337773 0.00317786
v 0.07090000 0.01321094 0.00381228
v 0.07090000 -0.00111162 -0.01370499
v 0.07090000 -0.00045671 -0.01374241
v 0.07090000 0.01269071 -0.00529229
v 0.07090000 0.01292868 -0.00468100
v 0.07090000 0.01043418 -0.00895491
v 0.07090000 0.01084940 -0.00844708
v 0.07090000 0.00715627 -0.01174096
v 0.07090000 0.00770810 -0.01138629
v 0.07090000 0.00317786 -0.01337773
v 0.07090000 0.00381228 -0.01321094
v 0.07090000 -0.00895491 -0.01043418
v 0.07090000 -0.00844708 -0.01084940
v 0.07090000 -0.01174096 -0.00715627
v 0.07090000 -0.01138629 -0.00770810
v 0.07090000 -0.01269071 0.00529229
v 0.07090000 -0.01292868 0.00468100
v 0.07090000 -0.01043418 0.00895491
v 0.07090000 -0.01084940 0.00844708
v 0.07090000 -0.00715627 0.01174096
v 0.07090000 -0.00770810 0.01138629
v 0.07090000 -0.00317786 0.01337773
v 0.07090000 -0.00381228 0.01321094
v 0.07090000 0.00045671 0.01374241
v 0.07090000 0.00529229 0.01269071
v 0.07090000 0.00468100 0.01292868
v 0.07090000 0.00895491 0.01043418
v 0.07090000 0.00844708 0.01084940
v 0.07090000 0.01174096 0.00715627
v 0.07090000 0.01138629 0.00770810
f 131 193 101
f 180 179 120
f 120 121 118
f 118 121 141
f 108 111 109
f 121 120 100
f 100 109 111
f 100 120 179
f 108 109 100
f 176 111 135
f 108 124 135
f 135 111 108
f 131 101 132
f 97 236 197
f 97 237 236
f 98 237 97
f 180 120 119
f 119 120 118
f 144 138 118
f 140 141 121
f 127 103 134
f 134 103 128
f 121 100 112
f 112 100 111
f 112 140 121
f 178 100 179
f 191 193 131
f 52 51 118
f 21 20 95
f 95 26 21
f 95 20 8
f 199 201 95
f 197 236 239
f 239 238 197
f 234 237 98
f 98 96 234
f 234 96 235
f 196 97 197
f 16 15 186
f 187 22 186
f 187 7 22
f 188 7 187
f 235 96 184
f 174 113 170
f 143 144 118
f 139 111 176
f 139 112 111
f 140 112 139
f 118 138 147
f 192 191 103
f 130 191 131
f 118 51 3
f 51 13 3
f 3 119 118
f 93 90 132
f 101 4 5
f 5 132 101
f 5 6 132
f 198 101 193
f 24 25 203
f 23 225 19
f 185 18 19
f 17 185 186
f 17 18 185
f 186 15 17
f 243 246 204
f 207 204 195
f 242 204 207
f 99 196 105
f 97 196 99
f 105 196 190
f 190 196 197
f 104 102 113
f 125 116 103
f 103 116 114
f 170 113 114
f 168 114 116
f 186 22 14
f 14 16 186
f 185 228 231
f 211 184 185
f 183 184 96
f 124 172 175
f 175 135 124
f 176 135 175
f 123 124 108
f 123 122 171
f 171 172 123
f 123 172 124
f 113 174 115
f 115 104 113
f 118 141 142
f 142 143 118
f 163 134 128
f 127 134 163
f 117 147 146
f 118 147 117
f 191 130 129
f 128 103 129
f 103 191 129
f 2 181 180
f 1 181 2
f 180 119 2
f 119 3 2
f 49 10 50
f 72 13 51
f 94 6 29
f 90 93 94
f 132 6 94
f 94 93 132
f 214 203 215
f 221 203 214
f 202 25 26
f 202 203 25
f 202 26 95
f 95 201 202
f 185 19 208
f 220 223 23
f 220 23 24
f 24 203 220
f 220 203 221
f 222 225 23
f 23 223 222
f 243 204 244
f 205 194 195
f 195 204 205
f 240 207 195
f 197 238 240
f 189 190 197
f 197 240 189
f 189 240 195
f 107 123 108
f 122 123 107
f 107 115 122
f 104 115 107
f 127 165 126
f 126 103 127
f 126 125 103
f 170 114 169
f 114 168 169
f 116 125 167
f 167 168 116
f 230 213 185
f 185 231 230
f 185 213 212
f 212 211 185
f 182 96 177
f 182 183 96
f 173 115 174
f 171 122 173
f 122 115 173
f 164 165 127
f 127 163 164
f 118 117 46
f 132 90 89
f 74 73 76
f 76 73 75
f 91 94 29
f 90 94 91
f 40 39 38
f 41 40 42
f 39 40 41
f 35 46 33
f 45 117 133
f 45 46 117
f 31 33 45
f 45 33 46
f 62 10 11
f 62 50 10
f 9 44 30
f 9 10 49
f 42 44 9
f 9 41 42
f 51 52 71
f 71 72 51
f 71 52 118
f 60 12 13
f 59 12 60
f 19 227 226
f 224 19 225
f 224 227 19
f 209 19 218
f 209 208 19
f 229 228 185
f 185 208 229
f 241 204 242
f 241 244 204
f 215 204 216
f 204 217 216
f 245 204 246
f 245 217 204
f 194 205 206
f 200 106 206
f 206 106 194
f 166 167 125
f 166 126 165
f 125 126 166
f 235 184 232
f 184 233 232
f 184 211 210
f 210 233 184
f 118 46 70
f 86 44 42
f 74 154 110
f 110 73 74
f 75 73 110
f 132 89 110
f 110 89 75
f 131 132 159
f 159 130 131
f 74 76 88
f 29 28 92
f 92 91 29
f 136 31 137
f 31 148 137
f 145 45 133
f 145 148 31
f 31 45 145
f 145 117 146
f 133 117 145
f 49 66 48
f 48 41 49
f 39 41 48
f 61 62 11
f 11 12 61
f 61 12 59
f 49 50 64
f 50 62 64
f 64 66 49
f 62 61 64
f 49 41 43
f 43 9 49
f 41 9 43
f 118 67 53
f 13 72 58
f 58 60 13
f 218 19 219
f 19 226 219
f 69 67 118
f 118 70 69
f 68 66 67
f 67 69 68
f 68 69 70
f 68 70 46
f 68 48 66
f 42 40 87
f 87 86 42
f 87 40 38
f 38 88 87
f 85 27 30
f 30 44 85
f 44 86 85
f 158 159 132
f 132 110 158
f 158 110 154
f 160 129 130
f 130 159 160
f 151 31 136
f 39 48 37
f 38 39 37
f 63 64 61
f 66 64 63
f 72 71 56
f 56 58 72
f 56 71 118
f 59 60 57
f 60 58 57
f 57 61 59
f 57 63 61
f 58 56 57
f 78 88 76
f 78 87 88
f 86 87 78
f 82 28 27
f 27 85 82
f 128 129 161
f 129 160 161
f 155 84 156
f 74 88 83
f 83 154 74
f 155 154 83
f 83 84 155
f 48 68 47
f 47 37 48
f 47 68 46
f 47 46 35
f 35 37 47
f 118 53 54
f 54 56 118
f 53 56 54
f 55 56 53
f 55 57 56
f 77 89 90
f 75 89 77
f 77 76 75
f 77 78 76
f 81 92 28
f 28 82 81
f 162 163 128
f 128 161 162
f 84 83 34
f 35 33 34
f 65 53 67
f 65 55 53
f 67 66 65
f 66 63 65
f 63 57 65
f 57 55 65
f 91 92 79
f 92 81 79
f 90 91 79
f 79 77 90
f 32 150 149
f 149 152 32
f 32 151 150
f 31 151 32
f 157 156 32
f 32 33 31
f 32 34 33
f 32 156 84
f 84 34 32
f 35 34 36
f 38 37 36
f 36 37 35
f 36 34 83
f 36 88 38
f 36 83 88
f 80 81 82
f 80 79 81
f 86 78 80
f 78 77 80
f 77 79 80
f 80 85 86
f 80 82 85
f 157 32 153
f 153 32 152
f 100 96 98
f 100 98 108
f 96 100 178
f 177 96 178
f 8 101 95
f 8 4 101
f 103 102 106
f 106 102 105
f 7 188 181
f 7 181 1
f 103 106 192
f 192 106 200
f 95 101 198
f 198 199 95
f 215 203 204
f 190 106 105
f 194 106 190
f 105 102 104
f 104 99 105
f 114 102 103
f 113 102 114
f 194 190 189
f 195 194 189
f 108 98 107
f 98 97 107
f 99 104 107
f 97 99 107
f 177 178 182
f 180 181 182
f 182 179 180
f 182 187 186
f 186 185 182
f 181 188 182
f 182 178 179
f 188 187 182
f 185 184 182
f 184 183 182
f 29 6 9
f 24 23 9
f 15 16 9
f 9 8 20
f 9 7 1
f 9 14 22
f 20 21 9
f 9 25 24
f 23 19 9
f 9 28 29
f 1 2 9
f 9 21 26
f 4 8 9
f 11 10 9
f 26 25 9
f 9 5 4
f 9 17 15
f 22 7 9
f 9 3 13
f 30 27 9
f 9 12 11
f 6 5 9
f 9 19 18
f 18 17 9
f 16 14 9
f 9 2 3
f 27 28 9
f 13 12 9
f 206 192 200
f 206 202 201
f 206 198 193
f 193 191 206
f 201 199 206
f 191 192 206
f 199 198 206
f 206 204 203
f 203 202 206
f 206 205 204
f 219 246 243
f 243 244 219
f 219 224 225
f 219 234 235
f 219 239 236
f 221 214 219
f 225 222 219
f 236 237 219
f 219 240 238
f 219 212 213
f 219 245 246
f 238 239 219
f 237 234 219
f 219 241 242
f 219 220 221
f 242 207 219
f 219 231 228
f 213 230 219
f 219 214 215
f 219 210 211
f 219 209 218
f 223 220 219
f 219 222 223
f 228 229 219
f 215 216 219
f 207 240 219
f 219 230 231
f 211 212 219
f 235 232 219
f 219 226 227
f 227 224 219
f 208 209 219
f 219 229 208
f 244 241 219
f 219 216 217
f 217 245 219
f 219 232 233
f 233 210 219
f 138 144 153
f 176 175 153
f 153 147 138
f 153 142 141
f 153 166 165
f 153 174 170
f 141 140 153
f 153 139 176
f 153 172 171
f 136 137 153
f 144 143 153
f 140 139 153
f 153 158 154
f 146 147 153
f 170 169 153
f 153 175 172
f 143 142 153
f 171 173 153
f 165 164 153
f 153 169 168
f 168 167 153
f 153 173 174
f 153 164 163
f 153 154 155
f 153 151 136
f 153 152 149
f 167 166 153
f 153 145 146
f 149 150 153
f 155 156 153
f 153 137 148
f 148 145 153
f 159 158 153
f 153 160 159
f 150 151 153
f 153 161 160
f 153 156 157
f 163 162 153
f 153 162 161

