# https://github.com/mikedh/trimesh
v 0.04986432 0.02114080 -0.03262710
v 0.05469035 -0.02138688 -0.02768640
v 0.04972091 -0.02135866 -0.03392115
v 0.05256318 0.02653725 -0.04105192
v 0.03682206 -0.01218387 -0.03937740
v 0.04781797 0.01140144 -0.04444213
v 0.02757131 -0.01112823 -0.02530532
v 0.02290262 0.00744288 -0.02530497
v 0.02580651 -0.01160779 -0.08566942
v 0.03152702 -0.01200001 -0.07130479
v 0.03140000 -0.01199837 -0.10724469
v 0.03140000 -0.01199918 -0.11773445
v 0.03140000 -0.01199837 -0.11855432
v 0.03152702 -0.01200001 -0.14418460
v 0.02989893 -0.01172750 -0.14418460
v 0.03140000 -0.01199918 -0.09675494
v 0.03152702 0.01200001 -0.14418460
v 0.03140000 0.01199920 -0.11773445
v 0.03140000 0.01199840 -0.10724469
v 0.03152702 0.01200001 -0.07130479
v 0.03140000 0.01199920 -0.09675494
v 0.02599477 -0.01165493 -0.04666072
v 0.02315019 0.00985302 -0.04629583
v 0.01805667 -0.00400474 -0.08556040
v 0.01808196 0.00406231 -0.08550487
v 0.01805350 -0.00400000 -0.08556737
v 0.01805667 0.00400476 -0.08556040
v 0.01953245 0.00500001 -0.08197041
v 0.01984456 -0.00500038 -0.04634385
v 0.02312105 0.00650951 -0.06915546
v 0.01913651 0.00721911 -0.08481025
v 0.03037039 0.01200192 -0.08402540
v 0.02676220 0.01047482 -0.06345489
v 0.02862961 -0.01165185 -0.05523905
v 0.02067836 -0.00835140 -0.08439215
v 0.03378268 -0.01192387 -0.08146545
v 0.03340001 -0.01200001 -0.08130468
v 0.03352039 -0.01199477 -0.13329425
v 0.03378268 -0.01192387 -0.13314950
v 0.03340000 -0.01200001 -0.10030479
v 0.03399625 -0.01180281 -0.11771521
v 0.03389398 -0.01186948 -0.11752255
v 0.03384406 -0.01189600 -0.11730313
v 0.03383815 -0.01189889 -0.10030474
v 0.03388644 -0.01187371 -0.11708343
v 0.03388229 -0.01187601 -0.10052229
v 0.03398546 -0.01181071 -0.11688934
v 0.03398165 -0.01181345 -0.10071404
v 0.03410711 -0.01170712 -0.10095882
v 0.03388599 -0.01187395 -0.10008751
v 0.03398708 -0.01180955 -0.09989626
v 0.03553449 -0.00992690 -0.09156668
v 0.03410711 -0.01170712 -0.11665076
v 0.03432388 -0.01138269 -0.11584164
v 0.03432388 -0.01138269 -0.10176794
v 0.03440000 -0.01100000 -0.11472444
v 0.03480387 -0.00953720 -0.12562394
v 0.04227298 -0.01200001 -0.13330479
v 0.04227298 -0.01200001 -0.08130479
v 0.04227298 0.01200001 -0.08130479
v 0.03390000 0.01186601 -0.08158985
v 0.03368673 0.01195801 -0.08139300
v 0.03349902 0.01199702 -0.08131101
v 0.03897748 0.01062544 -0.08595895
v 0.04584716 0.01085152 -0.08236220
v 0.05144851 -0.00142720 -0.10133157
v 0.05188988 -0.00462881 -0.09950378
v 0.04766290 -0.01112821 -0.07912895
v 0.04567401 -0.01092869 -0.09863862
v 0.05074957 0.00186032 -0.08509406
v 0.03340000 0.01200001 -0.10030479
v 0.03340000 0.01200001 -0.11730479
v 0.03358210 0.01198976 -0.13328375
v 0.03390000 0.01186601 -0.10005515
v 0.03390000 0.01186601 -0.10056387
v 0.03485963 0.01048855 -0.12471027
v 0.03678261 0.01151647 -0.02808743
v 0.04273590 0.00890000 -0.14418460
v 0.04502193 0.00735937 -0.02530479
v 0.04502193 0.00735937 -0.14418460
v 0.04679450 0.00524808 -0.02530479
v 0.04679450 0.00524808 -0.14418460
v 0.04791619 0.00272987 -0.02530479
v 0.04791619 0.00272987 -0.14418460
v 0.04830000 0.00000001 -0.02530479
v 0.04830000 0.00000001 -0.14418460
v 0.02700550 0.00524808 -0.02530479
v 0.02588382 0.00272987 -0.02530479
v 0.02550000 0.00000001 -0.02530479
v 0.02588382 -0.00272988 -0.02530479
v 0.02877808 -0.00735934 -0.02530479
v 0.03106410 0.00890000 -0.02530479
v 0.02877808 0.00735937 -0.02530479
v 0.04273590 -0.00890001 -0.02530479
v 0.04502193 -0.00735934 -0.02530479
v 0.04679450 -0.00524809 -0.02530479
v 0.02700550 -0.00524809 -0.02530479
v 0.04791619 -0.00272988 -0.02530479
v 0.03106410 -0.00890001 -0.14418460
v 0.04791619 -0.00272988 -0.14418460
v 0.04679450 -0.00524809 -0.14418460
v 0.04502193 -0.00735934 -0.14418460
v 0.02877808 -0.00735934 -0.14418460
v 0.02700550 -0.00524809 -0.14418460
v 0.02588382 -0.00272988 -0.14418460
v 0.02550000 0.00000001 -0.14418460
v 0.02588382 0.00272987 -0.14418460
v 0.02700550 0.00524808 -0.14418460
v 0.02877808 0.00735937 -0.14418460
v 0.03106410 0.00890000 -0.14418460
v 0.04486848 -0.01093866 -0.14418553
v 0.05339310 0.00653871 -0.14189496
v 0.04737673 -0.01153155 -0.14226985
v 0.05025250 0.00550885 -0.10231626
v 0.04453374 0.00988958 -0.11017109
v 0.04476004 0.01157028 -0.09954311
v 0.03889500 0.01187676 -0.10035916
v 0.04363577 -0.01181071 -0.11688934
v 0.04384314 -0.01175460 -0.11676776
v 0.04337467 -0.01187739 -0.11709312
v 0.04329618 -0.01189419 -0.11723272
v 0.04328750 -0.01189600 -0.11730313
v 0.04330310 -0.01189272 -0.11737480
v 0.04444895 -0.01152464 -0.11834649
v 0.04377747 -0.01177036 -0.10079897
v 0.04362606 -0.01181345 -0.10071404
v 0.04328381 -0.01189675 -0.10037518
v 0.04331394 -0.01189043 -0.10043943
v 0.04328714 -0.01189606 -0.10023411
v 0.04327336 -0.01189889 -0.10030474
v 0.04405833 0.01170236 -0.11653422
v 0.04830331 0.00877202 -0.12938034
v 0.04472655 0.01126003 -0.11842940
v 0.04756650 -0.00896701 -0.12837099
v 0.05178847 -0.00495674 -0.11911991
v 0.04295237 -0.01036375 -0.10939091
v 0.04947818 0.00484784 -0.11022193
v 0.03073814 -0.01198109 -0.12079281
v 0.01902893 -0.00700838 -0.08490131
v 0.01798073 -0.00453141 -0.08565322
v 0.01224785 -0.00603017 -0.11304473
v 0.01254367 0.00083488 -0.12031808
v 0.02330830 -0.00023500 -0.13997602
v 0.01892834 -0.00786930 -0.12775130
v 0.02705534 -0.00884919 -0.14018423
v 0.01038724 -0.00214255 -0.09750042
v 0.01538105 0.00765050 -0.11855551
v 0.02271427 0.01036736 -0.08550531
v 0.01432659 0.00914215 -0.10864537
v 0.02751347 0.00946850 -0.14039836
v 0.02463700 0.01139952 -0.08437648
v 0.01799636 0.00421466 -0.08565223
v 0.01805358 0.00401384 -0.08556723
v 0.01806180 -0.00411346 -0.08555183
v 0.05987826 -0.02020136 -0.03334256
v 0.05515157 0.01392500 -0.01372823
v 0.05765207 -0.02700729 -0.02840015
v 0.05967586 0.02442169 0.03337666
v 0.05694348 0.03034069 -0.02044328
v 0.05494331 -0.02124092 -0.03407889
v 0.05941085 -0.00245989 -0.01473010
v 0.05716855 0.02353975 0.02753371
v 0.05437611 -0.01697676 -0.01429114
v 0.05627500 -0.03263215 0.01543627
v 0.05440000 -0.03347191 -0.01241348
v 0.05501154 0.03245895 0.03288903
v 0.05502598 0.00809628 0.02951965
v 0.05475065 0.02848575 -0.02470893
v 0.05553014 0.03309438 0.01361916
v 0.05440000 0.01950000 0.03342000
v 0.04690000 -0.02131061 0.02301371
v 0.05464265 -0.02700509 0.02869034
v 0.04945682 0.02391290 0.02440958
v 0.05576536 -0.01448325 0.01046670
v 0.05625347 0.01335304 0.01302403
v 0.01591216 -0.01243353 -0.01248100
v 0.00706616 -0.01599867 -0.01028093
v 0.01666588 -0.01695133 0.01560769
v 0.01694321 -0.00491912 0.02158648
v 0.00901903 -0.01875792 -0.01288558
v 0.01550000 -0.01828820 -0.01394782
v 0.00415941 -0.01906398 -0.01290234
v 0.01639418 -0.02066842 0.00170009
v 0.01550000 -0.01828820 0.01394782
v 0.01007319 -0.01828820 0.01394782
v 0.00484499 -0.02184687 -0.00584058
v 0.01550000 0.01557748 0.01692165
v 0.01550000 0.01394782 0.01828820
v 0.00350000 0.01394782 0.01828820
v 0.01749958 0.01917973 0.01283161
v 0.01550000 0.01828820 0.01394782
v 0.01223046 0.02126776 -0.00895737
v 0.00588994 0.02055380 0.00676947
v 0.01550000 0.01815023 -0.01412689
v 0.01550000 0.01828820 -0.01394782
v 0.01749585 0.01943117 -0.01230488
v 0.01007319 0.01828820 -0.01394782
v 0.01625013 0.01547441 -0.01702996
v 0.01550000 0.01394782 -0.01828820
v 0.00350000 0.01357170 -0.01863731
v 0.01429815 0.00308437 -0.02290379
v 0.01686059 -0.01424865 -0.01880219
v 0.01749954 -0.01917457 -0.01283814
v 0.00539324 -0.00172209 -0.02057422
v 0.01007319 0.01811724 0.01409031
v 0.01550000 0.01811724 0.01409031
v 0.01007319 0.01790137 0.01414449
v 0.01550000 0.01809889 0.01416268
v 0.01151993 0.01507228 0.01166733
v 0.01652439 0.01615774 0.01563394
v 0.01550000 -0.01811724 0.01409031
v 0.01007319 -0.01811724 0.01409031
v 0.01550000 -0.01790137 0.01414449
v 0.01007319 -0.01790137 0.01414449
v 0.00844450 -0.01622325 0.01033889
v 0.00100000 -0.01811724 -0.01409031
v 0.01550000 -0.01811724 -0.01409031
v 0.00100000 -0.01790137 -0.01414449
v 0.01550000 -0.01809889 -0.01416268
v 0.01550000 0.01811724 -0.01409031
v 0.01007319 0.01811724 -0.01409031
v 0.01550000 0.01790137 -0.01414449
v 0.01616667 0.01559620 -0.01588266
v 0.01550000 0.01409031 -0.01811724
v 0.01550000 0.01414449 -0.01790137
v 0.01601020 0.01129702 -0.01524567
v 0.01550000 0.01160585 0.01600204
v 0.01550000 0.01409963 0.01768338
v 0.01550000 0.01414449 0.01790137
v 0.01550000 0.01409031 0.01811724
v 0.01550000 0.01184885 0.01605323
v 0.01550000 0.01278004 0.01652153
v 0.01683333 -0.01517960 0.01295377
v 0.01653704 -0.01417347 0.01607394
v 0.01176667 -0.01161839 0.01630041
v 0.01550027 -0.01364374 0.01141513
v 0.01585294 -0.01530673 -0.01495441
v 0.01550000 -0.01413394 -0.01803567
v 0.00350000 0.01409031 0.01811724
v 0.00350000 0.01414449 0.01790137
v 0.00350000 0.01394948 0.01753683
v 0.00350000 -0.01409505 0.01769275
v 0.00350000 0.01203725 0.01621502
v 0.00350000 0.01184885 0.01605323
v 0.00350000 0.01160585 0.01600204
v 0.01026779 0.00591358 0.01857098
v 0.00350000 0.01414449 -0.01790137
v 0.00350000 0.01197861 -0.01595679
v 0.00350000 0.01409031 -0.01811724
v 0.01669298 0.01256951 0.01239544
v 0.01231608 0.01607373 -0.00967682
v 0.00417454 0.00477890 -0.02065111
v 0.00610776 -0.00022285 0.02162126
v 0.00350000 -0.01401470 -0.01753943
v 0.00350000 -0.01115039 -0.01641944
v 0.00099889 -0.01633417 -0.01245346
v 0.01245925 0.01654030 -0.01227543
v 0.00896069 0.01430178 0.00554983
v 0.01004847 -0.00920355 0.00929949
v 0.00334355 0.00802290 -0.01290924
v 0.00974105 -0.00471081 -0.01289005
v 0.00164628 -0.00754526 -0.01254841
v 0.00983557 0.00813547 0.00750512
v 0.00981460 -0.00786676 -0.00724045
v 0.00770000 -0.00628831 -0.01502518
v 0.00493637 0.00165817 0.01714497
v 0.00240625 -0.00885743 0.01366029
v 0.00135158 -0.01631743 -0.00401602
v 0.00397368 0.00640143 0.01059694
v 0.00100714 0.01396064 -0.00334444
v 0.00474120 -0.01162621 0.00093164
v 0.01009127 -0.00066534 0.01173715
v 0.00221889 -0.00489342 0.00802446
v 0.00663720 0.00135225 -0.00890594
v 0.00794570 -0.00115612 -0.00898562
v 0.01037190 -0.01164537 -0.00427725
v 0.00668949 -0.01357481 0.00726781
v 0.00781710 0.00828317 -0.00354025
v 0.00940031 0.00851313 -0.01166195
v 0.05740000 -0.01505000 -0.03500000
v 0.05740000 -0.03395000 -0.03500000
v 0.06532628 -0.03395000 -0.01613269
v 0.05862157 -0.03720000 -0.01706701
v 0.05790000 -0.03395000 -0.03450000
v 0.05770000 -0.03395000 -0.03000000
v 0.05740000 -0.03395000 -0.03030000
v 0.05780000 -0.03395000 -0.03000000
v 0.05780000 -0.03395000 -0.02100000
v 0.06540000 -0.03395000 -0.01600000
v 0.06490000 -0.03395000 -0.01550000
v 0.05743125 -0.03395000 -0.01578125
v 0.05740000 -0.03395000 -0.02070000
v 0.05770000 -0.03395000 -0.02100000
v 0.06490000 -0.03395000 -0.03550000
v 0.06049223 -0.03664231 -0.03517453
v 0.06536580 -0.03395000 -0.03481453
v 0.06540000 -0.03395000 -0.03450000
v 0.05790000 -0.01505000 -0.01650000
v 0.05837438 -0.01243095 -0.03529155
v 0.05770000 -0.01505000 -0.02100000
v 0.05740000 -0.01505000 -0.01600000
v 0.05780000 -0.01505000 -0.02100000
v 0.05780000 -0.01505000 -0.03000000
v 0.06540000 -0.01505000 -0.03500000
v 0.06533702 -0.01505000 -0.03486145
v 0.06490000 -0.01505000 -0.03550000
v 0.05740000 -0.01505000 -0.03030000
v 0.05770000 -0.01505000 -0.03000000
v 0.06490000 -0.01505000 -0.01550000
v 0.06049222 -0.01235769 -0.01582547
v 0.06536580 -0.01505000 -0.01618547
v 0.06540000 -0.01505000 -0.01650000
v 0.06578225 -0.03895000 -0.01750583
v 0.06586977 -0.03895000 -0.03335196
v 0.06374204 -0.03895000 -0.03000000
v 0.06365094 -0.03895000 -0.02964376
v 0.06225796 -0.03895000 -0.03000000
v 0.06340000 -0.03895000 -0.02937500
v 0.06225796 -0.03895000 -0.02100000
v 0.06234906 -0.03895000 -0.02135624
v 0.06374204 -0.03895000 -0.02100000
v 0.06260000 -0.03895000 -0.02162500
v 0.06234906 -0.03895000 -0.02964376
v 0.06260000 -0.03895000 -0.02937500
v 0.06260000 -0.03895000 -0.02895000
v 0.06340000 -0.03895000 -0.02895000
v 0.06365094 -0.03895000 -0.02135624
v 0.06340000 -0.03895000 -0.02162500
v 0.06340000 -0.03895000 -0.02205000
v 0.06260000 -0.03895000 -0.02205000
v 0.06270000 -0.03895000 -0.02877679
v 0.06262679 -0.03895000 -0.02885000
v 0.06280000 -0.03895000 -0.02875000
v 0.06320000 -0.03895000 -0.02875000
v 0.06330000 -0.03895000 -0.02877679
v 0.06337321 -0.03895000 -0.02885000
v 0.06330000 -0.03895000 -0.02222320
v 0.06337321 -0.03895000 -0.02215000
v 0.06320000 -0.03895000 -0.02225000
v 0.06280000 -0.03895000 -0.02225000
v 0.06270000 -0.03895000 -0.02222320
v 0.06262679 -0.03895000 -0.02215000
v 0.06584842 -0.01005000 -0.03345432
v 0.06594434 -0.01005000 -0.01767786
v 0.06374204 -0.01005000 -0.03000000
v 0.06374204 -0.01005000 -0.02100000
v 0.06365094 -0.01005000 -0.02135624
v 0.06225796 -0.01005000 -0.02100000
v 0.06340000 -0.01005000 -0.02162500
v 0.06234906 -0.01005000 -0.02135624
v 0.06260000 -0.01005000 -0.02162500
v 0.06260000 -0.01005000 -0.02205000
v 0.06340000 -0.01005000 -0.02205000
v 0.06365094 -0.01005000 -0.02964376
v 0.06340000 -0.01005000 -0.02937500
v 0.06260000 -0.01005000 -0.02937500
v 0.06340000 -0.01005000 -0.02895000
v 0.06260000 -0.01005000 -0.02895000
v 0.06225796 -0.01005000 -0.03000000
v 0.06234906 -0.01005000 -0.02964376
v 0.06270000 -0.01005000 -0.02222320
v 0.06262679 -0.01005000 -0.02215000
v 0.06280000 -0.01005000 -0.02225000
v 0.06320000 -0.01005000 -0.02225000
v 0.06330000 -0.01005000 -0.02222320
v 0.06337321 -0.01005000 -0.02215000
v 0.06330000 -0.01005000 -0.02877679
v 0.06337321 -0.01005000 -0.02885000
v 0.06320000 -0.01005000 -0.02875000
v 0.06280000 -0.01005000 -0.02875000
v 0.06270000 -0.01005000 -0.02877679
v 0.06262679 -0.01005000 -0.02885000
v 0.05900917 -0.01072857 -0.02625797
v 0.05891693 -0.02950299 -0.03295015
v 0.05732921 -0.01527862 -0.02006291
v 0.05891659 -0.01950295 -0.01794962
v 0.05895929 -0.02950301 -0.01795145
v 0.05909877 -0.03735000 -0.02539554
v 0.05811384 -0.01983369 -0.03240343
v 0.05740000 0.03395000 0.01600000
v 0.05740000 0.01505000 0.01600000
v 0.06532628 0.01505000 0.03486731
v 0.05862158 0.01180000 0.03393299
v 0.05790000 0.01505000 0.01650000
v 0.05770000 0.01505000 0.02100000
v 0.05740000 0.01505000 0.02070000
v 0.05780000 0.01505000 0.02100000
v 0.05780000 0.01505000 0.03000000
v 0.06540000 0.01505000 0.03500000
v 0.06490000 0.01505000 0.03550000
v 0.05743125 0.01505000 0.03521875
v 0.05740000 0.01505000 0.03030000
v 0.05770000 0.01505000 0.03000000
v 0.06490000 0.01505000 0.01550000
v 0.06049222 0.01235769 0.01582547
v 0.06536580 0.01505000 0.01618547
v 0.06540000 0.01505000 0.01650000
v 0.05790000 0.03395000 0.03450000
v 0.05837437 0.03656905 0.01570846
v 0.05770000 0.03395000 0.03000000
v 0.05740000 0.03395000 0.03500000
v 0.05780000 0.03395000 0.03000000
v 0.05780000 0.03395000 0.02100000
v 0.06540000 0.03395000 0.01600000
v 0.06533702 0.03395000 0.01613855
v 0.06490000 0.03395000 0.01550000
v 0.05740000 0.03395000 0.02070000
v 0.05770000 0.03395000 0.02100000
v 0.06490000 0.03395000 0.03550000
v 0.06049223 0.03664231 0.03517453
v 0.06536580 0.03395000 0.03481453
v 0.06540000 0.03395000 0.03450000
v 0.06578225 0.01005000 0.03349416
v 0.06586977 0.01005000 0.01764803
v 0.06374204 0.01005000 0.02100000
v 0.06365094 0.01005000 0.02135624
v 0.06225796 0.01005000 0.02100000
v 0.06340000 0.01005000 0.02162500
v 0.06225796 0.01005000 0.03000000
v 0.06234906 0.01005000 0.02964376
v 0.06374204 0.01005000 0.03000000
v 0.06260000 0.01005000 0.02937500
v 0.06234906 0.01005000 0.02135624
v 0.06260000 0.01005000 0.02162500
v 0.06260000 0.01005000 0.02205000
v 0.06340000 0.01005000 0.02205000
v 0.06365094 0.01005000 0.02964376
v 0.06340000 0.01005000 0.02937500
v 0.06340000 0.01005000 0.02895000
v 0.06260000 0.01005000 0.02895000
v 0.06270000 0.01005000 0.02222320
v 0.06262679 0.01005000 0.02215000
v 0.06280000 0.01005000 0.02225000
v 0.06320000 0.01005000 0.02225000
v 0.06330000 0.01005000 0.02222320
v 0.06337321 0.01005000 0.02215000
v 0.06330000 0.01005000 0.02877679
v 0.06337321 0.01005000 0.02885000
v 0.06320000 0.01005000 0.02875000
v 0.06280000 0.01005000 0.02875000
v 0.06270000 0.01005000 0.02877679
v 0.06262679 0.01005000 0.02885000
v 0.06584841 0.03895000 0.01754567
v 0.06594434 0.03895000 0.03332214
v 0.06374204 0.03895000 0.02100000
v 0.06374204 0.03895000 0.03000000
v 0.06365094 0.03895000 0.02964376
v 0.06225796 0.03895000 0.03000000
v 0.06340000 0.03895000 0.02937500
v 0.06234906 0.03895000 0.02964376
v 0.06260000 0.03895000 0.02937500
v 0.06260000 0.03895000 0.02895000
v 0.06340000 0.03895000 0.02895000
v 0.06365094 0.03895000 0.02135624
v 0.06340000 0.03895000 0.02162500
v 0.06260000 0.03895000 0.02162500
v 0.06340000 0.03895000 0.02205000
v 0.06260000 0.03895000 0.02205000
v 0.06225796 0.03895000 0.02100000
v 0.06234906 0.03895000 0.02135624
v 0.06270000 0.03895000 0.02877679
v 0.06262679 0.03895000 0.02885000
v 0.06280000 0.03895000 0.02875000
v 0.06320000 0.03895000 0.02875000
v 0.06330000 0.03895000 0.02877679
v 0.06337321 0.03895000 0.02885000
v 0.06330000 0.03895000 0.02222320
v 0.06337321 0.03895000 0.02215000
v 0.06320000 0.03895000 0.02225000
v 0.06280000 0.03895000 0.02225000
v 0.06270000 0.03895000 0.02222320
v 0.06262679 0.03895000 0.02215000
v 0.05900917 0.03827143 0.02474203
v 0.05891693 0.01949701 0.01804985
v 0.05732921 0.03372139 0.03093709
v 0.05891659 0.02949705 0.03305038
v 0.05895929 0.01949699 0.03304855
v 0.05909877 0.01165000 0.02560446
v 0.05811384 0.02916631 0.01859656
v 0.06903779 -0.00138101 -0.00645085
v 0.05539983 0.00126708 -0.01070931
v 0.05895510 -0.00958754 0.01085760
v 0.05539917 -0.00531768 -0.01279774
v 0.06690000 0.00150376 -0.01492443
v 0.05540000 0.00150376 -0.01492443
v 0.05539974 -0.01211948 0.00655075
v 0.06402499 -0.01259093 0.00804796
v 0.06190000 0.00417289 0.00730943
v 0.06335062 -0.00448657 -0.00352731
v 0.06655380 0.00849992 0.00646348
v 0.05539996 0.01192349 -0.00208102
v 0.05540000 0.01183911 0.00896717
v 0.05540000 -0.00724387 0.01309100
v 0.05540000 -0.00704524 0.01307437
v 0.05540000 -0.00686890 0.01298148
v 0.05540000 0.01164011 0.00895591
v 0.05540000 0.01146132 0.00886781
v 0.05540000 -0.01357610 0.00560268
v 0.05540000 -0.01368535 0.00576938
v 0.05540000 0.00169411 -0.01486533
v 0.05892369 0.01026956 0.00231475
v 0.05540000 -0.00771521 -0.01281887
v 0.05540000 -0.00780012 -0.01263855
v 0.05891765 -0.00875875 -0.00416572
v 0.06568261 0.00986916 0.00683828
v 0.06565131 0.00496901 0.00020948
v 0.06690000 -0.01368535 0.00576938
v 0.06690000 -0.01357610 0.00560268
v 0.06240472 -0.00408979 0.00853032
v 0.06690000 -0.00686890 0.01298148
v 0.06690000 -0.00704524 0.01307437
v 0.06671055 -0.00787259 0.01153388
v 0.06570000 0.00112645 0.00751514
v 0.06690000 0.01183911 0.00896717
v 0.06690000 0.01164011 0.00895591
v 0.06690000 0.01340401 0.00725653
v 0.06177319 0.01466882 0.00371408
v 0.06675608 0.00994418 -0.00027203
v 0.06690000 0.00209551 -0.01228310
v 0.06667170 -0.00619897 -0.01194070
v 0.06690000 -0.00780784 -0.01243938
v 0.06690000 -0.00780012 -0.01263855
v 0.06690000 -0.00771521 -0.01281887
v 0.06339975 0.01301096 0.00191243
v 0.06672500 -0.01214453 0.00659843
v 0.06219171 -0.00317978 -0.01223289
v 0.06560753 -0.00000070 -0.01381281
v 0.06986841 -0.00361096 0.00356723
v 0.06810631 -0.00574304 0.00190139
v 0.06935142 0.00586846 0.00145391
v 0.06970899 0.00203161 0.01125520
v 0.06997975 -0.00787006 -0.00555842
v 0.06908409 -0.00295919 0.00150701
v 0.06916506 -0.00803512 0.00714713
v 0.07090000 0.01381360 -0.00031950
v 0.06774615 0.00034246 -0.00382826
v 0.06899357 0.00330270 0.00254677
v 0.06983617 0.00927697 -0.00055546
v 0.06786774 -0.00676656 -0.01046944
v 0.06921579 -0.01181636 -0.00768011
v 0.06886957 0.00588641 0.00882727
v 0.06790000 0.00055154 0.00824047
v 0.06894286 -0.00858009 0.00072045
v 0.06824782 -0.00702052 -0.00427324
v 0.06809101 0.00567572 -0.00660510
v 0.06717273 0.00940062 0.00522986
v 0.06745814 0.00554557 -0.00154447
v 0.06735070 0.00824667 -0.00185445
v 0.06777179 0.00304664 0.00717456
v 0.06690000 -0.00734352 0.00405192
v 0.06874259 -0.00045767 -0.00707633
v 0.06690000 0.00364008 -0.01357973
v 0.06966507 0.00706003 -0.00801708
v 0.06890000 0.00318486 -0.00731077
v 0.06910930 -0.00198393 0.01047478
v 0.04921129 0.00782501 -0.00369677
v 0.05301930 -0.00516635 -0.00147580
v 0.04934400 0.00112755 -0.02187836
v 0.05109336 0.02027129 -0.00026158
v 0.05115590 -0.01025273 -0.00379282
v 0.05029523 -0.01893170 0.00001896
v 0.04806667 -0.00016650 0.02035689
v 0.05310847 -0.00014219 0.01923502
v 0.05268571 -0.00205510 -0.02246636
v 0.02468274 0.02298441 0.00124965
v 0.02470000 0.02289793 -0.00216449
v 0.02470000 0.02255210 -0.00397654
v 0.02470000 0.02218482 -0.00606908
v 0.02470000 0.02151896 -0.00783226
v 0.02470000 0.02081102 -0.00979292
v 0.02470000 0.01983198 -0.01145000
v 0.02470000 0.01881744 -0.01322512
v 0.02470000 0.01754242 -0.01471984
v 0.02470000 0.01626346 -0.01626346
v 0.02470000 0.01471984 -0.01754242
v 0.02470000 0.01322512 -0.01881744
v 0.02470000 0.01145000 -0.01983198
v 0.02470000 0.00979292 -0.02081102
v 0.02469473 0.00655984 -0.02205295
v 0.02469400 0.00267194 -0.02285150
v 0.02469708 -0.00941472 -0.02097591
v 0.02465105 -0.01892916 -0.01410193
v 0.02471210 -0.02305857 -0.00048631
v 0.02468495 -0.02212235 0.00624983
v 0.02468717 -0.02052311 0.01030358
v 0.02468730 -0.01844038 0.01368665
v 0.02468744 -0.01580565 0.01666027
v 0.02468759 -0.01269772 0.01913538
v 0.02468774 -0.00920953 0.02103785
v 0.02468758 -0.00543536 0.02231438
v 0.02468547 -0.00153369 0.02292860
v 0.02468438 0.00238697 0.02286296
v 0.02468492 0.00621803 0.02213300
v 0.02468507 0.00994082 0.02073022
v 0.02468523 0.01336626 0.01870652
v 0.02468539 0.01639172 0.01612240
v 0.02468555 0.01892652 0.01305516
v 0.02468863 0.02166897 0.00793529
v 0.05327505 0.02289010 0.00221015
v 0.05038850 0.01446271 0.01290362
v 0.05308761 0.01385633 0.02080546
v 0.05358853 -0.01479099 -0.01442989
v 0.05199903 0.01527299 -0.01707241
v 0.05470164 0.00942325 0.01504947
v 0.05250984 -0.02302374 -0.00006833
v 0.05327448 -0.00287348 -0.02313947
v 0.05440000 0.02280822 -0.00217990
v 0.05372595 0.01365208 -0.01207113
v 0.05415827 0.00134299 0.00947592
v 0.05513168 -0.00564345 -0.01400017
v 0.05526777 -0.01481437 0.00123610
v 0.05407668 0.00737789 -0.00881908
v 0.05295983 0.00794848 0.00874061
v 0.05155812 -0.00569987 0.01009859
v 0.05241948 -0.00510772 -0.01035099
v 0.05287471 -0.00043872 -0.01627071
v 0.05501731 0.00273220 -0.00895106
v 0.05376859 -0.01316563 0.01156284
v 0.05462721 0.01131274 -0.00969435
v 0.05505182 -0.00963444 -0.00937118
v 0.05459750 0.00537236 0.00123149
v 0.05450245 -0.00524888 0.00485272
v 0.05453254 -0.00107750 -0.00609113
v 0.05419023 0.00950758 0.00143319
v 0.05540000 -0.00678902 -0.00882185
v 0.05524762 0.00056527 -0.01496193
v 0.05540000 0.01242558 0.00597427
v 0.05520539 -0.00400926 0.01402122
v 0.05540000 -0.00948934 -0.01022991
v 0.05388442 0.01405913 0.00074535
v 0.05501667 0.00381423 -0.00289702
v 0.05503925 -0.00244280 0.00421101
v 0.05355000 -0.00302076 -0.00271663
v 0.02091695 -0.01849043 -0.00613788
v 0.02043508 0.00787039 0.01902758
v 0.01956001 0.02043289 -0.00601581
v 0.02069256 0.01148623 -0.01403177
v 0.01893480 0.02006307 -0.01137789
v 0.02166236 0.02014509 0.00331025
v 0.02080089 0.01795496 0.01161312
v 0.02124820 -0.01400153 -0.01509105
v 0.01953658 -0.01537259 -0.01357702
v 0.02106561 -0.01722953 -0.01209042
v 0.02139461 -0.01816330 0.01129659
v 0.02201475 -0.01672396 0.01228151
v 0.02133871 -0.01441168 0.01457125
v 0.02141862 0.01442844 0.01451004
v 0.02284377 0.01751786 -0.01202655
v 0.02027773 0.01684201 -0.01058120
v 0.02150983 0.01410072 -0.01485967
v 0.02265882 -0.00170970 0.01618064
v 0.02286667 -0.00193111 0.01349167
v 0.02235116 -0.00420269 0.01587960
v 0.02582505 -0.01224811 0.01733025
v 0.02372969 -0.01016816 0.01711747
v 0.02268485 -0.01148046 -0.00999918
v 0.02209924 -0.00959749 -0.01782309
v 0.02368868 -0.01272514 -0.01799464
v 0.02311615 -0.01132639 -0.01631729
v 0.02266875 0.01278957 -0.00546942
v 0.02274117 0.01677106 -0.00459201
v 0.02362376 0.02168021 -0.00279815
v 0.02133999 0.00913018 -0.01898179
v 0.02205373 0.01381848 -0.01880726
v 0.02365137 0.01201461 -0.01623749
v 0.02320262 0.01053487 -0.01718271
v 0.02439003 0.00050034 -0.02357875
v 0.02356566 -0.01154446 -0.01969061
v 0.02154607 -0.02081963 -0.01105707
v 0.02129355 -0.02289557 -0.00422876
v 0.02155885 0.02317792 -0.00480692
v 0.02124538 0.01950634 0.01279682
v 0.02362208 0.01238083 0.01888562
v 0.02302334 0.01194242 0.01950708
v 0.01962148 0.00504456 0.02304495
v 0.01993386 -0.00546451 0.02292488
v 0.02460000 -0.00786646 0.02161293
v 0.02322789 -0.01194836 0.01908960
v 0.01955618 -0.02124012 0.01097847
v 0.02460000 -0.02265058 0.00399391
v 0.02261167 0.01283980 0.01728840
v 0.02371141 0.01041340 0.01696924
v 0.02162812 -0.01465943 0.01740914
v 0.01788665 -0.02423424 -0.00234756
v 0.02070000 -0.01334184 -0.01635253
v 0.02144797 0.01094514 0.01516694
v 0.02282134 -0.01924554 0.00365207
v 0.01977404 -0.02084495 0.00656684
v 0.02132010 -0.02262767 -0.00178871
v 0.02339608 -0.00644225 -0.00304172
v 0.02322751 0.00591020 -0.01157694
v 0.02341429 0.00780952 -0.00080909
v 0.02342283 -0.00334179 0.00769694
v 0.01925688 0.01683654 -0.01378744
v 0.01919959 0.01209963 0.01807399
v 0.01924570 -0.01656040 0.00882938
v 0.02049464 -0.01492477 -0.01058201
v 0.01926060 -0.00463597 -0.01813664
v 0.01956736 0.00741475 -0.01803735
v 0.01739835 0.01479377 0.01797105
v 0.01806383 -0.00324837 0.02320506
v 0.01815605 -0.01371231 0.01898353
v 0.01895247 -0.01970692 -0.01113432
v 0.01805407 -0.01785666 0.01448325
v 0.01847601 0.01616787 0.01087094
v 0.01922386 0.01714635 0.01627892
v 0.01799233 -0.01831003 0.00091882
v 0.01887094 -0.01584661 0.01256342
v 0.01750000 -0.01666237 -0.01354514
v 0.02060687 -0.01588107 -0.01769883
v 0.01749864 -0.01736675 -0.01418637
v 0.01940834 0.02260535 0.00709188
v 0.01832094 -0.01234177 -0.01928169
v 0.01763276 -0.01261709 0.01441459
v 0.01534205 -0.01395929 -0.00876203
v 0.01750000 0.01302345 -0.01364569
v 0.01759890 0.01519959 -0.01138564
v 0.01751352 0.01512505 -0.01782532
v 0.01740187 0.01622811 0.01346549
v 0.01945698 0.01903720 0.00739994
v 0.01860812 0.01339270 0.00997130
v 0.02014156 -0.00888502 0.02153632
v 0.02059438 -0.01256332 0.01213142
v 0.02918069 0.01159068 0.01751160
v 0.02502767 0.01276742 -0.01817643
v 0.02875927 0.01070993 -0.01780221
v 0.02470000 -0.01159068 -0.01751160
f 3 6 4
f 5 6 3
f 29 7 8
f 29 8 23
f 22 5 7
f 22 7 29
f 23 8 77
f 5 9 10
f 11 12 10
f 10 12 13
f 10 13 14
f 14 13 15
f 15 13 138
f 10 9 16
f 10 16 11
f 145 15 138
f 150 18 17
f 17 18 19
f 17 19 20
f 32 20 21
f 21 20 19
f 20 32 33
f 33 6 20
f 24 31 25
f 153 26 27
f 27 26 24
f 27 24 25
f 31 24 28
f 28 24 154
f 154 30 28
f 33 29 23
f 31 28 30
f 33 23 6
f 30 29 33
f 151 31 33
f 30 33 31
f 151 33 32
f 5 35 9
f 34 22 35
f 35 29 30
f 35 22 29
f 5 34 35
f 68 5 10
f 38 39 40
f 57 41 39
f 39 41 42
f 39 42 43
f 44 45 46
f 46 45 47
f 46 47 48
f 48 47 49
f 37 40 36
f 36 40 39
f 36 39 44
f 44 39 43
f 44 43 45
f 44 50 36
f 36 50 51
f 36 51 52
f 47 53 49
f 49 53 54
f 49 54 55
f 55 54 56
f 55 56 136
f 111 58 14
f 14 58 38
f 14 38 40
f 14 40 10
f 10 40 37
f 10 37 68
f 68 37 59
f 60 6 65
f 60 64 61
f 64 60 65
f 61 62 60
f 60 62 63
f 70 65 6
f 70 6 68
f 5 68 6
f 52 51 69
f 37 36 59
f 59 36 52
f 52 68 59
f 52 69 67
f 68 52 67
f 67 70 68
f 65 70 67
f 64 67 116
f 67 64 65
f 20 6 60
f 73 112 17
f 60 63 20
f 20 63 71
f 20 71 17
f 17 71 72
f 17 72 73
f 71 63 62
f 71 62 74
f 74 62 61
f 74 61 64
f 74 117 71
f 71 117 75
f 71 75 72
f 73 72 76
f 76 72 75
f 76 75 115
f 77 1 6
f 6 1 4
f 3 1 2
f 1 3 4
f 77 78 79
f 79 78 80
f 79 80 81
f 81 80 82
f 81 82 83
f 83 82 84
f 83 84 85
f 85 84 86
f 87 8 88
f 88 8 89
f 89 8 90
f 7 5 91
f 77 8 92
f 92 8 93
f 93 8 87
f 94 2 95
f 95 2 96
f 94 5 3
f 94 3 2
f 90 8 7
f 90 7 97
f 97 7 91
f 81 1 79
f 79 1 77
f 81 83 1
f 1 83 85
f 1 85 2
f 2 85 98
f 2 98 96
f 99 5 111
f 111 5 94
f 85 86 98
f 98 86 100
f 98 100 96
f 96 100 101
f 96 101 95
f 95 101 102
f 95 102 94
f 94 102 111
f 5 99 91
f 91 99 103
f 91 103 97
f 97 103 104
f 97 104 90
f 90 104 105
f 90 105 89
f 89 105 106
f 89 106 88
f 88 106 107
f 88 107 87
f 87 107 108
f 87 108 93
f 93 108 109
f 93 109 92
f 92 109 110
f 78 77 110
f 110 77 92
f 111 113 134
f 66 114 67
f 67 114 116
f 115 117 116
f 58 111 134
f 124 136 119
f 119 118 120
f 120 121 119
f 119 121 122
f 119 122 123
f 124 119 123
f 126 125 127
f 126 127 128
f 69 129 125
f 125 129 130
f 125 130 127
f 69 125 136
f 67 69 136
f 133 76 131
f 82 80 112
f 112 80 78
f 110 17 78
f 78 17 112
f 111 14 99
f 14 15 99
f 99 15 145
f 99 145 103
f 103 145 104
f 100 112 101
f 101 112 113
f 101 113 102
f 102 113 111
f 82 112 84
f 84 112 86
f 86 112 100
f 109 150 110
f 110 150 17
f 107 150 108
f 108 150 109
f 104 145 143
f 104 143 105
f 105 143 106
f 106 143 107
f 107 143 150
f 112 132 134
f 53 47 118
f 119 136 56
f 119 56 118
f 118 56 54
f 118 54 53
f 48 49 126
f 126 49 55
f 126 55 125
f 125 55 136
f 41 57 124
f 124 57 135
f 135 57 134
f 134 57 58
f 57 39 58
f 58 39 38
f 133 132 76
f 112 73 132
f 73 76 132
f 116 114 115
f 135 133 115
f 120 118 47
f 45 122 121
f 45 121 47
f 47 121 120
f 41 124 123
f 41 123 42
f 42 123 122
f 42 122 43
f 43 122 45
f 50 130 129
f 50 129 51
f 51 129 69
f 126 128 48
f 48 128 127
f 48 127 46
f 46 127 130
f 46 130 44
f 44 130 50
f 75 117 115
f 64 116 74
f 74 116 117
f 115 131 76
f 133 135 132
f 112 134 113
f 134 132 135
f 135 136 124
f 67 136 66
f 136 135 66
f 133 131 115
f 135 137 66
f 66 137 115
f 115 114 66
f 115 137 135
f 16 138 12
f 16 9 138
f 148 21 18
f 18 150 148
f 21 19 18
f 26 153 140
f 140 153 152
f 140 152 146
f 12 11 16
f 138 13 12
f 140 154 26
f 144 150 143
f 138 9 145
f 9 144 145
f 9 139 146
f 9 141 144
f 146 141 9
f 144 141 142
f 144 143 145
f 139 140 146
f 144 142 150
f 32 21 148
f 149 141 146
f 149 148 150
f 149 147 141
f 141 147 142
f 146 31 148
f 142 147 150
f 147 149 150
f 146 148 149
f 151 32 148
f 148 31 151
f 31 146 152
f 153 27 25
f 153 25 152
f 152 25 31
f 9 35 139
f 35 30 139
f 154 140 139
f 26 154 24
f 30 154 139
f 6 23 77
f 22 34 5
f 169 166 162
f 175 159 162
f 169 162 159
f 161 157 159
f 161 159 156
f 156 159 175
f 175 162 167
f 168 159 160
f 160 159 157
f 174 175 167
f 174 167 164
f 164 167 172
f 174 164 157
f 167 175 174
f 165 163 160
f 157 165 160
f 160 163 156
f 168 160 156
f 168 156 169
f 175 167 162
f 175 162 169
f 175 169 156
f 163 165 174
f 164 174 165
f 164 167 174
f 166 169 173
f 167 170 166
f 172 171 164
f 164 171 172
f 165 157 164
f 168 169 159
f 168 159 169
f 168 169 159
f 171 164 172
f 173 162 167
f 167 171 172
f 171 167 164
f 173 167 166
f 161 156 163
f 161 163 174
f 163 174 157
f 163 161 174
f 163 157 161
f 163 157 165
f 165 157 163
f 173 169 162
f 160 157 165
f 165 157 160
f 167 162 158
f 158 162 166
f 155 160 157
f 155 157 160
f 158 166 170
f 158 170 167
f 251 209 193
f 183 177 186
f 202 204 201
f 181 180 182
f 182 186 256
f 186 203 183
f 183 178 184
f 183 184 185
f 185 186 183
f 187 188 179
f 253 179 188
f 253 188 189
f 179 210 187
f 187 210 190
f 187 190 208
f 208 190 191
f 191 190 193
f 192 193 190
f 194 195 196
f 196 195 197
f 197 192 196
f 194 196 198
f 199 198 201
f 199 201 200
f 200 201 252
f 186 180 203
f 203 180 181
f 203 181 219
f 203 219 202
f 191 193 205
f 191 205 206
f 206 205 207
f 206 207 208
f 208 207 209
f 185 184 211
f 185 211 212
f 212 211 213
f 212 213 214
f 214 213 215
f 181 182 216
f 181 216 217
f 217 216 218
f 217 218 219
f 219 218 256
f 219 256 237
f 251 193 192
f 197 195 220
f 197 220 221
f 221 220 222
f 221 222 257
f 220 195 194
f 220 194 222
f 199 224 198
f 198 224 225
f 257 222 223
f 223 222 194
f 223 194 198
f 223 198 225
f 223 225 226
f 246 227 250
f 208 209 210
f 191 206 208
f 208 210 187
f 232 228 210
f 210 228 229
f 210 229 187
f 187 229 230
f 187 230 188
f 227 231 250
f 250 231 232
f 211 184 178
f 211 178 213
f 233 236 215
f 215 213 234
f 234 213 178
f 234 178 179
f 235 179 236
f 219 237 202
f 181 217 219
f 237 238 202
f 237 176 226
f 177 183 176
f 239 240 241
f 253 235 242
f 253 189 241
f 241 189 239
f 243 244 245
f 246 253 241
f 246 241 243
f 246 243 245
f 252 248 200
f 200 248 247
f 200 247 249
f 251 196 192
f 196 251 223
f 196 223 198
f 198 223 201
f 201 223 226
f 201 226 176
f 176 202 201
f 202 237 203
f 203 237 183
f 176 183 237
f 234 179 178
f 234 178 233
f 233 178 183
f 233 183 179
f 233 179 234
f 192 250 251
f 209 192 210
f 210 192 190
f 209 250 192
f 210 179 250
f 186 215 183
f 183 215 236
f 237 202 176
f 223 251 257
f 232 210 250
f 236 234 235
f 215 234 233
f 236 233 234
f 255 237 204
f 235 253 179
f 179 253 246
f 252 226 248
f 252 204 226
f 226 204 237
f 251 192 257
f 241 232 243
f 255 204 254
f 254 237 255
f 237 254 238
f 238 254 204
f 238 204 202
f 179 253 242
f 179 242 234
f 234 242 235
f 243 232 231
f 243 231 244
f 244 231 227
f 244 227 245
f 245 227 246
f 232 241 228
f 228 241 240
f 228 240 229
f 229 240 239
f 229 239 230
f 230 239 189
f 230 189 188
f 256 176 237
f 199 200 249
f 199 249 224
f 224 249 247
f 224 247 225
f 225 247 248
f 225 248 226
f 252 201 204
f 257 192 197
f 221 257 197
f 185 212 214
f 214 215 185
f 185 215 186
f 207 205 209
f 209 205 193
f 186 177 256
f 182 256 216
f 176 256 177
f 256 218 216
f 182 177 186
f 177 180 186
f 177 182 180
f 251 250 209
f 246 250 179
f 236 179 183
f 267 259 273
f 273 259 267
f 279 260 270
f 276 259 277
f 271 276 277
f 271 277 276
f 261 264 276
f 261 276 265
f 276 261 265
f 269 263 266
f 269 266 272
f 272 263 269
f 259 272 267
f 267 272 259
f 279 270 258
f 272 277 259
f 277 268 276
f 262 261 276
f 266 263 258
f 277 272 266
f 270 260 262
f 258 269 266
f 266 269 273
f 267 266 273
f 267 271 268
f 268 271 262
f 271 267 273
f 269 258 270
f 279 262 260
f 266 267 277
f 277 267 268
f 266 272 273
f 266 273 272
f 279 275 274
f 275 279 261
f 262 275 261
f 279 274 262
f 268 262 276
f 279 278 270
f 269 272 273
f 276 262 271
f 270 263 269
f 258 278 279
f 276 277 259
f 279 274 275
f 279 275 261
f 270 262 274
f 269 263 272
f 273 272 259
f 273 259 277
f 273 277 271
f 271 277 276
f 262 276 264
f 262 264 261
f 262 261 275
f 270 274 279
f 270 278 258
f 270 258 263
f 280 299 281
f 281 299 295
f 283 284 378
f 378 284 295
f 285 286 281
f 287 284 288
f 288 284 283
f 282 289 290
f 282 290 283
f 283 290 291
f 283 291 288
f 288 291 292
f 288 292 293
f 287 285 284
f 284 285 281
f 284 281 295
f 295 294 296
f 299 298 373
f 373 298 310
f 300 375 301
f 302 298 303
f 303 298 299
f 305 304 306
f 305 306 299
f 299 280 303
f 303 280 307
f 303 307 308
f 302 300 298
f 298 300 301
f 298 301 310
f 310 309 311
f 282 283 313
f 297 314 296
f 296 314 295
f 287 288 303
f 303 288 302
f 293 292 300
f 300 292 375
f 288 293 302
f 302 293 300
f 315 316 317
f 317 316 318
f 319 320 321
f 321 320 322
f 323 317 324
f 324 317 318
f 324 318 325
f 325 318 326
f 317 295 314
f 314 315 317
f 327 321 328
f 328 321 322
f 328 322 329
f 329 322 330
f 331 332 333
f 333 332 325
f 333 325 334
f 334 325 326
f 334 326 335
f 335 326 336
f 283 319 321
f 283 321 313
f 337 338 339
f 339 338 329
f 339 329 340
f 340 329 330
f 340 330 341
f 341 330 342
f 305 299 343
f 312 344 311
f 311 344 310
f 345 343 299
f 346 347 348
f 348 347 349
f 348 310 344
f 350 348 351
f 351 348 349
f 351 349 352
f 352 349 353
f 344 346 348
f 354 345 355
f 355 345 356
f 355 356 357
f 357 356 358
f 299 373 359
f 299 359 345
f 345 359 360
f 345 360 356
f 361 362 363
f 363 362 352
f 363 352 364
f 364 352 353
f 364 353 365
f 365 353 366
f 367 368 369
f 369 368 357
f 369 357 370
f 370 357 358
f 370 358 371
f 371 358 372
f 285 287 308
f 308 287 303
f 286 285 307
f 307 285 308
f 299 306 295
f 295 306 294
f 306 304 294
f 294 304 296
f 296 304 297
f 297 304 305
f 297 305 314
f 314 305 343
f 315 314 345
f 345 314 343
f 355 318 316
f 355 316 354
f 354 316 315
f 354 315 345
f 326 318 357
f 357 318 355
f 369 334 335
f 369 335 367
f 367 335 336
f 367 336 368
f 368 336 326
f 368 326 357
f 333 334 370
f 370 334 369
f 358 325 332
f 358 332 372
f 372 332 331
f 372 331 371
f 371 331 333
f 371 333 370
f 324 325 356
f 356 325 358
f 359 317 323
f 359 323 360
f 360 323 324
f 360 324 356
f 295 317 373
f 373 317 359
f 378 295 373
f 283 378 310
f 310 378 373
f 319 283 348
f 348 283 310
f 351 322 320
f 351 320 350
f 350 320 319
f 350 319 348
f 330 322 352
f 352 322 351
f 363 340 341
f 363 341 361
f 361 341 342
f 361 342 362
f 362 342 330
f 362 330 352
f 339 340 364
f 364 340 363
f 353 329 338
f 353 338 366
f 366 338 337
f 366 337 365
f 365 337 339
f 365 339 364
f 328 329 349
f 349 329 353
f 346 321 327
f 346 327 347
f 347 327 328
f 347 328 349
f 313 321 344
f 344 321 346
f 313 344 312
f 282 313 312
f 282 312 289
f 289 312 311
f 311 309 289
f 289 309 290
f 309 310 290
f 290 310 291
f 310 301 291
f 377 376 292
f 375 376 301
f 301 376 291
f 292 376 375
f 291 377 292
f 376 377 291
f 281 374 280
f 280 379 307
f 307 379 286
f 280 374 379
f 286 374 281
f 379 374 286
f 380 399 381
f 381 399 395
f 383 384 478
f 478 384 395
f 385 386 381
f 387 384 388
f 388 384 383
f 382 389 390
f 382 390 383
f 383 390 391
f 383 391 388
f 388 391 392
f 388 392 393
f 387 385 384
f 384 385 381
f 384 381 395
f 395 394 396
f 399 398 473
f 473 398 410
f 400 475 401
f 402 398 403
f 403 398 399
f 405 404 406
f 405 406 399
f 399 380 403
f 403 380 407
f 403 407 408
f 402 400 398
f 398 400 401
f 398 401 410
f 410 409 411
f 382 383 413
f 397 414 396
f 396 414 395
f 387 388 403
f 403 388 402
f 393 392 400
f 400 392 475
f 388 393 402
f 402 393 400
f 415 416 417
f 417 416 418
f 419 420 421
f 421 420 422
f 423 417 424
f 424 417 418
f 424 418 425
f 425 418 426
f 417 395 414
f 414 415 417
f 427 421 428
f 428 421 422
f 428 422 429
f 429 422 430
f 431 432 433
f 433 432 425
f 433 425 434
f 434 425 426
f 434 426 435
f 435 426 436
f 383 419 421
f 383 421 413
f 437 438 439
f 439 438 429
f 439 429 440
f 440 429 430
f 440 430 441
f 441 430 442
f 405 399 443
f 412 444 411
f 411 444 410
f 445 443 399
f 446 447 448
f 448 447 449
f 448 410 444
f 450 448 451
f 451 448 449
f 451 449 452
f 452 449 453
f 444 446 448
f 454 445 455
f 455 445 456
f 455 456 457
f 457 456 458
f 399 473 459
f 399 459 445
f 445 459 460
f 445 460 456
f 461 462 463
f 463 462 452
f 463 452 464
f 464 452 453
f 464 453 465
f 465 453 466
f 467 468 469
f 469 468 457
f 469 457 470
f 470 457 458
f 470 458 471
f 471 458 472
f 385 387 408
f 408 387 403
f 386 385 407
f 407 385 408
f 399 406 395
f 395 406 394
f 406 404 394
f 394 404 396
f 396 404 397
f 397 404 405
f 397 405 414
f 414 405 443
f 415 414 445
f 445 414 443
f 455 418 416
f 455 416 454
f 454 416 415
f 454 415 445
f 426 418 457
f 457 418 455
f 469 434 435
f 469 435 467
f 467 435 436
f 467 436 468
f 468 436 426
f 468 426 457
f 433 434 470
f 470 434 469
f 458 425 432
f 458 432 472
f 472 432 431
f 472 431 471
f 471 431 433
f 471 433 470
f 424 425 456
f 456 425 458
f 459 417 423
f 459 423 460
f 460 423 424
f 460 424 456
f 395 417 473
f 473 417 459
f 478 395 473
f 383 478 410
f 410 478 473
f 419 383 448
f 448 383 410
f 451 422 420
f 451 420 450
f 450 420 419
f 450 419 448
f 430 422 452
f 452 422 451
f 463 440 441
f 463 441 461
f 461 441 442
f 461 442 462
f 462 442 430
f 462 430 452
f 439 440 464
f 464 440 463
f 453 429 438
f 453 438 466
f 466 438 437
f 466 437 465
f 465 437 439
f 465 439 464
f 428 429 449
f 449 429 453
f 446 421 427
f 446 427 447
f 447 427 428
f 447 428 449
f 413 421 444
f 444 421 446
f 413 444 412
f 382 413 412
f 382 412 389
f 389 412 411
f 411 409 389
f 389 409 390
f 409 410 390
f 390 410 391
f 410 401 391
f 477 476 392
f 475 476 401
f 401 476 391
f 392 476 475
f 391 477 392
f 476 477 391
f 381 474 380
f 380 479 407
f 407 479 386
f 380 474 479
f 386 474 381
f 479 474 386
f 526 483 481
f 509 486 482
f 526 520 483
f 484 527 485
f 485 527 526
f 482 486 487
f 506 489 509
f 490 509 512
f 519 481 491
f 519 491 506
f 517 501 492
f 493 494 495
f 517 491 501
f 496 492 497
f 497 492 501
f 497 501 509
f 509 482 495
f 495 482 493
f 486 498 499
f 481 500 485
f 483 504 481
f 483 502 503
f 503 504 483
f 481 485 526
f 481 501 491
f 509 504 486
f 497 509 505
f 505 509 490
f 506 529 489
f 525 486 504
f 506 501 481
f 506 481 489
f 489 481 504
f 489 504 509
f 513 509 488
f 488 509 501
f 488 501 506
f 507 508 525
f 525 529 509
f 510 511 512
f 512 513 490
f 490 513 506
f 514 515 505
f 505 516 514
f 506 518 530
f 527 519 506
f 484 519 527
f 506 480 527
f 521 522 520
f 520 522 523
f 489 525 504
f 525 489 529
f 513 509 506
f 529 506 509
f 509 513 512
f 489 504 520
f 489 520 480
f 489 480 506
f 505 501 517
f 517 501 524
f 501 505 490
f 501 518 524
f 487 509 482
f 525 509 487
f 526 527 480
f 526 480 520
f 486 525 508
f 486 508 498
f 498 508 507
f 498 507 499
f 499 507 525
f 499 525 486
f 486 525 487
f 482 512 493
f 493 512 511
f 493 511 494
f 494 511 510
f 494 510 495
f 495 510 512
f 495 512 509
f 509 512 482
f 481 519 500
f 500 519 484
f 500 484 485
f 483 520 523
f 483 523 502
f 502 523 522
f 502 522 503
f 503 522 521
f 503 521 504
f 504 521 520
f 491 517 518
f 491 518 506
f 497 505 515
f 497 515 496
f 496 515 514
f 496 514 492
f 492 514 516
f 492 516 517
f 524 518 517
f 505 517 516
f 529 509 528
f 528 509 529
f 490 530 501
f 501 530 518
f 490 506 530
f 509 513 506
f 488 506 513
f 555 534 533
f 541 537 546
f 538 548 535
f 535 548 538
f 538 546 537
f 540 539 532
f 551 552 553
f 532 539 551
f 546 538 548
f 549 531 541
f 550 543 534
f 532 539 540
f 551 545 553
f 553 545 548
f 553 548 538
f 549 542 531
f 531 542 555
f 555 542 537
f 543 544 532
f 539 544 533
f 532 544 539
f 533 543 550
f 533 536 539
f 539 536 551
f 537 533 555
f 555 533 534
f 545 551 536
f 545 536 547
f 547 536 537
f 546 537 541
f 541 537 549
f 553 552 551
f 551 536 533
f 548 538 546
f 546 538 537
f 547 537 538
f 547 538 548
f 550 534 543
f 550 543 533
f 547 538 537
f 545 551 554
f 554 551 553
f 545 554 553
f 545 553 548
f 547 537 545
f 545 537 536
f 545 536 551
f 548 553 538
f 548 538 547
f 544 532 551
f 543 532 544
f 544 551 533
f 541 531 542
f 542 555 537
f 549 541 542
f 542 531 555
f 549 537 541
f 555 533 537
f 616 564 558
f 558 564 606
f 565 566 567
f 567 566 568
f 567 568 569
f 569 568 570
f 569 570 571
f 571 570 572
f 571 572 573
f 573 572 574
f 573 574 575
f 575 574 576
f 575 576 577
f 577 576 578
f 577 578 579
f 562 604 563
f 584 583 605
f 598 601 565
f 597 601 598
f 596 601 597
f 595 601 596
f 594 601 595
f 593 601 594
f 592 601 593
f 591 563 601
f 591 601 592
f 563 591 590
f 563 590 618
f 618 590 589
f 618 589 588
f 618 588 587
f 618 587 586
f 618 586 585
f 618 585 584
f 618 584 605
f 559 601 599
f 559 565 601
f 582 605 583
f 582 602 605
f 581 602 582
f 667 606 581
f 581 606 602
f 580 558 667
f 667 558 606
f 566 565 559
f 566 559 568
f 558 580 579
f 558 579 603
f 603 579 578
f 603 578 576
f 603 576 574
f 603 574 572
f 603 572 570
f 603 570 568
f 603 568 559
f 603 559 607
f 601 604 600
f 556 631 617
f 556 617 612
f 560 620 557
f 626 616 608
f 626 608 619
f 616 603 608
f 608 603 559
f 559 603 607
f 558 603 616
f 602 616 610
f 606 564 602
f 602 564 616
f 605 602 561
f 618 605 561
f 618 561 611
f 618 628 563
f 559 599 601
f 559 601 600
f 559 600 604
f 563 604 562
f 563 604 601
f 556 621 631
f 619 556 612
f 620 560 561
f 622 609 628
f 630 608 559
f 602 620 561
f 615 625 602
f 616 626 617
f 557 620 625
f 602 629 620
f 610 615 602
f 561 560 611
f 611 560 557
f 618 614 628
f 628 609 563
f 613 604 563
f 609 613 563
f 604 613 627
f 559 627 630
f 629 602 625
f 623 632 557
f 623 616 617
f 630 627 613
f 627 559 604
f 619 630 624
f 624 621 556
f 624 556 619
f 619 608 630
f 621 609 632
f 622 611 557
f 632 622 557
f 611 622 618
f 620 629 625
f 614 618 622
f 628 614 622
f 622 632 609
f 623 615 610
f 623 610 616
f 625 615 557
f 557 615 623
f 609 621 624
f 626 619 612
f 626 612 617
f 623 617 631
f 613 609 624
f 624 630 613
f 633 632 623
f 621 623 631
f 632 623 621
f 623 632 633
f 723 687 688
f 722 635 723
f 648 649 638
f 651 653 635
f 655 683 654
f 654 683 678
f 678 722 655
f 655 722 683
f 706 681 672
f 656 697 634
f 658 710 659
f 710 658 668
f 668 658 657
f 664 667 668
f 663 664 668
f 657 691 668
f 691 661 636
f 725 664 666
f 664 663 666
f 665 664 725
f 665 666 664
f 583 679 670
f 583 670 669
f 583 669 582
f 582 669 710
f 582 710 668
f 582 668 581
f 581 668 667
f 580 667 579
f 579 667 664
f 579 664 577
f 577 664 575
f 575 664 573
f 573 664 671
f 573 671 571
f 571 671 569
f 569 671 567
f 567 671 565
f 565 671 598
f 598 671 712
f 598 712 672
f 598 672 597
f 597 672 596
f 596 672 673
f 596 673 595
f 595 673 594
f 594 673 674
f 594 674 593
f 593 674 675
f 593 675 592
f 592 675 676
f 592 676 591
f 591 676 590
f 590 676 677
f 590 677 589
f 589 677 678
f 589 678 588
f 588 678 587
f 587 678 683
f 587 683 586
f 586 683 585
f 585 683 679
f 585 679 584
f 584 679 680
f 584 680 583
f 583 680 679
f 681 673 672
f 677 676 678
f 681 674 673
f 682 681 686
f 682 686 674
f 674 686 635
f 722 678 676
f 683 722 723
f 669 670 684
f 710 685 659
f 656 657 697
f 720 639 686
f 687 723 635
f 687 689 688
f 653 687 635
f 635 686 651
f 691 663 668
f 660 691 692
f 661 691 660
f 661 686 639
f 660 692 661
f 661 692 652
f 661 652 686
f 686 652 651
f 634 687 652
f 652 687 653
f 691 656 690
f 690 656 693
f 692 693 652
f 693 656 634
f 693 634 652
f 656 691 657
f 637 663 691
f 691 636 637
f 662 636 661
f 657 710 713
f 657 659 710
f 710 659 685
f 722 683 723
f 706 674 681
f 686 681 695
f 663 664 666
f 694 648 638
f 648 694 649
f 649 694 717
f 695 681 674
f 635 695 674
f 698 697 657
f 698 657 713
f 699 718 664
f 636 662 639
f 636 639 720
f 637 636 699
f 637 699 663
f 664 663 699
f 664 718 694
f 664 694 671
f 701 676 675
f 722 702 683
f 669 684 703
f 643 703 707
f 703 643 710
f 719 640 705
f 708 644 645
f 645 644 708
f 708 707 644
f 644 679 704
f 644 704 708
f 644 707 679
f 643 707 709
f 711 710 643
f 711 643 709
f 638 671 694
f 640 706 672
f 640 672 712
f 638 712 671
f 674 706 700
f 674 700 675
f 722 676 702
f 683 702 704
f 683 704 679
f 679 684 670
f 710 669 703
f 712 705 640
f 649 717 638
f 638 717 705
f 646 714 708
f 708 714 715
f 641 713 642
f 642 715 641
f 650 716 717
f 650 694 718
f 650 717 694
f 702 646 704
f 704 646 708
f 705 675 700
f 642 711 709
f 700 706 719
f 719 706 640
f 713 710 642
f 642 710 711
f 716 714 717
f 650 713 641
f 650 641 715
f 650 715 716
f 716 715 714
f 676 714 702
f 702 714 646
f 676 701 714
f 714 701 675
f 714 675 705
f 714 705 717
f 708 715 642
f 708 642 707
f 650 718 713
f 642 709 707
f 703 684 679
f 712 638 705
f 703 679 707
f 647 705 700
f 700 719 647
f 647 719 705
f 721 720 686
f 721 686 695
f 635 722 695
f 723 688 696
f 718 699 698
f 718 698 713
f 688 699 696
f 689 634 688
f 688 697 698
f 695 722 721
f 698 699 688
f 721 722 723
f 697 688 634
f 636 721 699
f 699 721 723
f 699 723 696
f 636 720 721
f 639 662 661
f 692 691 693
f 693 691 690
f 689 687 634
f 724 674 682
f 724 682 674
f 681 682 674
f 726 725 666
f 726 666 725
f 665 725 666
f 659 727 658
f 658 727 657
f 657 727 659
f 678 655 654
f 653 651 652

