# https://github.com/mikedh/trimesh
v 0.01380172 0.00860187 0.00350000
v 0.01442195 0.00625100 0.00385714
v 0.00287322 0.01477893 0.00360000
v 0.00780687 0.01290880 0.00300000
v 0.01183069 0.00972660 0.00415385
v -0.00237982 0.01506888 0.00393750
v -0.00000000 0.01635835 0.00357692
v 0.00156250 0.01584975 0.00300000
v -0.01136232 0.00987775 0.00385714
v -0.00727592 0.01321535 0.00300000
v -0.00598329 0.01375501 0.00450000
v -0.01423995 0.00547346 0.00366667
v -0.01414329 0.00844016 0.00300000
v -0.01407291 0.00812500 0.00450000
v -0.01294504 0.00927804 0.00450000
v -0.01455354 -0.00370415 0.00409091
v -0.01212170 -0.00950451 0.00321429
v -0.01427637 -0.00824247 0.00368182
v -0.01450754 -0.00657171 0.00450000
v -0.00287322 -0.01477893 0.00381818
v -0.00780687 -0.01290880 0.00300000
v -0.00892054 -0.01205919 0.00450000
v 0.00274015 -0.01474760 0.00337500
v 0.00108320 -0.01611663 0.00412500
v -0.00098049 -0.01618415 0.00300000
v -0.00156250 -0.01584975 0.00450000
v 0.00741874 -0.01316669 0.00420000
v 0.01449901 -0.00712024 0.00393750
v 0.01352564 -0.00894121 0.00300000
v 0.01198430 -0.00968729 0.00360000
v 0.01455641 0.00379832 0.00340317
v 0.01423554 -0.00490118 0.00318750
v 0.01498346 -0.00115195 0.00450244
v 0.00331275 -0.03125000 0.00300000
v -0.00011427 -0.01818561 0.00300000
v 0.00174789 -0.01862546 0.00300000
v -0.00476163 -0.02936177 0.00300000
v -0.00437982 -0.03100457 0.00300000
v -0.00173811 -0.01866094 0.00300000
v 0.00475205 -0.03051136 0.00300000
v -0.01158153 0.00499378 0.00300000
v -0.00032321 -0.01450622 0.00300000
v 0.00022789 -0.01589471 0.00300000
v 0.01158153 -0.00499378 0.00300000
v 0.01050833 -0.00520096 0.00300000
v -0.00047321 -0.01153397 0.00300000
v 0.01173153 -0.00796603 0.00300000
v 0.01365128 -0.00814471 0.00300000
v 0.01286619 -0.00638402 0.00300000
v 0.00965645 -0.00707294 0.00300000
v -0.00129904 -0.01375000 0.00300000
v 0.00145044 -0.01370348 0.00300000
v -0.00150622 -0.01267679 0.00300000
v 0.00103301 -0.01185718 0.00300000
v -0.00506797 0.00566139 0.00300000
v -0.01095357 0.00817373 0.00300000
v -0.01286619 0.00638402 0.00300000
v -0.00980789 0.00579652 0.00300000
v 0.00047321 0.01153397 0.00300000
v -0.00160188 0.01242706 0.00300000
v -0.00075000 0.01429904 0.00300000
v 0.00103301 0.01414282 0.00300000
v -0.00000000 0.01450000 0.00300000
v -0.00752136 0.00107925 0.00300000
v -0.00645543 -0.00400789 0.00300000
v -0.00236892 -0.00721969 0.00300000
v 0.00757772 0.00437500 0.00300000
v 0.00752136 -0.00107925 0.00300000
v 0.00419041 -0.00655021 0.00300000
v 0.00645543 0.00400789 0.00300000
v 0.00236892 0.00721969 0.00300000
v -0.00218234 0.00724047 0.00075000
v -0.01055485 -0.00504956 0.00300000
v -0.01069375 -0.00097789 0.00300000
v -0.01270877 -0.00579652 0.00300000
v -0.01255737 -0.00725000 0.00300000
v -0.01158153 -0.00800622 0.00300000
v -0.01050833 -0.00779904 0.00300000
v -0.00975211 -0.00682320 0.00300000
v -0.01508278 0.00030654 0.00300000
v 0.00150622 0.01267679 0.00300000
v 0.01286619 0.00661598 0.00300000
v 0.01200833 0.00779904 0.00300000
v 0.01035396 0.00783445 0.00300000
v 0.00979230 0.00602680 0.00300000
v 0.01093513 0.00499378 0.00300000
v 0.00875000 0.03325000 0.00600000
v 0.00891747 0.03325000 0.00662500
v 0.00937500 0.03325000 0.00708253
v 0.00891907 0.02325000 0.00691733
v 0.01067335 0.03325000 0.00716627
v 0.01111204 0.02325000 0.00675364
v 0.01125000 0.03325000 0.00600000
v 0.01067335 0.03325000 0.00483373
v 0.01000000 0.02325000 0.00475000
v 0.00913916 0.02325000 0.00504765
v 0.00908963 0.03325000 0.00508963
v -0.01116627 0.03325000 0.00667334
v -0.01108093 0.02325000 0.00691733
v -0.00932666 0.03325000 0.00716627
v -0.00888796 0.02325000 0.00675364
v -0.00875000 0.03325000 0.00600000
v -0.00932666 0.03325000 0.00483374
v -0.00904765 0.02325000 0.00513915
v -0.01091037 0.03325000 0.00508963
v -0.01058624 0.02325000 0.00479131
v -0.01768574 -0.01314068 0.01475000
v -0.01780236 -0.00278458 0.01475000
v -0.02114470 -0.01250129 0.01475000
v -0.02123460 -0.00364245 0.01475000
v -0.00730232 0.02423061 0.00450000
v 0.01500000 0.02175000 0.00450000
v 0.01066172 0.02334109 0.00461519
v 0.01500000 -0.02475000 0.00450000
v 0.00783496 0.02331149 0.00450000
v 0.01466506 0.02280020 0.00450000
v -0.00775000 0.02345096 0.00450000
v 0.00606974 0.03017274 0.00450000
v -0.00640965 0.03003083 0.00450000
v 0.00682388 0.02773677 0.00450000
v 0.01466506 -0.02600000 0.00450000
v 0.01346145 -0.02707687 0.00450000
v -0.01762920 0.02175000 0.00450000
v -0.00850000 0.02325000 0.00450000
v -0.01691986 0.02315619 0.00450000
v -0.01607876 -0.02712124 0.00450000
v -0.01754114 -0.02555974 0.00450000
v -0.01739327 -0.02566075 0.00300000
v -0.01556115 -0.01186352 0.00269117
v -0.00576705 -0.01821292 0.00300000
v -0.00520240 -0.01912269 0.00300000
v -0.01081704 -0.02923612 0.00300136
v -0.00811015 -0.02935059 0.00300000
v 0.00070348 -0.01445043 -0.00000000
v 0.00129712 -0.01189920 -0.00000000
v -0.00075000 -0.01170096 -0.00000000
v -0.00167373 -0.01330476 -0.00000000
v 0.00157154 -0.01842865 -0.00000000
v 0.00483668 -0.03020867 -0.00000000
v 0.00370366 -0.03122690 -0.00000000
v -0.00331275 -0.03125000 -0.00000000
v -0.00475205 -0.03051136 -0.00000000
v -0.00469550 -0.02472932 -0.00000000
v -0.00139925 -0.01840092 -0.00000000
v 0.00160786 0.01288402 -0.00000000
v 0.00011598 0.01460785 -0.00000000
v -0.00146603 0.01347321 -0.00000000
v -0.00057294 0.01139812 -0.00000000
v 0.00419041 0.00655021 -0.00000000
v 0.00752136 0.00107925 -0.00000000
v 0.00645543 -0.00400789 -0.00000000
v -0.00312853 -0.00738567 -0.00000000
v -0.01095357 -0.00817373 -0.00000000
v -0.00975833 -0.00650000 -0.00000000
v -0.01035396 -0.00516555 -0.00000000
v -0.01229134 -0.00535718 -0.00000000
v -0.01276455 -0.00682321 -0.00000000
v -0.01095357 0.00482627 -0.00000000
v -0.00975211 0.00682320 -0.00000000
v -0.01078513 0.00796603 -0.00000000
v -0.01259278 0.00740437 -0.00000000
v -0.01255737 0.00575000 -0.00000000
v 0.01125833 0.00500000 -0.00000000
v 0.01223738 0.00533163 0.00128571
v 0.01276547 0.00682238 -0.00000183
v 0.01192618 0.00790090 -0.00004575
v 0.00958460 0.00619524 -0.00000000
v 0.01259278 -0.00740437 -0.00000000
v 0.01216270 -0.00516555 -0.00000000
v 0.00975211 -0.00682320 -0.00000000
v 0.01078513 -0.00796603 -0.00000000
v 0.00908370 -0.02967999 -0.00010688
v 0.00919617 -0.02958144 0.00300005
v 0.00792660 -0.02914463 0.00300000
v 0.00632476 -0.02631421 -0.00000000
v 0.00549340 -0.01848000 -0.00000000
v 0.00525833 -0.01885653 0.00300000
v 0.00624725 -0.01794357 0.00300000
v -0.01580393 -0.01060996 0.00138307
v -0.01173611 -0.01502494 -0.00002118
v -0.00553611 -0.01836288 -0.00000000
v -0.00671211 -0.02622842 -0.00000000
v -0.00789585 -0.02899793 -0.00000000
v -0.00930079 -0.02966475 -0.00012479
v -0.01477679 -0.02727568 0.00042735
v -0.01746703 0.02581648 0.00293528
v -0.02104290 0.03325000 0.00667897
v -0.02104290 -0.03925000 0.00667897
v -0.01726614 0.00825674 0.00282094
v -0.01435680 -0.03925000 0.00014500
v 0.01676294 -0.01125000 0.00920357
v 0.01918218 0.01125000 0.00814055
v 0.01648946 0.01125000 0.00894820
v 0.01280761 0.03325000 -0.00000000
v 0.00760554 0.03030193 -0.00007019
v -0.01420261 0.03325000 0.00008960
v -0.00840164 0.03016333 -0.00011323
v -0.01432112 0.02749374 0.00023067
v 0.01444666 0.02743896 0.00037125
v 0.01640814 0.02630158 0.00300000
v -0.00384872 0.03103511 0.00300000
v 0.00982352 0.02957054 0.00300239
v -0.01422256 0.01269075 0.00299994
v 0.01564172 0.01161063 0.00283260
v 0.00486111 0.01847284 0.00299992
v -0.00584851 0.01838712 0.00300000
v -0.01483576 0.01187014 0.00050661
v -0.01370627 0.01316894 0.00005175
v 0.01366827 0.01320184 0.00011481
v 0.01530724 0.01125560 0.00134113
v 0.01481179 0.01190004 0.00076768
v 0.01422401 0.01259673 0.00035542
v 0.00897211 0.01709562 -0.00002866
v -0.00189764 0.01908553 -0.00000000
v -0.01107197 0.01560180 -0.00002672
v 0.01422495 -0.01259567 0.00035592
v 0.01477392 -0.01195073 0.00072047
v 0.01530724 -0.01125560 0.00134113
v 0.01577350 -0.01156509 0.00283785
v 0.01320407 -0.01366841 0.00001151
v 0.01210606 -0.01464388 -0.00000000
v 0.01640814 -0.02630158 0.00300000
v 0.01309054 -0.02810049 0.00300000
v 0.01446331 -0.02743420 0.00034946
v 0.00315637 0.00975000 -0.00000000
v -0.01296292 0.00875000 -0.00000000
v 0.00315637 -0.01637500 -0.00000000
v -0.00315637 -0.01637500 -0.00000000
v -0.00539802 -0.03925000 -0.00000000
v -0.00645543 0.00400789 -0.00000000
v -0.00752136 -0.00107925 -0.00000000
v 0.00739277 -0.01140625 -0.00000000
v 0.00375000 -0.00649519 -0.00000000
v -0.00589277 -0.00975000 -0.00000000
v -0.01296292 -0.00000000 -0.00000000
v 0.01280761 -0.00000000 -0.00000000
v 0.01022532 -0.00535718 -0.00000000
v 0.01365243 -0.03924946 0.00003646
v 0.01050833 0.00779904 -0.00000000
v 0.00677457 0.00875000 -0.00000000
v -0.00315637 0.00875000 -0.00000000
v -0.01296292 -0.00975000 -0.00000000
v -0.01424893 -0.01258260 0.00014673
v -0.01316752 -0.00000000 -0.00000000
v -0.01316752 0.00775000 -0.00000000
v 0.01422595 0.03325000 0.00035646
v 0.01530724 0.03325000 0.00134113
v 0.02005818 0.03325000 0.00850000
v -0.02189888 0.03325000 0.00850000
v -0.02175990 0.03325000 0.00784533
v 0.01933355 0.01125000 0.00800570
v 0.02005818 0.01125000 0.00850000
v 0.01941894 0.01125000 0.00782184
v 0.01942432 0.01125000 0.00761919
v 0.01934879 0.01125000 0.00743106
v 0.01605818 -0.01125000 0.00850000
v 0.02005818 -0.01125000 0.00850000
v 0.01933355 -0.01125000 0.00800570
v 0.01934879 -0.01125000 0.00743106
v 0.01942432 -0.01125000 0.00761919
v 0.01941894 -0.01125000 0.00782184
v 0.03594749 -0.03880556 0.03235322
v 0.03452041 -0.03025000 0.03013135
v 0.02143264 -0.03232107 0.01057107
v 0.02440691 -0.03512165 0.01505279
v 0.02005818 -0.02817893 0.00850000
v 0.02031077 -0.03009235 0.00888060
v 0.02103007 -0.03171447 0.00996447
v 0.01530724 -0.03925000 0.00134113
v 0.03426501 -0.03925000 0.03124782
v -0.02189888 -0.02817893 0.00850000
v -0.02175990 -0.03925000 0.00784533
v -0.02188397 -0.03925000 0.00920882
v -0.02138929 -0.03925000 0.01048544
v -0.02138929 -0.03223544 0.01048544
v -0.02194555 -0.03046461 0.00895845
v 0.01472620 -0.02617926 0.00850000
v 0.01500000 0.02175000 0.00850000
v 0.01437382 0.02312515 0.00850000
v 0.00713970 0.02399187 0.00850000
v 0.00815759 0.02326965 0.00850000
v 0.00680476 0.02970585 0.00850000
v -0.00465263 0.03084106 0.00850000
v -0.00682839 0.02909376 0.00850000
v -0.00761658 0.02335130 0.00850000
v -0.01721354 0.02306107 0.00850000
v -0.01844386 -0.00235710 0.00850000
v -0.02139888 -0.00450000 0.00850000
v -0.02139888 -0.01150000 0.00850000
v -0.02119792 -0.01225000 0.00850000
v -0.01819210 -0.01352006 0.00850000
v -0.01512920 -0.02725000 0.00850000
v 0.01250000 -0.02725000 0.00850000
v -0.01720557 -0.02641882 0.00850000
v 0.03440000 -0.03625000 0.04300000
v 0.03440000 -0.03025000 0.04300000
v 0.03526984 -0.03625000 0.04263724
v 0.03533075 -0.03025000 0.04238459
v 0.03490000 -0.03025000 0.04286603
v 0.03540000 -0.03625000 0.03800000
v 0.03478458 -0.03025000 0.03706925
v 0.03536812 -0.03025000 0.03764877
v 0.03507669 -0.03625000 0.03729000
v 0.03412917 -0.03025000 0.03700000
v 0.02742932 -0.03025000 0.03412682
v 0.02907414 -0.03625000 0.03680379
v 0.02733211 -0.03025000 0.03338376
v 0.02725405 -0.03625000 0.03361182
v 0.02979808 -0.03625000 0.02902924
v 0.02979808 -0.03025000 0.02902924
v 0.02984804 -0.03625000 0.02782804
v 0.02970692 -0.03025000 0.02787582
v 0.02993205 -0.03025000 0.02852923
v 0.02493528 -0.03625000 0.02563810
v 0.02475444 -0.03025000 0.02581712
v 0.02548368 -0.03025000 0.02549116
v 0.02559848 -0.03625000 0.02553779
v 0.02225605 -0.03625000 0.03009241
v 0.02197976 -0.03025000 0.03044045
v 0.02199829 -0.03625000 0.03038615
v 0.02022236 -0.03025000 0.03062139
v 0.01961618 -0.03625000 0.03077906
v 0.01774395 -0.03625000 0.03009241
v 0.01800171 -0.03625000 0.03038615
v 0.01803159 -0.03025000 0.03046598
v 0.01539808 -0.03625000 0.02602924
v 0.01429566 -0.03625000 0.02537516
v 0.01250366 -0.03025000 0.02545072
v 0.01512704 -0.03025000 0.02570860
v 0.00999603 -0.03625000 0.02841229
v 0.01006961 -0.03025000 0.02866155
v 0.01055898 -0.03025000 0.02655293
v 0.01270836 -0.03025000 0.03353339
v 0.01254780 -0.03625000 0.03309242
v 0.01090673 -0.03025000 0.03025000
v 0.01269075 -0.03625000 0.03389059
v 0.01198900 -0.03025000 0.03511824
v 0.01113966 -0.03025000 0.03541560
v 0.01029176 -0.03025000 0.03700000
v 0.01072464 -0.03625000 0.03693954
v 0.00534006 -0.03625000 0.03702603
v 0.00533719 -0.03025000 0.03701758
v 0.00467066 -0.03625000 0.03752133
v 0.00489289 -0.03025000 0.03729290
v 0.00460000 -0.03625000 0.04200000
v 0.00464766 -0.03025000 0.04245130
v 0.00530877 -0.03025000 0.04296121
v 0.00467612 -0.03625000 0.04238269
v 0.00504723 -0.03625000 0.04276009
v 0.00587083 -0.03025000 0.04300000
v 0.01257069 -0.03025000 0.04587323
v 0.01092586 -0.03625000 0.04319621
v 0.01137700 -0.03025000 0.04893280
v 0.01273574 -0.03625000 0.04635609
v 0.01020192 -0.03625000 0.05097076
v 0.01017681 -0.03625000 0.05200343
v 0.01282112 -0.03025000 0.05424050
v 0.01010202 -0.03025000 0.05172958
v 0.01007650 -0.03625000 0.05134024
v 0.01403205 -0.03625000 0.05433679
v 0.01509103 -0.03025000 0.05426592
v 0.01491756 -0.03625000 0.05446414
v 0.01864125 -0.03025025 0.05049893
v 0.01790693 -0.03624996 0.04967752
v 0.01838149 -0.03025000 0.04942943
v 0.01835237 -0.03625000 0.04944134
v 0.02150490 -0.03625000 0.04939292
v 0.02125764 -0.03025000 0.04941639
v 0.02224515 -0.03625007 0.05007777
v 0.02196841 -0.03025000 0.04953402
v 0.02530513 -0.03625000 0.05452381
v 0.02792351 -0.03025000 0.05385720
v 0.02231143 -0.03025000 0.05263725
v 0.02964417 -0.03625000 0.05218427
v 0.02997013 -0.03625000 0.05145503
v 0.02975031 -0.03025000 0.05113104
v 0.02989798 -0.03025000 0.05172958
v 0.02733414 -0.03625000 0.04664579
v 0.00647894 -0.03025000 0.03145405
v 0.00627033 -0.03025000 0.02914891
v 0.00442502 -0.03025083 0.04852515
v 0.03559598 -0.03025000 0.04815965
v 0.03161937 -0.03025000 0.05308589
v 0.02108877 -0.03025000 0.02398569
v 0.03054219 -0.03025000 0.04379813
v 0.03268175 -0.03025000 0.04553534
v 0.02954328 -0.03025000 0.04662372
v 0.03045833 -0.03025000 0.04788564
v 0.03222299 -0.03025000 0.04792342
v 0.02728963 -0.03025000 0.04628125
v 0.02898204 -0.03025000 0.04330937
v 0.03770168 -0.03025000 0.03827966
v 0.03113462 -0.03025000 0.03178495
v 0.02904563 -0.03025000 0.03590764
v 0.03055506 -0.03025000 0.03592617
v 0.03297338 -0.03025000 0.03337628
v 0.02954329 -0.03025000 0.03362371
v 0.03120615 -0.03025000 0.02655856
v 0.02142341 -0.03025000 0.02603533
v 0.02096466 -0.03025000 0.02842342
v 0.01920000 -0.03025000 0.02838564
v 0.01828495 -0.03025000 0.02712372
v 0.00763980 -0.03025000 0.03471902
v 0.00861795 -0.03025000 0.03178495
v 0.01045671 -0.03025000 0.03337628
v 0.00250212 -0.03025000 0.04027256
v 0.00374945 -0.03025000 0.03830059
v 0.00839692 -0.03025000 0.04810663
v 0.00702662 -0.03025000 0.04662372
v 0.01095436 -0.03025000 0.04409236
v 0.00944497 -0.03025000 0.04407382
v 0.00996068 -0.03025000 0.04760188
v 0.01030543 -0.03025000 0.04599524
v 0.01840000 -0.03025000 0.05300000
v 0.01924962 -0.03025000 0.05454713
v 0.02075038 -0.03025000 0.05145287
v 0.02121901 -0.03025000 0.05410188
v 0.02523682 -0.03025000 0.05699661
v 0.00987284 -0.03025002 0.05430718
v 0.01533265 -0.03025000 0.05695630
v 0.02574182 -0.03025000 0.02336131
v 0.01622240 -0.03025000 0.02291259
v 0.00471008 -0.03525227 0.04862396
v 0.00250325 -0.03525000 0.04191790
v 0.00289384 -0.03525000 0.03630820
v 0.00523102 -0.03525000 0.03042442
v 0.01280208 -0.03525000 0.02373658
v 0.02254482 -0.03525000 0.02258339
v 0.02995821 -0.03525000 0.02548627
v 0.03468096 -0.03925000 0.04840883
v 0.03141753 -0.03925000 0.05363632
v 0.02466513 -0.03925000 0.05686673
v 0.01869932 -0.03925000 0.05716424
v 0.00936723 -0.03924960 0.05418762
v 0.01987628 -0.03475000 0.02871505
v 0.02138564 -0.03475000 0.02780000
v 0.02145725 -0.03475000 0.02474224
v 0.01945252 -0.03475000 0.02461812
v 0.01725488 -0.03475000 0.02568772
v 0.01761812 -0.03475000 0.02754749
v 0.01861436 -0.03475000 0.02780000
v 0.02075038 -0.03475000 0.05454713
v 0.02178903 -0.03475000 0.05133493
v 0.01976391 -0.03475000 0.04996651
v 0.01833493 -0.03475000 0.05121097
v 0.01696652 -0.03475000 0.05323610
v 0.01821097 -0.03475000 0.05466508
v 0.01920000 -0.03475000 0.05438564
v 0.00991585 -0.03475000 0.04788359
v 0.00970633 -0.03475000 0.04507659
v 0.00763979 -0.03475000 0.04528099
v 0.00719454 -0.03475000 0.04725038
v 0.03113462 -0.03475000 0.04821505
v 0.03297338 -0.03475000 0.04662372
v 0.03331219 -0.03475000 0.04478643
v 0.02983491 -0.03475000 0.04553534
v 0.02987269 -0.03475000 0.04730000
v 0.00874167 -0.03475000 0.03510000
v 0.01016508 -0.03475000 0.03446467
v 0.00945847 -0.03475000 0.03116349
v 0.00702046 -0.03475000 0.03099097
v 0.00640516 -0.03475000 0.03278320
v 0.00623264 -0.03475000 0.03522121
v 0.00802487 -0.03475000 0.03583652
v 0.03180581 -0.03475000 0.03588188
v 0.03268174 -0.03475000 0.03446467
v 0.03197513 -0.03475000 0.03116348
v 0.02953713 -0.03475000 0.03099097
v 0.02892182 -0.03475000 0.03278320
v 0.02883333 -0.03475000 0.03452632
v 0.02994606 -0.03475000 0.03624513
v 0.02742931 -0.03625000 0.04587323
v 0.02900025 -0.03625000 0.04329377
v 0.02944789 -0.03625000 0.04302611
v 0.03443472 -0.03475000 0.03247472
v 0.03373444 -0.03475000 0.03573819
v 0.01070114 -0.03475000 0.03639132
v 0.01155625 -0.03475000 0.03187500
v 0.01199167 -0.03475000 0.03350000
v 0.02929886 -0.03475000 0.04360869
v 0.03452180 -0.03475000 0.04720028
v 0.03288333 -0.03475000 0.04931458
v 0.02887327 -0.03475000 0.04931042
v 0.00525798 -0.03475000 0.04675130
v 0.00711667 -0.03475000 0.04368542
v 0.00874167 -0.03475000 0.04325000
v 0.01097986 -0.03475000 0.04402389
v 0.01199167 -0.03475000 0.04650000
v 0.01070114 -0.03475000 0.04939131
v 0.00711667 -0.03475000 0.04931458
v 0.02326347 -0.03475000 0.05370028
v 0.02162500 -0.03475000 0.05581459
v 0.01929971 -0.03475000 0.05626347
v 0.02162500 -0.03475000 0.02981458
v 0.01847579 -0.03475000 0.03014261
v 0.02281458 -0.03475000 0.02537500
v 0.02326347 -0.03475000 0.02770028
v -0.01840191 -0.03514747 0.01485309
v -0.02133072 -0.03232107 0.01057107
v -0.00120194 -0.03925000 0.04000000
v 0.03756242 -0.03925000 0.04117295
v 0.01191806 -0.03925000 0.03452528
v 0.01437083 -0.03925000 0.04000000
v 0.01121778 -0.03925000 0.03126180
v 0.00635661 -0.03925000 0.03068959
v 0.00750031 -0.03925000 0.03697073
v 0.01222536 -0.03925000 0.04675130
v 0.00899297 -0.03925000 0.04301632
v 0.00493788 -0.03925000 0.04704564
v 0.00849037 -0.03925000 0.04998369
v 0.02562916 -0.03925000 0.04000000
v 0.02887327 -0.03925000 0.04368959
v 0.03288333 -0.03925000 0.04368542
v 0.03452180 -0.03925000 0.04579972
v 0.02878222 -0.03925000 0.04873819
v 0.03125833 -0.03925000 0.04975000
v 0.03349653 -0.03925000 0.03597611
v 0.02563310 -0.03926162 0.01688612
v 0.03055805 -0.03925000 0.03023653
v 0.03450833 -0.03925000 0.03350000
v 0.02808194 -0.03925000 0.03247472
v 0.02878222 -0.03925000 0.03573819
v 0.03125833 -0.03925000 0.03675000
v 0.02195947 -0.03925000 0.02410869
v 0.02347073 -0.03925000 0.05424137
v 0.02162500 -0.03925000 0.05018542
v 0.01847579 -0.03925000 0.04985739
v 0.01675000 -0.03925000 0.05300000
v 0.02000000 -0.03925000 0.05625000
v 0.01837500 -0.03925000 0.02418542
v 0.01637358 -0.03925000 0.02766031
v 0.02238506 -0.03925000 0.02981042
v 0.00610494 0.03325000 0.04889817
v 0.00610494 0.03825000 0.04889817
v 0.00829245 0.03325000 0.05162683
v 0.01126012 0.03825000 0.05426989
v 0.01362079 0.03325000 0.05547000
v 0.02146271 0.03825000 0.05666960
v 0.02277535 0.03325000 0.05677424
v 0.02950607 0.03825000 0.05358816
v 0.03302652 0.03825000 0.05012718
v 0.03209472 0.03325000 0.05197560
v 0.03572414 0.03825000 0.04526829
v 0.03683833 0.03325000 0.04261974
v 0.03634640 0.03825000 0.03642087
v 0.03349296 0.03325000 0.03050316
v 0.03349296 0.03825000 0.03050316
v 0.03346932 0.03325000 0.03051677
v 0.03346932 0.03825000 0.03051677
v 0.02060898 0.03825000 0.01126154
v 0.02096214 0.03325000 0.01167057
v 0.01971232 0.03825000 0.01100000
v 0.02029625 0.03325000 0.01109853
v -0.01698253 0.03825000 0.01100000
v -0.01741284 0.03325000 0.01104784
v -0.01822062 0.03325000 0.01334683
v -0.01848100 0.03325000 0.01199287
v -0.01852769 0.03825000 0.01263329
v -0.01795822 0.03825000 0.01132233
v 0.00609869 0.03325000 0.04890244
v 0.00609869 0.03825000 0.04890244
v 0.02950000 0.03825000 0.04000000
v 0.02724499 0.03825000 0.03317410
v 0.01259613 0.03825000 0.03391247
v 0.01048030 0.03825000 0.03888167
v 0.01826092 0.03825000 0.03041748
v 0.02293735 0.03825000 0.04912400
v 0.01864801 0.03825000 0.04940330
v 0.01502809 0.03825000 0.04819485
v 0.02838084 0.03825000 0.04496091
v 0.01138689 0.03825000 0.04420593
v 0.02973248 0.03325000 0.04035765
v 0.02799191 0.03325000 0.04513609
v 0.02240452 0.03325000 0.04965925
v 0.01335630 0.03325000 0.04712112
v 0.01048030 0.03325000 0.04111834
v 0.01200587 0.03325000 0.03443736
v 0.01896892 0.03325000 0.03031568
v 0.01901334 0.03325000 0.03198208
v 0.01377581 0.03325000 0.03463079
v 0.02367340 0.03325000 0.03226259
v 0.02673127 0.03325000 0.03390602
v 0.02792177 0.03325000 0.03841693
v 0.02779942 0.03325000 0.04178017
v 0.02617683 0.03325000 0.04520647
v 0.02347107 0.03325000 0.04720775
v 0.01978062 0.03325000 0.04807542
v 0.01526968 0.03325000 0.04654864
v 0.01307180 0.03325000 0.04400000
v 0.01206844 0.03324990 0.04127134
v 0.01202237 0.03325000 0.03940216
v 0.01629855 0.03635000 0.03281948
v 0.02000000 0.03635000 0.03200000
v 0.02330613 0.03635000 0.03262911
v 0.01232033 0.03635168 0.03713392
v 0.01286853 0.03635175 0.04418695
v 0.02153778 0.03635000 0.04807491
v 0.01652893 0.03635000 0.04720775
v 0.02727201 0.03635000 0.04383234
v 0.02753027 0.03635000 0.03670394
v 0.00592275 0.03325000 0.00856974
v -0.00564282 0.03325000 0.00903301
v 0.00564282 0.03325000 0.00196699
v -0.00450000 0.03325000 0.00950000
v 0.00507687 0.03325000 0.00939612
v 0.00600000 0.03325000 0.00300000
v -0.00630369 0.03325000 0.00504447
v -0.02185757 0.03325000 0.00959072
v 0.00081997 0.03325000 0.00095336
v -0.00553301 0.03325000 0.00185718
v 0.00555557 0.03325000 0.04987969
v 0.00890916 0.03325000 0.05364246
v 0.01387220 0.03325000 0.05639207
v 0.01732679 0.03325000 0.05729462
v 0.02585237 0.03325000 0.05657930
v 0.03335973 0.03325000 0.05130344
v 0.03537588 0.03325000 0.04835658
v 0.03743065 0.03325000 0.04155639
v 0.03738374 0.03325000 0.03798614
v 0.03650637 0.03325000 0.03573823
v 0.03515099 0.03325000 0.03124229
v -0.01300000 0.03925000 0.00600000
v -0.01301219 0.03625000 0.00659719
v -0.01220260 0.03925000 0.00813974
v -0.01170419 0.03625000 0.00846895
v -0.01036161 0.03925000 0.00897813
v -0.00977024 0.03625000 0.00906221
v -0.00814135 0.03925000 0.00844446
v -0.00775447 0.03625000 0.00798937
v -0.00708717 0.03925000 0.00671795
v -0.00701950 0.03625000 0.00652868
v -0.00701950 0.03925000 0.00547132
v -0.00708717 0.03625000 0.00528205
v -0.00775447 0.03925000 0.00401063
v -0.00814135 0.03625000 0.00355554
v -0.00977024 0.03925000 0.00293779
v -0.01036161 0.03625000 0.00302187
v -0.01220260 0.03625000 0.00386026
v -0.01238964 0.03925000 0.00407138
v -0.00877831 0.03625000 0.00560566
v -0.00937500 0.03625000 0.00491747
v -0.01039434 0.03625000 0.00477831
v -0.01108253 0.03625000 0.00537500
v -0.01125000 0.03625000 0.00600000
v -0.01108253 0.03625000 0.00662500
v -0.01026934 0.03625000 0.00725518
v -0.00904765 0.03625000 0.00686085
v 0.00700000 0.03925000 0.00600000
v 0.00698781 0.03625000 0.00659719
v 0.00734363 0.03925000 0.00739417
v 0.00829581 0.03925000 0.00846895
v 0.00878036 0.03625000 0.00881823
v 0.01050976 0.03925000 0.00902822
v 0.01106382 0.03625000 0.00880505
v 0.01224553 0.03925000 0.00798937
v 0.01256020 0.03625000 0.00766268
v 0.01300164 0.03925000 0.00640993
v 0.01300000 0.03625000 0.00600000
v 0.01291283 0.03925000 0.00528205
v 0.01269373 0.03625000 0.00456248
v 0.01162652 0.03925000 0.00339532
v 0.01106382 0.03625000 0.00319495
v 0.00963839 0.03925000 0.00302187
v 0.00904409 0.03625000 0.00308175
v 0.00761036 0.03925000 0.00407138
v 0.00734363 0.03625000 0.00460583
v 0.01122169 0.03625000 0.00560566
v 0.01026934 0.03625000 0.00474482
v 0.00937500 0.03625000 0.00491747
v 0.00874482 0.03625000 0.00573066
v 0.00913916 0.03625000 0.00695235
v 0.01000000 0.03625000 0.00725000
v 0.01095235 0.03625000 0.00686085
v -0.01928379 0.03925000 0.00434870
v 0.01280761 0.03925000 -0.00000000
v -0.01316752 0.03925000 -0.00000000
v 0.03515099 0.03925000 0.03124229
v 0.00555557 0.03925000 0.04987969
v -0.02183266 0.03925000 0.00955328
v -0.02175990 0.03925000 0.00784533
v -0.01432112 0.03925000 0.00023067
v 0.02963935 0.03925000 0.05470396
v 0.02442140 0.03925000 0.05693226
v 0.02089268 0.03925000 0.05747722
v 0.03468974 0.03925000 0.04966100
v 0.03661316 0.03925000 0.03449973
v 0.00786147 0.03925000 0.05260580
v 0.01067269 0.03925000 0.05480714
v 0.01586729 0.03925000 0.05708930
v 0.01449728 0.03925000 0.00047703
v 0.03731953 0.03925000 0.04302607
v 0.03738374 0.03925000 0.03798614
v -0.00507687 0.03775000 0.00939612
v -0.00579904 0.03775000 0.00875000
v -0.00630369 0.03775000 0.00595555
v -0.00564282 0.03775000 0.00196699
v -0.00081997 0.03775000 0.00095336
v 0.00553301 0.03775000 0.00185718
v 0.00600000 0.03775000 0.00300000
v 0.00600000 0.03775000 0.00800000
v 0.00564282 0.03775000 0.00903301
v 0.00450000 0.03775000 0.00950000
f 3 4 5
f 7 8 3
f 9 10 11
f 11 10 6
f 12 13 14
f 14 13 15
f 15 13 9
f 16 80 12
f 19 18 16
f 20 21 22
f 22 21 17
f 24 25 26
f 26 25 20
f 28 29 30
f 32 33 31
f 35 36 34
f 38 37 39
f 38 39 34
f 34 39 35
f 40 34 36
f 46 47 50
f 46 50 45
f 51 20 42
f 42 20 25
f 42 25 43
f 47 52 43
f 43 52 42
f 46 54 47
f 47 54 52
f 55 10 56
f 56 10 9
f 56 9 13
f 56 13 57
f 57 13 12
f 56 58 55
f 55 58 41
f 59 60 55
f 55 60 10
f 10 60 6
f 6 60 7
f 7 60 61
f 3 8 7
f 62 3 7
f 62 7 63
f 63 7 61
f 46 66 65
f 45 67 68
f 45 68 69
f 45 69 46
f 46 69 66
f 67 70 68
f 59 71 70
f 59 55 72
f 59 72 71
f 25 24 43
f 43 24 23
f 43 23 47
f 47 23 27
f 47 27 30
f 51 53 20
f 20 53 21
f 74 73 79
f 75 80 16
f 75 16 18
f 75 18 76
f 76 18 77
f 77 18 17
f 77 17 78
f 78 17 21
f 78 21 79
f 74 80 75
f 74 75 73
f 62 81 3
f 3 81 70
f 3 70 4
f 4 70 67
f 164 31 82
f 82 31 2
f 82 2 1
f 82 1 83
f 83 1 84
f 84 1 5
f 84 5 4
f 84 4 67
f 86 85 67
f 67 85 84
f 86 32 31
f 86 31 164
f 49 47 48
f 48 47 30
f 32 49 28
f 28 49 48
f 28 48 29
f 29 48 30
f 53 46 21
f 21 46 65
f 21 65 79
f 79 65 64
f 79 64 74
f 74 64 55
f 74 55 80
f 80 55 41
f 80 41 12
f 12 41 57
f 49 32 44
f 44 32 86
f 44 86 45
f 45 86 67
f 59 70 81
f 90 87 88
f 90 88 89
f 90 89 91
f 90 91 92
f 92 91 93
f 92 93 113
f 113 93 94
f 113 94 95
f 95 94 96
f 96 94 97
f 96 97 90
f 90 97 87
f 99 98 100
f 99 100 101
f 101 100 102
f 101 102 104
f 104 102 103
f 104 103 106
f 106 103 105
f 106 105 99
f 99 105 98
f 108 110 107
f 107 110 109
f 33 32 28
f 111 5 115
f 112 1 2
f 33 112 31
f 31 112 2
f 114 28 30
f 1 113 5
f 5 113 115
f 5 111 3
f 3 111 7
f 114 33 28
f 27 23 24
f 1 112 113
f 113 112 116
f 15 9 117
f 9 11 117
f 117 11 6
f 117 6 111
f 111 6 7
f 27 24 122
f 122 24 126
f 119 111 118
f 120 118 111
f 120 111 115
f 114 30 27
f 114 27 121
f 121 27 122
f 18 19 127
f 127 19 16
f 127 16 123
f 123 16 12
f 15 117 14
f 14 117 124
f 14 124 125
f 24 26 126
f 126 26 20
f 127 126 20
f 127 20 22
f 127 22 18
f 18 22 17
f 125 123 14
f 14 123 12
f 128 129 132
f 132 129 130
f 130 131 132
f 132 131 133
f 134 42 52
f 134 52 135
f 135 52 54
f 135 54 46
f 135 46 136
f 136 46 137
f 137 46 53
f 137 53 51
f 137 51 42
f 137 42 134
f 35 138 36
f 40 36 139
f 139 36 138
f 40 139 140
f 40 140 34
f 141 38 140
f 140 38 34
f 142 37 38
f 142 38 141
f 142 143 37
f 37 143 39
f 144 35 39
f 144 39 143
f 138 35 144
f 148 59 145
f 145 59 81
f 145 81 62
f 145 62 146
f 146 62 63
f 146 63 61
f 146 61 147
f 147 61 60
f 147 60 148
f 148 60 59
f 64 231 230
f 64 230 55
f 55 230 72
f 71 72 149
f 71 149 70
f 70 149 150
f 70 150 68
f 68 150 151
f 68 151 69
f 69 151 233
f 69 233 152
f 69 152 66
f 66 152 65
f 65 152 231
f 65 231 64
f 153 77 78
f 153 78 79
f 153 79 154
f 154 79 155
f 155 79 73
f 155 73 156
f 156 73 75
f 156 75 157
f 157 75 76
f 157 76 153
f 153 76 77
f 158 41 58
f 158 58 159
f 159 58 56
f 159 56 160
f 160 56 161
f 161 56 57
f 161 57 162
f 162 57 158
f 158 57 41
f 163 86 164
f 164 82 165
f 165 82 166
f 166 82 83
f 166 83 84
f 166 84 239
f 239 84 167
f 167 84 85
f 167 85 86
f 167 86 163
f 171 47 168
f 168 47 49
f 168 49 169
f 169 49 44
f 169 44 237
f 237 44 45
f 237 45 50
f 237 50 170
f 170 50 171
f 171 50 47
f 173 172 174
f 174 172 175
f 177 174 175
f 177 175 176
f 177 176 178
f 243 180 129
f 129 179 243
f 129 180 181
f 129 181 130
f 130 181 131
f 131 181 143
f 131 143 182
f 133 131 182
f 133 182 183
f 133 183 184
f 133 184 132
f 132 185 128
f 185 132 184
f 196 186 187
f 187 186 189
f 187 189 188
f 188 189 129
f 129 189 179
f 185 190 188
f 185 188 128
f 128 188 129
f 191 192 193
f 194 195 196
f 196 195 197
f 186 198 197
f 195 199 202
f 202 199 200
f 186 197 201
f 201 197 195
f 201 195 202
f 203 189 186
f 200 204 202
f 202 204 205
f 202 205 201
f 201 205 206
f 201 206 186
f 186 206 203
f 189 203 207
f 207 203 208
f 204 209 213
f 210 211 204
f 204 211 212
f 204 212 209
f 204 213 205
f 213 214 205
f 205 214 206
f 206 214 215
f 206 215 203
f 203 215 208
f 216 217 219
f 219 217 218
f 216 219 220
f 220 219 221
f 221 219 176
f 176 219 178
f 219 222 223
f 219 223 178
f 177 178 174
f 174 178 223
f 173 174 223
f 172 173 223
f 222 224 223
f 223 224 172
f 221 176 232
f 143 228 144
f 227 138 228
f 228 138 144
f 232 176 227
f 227 176 138
f 229 140 238
f 238 140 139
f 138 176 175
f 138 175 139
f 139 175 238
f 229 142 141
f 229 141 140
f 228 143 181
f 72 230 241
f 72 241 149
f 149 240 150
f 151 232 233
f 234 152 233
f 215 160 226
f 226 160 161
f 235 158 231
f 231 158 230
f 230 158 159
f 226 161 235
f 235 161 162
f 235 162 158
f 240 239 167
f 236 164 165
f 240 167 237
f 240 237 150
f 150 237 151
f 237 167 236
f 236 167 163
f 236 163 164
f 238 175 172
f 239 213 166
f 239 240 213
f 213 240 225
f 213 225 145
f 213 145 146
f 213 146 214
f 241 148 225
f 225 148 145
f 214 146 147
f 215 214 241
f 241 214 147
f 241 147 148
f 229 184 142
f 142 184 183
f 142 183 182
f 142 182 143
f 184 229 190
f 169 236 168
f 168 236 220
f 236 169 237
f 232 151 237
f 232 237 170
f 232 170 171
f 232 171 220
f 220 171 168
f 220 221 232
f 233 232 227
f 233 227 135
f 135 227 134
f 233 135 234
f 234 135 136
f 234 136 137
f 231 152 234
f 228 234 137
f 228 137 134
f 228 134 227
f 225 240 149
f 225 149 241
f 215 241 230
f 215 230 160
f 160 230 159
f 228 181 180
f 228 180 234
f 234 180 242
f 235 156 157
f 235 157 242
f 157 153 242
f 242 153 234
f 153 154 234
f 234 154 231
f 154 155 231
f 231 155 235
f 235 155 156
f 180 243 242
f 242 243 244
f 242 244 235
f 235 244 245
f 235 245 226
f 226 245 208
f 226 208 215
f 196 97 194
f 97 94 194
f 194 94 246
f 246 94 247
f 247 94 248
f 248 94 93
f 248 93 91
f 248 91 249
f 249 91 89
f 249 89 88
f 87 97 103
f 103 97 196
f 103 196 105
f 105 196 98
f 98 196 187
f 98 187 250
f 98 250 249
f 100 88 102
f 102 88 87
f 102 87 103
f 88 100 249
f 249 100 98
f 251 252 192
f 192 252 193
f 251 253 252
f 252 253 254
f 252 254 255
f 191 193 256
f 191 257 258
f 259 260 257
f 257 260 261
f 257 261 258
f 248 252 247
f 247 252 255
f 257 222 259
f 259 222 219
f 259 219 255
f 264 265 518
f 199 247 200
f 200 247 255
f 200 255 204
f 204 255 219
f 204 219 210
f 210 219 218
f 257 266 222
f 222 266 267
f 222 267 268
f 269 224 518
f 518 224 222
f 518 222 264
f 264 222 268
f 518 265 270
f 270 265 262
f 271 249 250
f 272 276 271
f 273 274 275
f 275 276 273
f 273 276 272
f 271 250 272
f 272 250 187
f 272 187 188
f 114 277 33
f 33 277 278
f 33 278 112
f 279 113 116
f 279 116 278
f 278 116 112
f 281 90 279
f 90 92 279
f 279 92 113
f 113 95 115
f 115 95 96
f 115 96 90
f 115 90 281
f 280 120 115
f 280 115 281
f 280 282 120
f 120 282 118
f 118 282 283
f 119 118 283
f 119 283 284
f 119 284 111
f 111 284 285
f 111 285 117
f 117 285 124
f 285 101 124
f 124 101 104
f 106 125 124
f 106 124 104
f 125 106 99
f 125 99 286
f 286 99 285
f 285 99 101
f 125 286 123
f 288 110 287
f 287 110 108
f 109 110 289
f 289 110 288
f 109 289 290
f 109 290 291
f 109 291 107
f 127 123 287
f 287 123 286
f 294 127 291
f 291 127 287
f 291 287 107
f 107 287 108
f 292 293 126
f 126 293 122
f 266 257 191
f 271 291 290
f 290 289 271
f 271 289 288
f 271 288 249
f 288 287 249
f 266 277 293
f 266 293 271
f 271 293 292
f 271 292 294
f 248 279 278
f 294 291 271
f 249 287 286
f 249 286 284
f 284 286 285
f 284 283 249
f 249 283 248
f 248 283 282
f 266 191 277
f 277 191 256
f 277 256 278
f 278 256 193
f 278 193 248
f 248 193 252
f 248 282 279
f 279 282 280
f 279 280 281
f 192 191 258
f 192 258 251
f 251 258 261
f 251 261 253
f 253 261 260
f 253 260 254
f 254 260 259
f 254 259 255
f 296 295 474
f 296 474 385
f 298 297 299
f 299 297 296
f 296 297 295
f 302 300 297
f 302 297 298
f 301 303 302
f 302 303 300
f 395 303 304
f 304 303 301
f 303 395 394
f 303 394 306
f 306 394 305
f 306 305 308
f 308 305 307
f 310 309 308
f 310 308 307
f 312 311 313
f 313 311 310
f 310 311 309
f 311 312 316
f 315 314 316
f 316 314 317
f 316 317 311
f 314 315 318
f 318 315 319
f 318 319 320
f 320 319 322
f 322 319 321
f 325 323 324
f 325 324 322
f 325 322 321
f 323 325 326
f 326 325 329
f 328 327 329
f 329 327 326
f 327 328 332
f 331 330 332
f 332 330 327
f 333 334 335
f 335 334 330
f 335 330 331
f 334 333 336
f 336 333 337
f 336 337 338
f 336 338 340
f 340 338 339
f 342 341 340
f 342 340 339
f 407 343 344
f 344 343 342
f 342 343 341
f 346 345 343
f 346 343 407
f 347 349 346
f 346 349 348
f 346 348 345
f 411 349 350
f 350 349 347
f 349 411 410
f 349 410 352
f 352 410 351
f 352 351 354
f 354 351 353
f 354 353 355
f 357 356 358
f 358 356 353
f 353 356 359
f 353 359 355
f 356 357 360
f 361 362 357
f 357 362 360
f 362 361 364
f 361 363 364
f 364 363 365
f 364 365 366
f 366 365 367
f 367 365 368
f 370 369 367
f 370 367 368
f 369 370 373
f 372 371 373
f 373 371 369
f 371 372 374
f 376 375 377
f 377 375 372
f 372 375 374
f 375 376 378
f 296 385 386
f 389 382 386
f 387 390 376
f 387 376 388
f 388 376 389
f 390 387 391
f 391 387 385
f 296 386 382
f 296 382 299
f 299 382 298
f 298 382 392
f 392 302 298
f 307 397 310
f 397 393 310
f 310 393 263
f 263 393 396
f 395 304 396
f 263 396 304
f 263 304 301
f 263 301 392
f 392 301 302
f 305 394 397
f 305 397 307
f 398 312 263
f 263 312 313
f 263 313 310
f 399 421 384
f 399 400 319
f 319 400 325
f 319 315 399
f 399 315 316
f 399 316 421
f 325 400 401
f 325 401 402
f 325 402 329
f 384 328 329
f 384 329 402
f 321 319 325
f 342 403 379
f 403 342 338
f 338 342 339
f 405 333 404
f 404 333 335
f 337 333 405
f 337 405 338
f 331 332 380
f 331 380 379
f 331 379 335
f 335 379 404
f 406 346 407
f 407 344 379
f 379 344 342
f 347 346 381
f 381 346 406
f 381 408 409
f 381 409 350
f 381 350 347
f 411 350 409
f 412 353 413
f 351 410 413
f 351 413 353
f 419 357 381
f 412 408 353
f 353 408 381
f 353 381 358
f 358 381 357
f 357 420 361
f 414 363 361
f 414 361 415
f 415 361 420
f 363 416 370
f 370 416 373
f 373 417 418
f 418 417 415
f 365 363 368
f 368 363 370
f 377 383 376
f 376 383 382
f 376 382 389
f 377 372 383
f 383 372 418
f 418 372 373
f 357 419 420
f 415 420 418
f 312 398 316
f 316 398 421
f 384 422 328
f 262 263 392
f 423 381 424
f 424 381 406
f 424 406 407
f 424 407 425
f 425 407 379
f 425 379 426
f 426 379 380
f 426 380 332
f 426 332 427
f 427 332 328
f 427 328 422
f 427 422 384
f 427 384 428
f 428 384 421
f 428 421 429
f 429 421 398
f 429 398 263
f 429 263 262
f 262 392 501
f 501 392 382
f 501 382 430
f 430 382 431
f 431 382 383
f 431 383 418
f 431 418 432
f 432 418 433
f 433 418 420
f 433 420 434
f 434 420 419
f 434 419 381
f 434 381 423
f 434 423 509
f 435 400 436
f 436 400 437
f 437 400 399
f 437 399 438
f 438 399 384
f 438 384 439
f 439 384 440
f 440 384 402
f 440 402 441
f 441 402 435
f 435 402 401
f 435 401 400
f 442 415 417
f 442 417 443
f 443 417 373
f 443 373 416
f 443 416 444
f 444 416 445
f 445 416 363
f 445 363 446
f 446 363 447
f 447 363 414
f 447 414 415
f 447 415 448
f 448 415 442
f 449 408 412
f 449 412 413
f 449 413 450
f 450 413 410
f 450 410 411
f 450 411 451
f 451 411 409
f 451 409 452
f 452 409 408
f 452 408 449
f 453 389 454
f 454 389 386
f 454 386 455
f 455 386 385
f 455 385 456
f 456 385 387
f 456 387 457
f 457 387 453
f 453 387 388
f 453 388 389
f 458 338 459
f 459 338 405
f 459 405 460
f 460 405 404
f 460 404 461
f 461 404 462
f 462 404 379
f 462 379 463
f 463 379 464
f 464 379 403
f 464 403 458
f 458 403 338
f 465 395 466
f 466 395 396
f 466 396 467
f 467 396 393
f 467 393 468
f 468 393 469
f 469 393 397
f 469 397 470
f 470 397 471
f 471 397 465
f 465 397 394
f 465 394 395
f 378 376 390
f 378 390 472
f 472 391 473
f 473 391 385
f 473 385 474
f 472 390 391
f 467 475 466
f 466 475 476
f 466 476 465
f 459 477 458
f 458 477 464
f 460 478 459
f 459 478 479
f 459 479 477
f 456 480 455
f 454 455 481
f 454 481 453
f 453 481 482
f 453 482 483
f 453 483 457
f 457 483 456
f 456 483 480
f 452 484 451
f 451 484 485
f 451 485 450
f 450 485 486
f 450 486 487
f 450 487 449
f 449 487 488
f 449 488 489
f 449 489 452
f 452 489 490
f 452 490 484
f 443 491 442
f 442 491 492
f 442 492 493
f 442 493 448
f 448 493 447
f 435 494 495
f 435 495 441
f 441 495 440
f 437 496 497
f 437 497 436
f 436 497 435
f 435 497 494
f 274 498 499
f 274 499 275
f 498 274 423
f 423 274 500
f 423 500 509
f 229 504 274
f 229 274 190
f 504 229 238
f 274 273 272
f 190 274 188
f 188 274 272
f 503 502 504
f 274 504 505
f 274 505 500
f 500 505 506
f 500 506 503
f 503 506 502
f 507 503 527
f 508 500 503
f 508 503 507
f 508 509 500
f 434 509 510
f 434 510 527
f 527 510 507
f 512 511 501
f 512 501 513
f 430 514 501
f 501 514 513
f 511 512 432
f 512 515 432
f 432 515 431
f 431 515 516
f 431 516 430
f 517 262 501
f 518 270 519
f 262 517 520
f 262 520 270
f 519 521 518
f 518 521 511
f 521 522 511
f 511 522 501
f 501 522 523
f 501 523 517
f 518 524 269
f 269 524 238
f 432 525 511
f 511 525 526
f 527 528 434
f 434 528 433
f 433 529 432
f 432 529 525
f 524 530 238
f 238 530 531
f 238 531 504
f 504 531 503
f 531 532 503
f 503 532 511
f 503 511 527
f 527 511 526
f 511 532 518
f 518 532 524
f 506 477 502
f 502 477 479
f 502 479 504
f 504 479 478
f 504 478 460
f 504 460 505
f 505 460 461
f 505 461 462
f 505 462 463
f 505 463 506
f 506 463 464
f 506 464 477
f 510 489 507
f 507 489 488
f 507 488 487
f 507 487 508
f 508 487 486
f 508 486 485
f 508 485 509
f 509 485 484
f 509 484 510
f 510 484 490
f 510 490 489
f 532 495 494
f 532 494 497
f 532 497 524
f 524 497 496
f 524 496 437
f 524 437 438
f 524 438 530
f 530 438 439
f 530 439 531
f 531 439 440
f 531 440 495
f 531 495 532
f 523 465 517
f 517 465 476
f 517 476 520
f 520 476 475
f 520 475 270
f 270 475 467
f 270 467 519
f 519 467 468
f 519 468 521
f 521 468 469
f 521 469 470
f 521 470 522
f 522 470 471
f 522 471 523
f 523 471 465
f 529 493 525
f 525 493 492
f 525 492 491
f 525 491 443
f 525 443 526
f 526 443 444
f 526 444 527
f 527 444 445
f 527 445 446
f 527 446 528
f 528 446 433
f 433 446 447
f 433 447 493
f 433 493 529
f 516 483 430
f 430 483 482
f 430 482 481
f 430 481 514
f 514 481 455
f 514 455 513
f 513 455 512
f 512 455 480
f 512 480 483
f 512 483 515
f 515 483 516
f 423 424 498
f 498 424 425
f 425 426 498
f 498 426 427
f 428 429 265
f 265 429 262
f 498 427 265
f 265 427 428
f 324 323 473
f 378 472 369
f 366 336 340
f 473 323 472
f 340 349 352
f 336 366 334
f 334 366 367
f 314 318 311
f 472 334 367
f 472 367 369
f 473 322 324
f 340 352 366
f 366 352 354
f 295 303 474
f 474 303 306
f 327 330 334
f 474 320 473
f 473 320 322
f 343 340 341
f 474 306 320
f 320 306 308
f 334 472 323
f 334 323 327
f 327 323 326
f 340 343 349
f 349 343 345
f 349 345 348
f 355 362 354
f 354 362 364
f 354 364 366
f 369 371 374
f 374 375 378
f 374 378 369
f 300 303 297
f 297 303 295
f 355 359 356
f 309 311 308
f 308 311 318
f 308 318 320
f 317 314 311
f 360 362 356
f 356 362 355
f 224 269 238
f 238 172 224
f 210 218 211
f 211 218 217
f 211 217 216
f 211 216 212
f 216 220 236
f 216 236 212
f 212 236 165
f 212 165 166
f 213 209 166
f 166 209 212
f 195 194 199
f 199 194 246
f 199 246 247
f 186 196 198
f 198 196 197
f 179 189 243
f 243 189 207
f 243 207 208
f 243 208 244
f 244 208 245
f 184 190 185
f 499 264 275
f 275 264 268
f 275 268 276
f 271 276 266
f 266 276 267
f 276 268 267
f 292 126 294
f 294 126 127
f 122 293 277
f 122 277 121
f 121 277 114
f 498 265 264
f 498 264 499
f 533 534 535
f 535 534 536
f 535 536 537
f 537 536 538
f 537 538 539
f 539 538 540
f 539 540 542
f 542 540 541
f 542 541 543
f 542 543 544
f 544 543 545
f 544 545 620
f 620 545 546
f 546 545 547
f 546 547 548
f 548 547 549
f 549 550 548
f 548 550 551
f 552 553 550
f 550 553 551
f 554 555 552
f 552 555 553
f 558 556 557
f 558 557 559
f 559 557 555
f 559 555 554
f 533 560 534
f 534 560 561
f 562 545 570
f 549 562 563
f 549 547 562
f 562 547 545
f 549 563 550
f 558 559 554
f 550 563 566
f 550 566 552
f 552 566 564
f 567 538 568
f 568 538 569
f 545 543 570
f 570 543 541
f 570 541 540
f 570 540 567
f 567 540 538
f 564 565 552
f 552 565 534
f 552 534 554
f 554 534 561
f 554 561 558
f 538 536 569
f 569 536 571
f 571 536 534
f 571 534 565
f 572 570 573
f 573 570 574
f 574 570 567
f 574 567 568
f 574 568 569
f 574 569 575
f 575 569 571
f 575 571 576
f 576 571 565
f 576 565 577
f 577 565 564
f 577 564 566
f 577 566 578
f 578 566 563
f 578 563 581
f 581 563 582
f 582 563 572
f 572 563 562
f 572 562 570
f 560 556 561
f 561 556 558
f 578 579 577
f 577 579 580
f 577 580 576
f 579 578 581
f 583 582 572
f 583 572 584
f 584 572 585
f 585 572 573
f 585 573 574
f 585 574 586
f 586 574 587
f 587 574 588
f 588 574 575
f 588 575 589
f 589 575 590
f 590 575 576
f 590 576 591
f 591 576 580
f 593 595 592
f 593 596 595
f 593 597 598
f 593 598 596
f 593 599 597
f 593 600 599
f 593 594 600
f 589 590 596
f 596 590 595
f 595 590 591
f 595 591 580
f 595 580 592
f 592 580 579
f 592 579 593
f 593 579 594
f 594 579 581
f 594 581 600
f 600 581 582
f 600 582 583
f 600 583 599
f 599 583 584
f 599 584 585
f 599 585 597
f 597 585 586
f 597 586 587
f 597 587 598
f 598 587 588
f 598 588 596
f 596 588 589
f 94 553 93
f 93 553 91
f 560 533 535
f 546 548 551
f 100 602 555
f 601 87 88
f 105 98 187
f 88 89 601
f 601 89 91
f 601 91 553
f 196 105 187
f 555 98 100
f 602 604 555
f 555 604 605
f 555 605 553
f 553 605 601
f 87 601 97
f 97 601 606
f 97 606 603
f 97 603 94
f 94 603 194
f 94 194 246
f 94 246 247
f 94 247 553
f 602 100 607
f 607 100 102
f 607 102 103
f 607 103 610
f 610 103 196
f 196 103 105
f 187 98 555
f 187 555 250
f 250 555 557
f 250 557 608
f 603 609 194
f 194 609 196
f 196 609 610
f 608 557 556
f 608 556 611
f 611 556 560
f 611 560 612
f 612 560 535
f 612 535 537
f 612 537 613
f 613 537 614
f 614 537 539
f 615 539 542
f 616 542 617
f 617 542 544
f 618 544 619
f 619 544 620
f 621 620 546
f 621 546 247
f 247 546 551
f 247 551 553
f 623 622 624
f 623 624 625
f 625 624 627
f 627 624 626
f 627 626 628
f 627 628 629
f 629 628 631
f 631 628 630
f 631 630 632
f 631 632 633
f 633 632 635
f 635 632 634
f 635 634 636
f 635 636 637
f 637 636 638
f 638 636 639
f 638 639 623
f 623 639 622
f 640 631 633
f 640 633 635
f 640 635 641
f 641 635 642
f 642 635 637
f 642 637 638
f 642 638 643
f 643 638 644
f 644 638 623
f 644 623 645
f 645 623 646
f 646 623 625
f 646 625 627
f 646 627 647
f 647 627 629
f 647 629 640
f 640 629 631
f 98 644 645
f 98 645 646
f 98 646 100
f 100 646 647
f 100 647 102
f 102 647 640
f 102 640 103
f 103 640 641
f 103 641 642
f 103 642 105
f 105 642 643
f 105 643 98
f 98 643 644
f 649 648 650
f 649 650 652
f 652 650 651
f 652 651 653
f 652 653 654
f 654 653 656
f 656 653 655
f 656 655 657
f 656 657 658
f 658 657 660
f 660 657 659
f 660 659 661
f 660 661 662
f 662 661 664
f 664 661 663
f 664 663 665
f 664 665 666
f 666 665 649
f 649 665 648
f 656 658 667
f 667 658 660
f 667 660 668
f 668 660 662
f 668 662 664
f 668 664 669
f 669 664 670
f 670 664 666
f 670 666 649
f 670 649 671
f 671 649 652
f 671 652 672
f 672 652 673
f 673 652 654
f 673 654 656
f 673 656 667
f 87 670 88
f 88 670 671
f 88 671 89
f 89 671 91
f 91 671 672
f 91 672 673
f 91 673 93
f 93 673 667
f 93 667 94
f 94 667 668
f 94 668 97
f 97 668 669
f 97 669 670
f 97 670 87
f 196 187 674
f 194 196 675
f 675 196 676
f 690 677 247
f 247 677 621
f 678 626 679
f 679 626 624
f 680 679 624
f 680 624 674
f 674 624 622
f 674 622 639
f 674 639 681
f 681 639 676
f 676 639 636
f 657 655 677
f 682 653 683
f 683 653 684
f 634 648 636
f 636 648 665
f 636 665 676
f 676 665 675
f 650 628 626
f 650 626 651
f 651 626 678
f 651 678 653
f 655 653 677
f 677 653 682
f 677 682 686
f 686 682 685
f 653 678 687
f 653 687 688
f 688 689 653
f 653 689 684
f 665 663 675
f 675 663 661
f 675 661 690
f 690 661 659
f 690 659 677
f 677 659 657
f 685 691 686
f 686 691 692
f 634 632 648
f 648 632 650
f 650 632 630
f 650 630 628
f 621 677 686
f 621 686 620
f 620 686 692
f 620 692 619
f 619 692 691
f 619 691 618
f 618 691 544
f 544 691 685
f 544 685 617
f 617 685 616
f 616 685 682
f 616 682 542
f 542 682 615
f 615 682 683
f 615 683 684
f 615 684 539
f 539 684 689
f 539 689 614
f 614 689 613
f 613 689 688
f 613 688 612
f 612 688 687
f 612 687 678
f 612 678 611
f 674 187 250
f 674 250 680
f 680 250 608
f 680 608 679
f 611 678 608
f 608 678 679
f 693 604 602
f 693 602 694
f 694 602 695
f 695 602 607
f 695 607 696
f 696 607 610
f 696 610 697
f 697 610 609
f 697 609 698
f 698 609 603
f 698 603 699
f 699 603 606
f 700 601 701
f 701 601 605
f 701 605 702
f 699 700 693
f 695 696 697
f 700 701 702
f 700 702 693
f 697 698 699
f 697 699 693
f 697 693 695
f 695 693 694
f 605 604 702
f 702 604 693
f 700 699 601
f 601 699 606
f 690 247 246
f 690 246 194
f 690 194 675
f 676 196 681
f 681 196 674

