# https://github.com/mikedh/trimesh
v -0.02277000 -0.06768777 0.02727021
v -0.02277000 0.01931223 0.02727021
v -0.02171204 -0.06768777 0.02727021
v -0.02171204 0.01931223 0.02727021
v -0.02167108 -0.06768777 0.02751335
v -0.02167108 0.01931223 0.02751335
v -0.02155271 -0.06768777 0.02772965
v -0.02155271 0.01931223 0.02772965
v -0.02137000 -0.06768777 0.02789521
v -0.02137000 0.01931223 0.02789521
v -0.02137000 -0.06768777 0.02832021
v -0.02137000 0.01931223 0.02832021
v -0.02134321 -0.06768777 0.02842021
v -0.02134321 0.01931223 0.02842021
v -0.02127000 -0.06768777 0.02849342
v -0.02127000 0.01931223 0.02849342
v -0.02117000 -0.06768777 0.02852021
v -0.02117000 0.01931223 0.02852021
v -0.02077000 -0.06768777 0.02852021
v -0.02077000 0.01931223 0.02852021
v -0.02067000 -0.06768777 0.02849342
v -0.02067000 0.01931223 0.02849342
v -0.02059679 -0.06768777 0.02842021
v -0.02059679 0.01931223 0.02842021
v -0.02057000 -0.06768777 0.02832021
v -0.02057000 0.01931223 0.02832021
v -0.02057000 -0.06768777 0.02789521
v -0.02057000 0.01931223 0.02789521
v -0.02038729 -0.06768777 0.02772965
v -0.02038729 0.01931223 0.02772965
v -0.02026892 -0.06768777 0.02751335
v -0.02026892 0.01931223 0.02751335
v -0.02022796 -0.06768777 0.02727021
v -0.02022796 0.01931223 0.02727021
v -0.01687000 -0.06768777 0.02727021
v -0.01687000 0.01931223 0.02727021
v -0.01657000 -0.06768777 0.02757021
v -0.01657000 -0.03418777 0.02757021
v -0.01800347 0.01728062 0.02960592
v -0.01657586 -0.06305079 0.03004079
v -0.01657157 -0.04216077 0.03159705
v -0.01662518 -0.06528759 0.03016357
v -0.01657000 -0.04607616 0.03126422
v -0.01657000 -0.04614277 0.03177021
v -0.01657000 -0.06223277 0.03177021
v -0.01657000 -0.06249469 0.03274772
v -0.01657000 -0.04469376 0.03365860
v -0.01657000 -0.06768777 0.03362272
v -0.01747719 -0.06575394 0.03233119
v -0.01665284 -0.06540285 0.03337950
v -0.01657000 -0.06229939 0.03227621
v -0.01657000 -0.04607616 0.03227621
v -0.01663429 -0.04559560 0.03303629
v -0.01770134 -0.04465114 0.03032558
v -0.01657000 -0.06768777 0.03597021
v -0.01664171 -0.04315436 0.03336572
v -0.01657000 -0.03418777 0.03597021
v -0.01657000 -0.04418777 0.03372521
v -0.01658578 0.01416813 0.03076387
v -0.01666264 -0.00385137 0.03364653
v -0.01657000 0.01931223 0.03362272
v -0.01657000 -0.02368178 0.03365860
v -0.01664757 -0.00509192 0.03339379
v -0.01657000 -0.00249469 0.03274772
v -0.01657000 0.01406532 0.03165079
v -0.01657000 -0.00588086 0.03079271
v -0.01657000 -0.00223278 0.03177021
v -0.01725716 -0.00388440 0.03001625
v -0.01664853 -0.02595969 0.03246365
v -0.01657000 -0.02229939 0.03227621
v -0.01657000 -0.02223277 0.03177021
v -0.01657000 -0.00614277 0.03177021
v -0.01670283 -0.02603968 0.03144482
v -0.01669502 -0.00614726 0.03184965
v -0.01657000 -0.00607616 0.03126422
v -0.01657000 -0.02229939 0.03126422
v -0.01672259 -0.02345541 0.03004123
v -0.01657897 -0.02466408 0.02974368
v -0.01657000 -0.00418777 0.03372521
v -0.01657000 0.01931223 0.03597021
v -0.01666658 -0.02496446 0.03342127
v -0.01657000 -0.02418777 0.03372521
v -0.01687000 0.01931223 0.03627021
v -0.01687000 -0.06768777 0.03627021
v -0.02022796 -0.06768777 0.03627021
v -0.02022796 0.01931223 0.03627021
v -0.02026892 -0.06768777 0.03602707
v -0.02026892 0.01931223 0.03602707
v -0.02038729 -0.06768777 0.03581078
v -0.02038729 0.01931223 0.03581078
v -0.02057000 -0.06768777 0.03564521
v -0.02057000 0.01931223 0.03564521
v -0.02057000 -0.06768777 0.03522021
v -0.02057000 0.01931223 0.03522021
v -0.02059679 -0.06768777 0.03512022
v -0.02059679 0.01931223 0.03512022
v -0.02067000 -0.06768777 0.03504701
v -0.02067000 0.01931223 0.03504701
v -0.02077000 -0.06768777 0.03502021
v -0.02077000 0.01931223 0.03502021
v -0.02117000 -0.06768777 0.03502021
v -0.02117000 0.01931223 0.03502021
v -0.02127000 -0.06768777 0.03504701
v -0.02127000 0.01931223 0.03504701
v -0.02134321 -0.06768777 0.03512022
v -0.02134321 0.01931223 0.03512022
v -0.02137000 -0.06768777 0.03522021
v -0.02137000 0.01931223 0.03522021
v -0.02137000 -0.06768777 0.03564521
v -0.02137000 0.01931223 0.03564521
v -0.02155271 -0.06768777 0.03581078
v -0.02155271 0.01931223 0.03581078
v -0.02167108 -0.06768777 0.03602707
v -0.02167108 0.01931223 0.03602707
v -0.02171204 -0.06768777 0.03627021
v -0.02171204 0.01931223 0.03627021
v -0.02277000 -0.06768777 0.03627021
v -0.02277000 0.01931223 0.03627021
v -0.02307000 -0.06768777 0.03597021
v -0.02307000 -0.03418777 0.03597021
v -0.02307000 0.01931223 0.03597021
v -0.02307000 0.01931223 0.02757021
v -0.02307000 -0.03418777 0.02757021
v -0.02307000 -0.06768777 0.02757021
v -0.02307000 -0.03418777 0.03499771
v -0.02307000 0.01931223 0.03499771
v -0.02307000 -0.02210012 0.02933839
v -0.02307000 -0.00672221 0.02980842
v -0.02293721 -0.00297891 0.03469456
v -0.02307000 0.01581123 0.03502021
v -0.02307000 -0.02418777 0.03497521
v -0.02307000 -0.00418777 0.03497521
v -0.02299863 -0.02676811 0.03378271
v -0.02307000 -0.00146787 0.03346554
v -0.02307000 0.01515701 0.03495369
v -0.02307000 -0.00118227 0.03288333
v -0.02306426 0.01904199 0.03079536
v -0.02294628 -0.02682633 0.03003492
v -0.02306713 -0.02554608 0.02878992
v -0.02307000 -0.00690768 0.03346554
v -0.02292795 0.01401050 0.03432005
v -0.02307000 -0.02386352 0.02858166
v -0.02307008 -0.02299186 0.02877786
v -0.02301765 -0.00334866 0.02870645
v -0.02301902 0.01355964 0.02935574
v -0.02298860 0.01258543 0.03205860
v -0.02306896 -0.00132672 0.03023910
v -0.02306686 0.01710034 0.02872002
v -0.02294937 -0.00667593 0.02986670
v -0.02306466 -0.02220571 0.03444578
v -0.02288954 0.01652587 0.02867197
v -0.02306800 -0.02090511 0.03181999
v -0.02306695 -0.06492332 0.02858184
v -0.02307000 -0.06768777 0.03499771
v -0.02307000 -0.06418777 0.03497521
v -0.02306751 -0.04096406 0.03115293
v -0.02296048 -0.06705113 0.03312174
v -0.02307000 -0.06165333 0.02980842
v -0.02306498 -0.04683556 0.02974828
v -0.02307000 -0.04418777 0.03497521
v -0.02306453 -0.06719004 0.03032728
v -0.02307000 -0.06146787 0.03346554
v -0.02306548 -0.04271911 0.02879431
v -0.02301168 -0.06287359 0.02890306
v -0.02302275 -0.04738983 0.03195785
v -0.02296150 -0.06100839 0.03203622
v -0.01668368 -0.06332412 0.03347328
v -0.01672035 -0.06235215 0.03154332
v -0.01677742 -0.06359239 0.03002363
v -0.01956838 -0.06525723 0.03445383
v -0.01956994 -0.06195278 0.03237481
v -0.01991296 -0.06114556 0.03222326
v -0.02258471 -0.06253572 0.03418244
v -0.01918198 -0.06690133 0.03167264
v -0.02025544 -0.06353228 0.02926992
v -0.02285565 -0.06662852 0.02972159
v -0.02294777 -0.06476440 0.03485794
v -0.01850646 -0.04536799 0.03281665
v -0.01678470 -0.04403640 0.03359754
v -0.01676915 -0.04244350 0.03216047
v -0.01669135 -0.04307992 0.03014658
v -0.01956881 -0.04152110 0.03233118
v -0.02006572 -0.04660625 0.03222662
v -0.02042361 -0.04439418 0.03466506
v -0.02031975 -0.04523370 0.02897686
v -0.01980582 -0.04305659 0.02964014
v -0.02295204 -0.04494256 0.02874468
v -0.02298266 -0.04552954 0.03480211
v -0.02195507 -0.04229466 0.03381529
v -0.02294436 -0.04123996 0.03339064
v -0.02286260 -0.04190458 0.02966840
v -0.01879008 -0.02406053 0.03016227
v -0.01957000 -0.02547039 0.03057233
v -0.01975739 -0.02644559 0.03253339
v -0.01814079 -0.02297887 0.03269904
v -0.01879050 -0.02294334 0.03048031
v -0.02037922 -0.02150759 0.03281253
v -0.02212530 -0.02390745 0.03460506
v -0.02006805 -0.02499972 0.03405150
v -0.02055975 -0.02630899 0.02961742
v -0.02143517 -0.02263737 0.02954478
v -0.01957000 -0.02325869 0.02889558
v -0.02289415 -0.02102905 0.03119622
v -0.01673873 -0.00227651 0.03193450
v -0.01956858 -0.00560593 0.02952834
v -0.01956872 -0.00684699 0.03264897
v -0.01956906 -0.00472976 0.03458661
v -0.01957000 -0.00418778 0.03354098
v -0.01956863 -0.00179038 0.03276109
v -0.01972967 -0.00193587 0.02981958
v -0.01957000 -0.00296553 0.03451542
v -0.02216422 -0.00120558 0.03121249
v -0.02296427 -0.00528839 0.02884795
v -0.02294353 -0.00726205 0.03184147
v -0.02295969 -0.00685503 0.03337490
v -0.02296725 -0.00559751 0.03453525
v -0.02287000 -0.00388377 0.02878063
v -0.01828376 0.01809629 0.03262217
v -0.01956927 0.01593132 0.02912896
v -0.01819832 0.01375793 0.03283667
v -0.01956961 0.01441921 0.03365137
v -0.01957000 0.01785513 0.03398739
v -0.01956980 0.01575521 0.03449341
v -0.02069985 0.01346905 0.03041930
v -0.02134158 0.01323246 0.03113135
v -0.01957000 0.01282766 0.03208380
v -0.02281877 0.01625899 0.03479420
v -0.02281940 0.01801058 0.03387410
v -0.02298820 0.01853202 0.03382645
v -0.02281941 0.01858525 0.03048221
v -0.00500000 -0.00926225 -0.02849482
v -0.00883333 -0.00930167 -0.03108876
v -0.00879167 -0.01395013 -0.02959927
v -0.00739474 0.00710953 -0.02852530
v -0.00763934 0.01153412 -0.03280355
v -0.00564188 0.01317797 -0.02406049
v -0.01200000 0.00487827 -0.03486517
v -0.01341978 0.00131387 -0.02687410
v -0.01200000 -0.00848739 -0.04090214
v -0.01234544 -0.01409089 -0.04019816
v -0.01618496 -0.00584592 -0.04155153
v -0.00501307 -0.01474010 -0.03650032
v -0.00500094 -0.00074822 -0.04079201
v -0.00784091 -0.01518777 -0.02401006
v -0.00892172 -0.00946117 -0.04124725
v -0.00840755 -0.00347560 -0.04375884
v -0.02132843 -0.02248596 -0.04522347
v -0.00806351 -0.02363778 -0.04643970
v -0.00805019 -0.02363760 -0.04643949
v -0.00797548 -0.02362238 -0.04641258
v -0.00830906 -0.02262064 -0.04539198
v -0.02194981 -0.02363760 -0.04643949
v -0.02193649 -0.02363778 -0.04643970
v -0.01009943 -0.01941029 -0.04238041
v -0.02209900 -0.01988456 -0.04329118
v -0.01118413 -0.00084991 -0.04553622
v -0.02159579 0.00105588 -0.04852464
v -0.00780817 0.00151777 -0.05058383
v -0.01207937 0.00378584 -0.05433088
v -0.02075908 -0.00173904 -0.06771035
v -0.01498104 -0.00809133 -0.07154243
v -0.02215181 -0.00885561 -0.07056572
v -0.00881186 -0.01274908 -0.07161605
v -0.01813335 -0.01992126 -0.07053257
v -0.01515772 -0.01979204 -0.06978858
v -0.00867157 -0.02248596 -0.06703607
v -0.02193649 -0.02363778 -0.06581984
v -0.02175843 -0.02304689 -0.06647769
v -0.02194981 -0.02363760 -0.06582005
v -0.02196311 -0.02363706 -0.06582069
v -0.00844527 -0.02210707 -0.06735525
v -0.02132843 -0.02248596 -0.06703607
v -0.02177587 -0.02273631 -0.06675063
v -0.00806351 -0.02363778 -0.06581984
v -0.01918723 -0.02085440 -0.06287447
v -0.01040322 -0.02104879 -0.06273776
v -0.00964725 -0.02102603 -0.04890715
v -0.01054594 -0.02110559 -0.04984951
v -0.00918033 -0.02079032 -0.04813889
v -0.00786487 -0.02233711 -0.04790867
v -0.00805125 -0.02207177 -0.04823815
v -0.00781292 -0.02226978 -0.04726228
v -0.00767114 -0.02272218 -0.04742367
v -0.00819673 -0.02190622 -0.04845499
v -0.00830670 -0.02179855 -0.04860259
v -0.00858255 -0.02157844 -0.04892836
v -0.00866855 -0.02145814 -0.04839682
v -0.00872236 -0.02148889 -0.06318457
v -0.00868090 -0.02150795 -0.06349558
v -0.00805391 -0.02206846 -0.06401717
v -0.00833606 -0.02158586 -0.06437321
v -0.00846365 -0.02166558 -0.06346492
v -0.00789947 -0.02228212 -0.06428404
v -0.00803744 -0.02208911 -0.06404353
v -0.00978483 -0.02135752 -0.06253643
v -0.01420671 -0.01920150 -0.06450852
v -0.01488493 -0.01630662 -0.06611565
v -0.01168684 -0.01095519 -0.06702917
v -0.00996709 -0.00750238 -0.06628209
v -0.01065437 -0.00133722 -0.05453908
v -0.01063058 -0.00136606 -0.05799625
v -0.02054876 -0.02067751 -0.06398654
v -0.02106108 -0.02118835 -0.06380692
v -0.02213513 -0.02233711 -0.06435088
v -0.02194875 -0.02207177 -0.06402140
v -0.02223386 -0.02238898 -0.06485130
v -0.02075061 -0.02125311 -0.06270701
v -0.01952355 -0.02149803 -0.05414784
v -0.02180327 -0.02190622 -0.06380456
v -0.02169330 -0.02179855 -0.06365696
v -0.02141745 -0.02157844 -0.06333118
v -0.02091528 -0.02131136 -0.06284588
v -0.02127764 -0.02148889 -0.04907497
v -0.02131911 -0.02150795 -0.04876397
v -0.02194609 -0.02206846 -0.04824238
v -0.02176767 -0.02170515 -0.04774861
v -0.02153635 -0.02166558 -0.04879462
v -0.02210053 -0.02228212 -0.04797551
v -0.02196256 -0.02208911 -0.04821601
v -0.02090382 -0.02130691 -0.04942359
v -0.02074905 -0.02113518 -0.04878150
v -0.01970617 -0.02091673 -0.04921471
v -0.01268226 -0.02065588 -0.04921007
v -0.01094259 -0.01723847 -0.04642032
v -0.01824060 -0.01456644 -0.04544674
v -0.01219234 -0.00795757 -0.04609924
v -0.01217523 -0.00198274 -0.05233278
v -0.01877841 -0.00140305 -0.05413061
v -0.00760016 -0.02304553 -0.04638298
v -0.00800398 -0.02232287 -0.04536751
v -0.00810396 -0.02260516 -0.06677379
v -0.00798016 -0.02361169 -0.06590386
v -0.00763553 -0.02284984 -0.06569762
v -0.00772878 -0.02314263 -0.06609177
v -0.00766573 -0.02344071 -0.06578065
v -0.00765489 -0.02342593 -0.06577629
v -0.00757075 -0.02320053 -0.06574102
v -0.00756649 -0.02319232 -0.06569967
v -0.00757488 -0.02302670 -0.06558007
v -0.00797772 -0.02301818 -0.06643310
v -0.00782676 -0.02357817 -0.06581632
v -0.02238472 -0.02288738 -0.06514408
v -0.02240868 -0.02296132 -0.06571975
v -0.02231812 -0.02219482 -0.06622338
v -0.02230900 -0.02278273 -0.06615057
v -0.02201460 -0.02269904 -0.06663440
v -0.02212967 -0.02204520 -0.06720913
v -0.02120571 -0.01781206 -0.06645355
v -0.02183225 -0.01825068 -0.06716528
v -0.02238191 -0.01790379 -0.06824265
v -0.02170517 -0.01421389 -0.06839709
v -0.02182546 -0.01163574 -0.06870011
v -0.02162766 -0.01065444 -0.06834221
v -0.02207228 -0.01030414 -0.06901808
v -0.02258408 -0.00767735 -0.06948336
v -0.02187709 -0.00526758 -0.06653927
v -0.02085383 -0.00224868 -0.06147387
v -0.02144720 -0.00118068 -0.06101516
v -0.02257440 0.00134522 -0.05945594
v -0.02169248 0.00021177 -0.05736686
v -0.02230589 0.00147066 -0.05629048
v -0.01672183 -0.00658006 -0.06550949
v -0.02083716 -0.01382772 -0.06733252
v -0.01517064 -0.00291438 -0.06155007
v -0.01956450 -0.00106265 -0.05620501
v -0.02182142 -0.02259282 -0.04543653
v -0.02199662 -0.02359518 -0.04633152
v -0.02216161 -0.02245100 -0.04570628
v -0.02233215 -0.02275375 -0.04630464
v -0.02229256 -0.02254481 -0.04712217
v -0.02235454 -0.02279746 -0.04733590
v -0.02237164 -0.02284701 -0.04723134
v -0.02238488 -0.02288787 -0.04711377
v -0.02246177 -0.01722169 -0.04268928
v -0.01903250 -0.00939891 -0.04542767
v -0.01903459 -0.00248471 -0.05082285
v -0.02174046 -0.00626325 -0.04505118
v -0.02057707 -0.00673394 -0.04631931
v -0.02225729 0.00030718 -0.05115446
v -0.02153373 -0.00065250 -0.05203291
v -0.02080131 -0.00063920 -0.05452394
v -0.01954036 -0.00319510 -0.04956828
v -0.02112380 -0.00405049 -0.04768571
v -0.01954127 -0.01078657 -0.04508598
v -0.02115021 -0.01266528 -0.04439820
v -0.02125337 -0.01568167 -0.04479408
v -0.02120462 -0.01816865 -0.04595079
v -0.02227218 -0.01150782 -0.07068089
v -0.02195023 -0.01418328 -0.07087861
v -0.02205655 0.00086557 -0.06305120
v -0.02156247 0.00170595 -0.06172088
v -0.02205674 0.00281615 -0.05629812
v -0.02207451 -0.00396067 -0.06625160
v -0.02225555 -0.02188198 -0.06689393
v -0.02216319 -0.01893969 -0.06905957
v -0.02216319 -0.00179944 -0.06636945
v -0.02232199 -0.01568028 -0.06991335
v -0.02225768 -0.00072370 -0.06515504
v -0.02209611 0.00251375 -0.05558569
v -0.02219948 0.00209743 -0.05252869
v -0.02223977 -0.00012490 -0.04784019
v -0.02090482 -0.00611271 -0.04195630
v -0.02212851 -0.00254139 -0.04491816
v -0.02214232 -0.01509817 -0.04160392
v -0.02232831 -0.00817328 -0.04273338
v -0.02226160 -0.01068470 -0.04274295
v -0.02223408 -0.00880931 -0.04171465
v -0.02232831 -0.00001903 -0.04923766
v -0.02228885 -0.00438145 -0.04399375
v -0.02227811 -0.01684121 -0.04245030
v -0.02237737 -0.00623039 -0.04362829
v -0.02237691 -0.01348741 -0.04232820
v -0.02236196 -0.02304240 -0.06597495
v -0.02242437 -0.02324722 -0.06571838
v -0.02242061 -0.02301277 -0.06563491
v -0.02215171 -0.02359927 -0.06583719
v -0.02218418 -0.02357211 -0.06581504
v -0.02233740 -0.02343656 -0.06577944
v -0.02242061 -0.02301277 -0.04662464
v -0.02233193 -0.02344375 -0.04647797
v -0.02239865 -0.02327349 -0.04642643
v -0.02234509 -0.02342595 -0.04648325
v -0.02240042 -0.02292584 -0.04645484
v -0.02232617 -0.02346085 -0.04637965
v -0.00757129 -0.02322552 -0.04654759
v -0.00757939 -0.02301277 -0.04662464
v -0.00783100 -0.02357989 -0.04644189
v -0.00765625 -0.02342784 -0.04648269
v -0.00787841 -0.02302018 -0.04590495
v -0.00759970 -0.02293879 -0.04685161
v -0.00764546 -0.02279746 -0.06492364
v -0.00761512 -0.02288787 -0.06514578
v -0.00762836 -0.02284701 -0.06502821
v -0.00761528 -0.02288738 -0.04711546
v -0.00771632 -0.02253253 -0.06510197
v -0.00866784 -0.01894377 -0.06584008
v -0.00954092 -0.01197742 -0.06764149
v -0.00948039 -0.00076405 -0.05658415
v -0.00840427 -0.01656897 -0.06698030
v -0.00736740 -0.00186965 -0.06420322
v -0.00757137 -0.00024453 -0.06451004
v -0.00915135 -0.01682697 -0.06690125
v -0.00915135 -0.00753752 -0.06689648
v -0.00786448 -0.00122524 -0.06279020
v -0.00759655 -0.01253323 -0.06992475
v -0.00762341 -0.00488378 -0.06796503
v -0.00807253 -0.00037489 -0.05828195
v -0.00766489 0.00149758 -0.05504304
v -0.01026803 -0.00490266 -0.04769654
v -0.00799912 -0.01432605 -0.04382612
v -0.01032914 -0.01272851 -0.04505614
v -0.01073841 -0.02043257 -0.04871433
v -0.00755780 0.00006569 -0.04843080
v -0.00905755 -0.00056068 -0.05426712
v -0.00780839 -0.00180047 -0.04808250
v -0.00989431 -0.00334711 -0.04914470
v -0.00775385 -0.01027794 -0.04314925
v -0.00830467 -0.01523986 -0.04410821
v -0.00914961 -0.01761744 -0.04578626
v -0.00907433 -0.01965254 -0.04701717
v -0.00797631 0.00023034 -0.05231549
v -0.00776546 -0.00350815 -0.04589957
v -0.00770812 -0.02247324 -0.04703138
v -0.00766904 -0.02245390 -0.04609950
v -0.00828173 -0.01928344 -0.04293149
v -0.00822667 -0.00754015 -0.04193754
v -0.00814838 0.00190025 -0.05134834
v -0.00882683 0.00274506 -0.06056397
v -0.00776272 0.00210003 -0.05292897
v -0.00892092 -0.00364464 -0.06884996
v -0.00813057 -0.00110009 -0.06602472
v -0.00768349 -0.00487391 -0.06876863
v -0.00792494 -0.00799813 -0.07027096
v -0.00814549 -0.01129612 -0.07097762
v -0.00775805 -0.01827154 -0.06940445
v -0.00809796 -0.02073363 -0.06826386
v -0.00776611 -0.02259414 -0.06635864
v -0.00767169 0.00034693 -0.06233143
v -0.00767169 0.00152696 -0.05886573
v -0.00758553 -0.01760190 -0.04309389
v -0.00783680 -0.01521716 -0.04186128
v -0.00783680 -0.01141016 -0.04156397
v -0.00783680 -0.00951030 -0.04179108
v -0.00759228 -0.00686096 -0.04297161
v -0.00783680 -0.00421333 -0.04391603
v -0.00768978 -0.01975866 -0.04401149
v -0.00766912 0.00199176 -0.05680762
v -0.00477097 -0.01596997 0.03724824
v -0.00018982 -0.01704455 -0.02540949
v -0.00039016 0.00899170 0.03643913
v 0.03599996 -0.01168776 0.01869883
v 0.07143347 -0.02337693 0.00869129
v 0.07451778 -0.02600303 0.00441098
v 0.00000000 -0.01299894 -0.01927262
v 0.00000000 -0.01412230 -0.03414494
v -0.00000000 0.00540810 0.01056646
v -0.00000000 0.00618876 -0.00211925
v -0.00000000 0.00829066 -0.03334479
v 0.00000000 -0.01274658 -0.03131951
v -0.00269231 0.00898094 -0.02838629
v -0.00000000 0.00564366 -0.02459405
v 0.00003552 0.00326344 -0.01925968
v 0.00000000 -0.01299894 0.03181310
v 0.00000000 -0.00894152 0.01262434
v -0.00000000 0.00488424 0.01733560
v 0.00000000 0.01086667 -0.03104129
v -0.00000000 0.01231030 -0.03272976
v -0.00115200 -0.00311653 -0.00249151
v 0.00000000 -0.00896868 0.00027981
v -0.00000000 0.01076592 -0.03413412
v -0.00500000 -0.01198777 -0.02884412
v -0.00500000 0.00648723 -0.03422976
v -0.00500000 0.00804875 -0.03204241
v -0.00500000 0.00648723 -0.01572975
v -0.00500000 0.00648723 0.00627024
v -0.00500000 0.01216394 0.03402043
v -0.00500000 0.00612513 0.03677024
v -0.00500000 -0.00056486 0.01421093
v -0.00396154 0.00572797 0.01221131
v -0.00456216 0.00478392 -0.00084374
v -0.00500000 -0.00846277 0.03677024
v -0.00500000 -0.01092933 -0.00086486
v -0.00392000 -0.00752476 0.01258548
v -0.00410000 -0.00366316 -0.00204275
v -0.00380000 -0.00496836 0.00089147
v -0.00500000 -0.01567087 -0.03379238
v -0.00233333 -0.01117164 -0.03030364
v -0.00500000 -0.00928352 -0.03093976
v -0.00392000 0.00637845 0.01529107
v -0.00320000 0.00292750 0.01587797
v -0.00320000 0.00274314 0.01139687
v -0.00320000 0.00504347 0.01160534
v -0.00320000 -0.00325987 0.01274003
v -0.00410000 -0.00490256 0.01585125
v -0.00056471 -0.00218530 0.01554965
v -0.00320000 -0.00725686 0.01139687
v -0.00320000 -0.00495653 0.01160534
v -0.00320000 -0.00833585 0.01527021
v -0.00320000 -0.00723777 0.01636829
v -0.00320000 0.00166415 0.01227021
v -0.00320000 0.00126223 0.01377021
v -0.00320000 0.00663557 -0.00274882
v -0.00320000 0.00329248 0.00062007
v -0.00125217 0.00166776 0.00029551
v -0.00320000 0.00209735 -0.00201097
v -0.00320000 0.00274314 -0.00360307
v -0.00320000 0.00504347 -0.00339461
v -0.00320000 -0.00775801 0.00022692
v -0.00320000 -0.00719443 -0.00324997
v -0.00320000 0.00520864 0.00170232
v -0.01575182 -0.06696684 0.03563974
v -0.01657000 -0.04358777 0.03627021
v -0.01407000 -0.05844118 0.02778367
v -0.01525056 -0.05901054 0.03527262
v -0.01515696 -0.04725781 0.03355960
v -0.01532000 -0.04789172 0.02940894
v -0.01657000 -0.05736158 0.02803201
v -0.01552833 -0.06155501 0.03132202
v -0.01657000 -0.06140724 0.03219716
v -0.01657000 -0.04691171 0.03122103
v -0.02307000 -0.06768777 0.02577021
v -0.01657000 -0.06883759 0.02359447
v -0.01584586 -0.06540346 0.03255734
v -0.01357000 -0.06674983 0.03315377
v -0.01357000 -0.06343505 0.03280048
v -0.01657000 -0.06288319 0.03198639
v -0.01357000 -0.06296911 0.03204836
v -0.01357000 -0.06296911 0.03149206
v -0.01530684 -0.06375988 0.03048336
v -0.01357000 -0.04365391 0.03312077
v -0.01357000 -0.04516506 0.03254957
v -0.01357000 -0.04540643 0.03204836
v -0.01357000 -0.04540643 0.03149206
v -0.01357000 -0.04516506 0.03099085
v -0.01357000 -0.04473013 0.03064400
v -0.01657000 -0.04523789 0.03185142
v -0.01515824 -0.04250920 0.03151677
v -0.01357000 -0.04235473 0.03568137
v -0.01357000 -0.02892071 0.01730633
v -0.01357000 -0.06059269 0.01838834
v -0.01357000 -0.04462867 0.01730633
v -0.01357000 -0.06852871 0.01734707
v -0.01357000 -0.06808621 0.01987475
v -0.01587769 -0.04093875 0.01795856
v -0.01357000 -0.04016851 0.02224866
v -0.01453000 -0.03313377 0.01934369
v -0.01357000 -0.05880289 0.02022021
v -0.01357000 -0.05770680 0.02022021
v -0.01357000 -0.05399478 0.01917259
v -0.01612000 -0.03493734 0.01834607
v -0.01357000 -0.05248265 0.01730633
v -0.01479727 -0.02056327 0.02173644
v -0.01657000 -0.06795403 0.01730633
v -0.01657000 -0.05729248 0.01950782
v -0.01657000 -0.06282170 0.01961383
v -0.01657000 -0.02749342 0.01893061
v -0.01657000 -0.04343615 0.01928271
v -0.01514143 -0.02532181 0.01981045
v -0.01537000 -0.04722627 0.01875200
v -0.01657000 -0.05010178 0.01833219
v -0.01657000 -0.03881956 0.02090958
v -0.01657000 -0.05617305 0.01730633
v -0.02307000 -0.05732111 0.02557021
v -0.00800000 -0.00715391 0.01428855
v -0.00800000 0.00315257 -0.00039630
v -0.00800000 0.00278229 -0.00380972
v -0.00800000 0.00584972 -0.00126134
v -0.00800000 -0.00432164 0.01325187
v -0.00740909 0.00364251 0.02169134
v -0.00800000 0.00519754 0.01196749
v -0.00800000 0.00608025 0.01353397
v -0.00800000 -0.00745037 -0.00261653
v -0.00800000 -0.00478739 -0.00026030
v -0.00800000 -0.00736269 0.00824557
v -0.00800003 0.00641505 0.02684012
v -0.00800012 -0.00792208 0.02692078
v -0.00715789 -0.00617426 0.02062812
v -0.00800000 0.00671223 -0.00372979
v -0.02500000 0.01881223 0.02327021
v -0.00500000 0.01881223 0.02327021
v -0.00500000 0.01687152 0.03624212
v -0.01657000 -0.02737114 0.03212960
v -0.00500000 0.00292235 -0.00132644
v -0.00500000 -0.00293777 0.03177021
v -0.00500000 0.01458758 0.02960390
v -0.00500000 0.01668471 0.03359041
v -0.00500000 0.01689476 0.03114521
v -0.00500000 0.01524524 0.02702021
v -0.00500000 0.01531223 0.02677021
v -0.00500000 0.01531223 0.02277021
v -0.00500000 0.01002092 0.02727735
v -0.00500000 -0.00405938 0.03028987
v -0.00500000 0.00520032 0.01255821
v -0.00600000 0.00487406 0.01452989
v -0.00500000 0.00667715 -0.00249508
v -0.00592593 -0.00360847 -0.00969931
v -0.00500000 0.00738652 -0.00719969
v -0.00500000 -0.00679369 -0.00268700
v -0.00500000 -0.00768295 -0.00018432
v -0.00500000 -0.00707267 0.01329277
v -0.00500000 -0.02282563 0.03055654
v -0.00500000 -0.02717668 0.03124288
v -0.00500000 -0.01039586 0.02622658
v -0.00500000 -0.02541582 0.02736719
v -0.00500000 -0.02534480 0.03622626
v -0.00500000 0.01867825 0.02277021
v -0.00500000 0.01831223 0.02240419
v -0.00500000 0.01781223 0.02227021
v -0.00500000 0.01581223 0.02227021
v -0.00500000 0.01556223 0.02233720
v -0.00500000 0.01537921 0.02252021
v -0.00500000 -0.00470611 0.03413523
v -0.00500000 -0.00583443 0.01511009
v -0.00500000 -0.00439156 0.01314124
v -0.01226490 -0.00799445 0.02678147
v -0.01519150 0.00706323 0.02734842
v -0.01657000 -0.00303081 0.03273745
v -0.01657000 0.01827274 0.03341098
v -0.01657000 0.01437225 0.03078817
v -0.01657000 0.01715211 0.03167356
v -0.01657000 -0.02214630 0.03185045
v -0.01068731 0.00751795 0.02338923
v -0.00846154 -0.00973352 -0.00636547
v -0.01000000 0.00835371 -0.00632767
v -0.01657000 0.01029057 0.03659937
v -0.01657000 -0.02446971 0.03358288
v -0.01657000 -0.02581602 0.02738938
v -0.01657000 -0.02569510 0.03043829
v -0.00755556 0.00409182 0.01647430
v -0.00600000 0.00226223 0.01670021
v -0.00720000 -0.00500441 0.01687678
v -0.00766667 -0.00419771 -0.00086653
v -0.00772414 -0.00639857 0.00053595
v -0.00600000 -0.00766696 0.00621699
v -0.00711111 0.00029677 0.01183394
v -0.00600000 0.00551336 0.00774480
v -0.00664000 0.00434439 0.00023581
v -0.00600000 0.00323460 -0.00039880
v -0.00600000 -0.00073777 -0.00152979
v -0.02500000 0.01581223 0.02227021
v -0.02500000 0.01781223 0.02227021
v -0.02500000 0.01531223 0.02277021
v -0.01657000 0.01531223 0.02677021
v -0.02500000 0.01531223 0.02677021
v -0.01657000 0.01870883 0.02728337
v -0.02500000 0.01806685 0.02757061
v -0.02500000 0.01537921 0.02702021
v -0.02500000 0.01556223 0.02233720
v -0.02500000 0.01537921 0.02252021
v -0.02500000 0.01831223 0.02240419
v -0.02500000 0.01867825 0.02277021
v -0.01657000 0.01537921 0.02702021
v -0.01657000 0.01556223 0.02720323
v -0.01657000 0.01524524 0.02702021
v -0.01657000 0.01271934 0.02893174
v -0.01087733 -0.00910842 0.02396313
v -0.00944444 -0.00777968 -0.00571584
v -0.00864516 0.00665723 -0.00434295
v -0.01000000 0.00555815 -0.00709792
v -0.01000000 0.00032213 -0.00843337
v -0.01657000 0.01179003 0.02900847
v -0.01657000 -0.00231277 0.03627021
v -0.01657000 -0.00604465 0.03236811
v -0.01657000 -0.01975445 0.02893347
v -0.01657000 -0.00530216 0.03032779
v -0.01657000 -0.02122354 0.03597337
v -0.00607000 0.01339612 0.03053654
v -0.00607000 -0.00211034 0.02996942
v -0.00607000 0.01053083 0.03533447
v -0.00607000 -0.00613156 0.03281593
v -0.00607000 -0.02194267 0.03012815
v -0.00607000 -0.01998942 0.03447312
v -0.01205320 0.00644428 0.02627021
v -0.01235643 0.00571223 0.02700226
v -0.01619530 -0.00212571 0.02885666
f 1 2 3
f 3 2 4
f 3 4 5
f 5 4 6
f 5 6 7
f 7 6 8
f 7 8 9
f 9 8 10
f 9 10 11
f 11 10 12
f 11 12 13
f 13 12 14
f 13 14 15
f 15 14 16
f 15 16 17
f 17 16 18
f 17 18 19
f 19 18 20
f 19 20 21
f 21 20 22
f 21 22 23
f 23 22 24
f 23 24 25
f 25 24 26
f 25 26 27
f 27 26 28
f 27 28 29
f 29 28 30
f 29 30 31
f 31 30 32
f 31 32 33
f 33 32 34
f 33 34 35
f 35 34 36
f 37 35 38
f 38 35 36
f 38 36 39
f 43 44 45
f 46 53 47
f 46 47 167
f 49 48 37
f 49 37 42
f 49 50 48
f 45 44 51
f 51 44 52
f 51 52 46
f 46 52 53
f 38 40 37
f 37 40 42
f 45 168 43
f 43 168 40
f 43 40 54
f 41 181 38
f 38 181 54
f 38 54 40
f 48 50 167
f 48 167 55
f 56 41 57
f 56 57 58
f 58 57 55
f 58 55 47
f 55 167 47
f 38 39 59
f 220 60 64
f 220 64 65
f 61 218 39
f 38 68 66
f 64 204 65
f 65 204 67
f 65 67 59
f 59 67 68
f 38 59 68
f 70 71 72
f 69 41 73
f 73 41 38
f 63 62 74
f 74 62 195
f 72 71 75
f 75 71 76
f 75 76 66
f 66 76 77
f 72 74 70
f 70 74 195
f 66 77 78
f 66 78 38
f 38 78 73
f 57 79 80
f 80 79 60
f 80 60 61
f 61 60 220
f 61 220 218
f 69 81 41
f 41 81 57
f 57 81 82
f 57 82 79
f 79 82 62
f 79 62 63
f 80 83 57
f 57 83 84
f 57 84 55
f 84 83 85
f 85 83 86
f 85 86 87
f 87 86 88
f 87 88 89
f 89 88 90
f 89 90 91
f 91 90 92
f 91 92 93
f 93 92 94
f 93 94 95
f 95 94 96
f 95 96 97
f 97 96 98
f 97 98 99
f 99 98 100
f 99 100 101
f 101 100 102
f 101 102 103
f 103 102 104
f 103 104 105
f 105 104 106
f 105 106 107
f 107 106 108
f 107 108 109
f 109 108 110
f 109 110 111
f 111 110 112
f 111 112 113
f 113 112 114
f 113 114 115
f 115 114 116
f 115 116 117
f 117 116 118
f 119 117 120
f 120 117 118
f 120 118 121
f 122 2 123
f 123 2 1
f 123 1 124
f 143 127 128
f 122 137 126
f 126 137 229
f 131 198 125
f 130 129 132
f 130 132 131
f 131 132 129
f 131 129 216
f 198 133 125
f 129 130 134
f 134 130 135
f 134 135 136
f 213 123 128
f 125 133 123
f 123 133 138
f 138 139 123
f 131 216 140
f 135 141 136
f 123 139 142
f 123 142 128
f 128 142 143
f 123 213 144
f 123 144 122
f 144 146 145
f 146 212 136
f 146 136 141
f 144 147 146
f 146 147 212
f 203 149 127
f 127 149 128
f 140 150 131
f 122 148 137
f 215 150 140
f 145 151 144
f 144 151 122
f 122 151 148
f 149 203 152
f 149 152 214
f 214 152 215
f 215 152 150
f 126 229 130
f 126 130 121
f 131 125 130
f 130 125 120
f 130 120 121
f 154 155 177
f 123 163 156
f 124 161 153
f 154 177 157
f 125 190 160
f 154 157 161
f 154 161 124
f 123 164 158
f 160 188 162
f 162 173 160
f 159 187 158
f 158 187 123
f 123 187 163
f 123 156 125
f 125 156 190
f 124 153 123
f 123 153 164
f 162 188 165
f 158 166 159
f 159 166 165
f 165 166 162
f 119 120 154
f 154 120 125
f 154 125 155
f 155 125 160
f 155 160 173
f 46 167 51
f 167 168 51
f 51 168 45
f 168 169 40
f 40 169 42
f 42 169 174
f 175 174 169
f 174 49 42
f 170 50 49
f 171 50 170
f 171 167 50
f 171 168 167
f 171 169 168
f 175 169 171
f 171 170 173
f 49 174 170
f 171 172 175
f 175 176 174
f 174 176 157
f 174 157 170
f 170 157 177
f 170 177 173
f 171 173 166
f 171 166 172
f 161 157 176
f 161 176 153
f 153 176 175
f 153 175 164
f 164 175 158
f 158 175 166
f 175 172 166
f 162 166 173
f 173 177 155
f 54 178 43
f 43 178 44
f 44 178 52
f 52 178 53
f 53 179 47
f 47 179 58
f 58 179 56
f 56 180 41
f 180 181 41
f 183 178 54
f 178 179 53
f 182 179 178
f 182 56 179
f 182 180 56
f 186 181 182
f 182 181 180
f 54 181 186
f 178 184 182
f 182 184 189
f 178 183 184
f 54 185 183
f 54 186 185
f 185 165 183
f 183 188 184
f 182 189 190
f 190 191 182
f 182 191 186
f 186 187 185
f 188 183 165
f 165 185 159
f 159 185 187
f 187 186 163
f 163 186 191
f 163 191 156
f 156 191 190
f 189 184 190
f 184 188 190
f 190 188 160
f 78 192 73
f 81 195 82
f 82 195 62
f 70 195 71
f 195 196 71
f 71 196 76
f 76 196 77
f 78 77 192
f 194 73 193
f 193 73 192
f 194 69 73
f 199 81 194
f 194 81 69
f 199 195 81
f 192 77 196
f 199 198 195
f 195 198 197
f 192 200 193
f 193 200 194
f 195 197 196
f 196 201 202
f 196 202 192
f 192 202 200
f 194 200 133
f 197 203 196
f 196 203 201
f 202 201 200
f 133 198 199
f 133 199 194
f 133 200 138
f 139 138 200
f 139 200 142
f 142 200 201
f 142 201 143
f 143 201 127
f 127 201 203
f 152 203 150
f 203 197 150
f 197 198 150
f 150 198 131
f 68 74 66
f 66 74 75
f 75 74 72
f 63 60 79
f 60 204 64
f 67 204 68
f 206 74 205
f 205 74 68
f 207 74 206
f 207 63 74
f 208 60 207
f 207 60 63
f 209 60 208
f 209 204 60
f 68 204 209
f 205 68 210
f 208 207 209
f 209 207 211
f 209 212 68
f 68 212 210
f 205 213 149
f 205 149 206
f 206 149 214
f 206 214 215
f 206 215 207
f 207 215 216
f 216 129 207
f 207 129 211
f 211 129 209
f 209 129 212
f 210 212 144
f 210 217 205
f 205 217 213
f 216 215 140
f 128 149 213
f 144 213 217
f 217 210 144
f 144 212 147
f 136 212 134
f 134 212 129
f 220 223 218
f 39 219 220
f 39 220 59
f 59 220 65
f 220 221 223
f 222 218 223
f 219 224 220
f 220 224 225
f 220 225 226
f 223 227 228
f 223 228 222
f 222 228 218
f 218 228 229
f 229 230 218
f 218 230 39
f 39 230 151
f 39 151 219
f 219 151 145
f 219 145 224
f 145 146 224
f 224 146 225
f 226 225 146
f 226 146 220
f 220 146 141
f 220 141 221
f 221 141 223
f 223 141 227
f 148 151 137
f 151 230 137
f 137 230 229
f 228 227 229
f 229 227 130
f 130 227 135
f 135 227 141
f 126 16 14
f 12 10 8
f 98 22 20
f 36 34 39
f 39 34 32
f 39 32 61
f 61 32 30
f 61 30 28
f 22 80 24
f 24 80 61
f 24 61 26
f 26 61 28
f 14 12 126
f 126 12 8
f 126 8 122
f 122 8 6
f 122 6 2
f 2 6 4
f 118 116 121
f 121 116 114
f 121 114 126
f 126 114 112
f 126 112 110
f 22 98 80
f 80 98 96
f 80 96 94
f 86 83 88
f 88 83 80
f 88 80 90
f 90 80 94
f 90 94 92
f 110 108 126
f 126 108 106
f 126 106 16
f 16 106 104
f 16 104 18
f 18 104 102
f 18 102 20
f 20 102 100
f 20 100 98
f 13 15 154
f 13 154 11
f 19 21 99
f 55 21 48
f 48 21 23
f 25 27 29
f 1 3 124
f 124 3 5
f 124 5 154
f 154 5 7
f 154 7 11
f 11 7 9
f 107 109 111
f 55 89 91
f 23 25 48
f 48 25 29
f 48 29 37
f 37 29 31
f 37 31 35
f 35 31 33
f 84 85 55
f 55 85 87
f 55 87 89
f 91 93 55
f 55 93 95
f 55 95 21
f 21 95 97
f 21 97 99
f 115 117 113
f 113 117 119
f 113 119 111
f 111 119 154
f 111 154 107
f 19 99 17
f 17 99 101
f 17 101 15
f 15 101 103
f 15 103 154
f 154 103 105
f 154 105 107
f 232 231 233
f 238 234 235
f 234 237 235
f 241 238 237
f 232 244 238
f 238 244 236
f 238 236 234
f 244 232 233
f 237 238 235
f 239 232 238
f 232 239 240
f 232 240 233
f 236 235 234
f 244 233 240
f 241 240 239
f 241 239 238
f 236 234 235
f 231 234 244
f 244 233 231
f 244 234 236
f 242 243 232
f 232 243 234
f 232 234 231
f 242 232 233
f 242 233 244
f 246 241 243
f 243 241 237
f 243 237 234
f 242 244 240
f 242 240 245
f 242 245 243
f 243 245 246
f 402 407 241
f 241 407 240
f 240 404 254
f 245 466 246
f 246 256 241
f 247 248 250
f 250 248 249
f 250 251 247
f 247 251 255
f 247 367 248
f 248 367 253
f 253 367 252
f 251 254 255
f 254 465 240
f 403 241 256
f 259 257 258
f 468 441 260
f 266 267 268
f 268 267 269
f 268 269 270
f 265 271 272
f 272 271 266
f 272 266 273
f 273 266 268
f 266 332 267
f 267 332 274
f 280 281 282
f 280 282 283
f 287 281 284
f 284 285 287
f 287 285 286
f 281 287 282
f 287 295 277
f 277 278 323
f 277 323 452
f 287 277 279
f 288 289 295
f 290 291 292
f 292 291 289
f 293 435 291
f 293 291 294
f 294 291 290
f 289 291 295
f 276 295 436
f 275 276 296
f 304 305 306
f 275 307 308
f 303 305 309
f 309 310 303
f 303 310 311
f 303 311 312
f 305 303 306
f 312 307 275
f 312 275 303
f 277 276 278
f 278 276 275
f 308 323 275
f 275 323 278
f 313 314 321
f 315 316 317
f 317 316 314
f 318 370 316
f 318 316 319
f 319 316 315
f 321 320 313
f 314 316 321
f 322 323 308
f 322 308 321
f 323 387 324
f 451 375 326
f 449 376 327
f 330 429 464
f 266 331 332
f 340 331 477
f 340 477 334
f 337 477 333
f 335 334 336
f 336 334 477
f 336 477 337
f 338 337 333
f 338 333 339
f 332 331 340
f 332 340 341
f 340 334 341
f 341 334 335
f 342 306 343
f 344 345 306
f 306 345 343
f 346 345 344
f 346 394 347
f 358 301 365
f 365 301 300
f 357 301 358
f 357 364 447
f 356 364 357
f 362 363 298
f 363 297 439
f 363 348 297
f 275 296 348
f 348 296 297
f 306 303 348
f 303 302 348
f 349 348 350
f 350 348 363
f 352 351 362
f 352 362 353
f 355 354 364
f 355 364 356
f 359 358 360
f 360 358 365
f 360 365 328
f 303 275 302
f 302 275 348
f 351 363 362
f 354 353 362
f 354 362 364
f 356 357 393
f 247 366 367
f 370 371 372
f 372 373 370
f 370 373 423
f 370 423 369
f 374 316 370
f 374 321 316
f 386 324 387
f 322 387 323
f 324 386 325
f 384 375 451
f 384 451 385
f 385 451 325
f 326 375 378
f 382 376 449
f 382 449 383
f 383 449 378
f 327 376 328
f 365 300 328
f 380 361 381
f 381 361 360
f 360 328 381
f 380 382 383
f 380 383 379
f 377 384 385
f 377 385 411
f 406 385 386
f 412 386 387
f 374 387 321
f 381 328 380
f 380 328 376
f 380 376 382
f 378 375 377
f 377 375 384
f 385 325 386
f 387 322 321
f 394 346 344
f 265 272 347
f 265 347 264
f 262 261 263
f 262 263 388
f 388 263 389
f 389 263 264
f 261 355 260
f 260 398 390
f 260 390 468
f 392 468 359
f 359 468 391
f 390 391 468
f 361 392 360
f 360 392 359
f 358 359 398
f 358 398 357
f 357 398 393
f 355 262 354
f 354 388 353
f 353 388 352
f 352 388 351
f 351 388 397
f 351 397 363
f 363 397 350
f 350 347 349
f 349 347 394
f 349 394 348
f 348 394 344
f 348 344 306
f 347 395 264
f 261 262 355
f 260 396 398
f 391 390 359
f 395 350 264
f 264 350 397
f 264 397 389
f 395 347 350
f 397 388 389
f 388 354 262
f 355 356 260
f 260 356 393
f 260 393 396
f 396 393 398
f 398 359 390
f 399 392 361
f 259 392 399
f 259 400 257
f 257 401 403
f 257 403 256
f 255 254 404
f 255 366 247
f 403 377 409
f 409 377 411
f 405 411 385
f 405 385 406
f 407 406 386
f 407 386 412
f 404 412 387
f 404 387 374
f 374 370 255
f 255 370 369
f 403 401 377
f 377 401 378
f 378 401 408
f 378 408 383
f 383 408 379
f 379 400 380
f 380 400 361
f 399 400 259
f 403 409 241
f 241 409 402
f 404 410 255
f 255 410 374
f 409 411 402
f 407 412 240
f 240 412 404
f 366 255 368
f 399 361 400
f 400 379 257
f 257 379 408
f 257 408 401
f 411 405 402
f 402 405 406
f 402 406 407
f 404 374 410
f 255 369 368
f 273 347 272
f 414 415 343
f 416 417 418
f 413 345 346
f 343 345 413
f 343 413 414
f 414 413 418
f 418 413 346
f 418 346 416
f 416 346 273
f 346 347 273
f 273 268 416
f 416 268 270
f 311 310 317
f 370 304 371
f 371 304 306
f 373 372 342
f 342 372 371
f 342 371 306
f 342 343 373
f 373 343 415
f 373 415 423
f 423 415 419
f 304 370 318
f 304 318 305
f 305 318 319
f 305 319 315
f 317 310 315
f 315 310 309
f 315 309 305
f 317 314 311
f 311 314 313
f 311 313 312
f 312 313 320
f 312 320 307
f 307 320 321
f 307 321 308
f 423 419 421
f 420 421 422
f 369 423 368
f 368 423 421
f 368 421 424
f 368 424 366
f 367 366 424
f 424 421 420
f 267 274 253
f 253 274 248
f 267 253 269
f 269 253 252
f 269 252 270
f 367 417 252
f 252 417 416
f 252 416 270
f 367 424 417
f 417 424 420
f 417 420 418
f 418 420 422
f 418 422 414
f 422 421 414
f 414 421 419
f 414 419 415
f 425 426 329
f 329 464 429
f 425 329 428
f 428 329 429
f 251 429 330
f 251 250 429
f 429 250 427
f 429 427 428
f 286 285 292
f 430 329 426
f 435 280 431
f 431 280 283
f 432 433 434
f 434 433 431
f 434 431 283
f 434 430 432
f 432 430 426
f 432 426 339
f 280 435 293
f 280 293 281
f 281 293 294
f 281 294 290
f 292 285 290
f 290 285 284
f 290 284 281
f 295 276 277
f 292 289 286
f 286 289 288
f 286 288 287
f 287 288 295
f 339 426 338
f 338 426 425
f 338 425 337
f 337 425 336
f 336 425 428
f 336 428 335
f 335 428 427
f 335 427 341
f 248 274 249
f 249 274 332
f 427 250 341
f 341 250 249
f 341 249 332
f 435 431 433
f 433 432 435
f 435 432 339
f 435 339 333
f 296 276 436
f 296 436 297
f 439 437 363
f 362 298 437
f 437 298 363
f 299 440 362
f 440 364 362
f 357 447 301
f 301 438 300
f 291 435 436
f 436 442 297
f 297 442 439
f 437 443 362
f 362 443 299
f 440 444 364
f 364 444 447
f 437 446 443
f 447 448 301
f 301 448 438
f 295 291 436
f 436 439 442
f 439 445 437
f 445 472 437
f 437 472 446
f 443 446 299
f 299 446 440
f 328 300 327
f 327 456 449
f 378 449 326
f 326 450 451
f 325 451 324
f 452 323 324
f 438 454 300
f 300 455 327
f 327 455 456
f 326 449 457
f 326 457 450
f 450 458 451
f 324 459 460
f 324 460 277
f 324 277 452
f 277 460 279
f 438 448 454
f 454 461 300
f 300 461 455
f 456 462 449
f 324 451 459
f 460 287 279
f 454 448 461
f 455 453 462
f 455 462 456
f 462 484 449
f 449 484 457
f 458 480 451
f 451 480 459
f 459 480 460
f 460 480 282
f 460 282 287
f 283 282 463
f 283 463 464
f 283 464 434
f 434 464 430
f 430 464 329
f 254 251 330
f 256 453 257
f 257 453 258
f 468 392 259
f 469 259 467
f 467 259 258
f 440 470 471
f 471 470 260
f 471 260 441
f 260 470 261
f 261 470 472
f 261 472 473
f 261 474 263
f 265 264 475
f 265 475 476
f 265 476 271
f 271 331 266
f 435 333 475
f 435 475 436
f 436 475 439
f 441 478 444
f 444 478 447
f 447 479 448
f 448 479 487
f 448 487 469
f 448 258 461
f 461 258 455
f 450 480 458
f 480 486 464
f 480 464 282
f 463 282 464
f 254 330 465
f 465 480 240
f 240 480 481
f 240 482 245
f 245 482 483
f 245 483 466
f 466 484 246
f 246 484 485
f 246 453 256
f 261 473 474
f 263 475 264
f 271 476 331
f 330 464 486
f 330 486 465
f 465 486 480
f 481 450 240
f 240 450 482
f 483 457 466
f 466 457 484
f 453 455 258
f 467 258 448
f 467 448 469
f 259 469 487
f 259 487 468
f 441 444 471
f 471 444 440
f 440 446 470
f 470 446 472
f 473 445 474
f 474 445 263
f 476 475 477
f 476 477 331
f 481 480 450
f 482 450 457
f 482 457 483
f 485 484 462
f 485 462 246
f 246 462 453
f 487 479 468
f 468 479 447
f 447 478 468
f 468 478 441
f 473 472 445
f 445 439 263
f 263 439 475
f 475 333 477
f 526 489 522
f 522 489 488
f 236 516 490
f 492 493 502
f 489 493 488
f 503 492 494
f 544 497 496
f 495 499 489
f 489 499 527
f 489 527 501
f 527 498 501
f 501 498 500
f 504 503 494
f 503 504 535
f 544 496 535
f 535 505 503
f 503 505 490
f 490 505 496
f 236 500 506
f 495 498 499
f 499 498 527
f 236 490 496
f 236 496 497
f 236 497 500
f 500 497 502
f 500 502 501
f 535 508 502
f 535 502 544
f 544 502 497
f 504 509 535
f 535 509 508
f 502 508 494
f 508 509 494
f 494 509 504
f 498 510 506
f 506 510 507
f 512 513 235
f 235 513 236
f 236 513 500
f 236 500 514
f 516 529 517
f 517 529 518
f 515 518 519
f 515 519 516
f 516 519 529
f 512 520 514
f 516 236 515
f 515 236 514
f 515 514 520
f 515 520 518
f 517 534 521
f 523 518 522
f 517 518 534
f 512 522 524
f 518 520 512
f 518 512 524
f 518 524 525
f 518 525 522
f 526 511 527
f 526 527 528
f 528 522 512
f 512 514 513
f 513 514 500
f 522 528 511
f 534 523 521
f 521 523 522
f 521 522 488
f 522 511 526
f 490 517 521
f 490 521 488
f 493 492 488
f 488 492 490
f 492 491 490
f 491 492 503
f 491 503 490
f 529 530 518
f 518 530 519
f 519 531 532
f 518 533 534
f 534 535 523
f 523 536 537
f 523 537 518
f 518 537 533
f 517 490 516
f 535 539 523
f 523 539 538
f 533 535 534
f 539 535 538
f 538 535 504
f 538 504 523
f 523 504 536
f 536 504 535
f 536 535 537
f 537 535 533
f 519 540 531
f 530 541 519
f 519 541 540
f 529 505 530
f 530 505 541
f 541 505 535
f 541 535 540
f 540 535 531
f 531 535 496
f 531 496 532
f 532 496 519
f 519 496 529
f 529 496 505
f 489 501 493
f 493 501 502
f 502 494 492
f 520 543 544
f 520 544 545
f 520 545 546
f 520 546 547
f 520 547 542
f 525 548 522
f 522 548 549
f 522 549 524
f 524 549 508
f 524 508 525
f 525 508 509
f 525 509 548
f 548 509 549
f 549 509 508
f 520 550 543
f 542 497 520
f 520 497 550
f 550 497 543
f 543 497 544
f 545 544 497
f 545 497 546
f 546 497 547
f 547 497 542
f 495 526 498
f 498 526 528
f 498 528 512
f 498 512 510
f 510 512 235
f 513 500 498
f 513 498 506
f 513 506 500
f 528 527 511
f 489 526 495
f 510 235 507
f 507 235 236
f 507 236 506
f 551 578 552
f 553 558 554
f 554 555 553
f 555 556 553
f 553 557 558
f 558 559 554
f 555 560 556
f 553 556 557
f 569 563 564
f 565 563 566
f 565 566 567
f 567 566 568
f 568 566 569
f 576 570 571
f 576 571 572
f 576 572 573
f 576 573 574
f 576 574 575
f 576 575 577
f 577 570 576
f 551 571 578
f 578 571 570
f 551 563 565
f 580 587 564
f 580 564 583
f 551 565 571
f 571 565 567
f 588 589 577
f 579 598 586
f 586 598 585
f 577 578 570
f 585 578 577
f 585 577 599
f 599 577 589
f 585 598 592
f 568 569 587
f 588 577 575
f 588 575 587
f 587 575 574
f 587 574 568
f 568 574 573
f 568 573 567
f 567 573 572
f 567 572 571
f 564 587 569
f 564 563 551
f 601 598 596
f 596 586 601
f 599 600 576
f 590 601 586
f 597 599 576
f 597 576 584
f 584 576 577
f 601 584 577
f 600 557 556
f 600 556 560
f 600 560 576
f 576 560 555
f 557 600 594
f 557 594 595
f 569 557 562
f 569 562 563
f 563 562 551
f 566 554 559
f 566 559 558
f 566 558 569
f 577 576 552
f 569 558 557
f 554 551 552
f 563 551 554
f 563 554 566
f 576 555 552
f 552 555 554
f 552 578 577
f 557 603 562
f 562 603 561
f 557 595 603
f 561 603 562
f 562 603 595
f 585 592 598
f 582 562 593
f 562 583 593
f 593 583 582
f 583 562 595
f 583 595 580
f 580 595 594
f 594 587 580
f 587 594 588
f 588 594 589
f 589 594 602
f 594 589 602
f 589 594 591
f 591 594 600
f 600 589 591
f 589 600 599
f 585 599 581
f 581 599 597
f 597 585 581
f 585 597 584
f 601 585 584
f 585 601 590
f 585 590 586
f 579 586 596
f 596 598 579
f 583 562 582
f 564 551 583
f 583 551 562
f 585 598 601
f 585 601 578
f 578 601 577
f 608 614 604
f 669 608 604
f 669 634 608
f 608 634 610
f 672 606 612
f 612 606 697
f 610 675 608
f 608 675 614
f 610 607 677
f 609 616 615
f 616 609 617
f 604 671 669
f 616 617 604
f 604 617 671
f 616 604 614
f 615 611 609
f 609 611 669
f 607 618 698
f 619 686 685
f 685 626 620
f 685 620 619
f 706 645 702
f 702 645 652
f 621 665 702
f 621 702 652
f 627 625 628
f 627 628 629
f 629 630 627
f 627 630 620
f 627 620 626
f 631 625 626
f 631 626 624
f 631 624 634
f 623 633 632
f 632 633 634
f 635 633 677
f 623 677 633
f 635 636 637
f 635 623 636
f 639 638 623
f 623 638 636
f 636 638 663
f 639 640 643
f 652 641 643
f 642 644 641
f 626 621 624
f 647 646 648
f 648 646 620
f 648 620 649
f 649 620 630
f 649 630 650
f 650 630 651
f 652 643 632
f 624 632 634
f 653 632 643
f 653 643 640
f 653 654 632
f 632 654 623
f 623 654 639
f 639 654 640
f 642 641 645
f 645 641 652
f 652 624 621
f 641 644 667
f 615 616 715
f 715 616 655
f 715 655 667
f 667 655 641
f 657 652 703
f 703 652 705
f 705 652 632
f 705 632 657
f 657 632 624
f 657 624 652
f 658 626 659
f 659 626 625
f 659 625 660
f 660 625 627
f 660 627 626
f 660 626 658
f 666 641 642
f 666 642 668
f 668 642 641
f 668 641 661
f 661 641 666
f 643 696 639
f 639 696 663
f 639 663 638
f 662 634 664
f 664 634 633
f 664 633 635
f 605 677 623
f 605 623 606
f 606 623 698
f 698 623 635
f 698 635 607
f 607 635 677
f 604 653 640
f 604 640 608
f 608 640 654
f 608 654 653
f 608 653 604
f 634 633 610
f 610 633 611
f 611 633 669
f 669 633 634
f 673 639 612
f 612 639 638
f 612 638 672
f 672 638 613
f 613 638 639
f 613 639 673
f 636 700 699
f 636 699 664
f 636 664 637
f 637 664 635
f 626 685 658
f 626 658 665
f 626 665 621
f 645 706 642
f 642 706 666
f 642 666 622
f 667 644 642
f 667 642 668
f 668 642 622
f 696 643 655
f 655 643 641
f 656 631 662
f 662 631 634
f 670 669 671
f 670 671 609
f 671 617 609
f 669 670 609
f 679 606 672
f 673 672 613
f 674 673 614
f 674 614 675
f 676 675 610
f 676 610 677
f 678 677 605
f 678 605 606
f 678 606 679
f 676 677 679
f 679 677 678
f 679 675 676
f 679 674 675
f 672 673 679
f 679 673 674
f 680 681 649
f 649 681 648
f 630 629 682
f 682 629 683
f 682 683 684
f 684 686 682
f 682 686 619
f 686 684 687
f 688 689 680
f 680 689 682
f 680 682 681
f 681 682 619
f 681 619 690
f 690 619 691
f 648 681 690
f 648 690 647
f 647 690 691
f 647 691 646
f 646 691 619
f 646 619 620
f 680 649 650
f 680 650 688
f 688 650 651
f 688 651 689
f 689 651 630
f 689 630 682
f 684 683 692
f 684 692 687
f 687 692 693
f 687 693 686
f 686 693 685
f 683 629 694
f 694 629 628
f 694 628 695
f 695 628 625
f 695 625 656
f 656 625 631
f 616 614 696
f 696 614 697
f 697 614 673
f 697 673 612
f 615 662 611
f 618 607 698
f 698 607 610
f 698 610 662
f 662 610 611
f 663 696 697
f 698 662 664
f 698 664 699
f 697 700 636
f 697 636 663
f 700 697 606
f 698 699 606
f 606 699 700
f 683 694 692
f 692 694 693
f 693 694 695
f 701 695 656
f 660 658 685
f 660 685 659
f 659 685 693
f 659 693 695
f 659 665 658
f 715 702 665
f 715 657 702
f 668 622 666
f 666 706 661
f 668 661 704
f 668 704 667
f 667 704 705
f 667 705 715
f 715 705 657
f 702 657 703
f 702 703 706
f 708 709 707
f 656 708 701
f 708 656 715
f 708 715 665
f 708 665 709
f 709 665 707
f 707 665 659
f 707 659 695
f 707 695 701
f 707 701 708
f 710 711 712
f 710 706 703
f 710 703 705
f 704 711 705
f 705 711 710
f 711 704 661
f 711 661 706
f 711 706 712
f 712 706 710
f 656 713 714
f 656 714 715
f 662 713 656
f 655 616 696
f 662 615 713
f 713 615 714
f 714 615 715

