# https://github.com/mikedh/trimesh
v 0.04986432 0.02114080 -0.03262710
v 0.05469035 -0.02138688 -0.02768640
v 0.04972091 -0.02135866 -0.03392115
v 0.05256318 0.02653725 -0.04105192
v 0.03682206 -0.01218387 -0.03937740
v 0.04781797 0.01140144 -0.04444213
v 0.02757131 -0.01112823 -0.02530532
v 0.02290262 0.00744288 -0.02530497
v 0.02580651 -0.01160779 -0.08566942
v 0.03152702 -0.01200001 -0.07130479
v 0.03140000 -0.01199837 -0.10724469
v 0.03140000 -0.01199918 -0.11773445
v 0.03140000 -0.01199837 -0.11855432
v 0.03152702 -0.01200001 -0.14418460
v 0.02989893 -0.01172750 -0.14418460
v 0.03140000 -0.01199918 -0.09675494
v 0.03152702 0.01200001 -0.14418460
v 0.03140000 0.01199920 -0.11773445
v 0.03140000 0.01199840 -0.10724469
v 0.03152702 0.01200001 -0.07130479
v 0.03140000 0.01199920 -0.09675494
v 0.02599477 -0.01165493 -0.04666072
v 0.02315019 0.00985302 -0.04629583
v 0.01805667 -0.00400474 -0.08556040
v 0.01808196 0.00406231 -0.08550487
v 0.01805350 -0.00400000 -0.08556737
v 0.01805667 0.00400476 -0.08556040
v 0.01953245 0.00500001 -0.08197041
v 0.01984456 -0.00500038 -0.04634385
v 0.02312105 0.00650951 -0.06915546
v 0.01913651 0.00721911 -0.08481025
v 0.03037039 0.01200192 -0.08402540
v 0.02676220 0.01047482 -0.06345489
v 0.02862961 -0.01165185 -0.05523905
v 0.02067836 -0.00835140 -0.08439215
v 0.03378268 -0.01192387 -0.08146545
v 0.03340001 -0.01200001 -0.08130468
v 0.03352039 -0.01199477 -0.13329425
v 0.03378268 -0.01192387 -0.13314950
v 0.03340000 -0.01200001 -0.10030479
v 0.03399625 -0.01180281 -0.11771521
v 0.03389398 -0.01186948 -0.11752255
v 0.03384406 -0.01189600 -0.11730313
v 0.03383815 -0.01189889 -0.10030474
v 0.03388644 -0.01187371 -0.11708343
v 0.03388229 -0.01187601 -0.10052229
v 0.03398546 -0.01181071 -0.11688934
v 0.03398165 -0.01181345 -0.10071404
v 0.03410711 -0.01170712 -0.10095882
v 0.03388599 -0.01187395 -0.10008751
v 0.03398708 -0.01180955 -0.09989626
v 0.03553449 -0.00992690 -0.09156668
v 0.03410711 -0.01170712 -0.11665076
v 0.03432388 -0.01138269 -0.11584164
v 0.03432388 -0.01138269 -0.10176794
v 0.03440000 -0.01100000 -0.11472444
v 0.03480387 -0.00953720 -0.12562394
v 0.04227298 -0.01200001 -0.13330479
v 0.04227298 -0.01200001 -0.08130479
v 0.04227298 0.01200001 -0.08130479
v 0.03390000 0.01186601 -0.08158985
v 0.03368673 0.01195801 -0.08139300
v 0.03349902 0.01199702 -0.08131101
v 0.03897748 0.01062544 -0.08595895
v 0.04584716 0.01085152 -0.08236220
v 0.05144851 -0.00142720 -0.10133157
v 0.05188988 -0.00462881 -0.09950378
v 0.04766290 -0.01112821 -0.07912895
v 0.04567401 -0.01092869 -0.09863862
v 0.05074957 0.00186032 -0.08509406
v 0.03340000 0.01200001 -0.10030479
v 0.03340000 0.01200001 -0.11730479
v 0.03358210 0.01198976 -0.13328375
v 0.03390000 0.01186601 -0.10005515
v 0.03390000 0.01186601 -0.10056387
v 0.03485963 0.01048855 -0.12471027
v 0.03678261 0.01151647 -0.02808743
v 0.04273590 0.00890000 -0.14418460
v 0.04502193 0.00735937 -0.02530479
v 0.04502193 0.00735937 -0.14418460
v 0.04679450 0.00524808 -0.02530479
v 0.04679450 0.00524808 -0.14418460
v 0.04791619 0.00272987 -0.02530479
v 0.04791619 0.00272987 -0.14418460
v 0.04830000 0.00000001 -0.02530479
v 0.04830000 0.00000001 -0.14418460
v 0.02700550 0.00524808 -0.02530479
v 0.02588382 0.00272987 -0.02530479
v 0.02550000 0.00000001 -0.02530479
v 0.02588382 -0.00272988 -0.02530479
v 0.02877808 -0.00735934 -0.02530479
v 0.03106410 0.00890000 -0.02530479
v 0.02877808 0.00735937 -0.02530479
v 0.04273590 -0.00890001 -0.02530479
v 0.04502193 -0.00735934 -0.02530479
v 0.04679450 -0.00524809 -0.02530479
v 0.02700550 -0.00524809 -0.02530479
v 0.04791619 -0.00272988 -0.02530479
v 0.03106410 -0.00890001 -0.14418460
v 0.04791619 -0.00272988 -0.14418460
v 0.04679450 -0.00524809 -0.14418460
v 0.04502193 -0.00735934 -0.14418460
v 0.02877808 -0.00735934 -0.14418460
v 0.02700550 -0.00524809 -0.14418460
v 0.02588382 -0.00272988 -0.14418460
v 0.02550000 0.00000001 -0.14418460
v 0.02588382 0.00272987 -0.14418460
v 0.02700550 0.00524808 -0.14418460
v 0.02877808 0.00735937 -0.14418460
v 0.03106410 0.00890000 -0.14418460
v 0.04486848 -0.01093866 -0.14418553
v 0.05339310 0.00653871 -0.14189496
v 0.04737673 -0.01153155 -0.14226985
v 0.05025250 0.00550885 -0.10231626
v 0.04453374 0.00988958 -0.11017109
v 0.04476004 0.01157028 -0.09954311
v 0.03889500 0.01187676 -0.10035916
v 0.04363577 -0.01181071 -0.11688934
v 0.04384314 -0.01175460 -0.11676776
v 0.04337467 -0.01187739 -0.11709312
v 0.04329618 -0.01189419 -0.11723272
v 0.04328750 -0.01189600 -0.11730313
v 0.04330310 -0.01189272 -0.11737480
v 0.04444895 -0.01152464 -0.11834649
v 0.04377747 -0.01177036 -0.10079897
v 0.04362606 -0.01181345 -0.10071404
v 0.04328381 -0.01189675 -0.10037518
v 0.04331394 -0.01189043 -0.10043943
v 0.04328714 -0.01189606 -0.10023411
v 0.04327336 -0.01189889 -0.10030474
v 0.04405833 0.01170236 -0.11653422
v 0.04830331 0.00877202 -0.12938034
v 0.04472655 0.01126003 -0.11842940
v 0.04756650 -0.00896701 -0.12837099
v 0.05178847 -0.00495674 -0.11911991
v 0.04295237 -0.01036375 -0.10939091
v 0.04947818 0.00484784 -0.11022193
v 0.03073814 -0.01198109 -0.12079281
v 0.01902893 -0.00700838 -0.08490131
v 0.01798073 -0.00453141 -0.08565322
v 0.01224785 -0.00603017 -0.11304473
v 0.01254367 0.00083488 -0.12031808
v 0.02330830 -0.00023500 -0.13997602
v 0.01892834 -0.00786930 -0.12775130
v 0.02705534 -0.00884919 -0.14018423
v 0.01038724 -0.00214255 -0.09750042
v 0.01538105 0.00765050 -0.11855551
v 0.02271427 0.01036736 -0.08550531
v 0.01432659 0.00914215 -0.10864537
v 0.02751347 0.00946850 -0.14039836
v 0.02463700 0.01139952 -0.08437648
v 0.01799636 0.00421466 -0.08565223
v 0.01805358 0.00401384 -0.08556723
v 0.01806180 -0.00411346 -0.08555183
v 0.05987826 -0.02020136 -0.03334256
v 0.05515157 0.01392500 -0.01372823
v 0.05765207 -0.02700729 -0.02840015
v 0.05967586 0.02442169 0.03337666
v 0.05694348 0.03034069 -0.02044328
v 0.05494331 -0.02124092 -0.03407889
v 0.05941085 -0.00245989 -0.01473010
v 0.05716855 0.02353975 0.02753371
v 0.05437611 -0.01697676 -0.01429114
v 0.05627500 -0.03263215 0.01543627
v 0.05440000 -0.03347191 -0.01241348
v 0.05501154 0.03245895 0.03288903
v 0.05502598 0.00809628 0.02951965
v 0.05475065 0.02848575 -0.02470893
v 0.05553014 0.03309438 0.01361916
v 0.05440000 0.01950000 0.03342000
v 0.04690000 -0.02131061 0.02301371
v 0.05464265 -0.02700509 0.02869034
v 0.04945682 0.02391290 0.02440958
v 0.05576536 -0.01448325 0.01046670
v 0.05625347 0.01335304 0.01302403
v 0.01591216 -0.01243353 -0.01248100
v 0.00706616 -0.01599867 -0.01028093
v 0.01666588 -0.01695133 0.01560769
v 0.01694321 -0.00491912 0.02158648
v 0.00901903 -0.01875792 -0.01288558
v 0.01550000 -0.01828820 -0.01394782
v 0.00415941 -0.01906398 -0.01290234
v 0.01639418 -0.02066842 0.00170009
v 0.01550000 -0.01828820 0.01394782
v 0.01007319 -0.01828820 0.01394782
v 0.00484499 -0.02184687 -0.00584058
v 0.01550000 0.01557748 0.01692165
v 0.01550000 0.01394782 0.01828820
v 0.00350000 0.01394782 0.01828820
v 0.01749958 0.01917973 0.01283161
v 0.01550000 0.01828820 0.01394782
v 0.01223046 0.02126776 -0.00895737
v 0.00588994 0.02055380 0.00676947
v 0.01550000 0.01815023 -0.01412689
v 0.01550000 0.01828820 -0.01394782
v 0.01749585 0.01943117 -0.01230488
v 0.01007319 0.01828820 -0.01394782
v 0.01625013 0.01547441 -0.01702996
v 0.01550000 0.01394782 -0.01828820
v 0.00350000 0.01357170 -0.01863731
v 0.01429815 0.00308437 -0.02290379
v 0.01686059 -0.01424865 -0.01880219
v 0.01749954 -0.01917457 -0.01283814
v 0.00539324 -0.00172209 -0.02057422
v 0.01007319 0.01811724 0.01409031
v 0.01550000 0.01811724 0.01409031
v 0.01007319 0.01790137 0.01414449
v 0.01550000 0.01809889 0.01416268
v 0.01151993 0.01507228 0.01166733
v 0.01652439 0.01615774 0.01563394
v 0.01550000 -0.01811724 0.01409031
v 0.01007319 -0.01811724 0.01409031
v 0.01550000 -0.01790137 0.01414449
v 0.01007319 -0.01790137 0.01414449
v 0.00844450 -0.01622325 0.01033889
v 0.00100000 -0.01811724 -0.01409031
v 0.01550000 -0.01811724 -0.01409031
v 0.00100000 -0.01790137 -0.01414449
v 0.01550000 -0.01809889 -0.01416268
v 0.01550000 0.01811724 -0.01409031
v 0.01007319 0.01811724 -0.01409031
v 0.01550000 0.01790137 -0.01414449
v 0.01616667 0.01559620 -0.01588266
v 0.01550000 0.01409031 -0.01811724
v 0.01550000 0.01414449 -0.01790137
v 0.01601020 0.01129702 -0.01524567
v 0.01550000 0.01160585 0.01600204
v 0.01550000 0.01409963 0.01768338
v 0.01550000 0.01414449 0.01790137
v 0.01550000 0.01409031 0.01811724
v 0.01550000 0.01184885 0.01605323
v 0.01550000 0.01278004 0.01652153
v 0.01683333 -0.01517960 0.01295377
v 0.01653704 -0.01417347 0.01607394
v 0.01176667 -0.01161839 0.01630041
v 0.01550027 -0.01364374 0.01141513
v 0.01585294 -0.01530673 -0.01495441
v 0.01550000 -0.01413394 -0.01803567
v 0.00350000 0.01409031 0.01811724
v 0.00350000 0.01414449 0.01790137
v 0.00350000 0.01394948 0.01753683
v 0.00350000 -0.01409505 0.01769275
v 0.00350000 0.01203725 0.01621502
v 0.00350000 0.01184885 0.01605323
v 0.00350000 0.01160585 0.01600204
v 0.01026779 0.00591358 0.01857098
v 0.00350000 0.01414449 -0.01790137
v 0.00350000 0.01197861 -0.01595679
v 0.00350000 0.01409031 -0.01811724
v 0.01669298 0.01256951 0.01239544
v 0.01231608 0.01607373 -0.00967682
v 0.00417454 0.00477890 -0.02065111
v 0.00610776 -0.00022285 0.02162126
v 0.00350000 -0.01401470 -0.01753943
v 0.00350000 -0.01115039 -0.01641944
v 0.00099889 -0.01633417 -0.01245346
v 0.01245925 0.01654030 -0.01227543
v 0.00377373 0.01503318 0.00895352
v 0.00159149 -0.00846515 -0.01182931
v 0.00619342 0.00124942 0.01690183
v 0.00566097 0.00686197 0.01044379
v 0.00934273 -0.00514707 -0.01248168
v 0.00918107 0.00574946 -0.01240078
v 0.01114102 0.01340503 0.00228560
v 0.00934943 -0.01326425 0.00244697
v 0.00681037 -0.01664521 -0.00413998
v 0.00770000 -0.00628831 -0.01502518
v 0.00791435 -0.00962999 0.00995900
v 0.00000484 -0.01325833 0.00172086
v 0.00055213 0.00695542 -0.00900278
v 0.00125954 0.01419772 -0.00250267
v 0.00000201 -0.00557616 0.00992012
v 0.01055518 0.00078151 0.00967293
v 0.00603483 -0.00118716 0.00895590
v 0.00775542 0.00019728 -0.00907060
v 0.01057960 -0.01055939 -0.00577899
v 0.00781710 0.00828317 -0.00354025
v 0.00755953 0.01058985 -0.01178450
v 0.05740000 -0.01505000 -0.03500000
v 0.05740000 -0.03395000 -0.03500000
v 0.06532628 -0.03395000 -0.01613269
v 0.05862157 -0.03720000 -0.01706701
v 0.05790000 -0.03395000 -0.03450000
v 0.05770000 -0.03395000 -0.03000000
v 0.05740000 -0.03395000 -0.03030000
v 0.05780000 -0.03395000 -0.03000000
v 0.05780000 -0.03395000 -0.02100000
v 0.06540000 -0.03395000 -0.01600000
v 0.06490000 -0.03395000 -0.01550000
v 0.05743125 -0.03395000 -0.01578125
v 0.05740000 -0.03395000 -0.02070000
v 0.05770000 -0.03395000 -0.02100000
v 0.06490000 -0.03395000 -0.03550000
v 0.06049223 -0.03664231 -0.03517453
v 0.06536580 -0.03395000 -0.03481453
v 0.06540000 -0.03395000 -0.03450000
v 0.05790000 -0.01505000 -0.01650000
v 0.05837438 -0.01243095 -0.03529155
v 0.05770000 -0.01505000 -0.02100000
v 0.05740000 -0.01505000 -0.01600000
v 0.05780000 -0.01505000 -0.02100000
v 0.05780000 -0.01505000 -0.03000000
v 0.06540000 -0.01505000 -0.03500000
v 0.06533702 -0.01505000 -0.03486145
v 0.06490000 -0.01505000 -0.03550000
v 0.05740000 -0.01505000 -0.03030000
v 0.05770000 -0.01505000 -0.03000000
v 0.06490000 -0.01505000 -0.01550000
v 0.06049222 -0.01235769 -0.01582547
v 0.06536580 -0.01505000 -0.01618547
v 0.06540000 -0.01505000 -0.01650000
v 0.06578225 -0.03895000 -0.01750583
v 0.06586977 -0.03895000 -0.03335196
v 0.06374204 -0.03895000 -0.03000000
v 0.06365094 -0.03895000 -0.02964376
v 0.06225796 -0.03895000 -0.03000000
v 0.06340000 -0.03895000 -0.02937500
v 0.06225796 -0.03895000 -0.02100000
v 0.06234906 -0.03895000 -0.02135624
v 0.06374204 -0.03895000 -0.02100000
v 0.06260000 -0.03895000 -0.02162500
v 0.06234906 -0.03895000 -0.02964376
v 0.06260000 -0.03895000 -0.02937500
v 0.06260000 -0.03895000 -0.02895000
v 0.06340000 -0.03895000 -0.02895000
v 0.06365094 -0.03895000 -0.02135624
v 0.06340000 -0.03895000 -0.02162500
v 0.06340000 -0.03895000 -0.02205000
v 0.06260000 -0.03895000 -0.02205000
v 0.06270000 -0.03895000 -0.02877679
v 0.06262679 -0.03895000 -0.02885000
v 0.06280000 -0.03895000 -0.02875000
v 0.06320000 -0.03895000 -0.02875000
v 0.06330000 -0.03895000 -0.02877679
v 0.06337321 -0.03895000 -0.02885000
v 0.06330000 -0.03895000 -0.02222320
v 0.06337321 -0.03895000 -0.02215000
v 0.06320000 -0.03895000 -0.02225000
v 0.06280000 -0.03895000 -0.02225000
v 0.06270000 -0.03895000 -0.02222320
v 0.06262679 -0.03895000 -0.02215000
v 0.06584842 -0.01005000 -0.03345432
v 0.06594434 -0.01005000 -0.01767786
v 0.06374204 -0.01005000 -0.03000000
v 0.06374204 -0.01005000 -0.02100000
v 0.06365094 -0.01005000 -0.02135624
v 0.06225796 -0.01005000 -0.02100000
v 0.06340000 -0.01005000 -0.02162500
v 0.06234906 -0.01005000 -0.02135624
v 0.06260000 -0.01005000 -0.02162500
v 0.06260000 -0.01005000 -0.02205000
v 0.06340000 -0.01005000 -0.02205000
v 0.06365094 -0.01005000 -0.02964376
v 0.06340000 -0.01005000 -0.02937500
v 0.06260000 -0.01005000 -0.02937500
v 0.06340000 -0.01005000 -0.02895000
v 0.06260000 -0.01005000 -0.02895000
v 0.06225796 -0.01005000 -0.03000000
v 0.06234906 -0.01005000 -0.02964376
v 0.06270000 -0.01005000 -0.02222320
v 0.06262679 -0.01005000 -0.02215000
v 0.06280000 -0.01005000 -0.02225000
v 0.06320000 -0.01005000 -0.02225000
v 0.06330000 -0.01005000 -0.02222320
v 0.06337321 -0.01005000 -0.02215000
v 0.06330000 -0.01005000 -0.02877679
v 0.06337321 -0.01005000 -0.02885000
v 0.06320000 -0.01005000 -0.02875000
v 0.06280000 -0.01005000 -0.02875000
v 0.06270000 -0.01005000 -0.02877679
v 0.06262679 -0.01005000 -0.02885000
v 0.05900917 -0.01072857 -0.02625797
v 0.05891693 -0.02950299 -0.03295015
v 0.05732921 -0.01527862 -0.02006291
v 0.05891659 -0.01950295 -0.01794962
v 0.05895929 -0.02950301 -0.01795145
v 0.05909877 -0.03735000 -0.02539554
v 0.05811384 -0.01983369 -0.03240343
v 0.05740000 0.03395000 0.01600000
v 0.05740000 0.01505000 0.01600000
v 0.06532628 0.01505000 0.03486731
v 0.05862158 0.01180000 0.03393299
v 0.05790000 0.01505000 0.01650000
v 0.05770000 0.01505000 0.02100000
v 0.05740000 0.01505000 0.02070000
v 0.05780000 0.01505000 0.02100000
v 0.05780000 0.01505000 0.03000000
v 0.06540000 0.01505000 0.03500000
v 0.06490000 0.01505000 0.03550000
v 0.05743125 0.01505000 0.03521875
v 0.05740000 0.01505000 0.03030000
v 0.05770000 0.01505000 0.03000000
v 0.06490000 0.01505000 0.01550000
v 0.06049222 0.01235769 0.01582547
v 0.06536580 0.01505000 0.01618547
v 0.06540000 0.01505000 0.01650000
v 0.05790000 0.03395000 0.03450000
v 0.05837437 0.03656905 0.01570846
v 0.05770000 0.03395000 0.03000000
v 0.05740000 0.03395000 0.03500000
v 0.05780000 0.03395000 0.03000000
v 0.05780000 0.03395000 0.02100000
v 0.06540000 0.03395000 0.01600000
v 0.06533702 0.03395000 0.01613855
v 0.06490000 0.03395000 0.01550000
v 0.05740000 0.03395000 0.02070000
v 0.05770000 0.03395000 0.02100000
v 0.06490000 0.03395000 0.03550000
v 0.06049223 0.03664231 0.03517453
v 0.06536580 0.03395000 0.03481453
v 0.06540000 0.03395000 0.03450000
v 0.06578225 0.01005000 0.03349416
v 0.06586977 0.01005000 0.01764803
v 0.06374204 0.01005000 0.02100000
v 0.06365094 0.01005000 0.02135624
v 0.06225796 0.01005000 0.02100000
v 0.06340000 0.01005000 0.02162500
v 0.06225796 0.01005000 0.03000000
v 0.06234906 0.01005000 0.02964376
v 0.06374204 0.01005000 0.03000000
v 0.06260000 0.01005000 0.02937500
v 0.06234906 0.01005000 0.02135624
v 0.06260000 0.01005000 0.02162500
v 0.06260000 0.01005000 0.02205000
v 0.06340000 0.01005000 0.02205000
v 0.06365094 0.01005000 0.02964376
v 0.06340000 0.01005000 0.02937500
v 0.06340000 0.01005000 0.02895000
v 0.06260000 0.01005000 0.02895000
v 0.06270000 0.01005000 0.02222320
v 0.06262679 0.01005000 0.02215000
v 0.06280000 0.01005000 0.02225000
v 0.06320000 0.01005000 0.02225000
v 0.06330000 0.01005000 0.02222320
v 0.06337321 0.01005000 0.02215000
v 0.06330000 0.01005000 0.02877679
v 0.06337321 0.01005000 0.02885000
v 0.06320000 0.01005000 0.02875000
v 0.06280000 0.01005000 0.02875000
v 0.06270000 0.01005000 0.02877679
v 0.06262679 0.01005000 0.02885000
v 0.06584841 0.03895000 0.01754567
v 0.06594434 0.03895000 0.03332214
v 0.06374204 0.03895000 0.02100000
v 0.06374204 0.03895000 0.03000000
v 0.06365094 0.03895000 0.02964376
v 0.06225796 0.03895000 0.03000000
v 0.06340000 0.03895000 0.02937500
v 0.06234906 0.03895000 0.02964376
v 0.06260000 0.03895000 0.02937500
v 0.06260000 0.03895000 0.02895000
v 0.06340000 0.03895000 0.02895000
v 0.06365094 0.03895000 0.02135624
v 0.06340000 0.03895000 0.02162500
v 0.06260000 0.03895000 0.02162500
v 0.06340000 0.03895000 0.02205000
v 0.06260000 0.03895000 0.02205000
v 0.06225796 0.03895000 0.02100000
v 0.06234906 0.03895000 0.02135624
v 0.06270000 0.03895000 0.02877679
v 0.06262679 0.03895000 0.02885000
v 0.06280000 0.03895000 0.02875000
v 0.06320000 0.03895000 0.02875000
v 0.06330000 0.03895000 0.02877679
v 0.06337321 0.03895000 0.02885000
v 0.06330000 0.03895000 0.02222320
v 0.06337321 0.03895000 0.02215000
v 0.06320000 0.03895000 0.02225000
v 0.06280000 0.03895000 0.02225000
v 0.06270000 0.03895000 0.02222320
v 0.06262679 0.03895000 0.02215000
v 0.05900917 0.03827143 0.02474203
v 0.05891693 0.01949701 0.01804985
v 0.05732921 0.03372139 0.03093709
v 0.05891659 0.02949705 0.03305038
v 0.05895929 0.01949699 0.03304855
v 0.05909877 0.01165000 0.02560446
v 0.05811384 0.02916631 0.01859656
v 0.06903779 -0.00138101 -0.00645085
v 0.05539984 0.00106278 -0.01051498
v 0.05895510 -0.00958754 0.01085760
v 0.05539917 -0.00531768 -0.01279774
v 0.06690000 0.00150376 -0.01492443
v 0.05540000 0.00150376 -0.01492443
v 0.05539974 -0.01211948 0.00655075
v 0.06402499 -0.01259093 0.00804796
v 0.06190000 0.00417289 0.00730943
v 0.06335062 -0.00448657 -0.00352731
v 0.06613462 0.00730985 -0.00476901
v 0.06655380 0.00849992 0.00646348
v 0.05539996 0.01192349 -0.00208102
v 0.05540000 0.01183911 0.00896717
v 0.05540000 -0.00724387 0.01309100
v 0.05540000 -0.00704524 0.01307437
v 0.05540000 -0.00686890 0.01298148
v 0.05540000 0.01164011 0.00895591
v 0.05540000 0.01146132 0.00886781
v 0.05540000 -0.01357610 0.00560268
v 0.05540000 -0.01368535 0.00576938
v 0.05540000 0.00184625 -0.01473656
v 0.05540000 0.00169411 -0.01486533
v 0.05892369 0.01026956 0.00231475
v 0.05540000 -0.00771521 -0.01281887
v 0.05540000 -0.00780012 -0.01263855
v 0.05891765 -0.00875875 -0.00416572
v 0.06568261 0.00986916 0.00683828
v 0.06534666 0.00364291 0.00226701
v 0.06690000 -0.01368535 0.00576938
v 0.06690000 -0.01357610 0.00560268
v 0.06240472 -0.00408979 0.00853032
v 0.06690000 -0.00686890 0.01298148
v 0.06690000 -0.00704524 0.01307437
v 0.06671055 -0.00787259 0.01153388
v 0.06570000 0.00112645 0.00751514
v 0.06690000 0.01183911 0.00896717
v 0.06690000 0.01164011 0.00895591
v 0.06690000 0.01340401 0.00725653
v 0.06690000 0.01467674 -0.00054210
v 0.06177319 0.01466882 0.00371408
v 0.06675828 0.00975348 0.00005271
v 0.06690000 0.00169411 -0.01486533
v 0.06690000 0.00217552 -0.01182328
v 0.06667170 -0.00619897 -0.01194070
v 0.06690000 -0.00780784 -0.01243938
v 0.06690000 -0.00780012 -0.01263855
v 0.06690000 -0.00771521 -0.01281887
v 0.06339975 0.01301096 0.00191243
v 0.06672500 -0.01214453 0.00659843
v 0.06219171 -0.00317978 -0.01223289
v 0.06560753 -0.00000070 -0.01381281
v 0.06986841 -0.00361096 0.00356723
v 0.06810631 -0.00574304 0.00190139
v 0.06935142 0.00586846 0.00145391
v 0.06970899 0.00203161 0.01125520
v 0.06997975 -0.00787006 -0.00555842
v 0.06908409 -0.00295919 0.00150701
v 0.06916506 -0.00803512 0.00714713
v 0.07090000 0.01381360 -0.00031950
v 0.06774615 0.00034246 -0.00382826
v 0.06899357 0.00330270 0.00254677
v 0.06983617 0.00927697 -0.00055546
v 0.06786774 -0.00676656 -0.01046944
v 0.06921579 -0.01181636 -0.00768011
v 0.06886957 0.00588641 0.00882727
v 0.06790000 0.00055154 0.00824047
v 0.06894286 -0.00858009 0.00072045
v 0.06824782 -0.00702052 -0.00427324
v 0.06809101 0.00567572 -0.00660510
v 0.06717273 0.00940062 0.00522986
v 0.06745814 0.00554557 -0.00154447
v 0.06735070 0.00824667 -0.00185445
v 0.06777179 0.00304664 0.00717456
v 0.06690000 -0.00734352 0.00405192
v 0.06874259 -0.00045767 -0.00707633
v 0.06690000 0.00364008 -0.01357973
v 0.06966507 0.00706003 -0.00801708
v 0.06890000 0.00318486 -0.00731077
v 0.06910930 -0.00198393 0.01047478
v 0.04921129 0.00782501 -0.00369677
v 0.05301930 -0.00516635 -0.00147580
v 0.04934400 0.00112755 -0.02187836
v 0.05109336 0.02027129 -0.00026158
v 0.05115590 -0.01025273 -0.00379282
v 0.05029523 -0.01893170 0.00001896
v 0.04806667 -0.00016650 0.02035689
v 0.05310847 -0.00014219 0.01923502
v 0.05268571 -0.00205510 -0.02246636
v 0.02468274 0.02298441 0.00124965
v 0.02470000 0.02289793 -0.00216449
v 0.02470000 0.02255210 -0.00397654
v 0.02470000 0.02218482 -0.00606908
v 0.02470000 0.02151896 -0.00783226
v 0.02470000 0.02081102 -0.00979292
v 0.02470000 0.01983198 -0.01145000
v 0.02470000 0.01881744 -0.01322512
v 0.02470000 0.01754242 -0.01471984
v 0.02470000 0.01626346 -0.01626346
v 0.02470000 0.01471984 -0.01754242
v 0.02470000 0.01322512 -0.01881744
v 0.02470000 0.01145000 -0.01983198
v 0.02470000 0.00979292 -0.02081102
v 0.02469473 0.00655984 -0.02205295
v 0.02469400 0.00267194 -0.02285150
v 0.02469708 -0.00941472 -0.02097591
v 0.02465105 -0.01892916 -0.01410193
v 0.02471210 -0.02305857 -0.00048631
v 0.02468495 -0.02212235 0.00624983
v 0.02468717 -0.02052311 0.01030358
v 0.02468730 -0.01844038 0.01368665
v 0.02468744 -0.01580565 0.01666027
v 0.02468759 -0.01269772 0.01913538
v 0.02468774 -0.00920953 0.02103785
v 0.02468758 -0.00543536 0.02231438
v 0.02468547 -0.00153369 0.02292860
v 0.02468438 0.00238697 0.02286296
v 0.02468492 0.00621803 0.02213300
v 0.02468507 0.00994082 0.02073022
v 0.02468523 0.01336626 0.01870652
v 0.02468539 0.01639172 0.01612240
v 0.02468555 0.01892652 0.01305516
v 0.02468863 0.02166897 0.00793529
v 0.05327505 0.02289010 0.00221015
v 0.05038850 0.01446271 0.01290362
v 0.05308761 0.01385633 0.02080546
v 0.05358853 -0.01479099 -0.01442989
v 0.05199903 0.01527299 -0.01707241
v 0.05470164 0.00942325 0.01504947
v 0.05250984 -0.02302374 -0.00006833
v 0.05327448 -0.00287348 -0.02313947
v 0.05440000 0.02280822 -0.00217990
v 0.05372595 0.01365208 -0.01207113
v 0.05415827 0.00134299 0.00947592
v 0.05513168 -0.00564345 -0.01400017
v 0.05526777 -0.01481437 0.00123610
v 0.05407668 0.00737789 -0.00881908
v 0.05295983 0.00794848 0.00874061
v 0.05155812 -0.00569987 0.01009859
v 0.05241948 -0.00510772 -0.01035099
v 0.05287471 -0.00043872 -0.01627071
v 0.05501731 0.00273220 -0.00895106
v 0.05376859 -0.01316563 0.01156284
v 0.05462721 0.01131274 -0.00969435
v 0.05505182 -0.00963444 -0.00937118
v 0.05459750 0.00537236 0.00123149
v 0.05450245 -0.00524888 0.00485272
v 0.05453254 -0.00107750 -0.00609113
v 0.05419023 0.00950758 0.00143319
v 0.05540000 -0.00678902 -0.00882185
v 0.05524762 0.00056527 -0.01496193
v 0.05540000 0.01242558 0.00597427
v 0.05520539 -0.00400926 0.01402122
v 0.05540000 -0.00948934 -0.01022991
v 0.05388442 0.01405913 0.00074535
v 0.05501667 0.00381423 -0.00289702
v 0.05503925 -0.00244280 0.00421101
v 0.05355000 -0.00302076 -0.00271663
v 0.02091695 -0.01849043 -0.00613788
v 0.02043508 0.00787039 0.01902758
v 0.01956001 0.02043289 -0.00601581
v 0.02069256 0.01148623 -0.01403177
v 0.01893480 0.02006307 -0.01137789
v 0.02166236 0.02014509 0.00331025
v 0.02080089 0.01795496 0.01161312
v 0.02124820 -0.01400153 -0.01509105
v 0.01953658 -0.01537259 -0.01357702
v 0.02106561 -0.01722953 -0.01209042
v 0.02139461 -0.01816330 0.01129659
v 0.02201475 -0.01672396 0.01228151
v 0.02133871 -0.01441168 0.01457125
v 0.02141862 0.01442844 0.01451004
v 0.02284377 0.01751786 -0.01202655
v 0.02027773 0.01684201 -0.01058120
v 0.02150983 0.01410072 -0.01485967
v 0.02265882 -0.00170970 0.01618064
v 0.02286667 -0.00193111 0.01349167
v 0.02235116 -0.00420269 0.01587960
v 0.02582505 -0.01224811 0.01733025
v 0.02372969 -0.01016816 0.01711747
v 0.02268485 -0.01148046 -0.00999918
v 0.02209924 -0.00959749 -0.01782309
v 0.02368868 -0.01272514 -0.01799464
v 0.02311615 -0.01132639 -0.01631729
v 0.02266875 0.01278957 -0.00546942
v 0.02274117 0.01677106 -0.00459201
v 0.02362376 0.02168021 -0.00279815
v 0.02133999 0.00913018 -0.01898179
v 0.02205373 0.01381848 -0.01880726
v 0.02365137 0.01201461 -0.01623749
v 0.02320262 0.01053487 -0.01718271
v 0.02439003 0.00050034 -0.02357875
v 0.02356566 -0.01154446 -0.01969061
v 0.02154607 -0.02081963 -0.01105707
v 0.02129355 -0.02289557 -0.00422876
v 0.02155885 0.02317792 -0.00480692
v 0.02124538 0.01950634 0.01279682
v 0.02362208 0.01238083 0.01888562
v 0.02302334 0.01194242 0.01950708
v 0.01962148 0.00504456 0.02304495
v 0.01993386 -0.00546451 0.02292488
v 0.02460000 -0.00786646 0.02161293
v 0.02322789 -0.01194836 0.01908960
v 0.01955618 -0.02124012 0.01097847
v 0.02460000 -0.02265058 0.00399391
v 0.02261167 0.01283980 0.01728840
v 0.02371141 0.01041340 0.01696924
v 0.02162812 -0.01465943 0.01740914
v 0.01788665 -0.02423424 -0.00234756
v 0.02070000 -0.01334184 -0.01635253
v 0.02144797 0.01094514 0.01516694
v 0.02282134 -0.01924554 0.00365207
v 0.01977404 -0.02084495 0.00656684
v 0.02132010 -0.02262767 -0.00178871
v 0.02339608 -0.00644225 -0.00304172
v 0.02322751 0.00591020 -0.01157694
v 0.02341429 0.00780952 -0.00080909
v 0.02342283 -0.00334179 0.00769694
v 0.01925688 0.01683654 -0.01378744
v 0.01919959 0.01209963 0.01807399
v 0.01924570 -0.01656040 0.00882938
v 0.02049464 -0.01492477 -0.01058201
v 0.01926060 -0.00463597 -0.01813664
v 0.01956736 0.00741475 -0.01803735
v 0.01739835 0.01479377 0.01797105
v 0.01806383 -0.00324837 0.02320506
v 0.01815605 -0.01371231 0.01898353
v 0.01895247 -0.01970692 -0.01113432
v 0.01805407 -0.01785666 0.01448325
v 0.01847601 0.01616787 0.01087094
v 0.01922386 0.01714635 0.01627892
v 0.01799233 -0.01831003 0.00091882
v 0.01887094 -0.01584661 0.01256342
v 0.01750000 -0.01666237 -0.01354514
v 0.02060687 -0.01588107 -0.01769883
v 0.01749864 -0.01736675 -0.01418637
v 0.01940834 0.02260535 0.00709188
v 0.01832094 -0.01234177 -0.01928169
v 0.01763276 -0.01261709 0.01441459
v 0.01534205 -0.01395929 -0.00876203
v 0.01750000 0.01302345 -0.01364569
v 0.01759890 0.01519959 -0.01138564
v 0.01751352 0.01512505 -0.01782532
v 0.01740187 0.01622811 0.01346549
v 0.01945698 0.01903720 0.00739994
v 0.01860812 0.01339270 0.00997130
v 0.02014156 -0.00888502 0.02153632
v 0.02059438 -0.01256332 0.01213142
v 0.02918069 0.01159068 0.01751160
v 0.02502767 0.01276742 -0.01817643
v 0.02875927 0.01070993 -0.01780221
v 0.02470000 -0.01159068 -0.01751160
f 3 6 4
f 5 6 3
f 29 7 8
f 29 8 23
f 22 5 7
f 22 7 29
f 23 8 77
f 5 9 10
f 11 12 10
f 10 12 13
f 10 13 14
f 14 13 15
f 15 13 138
f 10 9 16
f 10 16 11
f 145 15 138
f 150 18 17
f 17 18 19
f 17 19 20
f 32 20 21
f 21 20 19
f 20 32 33
f 33 6 20
f 24 31 25
f 153 26 27
f 27 26 24
f 27 24 25
f 31 24 28
f 28 24 154
f 154 30 28
f 33 29 23
f 31 28 30
f 33 23 6
f 30 29 33
f 151 31 33
f 30 33 31
f 151 33 32
f 5 35 9
f 34 22 35
f 35 29 30
f 35 22 29
f 5 34 35
f 68 5 10
f 38 39 40
f 57 41 39
f 39 41 42
f 39 42 43
f 44 45 46
f 46 45 47
f 46 47 48
f 48 47 49
f 37 40 36
f 36 40 39
f 36 39 44
f 44 39 43
f 44 43 45
f 44 50 36
f 36 50 51
f 36 51 52
f 47 53 49
f 49 53 54
f 49 54 55
f 55 54 56
f 55 56 136
f 111 58 14
f 14 58 38
f 14 38 40
f 14 40 10
f 10 40 37
f 10 37 68
f 68 37 59
f 60 6 65
f 60 64 61
f 64 60 65
f 61 62 60
f 60 62 63
f 70 65 6
f 70 6 68
f 5 68 6
f 52 51 69
f 37 36 59
f 59 36 52
f 52 68 59
f 52 69 67
f 68 52 67
f 67 70 68
f 65 70 67
f 64 67 116
f 67 64 65
f 20 6 60
f 73 112 17
f 60 63 20
f 20 63 71
f 20 71 17
f 17 71 72
f 17 72 73
f 71 63 62
f 71 62 74
f 74 62 61
f 74 61 64
f 74 117 71
f 71 117 75
f 71 75 72
f 73 72 76
f 76 72 75
f 76 75 115
f 77 1 6
f 6 1 4
f 3 1 2
f 1 3 4
f 77 78 79
f 79 78 80
f 79 80 81
f 81 80 82
f 81 82 83
f 83 82 84
f 83 84 85
f 85 84 86
f 87 8 88
f 88 8 89
f 89 8 90
f 7 5 91
f 77 8 92
f 92 8 93
f 93 8 87
f 94 2 95
f 95 2 96
f 94 5 3
f 94 3 2
f 90 8 7
f 90 7 97
f 97 7 91
f 81 1 79
f 79 1 77
f 81 83 1
f 1 83 85
f 1 85 2
f 2 85 98
f 2 98 96
f 99 5 111
f 111 5 94
f 85 86 98
f 98 86 100
f 98 100 96
f 96 100 101
f 96 101 95
f 95 101 102
f 95 102 94
f 94 102 111
f 5 99 91
f 91 99 103
f 91 103 97
f 97 103 104
f 97 104 90
f 90 104 105
f 90 105 89
f 89 105 106
f 89 106 88
f 88 106 107
f 88 107 87
f 87 107 108
f 87 108 93
f 93 108 109
f 93 109 92
f 92 109 110
f 78 77 110
f 110 77 92
f 111 113 134
f 66 114 67
f 67 114 116
f 115 117 116
f 58 111 134
f 124 136 119
f 119 118 120
f 120 121 119
f 119 121 122
f 119 122 123
f 124 119 123
f 126 125 127
f 126 127 128
f 69 129 125
f 125 129 130
f 125 130 127
f 69 125 136
f 67 69 136
f 133 76 131
f 82 80 112
f 112 80 78
f 110 17 78
f 78 17 112
f 111 14 99
f 14 15 99
f 99 15 145
f 99 145 103
f 103 145 104
f 100 112 101
f 101 112 113
f 101 113 102
f 102 113 111
f 82 112 84
f 84 112 86
f 86 112 100
f 109 150 110
f 110 150 17
f 107 150 108
f 108 150 109
f 104 145 143
f 104 143 105
f 105 143 106
f 106 143 107
f 107 143 150
f 112 132 134
f 53 47 118
f 119 136 56
f 119 56 118
f 118 56 54
f 118 54 53
f 48 49 126
f 126 49 55
f 126 55 125
f 125 55 136
f 41 57 124
f 124 57 135
f 135 57 134
f 134 57 58
f 57 39 58
f 58 39 38
f 133 132 76
f 112 73 132
f 73 76 132
f 116 114 115
f 135 133 115
f 120 118 47
f 45 122 121
f 45 121 47
f 47 121 120
f 41 124 123
f 41 123 42
f 42 123 122
f 42 122 43
f 43 122 45
f 50 130 129
f 50 129 51
f 51 129 69
f 126 128 48
f 48 128 127
f 48 127 46
f 46 127 130
f 46 130 44
f 44 130 50
f 75 117 115
f 64 116 74
f 74 116 117
f 115 131 76
f 133 135 132
f 112 134 113
f 134 132 135
f 135 136 124
f 67 136 66
f 136 135 66
f 133 131 115
f 135 137 66
f 66 137 115
f 115 114 66
f 115 137 135
f 16 138 12
f 16 9 138
f 148 21 18
f 18 150 148
f 21 19 18
f 26 153 140
f 140 153 152
f 140 152 146
f 12 11 16
f 138 13 12
f 140 154 26
f 144 150 143
f 138 9 145
f 9 144 145
f 9 139 146
f 9 141 144
f 146 141 9
f 144 141 142
f 144 143 145
f 139 140 146
f 144 142 150
f 32 21 148
f 149 141 146
f 149 148 150
f 149 147 141
f 141 147 142
f 146 31 148
f 142 147 150
f 147 149 150
f 146 148 149
f 151 32 148
f 148 31 151
f 31 146 152
f 153 27 25
f 153 25 152
f 152 25 31
f 9 35 139
f 35 30 139
f 154 140 139
f 26 154 24
f 30 154 139
f 6 23 77
f 22 34 5
f 169 166 162
f 175 159 162
f 169 162 159
f 161 157 159
f 161 159 156
f 156 159 175
f 175 162 167
f 168 159 160
f 160 159 157
f 174 175 167
f 174 167 164
f 164 167 172
f 174 164 157
f 167 175 174
f 165 163 160
f 157 165 160
f 160 163 156
f 168 160 156
f 168 156 169
f 175 167 162
f 175 162 169
f 175 169 156
f 163 165 174
f 164 174 165
f 164 167 174
f 166 169 173
f 167 170 166
f 172 171 164
f 164 171 172
f 165 157 164
f 168 169 159
f 168 159 169
f 168 169 159
f 171 164 172
f 173 162 167
f 167 171 172
f 171 167 164
f 173 167 166
f 161 156 163
f 161 163 174
f 163 174 157
f 163 161 174
f 163 157 161
f 163 157 165
f 165 157 163
f 173 169 162
f 160 157 165
f 165 157 160
f 167 162 158
f 158 162 166
f 155 160 157
f 155 157 160
f 158 166 170
f 158 170 167
f 251 209 193
f 183 177 186
f 202 204 201
f 181 180 182
f 182 186 256
f 186 203 183
f 183 178 184
f 183 184 185
f 185 186 183
f 187 188 179
f 253 179 188
f 253 188 189
f 179 210 187
f 187 210 190
f 187 190 208
f 208 190 191
f 191 190 193
f 192 193 190
f 194 195 196
f 196 195 197
f 197 192 196
f 194 196 198
f 199 198 201
f 199 201 200
f 200 201 252
f 186 180 203
f 203 180 181
f 203 181 219
f 203 219 202
f 191 193 205
f 191 205 206
f 206 205 207
f 206 207 208
f 208 207 209
f 185 184 211
f 185 211 212
f 212 211 213
f 212 213 214
f 214 213 215
f 181 182 216
f 181 216 217
f 217 216 218
f 217 218 219
f 219 218 256
f 219 256 237
f 251 193 192
f 197 195 220
f 197 220 221
f 221 220 222
f 221 222 257
f 220 195 194
f 220 194 222
f 199 224 198
f 198 224 225
f 257 222 223
f 223 222 194
f 223 194 198
f 223 198 225
f 223 225 226
f 246 227 250
f 208 209 210
f 191 206 208
f 208 210 187
f 232 228 210
f 210 228 229
f 210 229 187
f 187 229 230
f 187 230 188
f 227 231 250
f 250 231 232
f 211 184 178
f 211 178 213
f 233 236 215
f 215 213 234
f 234 213 178
f 234 178 179
f 235 179 236
f 219 237 202
f 181 217 219
f 237 238 202
f 237 176 226
f 177 183 176
f 239 240 241
f 253 235 242
f 253 189 241
f 241 189 239
f 243 244 245
f 246 253 241
f 246 241 243
f 246 243 245
f 252 248 200
f 200 248 247
f 200 247 249
f 251 196 192
f 196 251 223
f 196 223 198
f 198 223 201
f 201 223 226
f 201 226 176
f 176 202 201
f 202 237 203
f 203 237 183
f 176 183 237
f 234 179 178
f 234 178 233
f 233 178 183
f 233 183 179
f 233 179 234
f 192 250 251
f 209 192 210
f 210 192 190
f 209 250 192
f 210 179 250
f 186 215 183
f 183 215 236
f 237 202 176
f 223 251 257
f 232 210 250
f 236 234 235
f 215 234 233
f 236 233 234
f 255 237 204
f 235 253 179
f 179 253 246
f 252 226 248
f 252 204 226
f 226 204 237
f 251 192 257
f 241 232 243
f 255 204 254
f 254 237 255
f 237 254 238
f 238 254 204
f 238 204 202
f 179 253 242
f 179 242 234
f 234 242 235
f 243 232 231
f 243 231 244
f 244 231 227
f 244 227 245
f 245 227 246
f 232 241 228
f 228 241 240
f 228 240 229
f 229 240 239
f 229 239 230
f 230 239 189
f 230 189 188
f 256 176 237
f 199 200 249
f 199 249 224
f 224 249 247
f 224 247 225
f 225 247 248
f 225 248 226
f 252 201 204
f 257 192 197
f 221 257 197
f 185 212 214
f 214 215 185
f 185 215 186
f 207 205 209
f 209 205 193
f 186 177 256
f 182 256 216
f 176 256 177
f 256 218 216
f 182 177 186
f 177 180 186
f 177 182 180
f 251 250 209
f 246 250 179
f 236 179 183
f 278 262 259
f 262 278 263
f 260 268 273
f 266 276 265
f 262 276 267
f 276 262 267
f 261 260 273
f 278 271 264
f 266 265 268
f 259 262 276
f 264 271 258
f 261 264 258
f 272 260 261
f 261 258 271
f 270 271 278
f 259 270 278
f 260 272 268
f 268 272 269
f 268 269 266
f 266 269 259
f 260 273 274
f 260 274 273
f 275 278 262
f 262 259 275
f 278 275 262
f 266 259 276
f 258 264 261
f 258 261 264
f 271 270 278
f 278 277 271
f 261 273 274
f 261 274 272
f 276 259 269
f 264 277 278
f 272 268 269
f 263 275 262
f 259 262 270
f 270 262 275
f 272 274 273
f 272 273 268
f 269 268 265
f 269 265 276
f 259 276 262
f 259 262 275
f 270 275 263
f 270 263 278
f 271 277 264
f 271 264 261
f 279 298 280
f 280 298 294
f 282 283 377
f 377 283 294
f 284 285 280
f 286 283 287
f 287 283 282
f 281 288 289
f 281 289 282
f 282 289 290
f 282 290 287
f 287 290 291
f 287 291 292
f 286 284 283
f 283 284 280
f 283 280 294
f 294 293 295
f 298 297 372
f 372 297 309
f 299 374 300
f 301 297 302
f 302 297 298
f 304 303 305
f 304 305 298
f 298 279 302
f 302 279 306
f 302 306 307
f 301 299 297
f 297 299 300
f 297 300 309
f 309 308 310
f 281 282 312
f 296 313 295
f 295 313 294
f 286 287 302
f 302 287 301
f 292 291 299
f 299 291 374
f 287 292 301
f 301 292 299
f 314 315 316
f 316 315 317
f 318 319 320
f 320 319 321
f 322 316 323
f 323 316 317
f 323 317 324
f 324 317 325
f 316 294 313
f 313 314 316
f 326 320 327
f 327 320 321
f 327 321 328
f 328 321 329
f 330 331 332
f 332 331 324
f 332 324 333
f 333 324 325
f 333 325 334
f 334 325 335
f 282 318 320
f 282 320 312
f 336 337 338
f 338 337 328
f 338 328 339
f 339 328 329
f 339 329 340
f 340 329 341
f 304 298 342
f 311 343 310
f 310 343 309
f 344 342 298
f 345 346 347
f 347 346 348
f 347 309 343
f 349 347 350
f 350 347 348
f 350 348 351
f 351 348 352
f 343 345 347
f 353 344 354
f 354 344 355
f 354 355 356
f 356 355 357
f 298 372 358
f 298 358 344
f 344 358 359
f 344 359 355
f 360 361 362
f 362 361 351
f 362 351 363
f 363 351 352
f 363 352 364
f 364 352 365
f 366 367 368
f 368 367 356
f 368 356 369
f 369 356 357
f 369 357 370
f 370 357 371
f 284 286 307
f 307 286 302
f 285 284 306
f 306 284 307
f 298 305 294
f 294 305 293
f 305 303 293
f 293 303 295
f 295 303 296
f 296 303 304
f 296 304 313
f 313 304 342
f 314 313 344
f 344 313 342
f 354 317 315
f 354 315 353
f 353 315 314
f 353 314 344
f 325 317 356
f 356 317 354
f 368 333 334
f 368 334 366
f 366 334 335
f 366 335 367
f 367 335 325
f 367 325 356
f 332 333 369
f 369 333 368
f 357 324 331
f 357 331 371
f 371 331 330
f 371 330 370
f 370 330 332
f 370 332 369
f 323 324 355
f 355 324 357
f 358 316 322
f 358 322 359
f 359 322 323
f 359 323 355
f 294 316 372
f 372 316 358
f 377 294 372
f 282 377 309
f 309 377 372
f 318 282 347
f 347 282 309
f 350 321 319
f 350 319 349
f 349 319 318
f 349 318 347
f 329 321 351
f 351 321 350
f 362 339 340
f 362 340 360
f 360 340 341
f 360 341 361
f 361 341 329
f 361 329 351
f 338 339 363
f 363 339 362
f 352 328 337
f 352 337 365
f 365 337 336
f 365 336 364
f 364 336 338
f 364 338 363
f 327 328 348
f 348 328 352
f 345 320 326
f 345 326 346
f 346 326 327
f 346 327 348
f 312 320 343
f 343 320 345
f 312 343 311
f 281 312 311
f 281 311 288
f 288 311 310
f 310 308 288
f 288 308 289
f 308 309 289
f 289 309 290
f 309 300 290
f 376 375 291
f 374 375 300
f 300 375 290
f 291 375 374
f 290 376 291
f 375 376 290
f 280 373 279
f 279 378 306
f 306 378 285
f 279 373 378
f 285 373 280
f 378 373 285
f 379 398 380
f 380 398 394
f 382 383 477
f 477 383 394
f 384 385 380
f 386 383 387
f 387 383 382
f 381 388 389
f 381 389 382
f 382 389 390
f 382 390 387
f 387 390 391
f 387 391 392
f 386 384 383
f 383 384 380
f 383 380 394
f 394 393 395
f 398 397 472
f 472 397 409
f 399 474 400
f 401 397 402
f 402 397 398
f 404 403 405
f 404 405 398
f 398 379 402
f 402 379 406
f 402 406 407
f 401 399 397
f 397 399 400
f 397 400 409
f 409 408 410
f 381 382 412
f 396 413 395
f 395 413 394
f 386 387 402
f 402 387 401
f 392 391 399
f 399 391 474
f 387 392 401
f 401 392 399
f 414 415 416
f 416 415 417
f 418 419 420
f 420 419 421
f 422 416 423
f 423 416 417
f 423 417 424
f 424 417 425
f 416 394 413
f 413 414 416
f 426 420 427
f 427 420 421
f 427 421 428
f 428 421 429
f 430 431 432
f 432 431 424
f 432 424 433
f 433 424 425
f 433 425 434
f 434 425 435
f 382 418 420
f 382 420 412
f 436 437 438
f 438 437 428
f 438 428 439
f 439 428 429
f 439 429 440
f 440 429 441
f 404 398 442
f 411 443 410
f 410 443 409
f 444 442 398
f 445 446 447
f 447 446 448
f 447 409 443
f 449 447 450
f 450 447 448
f 450 448 451
f 451 448 452
f 443 445 447
f 453 444 454
f 454 444 455
f 454 455 456
f 456 455 457
f 398 472 458
f 398 458 444
f 444 458 459
f 444 459 455
f 460 461 462
f 462 461 451
f 462 451 463
f 463 451 452
f 463 452 464
f 464 452 465
f 466 467 468
f 468 467 456
f 468 456 469
f 469 456 457
f 469 457 470
f 470 457 471
f 384 386 407
f 407 386 402
f 385 384 406
f 406 384 407
f 398 405 394
f 394 405 393
f 405 403 393
f 393 403 395
f 395 403 396
f 396 403 404
f 396 404 413
f 413 404 442
f 414 413 444
f 444 413 442
f 454 417 415
f 454 415 453
f 453 415 414
f 453 414 444
f 425 417 456
f 456 417 454
f 468 433 434
f 468 434 466
f 466 434 435
f 466 435 467
f 467 435 425
f 467 425 456
f 432 433 469
f 469 433 468
f 457 424 431
f 457 431 471
f 471 431 430
f 471 430 470
f 470 430 432
f 470 432 469
f 423 424 455
f 455 424 457
f 458 416 422
f 458 422 459
f 459 422 423
f 459 423 455
f 394 416 472
f 472 416 458
f 477 394 472
f 382 477 409
f 409 477 472
f 418 382 447
f 447 382 409
f 450 421 419
f 450 419 449
f 449 419 418
f 449 418 447
f 429 421 451
f 451 421 450
f 462 439 440
f 462 440 460
f 460 440 441
f 460 441 461
f 461 441 429
f 461 429 451
f 438 439 463
f 463 439 462
f 452 428 437
f 452 437 465
f 465 437 436
f 465 436 464
f 464 436 438
f 464 438 463
f 427 428 448
f 448 428 452
f 445 420 426
f 445 426 446
f 446 426 427
f 446 427 448
f 412 420 443
f 443 420 445
f 412 443 411
f 381 412 411
f 381 411 388
f 388 411 410
f 410 408 388
f 388 408 389
f 408 409 389
f 389 409 390
f 409 400 390
f 476 475 391
f 474 475 400
f 400 475 390
f 391 475 474
f 390 476 391
f 475 476 390
f 380 473 379
f 379 478 406
f 406 478 385
f 379 473 478
f 385 473 380
f 478 473 385
f 529 482 480
f 510 485 481
f 529 523 482
f 483 530 484
f 484 530 529
f 481 485 486
f 507 488 510
f 490 510 513
f 522 480 491
f 522 491 489
f 519 502 492
f 493 494 495
f 519 491 502
f 496 492 497
f 497 492 502
f 497 502 510
f 510 481 495
f 495 481 493
f 485 498 499
f 500 501 484
f 482 505 480
f 482 503 504
f 504 505 482
f 480 500 484
f 480 484 529
f 480 502 491
f 510 505 485
f 497 510 506
f 506 510 490
f 507 532 488
f 528 485 505
f 489 502 480
f 489 480 488
f 488 480 505
f 488 505 510
f 514 510 487
f 487 510 502
f 487 502 507
f 508 509 528
f 528 532 510
f 511 512 513
f 513 514 490
f 490 514 507
f 515 516 506
f 506 517 515
f 489 520 533
f 533 507 489
f 489 518 520
f 520 518 519
f 530 522 489
f 483 521 522
f 483 522 530
f 489 479 530
f 524 525 523
f 523 525 526
f 488 528 505
f 528 488 532
f 514 510 507
f 532 507 510
f 510 514 513
f 488 505 523
f 488 523 479
f 488 479 507
f 507 479 489
f 506 502 519
f 519 502 527
f 502 506 490
f 502 520 527
f 486 510 481
f 528 510 486
f 529 530 479
f 529 479 523
f 485 528 509
f 485 509 498
f 498 509 508
f 498 508 499
f 499 508 528
f 499 528 485
f 485 528 486
f 481 513 493
f 493 513 512
f 493 512 494
f 494 512 511
f 494 511 495
f 495 511 513
f 495 513 510
f 510 513 481
f 480 522 500
f 500 522 521
f 500 521 501
f 501 521 483
f 501 483 484
f 482 523 526
f 482 526 503
f 503 526 525
f 503 525 504
f 504 525 524
f 504 524 505
f 505 524 523
f 491 519 518
f 491 518 489
f 497 506 516
f 497 516 496
f 496 516 515
f 496 515 492
f 492 515 517
f 492 517 519
f 527 520 519
f 506 519 517
f 532 510 531
f 531 510 532
f 490 533 502
f 502 533 520
f 490 507 533
f 510 514 507
f 487 507 514
f 488 507 489
f 502 489 507
f 558 537 536
f 544 540 549
f 541 551 538
f 538 551 541
f 541 549 540
f 543 542 535
f 554 555 556
f 535 542 554
f 549 541 551
f 552 534 544
f 553 546 537
f 535 542 543
f 554 548 556
f 556 548 551
f 556 551 541
f 552 545 534
f 534 545 558
f 558 545 540
f 546 547 535
f 542 547 536
f 535 547 542
f 536 546 553
f 536 539 542
f 542 539 554
f 540 536 558
f 558 536 537
f 548 554 539
f 548 539 550
f 550 539 540
f 549 540 544
f 544 540 552
f 556 555 554
f 554 539 536
f 551 541 549
f 549 541 540
f 550 540 541
f 550 541 551
f 553 537 546
f 553 546 536
f 550 541 540
f 548 554 557
f 557 554 556
f 548 557 556
f 548 556 551
f 550 540 548
f 548 540 539
f 548 539 554
f 551 556 541
f 551 541 550
f 547 535 554
f 546 535 547
f 547 554 536
f 544 534 545
f 545 558 540
f 552 544 545
f 545 534 558
f 552 540 544
f 558 536 540
f 619 567 561
f 561 567 609
f 568 569 570
f 570 569 571
f 570 571 572
f 572 571 573
f 572 573 574
f 574 573 575
f 574 575 576
f 576 575 577
f 576 577 578
f 578 577 579
f 578 579 580
f 580 579 581
f 580 581 582
f 565 607 566
f 587 586 608
f 601 604 568
f 600 604 601
f 599 604 600
f 598 604 599
f 597 604 598
f 596 604 597
f 595 604 596
f 594 566 604
f 594 604 595
f 566 594 593
f 566 593 621
f 621 593 592
f 621 592 591
f 621 591 590
f 621 590 589
f 621 589 588
f 621 588 587
f 621 587 608
f 562 604 602
f 562 568 604
f 585 608 586
f 585 605 608
f 584 605 585
f 670 609 584
f 584 609 605
f 583 561 670
f 670 561 609
f 569 568 562
f 569 562 571
f 561 583 582
f 561 582 606
f 606 582 581
f 606 581 579
f 606 579 577
f 606 577 575
f 606 575 573
f 606 573 571
f 606 571 562
f 606 562 610
f 604 607 603
f 559 634 620
f 559 620 615
f 563 623 560
f 629 619 611
f 629 611 622
f 619 606 611
f 611 606 562
f 562 606 610
f 561 606 619
f 605 619 613
f 609 567 605
f 605 567 619
f 608 605 564
f 621 608 564
f 621 564 614
f 621 631 566
f 562 602 604
f 562 604 603
f 562 603 607
f 566 607 565
f 566 607 604
f 559 624 634
f 622 559 615
f 623 563 564
f 625 612 631
f 633 611 562
f 605 623 564
f 618 628 605
f 619 629 620
f 560 623 628
f 605 632 623
f 613 618 605
f 564 563 614
f 614 563 560
f 621 617 631
f 631 612 566
f 616 607 566
f 612 616 566
f 607 616 630
f 562 630 633
f 632 605 628
f 626 635 560
f 626 619 620
f 633 630 616
f 630 562 607
f 622 633 627
f 627 624 559
f 627 559 622
f 622 611 633
f 624 612 635
f 625 614 560
f 635 625 560
f 614 625 621
f 623 632 628
f 617 621 625
f 631 617 625
f 625 635 612
f 626 618 613
f 626 613 619
f 628 618 560
f 560 618 626
f 612 624 627
f 629 622 615
f 629 615 620
f 626 620 634
f 616 612 627
f 627 633 616
f 636 635 626
f 624 626 634
f 635 626 624
f 626 635 636
f 726 690 691
f 725 638 726
f 651 652 641
f 654 656 638
f 658 686 657
f 657 686 681
f 681 725 658
f 658 725 686
f 709 684 675
f 659 700 637
f 661 713 662
f 713 661 671
f 671 661 660
f 667 670 671
f 666 667 671
f 660 694 671
f 694 664 639
f 728 667 669
f 667 666 669
f 668 667 728
f 668 669 667
f 586 682 673
f 586 673 672
f 586 672 585
f 585 672 713
f 585 713 671
f 585 671 584
f 584 671 670
f 583 670 582
f 582 670 667
f 582 667 580
f 580 667 578
f 578 667 576
f 576 667 674
f 576 674 574
f 574 674 572
f 572 674 570
f 570 674 568
f 568 674 601
f 601 674 715
f 601 715 675
f 601 675 600
f 600 675 599
f 599 675 676
f 599 676 598
f 598 676 597
f 597 676 677
f 597 677 596
f 596 677 678
f 596 678 595
f 595 678 679
f 595 679 594
f 594 679 593
f 593 679 680
f 593 680 592
f 592 680 681
f 592 681 591
f 591 681 590
f 590 681 686
f 590 686 589
f 589 686 588
f 588 686 682
f 588 682 587
f 587 682 683
f 587 683 586
f 586 683 682
f 684 676 675
f 680 679 681
f 684 677 676
f 685 684 689
f 685 689 677
f 677 689 638
f 725 681 679
f 686 725 726
f 672 673 687
f 713 688 662
f 659 660 700
f 723 642 689
f 690 726 638
f 690 692 691
f 656 690 638
f 638 689 654
f 694 666 671
f 663 694 695
f 664 694 663
f 664 689 642
f 663 695 664
f 664 695 655
f 664 655 689
f 689 655 654
f 637 690 655
f 655 690 656
f 694 659 693
f 693 659 696
f 695 696 655
f 696 659 637
f 696 637 655
f 659 694 660
f 640 666 694
f 694 639 640
f 665 639 664
f 660 713 716
f 660 662 713
f 713 662 688
f 725 686 726
f 709 677 684
f 689 684 698
f 666 667 669
f 697 651 641
f 651 697 652
f 652 697 720
f 698 684 677
f 638 698 677
f 701 700 660
f 701 660 716
f 702 721 667
f 639 665 642
f 639 642 723
f 640 639 702
f 640 702 666
f 667 666 702
f 667 721 697
f 667 697 674
f 704 679 678
f 725 705 686
f 672 687 706
f 646 706 710
f 706 646 713
f 722 643 708
f 711 647 648
f 648 647 711
f 711 710 647
f 647 682 707
f 647 707 711
f 647 710 682
f 646 710 712
f 714 713 646
f 714 646 712
f 641 674 697
f 643 709 675
f 643 675 715
f 641 715 674
f 677 709 703
f 677 703 678
f 725 679 705
f 686 705 707
f 686 707 682
f 682 687 673
f 713 672 706
f 715 708 643
f 652 720 641
f 641 720 708
f 649 717 711
f 711 717 718
f 644 716 645
f 645 718 644
f 653 719 720
f 653 697 721
f 653 720 697
f 705 649 707
f 707 649 711
f 708 678 703
f 645 714 712
f 703 709 722
f 722 709 643
f 716 713 645
f 645 713 714
f 719 717 720
f 653 716 644
f 653 644 718
f 653 718 719
f 719 718 717
f 679 717 705
f 705 717 649
f 679 704 717
f 717 704 678
f 717 678 708
f 717 708 720
f 711 718 645
f 711 645 710
f 653 721 716
f 645 712 710
f 706 687 682
f 715 641 708
f 706 682 710
f 650 708 703
f 703 722 650
f 650 722 708
f 724 723 689
f 724 689 698
f 638 725 698
f 726 691 699
f 721 702 701
f 721 701 716
f 691 702 699
f 692 637 691
f 691 700 701
f 698 725 724
f 701 702 691
f 724 725 726
f 700 691 637
f 639 724 702
f 702 724 726
f 702 726 699
f 639 723 724
f 642 665 664
f 695 694 696
f 696 694 693
f 692 690 637
f 727 677 685
f 727 685 677
f 684 685 677
f 729 728 669
f 729 669 728
f 668 728 669
f 662 730 661
f 661 730 660
f 660 730 662
f 681 658 657
f 656 654 655

