# https://github.com/mikedh/trimesh
v 0.20591472 -0.02382053 0.06184905
v 0.24500000 -0.01953000 0.08450000
v 0.23110774 -0.01990000 0.07848309
v 0.23756997 -0.01953000 0.08406874
v 0.23754615 -0.01953000 0.08383339
v 0.23741680 -0.01953000 0.08363534
v 0.23748295 -0.01953000 0.08428870
v 0.23730455 -0.01953000 0.08444405
v 0.23721090 -0.01953000 0.08351890
v 0.25955425 -0.02133743 0.07825376
v 0.24500000 -0.01953000 0.02750000
v 0.23707472 -0.01953000 0.02750000
v 0.23730455 -0.01953000 0.02755596
v 0.23748295 -0.01953000 0.02771130
v 0.23756997 -0.01953000 0.02793126
v 0.23754615 -0.01953000 0.02816661
v 0.23741680 -0.01953000 0.02836466
v 0.22160994 -0.00003000 0.07581019
v 0.22125851 -0.00831605 0.07528874
v 0.22324028 -0.02739321 0.07308391
v 0.08591725 -0.00023852 0.03705383
v 0.19276726 -0.01593474 0.03775000
v 0.19276726 -0.01546649 0.03756351
v 0.14597769 -0.01593438 0.03775050
v 0.13480371 -0.01503005 0.03750044
v 0.14519605 -0.01503001 0.03750050
v 0.19435523 -0.01529140 0.03797876
v 0.07518996 -0.02483776 0.04363121
v 0.04124443 -0.03466248 0.04218034
v 0.04126644 -0.03472004 0.04216711
v 0.04446627 -0.03715802 0.03446274
v 0.04084678 -0.03489114 0.04166141
v 0.04783379 -0.03606635 0.02967245
v 0.04873055 -0.03698644 0.02981548
v 0.04746661 -0.03605821 0.02985970
v 0.04725646 -0.03605130 0.03001630
v 0.04834117 -0.00003000 0.02954962
v 0.04746663 -0.00003000 0.02985969
v 0.04682614 -0.00003000 0.03053105
v 0.25943015 -0.02267434 0.03706894
v 0.23721090 -0.00003000 0.02848110
v 0.23741680 -0.00003000 0.02836466
v 0.23754615 -0.00003000 0.02816661
v 0.23756997 -0.00003000 0.02793126
v 0.23748295 -0.00003000 0.02771130
v 0.23730455 -0.00003000 0.02755596
v 0.23707472 -0.00003000 0.02750000
v 0.23707472 -0.00003000 0.08450000
v 0.23730455 -0.00003000 0.08444405
v 0.23748295 -0.00003000 0.08428870
v 0.23756997 -0.00003000 0.08406874
v 0.23754615 -0.00003000 0.08383339
v 0.23741680 -0.00003000 0.08363534
v 0.23721090 -0.00003000 0.08351890
v 0.16643363 -0.01865694 0.05312074
v 0.16628012 -0.01870215 0.05304944
v 0.16641037 -0.01899194 0.05280374
v 0.16673526 -0.01882861 0.05299698
v 0.16633439 -0.01888355 0.05294706
v 0.16650891 -0.01902992 0.05263469
v 0.16650000 -0.01903000 0.05263469
v 0.16675512 -0.01896001 0.05263469
v 0.16628362 -0.01872134 0.05304282
v 0.16679487 -0.01900486 0.04537262
v 0.16669135 -0.01899194 0.04600000
v 0.16650000 -0.01903000 0.04600000
v 0.17171566 -0.01814490 0.04550485
v 0.17350000 -0.01903000 0.05263469
v 0.17309537 -0.01860435 0.05514927
v 0.17329717 -0.01878000 0.05508174
v 0.17329152 -0.01875783 0.05507108
v 0.17338289 -0.01896301 0.05524343
v 0.17350000 -0.01903000 0.05634588
v 0.17333439 -0.01888355 0.05665825
v 0.17341037 -0.01899194 0.05651493
v 0.15560433 -0.01927248 0.06745858
v 0.17030036 -0.01901499 0.06761695
v 0.17262729 -0.01903000 0.06736254
v 0.17350000 -0.01903000 0.05917550
v 0.17362775 -0.01894907 0.05893454
v 0.17370282 -0.01878000 0.05879293
v 0.17361711 -0.01896301 0.05895462
v 0.17325549 -0.01887791 0.05879996
v 0.16670282 -0.01878000 0.05508174
v 0.16661710 -0.01896301 0.05524343
v 0.16693287 -0.01904523 0.05595382
v 0.16876961 -0.01390704 0.05799232
v 0.04839742 -0.03313127 0.02636511
v 0.04795641 -0.00004831 0.02694526
v 0.04718213 -0.02842796 0.02737618
v 0.04611778 -0.02868289 0.02829263
v 0.04689073 -0.03043535 0.02681758
v 0.04580061 -0.03030681 0.02776346
v 0.04568898 -0.03086523 0.02743067
v 0.04551329 -0.03135771 0.02713094
v 0.04558151 -0.03226320 0.02605022
v 0.22317366 -0.00004793 0.07451473
v 0.22550936 0.00488614 0.03265342
v 0.21821568 -0.02179656 0.04954374
v 0.08097567 0.00483541 0.07215524
v -0.00059158 -0.03636452 -0.00476988
v 0.01958016 -0.03465931 0.00044621
v 0.04591816 -0.03306067 0.02533288
v 0.03944431 -0.03328000 0.02142579
v 0.07473437 -0.02269682 0.07016393
v 0.07605749 -0.02619498 0.04449161
v 0.07354055 -0.02919123 0.04638029
v 0.07138364 -0.03259386 0.04799882
v 0.06937635 -0.03376130 0.04524272
v 0.05665380 -0.03001373 0.05598808
v 0.03930501 -0.03457028 0.04343342
v 0.04160737 -0.02599173 0.06751357
v 0.03155311 -0.02983277 0.05673169
v 0.04263651 -0.02413129 0.06878110
v 0.07218985 -0.02590532 0.06775611
v 0.05878041 -0.02941949 0.05789339
v 0.03135032 -0.00003000 0.05707957
v 0.04020771 -0.03246287 0.04163099
v 0.03137611 -0.02952656 0.05703532
v 0.03144844 -0.02971674 0.05691124
v 0.03135032 -0.02929954 0.05707957
v 0.03942065 -0.03458554 0.04323504
v 0.03952641 -0.03449553 0.04305361
v 0.19875000 -0.01903000 0.04714143
v 0.19837274 -0.01903098 0.06471871
v 0.19866014 -0.01896174 0.04646135
v 0.17282963 -0.01854485 0.05626665
v 0.19545059 -0.01903000 0.04564495
v 0.20218337 -0.00911501 0.07146952
v 0.14098991 -0.01731728 0.04335168
v 0.09444361 -0.02534922 0.06264879
v 0.08152771 -0.02986201 0.05581383
v 0.09208105 -0.02702328 0.06333457
v 0.08149268 -0.02684143 0.05142264
v 0.08148732 -0.02644576 0.05075007
v 0.08828598 -0.02819674 0.06132407
v 0.08125000 -0.03000773 0.05624059
v 0.06131742 -0.02987791 0.05660499
v 0.07875000 -0.02676608 0.06533995
v 0.07875000 -0.03067320 0.05437259
v 0.07838598 -0.02658694 0.06575362
v 0.07108129 -0.03278364 0.04844856
v 0.19997796 -0.00995917 0.07506011
v 0.08016758 -0.00998992 0.07505587
v 0.07989145 -0.00995896 0.07506022
v 0.04627965 -0.00831605 0.07528874
v 0.04464759 -0.01753585 0.07353805
v 0.19716187 -0.01773858 0.07339370
v 0.19837512 -0.01197925 0.07477036
v 0.08151069 -0.01181179 0.07476982
v 0.08277928 -0.01736586 0.07349486
v 0.19710544 -0.01811418 0.07328805
v 0.12517503 -0.01811418 0.07328805
v 0.12445959 -0.01811240 0.07328855
v 0.11775707 -0.01879300 0.07304997
v 0.07695611 -0.02558196 0.07067123
v 0.04197375 -0.02558196 0.07067123
v 0.07682016 -0.01762738 0.07360409
v 0.04676592 -0.00003000 0.07581019
v 0.04664423 -0.00418122 0.07567970
v 0.04360313 -0.02464877 0.06943472
v 0.07314748 -0.01935710 0.07135100
v 0.07292320 -0.01652480 0.07216863
v 0.04561505 -0.01668321 0.07212657
v 0.04569905 -0.01633918 0.07221736
v 0.04714450 -0.00829300 0.07377950
v 0.04764000 -0.00003021 0.07431226
v 0.07398475 -0.02541840 0.06854493
v 0.07392389 -0.02544045 0.06851290
v 0.07418370 -0.02528279 0.06875131
v 0.07289628 -0.02576521 0.06800948
v 0.07251657 -0.02585712 0.06784617
v 0.04308764 -0.02427796 0.06957043
v 0.19276726 -0.00003000 0.07431019
v 0.02946652 -0.00003239 0.05726003
v 0.08723274 -0.00003000 0.07431019
v 0.04142669 -0.02613737 0.07008457
v 0.02899624 -0.02130555 0.05675454
v 0.02851363 -0.02281360 0.05623702
v 0.02930605 -0.01966281 0.05708678
v 0.02800200 -0.02393635 0.05568836
v 0.02785037 -0.02421362 0.05552575
v 0.02705507 -0.02540252 0.05467289
v 0.04175485 -0.02592155 0.07043649
v 0.02936373 -0.01913003 0.05714862
v 0.02611315 -0.02640094 0.05366280
v 0.07724596 -0.02613737 0.07008457
v 0.04739664 -0.00002849 0.07427585
v 0.14434649 -0.01512715 0.03802627
v 0.14589597 -0.01831152 0.04015861
v 0.14599092 -0.01634080 0.03799793
v 0.14599222 -0.01746445 0.03895826
v 0.07924082 -0.03033126 0.05420069
v 0.07925000 -0.02629508 0.06517215
v 0.08083160 -0.02977850 0.05599909
v 0.08079094 -0.02628740 0.06567684
v 0.19404177 -0.01853000 0.04400776
v 0.05929290 -0.02891093 0.05742741
v 0.07078563 -0.03247970 0.04789672
v 0.04591325 -0.03338747 0.04566568
v 0.05848376 -0.03016996 0.05487339
v 0.09588002 -0.02537750 0.06483738
v 0.09537595 -0.02371442 0.06370850
v 0.09011942 -0.02775144 0.06252404
v 0.08836032 -0.02821537 0.06122508
v 0.08849721 -0.02815426 0.06100879
v 0.08843397 -0.02820159 0.06111552
v 0.07984354 -0.02559288 0.05041157
v 0.08134711 -0.02428356 0.04645001
v 0.08133199 -0.03002584 0.05613637
v 0.08148038 -0.02994904 0.05590871
v 0.08141279 -0.03000657 0.05602044
v 0.08138655 -0.02687869 0.05139966
v 0.08127418 -0.03003297 0.05596107
v 0.08142251 -0.02990388 0.05578050
v 0.08115511 -0.02999917 0.05623754
v 0.08100000 -0.02994462 0.05621811
v 0.08081698 -0.02977223 0.05615669
v 0.08089644 -0.02662813 0.06529080
v 0.08100000 -0.02670298 0.06531747
v 0.08106595 -0.02673301 0.06532817
v 0.08142375 -0.02608936 0.06638150
v 0.07517952 -0.02609253 0.06709341
v 0.07512238 -0.02601578 0.06714332
v 0.07507393 -0.02592526 0.06717658
v 0.07555076 -0.02599236 0.06731576
v 0.07601123 -0.02527676 0.06786165
v 0.06108240 -0.02961194 0.05682800
v 0.06113085 -0.02970246 0.05679474
v 0.06118799 -0.02977921 0.05674483
v 0.07577578 -0.02607221 0.04428628
v 0.07620726 -0.02576654 0.04412967
v 0.07592899 -0.02616048 0.04436839
v 0.06117522 -0.03017259 0.05562259
v 0.06106538 -0.03008170 0.05544434
v 0.06070077 -0.03006256 0.05609135
v 0.06100734 -0.02990970 0.05530599
v 0.06100239 -0.02979368 0.05525808
v 0.06102677 -0.02999765 0.05536313
v 0.07308929 -0.02897149 0.04618122
v 0.07324716 -0.02908284 0.04618816
v 0.07340857 -0.02916019 0.04626165
v 0.07124852 -0.03256718 0.04788423
v 0.07108004 -0.03250231 0.04781814
v 0.07098024 -0.03245074 0.04781096
v 0.07083269 -0.03270193 0.04808933
v 0.07082182 -0.03268350 0.04806833
v 0.07077466 -0.03252992 0.04795098
v 0.07094254 -0.03279281 0.04826757
v 0.07117415 -0.03280067 0.04833727
v 0.07105708 -0.03280830 0.04817437
v 0.07133770 -0.03269934 0.04809446
v 0.07115353 -0.03270587 0.04795432
v 0.07126494 -0.03277265 0.04821254
v 0.07900000 -0.02670298 0.06531747
v 0.07893404 -0.02673301 0.06532817
v 0.07918301 -0.02653058 0.06525604
v 0.07910355 -0.02662813 0.06529080
v 0.07914041 -0.02598073 0.06623854
v 0.07883468 -0.03069109 0.05426658
v 0.07891797 -0.03066976 0.05414844
v 0.07898695 -0.03060846 0.05403506
v 0.07893697 -0.03066290 0.05414659
v 0.07893022 -0.03064154 0.05436131
v 0.07900000 -0.03061010 0.05435010
v 0.07909360 -0.03054437 0.05432669
v 0.07918301 -0.03043770 0.05428869
v 0.07920885 -0.03038931 0.05427145
v 0.07898816 -0.02478469 0.04541492
v 0.07915675 -0.03048541 0.05414543
v 0.05912004 -0.02939517 0.05783363
v 0.05877635 -0.02921622 0.05724932
v 0.05882788 -0.02943411 0.05756739
v 0.05924161 -0.02930069 0.05763561
v 0.05930371 -0.02901233 0.05744892
v 0.05927977 -0.02921657 0.05755404
v 0.07404756 -0.02520851 0.06838550
v 0.07404632 -0.02522287 0.06839228
v 0.05619478 -0.02977136 0.05676650
v 0.04173841 -0.02589322 0.06765249
v 0.05625261 -0.02969461 0.05681596
v 0.05837222 -0.02764894 0.05598495
v 0.05619766 -0.03016490 0.05564386
v 0.05814712 -0.03038537 0.05465697
v 0.05812537 -0.03033218 0.05466743
v 0.05899334 -0.03054907 0.05475627
v 0.04602400 -0.03368302 0.04562123
v 0.04597555 -0.03359251 0.04565448
v 0.12862147 -0.02264908 0.05137949
v 0.11006167 -0.01747982 0.05565361
v 0.08240859 -0.01637648 0.04206398
v 0.09196698 -0.02686242 0.06456684
v 0.09188403 -0.02702923 0.06446981
v 0.09200404 -0.02707926 0.06436129
v 0.08557960 -0.02575317 0.06789289
v 0.08550879 -0.02586483 0.06779911
v 0.08508824 -0.02569132 0.06805819
v 0.19910355 -0.01888355 0.06466876
v 0.19894134 -0.01899194 0.06466876
v 0.19922986 -0.01864797 0.06552143
v 0.19884098 -0.01902165 0.06466876
v 0.19921194 -0.01872134 0.04714143
v 0.19910355 -0.01888355 0.04714143
v 0.19894134 -0.01899194 0.04714143
v 0.19407316 -0.01878000 0.04406694
v 0.19411038 -0.01888355 0.04413714
v 0.19411038 -0.01888355 0.06767305
v 0.19418636 -0.01899194 0.06752973
v 0.19782213 -0.01810189 0.06734313
v 0.19484242 -0.01862734 0.06815166
v 0.14455376 -0.01831580 0.04150060
v 0.14434025 -0.01830649 0.04089036
v 0.14551869 -0.01879681 0.04174737
v 0.14689322 -0.01896234 0.04240010
v 0.14832716 -0.01903000 0.04300000
v 0.14698532 -0.01897953 0.04222392
v 0.14809296 -0.01853000 0.04344175
v 0.14811078 -0.01872134 0.04340813
v 0.14816156 -0.01888355 0.04331237
v 0.14819901 -0.01894850 0.04324173
v 0.14823754 -0.01899194 0.04316905
v 0.14471634 -0.01896301 0.04363231
v 0.14476484 -0.01888355 0.04354082
v 0.14394897 -0.01862228 0.04303479
v 0.14432127 -0.01812245 0.06961344
v 0.13937383 -0.01542952 0.07004172
v 0.19498091 -0.01879905 0.04382793
v 0.23184780 -0.02252209 0.03397456
v 0.23587558 -0.02374875 0.08634924
v 0.07718541 -0.00303000 0.07018519
v 0.07708759 -0.02599209 0.07036787
v 0.07538214 -0.00098337 0.07326722
v 0.08000000 -0.00303000 0.07506019
v 0.19701718 -0.01847323 0.07310063
v 0.19662387 -0.01957920 0.07142103
v 0.19675000 -0.00303000 0.07181019
v 0.19830699 -0.00303218 0.07474502
v 0.03971660 -0.03415526 0.02319327
v 0.00033052 -0.03622908 0.02347511
v 0.01172769 -0.03151967 -0.01258016
v 0.19349433 -0.01897409 0.04217120
v 0.18894230 -0.01903000 0.06736254
v 0.18910791 -0.01888355 0.06705017
v 0.18905939 -0.01896301 0.06714166
v 0.18903193 -0.01899194 0.06719349
v 0.00604563 -0.03165813 0.01064692
v 0.19286211 -0.01667438 0.07212894
v 0.14583866 -0.01688208 0.07195615
v 0.19300260 -0.01765197 0.07118842
v 0.18986210 -0.01900637 0.06789453
v 0.14568723 -0.01665025 0.07213457
v 0.14537385 -0.01649450 0.07217663
v 0.19463735 -0.01603643 0.07189133
v 0.08058726 -0.02215407 0.06835006
v 0.19307452 -0.01889127 0.04171722
v 0.19288343 -0.01851889 0.04057676
v 0.19281553 -0.01820215 0.03995880
v 0.19275731 -0.01749139 0.03898802
v 0.19373847 -0.01661448 0.03835346
v 0.19496931 -0.01712952 0.04257922
v 0.17338359 -0.01877586 0.05309090
v 0.17363434 -0.01893958 0.05288807
v 0.17361711 -0.01896301 0.05285557
v 0.19178994 -0.01896301 0.04322088
v 0.19183844 -0.01888355 0.04331237
v 0.19187567 -0.01878000 0.04338257
v 0.19356011 -0.01881626 0.04242550
v 0.20066318 -0.01812543 0.04586604
v 0.19491623 -0.01738938 0.06939068
v 0.19031805 -0.01883751 0.06763193
v 0.07476946 -0.02432591 0.06897253
v 0.07407925 -0.02527193 0.06846200
v 0.04158651 -0.02575810 0.06780850
v 0.04147615 -0.02592337 0.06761158
v 0.04132556 -0.02574908 0.06768992
v 0.04743611 -0.00011649 0.07426866
v 0.04549836 -0.01628223 0.07218625
v 0.04694479 -0.00826397 0.07374066
v 0.04311946 -0.02404111 0.06962971
v 0.07890747 -0.03209509 0.05017938
v 0.08159191 -0.00839295 0.03472006
v 0.12354971 -0.01847440 0.07309389
v 0.12517473 -0.01817806 0.07326753
v 0.23051182 0.01505265 0.03304330
v 0.24843638 -0.01848695 0.06997068
v 0.24269131 -0.01701244 0.04200754
v 0.23030486 0.00939594 0.08074734
v 0.27258458 0.01108765 0.04312660
v 0.25278200 -0.00003000 0.08354512
v 0.24622782 -0.00003000 0.08457363
v 0.22198709 0.01492385 0.07327694
v 0.23707472 0.01897000 0.08449998
v 0.23730455 0.01897000 0.08444405
v 0.24500000 0.01897000 0.08450001
v 0.23748295 0.01897000 0.08428870
v 0.23756997 0.01897000 0.08406875
v 0.12732227 0.01997000 0.07029735
v 0.15254781 0.01997000 0.06451450
v 0.21561995 0.01997000 0.03982843
v 0.19750817 0.01997000 0.04499734
v 0.19300815 0.01997000 0.04499734
v 0.15577440 0.02007909 0.05605301
v 0.16955554 0.02019222 0.06473635
v 0.18576530 0.01997000 0.06454075
v 0.15253572 0.01997000 0.03982843
v 0.17877848 0.01997000 0.04499733
v 0.18576530 0.01997000 0.05705149
v 0.16567784 0.02014500 0.05245236
v 0.16029510 0.01997000 0.05188104
v 0.15435120 0.01997000 0.04504339
v 0.16576324 0.02010333 0.04504189
v 0.16966324 0.01997000 0.04504189
v 0.17443757 0.01997000 0.04499735
v 0.15912120 0.02007000 0.04504338
v 0.16953403 0.02015182 0.05558850
v 0.16890985 0.02011000 0.06165236
v 0.16043829 0.02014143 0.05938403
v 0.21789418 0.01997000 0.07029737
v 0.15983263 0.02018818 0.06378333
v 0.09869608 0.01997000 0.03982842
v 0.14610533 0.02005000 0.04503435
v 0.15072533 0.01997000 0.04503435
v 0.13661849 0.01997000 0.06445074
v 0.13193849 0.01997000 0.06445077
v 0.13888952 0.01997000 0.05488350
v 0.13173369 0.01997000 0.04503436
v 0.14119951 0.02030333 0.05178662
v 0.13629369 0.02007000 0.04503436
v 0.14449203 0.01997000 0.05620809
v 0.15072595 0.01997000 0.06448076
v 0.14604530 0.01997000 0.06448075
v 0.22628577 0.02297000 0.02872854
v 0.21635538 0.01981776 0.03906305
v 0.20461655 -0.00003000 0.07431020
v 0.22160964 -0.00003000 0.07581020
v 0.23238621 -0.00003000 0.08415192
v 0.23756997 -0.00003000 0.08406875
v 0.23754615 -0.00003000 0.08383340
v 0.03972041 -0.00002680 0.06637226
v 0.08723274 -0.00003000 0.07431021
v 0.04622719 0.00868967 0.07523249
v 0.04663109 0.00433940 0.07566559
v 0.10035157 0.02604038 0.06807479
v 0.14471439 0.01497002 0.07255852
v 0.13568542 0.01565433 0.07231959
v 0.14570428 0.01753379 0.07125764
v 0.14586243 0.01657228 0.07215622
v 0.14422319 0.01622885 0.07221486
v 0.19275001 0.00825355 0.07378097
v 0.19275646 0.01034212 0.07347853
v 0.19335097 0.00883563 0.07362517
v 0.08724093 0.00426499 0.07416834
v 0.19275895 0.00430074 0.07416598
v 0.13943755 0.01495880 0.03937982
v 0.20161306 -0.00040248 0.03863513
v 0.07925560 0.03024360 0.05443445
v 0.07918964 0.03035349 0.05408462
v 0.07919277 0.03031991 0.05405518
v 0.07905316 0.03044637 0.05394870
v 0.07903414 0.03045693 0.05393983
v 0.07898695 0.03054846 0.05403507
v 0.07891797 0.03060976 0.05414844
v 0.07883468 0.03063109 0.05426659
v 0.07884970 0.03061740 0.05431924
v 0.07894135 0.03057735 0.05435982
v 0.07910355 0.03047525 0.05432344
v 0.07905149 0.03054664 0.05417676
v 0.08079218 0.02972737 0.05603129
v 0.08080434 0.02969027 0.05614886
v 0.08081699 0.02971222 0.05615669
v 0.08100000 0.02988463 0.05621812
v 0.08121122 0.02998885 0.05602289
v 0.08115511 0.02993917 0.05623753
v 0.08137826 0.02995999 0.05607184
v 0.08143454 0.02992948 0.05594394
v 0.08141279 0.02994657 0.05602045
v 0.08148038 0.02988904 0.05590871
v 0.08152771 0.02980201 0.05581383
v 0.08115101 0.02986016 0.05576755
v 0.08129380 0.02986640 0.05576257
v 0.08155996 0.02884582 0.05450508
v 0.08101080 0.02982023 0.05579933
v 0.08089201 0.02974981 0.05585539
v 0.07126494 0.03271265 0.04821253
v 0.07125258 0.03271970 0.04823066
v 0.07118514 0.03263182 0.04795160
v 0.07108129 0.03272364 0.04844856
v 0.07106294 0.03275372 0.04828466
v 0.07123315 0.03272848 0.04825835
v 0.07133771 0.03263934 0.04809445
v 0.07082559 0.03257884 0.04797310
v 0.07083269 0.03264193 0.04808933
v 0.07093608 0.03273055 0.04825820
v 0.07094254 0.03273281 0.04826758
v 0.08854420 0.02801977 0.06091547
v 0.10052150 0.01941980 0.04937432
v 0.10899355 0.01901494 0.05414754
v 0.09417023 0.01990136 0.04596107
v 0.09783682 0.01959371 0.04817102
v 0.08462779 0.01910243 0.04252890
v 0.11057806 0.01889823 0.05456329
v 0.11168119 0.01723679 0.05546138
v 0.11177924 0.01890301 0.05382994
v 0.11166213 0.01897000 0.05360908
v 0.13178994 0.01890301 0.04322089
v 0.13175905 0.01893489 0.04316261
v 0.14353890 0.02178540 0.04897023
v 0.12033427 0.01872000 0.06230872
v 0.11112183 0.01898713 0.05749282
v 0.12024854 0.01890301 0.06247041
v 0.12029787 0.01882179 0.06237737
v 0.13538478 0.01784443 0.07062723
v 0.13508448 0.01766835 0.07009112
v 0.13496261 0.01790620 0.07021196
v 0.13472234 0.01795219 0.07001252
v 0.12905940 0.01890301 0.06714166
v 0.12910791 0.01882355 0.06705017
v 0.12914513 0.01872000 0.06697997
v 0.13153156 0.01853989 0.06820928
v 0.16886035 0.01872000 0.05743400
v 0.15089209 0.01882355 0.06705017
v 0.16889757 0.01882355 0.05750422
v 0.15094060 0.01890301 0.06714167
v 0.16894607 0.01890301 0.05759569
v 0.15097149 0.01893489 0.06719992
v 0.16897355 0.01893194 0.05764753
v 0.15105771 0.01897000 0.06736254
v 0.19489401 0.01713599 0.06924972
v 0.17011523 0.01755297 0.05602803
v 0.18879827 0.01913773 0.06710744
v 0.18894230 0.01897000 0.06736255
v 0.16996043 0.01890112 0.05725939
v 0.08080456 0.02660127 0.05153085
v 0.08080079 0.02397702 0.04656235
v 0.08088268 0.02669703 0.05147263
v 0.08087281 0.02407591 0.04651729
v 0.08099314 0.02677377 0.05142612
v 0.08097459 0.02415698 0.04648034
v 0.08112457 0.02682090 0.05139768
v 0.08109665 0.02421030 0.04645605
v 0.08126071 0.02683464 0.05138963
v 0.08122525 0.02423167 0.04644633
v 0.08291953 0.02236907 0.04465984
v 0.07918529 0.02759154 0.05037766
v 0.07900492 0.02774480 0.05027595
v 0.07910562 0.02767939 0.05031938
v 0.07911913 0.02524616 0.04621479
v 0.07897212 0.02534431 0.04616363
v 0.07921194 0.02641532 0.06523637
v 0.07910355 0.02656813 0.06529079
v 0.07894135 0.02667023 0.06532717
v 0.08836032 0.02815537 0.06122509
v 0.08849721 0.02809426 0.06100881
v 0.08843397 0.02814159 0.06111553
v 0.08125000 0.02670608 0.06533995
v 0.08106719 0.02667347 0.06532833
v 0.08089710 0.02656874 0.06529101
v 0.08081698 0.02647058 0.06525603
v 0.08075000 0.02623508 0.06517214
v 0.09022274 0.02766570 0.06242914
v 0.06106538 0.03002170 0.05544435
v 0.06112243 0.03008476 0.05554258
v 0.06117522 0.03011259 0.05562257
v 0.06131397 0.03010341 0.05580359
v 0.05838670 0.02675598 0.05660722
v 0.06028385 0.02932379 0.05548118
v 0.07381764 0.02745376 0.04492022
v 0.07859609 0.02507211 0.04551478
v 0.23465570 0.02331985 0.03539269
v 0.17877848 0.02037000 0.04499733
v 0.17443757 0.02037000 0.04499735
v 0.18576530 0.02037000 0.05705149
v 0.18576530 0.02037000 0.06454075
v 0.19300815 0.02037000 0.04499734
v 0.19750817 0.02037000 0.04499734
v 0.16089831 0.02015182 0.05646441
v 0.16966324 0.02037000 0.04504189
v 0.16966324 0.02037000 0.05560189
v 0.15662373 0.02037000 0.05747046
v 0.14604530 0.02037000 0.06448075
v 0.15072595 0.02037000 0.06448076
v 0.14210942 0.02013000 0.05925768
v 0.14449203 0.02037000 0.05620809
v 0.13661849 0.02037000 0.06445074
v 0.15072533 0.02037000 0.04503435
v 0.13193849 0.02037000 0.06445077
v 0.13888952 0.02037000 0.05488350
v 0.13173369 0.02037000 0.04503436
v 0.16029510 0.02037000 0.05188104
v 0.16453952 0.02037000 0.05127645
v 0.15435120 0.02037000 0.04504339
v 0.05898024 0.03059225 0.05443140
v 0.08090942 0.02332952 0.04542868
v 0.11254524 0.01699865 0.05755281
v 0.08859336 0.01915892 0.03942620
v 0.08552493 0.02040225 0.04186398
v 0.13294946 0.01893388 0.04241496
v 0.13985097 0.01586178 0.06868415
v 0.14432493 0.01746453 0.07015537
v 0.14740213 0.01864826 0.06925615
v 0.14951444 0.01889467 0.06802443
v 0.14869660 0.01870441 0.06818855
v 0.14871020 0.01883589 0.06864720
v 0.14818369 0.01873372 0.06902477
v 0.14681758 0.01844510 0.06981491
v 0.13506556 0.01801424 0.07045910
v 0.13195185 0.01872597 0.06877594
v 0.13178824 0.01876991 0.06887024
v 0.13200365 0.01864444 0.06863781
v 0.13158598 0.01869782 0.06837827
v 0.08012221 0.01380957 0.04326168
v 0.07934107 0.02429296 0.06662120
v 0.07681207 0.02609540 0.06709606
v 0.08103045 0.02628854 0.06602379
v 0.08087245 0.02562735 0.06645341
v 0.05899558 0.02932194 0.05799719
v 0.05913294 0.02933148 0.05781488
v 0.07228195 0.02586679 0.06754033
v 0.07244794 0.02560384 0.06722223
v 0.05924161 0.02924069 0.05763559
v 0.07239063 0.02577600 0.06736104
v 0.05883813 0.02938439 0.05748785
v 0.04548571 0.02585725 0.06772264
v 0.05834798 0.02907706 0.05732592
v 0.05811028 0.02915526 0.05755932
v 0.05814888 0.02923931 0.05764054
v 0.05825872 0.02933020 0.05781876
v 0.05630162 0.02954406 0.05684876
v 0.05651759 0.02948740 0.05670671
v 0.05619478 0.02971136 0.05676650
v 0.05625167 0.02963608 0.05681523
v 0.26671136 0.02247322 0.05889804
v 0.23698528 0.01962421 0.02972921
v 0.06936184 0.03282558 0.04707191
v 0.08677574 0.01915332 0.03917041
v 0.08676022 0.01854165 0.03856427
v 0.08679450 0.01854165 0.03855320
v 0.08682910 0.01854165 0.03854290
v 0.08689933 0.01854165 0.03852460
v 0.08726150 0.01827628 0.03819448
v 0.08641943 0.01854165 0.03872436
v 0.08643489 0.01854165 0.03871496
v 0.08646604 0.01854165 0.03869671
v 0.08648173 0.01854165 0.03868785
v 0.08649749 0.01854165 0.03867914
v 0.08652901 0.01854165 0.03866220
v 0.08656131 0.01854165 0.03864615
v 0.08659367 0.01854165 0.03863069
v 0.08662635 0.01854165 0.03861596
v 0.08665934 0.01854165 0.03860193
v 0.08669265 0.01854165 0.03858865
v 0.08672628 0.01854165 0.03857609
v 0.24088605 0.01897000 0.02749999
v 0.10372329 0.02161593 0.05929114
v 0.11059409 0.02040562 0.06980539
v 0.19246383 0.01861373 0.06939927
v 0.19313079 0.01804958 0.07055593
v 0.19303885 0.01774552 0.07099497
v 0.19289131 0.01689878 0.07189737
v 0.08049256 0.02339731 0.06600941
v 0.04190814 0.02546073 0.06774519
v 0.04184524 0.02566592 0.06773476
v 0.04184363 0.02566944 0.06773388
v 0.05657415 0.03000248 0.05641090
v 0.04269575 0.02440279 0.06914550
v 0.04528120 0.02585423 0.06753135
v 0.04524781 0.02579112 0.06738316
v 0.04523712 0.02577554 0.06736340
v 0.04517908 0.02560353 0.06722503
v 0.04719663 0.03042107 0.05708297
v 0.23707472 0.01897000 0.02750000
v 0.23730457 0.01897000 0.02755596
v 0.23748295 0.01897000 0.02771131
v 0.23721090 0.01897000 0.02848110
v 0.23741680 0.01897000 0.02836467
v 0.23754615 0.01897000 0.02816661
v 0.23756997 0.01897000 0.02793127
v 0.07907129 0.02060923 0.03656917
v 0.08874282 0.02532056 0.06884600
v 0.22122028 0.00868967 0.07523249
v 0.22012717 0.01687935 0.07361056
v 0.12761301 0.01687935 0.07361057
v 0.21815209 0.01989388 0.07068005
v 0.22627707 0.02297000 0.08273552
v 0.21837075 0.01967711 0.07100447
v 0.21995220 0.01733061 0.07335095
v 0.22005929 0.01712354 0.07350986
v 0.12385179 0.01990076 0.07038859
v 0.23741680 -0.00003000 0.02836467
v 0.23748295 -0.00003000 0.02771131
v 0.23756997 -0.00003000 0.02793127
v 0.23730457 -0.00003000 0.02755596
v 0.02372499 0.03271428 0.01880073
v 0.08655909 0.01854165 0.03864701
v 0.08658940 0.01854165 0.03863246
v 0.08661994 0.01854165 0.03861855
v 0.08665074 0.01854165 0.03860531
v 0.08668176 0.01854165 0.03859269
v 0.08671303 0.01854165 0.03858072
v 0.08674454 0.01854165 0.03856944
v 0.08677629 0.01854165 0.03855878
v 0.08680829 0.01854165 0.03854881
v 0.08684053 0.01854165 0.03853950
v 0.08649916 0.01854165 0.03867801
v 0.08646955 0.01854165 0.03869447
v 0.08644506 0.01854165 0.03870867
v 0.08594567 0.01824266 0.03886455
v 0.08669569 0.01850881 0.03855864
v 0.08630452 0.01659984 0.03760543
v 0.07248292 0.02579124 0.06746052
v 0.07522294 0.02467943 0.04095342
v 0.05845208 0.03067641 0.05463377
v 0.05921811 0.03032645 0.05465257
v 0.05911127 0.03049375 0.05457031
v 0.04434779 0.03813936 0.03545872
v 0.06919283 0.03319725 0.04697990
v 0.06929998 0.03302847 0.04706205
v 0.06922172 0.03327018 0.04687880
v 0.04153742 0.02550120 0.06785228
v 0.04166151 0.02563744 0.06781037
v 0.04064793 0.02603378 0.06719340
v 0.03977364 0.02647626 0.06583893
v 0.07431915 0.02426607 0.07049689
v 0.19422298 0.01639937 0.07190175
v 0.19839353 -0.00004678 0.06925461
v 0.09803896 0.01938947 0.03841949
v 0.20917065 0.02070159 0.05235635
v 0.23081374 0.02358143 0.08498645
v 0.12761047 0.01733061 0.07335097
v 0.09814476 0.01976735 0.03895120
v 0.09670336 0.01992984 0.03917008
v 0.12741405 0.01996962 0.07032494
v 0.12745581 0.01995229 0.07048670
v 0.12758316 0.01989420 0.07067926
v 0.12387767 0.01923200 0.07160371
v 0.12761170 0.01712218 0.07351065
v 0.12255312 0.01724539 0.07349506
f 4 2 5
f 5 2 6
f 4 7 2
f 2 7 8
f 2 8 329
f 6 2 9
f 9 2 3
f 2 10 3
f 12 13 11
f 11 13 14
f 14 15 11
f 11 15 16
f 11 16 17
f 99 40 11
f 99 11 17
f 3 18 19
f 20 3 19
f 20 19 1
f 1 455 328
f 22 23 24
f 24 23 189
f 25 26 21
f 189 23 26
f 26 23 27
f 26 27 21
f 25 21 289
f 27 455 21
f 289 21 381
f 28 291 381
f 118 29 32
f 29 30 32
f 32 31 118
f 33 35 34
f 34 35 36
f 34 36 31
f 34 381 37
f 34 37 33
f 33 37 38
f 33 38 35
f 35 38 36
f 36 38 39
f 36 39 31
f 41 99 17
f 41 17 42
f 42 17 16
f 42 16 43
f 43 16 15
f 43 15 44
f 44 15 14
f 44 14 45
f 45 14 13
f 45 13 46
f 46 13 12
f 46 12 47
f 48 329 8
f 48 8 49
f 49 8 7
f 49 7 50
f 50 7 4
f 50 4 51
f 51 4 5
f 51 5 52
f 52 5 6
f 52 6 53
f 53 6 9
f 53 9 54
f 60 61 57
f 57 58 60
f 60 58 62
f 58 59 63
f 55 58 63
f 55 63 56
f 55 87 58
f 62 64 65
f 62 65 60
f 60 65 66
f 60 66 61
f 64 62 58
f 64 58 87
f 87 67 64
f 65 64 66
f 70 71 69
f 127 72 70
f 127 70 69
f 69 87 127
f 127 74 75
f 127 75 73
f 77 87 76
f 87 77 78
f 87 79 83
f 83 80 81
f 83 79 82
f 83 82 80
f 83 81 87
f 84 85 86
f 84 86 87
f 91 90 92
f 93 92 103
f 93 103 94
f 94 103 95
f 95 103 96
f 88 103 92
f 88 92 90
f 88 90 89
f 54 9 3
f 97 3 129
f 98 99 41
f 338 339 103
f 338 103 104
f 104 103 88
f 104 88 102
f 102 88 340
f 340 88 380
f 354 105 332
f 354 332 100
f 269 106 107
f 269 107 108
f 269 108 270
f 28 381 109
f 110 111 112
f 112 111 113
f 114 115 116
f 116 282 114
f 31 109 34
f 118 39 117
f 119 120 121
f 121 120 113
f 118 31 39
f 111 122 123
f 123 118 111
f 111 118 113
f 113 118 117
f 113 117 121
f 125 124 126
f 125 126 309
f 128 127 73
f 128 73 126
f 126 73 309
f 99 368 129
f 129 309 353
f 132 133 134
f 134 133 131
f 134 131 135
f 135 131 291
f 131 203 291
f 136 137 222
f 136 222 204
f 204 222 294
f 138 226 236
f 139 140 141
f 141 140 142
f 141 142 236
f 149 143 144
f 146 158 145
f 147 158 146
f 148 149 144
f 144 150 148
f 148 150 151
f 143 1 19
f 151 380 155
f 152 148 153
f 153 148 151
f 153 151 154
f 154 151 155
f 156 158 157
f 157 158 147
f 19 18 159
f 159 160 19
f 19 160 146
f 19 146 143
f 143 146 145
f 143 145 144
f 105 161 162
f 162 161 173
f 162 173 163
f 163 173 164
f 163 164 165
f 166 332 165
f 165 332 163
f 167 332 166
f 168 169 170
f 105 170 169
f 105 169 161
f 161 169 171
f 161 171 172
f 172 115 161
f 161 115 114
f 161 114 173
f 45 46 47
f 52 53 54
f 41 47 98
f 98 47 455
f 50 51 49
f 49 51 52
f 49 52 48
f 48 52 54
f 48 54 3
f 44 45 43
f 43 45 47
f 43 47 42
f 42 47 41
f 381 89 37
f 455 381 21
f 89 38 37
f 167 188 159
f 159 188 175
f 175 188 117
f 175 117 89
f 89 117 39
f 89 39 38
f 3 97 18
f 18 97 129
f 100 332 176
f 129 174 18
f 18 174 176
f 18 176 159
f 159 176 332
f 159 332 167
f 177 178 179
f 178 177 180
f 179 181 177
f 177 181 182
f 177 182 183
f 177 184 180
f 180 184 157
f 180 157 185
f 185 157 147
f 185 147 175
f 339 177 186
f 186 177 183
f 159 175 160
f 160 175 146
f 146 175 147
f 380 88 89
f 380 89 381
f 177 339 187
f 187 339 380
f 339 101 380
f 114 121 117
f 114 117 188
f 26 25 189
f 189 25 289
f 289 130 189
f 227 141 226
f 226 141 236
f 269 232 106
f 191 24 189
f 190 192 312
f 192 191 312
f 312 191 189
f 194 354 193
f 193 354 208
f 195 208 354
f 195 354 196
f 197 360 69
f 69 360 87
f 300 309 368
f 129 368 309
f 198 371 282
f 227 282 354
f 28 282 199
f 118 282 201
f 201 200 118
f 109 282 28
f 198 282 272
f 202 289 290
f 203 290 291
f 203 131 133
f 204 205 136
f 204 294 133
f 133 206 204
f 204 206 207
f 204 207 205
f 209 291 208
f 205 210 136
f 136 210 137
f 133 132 206
f 206 132 211
f 206 211 207
f 207 211 212
f 207 212 205
f 205 212 214
f 205 214 210
f 213 209 195
f 195 209 208
f 213 195 214
f 213 214 215
f 291 209 135
f 135 209 213
f 135 213 134
f 134 213 215
f 134 215 132
f 212 211 214
f 214 211 132
f 214 132 215
f 216 137 214
f 214 137 210
f 195 217 216
f 217 195 218
f 216 214 195
f 195 196 218
f 218 196 219
f 218 219 217
f 217 219 220
f 217 220 216
f 216 220 221
f 216 221 137
f 137 221 222
f 220 219 196
f 222 221 220
f 220 196 222
f 222 196 354
f 223 224 227
f 227 226 223
f 224 225 227
f 282 227 228
f 228 227 225
f 228 225 229
f 229 225 224
f 229 224 230
f 230 224 223
f 230 223 138
f 138 223 226
f 232 269 28
f 28 231 232
f 232 233 106
f 236 234 235
f 230 138 236
f 228 229 236
f 237 238 236
f 238 282 236
f 282 228 236
f 236 235 239
f 229 230 236
f 236 239 237
f 240 28 199
f 241 231 240
f 240 231 28
f 107 106 242
f 242 106 233
f 242 233 241
f 241 233 232
f 241 232 231
f 108 107 243
f 243 107 242
f 243 242 244
f 244 242 241
f 244 241 245
f 245 241 240
f 245 240 199
f 235 246 239
f 239 246 247
f 239 247 237
f 237 247 248
f 237 248 238
f 238 248 199
f 238 199 282
f 236 142 234
f 234 142 249
f 234 249 235
f 235 249 251
f 235 251 246
f 108 243 253
f 253 243 244
f 253 244 245
f 253 245 199
f 253 251 254
f 253 254 252
f 251 249 142
f 251 142 250
f 246 251 247
f 199 248 247
f 199 247 253
f 253 247 251
f 255 256 259
f 259 354 194
f 256 139 141
f 257 258 259
f 256 141 259
f 259 141 227
f 258 255 259
f 259 227 354
f 194 257 259
f 142 140 250
f 250 140 260
f 250 260 251
f 251 260 254
f 254 260 261
f 254 261 252
f 262 270 108
f 261 263 252
f 252 263 262
f 252 262 253
f 253 262 108
f 140 139 264
f 264 139 256
f 264 256 265
f 265 256 255
f 265 255 266
f 266 255 258
f 266 258 267
f 267 258 257
f 267 257 268
f 268 257 194
f 268 194 193
f 261 260 263
f 270 262 263
f 268 193 267
f 267 193 270
f 267 270 266
f 266 270 265
f 265 270 263
f 265 263 264
f 264 263 260
f 264 260 140
f 270 208 269
f 270 193 208
f 269 291 28
f 291 269 208
f 116 271 273
f 116 273 282
f 198 272 275
f 276 272 274
f 274 272 273
f 273 272 282
f 116 115 271
f 271 115 172
f 271 172 171
f 371 198 277
f 277 198 275
f 277 275 278
f 275 272 278
f 278 272 276
f 278 276 168
f 168 276 274
f 168 274 169
f 169 274 171
f 171 274 273
f 171 273 271
f 110 112 279
f 279 112 280
f 279 280 281
f 281 280 373
f 281 373 282
f 282 373 114
f 110 279 281
f 110 281 282
f 111 110 283
f 110 123 283
f 283 123 122
f 283 122 111
f 123 110 118
f 118 110 282
f 109 286 282
f 284 285 201
f 284 201 286
f 286 201 282
f 286 109 287
f 286 287 284
f 284 287 288
f 284 288 285
f 285 288 200
f 285 200 201
f 109 31 32
f 109 32 287
f 118 200 29
f 29 200 288
f 29 288 30
f 30 288 287
f 30 287 32
f 381 291 290
f 289 381 290
f 294 293 292
f 292 203 294
f 294 203 133
f 354 203 292
f 354 292 295
f 295 292 293
f 295 293 297
f 297 293 296
f 296 293 294
f 296 294 222
f 296 222 297
f 297 222 354
f 354 295 297
f 300 298 299
f 125 309 301
f 301 309 300
f 301 300 299
f 300 302 298
f 298 302 303
f 298 303 299
f 299 303 304
f 299 304 301
f 301 304 124
f 301 124 125
f 197 69 71
f 197 71 305
f 305 71 70
f 305 70 306
f 306 70 72
f 306 72 327
f 72 127 327
f 127 369 310
f 127 310 74
f 74 310 307
f 74 307 75
f 75 307 308
f 75 308 73
f 73 308 309
f 309 308 307
f 309 307 310
f 310 369 309
f 312 189 130
f 312 311 313
f 130 311 312
f 314 312 313
f 315 316 314
f 312 314 316
f 311 317 318
f 311 318 319
f 311 319 313
f 313 319 320
f 313 320 314
f 314 320 321
f 314 321 315
f 322 323 324
f 130 322 324
f 130 324 87
f 130 86 322
f 322 86 85
f 322 85 323
f 323 85 84
f 323 84 324
f 324 84 87
f 325 87 86
f 325 86 130
f 325 130 326
f 326 130 289
f 368 124 304
f 302 300 368
f 302 368 303
f 368 304 303
f 197 305 360
f 327 360 305
f 327 305 306
f 124 368 126
f 327 127 128
f 128 126 327
f 327 126 368
f 327 368 360
f 360 455 27
f 368 455 360
f 2 329 10
f 40 328 11
f 328 40 99
f 329 20 3
f 329 3 10
f 99 1 328
f 48 3 329
f 11 328 12
f 12 328 47
f 47 328 455
f 186 103 339
f 103 186 96
f 186 183 96
f 96 183 182
f 96 182 95
f 95 182 181
f 95 181 94
f 94 181 179
f 94 179 93
f 179 178 93
f 93 178 180
f 185 90 91
f 185 91 180
f 180 91 92
f 180 92 93
f 185 175 90
f 90 175 89
f 380 381 291
f 291 381 380
f 331 187 330
f 330 187 100
f 158 330 332
f 156 331 330
f 156 330 158
f 100 150 144
f 100 144 333
f 333 144 145
f 333 145 332
f 332 145 158
f 100 380 151
f 100 151 150
f 187 380 100
f 100 333 332
f 332 330 100
f 334 335 152
f 152 335 336
f 152 336 148
f 148 336 337
f 148 337 149
f 129 1 337
f 337 1 143
f 337 143 149
f 336 335 129
f 129 335 1
f 129 337 336
f 339 338 102
f 340 346 102
f 346 101 339
f 346 340 101
f 338 104 102
f 346 339 102
f 99 98 455
f 64 315 66
f 66 315 61
f 341 67 68
f 315 64 67
f 315 67 341
f 342 79 87
f 342 87 78
f 127 87 369
f 309 369 353
f 130 87 55
f 311 130 317
f 317 130 55
f 76 87 325
f 369 87 370
f 370 87 81
f 370 81 343
f 343 81 80
f 343 80 344
f 344 80 82
f 344 82 345
f 345 82 79
f 345 79 342
f 321 320 59
f 59 320 319
f 59 319 63
f 63 319 318
f 63 318 56
f 56 318 317
f 56 317 55
f 59 58 321
f 321 58 57
f 321 57 315
f 315 57 61
f 351 347 348
f 348 347 349
f 348 349 325
f 369 76 349
f 349 76 325
f 342 78 350
f 350 78 77
f 350 77 369
f 369 77 76
f 202 290 203
f 202 203 354
f 351 348 325
f 351 325 352
f 352 325 326
f 354 326 289
f 354 289 202
f 353 352 326
f 353 347 352
f 352 347 351
f 176 174 354
f 354 174 326
f 109 381 34
f 315 341 355
f 315 355 316
f 316 355 356
f 316 356 312
f 359 22 191
f 191 22 24
f 312 356 190
f 190 356 357
f 190 357 192
f 192 357 358
f 192 358 191
f 191 358 359
f 27 23 22
f 355 360 356
f 356 360 357
f 360 27 359
f 341 360 355
f 357 360 358
f 358 360 359
f 359 27 22
f 67 361 68
f 68 361 363
f 363 361 362
f 67 87 361
f 341 68 364
f 364 68 363
f 364 363 365
f 365 363 362
f 365 362 366
f 362 361 366
f 366 361 360
f 360 361 87
f 341 364 367
f 366 360 367
f 366 367 365
f 365 367 364
f 341 367 360
f 99 455 368
f 353 326 174
f 174 129 353
f 347 353 349
f 369 349 353
f 342 350 345
f 345 350 370
f 345 370 344
f 370 343 344
f 369 370 350
f 354 100 176
f 332 105 163
f 163 105 162
f 354 282 371
f 371 105 354
f 371 170 105
f 170 371 372
f 277 278 372
f 372 278 168
f 372 168 170
f 371 277 372
f 373 280 112
f 112 374 373
f 373 374 375
f 373 375 114
f 121 114 375
f 121 375 119
f 119 375 374
f 119 374 120
f 120 374 112
f 120 112 113
f 164 377 165
f 165 377 378
f 165 378 166
f 166 378 376
f 166 376 167
f 167 376 188
f 114 377 379
f 379 377 164
f 379 164 173
f 188 376 378
f 188 378 114
f 114 378 377
f 173 114 379
f 20 99 3
f 20 1 99
f 129 3 99
f 381 455 380
f 380 455 1
f 380 101 340
f 380 1 335
f 380 335 382
f 382 154 155
f 155 380 382
f 154 382 383
f 154 383 153
f 153 383 152
f 152 383 334
f 383 382 334
f 334 382 335
f 157 184 156
f 156 184 331
f 177 187 184
f 184 187 331
f 329 3 20
f 387 386 385
f 385 386 388
f 386 387 384
f 388 387 389
f 389 387 390
f 387 385 390
f 390 385 389
f 389 385 388
f 387 384 391
f 384 387 388
f 388 386 384
f 384 387 391
f 392 393 394
f 394 393 395
f 394 395 396
f 396 727 394
f 394 727 632
f 632 727 569
f 397 398 688
f 727 399 400
f 400 399 401
f 416 403 404
f 406 407 401
f 404 727 400
f 402 408 409
f 402 409 410
f 405 411 412
f 401 399 406
f 406 399 405
f 406 405 413
f 413 405 412
f 413 412 415
f 408 411 414
f 414 411 405
f 414 405 410
f 410 405 402
f 404 413 416
f 416 413 415
f 416 415 576
f 416 576 417
f 727 404 418
f 418 404 403
f 418 403 397
f 397 403 419
f 397 419 398
f 398 419 402
f 405 420 421
f 421 422 405
f 405 422 398
f 405 398 402
f 398 423 688
f 688 423 424
f 688 424 443
f 443 424 425
f 443 425 426
f 427 421 428
f 428 421 420
f 428 420 426
f 426 420 443
f 582 429 422
f 422 429 430
f 422 430 398
f 398 430 431
f 398 431 423
f 423 431 582
f 423 582 422
f 399 727 432
f 399 432 433
f 433 432 98
f 159 434 435
f 435 434 727
f 435 727 436
f 437 50 438
f 438 50 49
f 438 49 436
f 725 434 174
f 174 434 159
f 174 159 440
f 175 693 439
f 175 439 159
f 159 439 188
f 159 188 332
f 159 332 440
f 440 332 100
f 441 693 442
f 442 693 175
f 442 175 159
f 445 598 448
f 445 448 444
f 448 599 446
f 448 446 447
f 724 448 447
f 445 444 449
f 448 450 444
f 444 450 451
f 444 451 449
f 445 100 655
f 100 445 449
f 100 449 452
f 452 449 453
f 452 453 440
f 440 453 174
f 454 455 727
f 454 727 507
f 454 709 611
f 611 500 543
f 456 457 458
f 457 467 459
f 460 459 461
f 461 459 467
f 462 467 463
f 464 463 467
f 464 467 465
f 457 456 466
f 457 466 467
f 469 468 470
f 470 468 471
f 474 472 475
f 474 475 476
f 476 475 477
f 477 475 478
f 472 480 475
f 475 480 481
f 482 479 468
f 468 479 472
f 468 472 471
f 471 472 473
f 468 483 482
f 484 485 486
f 484 486 490
f 492 491 493
f 493 491 488
f 493 488 494
f 494 488 487
f 489 488 485
f 485 488 491
f 485 491 486
f 679 560 654
f 654 560 495
f 594 502 507
f 496 501 497
f 500 596 498
f 498 499 500
f 498 496 499
f 499 496 497
f 499 497 500
f 500 497 502
f 497 501 502
f 503 501 504
f 454 502 501
f 454 501 505
f 505 501 503
f 505 503 506
f 506 503 504
f 506 504 597
f 507 727 529
f 507 529 599
f 598 507 599
f 594 508 509
f 510 655 509
f 510 509 511
f 511 509 508
f 512 598 445
f 606 514 513
f 513 514 515
f 512 606 598
f 598 606 513
f 608 655 516
f 516 655 510
f 516 510 517
f 517 510 511
f 517 511 518
f 518 511 508
f 518 508 519
f 519 508 594
f 599 529 602
f 602 529 520
f 602 520 521
f 521 520 522
f 521 522 523
f 523 522 524
f 523 524 525
f 525 524 526
f 525 526 527
f 527 526 532
f 529 528 530
f 520 529 532
f 532 529 530
f 522 532 524
f 524 532 526
f 522 520 532
f 655 654 509
f 509 654 594
f 611 533 468
f 533 611 534
f 533 534 535
f 535 534 536
f 535 536 537
f 537 536 538
f 537 538 539
f 539 538 540
f 539 540 541
f 541 540 542
f 541 542 481
f 481 542 543
f 478 481 543
f 478 475 481
f 541 481 480
f 541 480 539
f 480 472 539
f 539 472 479
f 539 479 537
f 537 479 482
f 537 482 535
f 535 482 483
f 535 483 533
f 533 483 468
f 460 545 459
f 459 545 546
f 459 546 457
f 611 544 547
f 547 544 546
f 547 546 548
f 548 546 545
f 611 456 544
f 544 456 458
f 544 458 546
f 546 458 457
f 456 549 466
f 466 549 550
f 551 613 464
f 551 464 465
f 551 465 550
f 550 465 467
f 550 467 466
f 463 464 487
f 486 460 490
f 490 460 461
f 490 461 484
f 484 461 467
f 484 467 462
f 487 488 463
f 463 488 489
f 463 489 462
f 462 489 485
f 462 485 484
f 552 679 472
f 478 495 477
f 477 495 553
f 477 553 476
f 476 553 554
f 476 554 474
f 474 554 552
f 474 552 472
f 472 555 473
f 473 555 556
f 473 556 471
f 556 614 471
f 471 614 557
f 471 557 470
f 470 557 558
f 470 558 469
f 469 558 559
f 469 559 468
f 495 560 553
f 553 560 554
f 554 560 552
f 552 560 679
f 566 561 562
f 100 566 613
f 562 563 566
f 566 563 564
f 487 564 494
f 494 564 563
f 494 563 493
f 493 563 562
f 493 562 492
f 492 562 561
f 492 561 491
f 491 561 566
f 491 566 567
f 568 486 567
f 567 486 491
f 570 571 572
f 572 571 573
f 572 573 574
f 574 573 575
f 402 576 408
f 577 411 578
f 578 411 408
f 578 408 415
f 415 408 576
f 402 579 576
f 576 579 417
f 579 419 416
f 416 419 403
f 580 581 582
f 582 581 583
f 584 585 427
f 427 585 421
f 586 584 587
f 587 584 427
f 587 427 588
f 588 427 428
f 589 590 591
f 591 590 414
f 712 718 592
f 568 548 545
f 568 545 460
f 568 460 486
f 568 611 547
f 568 547 548
f 543 542 593
f 542 540 593
f 611 593 534
f 534 593 536
f 540 538 593
f 593 538 536
f 478 543 495
f 495 543 654
f 654 543 500
f 594 598 513
f 598 594 507
f 454 507 502
f 595 504 501
f 496 595 501
f 498 596 595
f 498 595 496
f 597 504 595
f 454 505 597
f 597 505 506
f 727 528 529
f 525 601 523
f 523 601 602
f 523 602 521
f 525 527 601
f 601 527 603
f 603 604 605
f 599 602 600
f 600 602 601
f 600 601 603
f 600 603 605
f 600 605 599
f 608 606 512
f 610 609 607
f 610 607 608
f 608 607 606
f 518 519 610
f 518 610 517
f 517 610 516
f 516 610 608
f 594 513 519
f 519 513 610
f 610 513 515
f 610 515 609
f 609 515 514
f 609 514 607
f 607 514 606
f 531 527 530
f 530 527 532
f 559 660 468
f 468 660 611
f 612 456 611
f 550 549 612
f 551 550 612
f 612 549 456
f 551 612 613
f 464 613 487
f 487 613 564
f 564 613 566
f 555 614 556
f 614 615 557
f 557 615 558
f 558 615 660
f 558 660 559
f 472 679 555
f 617 618 616
f 616 618 723
f 565 100 619
f 565 619 620
f 620 619 621
f 620 621 617
f 617 621 710
f 617 710 618
f 622 616 623
f 623 616 723
f 617 616 622
f 622 620 617
f 625 624 626
f 620 622 565
f 622 627 626
f 622 626 624
f 622 624 565
f 565 624 665
f 631 630 664
f 628 631 629
f 629 631 664
f 715 565 664
f 715 664 670
f 565 629 664
f 565 566 100
f 728 632 727
f 727 632 569
f 573 571 404
f 404 571 413
f 575 573 400
f 400 573 404
f 574 575 401
f 401 575 400
f 572 574 407
f 407 574 401
f 570 572 406
f 406 572 407
f 571 570 413
f 413 570 406
f 577 578 412
f 412 578 415
f 411 577 412
f 579 402 419
f 417 579 416
f 580 582 431
f 581 580 430
f 430 580 431
f 583 581 429
f 429 581 430
f 582 583 429
f 587 588 425
f 425 588 426
f 586 587 424
f 424 587 425
f 584 586 423
f 423 586 424
f 585 584 422
f 422 584 423
f 421 585 422
f 588 428 426
f 589 591 409
f 409 591 410
f 589 409 590
f 590 409 408
f 414 590 408
f 591 414 410
f 611 568 567
f 593 611 543
f 654 500 502
f 502 594 654
f 635 636 637
f 637 638 635
f 635 638 639
f 635 639 640
f 635 500 641
f 641 642 635
f 635 642 643
f 635 643 644
f 644 645 635
f 635 645 646
f 635 646 647
f 647 648 635
f 635 648 649
f 635 649 650
f 650 651 635
f 635 651 652
f 635 652 636
f 595 635 640
f 595 596 500
f 595 500 635
f 597 595 454
f 454 595 709
f 569 633 653
f 598 599 448
f 655 512 445
f 679 654 655
f 655 608 512
f 527 531 603
f 603 531 656
f 603 656 604
f 656 528 604
f 604 528 657
f 604 657 605
f 605 657 658
f 724 447 659
f 659 447 446
f 659 446 658
f 658 446 599
f 658 599 605
f 615 679 660
f 612 611 660
f 613 612 100
f 614 555 679
f 614 679 615
f 661 629 665
f 665 629 565
f 629 661 628
f 628 661 662
f 628 662 631
f 631 662 663
f 631 663 630
f 630 663 664
f 622 623 627
f 627 623 666
f 627 666 667
f 627 667 626
f 626 667 668
f 626 668 625
f 625 668 669
f 625 669 624
f 624 669 665
f 670 664 721
f 566 565 712
f 712 565 715
f 728 394 632
f 727 98 633
f 671 653 672
f 672 653 673
f 674 633 98
f 674 675 633
f 633 675 676
f 633 676 653
f 653 676 677
f 653 677 673
f 727 455 98
f 41 674 98
f 47 98 671
f 671 98 569
f 671 569 653
f 725 727 434
f 727 725 528
f 612 660 100
f 679 100 660
f 332 723 100
f 332 188 723
f 188 439 665
f 665 439 721
f 715 670 693
f 680 681 682
f 693 441 737
f 159 435 442
f 442 435 680
f 442 680 441
f 441 680 682
f 441 682 737
f 693 737 443
f 683 684 418
f 418 684 727
f 683 685 684
f 684 685 686
f 684 686 687
f 435 436 680
f 680 436 684
f 680 684 681
f 681 684 687
f 394 728 392
f 392 728 436
f 693 443 678
f 43 689 41
f 690 691 692
f 692 691 43
f 692 43 47
f 47 43 41
f 47 41 98
f 381 98 454
f 454 98 455
f 454 611 381
f 436 727 438
f 438 727 396
f 438 396 437
f 437 396 395
f 437 395 50
f 50 395 393
f 50 393 49
f 49 393 392
f 49 392 436
f 47 671 672
f 47 672 692
f 692 672 673
f 692 673 690
f 690 673 677
f 690 677 691
f 691 677 676
f 691 676 43
f 43 676 675
f 43 675 689
f 689 675 674
f 689 674 41
f 569 727 633
f 646 694 647
f 647 694 695
f 647 695 648
f 648 695 696
f 648 696 649
f 649 696 697
f 649 697 650
f 650 697 698
f 650 698 651
f 651 698 699
f 651 699 652
f 652 699 700
f 652 700 636
f 636 700 701
f 636 701 637
f 637 701 702
f 637 702 638
f 638 702 703
f 638 703 639
f 639 703 640
f 646 645 704
f 704 645 644
f 704 644 705
f 705 644 643
f 705 643 706
f 706 643 642
f 706 642 641
f 698 697 708
f 708 697 696
f 708 696 707
f 696 695 707
f 707 695 694
f 707 694 646
f 646 704 707
f 707 704 705
f 707 705 706
f 706 641 707
f 707 641 500
f 640 703 708
f 708 703 702
f 708 702 701
f 701 700 708
f 708 700 699
f 708 699 698
f 640 708 709
f 709 708 707
f 709 707 500
f 611 709 500
f 595 640 709
f 440 100 452
f 655 100 679
f 100 723 619
f 619 723 710
f 619 710 621
f 618 710 723
f 723 665 623
f 667 666 668
f 668 666 665
f 668 665 669
f 623 665 666
f 611 711 381
f 381 711 715
f 381 715 693
f 567 711 611
f 713 712 714
f 714 712 592
f 566 712 713
f 566 713 567
f 592 718 716
f 592 716 714
f 714 716 717
f 714 717 713
f 713 717 634
f 713 634 567
f 718 711 567
f 634 718 567
f 712 715 718
f 634 717 718
f 718 717 716
f 715 711 718
f 665 721 719
f 665 719 661
f 661 719 662
f 662 719 720
f 662 720 663
f 663 720 721
f 663 721 664
f 720 719 721
f 721 439 722
f 722 439 670
f 670 439 693
f 670 721 722
f 665 723 188
f 724 659 658
f 724 658 657
f 724 657 528
f 724 528 725
f 450 448 724
f 451 450 724
f 453 449 725
f 725 449 451
f 725 451 724
f 174 453 725
f 528 656 530
f 530 656 531
f 726 381 678
f 684 436 728
f 98 432 569
f 432 727 569
f 727 684 728
f 735 729 685
f 685 729 686
f 688 443 735
f 405 399 433
f 731 420 405
f 731 405 730
f 730 405 433
f 730 433 726
f 726 433 98
f 726 98 381
f 730 726 731
f 443 420 731
f 726 678 731
f 731 678 443
f 381 693 678
f 418 397 732
f 418 732 683
f 683 732 733
f 683 733 734
f 683 734 685
f 685 734 735
f 733 397 688
f 733 732 397
f 734 733 688
f 688 735 734
f 736 682 681
f 681 687 736
f 736 687 686
f 736 686 729
f 737 682 736
f 443 737 735
f 735 737 736
f 735 736 729

