# https://github.com/mikedh/trimesh
v -0.01193987 0.00749582 -0.11635488
v -0.01700000 -0.01400000 -0.11532000
v -0.01704855 -0.00830477 -0.11544529
v -0.01696311 -0.00855079 -0.11532000
v -0.01669983 -0.00882063 -0.11532000
v -0.01555000 -0.01100000 -0.11532000
v -0.01685787 -0.00871147 -0.11532000
v -0.01651229 -0.00886214 -0.11532000
v -0.01321087 -0.00783224 -0.11667683
v -0.01555000 0.01100000 -0.11532000
v -0.01651229 0.00886214 -0.11532000
v -0.01669983 0.00882063 -0.11532000
v -0.01632294 0.00882989 -0.11532000
v -0.01447988 0.00869563 -0.11479080
v -0.01615972 0.00872864 -0.11532000
v -0.01698478 0.00855531 -0.11532010
v -0.01522185 0.01290467 -0.11532000
v -0.01197319 -0.01362960 -0.11722573
v -0.01544504 -0.00823163 -0.11876985
v -0.01601877 -0.00860543 -0.11854108
v -0.01586777 -0.00848888 -0.11862194
v -0.01571485 -0.00838499 -0.11868788
v -0.01316194 0.01307190 -0.11416816
v -0.01055000 0.01400000 -0.11832000
v -0.01058806 0.01400000 -0.11851134
v -0.01069645 0.01400000 -0.11867356
v -0.01166659 0.01381313 -0.11887334
v -0.01069645 -0.01400000 -0.11867356
v -0.01058806 -0.01400000 -0.11851134
v -0.01085866 -0.01400000 -0.11878194
v -0.01311163 -0.01273431 -0.11169615
v -0.01542618 0.00811365 -0.11280599
v -0.01087020 -0.00792786 -0.11606506
v -0.01605000 -0.00650000 -0.11532000
v -0.01367934 0.00693236 -0.11775372
v -0.01571401 -0.00715924 -0.11640908
v -0.01600196 -0.00650000 -0.11580773
v -0.01602455 -0.00650000 -0.11567578
v -0.01594873 -0.00650000 -0.11602433
v -0.01582408 -0.00650000 -0.11635854
v -0.01585970 -0.00650000 -0.11627671
v -0.01565313 -0.00650000 -0.11667160
v -0.01543937 -0.00650000 -0.11695715
v -0.01562867 -0.00650000 -0.11670893
v -0.01518715 -0.00650000 -0.11720937
v -0.01531777 -0.00650000 -0.11708777
v -0.01490160 -0.00650000 -0.11742313
v -0.01493893 -0.00650000 -0.11739867
v -0.01443040 -0.00735898 -0.11737212
v -0.01462032 -0.00681215 -0.11754646
v -0.01458854 -0.00650000 -0.11759408
v -0.01450671 -0.00650000 -0.11762970
v -0.01390579 -0.00650000 -0.11779455
v -0.01403773 -0.00650000 -0.11777196
v -0.01425433 -0.00650000 -0.11771873
v -0.01390579 0.00650000 -0.11779455
v -0.01403773 0.00650000 -0.11777196
v -0.01425433 0.00650000 -0.11771873
v -0.01450671 0.00650000 -0.11762970
v -0.01458854 0.00650000 -0.11759408
v -0.01490160 0.00650000 -0.11742313
v -0.01493893 0.00650000 -0.11739867
v -0.01518715 0.00650000 -0.11720937
v -0.01531777 0.00650000 -0.11708777
v -0.01543937 0.00650000 -0.11695715
v -0.01562867 0.00650000 -0.11670893
v -0.01565313 0.00650000 -0.11667160
v -0.01582408 0.00650000 -0.11635854
v -0.01585970 0.00650000 -0.11627671
v -0.01594873 0.00650000 -0.11602433
v -0.01600196 0.00650000 -0.11580773
v -0.01602455 0.00650000 -0.11567578
v -0.01602365 0.00667532 -0.11559013
v -0.01557634 0.00725210 -0.11642002
v -0.01473624 0.00738933 -0.11718416
v -0.01620238 0.00876382 -0.11841899
v -0.01601888 0.00860552 -0.11854102
v -0.01586777 0.00848888 -0.11862194
v -0.01571485 0.00838499 -0.11868788
v -0.01533038 0.00817352 -0.11879601
v -0.01631979 -0.00884089 -0.11832942
v -0.01654403 -0.00886035 -0.11809120
v -0.01656375 -0.00885821 -0.11806687
v -0.01680204 -0.00876075 -0.11768755
v -0.01673241 -0.00880499 -0.11781937
v -0.01668024 -0.00882790 -0.11790627
v -0.01694988 -0.00858049 -0.11726494
v -0.01693374 -0.00861103 -0.11733054
v -0.01686965 -0.00869952 -0.11753421
v -0.01699413 0.00845934 -0.11696501
v -0.01694992 0.00858039 -0.11726474
v -0.01680197 0.00876081 -0.11768770
v -0.01680511 0.00875841 -0.11768115
v -0.01689521 0.00867224 -0.11746519
v -0.01667201 0.00883474 -0.11792092
v -0.01656372 0.00885822 -0.11806691
v -0.01644096 0.00886041 -0.11820841
v -0.01624669 0.00879338 -0.11838390
v -0.01630534 0.00882284 -0.11833528
v 0.02195000 -0.01837548 -0.07222190
v 0.02195000 -0.02041774 -0.07604270
v 0.02195000 -0.02167535 -0.08018851
v 0.02195000 -0.02210000 -0.08450000
v 0.02195000 -0.02167535 -0.08881149
v 0.02195000 -0.02041774 -0.09295730
v 0.02195000 -0.01837548 -0.09677810
v 0.02195000 -0.01562706 -0.10012706
v 0.02195000 -0.01227810 -0.10287548
v 0.02195000 -0.00845730 -0.10491773
v 0.02195000 -0.00431150 -0.10617536
v 0.02195000 0.00000000 -0.10660000
v 0.02195000 0.00431150 -0.10617536
v 0.02195000 0.00845730 -0.10491773
v 0.02195000 0.01227810 -0.10287548
v 0.02195000 0.01562706 -0.10012706
v 0.02744997 -0.00367910 -0.09680000
v 0.02195000 0.01837548 -0.09677810
v 0.02195000 0.02041774 -0.09295730
v 0.02195000 0.02167535 -0.08881149
v 0.02195000 0.02210000 -0.08450000
v 0.02195000 0.02167535 -0.08018851
v 0.02195000 0.02041774 -0.07604270
v 0.02195000 0.01837548 -0.07222190
v 0.02195000 0.01562706 -0.06887294
v 0.02195000 0.01227810 -0.06612452
v 0.02195000 0.00845730 -0.06408226
v 0.02195000 0.00431150 -0.06282464
v 0.02195000 0.00000000 -0.06240000
v 0.02195000 -0.00431150 -0.06282464
v 0.02195000 -0.00845730 -0.06408226
v 0.02195000 -0.01227810 -0.06612452
v 0.02195000 -0.01562706 -0.06887294
v 0.02746745 0.01159843 -0.08698821
v 0.02688906 -0.00574526 -0.06962387
v 0.02545649 -0.01562332 -0.10847320
v 0.02432257 -0.02665389 -0.09623757
v 0.02785000 -0.02834394 -0.08658041
v 0.02794361 -0.02826170 -0.08661784
v 0.02789991 -0.02846665 -0.08731605
v 0.02785000 -0.02837676 -0.08662500
v 0.02317542 0.01119699 -0.11137172
v 0.02785000 0.01237028 -0.11008678
v 0.02785000 0.01238157 -0.11001249
v 0.02791919 0.01233704 -0.10995973
v 0.02800879 -0.02561246 -0.07389688
v 0.02792276 -0.01599104 -0.06102897
v 0.02803789 0.01860799 -0.10543642
v 0.02159398 -0.01291437 -0.05909807
v 0.02795200 -0.01222496 -0.05876712
v 0.02660552 -0.01265799 -0.05993209
v 0.02783830 -0.00998006 -0.05778109
v 0.02785000 0.01237028 -0.05891323
v 0.02814638 0.01160570 -0.05861663
v 0.02793200 0.01232351 -0.05895266
v 0.02535289 0.02501798 -0.07157009
v 0.02531084 0.01264588 -0.06110505
v 0.02446236 0.00354884 -0.05661141
v 0.02495383 0.01237543 -0.05890629
v 0.02506544 -0.01497793 -0.06070647
v 0.02484126 -0.02849072 -0.08679539
v 0.02495000 -0.02840000 -0.08450000
v 0.02336614 -0.02757581 -0.08338124
v 0.02482750 0.01229910 -0.11025922
v 0.02495000 0.01237678 -0.11006121
v 0.02529877 0.02812573 -0.08358045
v 0.02224959 -0.01394714 -0.06185179
v 0.02182456 -0.02326027 -0.06788621
v 0.02231570 -0.01123979 -0.11089654
v 0.02205000 -0.02200000 -0.08450000
v 0.02205000 -0.02157728 -0.08020801
v 0.02205000 -0.02032535 -0.07608096
v 0.02205000 -0.01829233 -0.07227746
v 0.02205000 -0.01555635 -0.06894365
v 0.02205000 -0.01222255 -0.06620767
v 0.02205000 -0.00841904 -0.06417465
v 0.02205000 -0.00429199 -0.06292272
v 0.02205000 0.00000000 -0.06250000
v 0.02205000 0.00429199 -0.06292272
v 0.02205000 0.00841904 -0.06417465
v 0.02205000 0.01222255 -0.06620767
v 0.02205000 0.01555635 -0.06894365
v 0.02205000 0.01829233 -0.07227746
v 0.02205000 0.02032535 -0.07608096
v 0.02205000 0.02157728 -0.08020801
v 0.02205000 0.02200000 -0.08450000
v 0.02307010 -0.02823710 -0.08665505
v 0.02493084 -0.02834300 -0.08657940
v 0.02495000 -0.02832505 -0.08656200
v 0.02495000 -0.02825098 -0.08651704
v 0.02495000 0.01238157 -0.11001249
v 0.02774954 0.01152395 -0.10958958
v 0.02495000 0.01238157 -0.05898751
v 0.02736509 0.02358248 -0.08769218
v 0.02262537 0.01518980 -0.06031739
v 0.02495000 0.01337500 -0.06028382
v 0.02495000 -0.02765933 -0.08502500
v 0.02495000 0.01314135 -0.10868985
v 0.02491839 -0.00674370 -0.11075995
v 0.02341960 0.02928849 -0.08656042
v 0.02230009 -0.02762420 -0.08546047
v 0.02729392 -0.01099894 -0.06567528
v 0.02706538 -0.00917057 -0.10683713
v 0.02772862 0.01540106 -0.06807909
v 0.02205000 -0.02157728 -0.08879199
v 0.02205000 -0.02032535 -0.09291904
v 0.02205000 -0.01829233 -0.09672254
v 0.02205000 -0.01555635 -0.10005635
v 0.02205000 -0.01222255 -0.10279233
v 0.02205000 -0.00841904 -0.10482535
v 0.02205000 -0.00429199 -0.10607728
v 0.02205000 0.00000000 -0.10650000
v 0.02205000 0.00429199 -0.10607728
v 0.02205000 0.00841904 -0.10482535
v 0.02205000 0.01222255 -0.10279233
v 0.02205000 0.01555635 -0.10005635
v 0.02205000 0.01829233 -0.09672254
v 0.02205000 0.02032535 -0.09291904
v 0.02205000 0.02157728 -0.08879199
v 0.02654565 -0.01858577 -0.09489131
v 0.01900000 0.02385924 -0.06891198
v 0.01900000 0.02609954 -0.07305168
v 0.01900000 0.02762791 -0.07750367
v 0.01900000 0.02840266 -0.08214649
v 0.01900000 0.02840266 -0.08685351
v 0.01900000 0.02762791 -0.09149633
v 0.01900000 0.02609954 -0.09594832
v 0.01900000 0.02385924 -0.10008802
v 0.01900000 0.02096813 -0.10380252
v 0.02287400 0.01415828 -0.10840145
v 0.01900000 0.01750506 -0.10699051
v 0.01900000 0.01356450 -0.10956500
v 0.01900000 0.00925393 -0.11145579
v 0.01900000 0.00469095 -0.11261130
v 0.01900000 0.00000000 -0.11300000
v 0.01900000 -0.02762791 -0.07750367
v 0.01900000 -0.02840266 -0.08214649
v 0.02195000 -0.02840266 -0.08214649
v 0.01900000 -0.02840266 -0.08685351
v 0.01900000 -0.02762791 -0.09149633
v 0.01900000 -0.02609954 -0.09594832
v 0.01900000 -0.02385924 -0.10008802
v 0.01900000 -0.02096813 -0.10380252
v 0.01900000 -0.01750506 -0.10699051
v 0.01900000 -0.01356450 -0.10956500
v 0.01900000 -0.00925393 -0.11145579
v 0.01900000 -0.00469095 -0.11261130
v 0.01900000 0.02299432 -0.06749349
v 0.01900000 0.02553768 -0.07162417
v 0.01900000 0.02734637 -0.07612527
v 0.01900000 0.02836835 -0.08086729
v 0.01900000 0.02857423 -0.08571382
v 0.01900000 0.02795808 -0.09052543
v 0.01900000 0.02653763 -0.09516370
v 0.01900000 0.02435373 -0.09949519
v 0.01900000 0.02146923 -0.10339530
v 0.01900000 0.01796709 -0.10675182
v 0.01900000 0.01394808 -0.10946821
v 0.01900000 0.00952780 -0.11146630
v 0.01900000 0.00483342 -0.11268862
v 0.01900000 0.00000000 -0.11310000
v 0.01900000 -0.00483342 -0.11268862
v 0.01900000 -0.00952780 -0.11146630
v 0.01900000 -0.01394808 -0.10946821
v 0.01900000 -0.01796709 -0.10675182
v 0.01900000 -0.02146923 -0.10339530
v 0.01900000 -0.02435373 -0.09949519
v 0.01900000 -0.02653763 -0.09516370
v 0.01900000 -0.02795808 -0.09052543
v 0.01900000 -0.02857423 -0.08571382
v 0.01900000 -0.02836835 -0.08086729
v 0.01900000 -0.02734637 -0.07612527
v 0.00900000 0.00679115 -0.11239316
v 0.00900000 0.00000000 -0.11310000
v -0.00646295 0.01918734 -0.10410001
v 0.00900000 -0.00469095 -0.11261130
v 0.00900000 -0.00483342 -0.11268862
v 0.00900000 -0.00925393 -0.11145579
v 0.00900000 -0.00952780 -0.11146630
v 0.00900000 -0.01356450 -0.10956500
v 0.00900000 -0.01394808 -0.10946821
v 0.00900000 -0.01750506 -0.10699051
v 0.00900000 -0.01796709 -0.10675182
v 0.00900000 -0.02096813 -0.10380252
v 0.00900000 -0.02146923 -0.10339530
v 0.00900000 -0.02385924 -0.10008802
v 0.00900000 -0.02435373 -0.09949519
v 0.00900000 -0.02609954 -0.09594832
v 0.00900000 -0.02653763 -0.09516370
v 0.00900000 -0.02762791 -0.09149633
v 0.00900000 -0.02795808 -0.09052543
v 0.00900000 -0.02840266 -0.08685351
v 0.00900000 -0.02857423 -0.08571382
v 0.00900000 -0.02840266 -0.08214649
v 0.00900000 -0.02836835 -0.08086729
v 0.00900000 -0.02762791 -0.07750367
v 0.00900000 -0.02734637 -0.07612527
v 0.00900000 -0.02609954 -0.07305168
v 0.00900000 -0.02553768 -0.07162417
v 0.00900000 -0.02385924 -0.06891198
v 0.00900000 -0.02299432 -0.06749349
v 0.00900000 -0.02019328 -0.06426022
v 0.00900000 0.01134425 -0.11086407
v 0.00900000 0.01557779 -0.10859783
v 0.00900000 0.01937347 -0.10565813
v 0.00900000 0.02262526 -0.10212750
v 0.00900000 0.02524242 -0.09810487
v 0.00900000 0.02715189 -0.09370307
v 0.00900000 0.02830053 -0.08904531
v 0.00900000 0.02865640 -0.08426206
v 0.00900000 0.02820979 -0.07948722
v 0.00900000 0.02734637 -0.07612527
v 0.00900033 0.00700738 -0.05327165
v -0.00055000 -0.01730437 -0.10295087
v -0.00055000 -0.01761158 -0.10325807
v -0.00055000 -0.01803122 -0.10253122
v -0.00055000 -0.01803122 -0.10337052
v -0.00055000 -0.01845087 -0.10325807
v -0.00055000 -0.01761158 -0.10180438
v -0.00055000 -0.01730437 -0.10211158
v -0.00055000 -0.01719193 -0.10253122
v -0.00055000 -0.01875807 -0.10211158
v -0.00055000 -0.01845087 -0.10180438
v -0.00055000 -0.01803122 -0.10169193
v -0.00055000 -0.01875807 -0.10295087
v -0.00055000 -0.01887052 -0.10253122
v -0.00724828 0.02030587 -0.06439555
v -0.01055000 -0.01803122 -0.06742427
v -0.01055000 -0.01803122 -0.10337052
v -0.01055000 -0.01845087 -0.10325807
v -0.01055000 -0.01875807 -0.10295087
v -0.01055000 -0.01887052 -0.10253122
v -0.01055000 -0.01875807 -0.10211158
v -0.01055000 -0.01845087 -0.10180438
v -0.01055000 -0.01803122 -0.10169193
v -0.01055000 -0.01761158 -0.10180438
v -0.01055000 -0.01730437 -0.10211158
v -0.01055000 -0.01719193 -0.10253122
v -0.01055000 -0.01730437 -0.10295087
v -0.01055000 -0.01761158 -0.10325807
v -0.01055000 -0.01966945 -0.10524560
v -0.01055000 -0.01356450 -0.10956500
v -0.01055000 -0.00925393 -0.11145579
v -0.00687760 -0.02016294 -0.06490969
v -0.01055000 -0.02762791 -0.09149633
v -0.01055000 -0.02609954 -0.09594832
v -0.01055000 -0.02385924 -0.10008802
v 0.02875870 0.00034734 -0.05872793
v 0.02738201 0.01570260 -0.06122794
v 0.03185389 0.01662687 -0.06122644
v 0.03185987 0.00278860 -0.05711064
v 0.03138274 -0.00165418 -0.06166111
v 0.03108793 0.01172402 -0.05997592
v 0.02863902 0.01233592 -0.06377208
v 0.03210182 0.00275729 -0.06311639
v -0.01327596 -0.02056904 -0.10067849
v -0.00071390 0.02539489 -0.04310126
v 0.01551690 0.01491913 -0.04374959
v 0.00283264 0.03005980 -0.04122950
v -0.00278018 -0.02156313 -0.04639948
v -0.01186344 -0.01640642 -0.10247212
v -0.00916302 -0.02826880 -0.06041951
v 0.00898952 -0.02842786 -0.06663245
v 0.02539480 -0.01039960 -0.05250720
v 0.01628843 0.02241333 -0.05410158
v 0.02741978 -0.00153301 -0.04250670
v 0.00259223 -0.02545686 -0.04416704
v 0.02055707 -0.02311776 -0.04224980
v 0.02566520 0.00336845 -0.04155700
v -0.02244440 -0.00928936 -0.04805186
v -0.01406386 -0.01488675 -0.06916462
v -0.00950422 0.02385654 -0.04666220
v -0.01039217 0.02672752 -0.06992248
v -0.01305518 0.01778509 -0.06292214
v -0.00884883 -0.03013710 -0.04312475
v -0.01378483 0.00896089 -0.10786067
v -0.01218243 -0.02217150 -0.06700186
v -0.02418271 0.01409786 -0.05150000
v -0.01713398 0.01150000 -0.07850000
v -0.01713398 0.00850000 -0.07850000
v -0.01700000 0.01200000 -0.07850000
v -0.01700000 0.00800000 -0.07850000
v -0.01980496 0.01002012 -0.07839861
v -0.01713398 -0.01150000 -0.07850000
v -0.01750000 -0.00886603 -0.07850000
v -0.01700000 -0.01200000 -0.07850000
v -0.01713398 -0.00850000 -0.07850000
v -0.01700000 -0.00800000 -0.07850000
v -0.01911168 -0.00962038 -0.07840903
v -0.01713398 -0.01150000 -0.05450000
v -0.01700000 -0.01200000 -0.05450000
v -0.01750000 -0.00886603 -0.05450000
v -0.01713398 -0.00850000 -0.05450000
v -0.01700000 -0.00800000 -0.05450000
v -0.02163804 0.01004301 -0.05405126
v -0.01700000 0.00800000 -0.05450000
v -0.01713398 0.01150000 -0.05450000
v -0.01568770 -0.01534325 -0.06751619
v -0.01730766 0.01158940 -0.05369345
v -0.02970793 0.01169646 -0.04789351
v -0.01642705 -0.00142848 -0.05362769
v -0.02297625 -0.00979684 -0.05325987
v -0.02241793 -0.01445123 -0.05181151
v -0.01713398 0.00800000 -0.05400000
v -0.01356060 0.02418423 -0.09391609
v -0.01289562 0.01800430 -0.10199576
v -0.00431150 0.02167536 -0.00700000
v -0.00845730 0.02041774 -0.00700000
v -0.01227810 0.01837548 -0.00700000
v -0.01562706 0.01562706 -0.00700000
v -0.01837548 0.01227810 -0.00700000
v -0.02041774 0.00845730 -0.00700000
v -0.02167536 0.00431150 -0.00700000
v -0.02210000 -0.00000000 -0.00700000
v -0.02167536 -0.00431150 -0.00700000
v -0.02041774 -0.00845730 -0.00700000
v -0.01837548 -0.01227810 -0.00700000
v -0.01562706 -0.01562706 -0.00700000
v -0.01227810 -0.01837548 -0.00700000
v -0.00845730 -0.02041774 -0.00700000
v -0.00431150 -0.02167536 -0.00700000
v 0.00000000 -0.02210000 -0.00700000
v -0.01083751 -0.01541134 -0.00459756
v 0.00431150 -0.02167536 -0.00700000
v 0.00845730 -0.02041774 -0.00700000
v 0.01227810 -0.01837548 -0.00700000
v 0.01562706 -0.01562706 -0.00700000
v 0.01837548 -0.01227810 -0.00700000
v 0.02041774 -0.00845730 -0.00700000
v 0.02167536 -0.00431150 -0.00700000
v 0.02210000 0.00000000 -0.00700000
v 0.02167536 0.00431150 -0.00700000
v 0.02041774 0.00845730 -0.00700000
v 0.01837548 0.01227810 -0.00700000
v 0.01562706 0.01562706 -0.00700000
v 0.01227810 0.01837548 -0.00700000
v 0.00845730 0.02041774 -0.00700000
v 0.00431150 0.02167536 -0.00700000
v -0.00000000 0.02210000 -0.00700000
v 0.00919181 -0.01243432 -0.00270614
v -0.01066771 -0.00444393 -0.00115883
v 0.00479128 -0.00809350 -0.00089172
v 0.00645650 0.01458153 -0.00206094
v -0.02799897 -0.00590425 -0.00349351
v -0.02714685 0.01054745 -0.00462743
v -0.02151326 0.01857112 -0.00110000
v -0.02148158 0.01848650 -0.00100638
v -0.02212023 0.01813769 -0.00105009
v -0.02156800 0.01856280 -0.00110000
v -0.01108374 -0.02691863 -0.00577459
v -0.00934547 -0.02683969 -0.00110000
v -0.00928497 -0.02679515 -0.00110000
v -0.00927914 -0.02672635 -0.00103081
v -0.01061320 0.02560827 -0.00094120
v 0.00528916 0.02790390 -0.00102724
v -0.00164647 -0.02796212 -0.00091211
v 0.00893905 0.02690630 -0.00235714
v 0.00945322 0.02686823 -0.00110000
v 0.00842159 0.02632269 -0.00234448
v 0.00956840 0.02683296 -0.00099004
v 0.01183617 0.02595008 -0.00111170
v 0.02683969 0.00934547 -0.00110000
v 0.02650878 0.01009583 -0.00080362
v 0.02677873 0.00935066 -0.00101800
v 0.02054285 -0.01761857 -0.00224143
v 0.02562266 -0.01249624 -0.00102139
v 0.02548471 0.00760074 -0.00363917
v 0.02667191 -0.00850297 -0.00386018
v 0.02538029 0.01395601 -0.00627236
v 0.02684824 0.00934673 -0.00399617
v 0.00881968 0.02700591 -0.00742728
v 0.00737634 0.02752889 -0.00410000
v 0.00624294 0.02731246 -0.00387609
v -0.02176910 0.01852287 -0.00410876
v -0.02008183 0.02008183 -0.00400000
v -0.01870796 0.02029012 -0.00558386
v -0.00951775 -0.02691130 -0.00412250
v -0.00932280 -0.02682621 -0.00400000
v 0.02053810 -0.01923761 -0.00365108
v 0.00615258 0.02587683 -0.00670041
v -0.00469976 0.02819522 -0.00712543
v -0.02620916 -0.00724078 -0.00622548
v -0.02661289 -0.01071746 -0.00663430
v -0.01555635 0.01555635 -0.00690000
v -0.01222255 0.01829233 -0.00690000
v -0.00841904 0.02032535 -0.00690000
v -0.00429199 0.02157728 -0.00690000
v -0.00000000 0.02200000 -0.00690000
v 0.00429199 0.02157728 -0.00690000
v 0.00841904 0.02032535 -0.00690000
v 0.01222255 0.01829233 -0.00690000
v 0.01555635 0.01555635 -0.00690000
v 0.01829233 0.01222255 -0.00690000
v 0.02032535 0.00841904 -0.00690000
v 0.02157728 0.00429199 -0.00690000
v 0.02200000 0.00000000 -0.00690000
v 0.02157728 -0.00429199 -0.00690000
v 0.02032535 -0.00841904 -0.00690000
v 0.01829233 -0.01222255 -0.00690000
v 0.01555635 -0.01555635 -0.00690000
v -0.02149050 0.01844285 -0.00587984
v -0.02151188 0.01857117 -0.00401916
v -0.02148688 0.01857078 -0.00400000
v -0.02140272 0.01855019 -0.00400000
v -0.00928497 -0.02679515 -0.00400000
v -0.00959234 -0.02588968 -0.00120046
v 0.02679515 0.00928497 -0.00400000
v 0.00578541 -0.02098564 -0.00176198
v 0.02784048 0.00635887 -0.00632463
v 0.02658098 0.00766587 -0.00400000
v -0.01992933 0.01918687 -0.00400000
v -0.00781247 -0.02639715 -0.00400000
v -0.02004636 -0.01746327 -0.00242947
v 0.01920275 -0.01976627 -0.00546587
v 0.00818151 0.02467499 -0.00348854
v -0.02021241 0.01885410 -0.00664991
v -0.01963242 0.01173528 -0.00224557
v 0.00544043 0.02110216 -0.00158859
v -0.02227931 -0.00931017 -0.00188462
v 0.02145858 -0.00800054 -0.00182500
v 0.02041898 0.00573714 -0.00120593
v -0.01829233 0.01222255 -0.00690000
v -0.02032535 0.00841904 -0.00690000
v -0.02157728 0.00429199 -0.00690000
v -0.02200000 -0.00000000 -0.00690000
v -0.02157728 -0.00429199 -0.00690000
v -0.02032535 -0.00841904 -0.00690000
v -0.01829233 -0.01222255 -0.00690000
v -0.01555635 -0.01555635 -0.00690000
v -0.01222255 -0.01829233 -0.00690000
v -0.00841904 -0.02032535 -0.00690000
v -0.00429199 -0.02157728 -0.00690000
v 0.00000000 -0.02200000 -0.00690000
v 0.00429199 -0.02157728 -0.00690000
v 0.00841904 -0.02032535 -0.00690000
v 0.01222255 -0.01829233 -0.00690000
v -0.02017869 -0.00655842 -0.00145916
v 0.01869908 0.01771423 -0.00217922
v 0.02789343 -0.00584864 -0.00995000
v 0.02655035 -0.01035998 -0.00995000
v 0.01646077 -0.02584782 -0.00544749
v 0.02448304 -0.01458872 -0.00995000
v 0.02174790 -0.01841953 -0.00995000
v 0.01841953 -0.02174790 -0.00995000
v 0.01458872 -0.02448304 -0.00995000
v 0.01035998 -0.02655035 -0.00995000
v 0.00584864 -0.02789343 -0.00995000
v 0.00117776 -0.02847565 -0.00995000
v -0.00688947 -0.02691230 -0.00607599
v -0.00352524 -0.02828114 -0.00995000
v -0.00813208 -0.02731518 -0.00995000
v -0.01251710 -0.02560414 -0.00995000
v -0.01656069 -0.02319469 -0.00995000
v -0.02015254 -0.02015254 -0.00995000
v -0.01458872 0.02448304 -0.00995000
v -0.01841953 0.02174790 -0.00995000
v -0.01841953 0.02174790 -0.00700000
v -0.02174790 0.01841953 -0.00995000
v -0.02448304 0.01458872 -0.00995000
v -0.02655035 0.01035998 -0.00995000
v -0.02789343 0.00584864 -0.00995000
v -0.02847565 0.00117776 -0.00995000
v -0.02828114 -0.00352524 -0.00995000
v -0.02731518 -0.00813208 -0.00995000
v -0.02560414 -0.01251710 -0.00995000
v -0.02319469 -0.01656069 -0.00995000
v 0.02828486 -0.00423402 -0.00995000
v 0.02716245 -0.00895328 -0.00995000
v 0.02525863 -0.01341497 -0.00995000
v 0.02262817 -0.01749074 -0.00995000
v 0.01934673 -0.02106333 -0.00995000
v 0.01550873 -0.02402997 -0.00995000
v 0.01122456 -0.02630531 -0.00995000
v 0.00661749 -0.02782389 -0.00995000
v 0.00182004 -0.02854203 -0.00995000
v -0.00302976 -0.02843907 -0.00995000
v -0.00779241 -0.02751797 -0.00995000
v -0.01233088 -0.02580522 -0.00995000
v -0.01651461 -0.02335011 -0.00995000
v -0.02022325 -0.02022325 -0.00995000
v -0.02335011 -0.01651461 -0.00995000
v -0.02580522 -0.01233088 -0.00995000
v -0.02751797 -0.00779241 -0.00995000
v -0.02843907 -0.00302976 -0.00995000
v -0.02854203 0.00182004 -0.00995000
v -0.02782389 0.00661749 -0.00995000
v -0.02630531 0.01122456 -0.00995000
v -0.02402997 0.01550873 -0.00995000
v -0.02106333 0.01934673 -0.00995000
v -0.01749074 0.02262817 -0.00995000
v -0.01341497 0.02525863 -0.00995000
v -0.01651461 -0.02335011 -0.01995000
v -0.02022325 -0.02022325 -0.01995000
v -0.02015254 -0.02015254 -0.01995000
v -0.02319469 -0.01656069 -0.01995000
v -0.02335011 -0.01651461 -0.01995000
v -0.02560414 -0.01251710 -0.01995000
v -0.02580522 -0.01233088 -0.01995000
v -0.02731518 -0.00813208 -0.01995000
v -0.02751797 -0.00779241 -0.01995000
v -0.02828114 -0.00352524 -0.01995000
v -0.02843907 -0.00302976 -0.01995000
v -0.02847565 0.00117776 -0.01995000
v -0.02854203 0.00182004 -0.01995000
v -0.02789343 0.00584864 -0.01995000
v -0.02782389 0.00661749 -0.01995000
v -0.02655035 0.01035998 -0.01995000
v -0.02630531 0.01122456 -0.01995000
v -0.02448304 0.01458872 -0.01995000
v -0.02402997 0.01550873 -0.01995000
v -0.02174790 0.01841953 -0.01995000
v -0.02106333 0.01934673 -0.01995000
v -0.01841953 0.02174790 -0.01995000
v -0.01749074 0.02262817 -0.01995000
v -0.01458872 0.02448304 -0.01995000
v -0.01341497 0.02525863 -0.01995000
v -0.01035998 0.02655035 -0.01995000
v -0.00895328 0.02716245 -0.01995000
v -0.00584864 0.02789343 -0.01995000
v -0.00423402 0.02828486 -0.01995000
v 0.00003289 0.02859049 -0.01995000
v 0.00005214 -0.02717706 -0.03583853
v -0.01251710 -0.02560414 -0.01995000
v -0.01233088 -0.02580522 -0.01995000
v -0.00813208 -0.02731518 -0.01995000
v -0.00779241 -0.02751797 -0.01995000
v -0.00352524 -0.02828114 -0.01995000
v -0.00302976 -0.02843907 -0.01995000
v 0.00117776 -0.02847565 -0.01995000
v 0.00182004 -0.02854203 -0.01995000
v 0.00584864 -0.02789343 -0.01995000
v 0.00661749 -0.02782389 -0.01995000
v 0.01035998 -0.02655035 -0.01995000
v 0.01122456 -0.02630531 -0.01995000
v 0.01458872 -0.02448304 -0.01995000
v 0.01550873 -0.02402997 -0.01995000
v 0.01841953 -0.02174790 -0.01995000
v 0.01934673 -0.02106333 -0.01995000
v 0.02174790 -0.01841953 -0.01995000
v 0.02262817 -0.01749074 -0.01995000
v 0.02448304 -0.01458872 -0.01995000
v 0.02525863 -0.01341497 -0.01995000
v 0.02685870 -0.00964717 -0.01995000
v 0.02519608 0.01886950 -0.01994972
v -0.02528277 -0.00081069 -0.02950000
v -0.02571722 -0.00081069 -0.02950000
v -0.02550000 -0.00000000 -0.02950000
v -0.02609347 -0.00059347 -0.02950000
v -0.02631069 -0.00021722 -0.02950000
v -0.02468931 0.00021722 -0.02950000
v -0.02468931 -0.00021722 -0.02950000
v -0.02490653 -0.00059347 -0.02950000
v -0.02571722 0.00081069 -0.02950000
v -0.02528277 0.00081069 -0.02950000
v -0.02490653 0.00059347 -0.02950000
v -0.02631069 0.00021722 -0.02950000
v -0.02609347 0.00059347 -0.02950000
v 0.02857441 -0.00014242 -0.03619828
v -0.00067564 0.02482436 -0.03950000
v -0.02609347 -0.00059347 -0.03950000
v -0.02631069 -0.00021722 -0.03950000
v -0.02631069 0.00021722 -0.03950000
v -0.02609347 0.00059347 -0.03950000
v -0.02571722 0.00081069 -0.03950000
v -0.02528277 0.00081069 -0.03950000
v -0.02490653 0.00059347 -0.03950000
v -0.02468931 0.00021722 -0.03950000
v -0.02468931 -0.00021722 -0.03950000
v -0.02490653 -0.00059347 -0.03950000
v -0.02528277 -0.00081069 -0.03950000
v -0.02571722 -0.00081069 -0.03950000
v -0.02857775 -0.00076095 -0.03950000
v -0.02731518 -0.00813208 -0.03950000
v -0.02560414 -0.01251710 -0.03950000
v -0.00040491 0.02810978 -0.03582759
v -0.02448304 0.01458872 -0.03950000
v -0.02655035 0.01035998 -0.03950000
v -0.02789343 0.00584864 -0.03950000
v -0.02064653 -0.01750000 -0.12927169
v -0.02064653 0.01750000 -0.12927169
v -0.02042476 0.01750000 -0.12956199
v -0.02042476 -0.01750000 -0.12956199
v -0.01372644 0.01195213 -0.12531664
v -0.01294399 -0.01232059 -0.12448826
v -0.02724073 -0.01750000 -0.12005682
v -0.02523883 0.01750000 -0.10709559
v -0.02716067 0.01750000 -0.12044887
v -0.02716067 -0.01750000 -0.12044887
v -0.02693332 0.01750000 -0.12077815
v -0.01825000 0.01750000 -0.10182000
v -0.01825000 -0.01750000 -0.10182000
v -0.01775000 -0.01750000 -0.10195398
v -0.01775000 0.01750000 -0.10195398
v -0.01738398 -0.01750000 -0.10232000
v -0.01738398 0.01750000 -0.10232000
v -0.01725000 -0.01750000 -0.10282000
v -0.01494552 0.01563000 -0.10941660
v -0.02453362 0.01750000 -0.10211289
v -0.02453362 -0.01750000 -0.10211289
v -0.02420920 -0.01750000 -0.10189612
v -0.02420920 0.01750000 -0.10189612
v -0.02382651 -0.01750000 -0.10182000
v -0.02382651 0.01750000 -0.10182000
v -0.02724073 0.01750000 -0.10523421
v -0.02724073 -0.01750000 -0.10523421
v -0.02716460 -0.01750000 -0.10485153
v -0.02716460 0.01750000 -0.10485153
v -0.02694783 -0.01750000 -0.10452711
v -0.02694783 0.01750000 -0.10452711
v -0.01665000 -0.01750000 -0.11032000
v -0.01665000 0.01750000 -0.11032000
v -0.01605447 -0.01410000 -0.11485538
v -0.01725000 -0.01750000 -0.11012000
v -0.02611216 -0.01750000 -0.12163315
v -0.02320939 0.01750000 -0.12498585
v -0.02241894 -0.01750000 -0.12621054
v -0.01696623 -0.01750000 -0.11026868
v -0.01696623 0.01750000 -0.11026868
v -0.01935504 0.00506572 -0.09137319
v -0.01945072 0.00497004 -0.09146022
v -0.01937198 0.01633518 -0.09139495
v -0.01960000 0.01656320 -0.09150000
v -0.01946208 0.00495868 -0.09146642
v -0.01947500 0.01643820 -0.09147272
v -0.01943132 0.01639453 -0.09144884
v -0.01933997 0.00508239 -0.09134962
v -0.01932039 0.01628480 -0.09131444
v -0.01930081 0.01626401 -0.09122208
v -0.01931409 0.00512392 -0.09129086
v -0.01700000 0.00506572 -0.09137319
v -0.01700000 0.00495868 -0.09146642
v -0.01700000 0.00482076 -0.09150000
v -0.01700000 0.01643617 -0.09147178
v -0.01700000 0.01656320 -0.09150000
v -0.01700000 0.01627321 -0.09127685
v -0.01700000 0.01633304 -0.09139242
v -0.01914884 0.01711195 -0.08250778
v -0.01800547 0.01933439 -0.08427922
v -0.01981154 0.02574108 -0.09122246
v -0.01798140 -0.00314625 -0.08669065
v -0.02129383 -0.00332814 -0.09169778
v -0.01700000 0.00480000 -0.08550000
v -0.01858807 0.02408859 -0.06171708
v -0.01933807 0.01207346 -0.06855944
v -0.01843572 0.00035030 -0.05494534
v -0.01917783 0.02562310 -0.07927455
f 3 2 31
f 32 17 16
f 16 3 32
f 32 3 31
f 2 3 4
f 5 6 7
f 7 6 4
f 5 8 6
f 6 8 9
f 4 6 2
f 2 6 18
f 10 11 12
f 11 10 13
f 13 10 14
f 14 15 13
f 12 16 10
f 10 16 17
f 31 9 18
f 9 81 20
f 20 21 9
f 9 21 22
f 9 22 19
f 19 1 9
f 17 32 23
f 27 23 24
f 25 26 24
f 24 26 27
f 31 2 18
f 28 29 30
f 30 29 18
f 23 1 24
f 33 31 18
f 24 1 18
f 18 1 33
f 17 23 10
f 10 23 14
f 1 14 32
f 32 14 23
f 35 33 1
f 73 32 34
f 34 32 31
f 9 31 6
f 6 31 18
f 36 31 33
f 34 31 36
f 37 38 36
f 36 38 34
f 33 49 36
f 36 39 37
f 36 40 41
f 36 41 39
f 36 42 40
f 36 43 44
f 36 44 42
f 36 45 46
f 36 46 43
f 50 47 48
f 36 49 50
f 36 50 48
f 36 48 45
f 50 51 47
f 50 52 51
f 33 53 49
f 49 53 54
f 49 54 50
f 50 54 55
f 50 55 52
f 33 35 53
f 53 35 56
f 53 56 54
f 54 56 57
f 54 57 55
f 55 57 58
f 55 58 52
f 52 58 59
f 52 59 51
f 51 59 60
f 51 60 47
f 47 60 61
f 47 61 48
f 48 61 62
f 48 62 45
f 45 62 63
f 45 63 46
f 46 63 64
f 46 64 43
f 43 64 65
f 43 65 44
f 44 65 66
f 44 66 42
f 42 66 67
f 42 67 40
f 40 67 68
f 40 68 41
f 41 68 69
f 41 69 39
f 39 69 70
f 39 70 37
f 37 70 71
f 37 71 38
f 38 71 72
f 38 72 34
f 34 72 73
f 73 72 71
f 73 71 74
f 71 70 74
f 74 70 69
f 74 69 68
f 68 67 74
f 74 67 66
f 74 66 65
f 74 65 75
f 75 65 64
f 64 63 75
f 75 63 62
f 75 62 61
f 61 60 75
f 75 60 59
f 75 59 58
f 75 58 35
f 56 35 57
f 57 35 58
f 73 74 32
f 35 1 75
f 74 75 32
f 32 75 1
f 27 1 23
f 76 15 77
f 77 15 14
f 77 14 78
f 14 80 79
f 14 79 78
f 14 1 80
f 27 18 1
f 1 18 9
f 81 9 82
f 82 9 8
f 82 8 83
f 84 85 5
f 5 85 86
f 5 86 8
f 8 86 83
f 87 7 3
f 3 7 4
f 87 88 7
f 7 88 89
f 7 89 5
f 5 89 84
f 16 94 91
f 16 91 90
f 95 92 12
f 12 92 93
f 12 93 16
f 16 93 94
f 95 12 11
f 95 11 96
f 13 97 11
f 11 97 96
f 15 76 98
f 15 98 13
f 13 98 99
f 13 99 97
f 27 30 18
f 30 27 26
f 30 26 28
f 28 26 25
f 28 25 29
f 29 25 24
f 29 24 18
f 20 76 77
f 20 77 21
f 76 20 98
f 98 20 81
f 77 78 21
f 21 78 79
f 21 79 22
f 22 79 19
f 79 80 19
f 19 80 1
f 98 81 82
f 98 82 99
f 99 82 83
f 99 83 97
f 86 96 83
f 83 96 97
f 96 86 85
f 96 85 95
f 89 93 84
f 84 93 92
f 84 92 85
f 85 92 95
f 93 89 88
f 93 88 94
f 3 16 90
f 87 90 91
f 87 91 88
f 88 91 94
f 3 90 87
f 134 100 101
f 134 101 102
f 134 102 103
f 134 103 104
f 134 104 105
f 134 105 106
f 134 106 107
f 134 107 116
f 116 107 108
f 116 108 109
f 109 110 116
f 116 110 111
f 116 111 112
f 116 112 113
f 116 113 114
f 116 114 115
f 116 115 117
f 116 117 133
f 133 117 118
f 133 118 119
f 133 119 120
f 133 120 121
f 121 122 133
f 133 122 123
f 133 123 124
f 133 124 125
f 133 125 126
f 133 126 134
f 134 126 127
f 134 127 128
f 134 128 129
f 134 129 130
f 134 130 131
f 134 131 132
f 134 132 100
f 116 133 134
f 139 138 140
f 140 138 137
f 191 141 142
f 191 142 144
f 144 142 143
f 148 149 151
f 149 157 151
f 154 152 153
f 157 156 153
f 194 157 158
f 167 145 159
f 148 159 150
f 161 162 160
f 229 147 163
f 163 147 164
f 169 103 170
f 170 103 102
f 170 102 171
f 171 102 101
f 171 101 172
f 172 101 100
f 172 100 173
f 173 100 132
f 173 132 174
f 174 132 131
f 174 131 175
f 175 131 130
f 175 130 176
f 176 130 129
f 176 129 177
f 177 129 128
f 177 128 178
f 178 128 127
f 178 127 179
f 179 127 126
f 179 126 180
f 180 126 125
f 180 125 181
f 181 125 124
f 181 124 182
f 182 124 123
f 182 123 183
f 183 123 122
f 183 122 184
f 184 122 121
f 184 121 185
f 185 121 120
f 186 139 160
f 160 139 140
f 160 140 187
f 187 140 137
f 187 137 188
f 188 137 189
f 137 138 189
f 189 138 219
f 143 190 144
f 144 190 191
f 152 154 192
f 192 158 152
f 152 158 157
f 152 157 153
f 150 149 148
f 145 146 159
f 201 159 146
f 148 201 150
f 148 150 159
f 148 159 201
f 194 195 156
f 162 161 196
f 161 188 196
f 196 188 189
f 196 189 219
f 164 147 197
f 198 191 197
f 197 191 190
f 197 190 164
f 147 198 229
f 194 158 195
f 195 158 192
f 195 192 156
f 200 186 162
f 194 156 157
f 148 166 167
f 160 162 186
f 163 141 229
f 141 198 168
f 136 139 186
f 139 219 138
f 139 136 219
f 135 219 136
f 145 201 146
f 150 157 149
f 201 157 150
f 156 154 153
f 147 199 193
f 193 198 147
f 141 191 198
f 155 203 193
f 156 203 155
f 145 219 201
f 198 193 219
f 157 201 156
f 156 201 203
f 219 193 202
f 185 203 184
f 184 203 183
f 183 203 182
f 182 203 181
f 181 203 180
f 180 203 179
f 179 203 178
f 178 203 177
f 177 203 176
f 176 203 175
f 175 203 201
f 175 201 174
f 174 201 173
f 173 201 172
f 172 201 171
f 171 201 219
f 171 219 170
f 170 219 169
f 199 147 229
f 198 135 136
f 200 136 186
f 169 219 204
f 204 219 205
f 205 219 202
f 205 202 206
f 206 202 207
f 207 202 208
f 208 202 209
f 209 202 210
f 210 202 211
f 211 202 212
f 212 202 213
f 213 202 214
f 214 202 215
f 215 202 193
f 215 193 216
f 216 193 217
f 217 193 218
f 218 193 185
f 185 193 203
f 165 199 155
f 159 148 167
f 162 145 167
f 151 157 148
f 194 156 155
f 200 162 196
f 200 196 219
f 229 198 197
f 229 197 147
f 148 201 166
f 166 201 148
f 156 192 154
f 155 193 165
f 165 193 199
f 190 143 164
f 164 143 142
f 164 142 163
f 163 142 141
f 185 120 218
f 218 120 119
f 218 119 217
f 217 119 118
f 217 118 216
f 216 118 117
f 216 117 215
f 215 117 115
f 215 115 214
f 214 115 114
f 214 114 213
f 213 114 113
f 213 113 212
f 212 113 112
f 212 112 211
f 211 112 111
f 211 111 210
f 210 111 110
f 210 110 209
f 209 110 109
f 209 109 208
f 208 109 108
f 208 108 207
f 207 108 107
f 207 107 206
f 206 107 106
f 206 106 205
f 205 106 105
f 205 105 204
f 204 105 104
f 204 104 169
f 169 104 103
f 188 161 187
f 187 161 160
f 162 219 145
f 198 219 135
f 194 155 220
f 220 155 221
f 221 155 199
f 221 199 222
f 222 199 223
f 223 199 224
f 224 199 225
f 225 199 226
f 226 199 227
f 227 199 228
f 228 199 229
f 228 229 230
f 230 229 231
f 231 229 141
f 231 141 232
f 232 141 233
f 233 141 234
f 167 235 236
f 167 236 237
f 237 236 238
f 237 238 136
f 136 238 239
f 136 239 240
f 136 240 241
f 136 241 242
f 136 242 168
f 168 242 243
f 168 243 244
f 168 244 245
f 168 245 246
f 168 246 234
f 168 234 141
f 157 156 194
f 162 200 219
f 200 237 136
f 198 136 168
f 237 200 162
f 237 162 167
f 167 166 148
f 247 194 220
f 247 220 248
f 248 220 221
f 248 221 249
f 249 221 222
f 249 222 250
f 250 222 223
f 250 223 251
f 251 223 224
f 251 224 252
f 252 224 225
f 252 225 253
f 253 225 226
f 253 226 254
f 254 226 227
f 254 227 255
f 255 227 228
f 255 228 256
f 256 228 230
f 256 230 257
f 257 230 231
f 257 231 258
f 258 231 232
f 258 232 259
f 259 232 233
f 259 233 260
f 260 233 234
f 260 234 261
f 234 246 261
f 261 246 245
f 261 245 262
f 262 245 244
f 262 244 263
f 263 244 243
f 263 243 264
f 264 243 242
f 264 242 265
f 265 242 241
f 265 241 266
f 266 241 240
f 266 240 267
f 267 240 239
f 267 239 268
f 268 239 238
f 268 238 269
f 269 238 236
f 269 236 270
f 270 236 235
f 270 235 271
f 271 235 167
f 272 273 274
f 274 273 275
f 275 273 276
f 275 276 277
f 277 276 278
f 277 278 279
f 279 278 280
f 279 280 281
f 281 280 282
f 281 282 283
f 283 282 284
f 283 284 285
f 285 284 286
f 285 286 287
f 287 286 288
f 287 288 289
f 289 288 290
f 289 290 291
f 291 290 292
f 291 292 293
f 293 292 294
f 293 294 295
f 295 294 296
f 295 296 297
f 297 296 298
f 297 298 299
f 299 298 300
f 299 300 301
f 311 310 312
f 157 312 148
f 157 194 312
f 312 194 247
f 312 247 248
f 312 248 249
f 312 249 311
f 311 249 250
f 311 250 310
f 310 250 251
f 310 251 309
f 309 251 252
f 309 252 308
f 308 252 253
f 308 253 307
f 307 253 254
f 307 254 306
f 306 254 255
f 306 255 305
f 305 255 256
f 305 256 304
f 304 256 257
f 304 257 303
f 303 257 258
f 303 258 302
f 302 258 259
f 302 259 272
f 272 259 260
f 272 260 273
f 273 260 261
f 273 261 276
f 276 261 262
f 276 262 278
f 278 262 263
f 278 263 280
f 280 263 264
f 280 264 282
f 282 264 265
f 282 265 284
f 284 265 266
f 284 266 286
f 286 266 267
f 286 267 288
f 288 267 268
f 288 268 290
f 290 268 269
f 290 269 292
f 292 269 270
f 292 270 294
f 294 270 271
f 294 271 296
f 296 271 167
f 296 167 298
f 298 167 300
f 300 167 148
f 300 148 301
f 301 148 312
f 313 314 315
f 315 314 316
f 315 316 317
f 318 319 315
f 315 319 320
f 315 320 313
f 321 322 315
f 315 322 323
f 315 323 318
f 317 324 315
f 315 324 325
f 315 325 321
f 316 328 317
f 317 328 329
f 317 329 324
f 324 329 330
f 324 330 325
f 325 330 331
f 325 331 321
f 321 331 332
f 321 332 322
f 322 332 333
f 322 333 323
f 323 333 334
f 323 334 318
f 318 334 335
f 318 335 319
f 319 335 336
f 319 336 320
f 320 336 337
f 320 337 313
f 313 337 338
f 313 338 314
f 314 338 339
f 314 339 316
f 316 339 328
f 340 328 341
f 341 328 339
f 341 339 342
f 326 327 343
f 337 326 342
f 337 342 338
f 338 342 339
f 326 274 342
f 326 337 327
f 327 337 336
f 327 336 343
f 343 336 344
f 344 336 335
f 344 335 345
f 345 335 346
f 346 335 334
f 346 334 333
f 333 332 346
f 346 332 331
f 346 331 340
f 340 331 330
f 340 330 329
f 340 329 328
f 274 275 277
f 274 277 342
f 342 277 279
f 342 279 341
f 341 279 281
f 341 281 340
f 340 281 283
f 340 283 285
f 340 285 346
f 346 285 287
f 346 287 345
f 345 287 289
f 345 289 344
f 344 289 291
f 344 291 343
f 343 291 293
f 343 293 295
f 343 295 297
f 343 297 299
f 343 299 301
f 343 301 312
f 312 326 343
f 326 312 310
f 326 310 309
f 326 309 308
f 326 308 307
f 326 307 274
f 274 307 306
f 274 306 305
f 274 305 304
f 274 304 303
f 274 303 302
f 274 302 272
f 353 347 352
f 352 347 350
f 353 347 354
f 354 347 350
f 350 347 352
f 352 347 353
f 350 347 354
f 354 347 351
f 349 348 353
f 348 349 353
f 351 347 353
f 351 353 354
f 366 361 359
f 356 364 373
f 366 363 362
f 371 373 364
f 363 366 357
f 363 357 364
f 364 357 371
f 356 372 364
f 366 362 361
f 358 357 368
f 366 359 374
f 357 365 368
f 374 359 369
f 359 376 369
f 358 399 371
f 356 371 357
f 356 357 358
f 365 357 367
f 367 357 366
f 356 358 371
f 369 373 371
f 363 367 362
f 367 363 365
f 369 399 402
f 369 402 374
f 373 399 358
f 373 358 372
f 358 368 364
f 358 364 372
f 364 368 365
f 365 363 364
f 374 361 362
f 374 362 366
f 366 362 367
f 31 360 355
f 399 394 401
f 370 369 376
f 375 360 31
f 360 375 370
f 360 370 355
f 355 370 376
f 372 373 404
f 370 404 373
f 370 375 404
f 370 373 369
f 377 371 399
f 377 399 369
f 377 369 371
f 382 378 379
f 379 378 380
f 379 380 381
f 383 384 385
f 385 384 386
f 385 386 387
f 383 388 384
f 389 388 383
f 389 383 390
f 390 383 385
f 388 401 384
f 384 401 391
f 384 391 386
f 386 391 392
f 386 392 387
f 387 392 393
f 394 382 379
f 394 379 395
f 395 379 381
f 398 380 396
f 396 380 378
f 396 378 399
f 399 378 382
f 398 396 399
f 399 382 394
f 401 400 393
f 401 393 392
f 401 392 391
f 401 402 399
f 390 402 389
f 389 402 388
f 388 402 401
f 393 395 387
f 387 395 381
f 374 376 361
f 385 397 390
f 390 397 374
f 374 397 376
f 398 373 380
f 405 375 387
f 405 387 381
f 405 381 380
f 385 375 31
f 385 31 397
f 397 31 355
f 397 355 376
f 387 375 385
f 373 404 405
f 380 373 405
f 390 374 402
f 373 398 399
f 395 403 394
f 403 400 394
f 395 393 403
f 403 393 400
f 400 401 394
f 405 404 375
f 373 372 404
f 373 372 356
f 376 359 361
f 442 406 407
f 442 407 408
f 442 408 409
f 442 409 410
f 442 410 411
f 442 411 412
f 442 412 413
f 442 413 422
f 422 413 414
f 422 414 415
f 415 416 422
f 422 416 417
f 422 417 418
f 422 418 419
f 422 419 420
f 422 420 421
f 422 421 423
f 422 423 439
f 439 423 424
f 439 424 425
f 439 425 426
f 439 426 427
f 427 428 439
f 439 428 429
f 439 429 430
f 439 430 431
f 439 431 432
f 439 432 442
f 442 432 433
f 442 433 434
f 442 434 435
f 442 435 436
f 442 436 437
f 442 437 438
f 442 438 406
f 440 439 441
f 440 441 442
f 440 442 422
f 440 422 439
f 441 439 442
f 447 446 448
f 448 446 445
f 505 449 450
f 505 450 452
f 452 450 451
f 459 456 457
f 459 457 458
f 456 459 460
f 459 537 460
f 463 461 462
f 468 466 462
f 508 468 469
f 456 470 471
f 480 453 472
f 456 471 458
f 471 472 458
f 474 475 473
f 548 455 476
f 476 455 477
f 483 409 484
f 484 409 408
f 484 408 485
f 485 408 407
f 485 407 486
f 486 407 406
f 486 406 487
f 487 406 438
f 487 438 488
f 488 438 437
f 488 437 489
f 489 437 436
f 489 436 490
f 490 436 435
f 490 435 491
f 491 435 434
f 491 434 492
f 492 434 433
f 492 433 493
f 493 433 432
f 493 432 494
f 494 432 431
f 494 431 495
f 495 431 430
f 495 430 496
f 496 430 429
f 496 429 497
f 497 429 428
f 497 428 498
f 498 428 427
f 498 427 499
f 499 427 426
f 500 447 473
f 473 447 448
f 473 448 501
f 501 448 445
f 501 445 502
f 502 445 503
f 445 446 503
f 503 446 516
f 451 504 452
f 452 504 505
f 461 463 506
f 506 469 461
f 461 469 468
f 461 468 462
f 458 457 456
f 453 454 472
f 517 472 454
f 470 517 458
f 470 458 472
f 470 472 517
f 508 509 466
f 475 474 510
f 474 502 510
f 510 502 503
f 510 503 516
f 443 512 481
f 481 512 536
f 477 455 511
f 512 505 511
f 511 505 504
f 511 504 477
f 455 512 548
f 513 540 478
f 508 469 509
f 509 469 506
f 509 506 466
f 517 514 458
f 515 500 475
f 508 466 468
f 470 479 480
f 473 475 500
f 481 512 443
f 476 449 548
f 513 478 540
f 449 512 482
f 444 447 500
f 447 516 446
f 447 444 516
f 443 516 444
f 453 517 454
f 458 537 459
f 517 537 458
f 466 463 462
f 465 467 464
f 455 540 507
f 540 513 507
f 507 513 464
f 507 512 455
f 449 505 512
f 516 443 536
f 467 520 464
f 466 520 467
f 453 516 517
f 512 507 536
f 520 507 464
f 537 517 466
f 466 517 520
f 520 519 507
f 536 507 518
f 536 518 516
f 499 519 498
f 498 519 497
f 497 519 496
f 496 519 495
f 495 519 494
f 494 519 493
f 493 519 520
f 493 520 492
f 492 520 491
f 491 520 490
f 490 520 489
f 489 520 517
f 489 517 488
f 488 517 487
f 487 517 486
f 486 517 485
f 485 517 516
f 485 516 484
f 484 516 483
f 540 455 548
f 481 443 444
f 515 444 500
f 483 516 521
f 521 516 522
f 522 516 518
f 522 518 523
f 523 518 524
f 524 518 525
f 525 518 526
f 526 518 527
f 527 518 528
f 528 518 529
f 529 518 530
f 530 518 531
f 531 518 532
f 532 518 507
f 532 507 533
f 533 507 534
f 534 507 535
f 535 507 499
f 499 507 519
f 470 456 460
f 478 513 467
f 471 470 472
f 472 470 480
f 475 453 480
f 460 537 470
f 470 537 468
f 508 466 467
f 467 465 464
f 515 475 510
f 515 510 516
f 548 512 511
f 548 511 455
f 470 517 479
f 479 517 470
f 468 537 466
f 512 481 482
f 466 506 463
f 467 464 478
f 478 464 513
f 504 451 477
f 477 451 450
f 477 450 476
f 476 450 449
f 499 426 535
f 535 426 425
f 535 425 534
f 534 425 424
f 534 424 533
f 533 424 423
f 533 423 532
f 532 423 421
f 532 421 531
f 531 421 420
f 531 420 530
f 530 420 419
f 530 419 529
f 529 419 418
f 529 418 528
f 528 418 417
f 528 417 527
f 527 417 416
f 527 416 526
f 526 416 415
f 526 415 525
f 525 415 414
f 525 414 524
f 524 414 413
f 524 413 523
f 523 413 412
f 523 412 522
f 522 412 411
f 522 411 521
f 521 411 410
f 521 410 483
f 483 410 409
f 502 474 501
f 501 474 473
f 514 517 458
f 475 516 453
f 481 536 443
f 508 467 538
f 538 467 539
f 539 467 540
f 539 540 541
f 541 540 542
f 542 540 543
f 543 540 544
f 544 540 545
f 545 540 546
f 546 540 547
f 547 540 548
f 547 548 549
f 549 548 550
f 550 548 449
f 550 449 551
f 551 449 552
f 552 449 553
f 480 554 555
f 480 555 556
f 556 555 557
f 556 557 444
f 444 557 558
f 444 558 559
f 444 559 560
f 444 560 561
f 444 561 482
f 482 561 562
f 482 562 563
f 482 563 564
f 482 564 565
f 482 565 553
f 482 553 449
f 468 466 508
f 475 515 516
f 515 556 444
f 481 444 482
f 556 515 475
f 556 475 480
f 480 479 470
f 540 467 513
f 566 508 538
f 566 538 567
f 567 538 539
f 567 539 568
f 568 539 541
f 568 541 569
f 569 541 542
f 569 542 570
f 570 542 543
f 570 543 571
f 571 543 544
f 571 544 572
f 572 544 545
f 572 545 573
f 573 545 546
f 573 546 574
f 574 546 547
f 574 547 575
f 575 547 549
f 575 549 576
f 576 549 550
f 576 550 577
f 577 550 551
f 577 551 578
f 578 551 552
f 578 552 579
f 579 552 553
f 579 553 580
f 553 565 580
f 580 565 564
f 580 564 581
f 581 564 563
f 581 563 582
f 582 563 562
f 582 562 583
f 583 562 561
f 583 561 584
f 584 561 560
f 584 560 585
f 585 560 559
f 585 559 586
f 586 559 558
f 586 558 587
f 587 558 557
f 587 557 588
f 588 557 555
f 588 555 589
f 589 555 554
f 589 554 590
f 590 554 480
f 591 592 593
f 593 592 594
f 594 592 595
f 594 595 596
f 596 595 597
f 596 597 598
f 598 597 599
f 598 599 600
f 600 599 601
f 600 601 602
f 602 601 603
f 602 603 604
f 604 603 605
f 604 605 606
f 606 605 607
f 606 607 608
f 608 607 609
f 608 609 610
f 610 609 611
f 610 611 612
f 612 611 613
f 612 613 614
f 614 613 615
f 614 615 616
f 616 615 617
f 616 617 618
f 618 617 619
f 618 619 620
f 593 621 591
f 591 621 622
f 591 622 623
f 623 622 624
f 623 624 625
f 625 624 626
f 625 626 627
f 627 626 628
f 627 628 629
f 629 628 630
f 629 630 631
f 631 630 632
f 631 632 633
f 633 632 634
f 633 634 635
f 635 634 636
f 635 636 637
f 637 636 638
f 637 638 639
f 639 638 640
f 639 640 641
f 641 640 642
f 468 643 470
f 468 508 643
f 643 508 566
f 643 566 567
f 643 567 642
f 642 567 568
f 642 568 641
f 641 568 569
f 641 569 639
f 639 569 570
f 639 570 637
f 637 570 571
f 637 571 635
f 635 571 572
f 635 572 633
f 633 572 573
f 633 573 631
f 631 573 574
f 631 574 629
f 629 574 575
f 629 575 627
f 627 575 576
f 627 576 625
f 625 576 577
f 625 577 623
f 623 577 578
f 623 578 591
f 591 578 579
f 591 579 592
f 592 579 580
f 592 580 595
f 595 580 581
f 595 581 597
f 597 581 582
f 597 582 599
f 599 582 583
f 599 583 601
f 601 583 584
f 601 584 603
f 603 584 585
f 603 585 605
f 605 585 586
f 605 586 607
f 607 586 587
f 607 587 609
f 609 587 588
f 609 588 611
f 611 588 589
f 611 589 613
f 613 589 590
f 613 590 615
f 615 590 480
f 615 480 617
f 617 480 619
f 619 480 470
f 619 470 620
f 620 470 643
f 644 645 646
f 646 645 647
f 646 647 648
f 649 650 646
f 646 650 651
f 646 651 644
f 652 653 646
f 646 653 654
f 646 654 649
f 648 655 646
f 646 655 656
f 646 656 652
f 647 659 648
f 648 659 660
f 648 660 655
f 655 660 661
f 655 661 656
f 656 661 662
f 656 662 652
f 652 662 663
f 652 663 653
f 653 663 664
f 653 664 654
f 654 664 665
f 654 665 649
f 649 665 666
f 649 666 650
f 650 666 667
f 650 667 651
f 651 667 668
f 651 668 644
f 644 668 669
f 644 669 645
f 645 669 670
f 645 670 647
f 647 670 659
f 671 659 672
f 672 659 670
f 672 670 673
f 657 658 674
f 668 657 673
f 668 673 669
f 669 673 670
f 657 621 673
f 657 668 658
f 658 668 667
f 658 667 674
f 674 667 675
f 675 667 666
f 675 666 676
f 676 666 677
f 677 666 665
f 677 665 664
f 664 663 677
f 677 663 662
f 677 662 671
f 671 662 661
f 671 661 660
f 671 660 659
f 621 593 594
f 621 594 596
f 621 596 673
f 673 596 598
f 673 598 672
f 672 598 600
f 672 600 671
f 671 600 602
f 671 602 604
f 671 604 677
f 677 604 606
f 677 606 676
f 676 606 608
f 676 608 675
f 675 608 610
f 675 610 674
f 674 610 612
f 674 612 614
f 674 614 616
f 674 616 618
f 674 618 620
f 674 620 643
f 643 657 674
f 657 643 642
f 657 642 640
f 657 640 638
f 657 638 636
f 657 636 634
f 657 634 621
f 621 634 632
f 621 632 630
f 621 630 628
f 621 628 626
f 621 626 624
f 621 624 622
f 678 679 680
f 678 680 681
f 681 680 682
f 681 682 683
f 684 685 686
f 684 686 687
f 687 686 688
f 687 688 713
f 689 690 691
f 689 691 692
f 692 691 693
f 692 693 694
f 694 693 695
f 694 695 696
f 697 698 699
f 697 699 700
f 700 699 701
f 700 701 702
f 703 704 705
f 703 705 706
f 706 705 707
f 706 707 708
f 709 683 711
f 683 682 711
f 696 695 711
f 711 695 712
f 696 711 682
f 713 688 714
f 713 714 715
f 715 714 678
f 678 714 679
f 716 713 715
f 716 715 709
f 699 698 712
f 712 698 707
f 712 707 705
f 681 683 709
f 681 709 678
f 678 709 715
f 705 704 712
f 712 704 684
f 712 684 716
f 716 684 687
f 716 687 713
f 693 691 695
f 695 691 690
f 695 690 712
f 712 690 701
f 712 701 699
f 697 685 708
f 708 685 703
f 708 703 706
f 689 692 694
f 694 696 689
f 689 696 685
f 689 685 702
f 702 685 697
f 702 697 700
f 714 688 717
f 717 688 686
f 717 686 685
f 682 680 710
f 710 680 679
f 710 679 717
f 717 679 714
f 696 682 710
f 703 685 704
f 704 685 684
f 701 690 702
f 702 690 689
f 685 696 717
f 717 696 710
f 711 712 716
f 711 716 709
f 707 698 708
f 708 698 697
f 718 719 720
f 720 719 724
f 740 721 722
f 722 721 723
f 722 723 719
f 719 723 724
f 718 720 725
f 725 720 726
f 725 726 727
f 725 727 728
f 728 727 736
f 718 729 719
f 719 729 730
f 719 730 722
f 722 730 731
f 722 731 740
f 724 723 732
f 732 723 721
f 732 721 733
f 734 726 735
f 735 726 720
f 735 720 732
f 732 720 724
f 734 736 727
f 734 727 726
f 734 737 736
f 741 743 739
f 737 745 742
f 739 743 744
f 731 739 740
f 721 740 738
f 721 738 733
f 737 742 736
f 729 718 725
f 725 728 729
f 729 728 736
f 729 736 742
f 740 739 743
f 743 745 738
f 743 742 745
f 744 743 739
f 740 743 738
f 735 732 734
f 734 732 733
f 734 733 737
f 738 745 733
f 733 745 737
f 729 743 741
f 729 742 743
f 730 729 731
f 731 729 741
f 731 741 739

