# https://github.com/mikedh/trimesh
v -0.00334672 0.01662258 -0.02651606
v -0.00494056 0.01588819 0.03709503
v -0.00131107 -0.00897167 -0.00227197
v -0.00294118 -0.01263212 0.03177921
v 0.07097655 0.02521042 0.00126174
v 0.06731254 0.02223149 0.00550388
v 0.07084037 0.02425228 0.00858311
v -0.00000000 0.01299897 -0.01927259
v -0.00120379 0.00834781 0.01713656
v -0.00120534 0.00808735 0.01157243
v -0.00000000 0.00970691 -0.02899168
v -0.00044308 -0.00026921 0.01446821
v 0.00000000 -0.00747796 0.01353823
v 0.00000000 -0.01042084 -0.03084091
v 0.00044746 0.00341642 -0.00960216
v -0.00028333 -0.00672536 -0.03005984
v -0.00000000 0.01290287 -0.03010602
v -0.00276316 0.01321068 -0.03294789
v -0.00051429 0.00481501 0.00095181
v -0.00217973 -0.00883769 0.03559663
v -0.00430233 -0.00930474 -0.03085152
v -0.00500000 0.01107227 -0.03149480
v -0.00473000 -0.00354340 -0.00073804
v -0.00500000 -0.00426225 0.01377021
v -0.00435522 0.00567949 -0.00001520
v -0.00457368 0.00466279 0.01364849
v -0.00320000 -0.00602124 0.00025448
v -0.00225882 -0.00434356 -0.00382635
v -0.00320000 -0.00464901 0.00103690
v -0.00365000 0.00565754 -0.00350689
v -0.00320000 0.00749679 -0.00271394
v -0.00320000 0.00313970 0.00027027
v -0.00320000 0.00283691 -0.00263669
v -0.00320000 -0.00219620 -0.00351538
v -0.00320000 -0.00126222 -0.00122973
v 0.00100000 -0.00516229 0.03677023
v -0.00320000 -0.00670223 0.01248010
v -0.00320000 -0.00224201 0.01231355
v -0.00320000 -0.00209737 0.01455145
v -0.00320000 -0.00504349 0.01593508
v -0.00320000 0.00421867 0.01139688
v -0.00320000 0.00733775 0.01377023
v -0.00320000 0.00495650 0.01593510
v -0.01202287 -0.00408827 -0.02694170
v -0.01848900 0.00365539 -0.03238235
v -0.01208868 0.01304850 -0.02694169
v -0.00300000 -0.01204086 -0.03298451
v -0.00888285 -0.01168566 -0.02563916
v -0.00500000 0.01169692 -0.02794719
v -0.00500000 -0.00704406 -0.02778399
v -0.00500000 -0.01110075 -0.03077495
v -0.00627012 -0.00558462 -0.03369829
v -0.00482534 0.02143663 -0.04971633
v -0.00510586 0.02134703 -0.06279794
v -0.00419551 0.02190758 -0.04845324
v -0.00405391 0.02206857 -0.06401713
v -0.00405125 0.02207185 -0.04823811
v -0.00403544 0.02209175 -0.06404673
v -0.00390474 0.02227411 -0.06427408
v -0.00357938 0.02301288 -0.06563487
v -0.00357938 0.02301285 -0.04662460
v -0.00361528 0.02288746 -0.04711543
v -0.00365116 0.02289587 -0.06612797
v -0.00369064 0.02268036 -0.06475504
v -0.00369064 0.02268034 -0.04750443
v -0.00970163 0.00155858 -0.05755021
v -0.01478765 0.00124341 -0.05632580
v -0.00629868 0.00202179 -0.06073307
v -0.00645338 0.00558214 -0.06529191
v -0.00659700 0.00943022 -0.06686880
v -0.00893122 0.01253474 -0.06709028
v -0.00593740 0.01940600 -0.06500944
v -0.00407660 0.00664806 -0.06763088
v -0.00434034 0.00255642 -0.06390145
v -0.00399358 -0.00072794 -0.05775881
v -0.00354181 -0.00023196 -0.06163483
v -0.00393038 0.01528262 -0.06865578
v -0.00524834 0.01534192 -0.06734719
v -0.00481883 0.01773393 -0.06676923
v -0.00451834 0.01928619 -0.06621594
v -0.00628146 0.02095369 -0.04927222
v -0.00395031 0.02208136 -0.04761735
v -0.00492043 0.02124661 -0.04852170
v -0.00584868 0.02091926 -0.06322948
v -0.00423688 0.02175939 -0.06429750
v -0.00370567 0.02252790 -0.06513965
v -0.00730279 0.02107703 -0.06241151
v -0.00580659 0.02070220 -0.04870371
v -0.01419004 0.01771103 -0.04670068
v -0.01361776 0.00557116 -0.04738773
v -0.00622733 0.00630169 -0.04669165
v -0.01490789 0.00918957 -0.04556184
v -0.00539283 0.00980144 -0.04495211
v -0.01146001 0.00303458 -0.05026654
v -0.01764173 0.00425379 -0.04705851
v -0.01598270 0.00255902 -0.05084443
v -0.01408197 0.02086986 -0.04970420
v -0.00938451 0.02159214 -0.05952186
v -0.00747919 0.01348004 -0.03269178
v -0.01792126 0.01800862 -0.04232578
v -0.01227784 0.00871086 -0.04082017
v -0.01794981 0.02363767 -0.04643945
v -0.01788690 0.02334666 -0.04610578
v -0.00467157 0.02248604 -0.04522343
v -0.01793649 0.02363785 -0.04643966
v -0.01773581 0.02271495 -0.04547593
v -0.00496790 0.02165014 -0.04410173
v -0.00396982 0.02362176 -0.04641018
v -0.00405019 0.02363767 -0.04643945
v -0.00406351 0.02363785 -0.04643966
v -0.01201301 0.00204152 -0.04466969
v -0.00437850 0.00179940 -0.04539766
v -0.01200000 -0.00651633 -0.03227186
v -0.01194555 0.01073016 -0.03822213
v -0.01200000 -0.01137152 -0.03342409
v -0.00405019 0.02363771 -0.06582001
v -0.00400925 0.02363127 -0.06583310
v -0.01808290 -0.00263702 -0.05832852
v -0.00515963 -0.00306814 -0.06121347
v -0.01679507 0.00165645 -0.06778193
v -0.01732843 0.02248607 -0.06703603
v -0.00467157 0.02248607 -0.06703603
v -0.00404603 0.02048605 -0.06869205
v -0.01616978 0.01956205 -0.06982912
v -0.00400757 0.01637360 -0.07039821
v -0.01606031 0.01895176 -0.07140321
v -0.01548928 0.00684901 -0.07136324
v -0.01834048 0.00536909 -0.06911111
v -0.00400817 0.00366832 -0.06831618
v -0.01802685 0.02362876 -0.06584125
v -0.01793649 0.02363789 -0.06581980
v -0.00406351 0.02363789 -0.06581980
v -0.01848160 0.00905450 -0.04147990
v -0.01797055 0.02363673 -0.04643840
v -0.01817336 0.02357768 -0.06581713
v -0.01818453 0.02357199 -0.04644451
v -0.01833192 0.02344386 -0.06578153
v -0.01833715 0.02343698 -0.04647997
v -0.01834509 0.02342606 -0.06577625
v -0.01842445 0.02324691 -0.04654125
v -0.01842061 0.02301288 -0.06563487
v -0.01842061 0.02301285 -0.04662460
v -0.01789497 0.02150017 -0.04451390
v -0.01832959 0.02172463 -0.04526609
v -0.01833043 0.01656086 -0.04291844
v -0.01834816 0.01217002 -0.04209956
v -0.01809971 0.01212286 -0.04136457
v -0.01205572 0.00537330 -0.04198924
v -0.01809456 -0.00252049 -0.05537427
v -0.01831304 0.00956287 -0.07043018
v -0.01844967 0.02164935 -0.06675091
v -0.01850307 0.01802146 -0.06902327
v -0.01839824 0.02314628 -0.06587890
v -0.01828527 0.02174369 -0.06571832
v -0.01818338 0.02272918 -0.06639247
v -0.01798658 0.02287452 -0.06655735
v -0.01838160 0.00965312 -0.04174575
v -0.01842533 -0.00012898 -0.06350577
v -0.01704724 0.00107437 -0.06086820
v -0.01741662 0.00838691 -0.06730571
v -0.01840142 0.01413798 -0.06927060
v -0.01665230 0.02038040 -0.06456097
v -0.01821795 0.02240016 -0.06492442
v -0.01078579 0.01931390 -0.06420018
v -0.01492800 0.01112975 -0.06712492
v -0.01503357 0.00538426 -0.06484891
v -0.01495818 0.00226209 -0.06094291
v -0.01493004 0.00345934 -0.06289912
v -0.01616641 0.00092682 -0.05650862
v -0.01533608 0.00716555 -0.06590610
v -0.01580031 0.01271561 -0.06734451
v -0.01517019 0.01901001 -0.06495768
v -0.01774300 0.00524274 -0.04272608
v -0.01847868 0.00551433 -0.04282082
v -0.01835008 0.00498658 -0.04421211
v -0.01838020 0.00518073 -0.04364872
v -0.01838472 0.02288749 -0.06514405
v -0.01833659 0.02290509 -0.04605458
v -0.01830936 0.02268034 -0.04750443
v -0.01830936 0.02268036 -0.06475504
v -0.01809526 0.02227408 -0.04798539
v -0.01794609 0.02206854 -0.04824235
v -0.01794875 0.02207188 -0.06402136
v -0.01780449 0.02190760 -0.06380624
v -0.01753629 0.02166561 -0.04879466
v -0.01796456 0.02209173 -0.04821274
v -0.01733151 0.02175693 -0.05163791
v -0.01741745 0.02157855 -0.06333114
v -0.01828620 0.02252705 -0.04715668
v -0.01717713 0.02123612 -0.04837074
v -0.01549183 0.02015417 -0.04837419
v -0.01776312 0.02175936 -0.04796198
v -0.01760966 0.02165822 -0.06412244
v -0.01640502 0.02107980 -0.06289978
v -0.00406240 0.02274238 -0.04558856
v -0.00414560 0.02273111 -0.06672513
v -0.00424076 0.02154630 -0.06793581
v -0.00378704 0.01088653 -0.07084060
v -0.00371588 0.00960607 -0.07057927
v -0.00377607 0.00281035 -0.06735443
v -0.00402422 -0.00193266 -0.06083170
v -0.00357043 -0.00237702 -0.05757857
v -0.00363681 -0.00246323 -0.05395414
v -0.00328160 -0.00116431 -0.05130946
v -0.00442059 -0.00008990 -0.04753421
v -0.00466803 0.00027516 -0.04700441
v -0.00487049 0.01620875 -0.04141819
v -0.00366048 0.01516434 -0.04202687
v -0.00385921 0.01202455 -0.04155927
v -0.00378766 0.00799185 -0.04219819
v -0.00381228 0.00491521 -0.04368227
v -0.00390535 0.01850533 -0.04281376
v -0.00364850 0.02123817 -0.04518584
v -0.00366013 0.02227799 -0.04599055
v -0.00360814 0.02013038 -0.06767369
v -0.00362602 0.01409672 -0.07045405
v -0.00383681 0.00638093 -0.06951061
v -0.00360636 0.00179665 -0.06650098
v -0.00382201 0.02357237 -0.04642188
v -0.00357179 0.02322844 -0.04654751
v -0.00367607 0.02339371 -0.04636636
v -0.00366573 0.02344079 -0.04647886
v -0.00356655 0.02319297 -0.04655964
v -0.00363176 0.02291442 -0.04626799
v -0.00357129 0.02322563 -0.06571192
v -0.00365625 0.02342795 -0.06577682
v -0.00383100 0.02358000 -0.06581760
v -0.00400469 0.02292916 -0.06650682
v -0.01738726 0.01448165 -0.04429533
v -0.01596663 0.01472979 -0.04562812
v -0.01783198 0.02006325 -0.04634812
v -0.01831842 0.00576432 -0.04391912
v -0.01788019 0.00065693 -0.05086886
v -0.01766166 -0.00030310 -0.05512288
v -0.01831207 -0.00163401 -0.05609089
v -0.01367263 0.01275402 -0.04524567
v -0.01741156 0.00971828 -0.04432112
v -0.01708437 0.00647932 -0.04569244
v -0.01765511 -0.00035320 -0.05605608
v -0.01611327 0.00084830 -0.05606314
v -0.01778119 -0.00271631 -0.05520616
v -0.01804129 0.00253925 -0.04489292
v -0.01766862 -0.00006292 -0.04739291
v -0.01797857 -0.00232572 -0.05273622
v -0.01732843 -0.00193495 -0.05107544
v -0.01732843 -0.00128454 -0.04953475
v -0.01832831 -0.00175788 -0.05508313
v -0.01829882 0.00019014 -0.04799286
v -0.01831239 -0.00123908 -0.05136036
v -0.00549225 0.01873675 -0.04679770
v -0.00555394 0.01752974 -0.04611330
v -0.00548649 0.01299470 -0.04470322
v -0.00602458 0.00784002 -0.04575917
v -0.00555554 0.00461693 -0.04767238
v -0.00602777 0.00166492 -0.05216896
v -0.00549244 0.00358848 -0.04863750
v -0.00399730 0.01310608 -0.04309366
v -0.00473082 0.01493497 -0.04443820
v -0.00484908 0.00042060 -0.05461786
v -0.00481884 0.00018775 -0.05604788
v -0.00350733 0.00188996 -0.04618417
v -0.02277000 -0.01931223 -0.02372974
v -0.02277000 0.06768777 -0.02372974
v -0.02171204 -0.01931223 -0.02372974
v -0.02171204 0.06768777 -0.02372974
v -0.02167108 -0.01931223 -0.02348660
v -0.02167108 0.06768777 -0.02348660
v -0.02155271 -0.01931223 -0.02327031
v -0.02155271 0.06768777 -0.02327031
v -0.02137000 -0.01931223 -0.02310474
v -0.02137000 0.06768777 -0.02310474
v -0.02137000 -0.01931223 -0.02267974
v -0.02137000 0.06768777 -0.02267974
v -0.02134321 -0.01931223 -0.02257974
v -0.02134321 0.06768777 -0.02257974
v -0.02127000 -0.01931223 -0.02250653
v -0.02127000 0.06768777 -0.02250653
v -0.02117000 -0.01931223 -0.02247974
v -0.02117000 0.06768777 -0.02247974
v -0.02077000 -0.01931223 -0.02247974
v -0.02077000 0.06768777 -0.02247974
v -0.02067000 -0.01931223 -0.02250653
v -0.02067000 0.06768777 -0.02250653
v -0.02059679 -0.01931223 -0.02257974
v -0.02059679 0.06768777 -0.02257974
v -0.02057000 -0.01931223 -0.02267974
v -0.02057000 0.06768777 -0.02267974
v -0.02057000 -0.01931223 -0.02310474
v -0.02057000 0.06768777 -0.02310474
v -0.02038729 -0.01931223 -0.02327031
v -0.02038729 0.06768777 -0.02327031
v -0.02026892 -0.01931223 -0.02348660
v -0.02026892 0.06768777 -0.02348660
v -0.02022796 -0.01931223 -0.02372974
v -0.02022796 0.06768777 -0.02372974
v -0.01687000 -0.01931223 -0.02372974
v -0.01687000 0.06768777 -0.02372974
v -0.01657000 -0.01931223 -0.02342974
v -0.01657000 0.01418778 -0.02342974
v -0.01652861 0.06523974 -0.02131864
v -0.01657586 -0.01467525 -0.02095916
v -0.01657157 0.00621478 -0.01940291
v -0.01662518 -0.01691204 -0.02083638
v -0.01657000 0.00229939 -0.01973573
v -0.01657000 0.00223278 -0.01922974
v -0.01657000 -0.01385723 -0.01922974
v -0.01657000 -0.01411914 -0.01825224
v -0.01657000 0.00368179 -0.01734135
v -0.01657000 -0.01931223 -0.01737724
v -0.01668723 -0.01765796 -0.01930189
v -0.01657455 -0.01743608 -0.01800506
v -0.01657000 -0.01392384 -0.01872375
v -0.01657000 0.00229939 -0.01872375
v -0.01663429 0.00277995 -0.01796366
v -0.01670361 -0.01412709 -0.01986649
v -0.01662049 0.00308832 -0.02084132
v -0.01663677 -0.01566084 -0.01734725
v -0.01657000 -0.01931223 -0.01502974
v -0.01661411 0.00524846 -0.01760663
v -0.01657000 0.01418778 -0.01502974
v -0.01657000 0.00418778 -0.01727474
v -0.01657000 0.06253783 -0.01981578
v -0.01657000 0.06247338 -0.01887369
v -0.01657000 0.04469377 -0.01734135
v -0.01657000 0.06590970 -0.01823776
v -0.01657000 0.06768777 -0.01737724
v -0.01657000 0.02469376 -0.01734135
v -0.01664757 0.04328363 -0.01760616
v -0.01657000 0.04588085 -0.01825224
v -0.01657000 0.06244086 -0.01934916
v -0.01657000 0.04249469 -0.02020724
v -0.01657000 0.04614277 -0.01922974
v -0.01758494 0.04491216 -0.02053868
v -0.01664853 0.02241586 -0.01853631
v -0.01657000 0.04418778 -0.02118474
v -0.01657000 0.02607616 -0.01872375
v -0.01657000 0.02614278 -0.01922974
v -0.01657000 0.04223277 -0.01922974
v -0.01668725 0.02242678 -0.01978526
v -0.01657000 0.04249469 -0.01825224
v -0.01668532 0.02566729 -0.01811282
v -0.01657000 0.04229939 -0.01973573
v -0.01657000 0.02607616 -0.01973573
v -0.01668160 0.02527192 -0.02073810
v -0.01657897 0.02371146 -0.02125627
v -0.01657000 0.04418778 -0.01727474
v -0.01657000 0.06768777 -0.01502974
v -0.01666658 0.02341108 -0.01757868
v -0.01657000 0.02418777 -0.01727474
v -0.01687000 0.06768777 -0.01472974
v -0.01687000 -0.01931223 -0.01472974
v -0.02022796 -0.01931223 -0.01472974
v -0.02022796 0.06768777 -0.01472974
v -0.02026892 -0.01931223 -0.01497288
v -0.02026892 0.06768777 -0.01497288
v -0.02038729 -0.01931223 -0.01518917
v -0.02038729 0.06768777 -0.01518917
v -0.02057000 -0.01931223 -0.01535474
v -0.02057000 0.06768777 -0.01535474
v -0.02057000 -0.01931223 -0.01577974
v -0.02057000 0.06768777 -0.01577974
v -0.02059679 -0.01931223 -0.01587974
v -0.02059679 0.06768777 -0.01587974
v -0.02067000 -0.01931223 -0.01595294
v -0.02067000 0.06768777 -0.01595294
v -0.02077000 -0.01931223 -0.01597974
v -0.02077000 0.06768777 -0.01597974
v -0.02117000 -0.01931223 -0.01597974
v -0.02117000 0.06768777 -0.01597974
v -0.02127000 -0.01931223 -0.01595294
v -0.02127000 0.06768777 -0.01595294
v -0.02134321 -0.01931223 -0.01587974
v -0.02134321 0.06768777 -0.01587974
v -0.02137000 -0.01931223 -0.01577974
v -0.02137000 0.06768777 -0.01577974
v -0.02137000 -0.01931223 -0.01535474
v -0.02137000 0.06768777 -0.01535474
v -0.02155271 -0.01931223 -0.01518917
v -0.02155271 0.06768777 -0.01518917
v -0.02167108 -0.01931223 -0.01497288
v -0.02167108 0.06768777 -0.01497288
v -0.02171204 -0.01931223 -0.01472974
v -0.02171204 0.06768777 -0.01472974
v -0.02277000 -0.01931223 -0.01472974
v -0.02277000 0.06768777 -0.01472974
v -0.02307000 -0.01931223 -0.01502974
v -0.02307000 0.01418778 -0.01502974
v -0.02307000 0.06768777 -0.01502974
v -0.02307000 0.06768777 -0.02342974
v -0.02307000 0.01418778 -0.02342974
v -0.02307000 -0.01931223 -0.02342974
v -0.02307000 0.01418778 -0.01600224
v -0.02307000 0.06768777 -0.01600224
v -0.02305785 0.06650059 -0.01669855
v -0.02307000 0.02627543 -0.02166156
v -0.02307000 0.04165334 -0.02119154
v -0.02306907 0.04610896 -0.01661241
v -0.02307000 0.06418677 -0.01597974
v -0.02307000 0.02418777 -0.01602474
v -0.02289454 0.04533867 -0.01630774
v -0.02307000 0.04418778 -0.01602474
v -0.02299863 0.02160744 -0.01721724
v -0.02307000 0.04690768 -0.01753441
v -0.02307000 0.06353255 -0.01604627
v -0.02307000 0.04719327 -0.01811663
v -0.02306426 0.06741754 -0.02020459
v -0.02301215 0.02117868 -0.02023614
v -0.02306713 0.02282947 -0.02221004
v -0.02307000 0.04146787 -0.01753441
v -0.02292795 0.06238607 -0.01667989
v -0.02307000 0.02451202 -0.02241830
v -0.02307008 0.02538368 -0.02222210
v -0.02300676 0.04483881 -0.02233163
v -0.02307000 0.04627542 -0.02166156
v -0.02303536 0.06184949 -0.02153480
v -0.02295701 0.04736428 -0.01894859
v -0.02297815 0.06146175 -0.01775186
v -0.02306896 0.04704883 -0.02076086
v -0.02306686 0.06547589 -0.02227993
v -0.02297050 0.04152412 -0.02082139
v -0.02306466 0.02616983 -0.01655417
v -0.02296291 0.06383404 -0.02231433
v -0.02306800 0.02747044 -0.01917996
v -0.02306695 -0.01654778 -0.02241812
v -0.02307000 -0.01931223 -0.01600224
v -0.02307000 -0.01581223 -0.01602474
v -0.02306751 0.00741148 -0.01984703
v -0.02306741 -0.01874010 -0.01774119
v -0.02305810 0.00647038 -0.01673413
v -0.02307000 -0.01327779 -0.02119154
v -0.02306498 0.00153998 -0.02125168
v -0.02307000 0.00418778 -0.01602474
v -0.02306453 -0.01881449 -0.02067268
v -0.02306935 -0.01407933 -0.02194380
v -0.02307000 -0.01309232 -0.01753441
v -0.02301599 0.00221108 -0.01671539
v -0.02296312 -0.01414431 -0.01660918
v -0.02306548 0.00565643 -0.02220564
v -0.02295045 -0.01509524 -0.02219403
v -0.02306945 0.00098261 -0.01870217
v -0.02306913 -0.01269977 -0.02014924
v -0.01841409 -0.01740344 -0.01898146
v -0.01677556 -0.01613658 -0.01748525
v -0.01670653 -0.01449388 -0.01798838
v -0.01677062 -0.01405843 -0.01896445
v -0.01676983 -0.01462978 -0.02053452
v -0.01677067 -0.01557968 -0.02101202
v -0.01884558 -0.01752175 -0.01956254
v -0.01956879 -0.01810822 -0.01780352
v -0.01956994 -0.01357723 -0.01862514
v -0.01994852 -0.01643506 -0.02142423
v -0.01957000 -0.01290264 -0.01832366
v -0.01956998 -0.01549779 -0.01614665
v -0.01957000 -0.01404593 -0.01679864
v -0.01956997 -0.01871469 -0.02055291
v -0.02072124 -0.01483098 -0.02175384
v -0.02022997 -0.01290760 -0.01923782
v -0.02286761 -0.01772072 -0.02165593
v -0.02286996 -0.01871343 -0.02008010
v -0.02286385 -0.01864950 -0.01790815
v -0.02287417 -0.01686155 -0.01638238
v -0.02300849 -0.01643807 -0.01606099
v -0.02295184 -0.01268963 -0.01876598
v -0.01802150 0.00276642 -0.01864623
v -0.01678470 0.00433915 -0.01740242
v -0.01676741 0.00552656 -0.01809061
v -0.01676915 0.00593204 -0.01883948
v -0.01670074 0.00560366 -0.02045576
v -0.01666894 0.00432489 -0.02105053
v -0.01879008 0.00431497 -0.02083766
v -0.01979568 0.00193200 -0.01958406
v -0.01957000 0.00371302 -0.01752381
v -0.01956901 0.00618992 -0.01795872
v -0.02064605 0.00220065 -0.01721485
v -0.02042802 0.00404016 -0.01629542
v -0.02019511 0.00380203 -0.02224853
v -0.02050360 0.00271353 -0.02184133
v -0.01956999 0.00719874 -0.01990057
v -0.01956873 0.00513238 -0.02159667
v -0.02295727 0.00317852 -0.02215078
v -0.02286738 0.00125651 -0.01992739
v -0.02292688 0.00401612 -0.01614886
v -0.02041190 0.00430566 -0.01647702
v -0.02195506 0.00608089 -0.01718466
v -0.02286995 0.00724582 -0.01895970
v -0.02286938 0.00664346 -0.02106184
v -0.02287027 0.00555040 -0.02191261
v -0.02286832 0.00496656 -0.02213633
v -0.02286753 0.00436333 -0.02223369
v -0.01677006 0.02250755 -0.01871046
v -0.01676988 0.02406715 -0.02098465
v -0.01879008 0.02431500 -0.02083767
v -0.01957000 0.02290516 -0.02042762
v -0.01956884 0.02189568 -0.01810138
v -0.01899875 0.02580140 -0.01844268
v -0.01853827 0.02513754 -0.02048288
v -0.02027421 0.02716566 -0.01905149
v -0.02137742 0.02467357 -0.01664038
v -0.02052859 0.02495172 -0.01658972
v -0.01956879 0.02276183 -0.01696425
v -0.02081707 0.02364333 -0.02177392
v -0.01956856 0.02675269 -0.01987703
v -0.02143518 0.02573818 -0.02145517
v -0.01957000 0.02511686 -0.02210438
v -0.02286938 0.02206466 -0.02142004
v -0.02041141 0.02200544 -0.02121333
v -0.02005383 0.02237441 -0.01805363
v -0.02287008 0.02243551 -0.01677007
v -0.02293971 0.02367756 -0.01622069
v -0.02287111 0.02716960 -0.01865178
v -0.02294498 0.02697389 -0.02057807
v -0.01674590 0.04225191 -0.01916339
v -0.01673365 0.04450394 -0.01737763
v -0.01673873 0.04609904 -0.01906545
v -0.01669394 0.04371543 -0.02105250
v -0.01956875 0.04365277 -0.02168275
v -0.01956872 0.04152856 -0.01835098
v -0.01956876 0.04270919 -0.01752280
v -0.01957000 0.04418777 -0.01745897
v -0.01956851 0.04604536 -0.01774430
v -0.01956883 0.04668997 -0.01811866
v -0.01972967 0.04643968 -0.02118038
v -0.01957000 0.04541002 -0.01648453
v -0.01956998 0.04387332 -0.01614665
v -0.01957000 0.04175208 -0.02101683
v -0.02090793 0.04685940 -0.02001046
v -0.02296427 0.04308716 -0.02215201
v -0.02287002 0.04257390 -0.02176873
v -0.02298982 0.04110417 -0.01936901
v -0.02287000 0.04118982 -0.01884635
v -0.02295969 0.04152050 -0.01762507
v -0.02296725 0.04277802 -0.01646470
v -0.02287000 0.04449178 -0.02221932
v -0.01956952 0.06673421 -0.01796243
v -0.01956916 0.06420036 -0.02187372
v -0.01957000 0.06308237 -0.02058723
v -0.01846973 0.06207330 -0.01817392
v -0.01956961 0.06279474 -0.01734861
v -0.01956991 0.06494110 -0.01716839
v -0.01957000 0.06623066 -0.01701254
v -0.01956997 0.06354583 -0.01615266
v -0.02011625 0.06212347 -0.02108268
v -0.02134158 0.06160801 -0.01986859
v -0.01957000 0.06120321 -0.01891615
v -0.01956928 0.06652541 -0.02074668
v -0.02281877 0.06463468 -0.01620578
v -0.02281940 0.06638612 -0.01712583
v -0.02282112 0.06716369 -0.01865286
v -0.02282241 0.06708269 -0.02007991
v -0.02282032 0.06658950 -0.02104042
v -0.02281796 0.06558976 -0.02193344
v -0.02282001 0.06312823 -0.02204074
v -0.02281990 0.06231861 -0.02160157
v -0.02301474 0.06097754 -0.01940380
v -0.00800000 0.00715391 -0.00174808
v -0.00800000 -0.00315257 0.01293677
v -0.00800000 -0.00278228 0.01635019
v -0.00800000 -0.00584972 0.01380182
v -0.00800000 0.00432164 -0.00071140
v -0.00740909 -0.00364251 -0.00915086
v -0.00800000 -0.00519754 0.00057298
v -0.00800000 -0.00608025 -0.00099350
v -0.00800000 0.00745037 0.01515700
v -0.00800000 0.00478739 0.01280078
v -0.00800000 0.00736269 0.00429491
v -0.00800003 -0.00641505 -0.01429965
v -0.00800012 0.00792208 -0.01438030
v -0.00715789 0.00617427 -0.00808764
v -0.00800000 -0.00671223 0.01627026
v -0.02500000 -0.01881222 -0.01072974
v -0.00500000 -0.01881222 -0.01072974
v -0.00500000 -0.01687151 -0.02370165
v -0.01657000 0.02737115 -0.01958912
v -0.00500000 -0.00292235 0.01386691
v -0.00500000 0.00293777 -0.01922974
v -0.00500000 -0.01458759 -0.01706343
v -0.00500000 -0.01668471 -0.02104993
v -0.00500000 -0.01689476 -0.01860474
v -0.00500000 -0.01524524 -0.01447974
v -0.00500000 -0.01531222 -0.01422974
v -0.00500000 -0.01531222 -0.01022974
v -0.00500000 -0.01002092 -0.01473687
v -0.00500000 0.00405938 -0.01774940
v -0.00500000 -0.00520031 -0.00001774
v -0.00600000 -0.00487406 -0.00198942
v -0.00500000 -0.00667715 0.01503556
v -0.00592593 0.00360847 0.02223979
v -0.00500000 -0.00738652 0.01974016
v -0.00500000 0.00679369 0.01522747
v -0.00500000 0.00768295 0.01272480
v -0.00500000 0.00707267 -0.00075229
v -0.00500000 0.02282564 -0.01801606
v -0.00500000 0.02717669 -0.01870240
v -0.00500000 0.01039586 -0.01368610
v -0.00500000 0.02541583 -0.01482671
v -0.00500000 0.02534479 -0.02368579
v -0.00500000 -0.01867825 -0.01022974
v -0.00500000 -0.01831223 -0.00986371
v -0.00500000 -0.01781223 -0.00972974
v -0.00500000 -0.01581223 -0.00972974
v -0.00500000 -0.01556223 -0.00979673
v -0.00500000 -0.01537921 -0.00997974
v -0.00500000 0.00470612 -0.02159475
v -0.00500000 0.00583443 -0.00256962
v -0.00500000 0.00439156 -0.00060076
v -0.01226490 0.00799445 -0.01424100
v -0.01519150 -0.00706321 -0.01480794
v -0.01657000 0.00303081 -0.02019697
v -0.01657000 -0.01827273 -0.02087051
v -0.01657000 -0.01437225 -0.01824770
v -0.01657000 -0.01715210 -0.01913309
v -0.01657000 0.02214631 -0.01930997
v -0.01068731 -0.00751794 -0.01084875
v -0.00846154 0.00973352 0.01890594
v -0.01000000 -0.00835371 0.01886814
v -0.01657000 -0.01029057 -0.02405890
v -0.01657000 0.02446972 -0.02104240
v -0.01657000 0.02581603 -0.01484890
v -0.01657000 0.02569510 -0.01789781
v -0.00755556 -0.00409181 -0.00393383
v -0.00600000 -0.00226222 -0.00415974
v -0.00720000 0.00500441 -0.00433631
v -0.00766667 0.00419771 0.01340701
v -0.00772414 0.00639858 0.01200452
v -0.00600000 0.00766696 0.00632349
v -0.00711111 -0.00029677 0.00070654
v -0.00600000 -0.00551336 0.00479567
v -0.00664000 -0.00434439 0.01230467
v -0.00600000 -0.00323459 0.01293928
v -0.00600000 0.00073777 0.01407026
v -0.02500000 -0.01581223 -0.00972974
v -0.02500000 -0.01781223 -0.00972974
v -0.02500000 -0.01531222 -0.01022974
v -0.01657000 -0.01531222 -0.01422974
v -0.02500000 -0.01531222 -0.01422974
v -0.01657000 -0.01870883 -0.01474290
v -0.02500000 -0.01806685 -0.01503013
v -0.02500000 -0.01537921 -0.01447974
v -0.02500000 -0.01556223 -0.00979673
v -0.02500000 -0.01537921 -0.00997974
v -0.02500000 -0.01831223 -0.00986371
v -0.02500000 -0.01867825 -0.01022974
v -0.01657000 -0.01537921 -0.01447974
v -0.01657000 -0.01556223 -0.01466275
v -0.01657000 -0.01524524 -0.01447974
v -0.01657000 -0.01271934 -0.01639127
v -0.01087733 0.00910842 -0.01142266
v -0.00944444 0.00777968 0.01825631
v -0.00864516 -0.00665723 0.01688343
v -0.01000000 -0.00555815 0.01963839
v -0.01000000 -0.00032213 0.02097384
v -0.01657000 -0.01179002 -0.01646799
v -0.01657000 0.00231277 -0.02372974
v -0.01657000 0.00604465 -0.01982763
v -0.01657000 0.01975445 -0.01639299
v -0.01657000 0.00530216 -0.01778732
v -0.01657000 0.02122353 -0.02343290
v -0.00607000 -0.01339612 -0.01799607
v -0.00607000 0.00211035 -0.01742894
v -0.00607000 -0.01053082 -0.02279400
v -0.00607000 0.00613157 -0.02027546
v -0.00607000 0.02194268 -0.01758768
v -0.00607000 0.01998943 -0.02193264
v -0.01205320 -0.00644428 -0.01372974
v -0.01235643 -0.00571223 -0.01446179
v -0.01619530 0.00212571 -0.01631619
v -0.01575182 0.06696586 -0.02309925
v -0.01657000 0.04358678 -0.02372974
v -0.01407000 0.05844019 -0.01524319
v -0.01525056 0.05900954 -0.02273215
v -0.01515696 0.04725682 -0.02101913
v -0.01532000 0.04789072 -0.01686847
v -0.01657000 0.05736059 -0.01549154
v -0.01552833 0.06155401 -0.01878155
v -0.01657000 0.06140624 -0.01965668
v -0.01657000 0.04691072 -0.01868056
v -0.02307000 0.06768678 -0.01322974
v -0.01657000 0.06883659 -0.01105400
v -0.01584586 0.06540247 -0.02001686
v -0.01357000 0.06674884 -0.02061328
v -0.01357000 0.06343406 -0.02026000
v -0.01657000 0.06288220 -0.01944592
v -0.01357000 0.06296812 -0.01950789
v -0.01357000 0.06296812 -0.01895159
v -0.01530684 0.06375889 -0.01794289
v -0.01357000 0.04365292 -0.02058029
v -0.01357000 0.04516407 -0.02000910
v -0.01357000 0.04540544 -0.01950789
v -0.01357000 0.04540544 -0.01895159
v -0.01357000 0.04516407 -0.01845038
v -0.01357000 0.04472914 -0.01810353
v -0.01657000 0.04523690 -0.01931094
v -0.01515824 0.04250821 -0.01897630
v -0.01357000 0.04235373 -0.02314090
v -0.01357000 0.02891972 -0.00476585
v -0.01357000 0.06059170 -0.00584786
v -0.01357000 0.04462768 -0.00476585
v -0.01357000 0.06852772 -0.00480659
v -0.01357000 0.06808522 -0.00733427
v -0.01587769 0.04093776 -0.00541808
v -0.01357000 0.04016751 -0.00970818
v -0.01453000 0.03313278 -0.00680321
v -0.01357000 0.05880190 -0.00767974
v -0.01357000 0.05770581 -0.00767974
v -0.01357000 0.05399379 -0.00663212
v -0.01612000 0.03493635 -0.00580559
v -0.01357000 0.05248166 -0.00476585
v -0.01479727 0.02056228 -0.00919596
v -0.01657000 0.06795304 -0.00476585
v -0.01657000 0.05729148 -0.00696734
v -0.01657000 0.06282070 -0.00707335
v -0.01657000 0.02749242 -0.00639013
v -0.01657000 0.04343516 -0.00674224
v -0.01514143 0.02532082 -0.00726997
v -0.01537000 0.04722527 -0.00621152
v -0.01657000 0.05010079 -0.00579171
v -0.01657000 0.03881856 -0.00836910
v -0.01657000 0.05617206 -0.00476585
v -0.02307000 0.05732012 -0.01302974
f 6 5 7
f 7 5 2
f 2 5 1
f 7 9 10
f 7 10 8
f 14 3 47
f 13 12 20
f 20 12 9
f 14 47 16
f 21 16 3
f 16 11 1
f 1 11 17
f 16 18 11
f 17 18 1
f 13 3 12
f 12 3 19
f 15 19 28
f 15 28 3
f 10 19 8
f 8 19 15
f 14 21 3
f 3 13 4
f 4 13 20
f 19 10 12
f 3 21 47
f 21 3 23
f 23 3 4
f 22 21 23
f 26 24 20
f 23 4 20
f 23 20 24
f 23 24 26
f 22 23 30
f 22 30 25
f 26 25 23
f 23 25 30
f 26 2 25
f 1 22 25
f 18 22 1
f 1 25 2
f 26 20 2
f 1 5 16
f 16 5 3
f 3 5 6
f 6 7 8
f 6 8 15
f 6 15 3
f 23 27 3
f 23 3 28
f 23 29 27
f 25 30 31
f 25 31 19
f 25 32 33
f 25 33 30
f 33 15 30
f 30 15 31
f 31 15 19
f 25 19 32
f 32 19 15
f 32 15 33
f 28 34 23
f 23 34 35
f 34 28 19
f 34 19 35
f 35 19 23
f 23 19 29
f 29 19 3
f 29 3 27
f 2 20 36
f 2 36 7
f 36 20 7
f 7 20 9
f 24 37 38
f 24 38 39
f 24 39 12
f 24 12 40
f 24 40 37
f 26 41 10
f 26 10 42
f 26 42 9
f 26 9 43
f 42 10 9
f 26 12 41
f 41 12 10
f 43 9 12
f 43 12 26
f 37 13 12
f 37 12 38
f 38 12 39
f 40 12 37
f 37 12 13
f 47 21 22
f 47 22 16
f 22 18 16
f 22 11 18
f 18 17 22
f 22 17 11
f 21 14 16
f 115 52 47
f 115 47 48
f 46 48 49
f 48 50 49
f 47 51 48
f 52 99 49
f 49 50 52
f 82 53 55
f 55 53 56
f 55 56 57
f 57 56 58
f 57 58 59
f 60 61 62
f 62 61 224
f 63 60 62
f 63 62 64
f 64 62 65
f 64 65 59
f 59 65 82
f 59 82 57
f 66 76 68
f 68 74 69
f 69 74 73
f 70 77 71
f 71 77 78
f 71 78 72
f 70 69 77
f 78 79 72
f 68 76 74
f 79 80 72
f 72 80 215
f 69 73 216
f 69 216 77
f 77 215 78
f 78 215 79
f 79 215 80
f 53 81 54
f 81 53 88
f 88 53 83
f 57 82 55
f 88 83 82
f 82 83 53
f 58 56 85
f 56 54 85
f 56 53 54
f 58 85 59
f 59 85 86
f 59 86 64
f 215 86 85
f 215 85 54
f 215 54 72
f 72 54 84
f 87 164 72
f 72 84 87
f 87 84 54
f 54 81 97
f 97 98 87
f 97 87 54
f 98 164 87
f 99 207 114
f 207 100 114
f 102 134 103
f 106 107 104
f 102 103 105
f 105 103 104
f 104 103 106
f 100 207 107
f 104 195 105
f 105 195 108
f 105 108 110
f 110 108 109
f 99 46 49
f 52 111 112
f 46 44 48
f 115 113 52
f 52 113 44
f 52 44 148
f 52 148 111
f 46 114 44
f 44 114 101
f 48 44 115
f 121 196 122
f 121 122 124
f 124 122 197
f 124 125 126
f 128 127 120
f 121 156 196
f 196 156 130
f 196 130 117
f 130 131 117
f 117 131 132
f 117 132 116
f 45 133 174
f 132 131 110
f 110 131 105
f 105 131 102
f 102 131 130
f 135 134 102
f 135 102 130
f 134 135 136
f 136 135 137
f 136 137 138
f 138 137 139
f 138 139 140
f 139 153 140
f 140 153 141
f 140 141 142
f 140 142 178
f 103 134 178
f 107 106 143
f 134 136 178
f 178 136 138
f 140 178 138
f 106 103 178
f 107 143 100
f 147 114 100
f 147 101 114
f 143 144 100
f 100 146 147
f 144 145 100
f 100 145 146
f 147 157 101
f 101 157 133
f 158 120 119
f 126 127 150
f 124 197 123
f 118 158 119
f 126 161 124
f 124 161 152
f 124 152 151
f 150 161 126
f 149 235 118
f 120 158 128
f 128 160 127
f 127 160 150
f 154 141 153
f 153 135 156
f 156 135 130
f 153 139 137
f 153 137 135
f 155 153 156
f 45 148 44
f 101 45 44
f 45 101 133
f 159 158 118
f 159 118 235
f 160 128 158
f 160 161 150
f 161 162 152
f 171 165 71
f 166 168 69
f 158 159 170
f 158 170 160
f 160 171 161
f 161 172 162
f 152 162 151
f 151 162 154
f 154 193 163
f 169 66 159
f 159 66 167
f 159 167 168
f 159 168 166
f 159 166 170
f 160 165 171
f 161 171 71
f 161 71 172
f 148 45 173
f 173 45 174
f 173 174 176
f 142 141 177
f 177 141 154
f 178 142 177
f 178 177 179
f 179 177 180
f 179 180 181
f 182 183 184
f 182 184 185
f 180 163 181
f 181 163 183
f 181 183 186
f 186 183 182
f 184 193 185
f 185 193 188
f 185 188 187
f 194 187 188
f 178 144 106
f 106 144 143
f 179 189 178
f 189 144 178
f 177 163 180
f 177 154 163
f 151 156 124
f 124 156 121
f 153 155 151
f 151 155 156
f 153 151 154
f 186 182 192
f 182 190 192
f 187 98 97
f 190 187 97
f 190 97 191
f 182 185 190
f 190 185 187
f 186 192 181
f 181 192 189
f 181 189 179
f 190 189 192
f 164 98 162
f 187 194 98
f 193 154 162
f 98 194 162
f 183 163 184
f 184 163 193
f 172 164 162
f 162 194 193
f 193 194 188
f 208 207 99
f 208 99 209
f 209 99 210
f 210 99 52
f 210 52 211
f 211 52 112
f 202 76 75
f 76 119 218
f 76 218 74
f 74 218 200
f 74 200 73
f 199 198 73
f 73 198 216
f 215 123 63
f 124 123 125
f 126 216 127
f 127 216 198
f 199 127 198
f 120 127 129
f 129 200 120
f 120 200 218
f 119 120 218
f 202 118 201
f 201 118 119
f 211 112 261
f 205 112 206
f 207 212 107
f 82 214 213
f 123 215 125
f 125 216 126
f 199 217 127
f 127 217 129
f 201 76 202
f 205 204 112
f 207 208 212
f 212 213 107
f 197 63 123
f 215 77 125
f 125 77 216
f 217 199 73
f 217 73 129
f 129 73 200
f 201 119 76
f 204 261 112
f 212 208 213
f 224 220 221
f 221 222 219
f 224 61 223
f 224 223 220
f 195 224 221
f 221 219 195
f 195 219 108
f 60 225 61
f 61 225 223
f 223 225 220
f 220 225 226
f 220 226 221
f 221 226 222
f 222 226 227
f 222 227 219
f 132 110 116
f 116 110 109
f 116 109 117
f 117 109 227
f 227 109 108
f 227 108 219
f 225 60 63
f 226 63 227
f 227 63 117
f 63 226 225
f 196 117 228
f 228 117 63
f 64 86 63
f 63 86 215
f 62 214 65
f 65 214 82
f 224 214 62
f 107 195 104
f 107 213 195
f 214 224 195
f 214 195 213
f 63 197 196
f 196 228 63
f 196 197 122
f 229 144 230
f 230 144 231
f 231 144 189
f 231 189 190
f 229 146 145
f 229 145 144
f 157 147 237
f 237 147 146
f 232 133 157
f 133 232 174
f 174 232 176
f 95 90 94
f 237 236 92
f 191 97 89
f 89 97 88
f 157 237 232
f 232 175 176
f 229 237 146
f 237 238 232
f 232 238 175
f 175 238 95
f 235 234 239
f 235 239 159
f 239 234 169
f 239 169 159
f 237 92 238
f 233 96 234
f 234 96 67
f 234 67 240
f 234 240 169
f 190 191 89
f 190 89 231
f 231 89 230
f 229 230 236
f 229 236 237
f 92 90 238
f 238 90 95
f 96 95 94
f 240 67 169
f 149 118 241
f 242 176 175
f 242 173 176
f 244 245 243
f 243 245 246
f 248 235 249
f 247 249 235
f 248 95 96
f 248 96 233
f 248 233 234
f 248 234 235
f 242 248 243
f 243 248 244
f 248 249 244
f 241 244 149
f 175 95 242
f 242 95 248
f 244 249 247
f 244 247 235
f 244 235 149
f 148 173 111
f 173 242 111
f 111 242 243
f 118 202 241
f 241 202 203
f 241 203 244
f 244 203 245
f 245 203 204
f 245 204 246
f 246 204 243
f 243 204 205
f 243 205 206
f 243 206 111
f 111 206 112
f 164 172 72
f 72 172 71
f 71 165 160
f 71 160 70
f 70 160 69
f 69 160 170
f 170 166 69
f 69 168 167
f 69 167 68
f 68 167 66
f 66 169 67
f 81 88 97
f 88 250 251
f 88 251 89
f 93 236 252
f 252 236 230
f 251 230 89
f 253 92 93
f 93 92 236
f 92 253 90
f 90 253 91
f 91 254 90
f 256 94 254
f 254 94 90
f 94 255 96
f 96 66 67
f 82 213 208
f 258 208 257
f 257 208 209
f 257 209 210
f 93 211 261
f 251 258 230
f 230 258 252
f 256 204 94
f 94 204 255
f 96 255 259
f 96 76 66
f 259 260 96
f 96 260 76
f 82 208 88
f 88 208 250
f 251 208 258
f 252 211 93
f 253 93 261
f 253 261 91
f 91 261 254
f 204 202 255
f 255 202 259
f 260 75 76
f 250 208 251
f 258 257 252
f 252 257 210
f 252 210 211
f 254 261 204
f 254 204 256
f 204 203 202
f 259 202 260
f 260 202 75
f 99 49 46
f 46 49 114
f 114 49 99
f 113 47 52
f 113 52 50
f 113 50 44
f 44 50 48
f 44 48 115
f 115 48 51
f 115 51 47
f 115 47 113
f 262 263 264
f 264 263 265
f 264 265 266
f 266 265 267
f 266 267 268
f 268 267 269
f 268 269 270
f 270 269 271
f 270 271 272
f 272 271 273
f 272 273 274
f 274 273 275
f 274 275 276
f 276 275 277
f 276 277 278
f 278 277 279
f 278 279 280
f 280 279 281
f 280 281 282
f 282 281 283
f 282 283 284
f 284 283 285
f 284 285 286
f 286 285 287
f 286 287 288
f 288 287 289
f 288 289 290
f 290 289 291
f 290 291 292
f 292 291 293
f 292 293 294
f 294 293 295
f 294 295 296
f 296 295 297
f 298 296 299
f 299 296 297
f 299 297 300
f 304 305 306
f 307 314 308
f 307 308 444
f 310 309 298
f 310 298 303
f 310 311 309
f 306 305 312
f 312 305 313
f 312 313 307
f 307 313 314
f 299 301 298
f 298 301 303
f 306 315 304
f 304 315 301
f 304 301 316
f 302 468 299
f 299 468 469
f 299 469 316
f 299 316 301
f 309 311 317
f 309 317 318
f 319 302 320
f 319 320 321
f 321 320 318
f 321 318 308
f 318 317 308
f 308 317 444
f 299 300 322
f 513 323 324
f 324 323 537
f 323 513 329
f 323 329 330
f 326 325 300
f 299 515 331
f 329 514 330
f 330 514 332
f 330 332 322
f 322 332 333
f 333 515 322
f 322 515 335
f 322 335 299
f 299 335 515
f 336 337 338
f 334 302 339
f 339 302 299
f 328 327 340
f 340 327 341
f 338 337 342
f 342 337 343
f 342 343 331
f 331 343 344
f 338 512 336
f 336 512 340
f 336 340 341
f 331 344 345
f 331 345 299
f 299 345 339
f 320 346 347
f 347 346 324
f 347 324 326
f 326 324 537
f 326 537 325
f 334 348 302
f 302 348 320
f 320 348 349
f 320 349 346
f 346 349 327
f 346 327 328
f 347 350 320
f 320 350 351
f 320 351 318
f 351 350 352
f 352 350 353
f 352 353 354
f 354 353 355
f 354 355 356
f 356 355 357
f 356 357 358
f 358 357 359
f 358 359 360
f 360 359 361
f 360 361 362
f 362 361 363
f 362 363 364
f 364 363 365
f 364 365 366
f 366 365 367
f 366 367 368
f 368 367 369
f 368 369 370
f 370 369 371
f 370 371 372
f 372 371 373
f 372 373 374
f 374 373 375
f 374 375 376
f 376 375 377
f 376 377 378
f 378 377 379
f 378 379 380
f 380 379 381
f 380 381 382
f 382 381 383
f 382 383 384
f 384 383 385
f 386 384 387
f 387 384 385
f 387 385 388
f 389 263 390
f 390 263 262
f 390 262 391
f 412 395 396
f 389 406 393
f 393 406 394
f 399 509 392
f 397 400 398
f 398 400 401
f 398 401 399
f 399 401 400
f 399 400 532
f 509 402 392
f 397 398 403
f 403 398 404
f 403 404 405
f 527 390 396
f 392 402 390
f 390 402 407
f 407 408 390
f 399 532 409
f 404 410 405
f 390 408 411
f 390 411 396
f 396 411 412
f 390 527 413
f 390 413 389
f 414 554 415
f 554 416 417
f 417 416 405
f 417 405 410
f 389 413 414
f 414 418 554
f 554 418 416
f 511 420 395
f 395 420 396
f 409 421 399
f 389 419 406
f 531 421 409
f 415 422 414
f 414 422 389
f 389 422 419
f 420 511 423
f 420 423 529
f 529 423 531
f 531 423 421
f 393 394 398
f 393 398 388
f 399 392 398
f 398 392 387
f 398 387 388
f 425 426 462
f 390 438 427
f 391 433 424
f 425 462 428
f 392 429 432
f 425 428 433
f 425 433 391
f 390 434 430
f 432 482 435
f 435 482 436
f 435 437 432
f 431 480 430
f 430 480 390
f 390 480 438
f 390 427 392
f 392 427 429
f 391 424 390
f 390 424 439
f 390 439 434
f 435 436 440
f 430 441 431
f 431 441 440
f 440 441 463
f 440 463 435
f 386 387 425
f 425 387 392
f 425 392 426
f 426 392 432
f 426 432 437
f 310 442 311
f 311 442 443
f 311 443 317
f 307 444 312
f 444 445 312
f 312 445 306
f 306 445 315
f 315 446 301
f 301 446 447
f 301 447 303
f 303 447 448
f 451 448 447
f 448 310 303
f 442 310 448
f 449 443 442
f 450 443 449
f 450 317 443
f 450 444 317
f 450 445 444
f 450 315 445
f 450 446 315
f 451 447 450
f 450 447 446
f 449 453 450
f 450 453 454
f 448 455 442
f 442 455 449
f 451 455 448
f 450 456 451
f 452 457 450
f 450 457 456
f 451 458 455
f 455 458 459
f 455 459 460
f 455 460 449
f 449 460 461
f 449 461 453
f 461 462 453
f 453 462 437
f 453 437 454
f 454 437 450
f 450 437 463
f 450 463 452
f 452 463 457
f 456 439 451
f 462 461 460
f 462 460 428
f 428 460 433
f 433 460 459
f 433 459 458
f 433 458 424
f 424 458 451
f 424 451 439
f 434 439 456
f 434 456 430
f 430 456 441
f 456 457 441
f 457 463 441
f 435 463 437
f 437 462 426
f 316 464 304
f 304 464 305
f 305 464 313
f 313 464 314
f 314 465 308
f 308 465 321
f 321 465 319
f 319 466 467
f 319 467 302
f 467 468 302
f 316 469 470
f 471 316 470
f 471 464 316
f 472 314 464
f 472 465 314
f 473 465 472
f 473 466 319
f 473 319 465
f 473 467 466
f 479 468 473
f 473 468 467
f 470 469 479
f 479 469 468
f 472 475 473
f 473 475 483
f 473 483 484
f 471 474 464
f 464 474 475
f 464 475 472
f 470 476 471
f 471 476 477
f 473 478 479
f 470 479 476
f 477 481 471
f 474 436 475
f 475 482 483
f 473 484 485
f 473 485 478
f 485 486 478
f 478 486 479
f 479 486 487
f 479 487 488
f 479 488 489
f 479 489 476
f 476 489 480
f 436 482 475
f 436 474 440
f 440 474 471
f 440 471 481
f 440 481 431
f 481 477 431
f 477 476 431
f 431 476 480
f 480 489 438
f 489 488 438
f 438 488 487
f 487 486 438
f 438 486 427
f 427 486 485
f 427 485 429
f 485 484 429
f 484 483 429
f 483 482 429
f 429 482 432
f 345 492 339
f 339 490 334
f 348 495 349
f 349 495 327
f 327 495 341
f 336 341 337
f 341 496 337
f 337 496 343
f 343 496 344
f 345 344 491
f 345 491 492
f 494 339 493
f 493 339 492
f 494 490 339
f 507 334 494
f 494 334 490
f 500 348 507
f 507 348 334
f 500 495 348
f 495 496 341
f 502 496 495
f 492 491 344
f 492 344 496
f 500 498 495
f 495 498 499
f 495 499 497
f 492 501 506
f 492 506 493
f 493 506 494
f 495 497 502
f 496 502 503
f 496 503 504
f 496 504 492
f 492 504 501
f 501 505 506
f 506 505 407
f 494 506 402
f 494 402 507
f 507 508 500
f 500 508 509
f 500 509 498
f 510 511 497
f 497 511 502
f 502 511 503
f 504 503 501
f 402 509 508
f 402 508 507
f 402 506 407
f 407 505 408
f 408 505 501
f 408 501 411
f 411 501 503
f 411 503 412
f 412 503 395
f 395 503 511
f 423 511 510
f 423 510 421
f 510 497 421
f 497 499 421
f 499 498 421
f 421 498 399
f 399 498 509
f 515 512 331
f 331 512 342
f 342 512 338
f 340 512 328
f 328 513 346
f 346 513 324
f 513 514 329
f 332 514 333
f 517 512 516
f 516 512 515
f 518 512 517
f 518 328 512
f 519 513 518
f 518 513 328
f 520 513 519
f 520 514 513
f 521 514 520
f 333 514 521
f 516 515 522
f 522 515 333
f 519 524 520
f 520 524 523
f 518 524 519
f 516 525 517
f 521 526 333
f 333 526 522
f 516 527 528
f 516 528 420
f 516 420 525
f 525 420 517
f 517 420 529
f 517 529 530
f 517 530 531
f 517 531 518
f 518 531 532
f 518 532 524
f 532 400 524
f 524 400 523
f 523 400 520
f 520 400 416
f 520 416 521
f 521 416 526
f 522 526 413
f 522 533 516
f 516 533 527
f 532 531 409
f 531 530 529
f 396 420 527
f 527 420 528
f 413 527 533
f 533 522 413
f 413 526 414
f 414 526 418
f 418 526 416
f 405 416 403
f 403 416 397
f 416 400 397
f 537 539 325
f 325 539 534
f 325 534 300
f 300 534 545
f 300 545 535
f 300 535 536
f 300 536 537
f 300 537 322
f 322 537 330
f 330 537 323
f 537 538 539
f 539 538 541
f 540 534 539
f 536 542 537
f 537 542 543
f 537 543 544
f 536 535 542
f 541 546 539
f 539 546 547
f 539 547 540
f 540 547 534
f 534 547 548
f 548 549 534
f 534 549 545
f 549 550 545
f 545 550 551
f 545 551 535
f 535 551 422
f 535 422 552
f 535 552 553
f 535 553 542
f 415 554 542
f 542 554 543
f 544 543 554
f 544 554 537
f 537 554 417
f 537 417 410
f 537 410 538
f 538 410 541
f 541 410 546
f 415 542 553
f 415 553 552
f 415 552 422
f 422 551 419
f 419 551 406
f 551 550 406
f 406 550 549
f 406 549 548
f 406 548 394
f 548 547 394
f 547 546 394
f 394 546 398
f 398 546 404
f 404 546 410
f 393 277 275
f 273 271 269
f 365 283 281
f 297 295 300
f 300 295 293
f 300 293 326
f 326 293 291
f 326 291 289
f 283 347 285
f 285 347 326
f 285 326 287
f 287 326 289
f 275 273 393
f 393 273 269
f 393 269 389
f 389 269 267
f 389 267 263
f 263 267 265
f 385 383 388
f 388 383 381
f 388 381 393
f 393 381 379
f 393 379 377
f 283 365 347
f 347 365 363
f 347 363 361
f 353 350 355
f 355 350 347
f 355 347 357
f 357 347 361
f 357 361 359
f 377 375 393
f 393 375 373
f 393 373 277
f 277 373 371
f 277 371 279
f 279 371 369
f 279 369 281
f 281 369 367
f 281 367 365
f 274 276 425
f 274 425 272
f 280 282 366
f 318 282 309
f 309 282 284
f 286 288 290
f 262 264 391
f 391 264 266
f 391 266 425
f 425 266 268
f 425 268 272
f 272 268 270
f 374 376 378
f 318 356 358
f 284 286 309
f 309 286 290
f 309 290 298
f 298 290 292
f 298 292 296
f 296 292 294
f 351 352 318
f 318 352 354
f 318 354 356
f 358 360 318
f 318 360 362
f 318 362 282
f 282 362 364
f 282 364 366
f 382 384 380
f 380 384 386
f 380 386 378
f 378 386 425
f 378 425 374
f 280 366 278
f 278 366 368
f 278 368 276
f 276 368 370
f 276 370 425
f 425 370 372
f 425 372 374
f 559 565 555
f 620 559 555
f 620 585 559
f 559 585 561
f 623 557 563
f 563 557 648
f 561 626 559
f 559 626 565
f 561 558 628
f 560 567 566
f 567 560 568
f 555 622 620
f 567 568 555
f 555 568 622
f 567 555 565
f 566 562 560
f 560 562 620
f 558 569 649
f 570 637 636
f 636 577 571
f 636 571 570
f 657 596 653
f 653 596 603
f 572 616 653
f 572 653 603
f 578 576 579
f 578 579 580
f 580 581 578
f 578 581 571
f 578 571 577
f 582 576 577
f 582 577 575
f 582 575 585
f 574 584 583
f 583 584 585
f 586 584 628
f 574 628 584
f 586 587 588
f 586 574 587
f 590 589 574
f 574 589 587
f 587 589 614
f 590 591 594
f 603 592 594
f 593 595 592
f 577 572 575
f 598 597 599
f 599 597 571
f 599 571 600
f 600 571 581
f 600 581 601
f 601 581 602
f 603 594 583
f 575 583 585
f 604 583 594
f 604 594 591
f 604 605 583
f 583 605 574
f 574 605 590
f 590 605 591
f 593 592 596
f 596 592 603
f 603 575 572
f 592 595 618
f 566 567 666
f 666 567 606
f 666 606 618
f 618 606 592
f 608 603 654
f 654 603 656
f 656 603 583
f 656 583 608
f 608 583 575
f 608 575 603
f 609 577 610
f 610 577 576
f 610 576 611
f 611 576 578
f 611 578 577
f 611 577 609
f 617 592 593
f 617 593 619
f 619 593 592
f 619 592 612
f 612 592 617
f 594 647 590
f 590 647 614
f 590 614 589
f 613 585 615
f 615 585 584
f 615 584 586
f 556 628 574
f 556 574 557
f 557 574 649
f 649 574 586
f 649 586 558
f 558 586 628
f 555 604 591
f 555 591 559
f 559 591 605
f 559 605 604
f 559 604 555
f 585 584 561
f 561 584 562
f 562 584 620
f 620 584 585
f 624 590 563
f 563 590 589
f 563 589 623
f 623 589 564
f 564 589 590
f 564 590 624
f 587 651 650
f 587 650 615
f 587 615 588
f 588 615 586
f 577 636 609
f 577 609 616
f 577 616 572
f 596 657 593
f 593 657 617
f 593 617 573
f 618 595 593
f 618 593 619
f 619 593 573
f 647 594 606
f 606 594 592
f 607 582 613
f 613 582 585
f 621 620 622
f 621 622 560
f 622 568 560
f 620 621 560
f 630 557 623
f 624 623 564
f 625 624 565
f 625 565 626
f 627 626 561
f 627 561 628
f 629 628 556
f 629 556 557
f 629 557 630
f 627 628 630
f 630 628 629
f 630 626 627
f 630 625 626
f 623 624 630
f 630 624 625
f 631 632 600
f 600 632 599
f 581 580 633
f 633 580 634
f 633 634 635
f 635 637 633
f 633 637 570
f 637 635 638
f 639 640 631
f 631 640 633
f 631 633 632
f 632 633 570
f 632 570 641
f 641 570 642
f 599 632 641
f 599 641 598
f 598 641 642
f 598 642 597
f 597 642 570
f 597 570 571
f 631 600 601
f 631 601 639
f 639 601 602
f 639 602 640
f 640 602 581
f 640 581 633
f 635 634 643
f 635 643 638
f 638 643 644
f 638 644 637
f 637 644 636
f 634 580 645
f 645 580 579
f 645 579 646
f 646 579 576
f 646 576 607
f 607 576 582
f 567 565 647
f 647 565 648
f 648 565 624
f 648 624 563
f 566 613 562
f 569 558 649
f 649 558 561
f 649 561 613
f 613 561 562
f 614 647 648
f 649 613 615
f 649 615 650
f 648 651 587
f 648 587 614
f 651 648 557
f 649 650 557
f 557 650 651
f 634 645 643
f 643 645 644
f 644 645 646
f 652 646 607
f 611 609 636
f 611 636 610
f 610 636 644
f 610 644 646
f 610 616 609
f 666 653 616
f 666 608 653
f 619 573 617
f 617 657 612
f 619 612 655
f 619 655 618
f 618 655 656
f 618 656 666
f 666 656 608
f 653 608 654
f 653 654 657
f 659 660 658
f 607 659 652
f 659 607 666
f 659 666 616
f 659 616 660
f 660 616 658
f 658 616 610
f 658 610 646
f 658 646 652
f 658 652 659
f 661 662 663
f 661 657 654
f 661 654 656
f 655 662 656
f 656 662 661
f 662 655 612
f 662 612 657
f 662 657 663
f 663 657 661
f 607 664 665
f 607 665 666
f 613 664 607
f 606 567 647
f 613 566 664
f 664 566 665
f 665 566 666
f 667 694 668
f 669 674 670
f 670 671 669
f 671 672 669
f 669 673 674
f 674 675 670
f 671 676 672
f 669 672 673
f 685 679 680
f 681 679 682
f 681 682 683
f 683 682 684
f 684 682 685
f 692 686 687
f 692 687 688
f 692 688 689
f 692 689 690
f 692 690 691
f 692 691 693
f 693 686 692
f 667 687 694
f 694 687 686
f 667 679 681
f 696 703 680
f 696 680 699
f 667 681 687
f 687 681 683
f 704 705 693
f 695 714 702
f 702 714 701
f 693 694 686
f 701 694 693
f 701 693 715
f 715 693 705
f 701 714 708
f 684 685 703
f 704 693 691
f 704 691 703
f 703 691 690
f 703 690 684
f 684 690 689
f 684 689 683
f 683 689 688
f 683 688 687
f 680 703 685
f 680 679 667
f 717 714 712
f 712 702 717
f 715 716 692
f 706 717 702
f 713 715 692
f 713 692 700
f 700 692 693
f 717 700 693
f 716 673 672
f 716 672 676
f 716 676 692
f 692 676 671
f 673 716 710
f 673 710 711
f 685 673 678
f 685 678 679
f 679 678 667
f 682 670 675
f 682 675 674
f 682 674 685
f 693 692 668
f 685 674 673
f 670 667 668
f 679 667 670
f 679 670 682
f 692 671 668
f 668 671 670
f 668 694 693
f 673 719 678
f 678 719 677
f 673 711 719
f 677 719 678
f 678 719 711
f 701 708 714
f 698 678 709
f 678 699 709
f 709 699 698
f 699 678 711
f 699 711 696
f 696 711 710
f 710 703 696
f 703 710 704
f 704 710 705
f 705 710 718
f 710 705 718
f 705 710 707
f 707 710 716
f 716 705 707
f 705 716 715
f 701 715 697
f 697 715 713
f 713 701 697
f 701 713 700
f 717 701 700
f 701 717 706
f 701 706 702
f 695 702 712
f 712 714 695
f 699 678 698
f 680 667 699
f 699 667 678
f 701 714 717
f 701 717 694
f 694 717 693

