# https://github.com/mikedh/trimesh
v 0.06180000 0.01030570 0.08450000
v 0.06180000 0.01030570 0.08650000
v 0.06238564 0.01089134 0.08450000
v 0.06271505 0.01181506 0.08650000
v 0.06260000 0.01169134 0.08450000
v 0.06186188 0.01318416 0.08550000
v 0.06100000 0.01329134 0.08450000
v 0.05995569 0.01293760 0.08516667
v 0.05939855 0.01197261 0.08583333
v 0.05975374 0.01064703 0.08538889
v 0.06071873 0.01008989 0.08575000
v 0.06180000 -0.01030570 0.08650000
v 0.06100000 -0.01009134 0.08650000
v 0.06020000 -0.01030570 0.08650000
v 0.06067492 -0.00990603 0.08450000
v 0.05939855 -0.01141007 0.08583333
v 0.05975374 -0.01273566 0.08516667
v 0.06071873 -0.01329279 0.08577272
v 0.06204431 -0.01293760 0.08504545
v 0.06271505 -0.01156763 0.08650000
v 0.06260000 -0.01169134 0.08450000
v 0.06238564 -0.01089134 0.08450000
v 0.03315634 -0.01781778 0.04550000
v 0.03300000 0.01650000 0.04550000
v 0.03403548 0.01856819 0.04550000
v 0.03861377 0.00662626 0.04549690
v 0.04220225 0.01475000 0.04550000
v 0.04577928 0.02026907 0.04550227
v 0.04739367 0.02253971 0.04549979
v 0.05197863 0.02659017 0.04549967
v 0.06123613 0.02967971 0.04549962
v 0.06702379 0.03092531 0.04549970
v 0.07671742 0.02905763 0.04549963
v 0.08230456 0.02731331 0.04549972
v 0.08990338 0.02086691 0.04549965
v 0.09386604 0.01663145 0.04549975
v 0.09785291 0.00594396 0.04549939
v 0.09786923 -0.00201527 0.04549954
v 0.09704752 -0.00918760 0.04549947
v 0.09311105 -0.01640411 0.04549950
v 0.09204681 -0.01895946 0.04549968
v 0.08465458 -0.02559693 0.04549958
v 0.07951220 -0.02849602 0.04549971
v 0.07444547 -0.03009421 0.04549972
v 0.06466475 -0.03055005 0.04549961
v 0.05865413 -0.02946114 0.04549975
v 0.04939789 -0.02447698 0.04549016
v 0.04620374 -0.02216201 0.04549988
v 0.04314696 -0.01919093 0.04550000
v 0.03964392 -0.00974241 0.04549980
v 0.03795628 -0.01890820 0.04550000
v 0.03305771 -0.01734603 0.05300000
v 0.03300022 -0.01531820 0.05025110
v 0.03299991 0.01592815 0.04811967
v 0.03300006 0.01624322 0.04936230
v 0.03300000 0.01650000 0.05300000
v 0.03300005 0.01495282 0.05033844
v 0.03300006 -0.01624590 0.04930124
v 0.03300000 -0.01608253 0.04837500
v 0.03300000 -0.01437500 0.05008253
v 0.03300000 -0.01391747 0.04962500
v 0.03300000 -0.01562500 0.04791747
v 0.03300005 -0.01463984 0.04776972
v 0.03300000 -0.01391747 0.04837500
v 0.03300000 0.01391747 0.04962500
v 0.03300000 -0.01375000 0.04900000
v 0.03300000 0.01375000 0.04900000
v 0.03300006 0.01403104 0.04816491
v 0.03300000 0.01500000 0.04775000
v 0.04378491 0.01967465 0.05299996
v 0.03940071 -0.01281468 0.05300000
v 0.04333165 -0.01919683 0.05299997
v 0.04208845 0.01875913 0.05300000
v 0.03463911 -0.01888327 0.05300000
v 0.03645406 0.00000000 0.05299999
v 0.03383119 0.01857637 0.05300000
v 0.04515169 0.01896223 0.08450000
v 0.04220225 0.01475000 0.08450000
v 0.04274136 0.01564227 0.05014117
v 0.04313010 0.01624971 0.04916512
v 0.04305978 0.01614463 0.04845314
v 0.04235032 0.01503669 0.04768414
v 0.04165207 0.01375433 0.04886543
v 0.04177741 0.01399008 0.04825866
v 0.04176142 0.01395878 0.04978352
v 0.04002907 0.01008959 0.08450000
v 0.04220225 0.01475000 0.05022474
v 0.04289905 -0.01589015 0.04796699
v 0.04292853 -0.01594522 0.04995398
v 0.04515169 -0.01896223 0.08450000
v 0.04312912 -0.01625000 0.04900000
v 0.04220225 -0.01475000 0.08450000
v 0.04209917 -0.01457063 0.05023121
v 0.04002907 -0.01008959 0.08450000
v 0.04163224 -0.01370824 0.04922809
v 0.04178606 -0.01400183 0.04823050
v 0.04207839 -0.01453449 0.04782910
v 0.05115052 -0.02450895 0.08450000
v 0.05766040 -0.02772093 0.08450000
v 0.06840669 -0.02977684 0.08450000
v 0.07783959 -0.02772093 0.08450000
v 0.08510351 -0.02398098 0.08450000
v 0.09034831 -0.01896223 0.08450000
v 0.09595569 -0.00956719 0.08450000
v 0.09719489 0.00303813 0.08450000
v 0.09438006 0.01292563 0.08450000
v 0.08638713 0.02323250 0.08450000
v 0.07496584 0.02870824 0.08450000
v 0.06193260 0.02921044 0.08450000
v 0.05300000 0.02554775 0.08450000
v 0.04878777 0.02259831 0.08450000
v 0.03869817 0.00512262 0.08450000
v 0.03825000 0.00000000 0.08450000
v 0.03869817 -0.00512262 0.08450000
v 0.04144113 -0.01644453 0.08551839
v 0.03914144 -0.01137916 0.08607901
v 0.03741863 -0.00653715 0.08550012
v 0.03802738 0.00889994 0.08551700
v 0.03950192 0.01276894 0.08550000
v 0.04274430 0.01792764 0.08604741
v 0.05149648 0.02639740 0.08550000
v 0.05479395 0.02819192 0.08551700
v 0.05990961 0.03001967 0.08550100
v 0.07554565 0.03003132 0.08550100
v 0.07930855 0.02876456 0.08550000
v 0.09268157 0.01846805 0.08550100
v 0.09874966 -0.00129374 0.08550100
v 0.09830409 -0.00523903 0.08550000
v 0.09055613 -0.02076375 0.08601394
v 0.08725951 -0.02412533 0.08550100
v 0.07923664 -0.02868057 0.08587297
v 0.07301632 -0.03057643 0.08550100
v 0.06250649 -0.03058156 0.08550012
v 0.05263867 -0.02709797 0.08550100
v 0.04363089 -0.01947482 0.08550000
v 0.08235188 -0.00121901 0.08450000
v 0.08285663 0.00034475 0.08450000
v 0.07965000 0.00000000 0.08450000
v 0.07986436 -0.00080000 0.08450000
v 0.08074524 -0.00156376 0.08450000
v 0.07986436 0.00080000 0.08450000
v 0.08045000 0.00138564 0.08450000
v 0.08175476 0.00156376 0.08450000
v 0.04395504 -0.01841854 0.08649922
v 0.03726249 0.00000000 0.08635383
v 0.04696961 -0.02289155 0.08593082
v 0.08175476 -0.00156376 0.08650000
v 0.08045000 -0.00138564 0.08650000
v 0.07986436 -0.00080000 0.08650000
v 0.07964337 0.00034475 0.08650000
v 0.04703531 0.02300315 0.08585655
v 0.05191252 0.02557360 0.08650056
v 0.03711715 -0.00233246 0.08607390
v 0.04041314 -0.01235704 0.08650000
v 0.09385356 -0.01641325 0.08598475
v 0.09394042 -0.01463085 0.08650000
v 0.05710387 -0.02880266 0.08616550
v 0.06652906 -0.03044648 0.08631554
v 0.06993425 -0.03067475 0.08607969
v 0.09682864 -0.01013131 0.08609422
v 0.08396248 -0.02602491 0.08614174
v 0.06295353 0.03018847 0.08626290
v 0.06909662 0.03086591 0.08587297
v 0.08074524 0.00156376 0.08650000
v 0.04104345 0.01503299 0.08613335
v 0.03730404 0.00393850 0.08615998
v 0.08205000 0.00138564 0.08650000
v 0.07921101 0.02835766 0.08628463
v 0.08296505 0.00012371 0.08650000
v 0.09404835 0.01569425 0.08619177
v 0.08905768 0.02220016 0.08605023
v 0.08463195 0.02578033 0.08594863
v 0.09831230 -0.00045874 0.08635312
v 0.09760354 0.00795053 0.08598166
v 0.09563522 0.01271398 0.08613335
v 0.02950000 0.02670448 0.01677348
v 0.02950000 0.02675000 0.00600000
v 0.02950000 0.03075000 0.00600000
v 0.02950000 0.03075000 -0.01750000
v 0.02950000 -0.02375000 -0.01750000
v 0.02950000 -0.02250000 0.02150000
v 0.02950000 -0.02250000 0.05300000
v 0.02950000 -0.01577500 0.04765766
v 0.02950000 -0.01500000 0.04745000
v 0.02950000 -0.02276795 0.02050000
v 0.02950000 0.01440797 0.04734473
v 0.02950000 -0.02375000 0.01900000
v 0.02950000 0.01345000 0.04900000
v 0.02950000 -0.03025000 0.01900000
v 0.02950000 -0.02997048 0.01915227
v 0.02950000 0.01672952 0.04931492
v 0.02950000 0.02250000 0.05300000
v 0.02950000 0.01427306 0.05049878
v 0.02950000 0.02279222 0.01778714
v 0.02950000 -0.01665527 0.04959204
v 0.02950000 -0.02350000 0.01976795
v 0.02950000 -0.01393255 0.04781909
v 0.02950000 -0.01345000 0.04900000
v 0.02950000 -0.01406548 0.05037893
v 0.03300000 -0.02525000 0.01200000
v 0.03300000 0.02675000 0.01200000
v 0.03300000 0.02675000 0.01450000
v 0.03300016 0.01889380 0.01460109
v 0.03300042 0.01747050 0.01728586
v 0.03216667 0.01662535 0.01708920
v 0.03300000 -0.02657540 0.01314420
v 0.03300000 -0.02735723 0.01070332
v 0.03300000 -0.02725000 0.01000000
v 0.03300000 -0.01600000 0.01700000
v 0.03299978 -0.01847389 0.01486861
v 0.03300000 -0.01763560 0.01764003
v 0.03300000 -0.01800000 0.01900000
v 0.03775000 0.01800000 0.01600000
v 0.03355882 0.01716176 0.03899183
v 0.03187500 0.01800000 0.03205000
v 0.03150000 -0.01600000 0.01700000
v 0.03150000 -0.01766944 0.03356858
v 0.03150000 0.01600000 0.03405000
v 0.03150000 -0.01770778 0.01778714
v 0.03150000 0.01752376 0.03342735
v 0.03206250 0.01792422 0.01830312
v 0.03300000 -0.01785406 0.03312403
v 0.03300000 -0.01345000 0.04900000
v 0.03300000 0.01600000 0.03405000
v 0.03300000 0.01737735 0.03357376
v 0.03300000 -0.01406548 0.04762107
v 0.03299992 -0.01867850 0.03992287
v 0.03300000 0.01511985 0.04733855
v 0.03300007 0.01896206 0.04051397
v 0.03300000 -0.01665527 0.04840797
v 0.03300000 -0.01900000 0.05300000
v 0.03300000 -0.01511985 0.05066145
v 0.03300000 0.01637893 0.04993452
v 0.03300000 0.01900000 0.05300000
v 0.03300000 0.01634234 0.04822500
v 0.03300000 0.01500000 0.05055000
v 0.03300000 0.01422500 0.05034234
v 0.03300000 0.01365766 0.04822500
v 0.03300000 0.01345000 0.04900000
v 0.03300000 -0.01365766 0.04977500
v 0.03262500 -0.01668301 0.03394434
v 0.03300000 0.01852263 0.03981684
v 0.03300000 0.01365766 0.04977500
v 0.00475928 -0.02800000 -0.00931566
v 0.00368736 -0.03025000 -0.01103416
v 0.00410862 -0.03025000 -0.01321634
v 0.00380078 -0.02725000 -0.01312176
v 0.00818042 -0.02725000 -0.01464056
v 0.00907373 -0.03025000 -0.01379180
v 0.00980000 -0.03025000 -0.01169134
v 0.00939138 -0.03025000 -0.01016634
v 0.00740718 -0.03025000 -0.00862870
v 0.00532658 -0.02725000 -0.01265601
v 0.00771466 -0.02725000 -0.01311476
v 0.00918391 -0.02725000 -0.01152251
v 0.00740714 -0.02725000 -0.00915759
v 0.00675000 -0.02725000 -0.01009134
v 0.00553099 -0.02725000 -0.01058946
v 0.00642492 -0.02050000 -0.00990603
v 0.00514337 -0.02050000 -0.01203610
v 0.00662628 -0.02050000 -0.01340639
v 0.00833623 -0.02050000 -0.01450437
v 0.00813564 -0.02050000 -0.01089134
v 0.00698583 -0.03025000 0.00842204
v 0.00981264 -0.03025000 0.01103416
v 0.00912568 -0.02800000 0.01368207
v 0.00651417 -0.03025000 0.01496065
v 0.00531958 -0.02725000 0.01464056
v 0.00368736 -0.02725000 0.01103416
v 0.00348069 -0.03025000 0.01145551
v 0.00536436 -0.02725000 0.01249134
v 0.00518624 -0.02725000 0.01118659
v 0.00609286 -0.02725000 0.00915759
v 0.00675000 -0.02725000 0.01009134
v 0.00751835 -0.02725000 0.00949214
v 0.00915048 -0.02725000 0.01013183
v 0.00707508 -0.02725000 0.01347666
v 0.00662628 -0.02050000 0.00997630
v 0.00813564 -0.02050000 0.01089134
v 0.00829713 -0.02050000 0.01244173
v 0.00640525 -0.02050000 0.01329798
v 0.00503495 -0.02050000 0.01181506
v 0.01487029 -0.02050000 0.00365319
v 0.01389200 -0.02600000 0.00598684
v 0.01487029 -0.02600000 -0.00365319
v 0.01389200 -0.02050000 -0.00598684
v 0.00159470 -0.02600000 0.00949647
v 0.00132293 -0.02600000 0.01344468
v 0.00134129 -0.02050000 0.01042002
v 0.00235093 -0.02050000 0.00891105
v 0.00654173 -0.02600000 0.00649149
v 0.00835336 -0.02600000 0.00637160
v 0.00925208 -0.02050000 0.00689352
v -0.00427139 -0.02050000 -0.01470465
v -0.00750000 -0.02600000 -0.01299038
v -0.01213076 -0.02050000 -0.00903740
v -0.01255885 -0.02600000 -0.00863713
v 0.00807635 -0.02600000 -0.00629592
v 0.01098197 -0.02600000 -0.00786803
v 0.00835336 -0.02050000 -0.00637160
v 0.00477514 -0.02600000 -0.00757037
v 0.00285032 -0.02600000 -0.00853672
v 0.00130111 -0.02600000 -0.01120216
v 0.00161729 -0.02600000 -0.00971516
v 0.00134392 -0.02050000 -0.01145930
v -0.01207658 -0.02725000 0.00096466
v -0.01270000 -0.02050000 0.00138564
v -0.01446466 -0.02725000 0.00142342
v -0.01384475 -0.02050000 0.00160663
v -0.01488564 -0.02050000 0.00080000
v -0.01492342 -0.02725000 -0.00096466
v -0.01510663 -0.02050000 -0.00034475
v -0.01299525 -0.02725000 -0.00156376
v -0.01317492 -0.02050000 -0.00178532
v -0.01211436 -0.02725000 -0.00080000
v 0.02800000 -0.02525000 0.01750000
v 0.00000000 -0.02525000 0.01750000
v 0.02800000 -0.03025000 0.01750000
v 0.03875000 0.02016667 0.05300000
v 0.03875000 -0.02133333 0.05300000
v 0.03875000 -0.02684959 0.01409959
v 0.03875000 -0.01950000 0.01450000
v 0.03150000 0.02275000 -0.00600000
v 0.03150000 0.02846286 -0.01070778
v 0.03150000 -0.02652447 -0.01073968
v 0.03150000 -0.02126150 0.00561394
v 0.03150000 -0.02646286 0.01170778
v 0.03150000 0.02675000 0.00600000
v 0.03150000 0.02675000 0.01200000
v 0.03150000 0.02275000 0.00600000
v 0.03150000 0.02925000 -0.00900000
v 0.03150000 0.02769957 -0.00612876
v 0.03150000 0.02907687 -0.00753855
v 0.03150000 -0.02689282 0.00646699
v 0.03150000 -0.02725000 0.00750000
v 0.03150000 -0.02725000 0.01000000
v 0.03150066 -0.02684528 -0.00640566
v 0.03150000 -0.02400000 -0.00600000
v 0.03150000 -0.02732706 -0.00825000
v 0.03150000 -0.02121699 -0.00564282
v 0.03150000 -0.02075000 -0.00450000
v 0.03150000 -0.02075000 0.00450000
v 0.03146418 0.02275003 -0.00324177
v 0.03870162 0.01891010 0.04019675
v 0.03782475 -0.01807475 0.03946097
v 0.03862549 -0.01887549 0.04031586
v 0.03874792 -0.01899376 0.04072155
v 0.03712501 0.02262503 -0.00589618
v 0.03398782 0.03089287 -0.00514277
v 0.03875000 0.03075000 -0.00600000
v 0.03736204 -0.02734100 -0.00855403
v 0.03828083 -0.03025000 -0.00694354
v 0.03861602 -0.02703851 -0.00673205
v 0.03400000 -0.02725000 -0.00900000
v 0.03401219 -0.02725000 -0.01498250
v 0.03875000 -0.02279222 0.02028714
v 0.03875000 -0.03025000 -0.00623205
v 0.03874997 -0.02619150 -0.00623543
v 0.03875000 -0.02709151 0.00657248
v 0.03875000 -0.02225000 0.00600000
v 0.03875000 -0.02575000 0.00600000
v 0.03875000 -0.03025000 0.01950000
v 0.03875000 -0.02043987 0.00491123
v 0.03875000 -0.02095096 -0.00525000
v 0.03875000 -0.02150000 -0.00579904
v 0.03875000 -0.02450000 0.01950000
v 0.03875000 -0.01900000 0.01458579
v 0.03875000 0.01900000 0.01458579
v 0.03875000 0.02285550 0.01749770
v 0.03875000 0.02664645 0.01513786
v 0.00673282 -0.02600000 -0.00631425
v -0.01250172 -0.02600000 0.00578768
v -0.01021426 -0.02600000 0.01175835
v -0.00884838 -0.02600000 -0.00281797
v 0.00210189 -0.02600000 -0.00898791
v 0.00015174 -0.02600000 0.01493321
v -0.01201543 -0.02600000 -0.00549357
v 0.01277079 -0.02600000 -0.00753451
v 0.01196038 -0.02600000 -0.00790016
v -0.00881618 -0.02600000 0.00290343
v -0.01291047 -0.02600000 0.00729258
v -0.01282193 -0.02600000 -0.00640792
v 0.00119423 -0.02600000 -0.01388513
v -0.00071992 -0.02600000 -0.01515508
v 0.01185800 -0.02600000 0.00803489
v -0.00887701 -0.02050000 -0.00247875
v -0.01095976 -0.02050000 -0.00067093
v -0.01255885 -0.02050000 0.00863713
v 0.00035956 -0.02050000 0.01484120
v 0.00048307 -0.02050000 -0.01469059
v -0.01294682 -0.02050000 -0.00675569
v -0.01235871 -0.02050000 -0.00564904
v 0.01248089 -0.02050000 0.00776365
v -0.00883470 -0.02050000 0.00267367
v -0.01760700 -0.02050000 0.00258903
v 0.00673282 -0.02050000 0.00631425
v 0.00128714 -0.02050000 0.01352748
v 0.00654173 -0.02050000 -0.00649149
v -0.00922222 -0.02050000 -0.00345697
v -0.01035191 -0.02050000 -0.00447429
v -0.00957276 -0.02050000 0.00395128
v 0.00848240 -0.02050000 -0.01542740
v 0.00716763 -0.02049902 0.01636010
v 0.01490809 -0.02050000 0.00936507
v -0.00083774 -0.02049892 0.01676627
v -0.01182355 -0.02050000 0.01330087
v -0.01271166 -0.02050000 0.00605523
v 0.00210189 -0.02050000 -0.00898791
v 0.01185800 -0.02050000 -0.00803489
v 0.00061454 -0.02050088 -0.01757619
v -0.00501906 -0.02050000 -0.01676482
v -0.01080597 -0.02050000 -0.01389916
v -0.01589451 -0.02050000 -0.00757103
v 0.01778852 -0.02050000 -0.00052747
v 0.01563857 -0.02050000 -0.00785399
v 0.00400314 -0.02525177 -0.01732901
v 0.01541731 -0.02525000 -0.00941415
v 0.01675789 -0.02525000 0.00674484
v 0.01045028 -0.02525000 0.01403716
v 0.00524261 -0.02525000 0.01675577
v -0.00095025 -0.03025000 0.01748024
v -0.00730934 -0.03025000 0.01601653
v -0.01200923 -0.03025000 0.01272904
v -0.01589451 -0.03025000 0.00757103
v -0.01706127 -0.03025000 0.00121098
v -0.01704246 -0.03025000 -0.00441705
v -0.01029466 -0.03025000 -0.01484384
v -0.00101753 -0.03025000 -0.01747039
v 0.00680015 -0.03025000 -0.01562190
v 0.03142739 0.03064677 -0.00329657
v 0.03170882 0.03069666 -0.00385030
v 0.03257925 0.02275000 -0.00409870
v 0.03239624 0.03062453 -0.00413346
v 0.03347657 0.03058812 -0.00357563
v 0.03359870 0.02275000 -0.00292075
v 0.03336671 0.03067898 -0.00222356
v 0.03242074 0.02275000 -0.00190130
v 0.03258379 0.03065844 -0.00184397
v 0.03169093 0.03061536 -0.00224968
v 0.03161233 0.02275000 -0.00248750
v 0.03464534 0.03066498 0.00270335
v 0.03519208 0.03058812 0.00398680
v 0.03475887 0.02275000 0.00348071
v 0.03673680 0.03058812 0.00355792
v 0.03623071 0.02275000 0.00399113
v 0.03630792 0.03058812 0.00201320
v 0.03674113 0.02275000 0.00251929
v 0.03509942 0.03065844 0.00204074
v 0.03526929 0.02275000 0.00200887
v 0.03856250 0.02281250 0.00600000
v 0.03377500 0.03075000 -0.00300000
v 0.03122500 0.03075000 -0.00300000
v 0.03464582 0.03075000 0.00363750
v 0.03615111 0.03074647 0.00424268
v 0.03699268 0.03074647 0.00259889
v 0.03447500 0.03075000 0.00300000
v 0.03875000 0.03075000 0.00600000
v 0.03872982 -0.02681943 -0.00644397
v 0.03375298 -0.03025000 -0.01745210
v -0.01415718 -0.03025000 -0.00306264
v -0.01139954 -0.03025000 0.00232373
v -0.01045000 -0.03025000 -0.00000000
v -0.01117627 -0.03025000 -0.00210046
v -0.01614138 -0.03025000 -0.00152500
v -0.01614138 -0.03025000 0.00152500
v -0.01446218 -0.03025000 0.00298092
v 0.02800000 -0.02525000 -0.01750000
v 0.02875000 -0.02504904 -0.01750000
v 0.03400000 0.03075000 -0.01750000
v 0.02929904 -0.02450000 -0.01750000
v 0.03400000 -0.02698205 -0.01000000
v 0.03400000 -0.02601916 -0.01086150
v 0.03400000 0.02891506 -0.00725000
v 0.03400000 0.02800000 -0.00633494
v 0.03400000 0.02911150 -0.00976916
v 0.03400000 0.02925000 -0.00850000
v 0.03400000 0.02800965 -0.01089699
v 0.03775000 -0.01800000 0.01600000
v 0.03850000 -0.01875000 0.01470096
v 0.03786939 -0.01811991 0.01536718
v 0.03787549 0.01812551 0.01534497
v 0.03850000 0.01875000 0.01470096
v 0.02875000 -0.02504904 0.01825000
v 0.02944889 -0.02413823 0.01894889
v 0.02929904 -0.02450000 0.01879904
v -0.01253782 -0.02725000 0.00298092
v -0.01502500 -0.02725000 0.00264138
v -0.01648092 -0.02725000 0.00096218
v -0.01582373 -0.02725000 -0.00210046
v -0.01350000 -0.02725000 -0.00305000
v -0.01139954 -0.02725000 -0.00232373
v -0.01043736 -0.02725000 0.00065718
v 0.03369819 0.03075000 -0.01525000
v 0.03868301 0.03075000 -0.00661603
v 0.02950000 0.03075000 -0.01450000
v -0.00212575 0.03075000 0.00827595
v -0.00179471 0.03075000 0.01440078
v 0.03675000 0.03075000 0.00610000
v 0.03475956 0.03075000 0.00389528
v 0.03675000 0.03075000 0.01450000
v 0.03603011 0.03075000 0.00430539
v 0.03875000 0.03075000 0.00610000
v 0.03380539 0.03075000 -0.00328012
v 0.03347177 0.03075000 -0.01546280
v 0.03445000 0.03075000 0.00300000
v 0.00227399 0.03075000 0.00819017
v 0.00046018 0.03075000 0.00848753
v 0.03702056 0.03075000 0.00341011
v 0.03674044 0.03075000 0.00210472
v 0.03575000 0.03075000 0.00170000
v 0.03342538 0.03125000 -0.00392538
v 0.03874141 0.03075000 -0.00646373
v -0.01327871 0.03075000 0.00582458
v -0.00768379 0.03075000 0.00373757
v -0.01430956 0.03075000 0.00260483
v -0.00845017 0.03075000 0.00091901
v -0.01445048 0.03075000 -0.00119740
v -0.00835686 0.03075026 -0.00175356
v -0.00470814 0.03075000 0.01371435
v -0.00777516 0.03075000 0.01229209
v -0.00477009 0.03075000 0.00703536
v -0.00617096 0.03075000 0.00584545
v -0.01066800 0.03075000 0.00982058
v -0.01213891 0.03075000 0.00793075
v 0.03339528 0.03075000 -0.00200956
v 0.03485472 0.03075000 0.00200956
v 0.00465700 0.03075000 -0.00716397
v 0.00000000 0.03075000 -0.01450000
v 0.03208989 0.03075000 -0.00172944
v 0.03137417 0.03075000 -0.00235000
v 0.00493143 0.03075000 0.00697790
v 0.03122944 0.03075000 -0.00341011
v 0.00723465 0.03075000 -0.00454642
v 0.00740559 0.03075000 0.00426232
v 0.00851083 0.03075000 0.00075885
v 0.00830127 0.03075000 -0.00182725
v 0.03221989 0.03075000 -0.00430539
v -0.01405630 0.03075000 -0.00355954
v -0.01289218 0.03075000 -0.00673353
v -0.00728329 0.03075000 -0.00438221
v -0.01066800 0.03075000 -0.00982058
v -0.00565697 0.03075000 -0.00640381
v 0.00121850 0.03075000 -0.00845727
v -0.00137515 0.03075000 -0.00838803
v -0.00377761 0.03075000 -0.01404558
v -0.00314617 0.03075000 -0.00789630
v -0.00690124 0.03075000 -0.01275237
v -0.00890608 0.03075000 -0.01144254
v -0.01530917 0.02675000 -0.00242473
v -0.01430956 0.02675000 -0.00260483
v -0.01427555 0.02675000 -0.00614812
v -0.01327871 0.02675000 -0.00582458
v -0.01122682 0.02675000 -0.01005942
v -0.00966972 0.02675000 -0.01152860
v -0.00794530 0.02675000 -0.01275122
v -0.00608959 0.02675000 -0.01371584
v -0.00413624 0.02675000 -0.01441530
v -0.00211647 0.02675000 -0.01484505
v 0.00000000 0.02675000 -0.01450000
v 0.00000000 0.02675000 -0.01550000
v 0.02950000 0.02675000 -0.01450000
v 0.02950000 0.02675000 -0.01550000
v 0.03675000 0.02675000 0.00610000
v 0.03875000 0.02675000 0.00610000
v 0.03675000 0.02675000 0.01450000
v 0.03875000 0.02675000 0.01550000
v 0.00000000 0.02675000 0.01450000
v -0.00194563 0.02675000 0.01539785
v -0.00238662 0.02675000 0.01430224
v -0.00404787 0.02675000 0.01448484
v -0.00603658 0.02675000 0.01380709
v -0.00793569 0.02675000 0.01285027
v -0.00970645 0.02675000 0.01161956
v -0.01130739 0.02675000 0.01012625
v -0.01269574 0.02675000 0.00838927
v -0.01382948 0.02675000 0.00643616
v -0.01445048 0.02675000 0.00119740
v -0.01551080 0.02675000 0.00100294
v -0.00177053 0.03175000 -0.01543026
v -0.00478976 0.03175000 -0.01474138
v -0.00703685 0.03175000 -0.01381060
v -0.01025860 0.03175000 -0.01167698
v -0.01336489 0.03175000 -0.00793538
v -0.01516294 0.03175000 -0.00341702
v -0.01550000 0.03175000 -0.00000000
v -0.01506157 0.03175000 0.00383924
v -0.01381060 0.03175000 0.00703685
v -0.01167698 0.03175000 0.01025860
v -0.00911067 0.03175000 0.01253976
v -0.00703685 0.03175000 0.01381060
v -0.00478976 0.03175000 0.01474138
v -0.00242473 0.03175000 0.01530917
v 0.00000000 0.03175000 0.01550000
v 0.02970631 0.03141667 -0.01562833
v 0.03875000 0.03175000 0.01550000
v 0.03874372 0.03175000 -0.00646120
v 0.03498371 0.03175000 -0.01371448
v 0.00650000 0.03175000 -0.00000000
v 0.03444461 0.03175000 0.00271989
v 0.03291011 0.03175000 -0.00172944
v 0.03533989 0.03175000 0.00172944
v 0.03137417 0.03175000 -0.00365000
v 0.03185000 0.03175000 -0.00412583
v 0.03250000 0.03175000 -0.00430000
v 0.03705539 0.03175000 0.00328011
v 0.03664528 0.03175000 0.00200955
v 0.03616011 0.03175000 0.00427056
v 0.03510000 0.03175000 0.00412583
v 0.03462417 0.03175000 0.00365000
v 0.03380000 0.03175000 -0.00300000
v 0.03315000 0.03175000 -0.00412583
v 0.03351517 0.03175000 -0.01543301
v 0.03362583 0.03175000 -0.00235000
v 0.00121798 0.03175000 -0.00638487
v 0.00354214 0.03175002 -0.00550885
v 0.03120000 0.03175000 -0.00300000
v 0.00574881 0.03175003 -0.00313816
v 0.03185000 0.03175000 -0.00187417
v 0.03137417 0.03175000 -0.00235000
v 0.00644875 0.03175000 -0.00081467
v 0.00631661 0.03174964 0.00170822
v -0.00271837 0.03175001 0.00595768
v 0.00479434 0.03175002 0.00446206
v 0.00206995 0.03175002 0.00621349
v -0.00569599 0.03175000 0.00313140
v -0.00473830 0.03175000 0.00444956
v -0.00651150 0.03175002 0.00081252
v -0.00271837 0.03175001 -0.00595768
v -0.00524072 0.03175000 -0.00392560
v -0.00040814 0.03175000 -0.00648717
v -0.00040814 0.03175000 0.00648717
v -0.00629579 0.03175000 -0.00161648
v -0.00630681 0.02825003 -0.00158164
v -0.00573419 0.02825016 -0.00306944
v -0.00486532 0.02825000 -0.00431030
v -0.00473830 0.02825000 -0.00444956
v -0.00369242 0.02825000 -0.00534940
v -0.00348287 0.02825000 -0.00548813
v -0.00230493 0.02825000 -0.00607761
v -0.00200861 0.02825000 -0.00618187
v -0.00062429 0.02825164 -0.00647985
v 0.00097152 0.02825226 -0.00643794
v 0.00230493 0.02825000 -0.00607761
v 0.00276757 0.02825000 -0.00588138
v 0.00369242 0.02825000 -0.00534940
v 0.00414326 0.02825000 -0.00500834
v 0.00486532 0.02825000 -0.00431030
v 0.00525861 0.02825000 -0.00382060
v 0.00575546 0.02825000 -0.00302070
v 0.00604355 0.02825000 -0.00239281
v 0.00640440 0.02825365 -0.00120657
v 0.00650000 0.02825000 -0.00000000
v 0.00644875 0.02825000 0.00081467
v 0.00631112 0.02825000 0.00155555
v 0.00604355 0.02825000 0.00239281
v 0.00575546 0.02825000 0.00302070
v 0.00525861 0.02825000 0.00382060
v 0.00486532 0.02825000 0.00431030
v 0.00414326 0.02825000 0.00500834
v 0.00369242 0.02825000 0.00534940
v 0.00276757 0.02825000 0.00588138
v 0.00230493 0.02825000 0.00607761
v 0.00121798 0.02825000 0.00638487
v 0.00020208 0.02824984 0.00650253
v -0.00078349 0.02825000 0.00645261
v -0.00200861 0.02825000 0.00618187
v -0.00230493 0.02825000 0.00607761
v -0.00348287 0.02825000 0.00548813
v -0.00422709 0.02824972 0.00493723
v -0.00530130 0.02824968 0.00375621
v -0.00605453 0.02824962 0.00234974
v -0.00631112 0.02825000 0.00155555
v -0.00650000 0.02825000 -0.00000000
v 0.00464098 0.02774937 -0.00656692
v 0.00346627 0.02775109 -0.00612949
v 0.00611533 0.02757017 -0.00423987
v 0.00676769 0.02756652 -0.00307578
v 0.00722297 0.02756660 -0.00181735
v 0.00748674 0.02758362 0.00016388
v 0.00720888 0.02756872 0.00183883
v 0.00679297 0.02757011 0.00306371
v 0.00617593 0.02757552 0.00423405
v 0.00533357 0.02758429 0.00532964
v -0.00034090 0.02758611 -0.00756098
v -0.00176060 0.02757712 -0.00730811
v -0.00304423 0.02757084 -0.00682627
v -0.00418623 0.02756814 -0.00616188
v -0.00519563 0.02756946 -0.00533721
v -0.00607480 0.02757468 -0.00435017
v -0.00680318 0.02758319 -0.00318831
v -0.00741238 0.02761729 -0.00187246
v -0.00800000 0.02775000 -0.00000000
v 0.00424613 0.02759545 0.00630098
v 0.00291695 0.02760793 0.00707602
v 0.00138234 0.02762080 0.00757613
v -0.00028916 0.02763336 0.00773332
v -0.00200501 0.02764515 0.00750333
v -0.00366040 0.02765593 0.00687247
v -0.00514974 0.02766558 0.00585900
v -0.00637663 0.02767411 0.00451053
v -0.00758123 0.02775000 0.00255441
v -0.00795310 0.02775000 0.00086495
v -0.00849777 0.02824617 0.00059175
v -0.00805505 0.02825000 0.00271406
v -0.00728329 0.02825000 0.00438221
v -0.00557557 0.02824418 0.00647730
v -0.00314617 0.02825000 0.00789630
v -0.00137515 0.02825000 0.00838803
v 0.00132720 0.02824418 0.00844280
v 0.00398147 0.02825000 0.00750985
v 0.00550278 0.02825000 0.00647838
v 0.00676679 0.02825000 0.00514398
v 0.00771439 0.02825000 0.00356906
v 0.00830127 0.02825000 0.00182725
v 0.00850000 0.02825000 -0.00000000
v 0.00811686 0.02824418 -0.00267561
v 0.00676679 0.02825000 -0.00514398
v 0.00550278 0.02825000 -0.00647838
v 0.00410211 0.02788331 -0.00728237
v 0.00227399 0.02825000 -0.00819017
v 0.00046018 0.02825000 -0.00848753
v -0.00223225 0.02824418 -0.00824982
v -0.00477009 0.02825000 -0.00703536
v -0.00617096 0.02825000 -0.00584545
v -0.00773282 0.02824418 -0.00363948
v -0.00845017 0.02825000 -0.00091901
f 1 2 3
f 3 2 4
f 3 4 5
f 5 4 6
f 7 6 8
f 1 11 2
f 15 12 13
f 15 13 14
f 15 14 16
f 19 20 21
f 21 20 22
f 22 20 15
f 15 20 12
f 24 25 26
f 26 25 27
f 27 25 28
f 24 26 23
f 23 26 50
f 47 48 50
f 50 48 49
f 50 49 51
f 50 51 23
f 24 54 55
f 24 55 56
f 56 55 57
f 53 58 52
f 52 58 23
f 23 58 59
f 53 52 60
f 60 52 56
f 60 56 61
f 59 62 23
f 23 62 63
f 23 63 24
f 24 63 64
f 56 57 61
f 61 57 65
f 61 65 66
f 66 65 67
f 66 67 64
f 67 68 64
f 64 68 24
f 24 68 69
f 24 69 54
f 52 74 71
f 71 74 72
f 71 75 52
f 52 75 56
f 56 75 73
f 76 56 73
f 78 79 77
f 28 80 81
f 28 81 82
f 28 82 27
f 83 26 84
f 27 82 26
f 26 82 84
f 86 85 78
f 78 85 87
f 78 87 79
f 88 47 50
f 88 50 97
f 47 88 91
f 90 89 92
f 89 93 92
f 92 93 94
f 95 96 50
f 50 96 97
f 91 89 47
f 47 89 90
f 47 90 98
f 47 98 46
f 46 98 45
f 45 98 99
f 45 99 100
f 45 100 44
f 44 100 43
f 43 100 42
f 42 100 101
f 42 101 102
f 42 102 41
f 41 102 40
f 40 102 103
f 40 103 104
f 40 104 39
f 39 104 38
f 38 104 105
f 38 105 37
f 37 105 36
f 36 105 106
f 36 106 35
f 35 106 107
f 35 107 34
f 34 107 33
f 33 107 108
f 33 108 32
f 32 108 31
f 31 108 109
f 31 109 30
f 30 109 29
f 29 109 110
f 29 110 111
f 29 111 28
f 28 111 77
f 28 77 80
f 80 77 79
f 83 85 26
f 26 85 86
f 26 86 112
f 26 112 113
f 26 113 50
f 50 113 114
f 50 114 94
f 50 94 95
f 95 94 93
f 29 28 70
f 71 72 115
f 71 115 116
f 71 116 117
f 71 117 75
f 75 117 153
f 153 145 75
f 75 145 166
f 75 166 118
f 75 118 73
f 73 118 119
f 119 165 73
f 73 165 120
f 73 120 70
f 70 120 151
f 70 151 29
f 29 151 30
f 151 121 30
f 30 121 122
f 30 122 123
f 30 123 31
f 31 123 162
f 31 162 32
f 162 163 32
f 32 163 124
f 32 124 33
f 33 124 125
f 33 125 34
f 125 168 34
f 34 168 172
f 34 172 171
f 34 171 35
f 35 171 126
f 35 126 36
f 36 126 170
f 170 175 36
f 36 175 174
f 36 174 37
f 174 173 37
f 37 173 127
f 37 127 38
f 38 127 128
f 38 128 39
f 128 160 39
f 39 160 155
f 39 155 40
f 40 155 129
f 40 129 41
f 41 129 130
f 41 130 42
f 42 130 161
f 161 131 42
f 42 131 43
f 43 131 132
f 43 132 44
f 44 132 159
f 44 159 45
f 159 158 45
f 45 158 133
f 45 133 157
f 45 157 46
f 46 157 134
f 46 134 47
f 47 134 146
f 47 146 48
f 48 146 72
f 72 146 135
f 72 135 115
f 7 109 6
f 109 108 6
f 6 108 107
f 6 107 5
f 104 136 137
f 104 137 105
f 5 107 106
f 109 7 8
f 109 8 110
f 138 139 22
f 22 139 21
f 21 139 140
f 113 15 114
f 114 15 16
f 17 92 16
f 16 92 94
f 16 94 114
f 17 98 90
f 17 90 92
f 110 8 111
f 111 8 77
f 105 137 106
f 113 11 138
f 138 11 1
f 138 1 141
f 141 1 3
f 141 3 142
f 142 3 5
f 142 5 143
f 143 5 106
f 143 106 137
f 22 15 138
f 138 15 113
f 18 99 17
f 17 99 98
f 19 100 18
f 18 100 99
f 77 8 78
f 78 8 9
f 78 9 86
f 86 9 112
f 112 9 10
f 112 10 113
f 113 10 11
f 19 101 100
f 104 21 140
f 104 140 136
f 104 103 21
f 21 103 102
f 21 102 19
f 19 102 101
f 17 16 144
f 145 16 14
f 17 144 146
f 17 146 18
f 18 146 157
f 12 147 148
f 12 148 13
f 13 148 149
f 13 149 14
f 14 149 150
f 14 150 145
f 151 120 9
f 151 9 152
f 152 9 8
f 145 153 16
f 16 153 116
f 16 116 154
f 16 154 144
f 145 11 10
f 155 156 20
f 18 157 158
f 18 158 19
f 19 158 20
f 20 158 159
f 156 160 20
f 20 160 147
f 20 147 12
f 159 131 20
f 20 131 161
f 20 161 129
f 20 129 155
f 152 8 162
f 162 8 6
f 162 6 163
f 120 165 9
f 9 165 166
f 9 166 10
f 10 166 145
f 11 145 150
f 11 150 2
f 2 150 164
f 164 167 2
f 2 167 173
f 2 173 4
f 163 6 168
f 168 6 4
f 167 169 173
f 173 169 160
f 160 169 147
f 4 170 171
f 4 171 172
f 4 172 168
f 4 173 174
f 4 174 175
f 4 175 170
f 79 57 55
f 79 55 80
f 80 55 81
f 81 55 54
f 81 54 82
f 82 54 69
f 68 84 82
f 68 82 69
f 65 85 67
f 67 85 83
f 67 83 68
f 68 83 84
f 57 85 65
f 57 79 87
f 57 87 85
f 53 93 89
f 60 61 95
f 95 93 60
f 60 93 53
f 64 95 66
f 66 95 61
f 63 96 64
f 64 96 95
f 59 88 62
f 62 88 63
f 63 88 97
f 63 97 96
f 58 88 59
f 53 89 58
f 58 89 91
f 58 91 88
f 72 74 51
f 73 25 76
f 51 74 23
f 23 74 52
f 76 25 24
f 76 24 56
f 138 150 139
f 139 150 149
f 139 149 140
f 140 149 148
f 140 148 147
f 140 147 136
f 136 147 169
f 136 169 137
f 137 169 143
f 143 169 167
f 143 167 164
f 143 164 142
f 142 164 141
f 141 164 150
f 141 150 138
f 170 126 171
f 168 125 124
f 168 124 163
f 162 123 122
f 162 122 152
f 152 122 121
f 121 151 152
f 165 119 118
f 165 118 166
f 153 117 116
f 154 116 144
f 116 115 144
f 115 135 144
f 144 135 146
f 157 146 134
f 157 133 158
f 159 132 131
f 129 161 130
f 156 155 160
f 173 160 128
f 173 128 127
f 48 72 49
f 49 72 51
f 25 73 28
f 28 73 70
f 178 179 177
f 177 179 180
f 195 181 182
f 195 183 181
f 181 183 184
f 181 184 185
f 186 180 187
f 186 187 188
f 189 190 187
f 180 186 191
f 176 177 194
f 194 177 180
f 192 191 193
f 192 193 182
f 191 192 180
f 180 192 194
f 193 199 182
f 182 199 195
f 190 196 187
f 187 196 185
f 187 185 188
f 188 185 184
f 188 184 197
f 188 197 198
f 188 198 193
f 193 198 199
f 210 200 201
f 201 202 203
f 210 201 203
f 204 205 203
f 200 210 206
f 203 205 210
f 210 205 209
f 210 209 211
f 221 204 213
f 215 221 214
f 214 221 213
f 205 216 209
f 217 216 218
f 218 216 205
f 219 216 217
f 215 220 218
f 215 218 221
f 221 218 205
f 224 225 214
f 214 225 215
f 227 230 231
f 231 230 232
f 234 233 229
f 229 233 235
f 229 235 228
f 230 227 226
f 233 234 236
f 236 234 231
f 236 231 237
f 228 238 223
f 223 238 239
f 223 239 240
f 227 222 241
f 227 241 226
f 226 241 224
f 226 224 223
f 223 224 214
f 223 214 228
f 228 214 242
f 228 242 229
f 231 232 237
f 237 232 240
f 237 240 243
f 243 240 239
f 244 245 247
f 247 245 246
f 247 246 429
f 247 429 248
f 248 429 249
f 248 249 255
f 255 249 250
f 255 250 251
f 255 251 256
f 256 251 252
f 256 252 244
f 258 244 253
f 253 244 247
f 253 247 254
f 254 247 248
f 254 248 255
f 257 256 258
f 258 256 244
f 259 258 260
f 260 258 253
f 260 253 261
f 261 253 254
f 261 254 262
f 262 254 255
f 262 255 263
f 263 255 259
f 259 255 256
f 259 256 257
f 259 257 258
f 273 264 275
f 275 264 276
f 276 264 265
f 276 265 266
f 266 267 268
f 268 267 270
f 268 270 269
f 269 270 273
f 273 270 264
f 277 266 268
f 277 268 271
f 271 268 272
f 272 268 269
f 272 269 273
f 274 273 275
f 277 276 266
f 278 273 274
f 278 274 275
f 278 275 279
f 279 275 280
f 280 275 276
f 280 276 277
f 280 277 281
f 281 277 282
f 282 277 271
f 282 271 272
f 282 272 278
f 278 272 273
f 284 283 285
f 285 283 286
f 289 287 288
f 384 294 295
f 295 294 297
f 297 294 296
f 300 298 299
f 301 398 302
f 305 303 304
f 387 306 307
f 307 306 309
f 309 306 308
f 309 308 310
f 310 308 312
f 312 308 311
f 312 311 314
f 314 311 313
f 314 313 315
f 314 315 387
f 387 315 306
f 316 317 318
f 318 317 421
f 234 319 192
f 234 192 231
f 231 192 182
f 231 182 320
f 230 195 232
f 232 195 199
f 232 199 240
f 240 199 223
f 223 199 198
f 223 198 226
f 226 198 197
f 226 197 184
f 226 184 230
f 230 184 183
f 230 183 195
f 239 188 243
f 243 188 193
f 243 193 237
f 237 193 236
f 236 193 233
f 233 193 191
f 233 191 235
f 235 191 228
f 228 191 186
f 228 186 238
f 238 186 239
f 239 186 188
f 194 192 369
f 369 192 319
f 210 321 206
f 206 321 207
f 322 321 210
f 323 325 324
f 323 324 332
f 328 329 330
f 330 329 327
f 330 327 326
f 333 332 324
f 333 324 331
f 335 334 326
f 335 326 336
f 336 326 327
f 338 337 339
f 339 325 338
f 338 325 340
f 340 325 323
f 340 323 341
f 330 326 342
f 330 342 343
f 343 342 341
f 343 341 323
f 344 229 242
f 344 242 214
f 345 227 346
f 346 227 347
f 348 349 350
f 323 332 348
f 352 351 353
f 354 339 351
f 354 351 355
f 356 320 181
f 181 320 182
f 357 358 359
f 358 360 361
f 358 361 359
f 321 362 359
f 359 362 357
f 363 360 358
f 363 358 364
f 364 358 365
f 362 321 366
f 366 321 356
f 356 321 322
f 356 322 367
f 356 367 347
f 356 347 320
f 227 231 347
f 347 231 320
f 344 319 229
f 229 319 234
f 368 370 369
f 368 369 344
f 344 369 319
f 371 287 291
f 371 291 298
f 298 291 292
f 375 304 374
f 374 304 303
f 374 303 377
f 377 303 384
f 377 384 295
f 285 378 379
f 374 380 375
f 375 380 302
f 302 380 301
f 301 380 287
f 301 287 371
f 380 372 287
f 287 372 373
f 287 373 288
f 288 373 376
f 298 292 285
f 298 285 299
f 299 285 379
f 372 381 373
f 303 383 384
f 385 284 292
f 292 284 285
f 295 297 377
f 377 297 382
f 374 386 380
f 380 386 387
f 373 388 405
f 373 405 376
f 376 405 389
f 290 282 278
f 391 314 392
f 282 290 289
f 387 386 314
f 395 309 310
f 278 293 396
f 278 396 290
f 282 289 397
f 282 397 389
f 260 390 305
f 314 413 312
f 312 413 395
f 312 395 310
f 402 410 261
f 394 387 401
f 401 387 307
f 300 259 398
f 314 386 399
f 314 399 400
f 314 400 392
f 401 307 309
f 401 309 407
f 393 293 279
f 279 293 278
f 402 261 262
f 281 403 280
f 404 280 403
f 281 282 403
f 403 282 389
f 403 389 405
f 406 405 388
f 406 388 395
f 395 388 309
f 309 388 407
f 260 305 259
f 259 305 408
f 259 408 398
f 260 261 390
f 390 261 410
f 390 410 294
f 294 410 411
f 294 411 412
f 294 412 296
f 296 412 413
f 296 413 391
f 391 413 314
f 259 300 263
f 263 300 409
f 279 280 393
f 393 280 404
f 393 404 283
f 283 404 414
f 283 414 286
f 286 414 415
f 286 415 409
f 409 415 262
f 409 262 263
f 416 410 402
f 416 402 417
f 417 402 262
f 417 262 415
f 417 415 414
f 417 414 418
f 418 414 404
f 418 404 403
f 418 403 419
f 419 403 420
f 420 403 317
f 317 403 405
f 317 405 421
f 421 405 422
f 422 405 406
f 422 406 423
f 423 406 424
f 424 406 395
f 424 395 425
f 425 395 426
f 426 395 413
f 426 413 427
f 427 413 412
f 427 412 411
f 427 411 410
f 427 410 428
f 428 410 416
f 428 416 429
f 343 430 439
f 430 343 431
f 431 343 433
f 433 343 432
f 433 432 434
f 434 432 435
f 434 435 436
f 436 435 438
f 438 435 437
f 438 437 439
f 439 437 440
f 439 440 343
f 443 441 442
f 443 442 445
f 445 442 444
f 445 444 447
f 447 444 446
f 447 446 449
f 449 446 448
f 449 448 443
f 443 448 441
f 434 436 451
f 433 349 431
f 430 452 439
f 442 454 444
f 444 455 446
f 441 456 442
f 442 456 453
f 348 350 450
f 450 350 457
f 458 358 357
f 357 352 458
f 458 352 353
f 357 362 265
f 318 267 266
f 266 265 318
f 318 265 362
f 318 362 189
f 189 362 190
f 357 265 264
f 270 461 264
f 264 461 462
f 249 459 250
f 352 357 251
f 251 357 252
f 267 318 421
f 459 249 429
f 428 429 246
f 428 246 427
f 427 246 245
f 264 462 357
f 357 462 252
f 267 421 270
f 270 421 422
f 426 427 460
f 460 427 463
f 463 427 245
f 463 245 462
f 462 245 244
f 462 244 252
f 250 459 352
f 250 352 251
f 460 464 426
f 426 464 425
f 425 465 424
f 424 465 466
f 424 466 423
f 423 466 422
f 422 466 461
f 422 461 270
f 420 317 316
f 467 416 417
f 418 316 417
f 417 316 467
f 418 419 316
f 316 419 420
f 429 416 459
f 459 416 467
f 459 467 468
f 179 469 180
f 180 469 459
f 180 459 470
f 470 459 468
f 369 370 176
f 328 177 329
f 329 177 176
f 201 329 202
f 202 329 176
f 202 176 370
f 202 370 203
f 328 330 450
f 178 177 457
f 457 177 328
f 457 328 450
f 343 440 330
f 330 440 437
f 450 447 348
f 343 323 432
f 450 445 447
f 348 432 323
f 445 450 443
f 443 450 330
f 348 435 432
f 443 330 437
f 443 437 449
f 449 437 435
f 449 435 348
f 449 348 447
f 439 452 178
f 178 452 179
f 349 469 431
f 431 469 179
f 431 179 430
f 430 179 452
f 349 433 350
f 436 456 451
f 451 456 441
f 451 441 448
f 448 446 350
f 457 454 178
f 454 442 178
f 178 442 453
f 178 453 456
f 456 436 438
f 456 438 178
f 178 438 439
f 451 448 350
f 451 350 434
f 434 350 433
f 446 455 350
f 350 455 457
f 457 455 444
f 457 444 454
f 351 339 337
f 358 458 337
f 337 458 353
f 337 353 351
f 338 358 337
f 341 363 364
f 341 364 340
f 340 364 365
f 340 365 358
f 340 358 338
f 363 341 342
f 326 360 363
f 326 363 342
f 360 326 361
f 361 326 359
f 359 326 334
f 359 334 335
f 207 321 208
f 208 321 359
f 208 359 336
f 336 359 335
f 355 459 469
f 354 355 471
f 471 355 472
f 473 349 474
f 474 349 348
f 475 469 349
f 475 349 476
f 476 349 473
f 475 477 469
f 469 477 355
f 355 477 472
f 475 476 331
f 331 476 333
f 333 476 473
f 333 473 332
f 332 473 474
f 332 474 348
f 351 352 355
f 355 352 459
f 222 227 345
f 478 211 212
f 219 217 212
f 212 217 222
f 212 222 478
f 478 222 345
f 367 322 210
f 367 210 479
f 479 210 480
f 211 478 210
f 210 478 480
f 213 204 481
f 481 204 203
f 481 203 482
f 482 203 368
f 368 203 370
f 347 367 346
f 479 480 478
f 479 478 367
f 367 478 345
f 367 345 346
f 344 214 368
f 368 214 213
f 368 213 482
f 482 213 481
f 324 325 477
f 477 325 472
f 366 190 362
f 316 318 483
f 483 318 189
f 187 484 189
f 189 484 485
f 189 485 483
f 401 372 380
f 399 374 377
f 399 377 400
f 306 486 308
f 308 486 487
f 308 487 488
f 308 488 311
f 311 488 489
f 311 489 313
f 313 489 490
f 313 490 491
f 313 491 315
f 315 491 306
f 306 491 492
f 306 492 486
f 492 462 461
f 492 461 486
f 486 461 466
f 486 466 487
f 487 466 488
f 488 466 465
f 488 465 425
f 488 425 489
f 489 425 464
f 489 464 460
f 489 460 490
f 490 460 491
f 491 460 463
f 491 463 492
f 492 463 462
f 300 299 409
f 409 299 379
f 409 379 378
f 409 378 286
f 286 378 285
f 398 301 371
f 398 371 298
f 398 298 300
f 294 384 390
f 390 384 383
f 390 383 305
f 305 383 303
f 302 398 408
f 302 408 375
f 375 408 305
f 375 305 304
f 400 377 392
f 392 377 391
f 391 377 382
f 391 382 297
f 391 297 296
f 388 373 381
f 388 381 407
f 407 381 372
f 407 372 401
f 380 387 394
f 380 394 401
f 386 374 399
f 289 288 397
f 397 288 389
f 389 288 376
f 290 291 287
f 290 287 289
f 291 290 396
f 291 396 293
f 291 293 292
f 283 284 393
f 393 284 385
f 393 385 293
f 293 385 292
f 224 241 218
f 218 241 217
f 327 329 200
f 200 329 201
f 324 477 475
f 324 475 331
f 472 325 471
f 471 325 354
f 354 325 339
f 205 204 221
f 220 215 225
f 220 225 218
f 218 225 224
f 241 222 217
f 219 212 211
f 219 211 216
f 216 211 209
f 208 336 207
f 207 336 327
f 207 327 206
f 206 327 200
f 190 366 196
f 196 366 356
f 196 356 185
f 185 356 181
f 369 176 194
f 187 180 484
f 484 180 470
f 484 470 485
f 485 470 468
f 485 468 483
f 483 468 467
f 483 467 316
f 493 494 495
f 499 498 500
f 499 500 497
f 499 501 498
f 498 501 502
f 495 594 493
f 493 594 504
f 505 499 506
f 506 499 497
f 506 497 507
f 507 497 496
f 501 508 502
f 502 508 512
f 508 509 512
f 512 509 510
f 503 511 512
f 512 511 495
f 512 495 494
f 514 513 515
f 514 515 516
f 516 515 518
f 518 515 517
f 497 519 496
f 496 519 520
f 496 520 521
f 521 520 522
f 522 520 523
f 522 523 514
f 514 523 524
f 514 524 513
f 503 512 525
f 525 512 510
f 525 510 526
f 525 526 529
f 529 526 505
f 529 505 506
f 529 506 530
f 530 506 531
f 530 531 534
f 534 535 530
f 530 535 532
f 532 535 536
f 532 536 533
f 533 527 532
f 532 527 528
f 532 528 537
f 537 528 495
f 537 495 511
f 517 538 518
f 518 538 539
f 518 539 540
f 540 539 542
f 542 539 541
f 527 543 528
f 528 543 545
f 545 543 544
f 545 544 546
f 545 546 547
f 547 546 542
f 547 542 548
f 548 542 541
f 550 549 551
f 550 551 552
f 552 551 553
f 559 558 560
f 559 560 561
f 561 560 562
f 563 564 565
f 565 564 566
f 565 566 567
f 567 566 568
f 567 568 569
f 569 568 570
f 577 576 578
f 577 578 550
f 550 578 549
f 565 567 500
f 500 567 497
f 579 560 558
f 579 558 557
f 579 557 580
f 580 557 556
f 580 556 581
f 581 556 555
f 581 555 582
f 582 555 554
f 582 554 553
f 582 553 583
f 583 553 551
f 583 551 584
f 584 551 549
f 584 549 578
f 584 578 585
f 585 578 586
f 586 578 576
f 586 576 575
f 586 575 587
f 587 575 574
f 587 574 588
f 588 574 573
f 588 573 572
f 588 572 589
f 589 572 571
f 589 571 590
f 590 571 570
f 590 570 591
f 591 570 568
f 591 568 592
f 592 568 593
f 562 560 594
f 594 560 579
f 568 566 593
f 593 566 595
f 594 495 562
f 562 495 561
f 497 567 569
f 497 569 519
f 519 569 570
f 519 570 520
f 520 570 571
f 520 571 572
f 520 572 523
f 523 572 573
f 523 573 524
f 524 573 574
f 524 574 513
f 513 574 575
f 513 575 515
f 515 575 576
f 515 576 577
f 515 577 517
f 517 577 550
f 517 550 538
f 538 550 539
f 539 550 552
f 539 552 553
f 539 553 541
f 541 553 554
f 541 554 548
f 548 554 555
f 548 555 547
f 547 555 556
f 547 556 545
f 545 556 557
f 545 557 558
f 545 558 528
f 528 558 559
f 495 528 561
f 561 528 559
f 512 596 502
f 502 596 595
f 502 595 564
f 564 595 566
f 493 597 494
f 601 600 598
f 601 598 599
f 579 602 594
f 594 602 603
f 594 603 604
f 605 595 596
f 605 596 606
f 605 607 595
f 595 607 593
f 593 607 608
f 593 608 609
f 610 596 511
f 511 596 597
f 511 597 611
f 611 597 604
f 604 597 612
f 604 612 594
f 600 601 613
f 613 601 606
f 613 606 610
f 610 606 596
f 614 615 616
f 616 615 617
f 600 618 598
f 598 618 619
f 598 619 620
f 620 619 616
f 620 616 617
f 599 598 609
f 609 598 621
f 621 623 609
f 609 623 593
f 593 623 624
f 625 588 626
f 626 588 622
f 622 588 589
f 622 589 590
f 627 586 625
f 625 586 587
f 625 587 588
f 628 581 582
f 628 582 629
f 616 602 614
f 614 602 579
f 614 579 630
f 630 579 628
f 628 579 580
f 628 580 581
f 593 624 631
f 593 631 592
f 592 631 622
f 592 622 591
f 591 622 590
f 629 582 583
f 629 583 632
f 583 584 632
f 632 584 627
f 627 584 585
f 627 585 586
f 503 610 511
f 511 611 537
f 537 611 604
f 537 604 603
f 537 603 532
f 532 603 602
f 532 602 616
f 532 616 530
f 530 616 619
f 530 619 529
f 529 619 618
f 529 618 600
f 529 600 525
f 525 600 613
f 525 613 503
f 503 613 610
f 508 605 509
f 509 605 606
f 509 606 510
f 510 606 601
f 510 601 526
f 526 601 599
f 526 599 505
f 505 599 499
f 499 599 609
f 499 609 608
f 499 608 501
f 501 608 607
f 501 607 508
f 508 607 605
f 597 493 504
f 597 504 612
f 612 504 594
f 596 512 494
f 596 494 597
f 563 498 564
f 564 498 502
f 498 563 500
f 500 563 565
f 633 632 627
f 632 633 634
f 632 634 629
f 629 634 635
f 635 636 629
f 629 636 637
f 629 637 628
f 637 638 628
f 628 638 639
f 639 640 628
f 628 640 641
f 628 641 630
f 630 641 642
f 630 642 614
f 614 642 643
f 614 643 615
f 643 644 615
f 615 644 645
f 645 646 615
f 615 646 647
f 615 647 617
f 647 648 617
f 617 648 649
f 649 650 617
f 617 650 651
f 617 651 620
f 620 651 598
f 598 651 652
f 598 652 621
f 652 653 621
f 621 653 654
f 654 655 621
f 621 655 656
f 621 656 623
f 656 657 623
f 623 657 658
f 658 659 623
f 623 659 660
f 623 660 624
f 660 661 624
f 624 661 662
f 662 663 624
f 624 663 664
f 624 664 631
f 631 664 665
f 631 665 622
f 665 666 622
f 622 666 667
f 667 668 622
f 622 668 669
f 622 669 626
f 626 669 670
f 626 670 625
f 625 670 671
f 625 671 627
f 627 671 672
f 627 672 673
f 627 673 633
f 675 674 676
f 674 675 719
f 719 675 684
f 700 701 691
f 691 701 702
f 691 702 692
f 516 703 704
f 516 704 514
f 514 704 705
f 514 705 706
f 514 706 522
f 522 706 521
f 521 706 707
f 521 707 496
f 496 707 708
f 496 708 709
f 496 709 507
f 507 709 506
f 506 709 710
f 506 710 531
f 531 710 711
f 531 711 712
f 531 712 534
f 534 712 713
f 534 713 714
f 534 714 535
f 535 714 715
f 535 715 716
f 535 716 536
f 536 716 533
f 533 716 717
f 533 717 718
f 533 718 527
f 527 718 719
f 527 719 720
f 527 720 543
f 543 720 721
f 543 721 722
f 543 722 544
f 544 722 546
f 546 722 723
f 546 723 542
f 542 723 724
f 542 724 725
f 542 725 540
f 540 725 518
f 518 725 726
f 518 726 703
f 518 703 516
f 699 700 671
f 699 671 670
f 699 670 698
f 698 670 669
f 698 669 697
f 697 669 668
f 697 668 696
f 668 667 696
f 696 667 666
f 696 666 695
f 666 665 695
f 695 665 664
f 695 664 694
f 694 664 663
f 694 663 693
f 663 662 693
f 693 662 661
f 693 661 683
f 661 660 683
f 683 660 659
f 683 659 682
f 659 658 682
f 682 658 657
f 682 657 681
f 657 656 681
f 681 656 655
f 681 655 680
f 655 654 680
f 680 654 653
f 680 653 679
f 679 653 652
f 679 652 678
f 652 651 678
f 678 651 677
f 651 650 677
f 677 650 649
f 677 649 676
f 649 648 676
f 676 648 647
f 676 647 675
f 647 646 675
f 675 646 645
f 645 644 675
f 675 644 643
f 675 643 684
f 643 642 684
f 684 642 685
f 642 641 685
f 685 641 686
f 641 640 686
f 686 640 639
f 686 639 687
f 639 638 687
f 687 638 637
f 687 637 688
f 637 636 688
f 688 636 635
f 688 635 689
f 635 634 689
f 689 634 690
f 634 633 690
f 690 633 691
f 691 633 673
f 691 673 700
f 700 673 672
f 700 672 671
f 691 692 703
f 692 702 703
f 703 702 701
f 703 701 704
f 704 701 700
f 704 700 705
f 705 700 699
f 705 699 706
f 706 699 698
f 706 698 697
f 706 697 707
f 707 697 696
f 707 696 708
f 708 696 695
f 708 695 709
f 709 695 694
f 709 694 693
f 709 693 710
f 710 693 683
f 710 683 711
f 711 683 682
f 711 682 712
f 712 682 681
f 712 681 713
f 713 681 680
f 713 680 714
f 714 680 679
f 714 679 715
f 715 679 678
f 715 678 716
f 716 678 677
f 716 677 676
f 716 676 717
f 717 676 674
f 717 674 718
f 718 674 719
f 720 719 684
f 720 684 721
f 721 684 685
f 721 685 722
f 722 685 686
f 722 686 687
f 722 687 723
f 723 687 688
f 723 688 724
f 724 688 689
f 724 689 725
f 725 689 690
f 725 690 691
f 725 691 726
f 726 691 703

