# https://github.com/mikedh/trimesh
v 0.00521172 0.00291066 0.01653469
v 0.05227228 -0.00479908 -0.00527631
v 0.05450000 -0.00890740 0.00514749
v 0.04804472 0.00316419 0.00930088
v 0.01043266 0.01268744 0.00888150
v 0.05182673 0.00490463 -0.00456581
v 0.05450000 0.00236319 -0.00081569
v 0.05450000 0.00171343 -0.00182049
v 0.05450000 0.00067114 -0.00240823
v 0.05450000 0.00247157 0.00037597
v 0.05450000 0.00201374 0.00148150
v 0.05450000 0.00109460 0.00224763
v 0.05450000 -0.00122797 0.00217764
v 0.05185294 -0.00205434 0.00570726
v 0.05450000 -0.00007531 0.00249887
v 0.05450000 -0.00248972 0.00022644
v 0.05450000 -0.00209931 0.00135754
v 0.05450000 -0.00160068 -0.00192037
v 0.05450000 -0.00230977 -0.00095653
v 0.05450000 -0.00052489 -0.00244428
v 0.05292105 -0.00592987 0.00109669
v 0.00600000 -0.00122797 0.00217764
v 0.00600000 -0.00007531 0.00249887
v 0.00600000 0.00052489 0.00244428
v 0.00600000 0.00109460 0.00224763
v 0.00600000 0.00201374 0.00148150
v 0.00600000 0.00247157 0.00037597
v 0.00600000 0.00236319 -0.00081569
v 0.00600000 0.00171343 -0.00182049
v 0.00600000 0.00067114 -0.00240823
v 0.00600000 -0.00052489 -0.00244428
v 0.00600000 -0.00160068 -0.00192037
v 0.00600000 -0.00230977 -0.00095653
v 0.00600000 -0.00248972 0.00022644
v 0.00600000 -0.00209931 0.00135754
v 0.00929653 0.00419935 -0.01454931
v 0.01005922 -0.01612645 0.00089132
v 0.00712226 -0.00065340 0.01297424
v 0.05498214 0.06309410 -0.03759175
v 0.05859840 0.04288698 -0.02881361
v 0.01686404 -0.06642677 -0.01983377
v 0.06024342 0.05752597 0.02463670
v 0.03853237 -0.00200805 -0.04407640
v 0.03968240 -0.00339683 -0.05119102
v 0.03853236 -0.02987003 -0.03247375
v 0.03830207 0.04284689 -0.01042696
v 0.03815648 0.03419878 0.01100763
v 0.03884090 -0.04095856 -0.04705466
v 0.03859466 -0.00025030 0.02933998
v 0.03845225 0.01793527 0.02807147
v 0.03845778 0.00543988 0.02998303
v 0.06128803 -0.02080120 -0.01369221
v 0.06095840 -0.02274093 -0.01362041
v 0.06088190 -0.02274080 -0.01362041
v 0.06057277 -0.02468413 -0.01354848
v 0.06124654 -0.02080560 -0.01368389
v 0.06120387 -0.02082036 -0.01365414
v 0.06042043 -0.02466850 -0.01351560
v 0.06045575 -0.02467639 -0.01354100
v 0.06039942 -0.02466294 -0.01347709
v 0.06077585 -0.02276044 -0.01350687
v 0.06117307 -0.02085622 -0.01358782
v 0.06119249 -0.02082792 -0.01363988
v 0.06118004 -0.02084047 -0.01361622
v 0.06174923 -0.02050067 -0.01051543
v 0.06174631 -0.02041988 -0.01032304
v 0.06178239 -0.02040711 -0.01029925
v 0.06171361 -0.02144361 -0.00837087
v 0.06213362 0.01297010 0.01859935
v 0.06065174 -0.02527851 -0.01299668
v 0.05072416 0.03761021 0.02047199
v 0.03896373 0.03864867 0.02072557
v 0.05071381 0.03784244 0.02033899
v 0.03896159 0.03880149 0.02052688
v 0.05070914 0.03802470 0.02011615
v 0.03896374 0.03887965 0.02028878
v 0.05071311 0.03810633 0.01984007
v 0.03896993 0.03887468 0.02003795
v 0.05072346 0.03808561 0.01957326
v 0.03897947 0.03878707 0.01980247
v 0.05073678 0.03799093 0.01935810
v 0.03899927 0.03871977 0.01970919
v 0.05643322 0.03846871 0.01982668
v 0.05636968 0.03828018 0.02057606
v 0.05765610 0.03955662 0.02139007
v 0.05679395 0.02780319 0.00730950
v 0.05855065 0.01676522 0.01914491
v 0.03880851 0.03394835 0.01502687
v 0.03880851 0.03865207 0.01957984
v 0.03864159 0.03403094 0.01494939
v 0.03854258 0.03918755 0.02022265
v 0.03864159 0.02975398 0.01002185
v 0.04193064 0.05120070 0.02812168
v 0.03869664 0.03839037 0.02096408
v 0.03868965 0.02534976 0.01768170
v 0.03882900 0.04210871 -0.00821921
v 0.05073748 0.04182068 -0.00831157
v 0.03897946 0.04270766 -0.00852317
v 0.05072416 0.04197023 -0.00849292
v 0.03896373 0.04292874 -0.00896618
v 0.05071381 0.04206264 -0.00874409
v 0.03896159 0.04291809 -0.00921662
v 0.05070914 0.04205903 -0.00903194
v 0.03896374 0.04282492 -0.00944925
v 0.05071311 0.04194409 -0.00929589
v 0.03896993 0.04265988 -0.00963821
v 0.05072346 0.04175672 -0.00948697
v 0.05644677 0.04226297 -0.00843015
v 0.05631227 0.04252394 -0.00913860
v 0.05743991 0.04331494 -0.00908815
v 0.04019800 0.05590669 -0.01411386
v 0.05101339 0.02669738 -0.00745083
v 0.03864436 0.04294688 -0.00861745
v 0.03850547 0.03075908 -0.00117073
v 0.05740881 0.00977040 -0.02603780
v 0.03031645 0.01668529 -0.01961581
v 0.05678570 0.02172169 -0.01469401
v 0.03901681 -0.00087692 -0.04314184
v 0.05073748 -0.00092321 -0.04262861
v 0.03897946 -0.00097757 -0.04353887
v 0.05072416 -0.00107584 -0.04280739
v 0.03896373 -0.00137547 -0.04383351
v 0.05071381 -0.00130714 -0.04294201
v 0.03896159 -0.00162395 -0.04386652
v 0.05070914 -0.00159125 -0.04298844
v 0.03896374 -0.00186922 -0.04381515
v 0.05071311 -0.00187115 -0.04292108
v 0.03896993 -0.00208397 -0.04368544
v 0.05072346 -0.00209187 -0.04276973
v 0.03897947 -0.00224410 -0.04349182
v 0.05644677 -0.00096319 -0.04308479
v 0.05631229 -0.00161556 -0.04346481
v 0.05682408 -0.00881514 -0.06445580
v 0.05717141 -0.00234333 -0.04352384
v 0.03860511 -0.00494920 -0.02895539
v 0.04619251 -0.00311405 -0.03016239
v 0.03875743 -0.00403155 -0.03783088
v 0.03877470 -0.00003222 -0.04865200
v 0.03884898 -0.00112693 -0.04374978
v 0.05073748 -0.02810837 -0.03206198
v 0.03897946 -0.02873511 -0.03272434
v 0.05072416 -0.02834020 -0.03210082
v 0.03896373 -0.02922931 -0.03269429
v 0.05071381 -0.02860392 -0.03205527
v 0.03896159 -0.02944087 -0.03255985
v 0.05070914 -0.02885140 -0.03190821
v 0.03896374 -0.02959574 -0.03236284
v 0.05071311 -0.02902253 -0.03167670
v 0.03896993 -0.02967687 -0.03212544
v 0.05072346 -0.02909431 -0.03141889
v 0.03897947 -0.02967508 -0.03187419
v 0.05644677 -0.02843221 -0.03238573
v 0.05631228 -0.02917624 -0.03225752
v 0.05818029 -0.02452240 -0.01626813
v 0.06175736 -0.01447904 -0.01557074
v 0.03830963 -0.02677845 -0.02214011
v 0.03845255 -0.02287102 -0.01918510
v 0.03864436 -0.02893637 -0.03288437
v 0.03882901 -0.02817221 -0.03235751
v 0.03850344 -0.01636867 -0.02603699
v 0.03902832 -0.02869297 -0.00819371
v 0.04154456 -0.03193652 0.00560853
v 0.04997371 -0.02899537 -0.00809855
v 0.03898300 -0.02883070 -0.00864374
v 0.04997763 -0.02909325 -0.00835440
v 0.05048753 -0.02892789 -0.00796512
v 0.05903410 -0.02679502 -0.01061461
v 0.05054550 -0.02267343 0.01938509
v 0.04997763 -0.02330009 0.02008933
v 0.03898239 -0.02279992 0.01997367
v 0.04997904 -0.02316127 0.01984031
v 0.03898300 -0.02274012 0.01971828
v 0.03860016 -0.03708386 0.02432500
v 0.05662910 -0.03630536 0.02190923
v 0.03849216 -0.02252664 0.02057369
v 0.02760946 -0.00917566 0.02897439
v 0.03860547 -0.00442451 0.02998302
v 0.03822038 -0.01488575 0.02673173
v 0.06031558 0.00028220 0.02294900
v 0.05592222 -0.01485374 0.02342721
v 0.03815951 0.01676405 0.04294456
v 0.03902832 0.00725053 0.02894570
v 0.03901680 0.01557938 0.04024011
v 0.05073748 0.01544738 0.03974203
v 0.03897946 0.01580979 0.04057881
v 0.05072416 0.01565195 0.03985783
v 0.03896373 0.01628446 0.04071959
v 0.05071381 0.01591535 0.03990522
v 0.03896159 0.01652924 0.04066562
v 0.05070914 0.01619820 0.03985168
v 0.03896374 0.01674216 0.04053346
v 0.05071311 0.01643818 0.03969265
v 0.03896993 0.01689959 0.04033812
v 0.05072346 0.01659382 0.03947494
v 0.03897947 0.01698384 0.04010142
v 0.05073678 0.01665960 0.03924926
v 0.05644677 0.01564097 0.04015702
v 0.05643322 0.01672440 0.03991533
v 0.05638183 0.01625064 0.04031709
v 0.05770045 0.02006957 0.04693033
v 0.03862235 0.01607436 0.02570597
v 0.03904227 0.00697160 0.03034496
v 0.05038730 0.00723044 0.03023555
v 0.03898476 0.00682926 0.03005172
v 0.04997371 0.00748414 0.02916000
v 0.03898300 0.00692966 0.02928999
v 0.04997763 0.00731151 0.02937270
v 0.03898239 0.00682893 0.02953217
v 0.04997904 0.00720009 0.02963513
v 0.03898299 0.00679474 0.02979172
v 0.04997763 0.00716722 0.02991833
v 0.05048752 0.00756595 0.02903484
v 0.05259438 0.00560936 0.02843960
v 0.05717085 0.01331786 0.03706050
v 0.06046655 0.00317390 0.02421879
v 0.03885988 0.01700866 0.03997310
v 0.03844593 0.01946922 0.04422313
v 0.03884899 0.01602227 0.04072591
v 0.03871408 0.01694478 0.04050969
v 0.05837182 0.05789196 0.03243888
v 0.05852466 0.05753921 0.03263749
v 0.05835516 0.05786470 0.03239350
v 0.05836047 0.05787887 0.03241925
v 0.05816526 0.05856518 0.03194206
v 0.05817608 0.05858426 0.03195933
v 0.05857816 0.05718821 0.03260165
v 0.05816502 0.05902203 0.03176326
v 0.06173886 -0.02151105 -0.00823569
v 0.06166167 -0.02229213 -0.00832766
v 0.06049365 -0.02508910 -0.01278298
v 0.06109883 -0.02368859 -0.01055209
v 0.06102353 -0.02368847 -0.01055190
v 0.06049812 -0.02515615 -0.01292997
v 0.06047187 -0.02503585 -0.01341204
v 0.06043254 -0.02485593 -0.01351251
v 0.06165094 -0.02212673 -0.00815072
v 0.06155361 -0.02228069 -0.00832463
v 0.06151793 -0.02225367 -0.00833211
v 0.06149749 -0.02221708 -0.00834965
v 0.06102166 -0.02333935 -0.01020997
v 0.06045598 -0.02507867 -0.01278078
v 0.06042078 -0.02505350 -0.01278840
v 0.06039963 -0.02501880 -0.01280527
v 0.06036391 -0.02514545 -0.01306343
v 0.06035658 -0.02504238 -0.01309149
v 0.06035100 -0.02499958 -0.01322549
v 0.06061116 -0.02509984 -0.01278510
v 0.06064640 -0.02512544 -0.01277716
v 0.06170082 -0.02230388 -0.00833059
v 0.06182291 -0.02189876 -0.00803677
v 0.06184221 -0.02210174 -0.00805973
v 0.06232831 -0.02040658 -0.00776799
v 0.06064640 -0.02469977 -0.01358180
v 0.06061010 -0.02469170 -0.01355572
v 0.06200305 -0.02035367 -0.01023505
v 0.06173563 -0.01944499 -0.01377719
v 0.06143702 -0.02078662 -0.01372257
v 0.06140109 -0.02079754 -0.01369973
v 0.06141224 -0.01955291 -0.01319372
v 0.06096050 -0.02340142 -0.01066371
v 0.06096657 -0.02335551 -0.01070600
v 0.06115012 -0.02344158 -0.01060491
v 0.06106772 -0.02329567 -0.01072207
v 0.06131279 -0.02088610 -0.01352930
v 0.06221053 0.01579773 0.01582450
v 0.06227773 0.01516346 0.01621208
v 0.06242076 0.01458201 0.01629582
v 0.06210525 0.01571980 0.01574644
v 0.06213649 0.02186229 0.00413556
v 0.06213649 0.02060688 0.00839161
v 0.06210525 0.01966740 0.01040461
v 0.06213649 0.01966740 0.01040461
v 0.06210525 0.01853187 0.01231390
v 0.06213649 0.01853187 0.01231390
v 0.06215630 0.02189487 0.00374988
v 0.06298578 0.02081925 0.00214787
v 0.06167056 0.02547416 0.00280894
v 0.06217413 0.02187153 0.00413731
v 0.06215386 0.02186416 0.00413592
v 0.06217413 0.01572645 0.01575309
v 0.06219140 0.01523154 0.01610617
v 0.06237983 0.01468545 0.01621742
v 0.06238920 0.01468827 0.01623497
v 0.06224841 0.01525262 0.01610061
v 0.06225777 0.01526099 0.01611728
v 0.06220292 0.01574482 0.01577150
v 0.06221227 0.01575822 0.01578491
v 0.06239400 0.01468976 0.01625379
v 0.06247514 0.01429817 0.01618157
v 0.06218892 0.01573363 0.01576029
v 0.06223460 0.01524481 0.01608704
v 0.06221608 0.01577061 0.01579732
v 0.06226201 0.01526908 0.01613528
v 0.06220292 0.02063967 0.00840497
v 0.06221608 0.01859176 0.01235370
v 0.06220292 0.01856137 0.01233350
v 0.06217413 0.02061559 0.00839516
v 0.06217413 0.01853971 0.01231911
v 0.06191909 0.01516286 0.01615273
v 0.06198525 0.02192525 0.00354577
v 0.06257106 0.01611616 0.01122730
v 0.06277448 -0.01964697 -0.00688926
v 0.06135219 -0.02123526 -0.00087033
v 0.06167551 -0.02165931 -0.00811451
v 0.06147841 -0.02218213 -0.00969453
v 0.03831361 -0.02925660 -0.00986882
v 0.03907330 -0.02989295 0.03852617
v 0.03892336 0.00222747 0.04490572
v 0.03839283 -0.01613098 -0.04092014
v 0.02554215 -0.02387393 -0.05986068
v 0.02561382 0.04254459 0.04049868
v 0.02394765 0.04277018 0.04061802
v 0.02022744 0.05120817 0.04508196
v 0.02128155 0.05237084 0.04569704
v 0.01954969 0.04984396 0.04436025
v 0.01929447 0.04837118 0.04358111
v 0.01947919 0.04689021 0.04279763
v 0.02009126 0.04550195 0.04206320
v 0.02108896 0.04430102 0.04142788
v 0.02240430 0.04336927 0.04093495
v 0.02728928 0.04270788 0.04058506
v 0.02885983 0.04324890 0.04087128
v 0.03021845 0.04413079 0.04133782
v 0.01939445 0.04832255 0.04366852
v 0.01964571 0.04977252 0.04443559
v 0.02031297 0.05111561 0.04514612
v 0.02135075 0.05226027 0.04575168
v 0.02268833 0.05312850 0.04621100
v 0.02423456 0.05366115 0.04649278
v 0.02588407 0.05382190 0.04657783
v 0.02752444 0.05359980 0.04646033
v 0.02904388 0.05300999 0.04614831
v 0.03033885 0.05209267 0.04566302
v 0.03132110 0.05091035 0.04503753
v 0.03118703 0.04529250 0.04206553
v 0.03185429 0.04663558 0.04277606
v 0.03210555 0.04808554 0.04354313
v 0.03192369 0.04954359 0.04431448
v 0.02561593 0.04258621 0.04063382
v 0.02726544 0.04274696 0.04071887
v 0.02881167 0.04327960 0.04100065
v 0.03014925 0.04414784 0.04145997
v 0.01957631 0.04686451 0.04289717
v 0.02017890 0.04549776 0.04217412
v 0.02116115 0.04431543 0.04154863
v 0.02245612 0.04339810 0.04106334
v 0.02397556 0.04280830 0.04075132
v 0.02498053 0.05086343 0.04372947
v 0.02131615 0.05229843 0.04575671
v 0.02027020 0.05114477 0.04514639
v 0.02129082 0.05233891 0.04573672
v 0.02023890 0.05117865 0.04512291
v 0.01956255 0.04981728 0.04440270
v 0.01930787 0.04834756 0.04362518
v 0.01949221 0.04686965 0.04284332
v 0.02010300 0.04548427 0.04211042
v 0.02109863 0.04428584 0.04147641
v 0.02241125 0.04335602 0.04098451
v 0.02395139 0.04275817 0.04066823
v 0.02561411 0.04253305 0.04054914
v 0.02728608 0.04269599 0.04063534
v 0.02885338 0.04323589 0.04092096
v 0.03020918 0.04411596 0.04138654
v 0.01959770 0.04979113 0.04443028
v 0.01934446 0.04832976 0.04365717
v 0.01952775 0.04686024 0.04287975
v 0.02013508 0.04548274 0.04215102
v 0.02112506 0.04429111 0.04152061
v 0.02243021 0.04336657 0.04103151
v 0.02396161 0.04277213 0.04071702
v 0.02561488 0.04254828 0.04059860
v 0.02727736 0.04271030 0.04068432
v 0.02883575 0.04324713 0.04096832
v 0.03018385 0.04412220 0.04143125
v 0.02128155 -0.06920245 0.00647653
v 0.02129082 -0.06919973 0.00652738
v 0.02036759 -0.06810131 0.00667941
v 0.02131615 -0.06917857 0.00656726
v 0.02039817 -0.06808639 0.00671843
v 0.02135075 -0.06914465 0.00658548
v 0.02043993 -0.06806100 0.00673546
v 0.01979538 -0.06680376 0.00690948
v 0.01974855 -0.06681927 0.00689381
v 0.01944942 -0.06543598 0.00709879
v 0.01939987 -0.06544072 0.00708461
v 0.01941940 -0.06402622 0.00729391
v 0.01936961 -0.06401988 0.00728126
v 0.01970682 -0.06264520 0.00748505
v 0.01965929 -0.06262799 0.00747391
v 0.02029728 -0.06136215 0.00766264
v 0.02025439 -0.06133486 0.00765289
v 0.02116115 -0.06024142 0.00781775
v 0.02112506 -0.06020531 0.00780923
v 0.02225513 -0.05933921 0.00794263
v 0.02222764 -0.05929600 0.00793509
v 0.02352435 -0.05870075 0.00803100
v 0.02350685 -0.05865251 0.00802415
v 0.02490518 -0.05835805 0.00807843
v 0.02489853 -0.05830713 0.00807195
v 0.02632837 -0.05832832 0.00808254
v 0.02633292 -0.05827716 0.00807610
v 0.02772256 -0.05861302 0.00804314
v 0.02773808 -0.05856410 0.00803639
v 0.02901784 -0.05919790 0.00796219
v 0.02904354 -0.05915358 0.00795480
v 0.03014925 -0.06005361 0.00784375
v 0.03018385 -0.06001602 0.00783543
v 0.01971426 -0.06682695 0.00685579
v 0.01936359 -0.06544052 0.00704768
v 0.01933316 -0.06401156 0.00724546
v 0.01962450 -0.06261172 0.00743921
v 0.02022299 -0.06131120 0.00761921
v 0.02109863 -0.06017520 0.00777644
v 0.02220751 -0.05926069 0.00790302
v 0.02349403 -0.05861354 0.00799259
v 0.02489367 -0.05826617 0.00804067
v 0.02633625 -0.05823603 0.00804484
v 0.02774943 -0.05852462 0.00800490
v 0.02906235 -0.05911746 0.00792284
v 0.03020918 -0.05998483 0.00780279
v 0.02035640 -0.06810176 0.00662887
v 0.01970171 -0.06682474 0.00680562
v 0.01935031 -0.06543542 0.00699791
v 0.01931982 -0.06400350 0.00719610
v 0.01961176 -0.06260075 0.00739025
v 0.02021150 -0.06129752 0.00757063
v 0.02108896 -0.06015916 0.00772819
v 0.02220015 -0.05924275 0.00785503
v 0.02348934 -0.05859425 0.00794478
v 0.02489189 -0.05824617 0.00799296
v 0.02633747 -0.05821596 0.00799714
v 0.02775359 -0.05850515 0.00795712
v 0.02906924 -0.05909922 0.00787489
v 0.03021845 -0.05996840 0.00775459
v 0.03210555 -0.06446633 0.00723299
v 0.03192369 -0.06610025 0.00700685
v 0.03132110 -0.06763189 0.00679486
v 0.03033885 -0.06895684 0.00661147
v 0.03185429 -0.06284145 0.00745789
v 0.03118703 -0.06133635 0.00766621
v 0.02268833 -0.07011762 0.00645081
v 0.02423456 -0.07071452 0.00636820
v 0.02904388 -0.06998482 0.00646919
v 0.02752444 -0.07064578 0.00637771
v 0.02588407 -0.07089467 0.00634326
v 0.01363384 -0.02049545 0.00244550
v 0.01434768 -0.02079762 -0.00354914
v 0.01444201 -0.02059624 -0.00496867
v 0.01408902 -0.02015648 -0.00486650
v 0.01431460 -0.02015647 -0.00486651
v 0.01431207 -0.02022548 -0.00454994
v 0.01431884 -0.02063479 -0.00438617
v 0.01430556 -0.02031805 -0.00401088
v 0.01409095 -0.01997184 -0.00556286
v 0.01413533 -0.01991083 -0.00609378
v 0.01431253 -0.01972104 -0.00639375
v 0.01431065 -0.01979298 -0.00615522
v 0.01431141 -0.01991663 -0.00576881
v 0.01445414 -0.02006817 -0.00694099
v 0.01338884 0.01782410 0.00798559
v 0.01489475 0.02195828 -0.00359119
v 0.01512329 0.02196810 -0.00356163
v 0.01346928 0.01725413 0.00886881
v 0.01493071 0.01992857 0.00977687
v 0.01487503 0.02008332 0.00956432
v 0.01429151 0.01802441 0.01021755
v 0.01493025 0.02087663 0.00581144
v 0.01489475 0.02203990 0.00305049
v 0.01489475 0.02162587 0.00523301
v 0.01489475 0.02223423 0.00083757
v 0.02152056 0.02703781 0.00336954
v 0.01479709 0.02166029 0.00524134
v 0.01479709 0.02018947 0.00943531
v 0.01490016 0.02021429 0.01360403
v 0.01478947 0.02206713 -0.00360899
v 0.01478392 0.02230608 0.00084028
v 0.01478392 0.02202924 -0.00360279
v 0.01479709 0.02226962 0.00083890
v 0.01482587 0.02163501 0.00523522
v 0.01482587 0.02224363 0.00083792
v 0.01478773 0.02201193 -0.00359996
v 0.01479709 0.02199323 -0.00359690
v 0.01481108 0.02197759 -0.00359434
v 0.01482587 0.02196756 -0.00359270
v 0.01486351 0.02162587 0.00523301
v 0.01486351 0.02015738 0.00942032
v 0.01484614 0.02015911 0.00942113
v 0.01482587 0.02016591 0.00942430
v 0.01481108 0.02017511 0.00942861
v 0.01485120 0.02186186 -0.00396401
v 0.01486351 0.02223423 0.00083757
v 0.01486351 0.02203990 0.00305049
v 0.01440711 0.02089864 -0.00483624
v 0.01438103 0.02084398 -0.00485883
v 0.01462018 0.02139417 -0.00457785
v 0.01461080 0.02140671 -0.00459044
v 0.01475159 0.02178615 -0.00415160
v 0.01474223 0.02180268 -0.00416024
v 0.01421041 0.02049647 -0.00493741
v 0.01460600 0.02141892 -0.00460484
v 0.01440155 0.02090528 -0.00485239
v 0.01476540 0.02177188 -0.00414516
v 0.01473388 0.02149507 -0.00448790
v 0.01473800 0.02181977 -0.00417013
v 0.01472227 0.02177894 -0.00429417
v 0.01457925 0.02135606 -0.00470191
v 0.01356087 0.01744404 0.00955573
v 0.01419682 0.01825210 0.01018375
v 0.01477227 0.01943901 0.01016414
v 0.01479984 0.01981237 0.00989322
v 0.01415192 0.01827391 0.01025317
v 0.01387218 0.01780762 0.00993897
v 0.01415821 0.01826146 0.01021302
v 0.01388300 0.01780932 0.00992829
v 0.01416986 0.01826011 0.01020045
v 0.01418306 0.01825686 0.01019057
v 0.01335953 0.01730982 0.00899272
v 0.01360758 0.01748047 0.00950966
v 0.01359028 0.01747638 0.00952164
v 0.01475166 0.01983982 0.00991263
v 0.01476547 0.01982784 0.00990255
v 0.01478216 0.01981853 0.00989605
v 0.01466589 0.01932310 0.01019241
v 0.01445802 0.01877684 0.01028673
v 0.01464921 0.01932971 0.01019625
v 0.01444274 0.01878310 0.01029217
v 0.01463340 0.01933764 0.01020441
v 0.01442818 0.01878898 0.01030162
v 0.01462012 0.01934632 0.01021674
v 0.01441566 0.01879394 0.01031479
v 0.01333993 0.01730159 0.00900097
v 0.01395417 0.02030223 0.00174097
v 0.01473030 -0.02133808 -0.00498422
v 0.01368659 -0.01750745 -0.01298306
v 0.01425705 -0.01943918 -0.00689266
v 0.01296885 0.01011192 0.01647112
v 0.01406854 0.01976504 -0.00453730
v 0.01568722 -0.02485489 -0.00122710
v 0.01556298 -0.02488711 -0.00101214
v 0.01559891 -0.02488261 -0.00103705
v 0.01579678 -0.02487439 -0.00108818
v 0.01571198 -0.02488120 -0.00104530
v 0.01575346 -0.02487990 -0.00105462
v 0.01524131 -0.02318706 -0.00014317
v 0.01581188 -0.02480141 -0.00348211
v 0.01526437 -0.02383033 -0.00018378
v 0.01523358 -0.02375209 -0.00012508
v 0.01524207 -0.02388447 -0.00012229
v 0.01462308 -0.02195048 0.00133379
v 0.01524378 -0.02385878 -0.00015468
v 0.01642723 -0.02794808 -0.00343109
v 0.01638990 -0.02795846 -0.00342964
v 0.01604161 -0.02641326 -0.00223713
v 0.01633321 -0.02800639 -0.00338608
v 0.01635449 -0.02797948 -0.00341388
v 0.01642098 -0.02918464 -0.00244899
v 0.01642813 -0.02820035 -0.00390338
v 0.01526044 -0.02277966 -0.00631526
v 0.01525123 -0.02224146 -0.00562924
v 0.01524207 -0.02301979 -0.00636962
v 0.01524369 -0.02300404 -0.00633183
v 0.01526383 -0.02298474 -0.00629629
v 0.01518059 -0.02276217 -0.00637281
v 0.01521870 -0.02281156 -0.00634189
v 0.01529918 -0.02296727 -0.00627425
v 0.01533834 -0.02295602 -0.00626976
v 0.01632974 -0.02788898 -0.00438503
v 0.01633310 -0.02787340 -0.00434844
v 0.01635361 -0.02785544 -0.00431490
v 0.01590118 -0.02538916 -0.00528078
v 0.01638884 -0.02783930 -0.00429349
v 0.01647606 -0.02800453 -0.00418773
v 0.01654402 -0.02781960 -0.00428463
v 0.01668144 -0.02815824 -0.00392491
v 0.01654425 -0.02793743 -0.00343264
v 0.01653252 -0.02816446 -0.00373390
v 0.01650635 -0.02782935 -0.00428894
v 0.01572043 -0.02462145 -0.00083436
v 0.01555237 -0.02368262 -0.00537992
v 0.01597647 -0.02538895 -0.00528087
v 0.01544639 -0.02294497 -0.00626553
v 0.01518641 -0.02358095 -0.00006733
v 0.01538613 -0.02279337 -0.00631033
v 0.01773775 0.06114910 0.00999514
v 0.01775424 0.06102133 0.01002068
v 0.01777068 0.06110811 0.00991578
v 0.02006765 0.06278339 0.00308948
v 0.03145990 0.07061425 0.01466374
v 0.01827744 0.06485565 0.01130389
v 0.01862818 0.06593468 0.00750858
v 0.01880653 0.06623802 0.00830126
v 0.01861138 0.06595412 0.00750350
v 0.01878484 0.06625386 0.00830206
v 0.01851483 0.06585096 0.00727443
v 0.01743499 0.06316635 0.00586653
v 0.01774165 0.06156241 0.00698816
v 0.01888321 0.06616193 0.00876761
v 0.01883815 0.06616433 0.00830944
v 0.01864484 0.06588604 0.00752948
v 0.01863953 0.06591257 0.00751687
v 0.01883474 0.06619064 0.00830517
v 0.01882392 0.06621621 0.00830230
v 0.01849364 0.06560696 0.00710908
v 0.01776138 0.06199121 0.01087641
v 0.01812937 0.06406146 0.01142796
v 0.01862528 0.06541439 0.01069537
v 0.01832497 0.06459617 0.01121550
v 0.01878455 0.06601733 0.01000698
v 0.01859121 0.06552718 0.01069765
v 0.01880623 0.06600186 0.01000344
v 0.01861155 0.06551315 0.01069210
v 0.01882363 0.06598116 0.00999651
v 0.01862835 0.06549582 0.01068193
v 0.01883445 0.06595734 0.00998679
v 0.01863970 0.06547680 0.01066796
v 0.01883786 0.06593319 0.00997552
v 0.01811700 0.06406835 0.01144498
v 0.01835716 0.06485238 0.01118729
v 0.01833811 0.06486357 0.01119506
v 0.01883364 0.06643604 0.00906400
v 0.01885913 0.06627385 0.00917688
v 0.01888145 0.06625796 0.00917467
v 0.01889912 0.06623568 0.00917157
v 0.01890970 0.06620935 0.00916789
v 0.01891238 0.06618226 0.00916411
v 0.01738515 0.06114996 0.00597896
v 0.01828160 0.06666801 0.00641164
v 0.02124405 0.06245196 0.01583824
v 0.01730236 0.06123700 0.00600369
v 0.01778283 0.06146903 0.00697095
v 0.01776720 0.06155629 0.00706111
v 0.01777069 0.06150403 0.00705468
v 0.01732246 0.06119088 0.00602660
v 0.01733452 0.06117925 0.00603281
v 0.01736086 0.06116421 0.00604150
v 0.01736693 0.06116209 0.00604286
v 0.01731183 0.06120631 0.00601870
v 0.01747937 0.06228596 0.01130291
v 0.01778624 0.06448932 0.01143569
v 0.01784594 0.06391098 0.01157696
v 0.01825381 0.06599998 0.00751609
v 0.01845352 0.06627954 0.00831481
v 0.01857097 0.06620602 0.00959500
v 0.01804942 0.06538207 0.00669903
v 0.01846949 0.06627873 0.00833546
v 0.01810027 0.06589440 0.00722652
v 0.01827539 0.06599012 0.00751439
v 0.01851818 0.06629168 0.00844379
v 0.01823497 0.06584947 0.01061720
v 0.01724769 0.06205765 0.00652198
v 0.01736827 0.06145164 0.00688417
v 0.01727714 0.06150839 0.00686841
v 0.01729250 0.06148503 0.00687440
v 0.01729974 0.06147771 0.00687633
v 0.01733271 0.06145781 0.00688188
v 0.01727389 0.06152464 0.00690001
v 0.01732284 0.06152212 0.00695848
v 0.01934131 0.02280318 -0.00818768
v 0.03225538 0.02915472 -0.01206363
v 0.03875298 0.00389668 -0.03054817
v 0.02634260 0.02107894 -0.05973068
v 0.03877430 -0.01852422 -0.04517408
v 0.03837950 -0.01703822 -0.04035493
v 0.03767681 -0.01685293 -0.03976852
v 0.03802054 -0.01698376 -0.04010163
v 0.03803627 -0.01674191 -0.04053365
v 0.03803841 -0.01652889 -0.04066576
v 0.03803626 -0.01628415 -0.04071963
v 0.03803007 -0.01603508 -0.04068951
v 0.03802053 -0.01580958 -0.04057871
v 0.03848742 -0.01509293 -0.03994163
v 0.02595825 -0.01534128 -0.02534662
v 0.01965446 -0.01714146 -0.04036937
v 0.02056678 -0.01586563 -0.04026439
v 0.02061539 -0.01654614 -0.04019400
v 0.02055323 -0.01681045 -0.03968167
v 0.02626321 -0.01544736 -0.03974199
v 0.02627654 -0.01565193 -0.03985778
v 0.02628689 -0.01591532 -0.03990518
v 0.02629086 -0.01619820 -0.03985168
v 0.02628619 -0.01643820 -0.03969270
v 0.02627584 -0.01659384 -0.03947499
v 0.02626252 -0.01665962 -0.03924931
v 0.03982671 -0.02689742 -0.01111326
v 0.03823345 -0.03897466 -0.02010063
v 0.03803627 -0.03887958 -0.02028909
v 0.03841370 -0.03856344 -0.02104960
v 0.03803841 -0.03880132 -0.02052722
v 0.03803626 -0.03864846 -0.02072580
v 0.03803007 -0.03843830 -0.02086282
v 0.03802053 -0.03819434 -0.02092289
v 0.03829424 -0.03695602 -0.02075257
v 0.01506933 -0.02124355 -0.00944490
v 0.02164110 -0.02500431 -0.00874043
v 0.01929757 -0.03976626 -0.01895695
v 0.01760421 -0.01871442 -0.01982800
v 0.03741668 -0.04931396 -0.02610575
v 0.02304975 -0.04990613 -0.02679646
v 0.02056678 -0.03803522 -0.02064608
v 0.02049093 -0.03857441 -0.02006344
v 0.02626321 -0.03737902 -0.02051476
v 0.02627654 -0.03761017 -0.02047196
v 0.02628689 -0.03784240 -0.02033896
v 0.02629086 -0.03802470 -0.02011615
v 0.02628619 -0.03810637 -0.01984010
v 0.02627584 -0.03808565 -0.01957328
v 0.02210351 -0.02261832 0.01252124
v 0.03490308 -0.01615604 0.02786192
v 0.03823362 -0.02657574 0.03488972
v 0.03801831 -0.02619017 0.03474033
v 0.03802054 -0.02623715 0.03475918
v 0.03803627 -0.02673222 0.03476575
v 0.03803841 -0.02695314 0.03464732
v 0.03803626 -0.02712216 0.03446230
v 0.03803007 -0.02722061 0.03423154
v 0.03802053 -0.02723740 0.03398086
v 0.03834068 -0.02734786 0.03436971
v 0.03850552 -0.02417589 0.02240060
v 0.01934835 -0.02430654 0.03554914
v 0.01913125 -0.02978828 0.03636752
v 0.02001722 -0.02673081 0.03440214
v 0.02058092 -0.02690718 0.03398746
v 0.02057249 -0.02632934 0.03444184
v 0.02055323 -0.02596012 0.03439911
v 0.02627654 -0.02669189 0.03348386
v 0.02628689 -0.02660123 0.03373566
v 0.02629086 -0.02641346 0.03395389
v 0.02628619 -0.02615578 0.03408225
v 0.02627584 -0.02588942 0.03410818
v 0.02626252 -0.02566109 0.03405230
v 0.03843239 -0.00335880 0.02953453
v 0.03834426 -0.00393593 0.03041394
v 0.03801700 -0.00380441 0.03031900
v 0.03801761 -0.00368350 0.03008680
v 0.03801700 -0.00350602 0.02989367
v 0.03801522 -0.00328410 0.02975325
v 0.01760756 -0.00587453 0.02515540
v 0.02702966 0.00414085 0.06102052
v 0.02675137 -0.00352778 0.03104171
v 0.02551741 -0.00405086 0.02934733
v 0.02702096 -0.00336994 0.03031049
v 0.02702237 -0.00317549 0.03010199
v 0.02702237 -0.00349769 0.03056537
v 0.02702629 -0.00354790 0.03083467
v 0.02676225 -0.00279899 0.02990030
v 0.03834409 -0.00317180 0.02963712
v 0.03396241 -0.00446110 0.03844115
v 0.03803007 0.02898468 0.03275131
v 0.03802053 0.02873488 0.03272432
v 0.03837165 0.02908212 0.03292423
v 0.03819149 0.02848590 0.03264823
v 0.03800074 0.02862790 0.03268202
v 0.03886164 0.01958613 0.02192569
v 0.03819149 0.02291578 0.02920897
v 0.03824569 0.01995186 0.02770867
v 0.02102496 0.01734326 0.02564260
v 0.02116679 0.02918157 0.03205224
v 0.02626321 0.02810833 0.03206194
v 0.02627654 0.02834017 0.03210079
v 0.02628689 0.02860389 0.03205524
v 0.03848833 0.02920279 0.00071335
v 0.03865436 0.04307842 0.00283020
v 0.03826868 0.02898258 0.00896777
v 0.03825760 0.04352833 0.00553913
v 0.03816338 0.04257449 0.00511420
v 0.03802054 0.04322091 0.00534245
v 0.03803627 0.04347413 0.00576790
v 0.03829742 0.04342632 0.00647759
v 0.03803841 0.04348203 0.00601844
v 0.03803626 0.04340631 0.00625733
v 0.03803007 0.04325569 0.00645797
v 0.03802053 0.04304698 0.00659785
v 0.03847303 0.04253423 0.00675975
v 0.01753343 0.06030016 0.00989456
v 0.01956340 0.04498174 0.00716276
v 0.03867982 0.04537915 0.00835064
v 0.02118804 0.04300561 0.00613559
v 0.02055323 0.04277056 0.00528256
v 0.02626321 0.04214125 0.00649319
v 0.02627654 0.04234382 0.00637392
v 0.02628689 0.04251656 0.00616951
v 0.02629086 0.04261166 0.00589779
v 0.02628619 0.04259399 0.00561045
v 0.02627584 0.04248326 0.00536681
v 0.02626252 0.04232071 0.00519700
v 0.01611810 -0.02641317 -0.00223705
v 0.01741207 0.00152251 -0.02673658
v 0.03420167 0.04052913 0.05030153
v 0.02128155 0.06724413 0.01758268
v 0.02022744 0.06608146 0.01696760
v 0.01954969 0.06471726 0.01624590
v 0.01929447 0.06324448 0.01546676
v 0.01947919 0.06176350 0.01468328
v 0.02009126 0.06037524 0.01394885
v 0.02108896 0.05917432 0.01331352
v 0.02240430 0.05824256 0.01282060
v 0.02394765 0.05764348 0.01250367
v 0.02561382 0.05741789 0.01238432
v 0.03021845 0.05900409 0.01322347
v 0.02885983 0.05812219 0.01275692
v 0.02728928 0.05758117 0.01247070
v 0.02129082 0.06725897 0.01753397
v 0.02023890 0.06609871 0.01692016
v 0.02131615 0.06725273 0.01748926
v 0.02027020 0.06609906 0.01687894
v 0.02135075 0.06722708 0.01746054
v 0.02031297 0.06608243 0.01685498
v 0.01964571 0.06473935 0.01614445
v 0.01959770 0.06474542 0.01616282
v 0.01939445 0.06328938 0.01537738
v 0.01934446 0.06328405 0.01538971
v 0.01957631 0.06183134 0.01460603
v 0.01952775 0.06181453 0.01461230
v 0.02017890 0.06046458 0.01388298
v 0.02013508 0.06043703 0.01388356
v 0.02116115 0.05928225 0.01325749
v 0.02112506 0.05924540 0.01325315
v 0.02245612 0.05836493 0.01277220
v 0.02243021 0.05832086 0.01276405
v 0.02397556 0.05777512 0.01246018
v 0.02396161 0.05772642 0.01244957
v 0.02561593 0.05755303 0.01234268
v 0.02561488 0.05750257 0.01233115
v 0.02726544 0.05771378 0.01242773
v 0.02727736 0.05766459 0.01241686
v 0.02881167 0.05824642 0.01270951
v 0.02883575 0.05820142 0.01270086
v 0.03014925 0.05911466 0.01316883
v 0.03018385 0.05907649 0.01316380
v 0.01956255 0.06473733 0.01619995
v 0.01930787 0.06326761 0.01542243
v 0.01949221 0.06178971 0.01464057
v 0.02010300 0.06040433 0.01390767
v 0.02109863 0.05920589 0.01327366
v 0.02241125 0.05827607 0.01278176
v 0.02395139 0.05767823 0.01246549
v 0.02561411 0.05745311 0.01234639
v 0.02728608 0.05761606 0.01243259
v 0.02885338 0.05815595 0.01271821
v 0.03020918 0.05903602 0.01318379
v 0.03210555 0.06305236 0.01525199
v 0.03192369 0.06451041 0.01602334
v 0.03132110 0.06587717 0.01674639
v 0.03033885 0.06705949 0.01737187
v 0.03185429 0.06160240 0.01448492
v 0.03118703 0.06025932 0.01377439
v 0.02904388 0.06797682 0.01785717
v 0.02752444 0.06856663 0.01816919
v 0.02588407 0.06878871 0.01828668
v 0.02268833 0.06809533 0.01791986
v 0.02423456 0.06862796 0.01820164
v 0.05933349 -0.05267331 -0.04358557
v 0.05760555 0.03461397 -0.05517139
v 0.05742369 0.03410753 -0.05360155
v 0.05682110 0.03363280 -0.05213000
v 0.05583885 0.03322212 -0.05085703
v 0.05735429 0.03511761 -0.05673253
v 0.05668703 0.03558412 -0.05817859
v 0.05564925 0.03598171 -0.05941101
v 0.05431167 0.03628328 -0.06034582
v 0.05276544 0.03646829 -0.06091930
v 0.04567890 0.03551282 -0.05795759
v 0.04507631 0.03503809 -0.05648604
v 0.04489445 0.03453165 -0.05491620
v 0.05454388 0.03290350 -0.04986937
v 0.05302444 0.03269863 -0.04923434
v 0.05111593 0.03652413 -0.06109238
v 0.04947556 0.03644699 -0.06085325
v 0.04795612 0.03624212 -0.06021823
v 0.04666115 0.03592350 -0.05923057
v 0.04514571 0.03402801 -0.05335506
v 0.04581297 0.03356150 -0.05190901
v 0.04685075 0.03316391 -0.05067658
v 0.04818833 0.03286234 -0.04974177
v 0.04973456 0.03267732 -0.04916829
v 0.05138407 0.03262149 -0.04899522
v 0.05571846 0.03590870 -0.05951041
v 0.05570918 0.03595332 -0.05948586
v 0.05676110 0.03555031 -0.05823664
v 0.05568385 0.03598004 -0.05944947
v 0.05672980 0.03557932 -0.05820735
v 0.05740230 0.03510914 -0.05674993
v 0.05765554 0.03460154 -0.05517650
v 0.05747225 0.03409112 -0.05359432
v 0.05686492 0.03361265 -0.05211120
v 0.05587494 0.03319875 -0.05082821
v 0.05456979 0.03287762 -0.04983278
v 0.05303839 0.03267114 -0.04919276
v 0.05138512 0.03259339 -0.04895175
v 0.04972264 0.03264967 -0.04912619
v 0.04816425 0.03283613 -0.04970419
v 0.04681615 0.03314008 -0.05064635
v 0.05743745 0.03507745 -0.05677089
v 0.05769213 0.03456695 -0.05518848
v 0.05750779 0.03405361 -0.05359726
v 0.05689700 0.03357241 -0.05210566
v 0.05590137 0.03315614 -0.05081534
v 0.05458875 0.03283317 -0.04981423
v 0.05304861 0.03262551 -0.04917054
v 0.05138589 0.03254732 -0.04892816
v 0.04971392 0.03260392 -0.04910360
v 0.04814662 0.03279145 -0.04968489
v 0.04679082 0.03309713 -0.05063244
v 0.05677256 0.03550486 -0.05825860
v 0.05745031 0.03503101 -0.05678980
v 0.05770553 0.03451945 -0.05520410
v 0.05752081 0.03400504 -0.05360957
v 0.05690874 0.03352284 -0.05211487
v 0.05591104 0.03310570 -0.05082187
v 0.05459569 0.03278207 -0.04981867
v 0.05305235 0.03257398 -0.04917365
v 0.05138618 0.03249562 -0.04893077
v 0.04971072 0.03255234 -0.04910657
v 0.04814017 0.03274026 -0.04968907
v 0.04678154 0.03304658 -0.05063858
v 0.05794907 -0.00196414 0.05971698
v 0.05123338 0.04237511 0.04658098
v 0.05130537 0.05913454 -0.01361885
v 0.02135075 0.02886913 -0.06317376
v 0.01992955 0.02762095 -0.06156926
v 0.02132427 0.02889210 -0.06319089
v 0.01989450 0.02763641 -0.06157673
v 0.02130182 0.02892359 -0.06319607
v 0.01986480 0.02766153 -0.06157371
v 0.02128681 0.02895881 -0.06318850
v 0.01984495 0.02769249 -0.06156068
v 0.01939445 0.02613384 -0.05965762
v 0.01935619 0.02614035 -0.05965358
v 0.01932376 0.02615788 -0.05964081
v 0.01930209 0.02618377 -0.05962125
v 0.02116115 0.02335034 -0.05607948
v 0.02319397 0.02247770 -0.05495773
v 0.02113352 0.02334008 -0.05605390
v 0.02317859 0.02246219 -0.05492540
v 0.02111010 0.02334341 -0.05602287
v 0.02316554 0.02246107 -0.05488864
v 0.02109446 0.02335980 -0.05599111
v 0.02315683 0.02247449 -0.05485306
v 0.02561593 0.02214915 -0.05453538
v 0.02561513 0.02213166 -0.05450051
v 0.02561444 0.02212886 -0.05446160
v 0.02561398 0.02214116 -0.05442457
v 0.01974085 0.02466233 -0.05766548
v 0.01976105 0.02464156 -0.05769161
v 0.01979128 0.02463168 -0.05771422
v 0.01982693 0.02463420 -0.05772986
v 0.02809185 0.02241057 -0.05477089
v 0.02808398 0.02239736 -0.05480675
v 0.02807220 0.02239881 -0.05484392
v 0.02805830 0.02241470 -0.05487674
v 0.03014925 0.02323392 -0.05592983
v 0.03017573 0.02322297 -0.05590335
v 0.03019818 0.02322570 -0.05587156
v 0.03021319 0.02324170 -0.05583929
v 0.03157046 0.02448210 -0.05753433
v 0.03210555 0.02596921 -0.05944598
v 0.03167307 0.02746885 -0.06137373
v 0.03033885 0.02875272 -0.06302411
v 0.02830603 0.02962535 -0.06414586
v 0.02588407 0.02995390 -0.06456821
v 0.02344170 0.02968836 -0.06422685
v 0.01486651 -0.05554529 0.04468545
v 0.03464491 -0.05864378 0.04255277
v 0.02315683 -0.03987996 0.04385829
v 0.01930209 -0.04499636 0.04707027
v 0.01982693 -0.04289336 0.04582293
v 0.02116115 -0.04112245 0.04471119
v 0.01979128 -0.04288564 0.04580910
v 0.02113352 -0.04110407 0.04469066
v 0.01976105 -0.04288718 0.04578447
v 0.02111010 -0.04109658 0.04466036
v 0.01974085 -0.04289776 0.04575281
v 0.02109446 -0.04110112 0.04462491
v 0.02135075 -0.04873481 0.04949010
v 0.01992955 -0.04701313 0.04840926
v 0.02132427 -0.04876225 0.04949833
v 0.01989450 -0.04703022 0.04841099
v 0.02130182 -0.04879361 0.04949243
v 0.01986480 -0.04705279 0.04839957
v 0.02128681 -0.04882412 0.04947327
v 0.01984495 -0.04707742 0.04837672
v 0.01939445 -0.04496189 0.04712152
v 0.01935619 -0.04496662 0.04711550
v 0.01932376 -0.04497873 0.04709751
v 0.02316554 -0.03987952 0.04389631
v 0.02317859 -0.03989315 0.04393047
v 0.02319397 -0.03991878 0.04395554
v 0.02561398 -0.03942018 0.04356965
v 0.02561444 -0.03942129 0.04360865
v 0.02561513 -0.03943723 0.04364425
v 0.02561593 -0.03946559 0.04367104
v 0.02805830 -0.03983188 0.04390099
v 0.02807220 -0.03980572 0.04387558
v 0.02808398 -0.03979165 0.04384115
v 0.02809185 -0.03979179 0.04380294
v 0.03014925 -0.04096187 0.04461038
v 0.03017573 -0.04094252 0.04458924
v 0.03019818 -0.04093422 0.04455844
v 0.03021319 -0.04093821 0.04452264
v 0.03157046 -0.04268355 0.04569122
v 0.03210555 -0.04473479 0.04697895
v 0.03167307 -0.04680333 0.04827755
v 0.03033885 -0.04857423 0.04938929
v 0.02830603 -0.04977790 0.05014493
v 0.02588407 -0.05023109 0.05042943
v 0.02344170 -0.04986481 0.05019949
v 0.02135075 -0.03346059 -0.06086658
v 0.02131615 -0.03349474 -0.06088436
v 0.02039817 -0.03275525 -0.06006653
v 0.02129082 -0.03353961 -0.06087941
v 0.02036759 -0.03279590 -0.06005691
v 0.02128155 -0.03358318 -0.06085305
v 0.02035640 -0.03283793 -0.06002884
v 0.01970171 -0.03197329 -0.05907259
v 0.01971426 -0.03193305 -0.05910264
v 0.01935031 -0.03103261 -0.05803226
v 0.01936359 -0.03099434 -0.05806447
v 0.01931982 -0.03006309 -0.05696001
v 0.01933316 -0.03002682 -0.05699445
v 0.01961176 -0.02911332 -0.05590961
v 0.01962450 -0.02907902 -0.05594623
v 0.02021150 -0.02823093 -0.05493373
v 0.02022299 -0.02819847 -0.05497238
v 0.02108896 -0.02746017 -0.05408132
v 0.02109863 -0.02742930 -0.05412173
v 0.02220015 -0.02683970 -0.05339510
v 0.02220751 -0.02681011 -0.05343693
v 0.02348934 -0.02640061 -0.05290948
v 0.02349403 -0.02637194 -0.05295233
v 0.02489189 -0.02616493 -0.05264883
v 0.02489367 -0.02613674 -0.05269222
v 0.02633747 -0.02614447 -0.05262621
v 0.02633625 -0.02611634 -0.05266965
v 0.02775359 -0.02634028 -0.05284276
v 0.02774943 -0.02631173 -0.05288574
v 0.02906924 -0.02674251 -0.05328761
v 0.02906235 -0.02671313 -0.05332967
v 0.03021845 -0.02733101 -0.05393847
v 0.03020918 -0.02730041 -0.05397917
v 0.01974855 -0.03189731 -0.05911769
v 0.01939987 -0.03096392 -0.05808541
v 0.01936961 -0.03000190 -0.05702147
v 0.01965929 -0.02905949 -0.05597920
v 0.02025439 -0.02818393 -0.05501088
v 0.02112506 -0.02741915 -0.05416506
v 0.02222764 -0.02680347 -0.05348416
v 0.02350685 -0.02636778 -0.05300231
v 0.02489853 -0.02613393 -0.05274368
v 0.02633292 -0.02611363 -0.05272123
v 0.02773808 -0.02630792 -0.05293610
v 0.02904354 -0.02670704 -0.05337751
v 0.03018385 -0.02729098 -0.05402332
v 0.02043993 -0.03272688 -0.06005513
v 0.01979538 -0.03187563 -0.05911369
v 0.01944942 -0.03094953 -0.05808947
v 0.01941940 -0.02999502 -0.05703383
v 0.01970682 -0.02905996 -0.05599970
v 0.02029728 -0.02819123 -0.05503893
v 0.02116115 -0.02743241 -0.05419971
v 0.02225513 -0.02682154 -0.05352412
v 0.02352435 -0.02638925 -0.05304603
v 0.02490518 -0.02615722 -0.05278942
v 0.02632837 -0.02613709 -0.05276715
v 0.02772256 -0.02632986 -0.05298034
v 0.02901784 -0.02672587 -0.05341831
v 0.03014925 -0.02730525 -0.05405908
v 0.02268833 -0.03411937 -0.06159515
v 0.02423456 -0.03452351 -0.06204212
v 0.02588407 -0.03464549 -0.06217701
v 0.02752444 -0.03447697 -0.06199064
v 0.02904388 -0.03402945 -0.06149571
v 0.03033885 -0.03333343 -0.06072594
v 0.03132110 -0.03243633 -0.05973380
v 0.03192369 -0.03139930 -0.05858689
v 0.03210555 -0.03029300 -0.05736338
v 0.03185429 -0.02919284 -0.05614666
v 0.03118703 -0.02817377 -0.05501961
v 0.02872342 0.03510787 -0.03889453
v 0.05974500 -0.01613147 -0.07043802
v 0.05564925 -0.01062507 -0.06864008
v 0.05707046 -0.00985962 -0.06675686
v 0.05567573 -0.01064253 -0.06866279
v 0.05710549 -0.00987247 -0.06676825
v 0.05569819 -0.01067143 -0.06867632
v 0.05713520 -0.00989746 -0.06677217
v 0.05571319 -0.01070737 -0.06867861
v 0.05715505 -0.00993080 -0.06676803
v 0.05760555 -0.00894764 -0.06451317
v 0.05764381 -0.00895500 -0.06451105
v 0.05767624 -0.00897534 -0.06450351
v 0.05769792 -0.00900557 -0.06449173
v 0.05583885 -0.00724064 -0.06031351
v 0.05380603 -0.00670549 -0.05899691
v 0.05586648 -0.00723772 -0.06028611
v 0.05382141 -0.00669935 -0.05896159
v 0.05588989 -0.00724935 -0.06025715
v 0.05383446 -0.00670825 -0.05892590
v 0.05590554 -0.00727376 -0.06023103
v 0.05384317 -0.00673083 -0.05889530
v 0.05138407 -0.00650401 -0.05850120
v 0.05138487 -0.00649665 -0.05846289
v 0.05138556 -0.00650452 -0.05842468
v 0.05138602 -0.00652642 -0.05839238
v 0.05725915 -0.00807254 -0.06219624
v 0.05723895 -0.00804545 -0.06221575
v 0.05720872 -0.00802980 -0.06223482
v 0.05717307 -0.00802798 -0.06225056
v 0.04890815 -0.00669163 -0.05879886
v 0.04891602 -0.00666918 -0.05882978
v 0.04892780 -0.00666048 -0.05886595
v 0.04894170 -0.00666686 -0.05890185
v 0.04685075 -0.00716925 -0.06013786
v 0.04682427 -0.00716590 -0.06010941
v 0.04680181 -0.00717716 -0.06007955
v 0.04678681 -0.00720133 -0.06005284
v 0.04542955 -0.00793470 -0.06202107
v 0.04489445 -0.00884668 -0.06426477
v 0.04532693 -0.00976634 -0.06652737
v 0.04666115 -0.01055368 -0.06846442
v 0.04869397 -0.01108883 -0.06978102
v 0.05111593 -0.01129032 -0.07027673
v 0.05355830 -0.01112747 -0.06987608
v 0.02135075 0.01062507 0.06864008
v 0.02132427 0.01064253 0.06866279
v 0.01989450 0.00987247 0.06676825
v 0.02130182 0.01067143 0.06867632
v 0.01986480 0.00989746 0.06677217
v 0.02128681 0.01070737 0.06867861
v 0.01984495 0.00993080 0.06676803
v 0.01974085 0.00807254 0.06219624
v 0.01930209 0.00900557 0.06449173
v 0.02809185 0.00669163 0.05879886
v 0.02561398 0.00652642 0.05839238
v 0.02109446 0.00727376 0.06023103
v 0.02315683 0.00673083 0.05889530
v 0.03021319 0.00720133 0.06005284
v 0.01932376 0.00897534 0.06450351
v 0.01976105 0.00804545 0.06221575
v 0.02111010 0.00724935 0.06025715
v 0.02316554 0.00670825 0.05892590
v 0.02561444 0.00650452 0.05842468
v 0.02808398 0.00666918 0.05882978
v 0.03019818 0.00717716 0.06007955
v 0.01935619 0.00895500 0.06451105
v 0.01979128 0.00802980 0.06223482
v 0.02113352 0.00723772 0.06028611
v 0.02317859 0.00669935 0.05896159
v 0.02561513 0.00649665 0.05846289
v 0.02807220 0.00666048 0.05886595
v 0.03017573 0.00716590 0.06010941
v 0.01992955 0.00985962 0.06675686
v 0.01939445 0.00894764 0.06451317
v 0.01982693 0.00802798 0.06225056
v 0.02116115 0.00724064 0.06031351
v 0.02319397 0.00670549 0.05899691
v 0.02561593 0.00650401 0.05850120
v 0.02805830 0.00666686 0.05890185
v 0.03014925 0.00716925 0.06013786
v 0.02588407 0.01129032 0.07027673
v 0.02344170 0.01112747 0.06987608
v 0.02830603 0.01108883 0.06978102
v 0.03033885 0.01055368 0.06846442
v 0.03167307 0.00976634 0.06652737
v 0.03210555 0.00884668 0.06426477
v 0.03157046 0.00793470 0.06202107
v 0.04870552 0.03904475 -0.05045353
v 0.05234700 0.01899411 -0.05910497
v 0.03712023 0.06763418 -0.01604615
v 0.01791867 0.05668175 -0.01323256
v 0.02819076 0.07424268 -0.00046178
v 0.04572744 0.03345042 -0.05189040
v 0.04504969 0.03392427 -0.05335920
v 0.04479447 0.03443583 -0.05494490
v 0.04497920 0.03495024 -0.05653943
v 0.04559126 0.03543244 -0.05803413
v 0.04658896 0.03584957 -0.05932713
v 0.04790431 0.03617321 -0.06033032
v 0.04944765 0.03638130 -0.06097534
v 0.05111382 0.03645965 -0.06121823
v 0.05278928 0.03640294 -0.06104243
v 0.05435983 0.03621502 -0.06045992
v 0.02865279 -0.05947958 -0.00656855
v 0.03127256 -0.06127132 0.00757426
v 0.03195031 -0.06280009 0.00736266
v 0.03220553 -0.06445053 0.00713423
v 0.03202080 -0.06611016 0.00690452
v 0.03140874 -0.06766588 0.00668920
v 0.03041104 -0.06901168 0.00650293
v 0.02909570 -0.07005583 0.00635841
v 0.02755235 -0.07072718 0.00626549
v 0.02588618 -0.07097999 0.00623050
v 0.02264017 -0.07019073 0.00633974
v 0.02421072 -0.07079701 0.00625583
v 0.02655357 -0.03863324 0.05088467
v 0.03160549 0.00793596 0.06200395
v 0.03163520 0.00795113 0.06198370
v 0.03165505 0.00797790 0.06196341
v 0.03175915 0.00983616 0.06653520
v 0.03219792 0.00890313 0.06423972
v 0.02340815 0.01121707 0.06993259
v 0.02588602 0.01138229 0.07033906
v 0.03040554 0.01063494 0.06850041
v 0.02834317 0.01117787 0.06983615
v 0.03217624 0.00887325 0.06425236
v 0.03173895 0.00980314 0.06654013
v 0.03038990 0.01059924 0.06849873
v 0.02833446 0.01114034 0.06982997
v 0.02588556 0.01134407 0.07033119
v 0.02341602 0.01117941 0.06992609
v 0.03214381 0.00885343 0.06426115
v 0.03170872 0.00977863 0.06653738
v 0.03036648 0.01057070 0.06848609
v 0.02832141 0.01110908 0.06981061
v 0.02588487 0.01131178 0.07030931
v 0.02342780 0.01114795 0.06990625
v 0.04865683 -0.01117787 -0.06983615
v 0.04480208 -0.00890313 -0.06423972
v 0.04529128 -0.00977863 -0.06653738
v 0.04663352 -0.01057070 -0.06848609
v 0.04526105 -0.00980314 -0.06654013
v 0.04661011 -0.01059924 -0.06849873
v 0.04524085 -0.00983616 -0.06653520
v 0.04659446 -0.01063494 -0.06850041
v 0.04539451 -0.00793596 -0.06200395
v 0.04536480 -0.00795113 -0.06198370
v 0.04534495 -0.00797790 -0.06196341
v 0.04485619 -0.00885343 -0.06426115
v 0.04482376 -0.00887325 -0.06425236
v 0.04866554 -0.01114034 -0.06982997
v 0.04867859 -0.01110908 -0.06981061
v 0.05111399 -0.01138229 -0.07033906
v 0.05111444 -0.01134407 -0.07033119
v 0.05111513 -0.01131178 -0.07030931
v 0.05357220 -0.01114795 -0.06990625
v 0.05358398 -0.01117941 -0.06992609
v 0.05359185 -0.01121707 -0.06993259
v 0.05476231 -0.01649104 -0.04843506
v 0.04785509 -0.02876124 -0.06515024
v 0.03437207 0.04016019 -0.06126022
v 0.01814022 0.04493252 -0.05535593
v 0.03127256 -0.02821319 -0.05491411
v 0.03195031 -0.02924829 -0.05605888
v 0.03220553 -0.03036577 -0.05729475
v 0.03202080 -0.03148946 -0.05853751
v 0.03140874 -0.03254281 -0.05970246
v 0.03041104 -0.03345402 -0.06071020
v 0.02909570 -0.03416099 -0.06149208
v 0.02755235 -0.03461555 -0.06199480
v 0.02264017 -0.03425232 -0.06159309
v 0.02421072 -0.03466282 -0.06204709
v 0.02588618 -0.03478672 -0.06218410
v 0.03122980 -0.02816633 -0.05499141
v 0.03126110 -0.02818076 -0.05495280
v 0.03193745 -0.02921371 -0.05609519
v 0.03219213 -0.03032886 -0.05732850
v 0.03200779 -0.03145023 -0.05856867
v 0.03139700 -0.03250139 -0.05973120
v 0.03040137 -0.03341071 -0.06073686
v 0.02908875 -0.03411622 -0.06151712
v 0.02754861 -0.03456983 -0.06201879
v 0.02588589 -0.03474065 -0.06220770
v 0.02421392 -0.03461701 -0.06207097
v 0.02264662 -0.03420736 -0.06161791
v 0.03190230 -0.02919341 -0.05612732
v 0.03215554 -0.03030224 -0.05735362
v 0.03197224 -0.03141723 -0.05858675
v 0.03136492 -0.03246242 -0.05974268
v 0.03037494 -0.03336657 -0.06074262
v 0.02906979 -0.03406807 -0.06151845
v 0.02753839 -0.03451911 -0.06201727
v 0.02588512 -0.03468895 -0.06220511
v 0.02422264 -0.03456602 -0.06206915
v 0.02266425 -0.03415870 -0.06161867
v 0.03160549 -0.04267456 0.04567659
v 0.03163520 -0.04267504 0.04565129
v 0.03165505 -0.04268491 0.04561918
v 0.03214381 -0.04473816 0.04697208
v 0.03217624 -0.04474910 0.04695335
v 0.03219792 -0.04476597 0.04692563
v 0.03036648 -0.04860071 0.04939692
v 0.02832141 -0.04981163 0.05015711
v 0.03038990 -0.04863125 0.04939050
v 0.02833446 -0.04984831 0.05015455
v 0.03040554 -0.04866121 0.04937100
v 0.02834317 -0.04988237 0.05013762
v 0.02588487 -0.05026754 0.05044333
v 0.02588556 -0.05030654 0.05044222
v 0.02588602 -0.05034215 0.05042626
v 0.03175915 -0.04686457 0.04824310
v 0.03173895 -0.04684065 0.04826639
v 0.03170872 -0.04681914 0.04827848
v 0.02340815 -0.04997053 0.05019297
v 0.02341602 -0.04993618 0.05020971
v 0.02342780 -0.04989905 0.05021200
v 0.01705843 -0.05401909 0.04775335
v 0.02834317 0.02972602 -0.06417473
v 0.03219792 0.02601674 -0.05940654
v 0.03170872 0.02748339 -0.06138002
v 0.03036648 0.02877499 -0.06304035
v 0.03173895 0.02750773 -0.06137602
v 0.03038990 0.02880588 -0.06304476
v 0.03175915 0.02753817 -0.06136230
v 0.03040554 0.02884070 -0.06303667
v 0.03160549 0.02447866 -0.05751751
v 0.03163520 0.02448776 -0.05749391
v 0.03165505 0.02450801 -0.05746711
v 0.03214381 0.02597472 -0.05944067
v 0.03217624 0.02599141 -0.05942682
v 0.02833446 0.02968822 -0.06417898
v 0.02832141 0.02965287 -0.06416885
v 0.02588602 0.03005935 -0.06460322
v 0.02588556 0.03002043 -0.06460603
v 0.02588487 0.02998341 -0.06459374
v 0.02342780 0.02971626 -0.06425033
v 0.02341602 0.02975193 -0.06426088
v 0.02340815 0.02978994 -0.06425690
v 0.05442413 -0.05487748 0.03885356
v 0.04573890 0.03350014 -0.05188165
v 0.04577020 0.03354080 -0.05188846
v 0.04509770 0.03401098 -0.05334589
v 0.04484446 0.03451857 -0.05491931
v 0.04502776 0.03502900 -0.05650150
v 0.04563508 0.03550747 -0.05798462
v 0.04662506 0.03592137 -0.05926761
v 0.04793021 0.03624250 -0.06026304
v 0.04946161 0.03644898 -0.06090306
v 0.05111488 0.03652673 -0.06114407
v 0.05277736 0.03647045 -0.06096962
v 0.05433575 0.03628399 -0.06039163
v 0.04506255 0.03397300 -0.05334741
v 0.04480787 0.03448350 -0.05492982
v 0.04499221 0.03499684 -0.05652104
v 0.04560300 0.03547804 -0.05801264
v 0.04659863 0.03589431 -0.05930296
v 0.04791125 0.03621728 -0.06030407
v 0.04945139 0.03642493 -0.06094775
v 0.05111410 0.03650313 -0.06119013
v 0.05278608 0.03644653 -0.06101469
v 0.05435338 0.03625900 -0.06043340
v 0.05062952 -0.05514784 -0.02618199
v 0.03126110 0.06019627 0.01379760
v 0.03122980 0.06023015 0.01377412
v 0.03190230 0.06158380 0.01449023
v 0.03215554 0.06304517 0.01526334
v 0.03197224 0.06451468 0.01604075
v 0.03136492 0.06589219 0.01676949
v 0.03037494 0.06708381 0.01739990
v 0.02906979 0.06800835 0.01788901
v 0.02753839 0.06860280 0.01820349
v 0.02588512 0.06882664 0.01832190
v 0.02422264 0.06866463 0.01823619
v 0.02266425 0.06812780 0.01795219
v 0.03193745 0.06155765 0.01451781
v 0.03219213 0.06302737 0.01529533
v 0.03200779 0.06450528 0.01607719
v 0.03139700 0.06589065 0.01681009
v 0.03040137 0.06708909 0.01744410
v 0.02908875 0.06801891 0.01793600
v 0.02754861 0.06861676 0.01825228
v 0.02588589 0.06884187 0.01837137
v 0.02421392 0.06867893 0.01828517
v 0.02264662 0.06813903 0.01799955
v 0.03127256 0.06016676 0.01383855
v 0.03195031 0.06153096 0.01456026
v 0.03220553 0.06300373 0.01533940
v 0.03202080 0.06448472 0.01612288
v 0.03140874 0.06587297 0.01685731
v 0.03041104 0.06707390 0.01749263
v 0.02909570 0.06800566 0.01798555
v 0.02755235 0.06860474 0.01830249
v 0.02588618 0.06883033 0.01842183
v 0.02421072 0.06866705 0.01833545
v 0.02264017 0.06812603 0.01804923
v 0.02127459 0.05047345 0.02418884
v 0.01727858 0.06127897 0.00583209
v 0.03126110 -0.06128505 0.00762283
v 0.03122980 -0.06130886 0.00765649
v 0.03190230 -0.06282579 0.00744653
v 0.03215554 -0.06446345 0.00721987
v 0.03197224 -0.06611023 0.00699194
v 0.03136492 -0.06765391 0.00677829
v 0.03037494 -0.06898928 0.00659346
v 0.02906979 -0.07002535 0.00645006
v 0.02753839 -0.07069150 0.00635786
v 0.02588512 -0.07094235 0.00632314
v 0.02422264 -0.07076079 0.00634827
v 0.02266425 -0.07015920 0.00643153
v 0.03193745 -0.06281065 0.00741168
v 0.03219213 -0.06445766 0.00718372
v 0.03200779 -0.06611385 0.00695449
v 0.03139700 -0.06766635 0.00673961
v 0.03040137 -0.06900935 0.00655373
v 0.02908875 -0.07005134 0.00640951
v 0.02754861 -0.07072130 0.00631678
v 0.02588589 -0.07097358 0.00628187
v 0.02421392 -0.07079098 0.00630714
v 0.02264662 -0.07018595 0.00639088
v 0.03122980 0.04527586 0.04204157
v 0.03126110 0.04527622 0.04200035
v 0.03127256 0.04529346 0.04195291
v 0.03195031 0.04665767 0.04267461
v 0.03193745 0.04663759 0.04272056
v 0.03220553 0.04813044 0.04345375
v 0.03219213 0.04810731 0.04349808
v 0.03202080 0.04961142 0.04423723
v 0.03200779 0.04958522 0.04427994
v 0.03140874 0.05099968 0.04497166
v 0.03139700 0.05097060 0.04501284
v 0.03041104 0.05220061 0.04560699
v 0.03040137 0.05216903 0.04564685
v 0.02909570 0.05313236 0.04609991
v 0.02908875 0.05309885 0.04613875
v 0.02755235 0.05373145 0.04641684
v 0.02754861 0.05369669 0.04645503
v 0.02588618 0.05395703 0.04653618
v 0.02588589 0.05392182 0.04657412
v 0.02421072 0.05379375 0.04644981
v 0.02421392 0.05375887 0.04648792
v 0.02264017 0.05325273 0.04616359
v 0.02264662 0.05321897 0.04620229
v 0.03190230 0.04662951 0.04275769
v 0.03215554 0.04809088 0.04353080
v 0.03197224 0.04956039 0.04430821
v 0.03136492 0.05093790 0.04503695
v 0.03037494 0.05212953 0.04566735
v 0.02906979 0.05305406 0.04615646
v 0.02753839 0.05364851 0.04647094
v 0.02588512 0.05387235 0.04658936
v 0.02422264 0.05371033 0.04650365
v 0.02266425 0.05317350 0.04621965
v 0.03747357 -0.05054980 0.02669551
v 0.01519807 -0.05133172 0.02991590
v 0.02475096 -0.06211371 0.01394847
v 0.03956150 0.00797390 0.06464928
v 0.03198020 -0.04369681 -0.05192247
v 0.05769509 -0.03510994 -0.04632986
v 0.01661987 0.02123524 0.05004999
v 0.03467414 0.02615876 0.06674296
v 0.03803111 0.04982621 -0.03461464
f 5 37 4
f 3 37 2
f 2 37 36
f 3 4 37
f 6 36 5
f 2 36 6
f 4 3 14
f 7 8 6
f 6 8 9
f 7 6 10
f 10 6 4
f 10 4 11
f 11 4 12
f 14 13 15
f 14 15 12
f 16 17 14
f 21 18 19
f 6 9 2
f 2 9 20
f 12 4 14
f 5 4 6
f 20 18 2
f 2 18 21
f 3 2 21
f 19 16 21
f 21 16 14
f 3 21 14
f 17 13 14
f 22 23 15
f 15 23 24
f 15 24 12
f 12 24 25
f 12 25 11
f 11 25 26
f 11 26 10
f 10 26 27
f 10 27 7
f 7 27 28
f 7 28 8
f 8 28 29
f 8 29 9
f 9 29 30
f 9 30 20
f 20 30 31
f 20 31 18
f 18 31 32
f 18 32 19
f 19 32 33
f 19 33 16
f 16 33 34
f 16 34 17
f 17 34 35
f 17 35 13
f 13 35 22
f 13 22 15
f 38 1 5
f 25 24 38
f 35 34 37
f 37 34 33
f 37 33 32
f 37 32 36
f 36 32 31
f 36 31 30
f 36 30 29
f 36 29 28
f 36 28 5
f 5 28 27
f 5 27 26
f 38 5 25
f 25 5 26
f 24 23 38
f 23 22 38
f 38 22 35
f 38 35 37
f 37 5 38
f 38 5 1
f 38 5 1
f 1 5 38
f 49 177 747
f 49 731 177
f 93 47 763
f 93 761 47
f 93 95 753
f 46 918 117
f 46 117 659
f 111 114 761
f 1166 115 116
f 44 136 135
f 138 660 115
f 48 154 156
f 156 154 684
f 48 160 136
f 916 49 747
f 157 156 684
f 175 718 180
f 201 50 753
f 761 763 47
f 252 302 303
f 264 52 53
f 53 52 54
f 53 54 55
f 55 54 235
f 54 52 56
f 57 58 59
f 234 60 61
f 61 60 62
f 61 62 264
f 58 57 63
f 58 63 60
f 60 63 64
f 60 64 62
f 235 54 59
f 59 54 56
f 59 56 57
f 67 255 228
f 304 65 66
f 304 66 68
f 68 66 67
f 68 67 228
f 303 251 252
f 87 94 71
f 71 94 72
f 71 72 73
f 73 72 74
f 73 74 75
f 75 74 76
f 75 76 77
f 77 76 78
f 77 78 79
f 79 78 80
f 79 80 81
f 80 82 81
f 81 82 86
f 81 86 83
f 81 83 79
f 79 83 84
f 79 84 77
f 77 84 75
f 75 84 73
f 73 84 71
f 71 84 87
f 86 85 83
f 83 85 84
f 84 85 87
f 86 761 93
f 86 763 95
f 42 85 93
f 85 86 93
f 87 277 86
f 87 85 753
f 85 93 753
f 917 93 42
f 87 86 95
f 917 42 93
f 86 82 88
f 88 82 89
f 88 89 90
f 90 89 91
f 90 91 763
f 763 91 93
f 86 88 92
f 92 88 90
f 92 90 763
f 92 763 86
f 91 94 93
f 72 94 91
f 72 91 74
f 74 91 76
f 76 91 78
f 78 91 80
f 89 82 91
f 91 82 80
f 95 93 94
f 94 87 95
f 97 277 96
f 97 96 98
f 97 98 99
f 98 113 99
f 99 113 100
f 99 100 101
f 101 100 102
f 101 102 103
f 103 102 104
f 103 104 105
f 105 104 106
f 105 106 107
f 107 106 46
f 107 46 117
f 117 109 107
f 107 109 105
f 105 109 103
f 103 109 101
f 101 109 99
f 99 109 108
f 99 108 97
f 97 108 277
f 117 110 109
f 109 110 108
f 108 110 277
f 117 918 110
f 46 111 918
f 918 111 761
f 918 761 86
f 112 96 277
f 117 112 277
f 117 659 112
f 46 113 111
f 96 113 98
f 100 113 46
f 100 46 102
f 102 46 104
f 104 46 106
f 46 659 117
f 114 111 113
f 114 113 96
f 114 96 112
f 114 112 659
f 116 117 115
f 44 43 138
f 119 115 118
f 119 118 120
f 119 120 121
f 120 139 121
f 121 139 122
f 121 122 123
f 123 122 124
f 123 124 125
f 125 124 126
f 125 126 127
f 127 126 128
f 127 128 129
f 129 128 130
f 129 130 137
f 137 134 132
f 137 132 129
f 129 132 127
f 127 132 125
f 125 132 123
f 123 132 121
f 121 132 131
f 121 131 119
f 119 131 115
f 132 134 131
f 131 134 115
f 134 137 135
f 135 136 134
f 136 44 133
f 1167 133 44
f 136 118 115
f 138 115 133
f 138 133 1167
f 138 1167 44
f 135 137 44
f 118 139 120
f 122 139 43
f 122 43 124
f 124 43 126
f 126 43 128
f 128 43 130
f 118 138 139
f 139 138 43
f 43 44 137
f 43 137 130
f 660 138 118
f 136 660 118
f 660 136 135
f 140 155 159
f 140 159 141
f 140 141 142
f 141 158 142
f 142 158 143
f 142 143 144
f 144 143 145
f 144 145 146
f 146 145 147
f 146 147 148
f 148 147 149
f 148 149 150
f 150 149 151
f 150 151 156
f 156 154 153
f 156 153 150
f 150 153 148
f 148 153 146
f 146 153 144
f 144 153 142
f 142 153 152
f 142 152 140
f 140 152 155
f 154 1436 153
f 153 1436 152
f 152 1436 155
f 154 48 852
f 1436 48 136
f 154 157 155
f 48 1436 852
f 157 154 156
f 45 158 48
f 159 158 141
f 143 158 45
f 143 45 145
f 145 45 147
f 147 45 149
f 149 45 151
f 45 48 156
f 45 156 151
f 160 48 158
f 160 158 159
f 160 159 155
f 160 155 157
f 161 166 162
f 306 1340 167
f 303 162 166
f 154 167 684
f 163 166 161
f 163 161 164
f 163 164 165
f 165 164 306
f 165 306 167
f 166 163 165
f 166 165 167
f 167 303 166
f 154 70 167
f 684 167 1340
f 684 1340 306
f 306 164 161
f 306 161 162
f 180 718 173
f 180 173 1317
f 174 173 175
f 174 175 169
f 169 175 170
f 169 170 171
f 171 170 172
f 171 172 168
f 168 172 707
f 171 168 169
f 169 168 174
f 168 162 180
f 174 168 180
f 174 180 1317
f 303 180 162
f 162 174 1317
f 173 718 175
f 170 175 172
f 172 175 707
f 162 1317 173
f 162 173 174
f 162 168 707
f 51 49 916
f 176 179 177
f 177 179 916
f 51 916 179
f 916 178 180
f 178 179 176
f 179 178 180
f 747 177 916
f 178 916 180
f 182 212 201
f 184 214 183
f 184 183 185
f 184 185 186
f 185 218 186
f 186 218 187
f 186 187 188
f 188 187 189
f 188 189 190
f 190 189 191
f 190 191 192
f 192 191 193
f 192 193 194
f 194 193 195
f 194 195 196
f 195 216 196
f 196 216 87
f 196 87 198
f 196 198 194
f 194 198 199
f 194 199 192
f 192 199 190
f 190 199 188
f 188 199 186
f 186 199 197
f 186 197 184
f 184 197 214
f 87 200 198
f 198 200 199
f 199 200 197
f 197 200 214
f 753 50 217
f 753 217 200
f 87 753 200
f 217 1434 200
f 1434 217 181
f 179 69 87
f 179 87 215
f 87 201 212
f 214 215 203
f 214 203 202
f 202 183 214
f 1434 181 200
f 205 212 182
f 205 182 206
f 205 206 207
f 207 206 208
f 207 208 209
f 209 208 210
f 209 210 211
f 211 210 204
f 211 204 203
f 203 204 202
f 212 205 207
f 209 213 207
f 209 211 213
f 213 211 203
f 212 207 213
f 212 213 87
f 213 203 215
f 51 179 200
f 51 200 181
f 215 214 200
f 215 200 179
f 215 87 213
f 87 216 50
f 50 216 217
f 201 87 50
f 183 218 185
f 187 218 219
f 187 219 189
f 189 219 191
f 191 219 193
f 193 219 195
f 219 181 217
f 183 181 218
f 218 181 219
f 219 217 216
f 219 216 195
f 51 181 183
f 202 51 183
f 51 202 204
f 51 204 210
f 51 210 208
f 51 208 206
f 51 206 182
f 51 182 201
f 220 227 221
f 223 224 225
f 42 224 222
f 222 224 223
f 222 223 220
f 220 223 225
f 220 225 227
f 227 42 221
f 221 42 220
f 220 42 226
f 220 226 222
f 222 226 42
f 227 225 224
f 227 224 42
f 233 230 231
f 231 230 232
f 231 232 229
f 229 232 236
f 236 237 238
f 239 304 238
f 238 304 236
f 250 236 304
f 304 68 228
f 240 304 239
f 232 230 241
f 236 232 237
f 237 232 241
f 237 241 238
f 238 241 242
f 238 242 239
f 239 242 243
f 239 243 240
f 240 243 244
f 242 241 244
f 245 244 246
f 246 244 234
f 60 234 58
f 234 235 58
f 58 235 59
f 243 242 244
f 233 244 241
f 233 241 230
f 70 248 167
f 244 233 70
f 70 233 247
f 70 247 248
f 70 234 244
f 303 167 251
f 251 167 248
f 249 231 250
f 250 231 229
f 233 231 247
f 247 231 249
f 247 249 248
f 248 249 251
f 234 70 154
f 251 249 250
f 250 229 236
f 251 250 252
f 252 250 255
f 250 304 228
f 154 253 234
f 234 253 254
f 234 254 55
f 55 235 234
f 250 228 255
f 255 259 252
f 252 259 155
f 256 259 257
f 55 254 53
f 53 254 258
f 53 258 264
f 154 155 253
f 253 155 256
f 253 256 254
f 254 256 257
f 254 257 258
f 259 256 155
f 262 260 261
f 262 261 263
f 262 263 305
f 67 66 65
f 255 67 65
f 258 257 264
f 264 62 64
f 64 63 264
f 264 63 57
f 264 57 52
f 52 57 56
f 264 257 259
f 265 87 69
f 265 69 266
f 266 69 267
f 69 301 267
f 301 69 179
f 275 269 300
f 300 269 270
f 300 270 271
f 271 270 272
f 271 272 273
f 273 272 274
f 273 274 268
f 268 274 281
f 276 277 278
f 276 278 275
f 275 278 279
f 275 279 269
f 289 282 283
f 283 282 284
f 283 284 285
f 285 284 286
f 285 286 287
f 288 267 289
f 289 267 301
f 280 290 291
f 280 291 281
f 281 291 289
f 292 265 293
f 293 265 266
f 293 266 288
f 288 266 267
f 289 283 288
f 288 283 285
f 288 285 293
f 293 285 287
f 293 287 292
f 282 289 291
f 282 291 284
f 284 291 290
f 284 290 286
f 87 265 295
f 295 265 292
f 295 292 296
f 277 87 295
f 277 295 294
f 294 295 296
f 294 296 297
f 297 296 298
f 292 287 296
f 296 287 286
f 296 286 298
f 298 286 290
f 298 290 280
f 297 270 269
f 269 279 297
f 297 279 278
f 297 278 294
f 294 278 277
f 270 297 272
f 272 297 298
f 272 298 274
f 274 298 280
f 274 280 281
f 268 299 273
f 273 299 271
f 271 299 300
f 300 299 301
f 275 300 276
f 276 300 301
f 268 281 299
f 299 281 289
f 299 289 301
f 155 302 252
f 117 116 303
f 303 116 179
f 179 116 117
f 660 135 787
f 662 157 696
f 697 162 698
f 95 763 47
f 176 177 747
f 160 157 662
f 178 176 307
f 707 175 718
f 51 50 788
f 50 51 201
f 311 312 1374
f 313 314 1374
f 313 1374 315
f 315 1374 316
f 316 1374 317
f 317 1374 318
f 318 1374 319
f 1374 312 320
f 1374 320 319
f 311 1374 321
f 321 1374 322
f 322 1374 323
f 324 348 325
f 325 348 326
f 326 348 327
f 327 348 328
f 328 348 329
f 330 348 331
f 331 348 332
f 332 348 333
f 333 348 334
f 348 335 336
f 348 336 337
f 348 337 338
f 348 338 334
f 329 348 330
f 348 339 340
f 348 340 341
f 348 341 342
f 348 342 335
f 324 343 348
f 348 343 344
f 348 344 345
f 348 345 346
f 348 346 347
f 348 347 339
f 327 349 350
f 349 351 352
f 351 314 313
f 351 313 352
f 352 313 315
f 352 315 353
f 353 315 316
f 353 316 354
f 354 316 317
f 354 317 355
f 355 317 318
f 355 318 356
f 356 318 319
f 356 319 357
f 357 319 320
f 357 320 358
f 358 320 312
f 358 312 359
f 359 312 311
f 359 311 360
f 360 311 321
f 360 321 361
f 361 321 322
f 361 322 362
f 362 322 323
f 362 323 363
f 349 352 350
f 350 352 353
f 350 353 364
f 364 353 354
f 364 354 365
f 365 354 355
f 365 355 366
f 366 355 356
f 366 356 367
f 367 356 357
f 367 357 368
f 368 357 358
f 368 358 369
f 369 358 359
f 369 359 370
f 370 359 360
f 370 360 371
f 371 360 361
f 371 361 372
f 372 361 362
f 372 362 373
f 373 362 363
f 373 363 374
f 327 350 326
f 326 350 364
f 326 364 325
f 325 364 365
f 325 365 324
f 324 365 366
f 324 366 343
f 343 366 367
f 343 367 344
f 344 367 368
f 344 368 345
f 345 368 369
f 345 369 346
f 346 369 370
f 346 370 347
f 347 370 371
f 347 371 339
f 339 371 372
f 339 372 340
f 340 372 373
f 340 373 341
f 341 373 374
f 341 374 342
f 375 376 377
f 376 378 379
f 378 380 381
f 378 381 379
f 379 381 382
f 379 382 383
f 383 382 384
f 383 384 385
f 385 384 386
f 385 386 387
f 387 386 388
f 387 388 389
f 389 388 390
f 389 390 391
f 391 390 392
f 391 392 393
f 393 392 394
f 393 394 395
f 395 394 396
f 395 396 397
f 397 396 398
f 397 398 399
f 399 398 400
f 399 400 401
f 401 400 402
f 401 402 403
f 403 402 404
f 403 404 405
f 405 404 406
f 405 406 407
f 376 379 377
f 377 379 383
f 377 383 408
f 408 383 385
f 408 385 409
f 409 385 387
f 409 387 410
f 410 387 389
f 410 389 411
f 411 389 391
f 411 391 412
f 412 391 393
f 412 393 413
f 413 393 395
f 413 395 414
f 414 395 397
f 414 397 415
f 415 397 399
f 415 399 416
f 416 399 401
f 416 401 417
f 417 401 403
f 417 403 418
f 418 403 405
f 418 405 419
f 419 405 407
f 419 407 420
f 375 377 421
f 421 377 408
f 421 408 422
f 422 408 409
f 422 409 423
f 423 409 410
f 423 410 424
f 424 410 411
f 424 411 425
f 425 411 412
f 425 412 426
f 426 412 413
f 426 413 427
f 427 413 414
f 427 414 428
f 428 414 415
f 428 415 429
f 429 415 416
f 429 416 430
f 430 416 417
f 430 417 431
f 431 417 418
f 431 418 432
f 432 418 419
f 432 419 433
f 433 419 420
f 433 420 434
f 388 1433 390
f 390 1433 392
f 435 1433 436
f 436 1433 437
f 437 1433 438
f 392 1433 394
f 394 1433 396
f 396 1433 398
f 398 1433 400
f 435 439 1433
f 1433 439 440
f 1433 440 406
f 1433 406 404
f 1433 404 402
f 1433 402 400
f 388 386 1433
f 1433 386 384
f 384 382 1433
f 1433 382 381
f 1433 381 380
f 1433 380 441
f 1433 441 442
f 438 1433 443
f 443 1433 444
f 444 1433 445
f 445 1433 442
f 533 446 447
f 447 453 533
f 448 452 449
f 533 453 452
f 452 448 533
f 449 450 448
f 450 449 451
f 451 449 452
f 533 448 454
f 533 455 459
f 455 457 459
f 457 455 458
f 455 533 458
f 454 458 533
f 458 454 448
f 461 490 462
f 503 537 462
f 462 490 503
f 465 464 509
f 467 466 464
f 464 466 509
f 460 463 466
f 468 467 469
f 469 467 464
f 469 464 465
f 461 462 470
f 470 462 468
f 462 537 467
f 468 462 467
f 532 467 537
f 472 473 471
f 471 473 474
f 471 475 476
f 476 475 477
f 476 477 478
f 471 476 472
f 472 476 478
f 472 478 479
f 479 478 480
f 477 481 478
f 478 481 482
f 478 482 480
f 480 482 483
f 480 483 484
f 479 485 486
f 486 487 479
f 479 487 488
f 479 488 472
f 472 488 489
f 472 489 473
f 485 479 492
f 492 479 480
f 492 480 491
f 491 480 484
f 491 484 490
f 490 484 503
f 493 494 495
f 493 495 496
f 496 495 497
f 496 497 498
f 498 497 482
f 498 482 481
f 500 506 501
f 501 506 499
f 501 499 494
f 484 483 502
f 484 502 503
f 477 475 504
f 504 475 505
f 504 505 500
f 500 505 506
f 499 537 494
f 494 493 501
f 501 493 496
f 501 496 500
f 500 496 498
f 500 498 504
f 504 498 481
f 504 481 477
f 494 537 503
f 494 503 495
f 495 503 502
f 495 502 497
f 497 502 483
f 497 483 482
f 465 509 510
f 536 511 507
f 512 513 514
f 514 513 515
f 514 515 466
f 466 515 516
f 466 516 508
f 517 466 463
f 466 518 514
f 514 518 519
f 514 519 512
f 520 474 473
f 520 473 521
f 521 473 489
f 521 489 522
f 522 489 488
f 522 488 510
f 510 488 487
f 510 487 465
f 465 487 486
f 509 466 523
f 523 466 524
f 523 524 525
f 525 524 526
f 525 526 527
f 527 526 528
f 527 528 529
f 529 528 530
f 529 530 474
f 510 509 523
f 510 523 522
f 522 523 525
f 522 525 521
f 521 525 527
f 521 527 520
f 520 527 529
f 520 529 474
f 474 530 511
f 460 507 531
f 460 531 463
f 463 531 517
f 466 517 518
f 518 517 531
f 518 531 519
f 519 531 507
f 519 507 512
f 512 507 511
f 512 511 513
f 513 511 530
f 513 530 515
f 515 530 528
f 515 528 516
f 516 528 526
f 516 526 508
f 508 526 524
f 508 524 466
f 534 535 446
f 490 461 491
f 491 461 470
f 491 470 492
f 492 470 468
f 492 468 485
f 485 468 469
f 485 469 486
f 486 469 465
f 474 511 536
f 536 507 460
f 475 471 658
f 475 658 505
f 505 658 506
f 658 537 499
f 658 499 506
f 537 658 116
f 537 116 460
f 538 539 578
f 538 578 545
f 540 539 538
f 538 545 541
f 538 541 542
f 542 541 543
f 582 547 550
f 582 550 548
f 582 546 547
f 582 578 546
f 546 578 539
f 551 552 553
f 553 552 540
f 553 540 538
f 556 548 554
f 554 548 550
f 554 550 555
f 550 547 555
f 555 547 546
f 555 546 552
f 552 546 539
f 552 539 540
f 559 544 533
f 533 544 549
f 554 557 556
f 554 555 557
f 557 555 552
f 557 552 551
f 551 576 557
f 560 561 563
f 563 561 562
f 563 562 564
f 564 565 558
f 559 563 564
f 559 564 558
f 560 567 561
f 561 567 568
f 561 568 562
f 562 568 569
f 565 570 558
f 558 570 566
f 572 570 571
f 571 570 565
f 571 565 569
f 569 565 564
f 569 564 562
f 557 569 568
f 568 567 557
f 557 572 571
f 557 571 569
f 574 576 575
f 572 574 573
f 572 573 577
f 580 577 573
f 583 580 581
f 581 580 573
f 581 573 579
f 579 573 574
f 583 581 579
f 579 559 583
f 544 559 545
f 574 572 576
f 576 572 557
f 572 577 570
f 570 577 580
f 570 580 566
f 566 580 583
f 558 583 559
f 566 583 558
f 582 544 578
f 585 630 774
f 585 584 586
f 588 587 627
f 590 591 592
f 592 591 593
f 620 594 593
f 593 594 592
f 592 594 590
f 597 598 603
f 603 598 599
f 600 601 602
f 598 601 599
f 599 601 600
f 599 600 590
f 590 600 602
f 590 602 591
f 644 595 594
f 594 595 590
f 590 595 603
f 590 603 599
f 604 584 638
f 605 606 607
f 620 608 609
f 609 608 610
f 609 610 611
f 611 610 612
f 611 612 613
f 613 612 614
f 613 614 615
f 615 614 616
f 615 616 606
f 605 640 617
f 617 640 589
f 617 589 618
f 618 589 619
f 620 593 621
f 621 593 591
f 621 591 622
f 622 591 602
f 622 602 623
f 623 602 601
f 623 601 624
f 624 601 598
f 624 598 625
f 625 598 597
f 625 597 607
f 606 605 615
f 615 605 617
f 615 617 613
f 613 617 618
f 613 618 611
f 611 618 619
f 611 619 609
f 609 619 589
f 609 589 620
f 638 640 605
f 638 605 607
f 607 606 616
f 607 616 625
f 625 616 614
f 625 614 624
f 624 614 612
f 624 612 623
f 623 612 610
f 623 610 622
f 622 610 608
f 622 608 621
f 621 608 620
f 628 588 649
f 1375 587 626
f 627 587 595
f 595 587 1375
f 649 588 627
f 631 596 632
f 632 596 630
f 633 626 634
f 634 626 635
f 626 636 635
f 1375 626 633
f 1375 633 637
f 1375 637 629
f 584 774 638
f 627 646 642
f 627 642 643
f 627 643 649
f 646 641 642
f 639 649 640
f 641 645 642
f 642 645 648
f 642 648 643
f 646 644 647
f 647 644 648
f 627 595 644
f 638 628 639
f 639 628 649
f 627 644 646
f 641 646 647
f 641 647 645
f 645 647 648
f 638 639 640
f 657 596 595
f 596 657 630
f 630 657 651
f 587 774 630
f 626 587 630
f 656 629 652
f 652 629 637
f 652 637 653
f 653 637 633
f 653 633 654
f 626 651 636
f 636 651 655
f 636 655 635
f 635 655 654
f 635 654 634
f 634 654 633
f 652 653 656
f 654 655 657
f 657 595 650
f 655 651 657
f 657 656 654
f 654 656 653
f 656 657 650
f 1375 629 656
f 656 650 1375
f 1375 650 595
f 628 638 774
f 651 626 630
f 116 1078 659
f 1169 1078 116
f 659 1078 1169
f 659 1169 116
f 659 116 658
f 659 117 116
f 787 661 660
f 787 116 660
f 787 660 116
f 660 116 115
f 661 116 660
f 160 672 136
f 160 662 663
f 160 663 672
f 672 663 664
f 664 663 665
f 666 663 309
f 666 309 667
f 667 309 668
f 668 309 669
f 669 309 670
f 663 662 309
f 309 662 671
f 309 671 670
f 135 671 662
f 672 696 534
f 672 664 696
f 310 662 696
f 135 672 787
f 787 135 662
f 787 662 310
f 674 787 673
f 674 673 675
f 676 675 673
f 676 673 696
f 135 787 677
f 677 787 674
f 677 674 678
f 678 674 675
f 678 675 679
f 679 675 680
f 680 675 681
f 681 675 682
f 682 675 676
f 682 676 683
f 683 676 696
f 696 664 683
f 683 664 665
f 683 665 682
f 665 663 682
f 682 663 666
f 682 666 681
f 681 666 667
f 681 667 680
f 680 667 668
f 680 668 679
f 679 668 669
f 679 669 678
f 678 669 670
f 678 670 677
f 670 671 677
f 677 671 135
f 534 787 672
f 135 136 672
f 306 694 684
f 306 162 697
f 306 697 685
f 694 306 685
f 686 685 687
f 686 687 688
f 688 687 689
f 689 687 690
f 690 687 691
f 685 697 698
f 687 685 698
f 687 692 691
f 687 156 692
f 157 692 156
f 157 696 692
f 156 687 698
f 694 693 696
f 694 157 684
f 695 698 162
f 694 695 162
f 694 162 557
f 696 157 694
f 697 41 698
f 156 698 696
f 699 696 695
f 699 695 700
f 700 695 694
f 701 696 699
f 701 699 702
f 702 699 700
f 702 700 703
f 703 700 704
f 704 700 705
f 705 700 706
f 706 700 694
f 694 685 706
f 706 685 686
f 706 686 705
f 705 686 688
f 705 688 704
f 704 688 689
f 704 689 703
f 703 689 690
f 703 690 702
f 702 690 691
f 702 691 701
f 691 692 701
f 701 692 696
f 696 157 156
f 1433 162 707
f 707 162 1433
f 707 556 162
f 162 556 557
f 178 307 709
f 178 709 708
f 710 709 711
f 712 709 717
f 712 717 713
f 713 717 714
f 714 717 715
f 715 717 716
f 717 709 307
f 717 307 718
f 707 178 708
f 1194 307 176
f 1194 176 719
f 175 707 718
f 707 175 180
f 707 718 307
f 707 307 720
f 720 307 1194
f 721 720 719
f 722 707 720
f 722 720 721
f 721 719 723
f 723 719 724
f 724 719 707
f 724 707 708
f 718 707 722
f 718 722 725
f 725 722 726
f 726 722 721
f 726 721 727
f 727 721 723
f 727 723 728
f 728 723 729
f 729 723 724
f 729 724 730
f 730 724 708
f 708 709 710
f 708 710 730
f 730 710 711
f 730 711 729
f 711 709 729
f 729 709 712
f 729 712 728
f 728 712 713
f 728 713 727
f 727 713 714
f 727 714 726
f 726 714 715
f 726 715 725
f 725 715 716
f 725 716 718
f 716 717 718
f 446 707 737
f 707 180 178
f 746 49 51
f 731 49 746
f 732 747 177
f 733 732 177
f 733 177 734
f 734 177 731
f 734 731 735
f 735 731 746
f 735 746 736
f 756 51 308
f 738 308 51
f 738 51 756
f 740 741 742
f 741 740 743
f 743 740 739
f 743 739 744
f 745 740 742
f 747 732 739
f 739 732 744
f 744 732 733
f 744 733 743
f 743 733 734
f 743 734 741
f 741 734 735
f 741 735 742
f 742 735 736
f 742 736 745
f 745 736 746
f 745 756 740
f 739 740 737
f 739 737 747
f 747 308 738
f 737 756 308
f 308 747 737
f 740 756 737
f 745 746 756
f 756 746 51
f 748 750 749
f 95 788 750
f 751 752 750
f 750 752 749
f 756 755 50
f 50 201 756
f 756 752 754
f 754 752 751
f 754 751 755
f 755 751 750
f 756 754 755
f 50 755 750
f 50 750 788
f 756 788 95
f 471 756 95
f 756 201 753
f 758 756 757
f 758 757 759
f 759 757 760
f 95 757 756
f 757 95 750
f 757 750 760
f 760 750 748
f 760 748 759
f 759 748 749
f 759 749 758
f 749 752 758
f 758 752 756
f 756 51 788
f 756 753 95
f 788 348 756
f 114 659 762
f 114 762 761
f 761 762 765
f 765 764 766
f 767 764 768
f 767 768 769
f 769 768 770
f 770 768 771
f 771 768 772
f 765 762 764
f 764 762 776
f 768 764 776
f 768 776 773
f 768 773 772
f 763 773 776
f 471 773 763
f 47 763 776
f 471 587 659
f 1170 588 587
f 761 765 471
f 587 762 659
f 776 588 628
f 774 775 628
f 471 775 777
f 775 47 776
f 47 775 471
f 775 776 628
f 778 777 775
f 778 775 471
f 471 777 779
f 779 777 780
f 780 777 781
f 781 777 782
f 782 777 783
f 783 777 784
f 784 777 778
f 784 778 785
f 785 778 471
f 471 765 785
f 785 765 766
f 785 766 784
f 766 764 784
f 784 764 767
f 784 767 783
f 783 767 769
f 783 769 782
f 782 769 770
f 782 770 781
f 781 770 771
f 781 771 780
f 780 771 772
f 780 772 779
f 772 773 779
f 779 773 471
f 471 95 47
f 471 763 761
f 588 776 762
f 588 762 587
f 632 630 585
f 632 585 586
f 632 586 631
f 631 586 584
f 638 596 604
f 604 596 631
f 604 631 584
f 607 597 603
f 607 603 595
f 607 595 638
f 638 595 596
f 587 588 1170
f 695 696 698
f 775 587 471
f 659 658 471
f 560 563 693
f 693 563 533
f 533 563 559
f 693 694 560
f 560 694 567
f 567 694 557
f 661 787 116
f 696 673 310
f 310 673 787
f 533 696 693
f 786 542 543
f 541 574 575
f 574 541 545
f 576 786 575
f 575 786 543
f 575 543 541
f 538 542 553
f 553 542 786
f 553 786 551
f 551 786 576
f 466 467 460
f 467 532 460
f 459 534 533
f 534 459 535
f 535 459 456
f 456 459 457
f 448 450 458
f 451 456 450
f 450 456 457
f 450 457 458
f 453 451 452
f 456 451 453
f 456 453 535
f 453 447 446
f 453 446 535
f 549 446 533
f 698 41 697
f 348 788 756
f 1374 789 790
f 1374 790 791
f 791 792 1374
f 1374 792 793
f 1374 793 794
f 794 795 1374
f 1374 795 796
f 1374 796 797
f 1374 797 798
f 799 1374 800
f 800 1374 801
f 801 1374 798
f 789 802 803
f 802 804 805
f 804 806 807
f 804 807 805
f 805 807 808
f 805 808 809
f 809 808 810
f 809 810 811
f 811 810 812
f 811 812 813
f 813 812 814
f 813 814 815
f 815 814 816
f 815 816 817
f 817 816 818
f 817 818 819
f 819 818 820
f 819 820 821
f 821 820 822
f 821 822 823
f 823 822 824
f 823 824 825
f 825 824 826
f 825 826 827
f 827 826 828
f 827 828 829
f 802 805 803
f 803 805 809
f 803 809 830
f 830 809 811
f 830 811 831
f 831 811 813
f 831 813 832
f 832 813 815
f 832 815 833
f 833 815 817
f 833 817 834
f 834 817 819
f 834 819 835
f 835 819 821
f 835 821 836
f 836 821 823
f 836 823 837
f 837 823 825
f 837 825 838
f 838 825 827
f 838 827 839
f 839 827 829
f 839 829 840
f 789 803 790
f 790 803 830
f 790 830 791
f 791 830 831
f 791 831 792
f 792 831 832
f 792 832 793
f 793 832 833
f 793 833 794
f 794 833 834
f 794 834 795
f 795 834 835
f 795 835 796
f 796 835 836
f 796 836 797
f 797 836 837
f 797 837 798
f 798 837 838
f 798 838 801
f 801 838 839
f 801 839 800
f 800 839 840
f 800 840 799
f 810 628 812
f 812 628 814
f 814 628 816
f 816 628 818
f 818 628 820
f 841 628 842
f 842 628 843
f 843 628 844
f 841 845 628
f 628 845 846
f 628 846 828
f 628 828 826
f 628 826 824
f 628 824 822
f 628 822 820
f 844 628 847
f 847 628 848
f 848 628 849
f 810 808 628
f 628 808 807
f 628 807 806
f 628 806 850
f 628 850 851
f 628 851 849
f 853 1166 854
f 854 1166 855
f 855 1166 856
f 853 857 1166
f 1166 857 858
f 1166 858 859
f 1166 859 860
f 1166 860 861
f 1166 862 863
f 1166 863 864
f 856 1166 865
f 865 1166 866
f 1166 861 867
f 1166 867 868
f 1166 868 869
f 1166 869 870
f 1166 870 862
f 864 871 1166
f 1166 871 872
f 1166 872 873
f 1166 873 874
f 1166 874 875
f 866 1166 876
f 876 1166 875
f 877 878 879
f 878 880 881
f 880 859 858
f 880 858 881
f 881 858 857
f 881 857 882
f 882 857 853
f 882 853 883
f 883 853 854
f 883 854 884
f 884 854 855
f 884 855 885
f 885 855 856
f 885 856 886
f 886 856 865
f 886 865 887
f 887 865 866
f 887 866 888
f 888 866 876
f 888 876 889
f 889 876 875
f 889 875 890
f 890 875 874
f 890 874 891
f 891 874 873
f 891 873 892
f 878 881 879
f 879 881 882
f 879 882 893
f 893 882 883
f 893 883 894
f 894 883 884
f 894 884 895
f 895 884 885
f 895 885 896
f 896 885 886
f 896 886 897
f 897 886 887
f 897 887 898
f 898 887 888
f 898 888 899
f 899 888 889
f 899 889 900
f 900 889 890
f 900 890 901
f 901 890 891
f 901 891 902
f 902 891 892
f 902 892 903
f 877 879 904
f 904 879 893
f 904 893 905
f 905 893 894
f 905 894 906
f 906 894 895
f 906 895 907
f 907 895 896
f 907 896 908
f 908 896 897
f 908 897 909
f 909 897 898
f 909 898 910
f 910 898 899
f 910 899 911
f 911 899 900
f 911 900 912
f 912 900 901
f 912 901 913
f 913 901 902
f 913 902 914
f 914 902 903
f 914 903 915
f 919 920 921
f 921 920 922
f 921 922 923
f 923 922 924
f 923 924 925
f 925 924 926
f 925 926 1240
f 920 927 922
f 922 927 928
f 922 928 924
f 924 928 929
f 924 929 926
f 926 929 930
f 931 932 933
f 933 932 934
f 933 934 935
f 935 934 936
f 935 936 937
f 937 936 938
f 937 938 1078
f 932 939 934
f 934 939 940
f 934 940 936
f 936 940 941
f 936 941 938
f 938 941 942
f 930 1240 926
f 943 1240 930
f 943 930 944
f 944 930 929
f 944 929 945
f 945 929 928
f 945 928 946
f 946 928 927
f 946 931 945
f 945 931 933
f 945 933 944
f 944 933 935
f 944 935 943
f 943 935 937
f 943 937 1240
f 1240 937 1078
f 942 1078 938
f 947 1078 942
f 947 942 948
f 948 942 941
f 948 941 949
f 949 941 940
f 949 940 950
f 950 940 939
f 950 951 949
f 949 951 952
f 949 952 948
f 948 952 953
f 948 953 947
f 947 953 954
f 947 954 1078
f 939 661 950
f 950 661 951
f 951 661 955
f 955 661 956
f 956 661 957
f 957 661 958
f 958 661 959
f 959 661 960
f 960 661 961
f 961 661 919
f 919 661 920
f 920 661 927
f 927 661 946
f 946 661 931
f 931 661 932
f 932 661 939
f 966 967 968
f 968 967 969
f 968 969 970
f 970 969 971
f 970 971 972
f 972 971 973
f 974 975 976
f 976 975 977
f 976 977 978
f 978 977 979
f 978 979 980
f 980 979 981
f 980 981 1295
f 975 982 977
f 977 982 983
f 977 983 979
f 979 983 984
f 979 984 981
f 981 984 965
f 981 965 1295
f 1295 965 1432
f 982 966 983
f 983 966 968
f 983 968 984
f 984 968 970
f 984 970 965
f 965 970 972
f 965 972 1432
f 973 1432 972
f 964 1432 973
f 964 973 985
f 985 973 971
f 985 971 986
f 986 971 969
f 986 969 987
f 987 969 967
f 988 1432 964
f 988 964 989
f 989 964 985
f 989 985 990
f 990 985 986
f 990 986 991
f 991 986 987
f 991 992 990
f 990 992 993
f 990 993 989
f 989 993 994
f 989 994 988
f 988 994 995
f 988 995 1432
f 992 996 993
f 993 996 997
f 993 997 994
f 994 997 998
f 994 998 995
f 995 998 999
f 995 999 1432
f 1432 999 963
f 991 1194 992
f 992 1194 996
f 996 1194 1000
f 1000 1194 1001
f 1001 1194 1002
f 1002 1194 1003
f 1003 1194 1004
f 1004 1194 1005
f 1005 1194 1006
f 1006 1194 974
f 974 1194 975
f 975 1194 982
f 982 1194 966
f 966 1194 967
f 967 1194 987
f 987 1194 991
f 1007 1008 1009
f 1008 1010 1011
f 1010 1012 1013
f 1010 1013 1011
f 1011 1013 1014
f 1011 1014 1015
f 1015 1014 1016
f 1015 1016 1017
f 1017 1016 1018
f 1017 1018 1019
f 1019 1018 1020
f 1019 1020 1021
f 1021 1020 1022
f 1021 1022 1023
f 1023 1022 1024
f 1023 1024 1025
f 1025 1024 1026
f 1025 1026 1027
f 1027 1026 1028
f 1027 1028 1029
f 1029 1028 1030
f 1029 1030 1031
f 1031 1030 1032
f 1031 1032 1033
f 1033 1032 1034
f 1033 1034 1035
f 1035 1034 1036
f 1035 1036 1037
f 1037 1036 1038
f 1037 1038 1039
f 1008 1011 1009
f 1009 1011 1015
f 1009 1015 1040
f 1040 1015 1017
f 1040 1017 1041
f 1041 1017 1019
f 1041 1019 1042
f 1042 1019 1021
f 1042 1021 1043
f 1043 1021 1023
f 1043 1023 1044
f 1044 1023 1025
f 1044 1025 1045
f 1045 1025 1027
f 1045 1027 1046
f 1046 1027 1029
f 1046 1029 1047
f 1047 1029 1031
f 1047 1031 1048
f 1048 1031 1033
f 1048 1033 1049
f 1049 1033 1035
f 1049 1035 1050
f 1050 1035 1037
f 1050 1037 1051
f 1051 1037 1039
f 1051 1039 1052
f 1007 1009 1053
f 1053 1009 1040
f 1053 1040 1054
f 1054 1040 1041
f 1054 1041 1055
f 1055 1041 1042
f 1055 1042 1056
f 1056 1042 1043
f 1056 1043 1057
f 1057 1043 1044
f 1057 1044 1058
f 1058 1044 1045
f 1058 1045 1059
f 1059 1045 1046
f 1059 1046 1060
f 1060 1046 1047
f 1060 1047 1061
f 1061 1047 1048
f 1061 1048 1062
f 1062 1048 1049
f 1062 1049 1063
f 1063 1049 1050
f 1063 1050 1064
f 1064 1050 1051
f 1064 1051 1065
f 1065 1051 1052
f 1065 1052 1066
f 1056 310 1055
f 1055 310 1054
f 1054 310 1053
f 1053 310 1007
f 1007 310 1067
f 1067 310 1068
f 1069 310 1070
f 1070 310 1071
f 1071 310 1072
f 1072 310 1073
f 1073 310 1074
f 1074 310 1075
f 1075 310 1076
f 1076 310 1077
f 1077 310 1066
f 1068 310 1069
f 1056 1057 310
f 310 1057 1058
f 310 1058 1059
f 1066 310 1065
f 1065 310 1064
f 1064 310 1063
f 1062 310 1061
f 1061 310 1060
f 1060 310 1059
f 1063 310 1062
f 1012 1435 1013
f 1013 1435 1014
f 1014 1435 1016
f 1016 1435 1018
f 1435 1024 1022
f 1435 1022 1020
f 1435 1020 1018
f 1032 1030 1435
f 1435 1030 1028
f 1435 1028 1026
f 1435 1026 1024
f 1032 1435 1034
f 1034 1435 1036
f 1036 1435 1038
f 1436 1237 1238
f 1080 1081 1082
f 1082 1081 1083
f 1082 1083 1084
f 1084 1083 1085
f 1084 1085 1086
f 1086 1085 1087
f 1086 1087 1079
f 1081 1088 1083
f 1083 1088 1089
f 1083 1089 1085
f 1085 1089 1090
f 1085 1090 1087
f 1087 1090 1091
f 1092 1093 1094
f 1094 1093 1095
f 1094 1095 1096
f 1096 1095 1097
f 1096 1097 1098
f 1098 1097 1099
f 1098 1099 1237
f 1093 1100 1095
f 1095 1100 1101
f 1095 1101 1097
f 1097 1101 1102
f 1097 1102 1099
f 1099 1102 1103
f 1091 1237 1079
f 1091 1079 1087
f 1104 1237 1091
f 1104 1091 1105
f 1105 1091 1090
f 1105 1090 1106
f 1106 1090 1089
f 1106 1089 1107
f 1107 1089 1088
f 1107 1092 1106
f 1106 1092 1094
f 1106 1094 1105
f 1105 1094 1096
f 1105 1096 1104
f 1104 1096 1098
f 1104 1098 1237
f 1103 1237 1099
f 1108 1237 1103
f 1108 1103 1109
f 1109 1103 1102
f 1109 1102 1110
f 1110 1102 1101
f 1110 1101 1111
f 1111 1101 1100
f 1111 1112 1110
f 1110 1112 1113
f 1110 1113 1109
f 1109 1113 1114
f 1109 1114 1108
f 1108 1114 1115
f 1108 1115 1237
f 1100 133 1111
f 1111 133 1112
f 1112 133 1116
f 1116 133 1117
f 1117 133 1118
f 1118 133 1119
f 1119 133 1120
f 1120 133 1121
f 1121 133 1122
f 1122 133 1080
f 1080 133 1081
f 1081 133 1088
f 1088 133 1107
f 1107 133 1092
f 1092 133 1093
f 1093 133 1100
f 1123 1124 1125
f 1124 1126 1127
f 1126 1128 1129
f 1128 1438 1437
f 1437 1130 1131
f 1128 1437 1129
f 1129 1437 1131
f 1437 1132 1133
f 1130 1437 1134
f 1134 1437 1135
f 1135 1437 1133
f 1132 1437 1438
f 1132 1438 1136
f 1126 1129 1127
f 1127 1129 1131
f 1127 1131 1137
f 1137 1131 1130
f 1137 1130 1138
f 1138 1130 1134
f 1138 1134 1139
f 1139 1134 1135
f 1139 1135 1140
f 1140 1135 1133
f 1140 1133 1141
f 1141 1133 1132
f 1141 1132 1142
f 1142 1132 1136
f 1142 1136 1143
f 1124 1127 1125
f 1125 1127 1137
f 1125 1137 1144
f 1144 1137 1138
f 1144 1138 1145
f 1145 1138 1139
f 1145 1139 1146
f 1146 1139 1140
f 1146 1140 1147
f 1147 1140 1141
f 1147 1141 1148
f 1148 1141 1142
f 1148 1142 1149
f 1149 1142 1143
f 1149 1143 1150
f 1123 1125 1151
f 1151 1125 1144
f 1151 1144 1152
f 1152 1144 1145
f 1152 1145 1153
f 1153 1145 1146
f 1153 1146 1154
f 1154 1146 1147
f 1154 1147 1155
f 1155 1147 1148
f 1155 1148 1156
f 1156 1148 1149
f 1156 1149 1157
f 1157 1149 1150
f 1157 1150 1158
f 1156 738 1155
f 1155 738 1154
f 1154 738 1153
f 1153 738 1152
f 1152 738 1151
f 1151 738 1123
f 1123 738 1160
f 1160 738 1159
f 1159 738 1161
f 1161 738 1162
f 1162 738 1163
f 1163 738 1164
f 1164 738 1165
f 1165 738 1158
f 1158 738 1157
f 1157 738 1156
f 39 40 1166
f 1166 40 1439
f 1182 375 421
f 421 422 1182
f 1182 422 423
f 423 424 1182
f 1182 424 425
f 425 426 1182
f 1182 426 427
f 427 428 1182
f 1182 428 429
f 1182 429 430
f 1182 430 431
f 434 1182 433
f 433 1182 432
f 432 1182 431
f 1167 877 904
f 1167 904 905
f 905 906 1167
f 1167 906 907
f 907 908 1167
f 1167 908 909
f 909 910 1167
f 1167 910 911
f 1167 911 912
f 915 1167 914
f 914 1167 913
f 913 1167 912
f 587 1168 1170
f 587 1169 1168
f 587 1170 1169
f 915 1171 1167
f 1167 1171 1172
f 1172 1173 1167
f 1167 1173 1174
f 1167 1174 1175
f 1175 1176 1167
f 1167 1176 1177
f 1177 1178 1167
f 1167 1178 1179
f 1167 1179 1180
f 1167 1180 1181
f 1167 1181 877
f 1182 434 1183
f 1182 1183 1184
f 1184 1185 1182
f 1182 1185 1186
f 1186 1187 1182
f 1182 1187 1188
f 1182 1188 1189
f 1189 1190 1182
f 1182 1190 1191
f 375 1182 1192
f 1192 1182 1193
f 1193 1182 1191
f 1166 1439 39
f 1158 1150 1195
f 1150 1143 1196
f 1143 1136 1197
f 1438 1198 1199
f 1136 1438 1197
f 1197 1438 1199
f 1438 1200 1201
f 1198 1438 1202
f 1202 1438 1203
f 1203 1438 1201
f 1200 1438 1128
f 1143 1197 1196
f 1196 1197 1199
f 1196 1199 1204
f 1204 1199 1198
f 1204 1198 1205
f 1205 1198 1202
f 1205 1202 1206
f 1206 1202 1203
f 1206 1203 1207
f 1207 1203 1201
f 1207 1201 1208
f 1208 1201 1200
f 1208 1200 1209
f 1209 1200 1128
f 1209 1128 1126
f 1150 1196 1195
f 1195 1196 1204
f 1195 1204 1210
f 1210 1204 1205
f 1210 1205 1211
f 1211 1205 1206
f 1211 1206 1212
f 1212 1206 1207
f 1212 1207 1213
f 1213 1207 1208
f 1213 1208 1214
f 1214 1208 1209
f 1214 1209 1215
f 1215 1209 1126
f 1215 1126 1124
f 1158 1195 1165
f 1165 1195 1210
f 1165 1210 1164
f 1164 1210 1211
f 1164 1211 1163
f 1163 1211 1212
f 1163 1212 1162
f 1162 1212 1213
f 1162 1213 1161
f 1161 1213 1214
f 1161 1214 1159
f 1159 1214 1215
f 1159 1215 1160
f 1160 1215 1124
f 1160 1124 1123
f 1118 1119 1218
f 1218 1119 1219
f 1218 1219 1220
f 1220 1219 1221
f 1220 1221 1222
f 1222 1221 1223
f 1112 1116 1113
f 1113 1116 1224
f 1113 1224 1114
f 1114 1224 1225
f 1114 1225 1115
f 1115 1225 1226
f 1115 1226 1237
f 1237 1226 1238
f 1116 1117 1224
f 1224 1117 1227
f 1224 1227 1225
f 1225 1227 1228
f 1225 1228 1226
f 1226 1228 1217
f 1226 1217 1238
f 1117 1118 1227
f 1227 1118 1218
f 1227 1218 1228
f 1228 1218 1220
f 1228 1220 1217
f 1217 1220 1222
f 1217 1222 1238
f 1223 1238 1222
f 1079 1238 1216
f 1216 1238 1223
f 1216 1223 1229
f 1229 1223 1221
f 1229 1221 1230
f 1230 1221 1219
f 1230 1219 1120
f 1120 1219 1119
f 1231 1079 1216
f 1231 1216 1232
f 1232 1216 1229
f 1232 1229 1233
f 1233 1229 1230
f 1233 1230 1121
f 1121 1230 1120
f 1121 1122 1233
f 1233 1122 1234
f 1233 1234 1232
f 1232 1234 1235
f 1232 1235 1231
f 1231 1235 1236
f 1231 1236 1079
f 1122 1080 1234
f 1234 1080 1082
f 1234 1082 1235
f 1235 1082 1084
f 1235 1084 1236
f 1236 1084 1086
f 1236 1086 1079
f 1237 1436 1238
f 1241 1038 1435
f 1241 1435 1242
f 1242 1435 1243
f 1243 1435 1244
f 1244 1435 1245
f 1245 1435 1246
f 1246 1435 1247
f 1247 1435 1248
f 1012 1249 1435
f 1435 1249 1250
f 1435 1250 1251
f 1435 1251 1248
f 1066 1052 1252
f 1052 1039 1253
f 1039 1038 1241
f 1039 1241 1253
f 1253 1241 1242
f 1253 1242 1254
f 1254 1242 1243
f 1254 1243 1255
f 1255 1243 1244
f 1255 1244 1256
f 1256 1244 1245
f 1256 1245 1257
f 1257 1245 1246
f 1257 1246 1258
f 1258 1246 1247
f 1258 1247 1259
f 1259 1247 1248
f 1259 1248 1260
f 1260 1248 1251
f 1260 1251 1261
f 1261 1251 1250
f 1261 1250 1262
f 1262 1250 1249
f 1262 1249 1263
f 1263 1249 1012
f 1263 1012 1010
f 1052 1253 1252
f 1252 1253 1254
f 1252 1254 1264
f 1264 1254 1255
f 1264 1255 1265
f 1265 1255 1256
f 1265 1256 1266
f 1266 1256 1257
f 1266 1257 1267
f 1267 1257 1258
f 1267 1258 1268
f 1268 1258 1259
f 1268 1259 1269
f 1269 1259 1260
f 1269 1260 1270
f 1270 1260 1261
f 1270 1261 1271
f 1271 1261 1262
f 1271 1262 1272
f 1272 1262 1263
f 1272 1263 1273
f 1273 1263 1010
f 1273 1010 1008
f 1066 1252 1077
f 1077 1252 1264
f 1077 1264 1076
f 1076 1264 1265
f 1076 1265 1075
f 1075 1265 1266
f 1075 1266 1074
f 1074 1266 1267
f 1074 1267 1073
f 1073 1267 1268
f 1073 1268 1072
f 1072 1268 1269
f 1072 1269 1071
f 1071 1269 1270
f 1071 1270 1070
f 1070 1270 1271
f 1070 1271 1069
f 1069 1271 1272
f 1069 1272 1068
f 1068 1272 1273
f 1068 1273 1067
f 1067 1273 1008
f 1067 1008 1007
f 996 1000 997
f 997 1000 1274
f 997 1274 998
f 998 1274 1275
f 998 1275 999
f 999 1275 1276
f 999 1276 963
f 1000 1001 1274
f 1274 1001 1277
f 1274 1277 1275
f 1275 1277 1278
f 1275 1278 1276
f 1276 1278 1279
f 1003 1004 1280
f 1280 1004 1281
f 1280 1281 1282
f 1282 1281 1283
f 1282 1283 1284
f 1284 1283 1285
f 1284 1285 963
f 1004 1005 1281
f 1281 1005 1286
f 1281 1286 1283
f 1283 1286 1287
f 1283 1287 1285
f 1285 1287 1288
f 1279 963 1276
f 1289 963 1279
f 1289 1279 1290
f 1290 1279 1278
f 1290 1278 1291
f 1291 1278 1277
f 1291 1277 1002
f 1002 1277 1001
f 1002 1003 1291
f 1291 1003 1280
f 1291 1280 1290
f 1290 1280 1282
f 1290 1282 1289
f 1289 1282 1284
f 1289 1284 963
f 1288 1295 1285
f 1285 1295 963
f 1292 1295 1288
f 1292 1288 1293
f 1293 1288 1287
f 1293 1287 1294
f 1294 1287 1286
f 1294 1286 1006
f 1006 1286 1005
f 1006 974 1294
f 1294 974 976
f 1294 976 1293
f 1293 976 978
f 1293 978 1292
f 1292 978 980
f 1292 980 1295
f 1431 963 1432
f 962 963 1295
f 1432 963 1431
f 1432 962 1295
f 1239 1078 1297
f 957 958 1298
f 1298 958 1299
f 1298 1299 1300
f 1300 1299 1301
f 1300 1301 1302
f 1302 1301 1303
f 951 955 952
f 952 955 1304
f 952 1304 953
f 953 1304 1305
f 953 1305 954
f 954 1305 1306
f 954 1306 1078
f 955 956 1304
f 1304 956 1307
f 1304 1307 1305
f 1305 1307 1308
f 1305 1308 1306
f 1306 1308 1297
f 1306 1297 1078
f 956 957 1307
f 1307 957 1298
f 1307 1298 1308
f 1308 1298 1300
f 1308 1300 1297
f 1297 1300 1302
f 1297 1302 1239
f 1303 1239 1302
f 1296 1239 1303
f 1296 1303 1309
f 1309 1303 1301
f 1309 1301 1310
f 1310 1301 1299
f 1310 1299 959
f 959 1299 958
f 1240 1239 1311
f 1311 1239 1296
f 1311 1296 1312
f 1312 1296 1309
f 1312 1309 1313
f 1313 1309 1310
f 1313 1310 960
f 960 1310 959
f 960 961 1313
f 1313 961 1314
f 1313 1314 1312
f 1312 1314 1315
f 1312 1315 1311
f 1311 1315 1316
f 1311 1316 1240
f 961 919 1314
f 1314 919 921
f 1314 921 1315
f 1315 921 923
f 1315 923 1316
f 1316 923 925
f 1316 925 1240
f 915 903 1318
f 903 892 1319
f 892 873 872
f 892 872 1319
f 1319 872 871
f 1319 871 1320
f 1320 871 864
f 1320 864 1321
f 1321 864 863
f 1321 863 1322
f 1322 863 862
f 1322 862 1323
f 1323 862 870
f 1323 870 1324
f 1324 870 869
f 1324 869 1325
f 1325 869 868
f 1325 868 1326
f 1326 868 867
f 1326 867 1327
f 1327 867 861
f 1327 861 1328
f 1328 861 860
f 1328 860 1329
f 1329 860 859
f 1329 859 880
f 903 1319 1318
f 1318 1319 1320
f 1318 1320 1330
f 1330 1320 1321
f 1330 1321 1331
f 1331 1321 1322
f 1331 1322 1332
f 1332 1322 1323
f 1332 1323 1333
f 1333 1323 1324
f 1333 1324 1334
f 1334 1324 1325
f 1334 1325 1335
f 1335 1325 1326
f 1335 1326 1336
f 1336 1326 1327
f 1336 1327 1337
f 1337 1327 1328
f 1337 1328 1338
f 1338 1328 1329
f 1338 1329 1339
f 1339 1329 880
f 1339 880 878
f 915 1318 1171
f 1171 1318 1330
f 1171 1330 1172
f 1172 1330 1331
f 1172 1331 1173
f 1173 1331 1332
f 1173 1332 1174
f 1174 1332 1333
f 1174 1333 1175
f 1175 1333 1334
f 1175 1334 1176
f 1176 1334 1335
f 1176 1335 1177
f 1177 1335 1336
f 1177 1336 1178
f 1178 1336 1337
f 1178 1337 1179
f 1179 1337 1338
f 1179 1338 1180
f 1180 1338 1339
f 1180 1339 1181
f 1181 1339 878
f 1181 878 877
f 799 840 1341
f 840 829 1342
f 829 828 846
f 829 846 1342
f 1342 846 845
f 1342 845 1343
f 1343 845 841
f 1343 841 1344
f 1344 841 842
f 1344 842 1345
f 1345 842 843
f 1345 843 1346
f 1346 843 844
f 1346 844 1347
f 1347 844 847
f 1347 847 1348
f 1348 847 848
f 1348 848 1349
f 1349 848 849
f 1349 849 1350
f 1350 849 851
f 1350 851 1351
f 1351 851 850
f 1351 850 1352
f 1352 850 806
f 1352 806 804
f 840 1342 1341
f 1341 1342 1343
f 1341 1343 1353
f 1353 1343 1344
f 1353 1344 1354
f 1354 1344 1345
f 1354 1345 1355
f 1355 1345 1346
f 1355 1346 1356
f 1356 1346 1347
f 1356 1347 1357
f 1357 1347 1348
f 1357 1348 1358
f 1358 1348 1349
f 1358 1349 1359
f 1359 1349 1350
f 1359 1350 1360
f 1360 1350 1351
f 1360 1351 1361
f 1361 1351 1352
f 1361 1352 1362
f 1362 1352 804
f 1362 804 802
f 799 1341 1363
f 1363 1341 1353
f 1363 1353 1364
f 1364 1353 1354
f 1364 1354 1365
f 1365 1354 1355
f 1365 1355 1366
f 1366 1355 1356
f 1366 1356 1367
f 1367 1356 1357
f 1367 1357 1368
f 1368 1357 1358
f 1368 1358 1369
f 1369 1358 1359
f 1369 1359 1370
f 1370 1359 1360
f 1370 1360 1371
f 1371 1360 1361
f 1371 1361 1372
f 1372 1361 1362
f 1372 1362 1373
f 1373 1362 802
f 1373 802 789
f 799 1363 1374
f 1374 1363 1364
f 1374 1364 1365
f 1365 1366 1374
f 1374 1366 1367
f 1367 1368 1374
f 1374 1368 1369
f 1369 1370 1374
f 1374 1370 1371
f 789 1374 1373
f 1373 1374 1372
f 1372 1374 1371
f 640 649 589
f 589 649 620
f 649 643 620
f 620 643 648
f 644 594 620
f 644 620 648
f 774 584 585
f 534 696 533
f 787 534 446
f 707 446 549
f 532 537 460
f 460 116 536
f 737 536 116
f 116 787 446
f 434 420 1376
f 420 407 1377
f 407 406 440
f 407 440 1377
f 1377 440 439
f 1377 439 1378
f 1378 439 435
f 1378 435 1379
f 1379 435 436
f 1379 436 1380
f 1380 436 437
f 1380 437 1381
f 1381 437 438
f 1381 438 1382
f 1382 438 443
f 1382 443 1383
f 1383 443 444
f 1383 444 1384
f 1384 444 445
f 1384 445 1385
f 1385 445 442
f 1385 442 1386
f 1386 442 441
f 1386 441 1387
f 1387 441 380
f 1387 380 378
f 420 1377 1376
f 1376 1377 1378
f 1376 1378 1388
f 1388 1378 1379
f 1388 1379 1389
f 1389 1379 1380
f 1389 1380 1390
f 1390 1380 1381
f 1390 1381 1391
f 1391 1381 1382
f 1391 1382 1392
f 1392 1382 1383
f 1392 1383 1393
f 1393 1383 1384
f 1393 1384 1394
f 1394 1384 1385
f 1394 1385 1395
f 1395 1385 1386
f 1395 1386 1396
f 1396 1386 1387
f 1396 1387 1397
f 1397 1387 378
f 1397 378 376
f 434 1376 1183
f 1183 1376 1388
f 1183 1388 1184
f 1184 1388 1389
f 1184 1389 1185
f 1185 1389 1390
f 1185 1390 1186
f 1186 1390 1391
f 1186 1391 1187
f 1187 1391 1392
f 1187 1392 1188
f 1188 1392 1393
f 1188 1393 1189
f 1189 1393 1394
f 1189 1394 1190
f 1190 1394 1395
f 1190 1395 1191
f 1191 1395 1396
f 1191 1396 1193
f 1193 1396 1397
f 1193 1397 1192
f 1192 1397 376
f 1192 376 375
f 342 374 1398
f 374 363 1399
f 363 323 1400
f 363 1400 1399
f 1399 1400 1401
f 1399 1401 1402
f 1402 1401 1403
f 1402 1403 1404
f 1404 1403 1405
f 1404 1405 1406
f 1406 1405 1407
f 1406 1407 1408
f 1408 1407 1409
f 1408 1409 1410
f 1410 1409 1411
f 1410 1411 1412
f 1412 1411 1413
f 1412 1413 1414
f 1414 1413 1415
f 1414 1415 1416
f 1416 1415 1417
f 1416 1417 1418
f 1418 1417 1419
f 1418 1419 1420
f 1420 1419 314
f 1420 314 351
f 374 1399 1398
f 1398 1399 1402
f 1398 1402 1421
f 1421 1402 1404
f 1421 1404 1422
f 1422 1404 1406
f 1422 1406 1423
f 1423 1406 1408
f 1423 1408 1424
f 1424 1408 1410
f 1424 1410 1425
f 1425 1410 1412
f 1425 1412 1426
f 1426 1412 1414
f 1426 1414 1427
f 1427 1414 1416
f 1427 1416 1428
f 1428 1416 1418
f 1428 1418 1429
f 1429 1418 1420
f 1429 1420 1430
f 1430 1420 351
f 1430 351 349
f 342 1398 335
f 335 1398 1421
f 335 1421 336
f 336 1421 1422
f 336 1422 337
f 337 1422 1423
f 337 1423 338
f 338 1423 1424
f 338 1424 334
f 334 1424 1425
f 334 1425 333
f 333 1425 1426
f 333 1426 332
f 332 1426 1427
f 332 1427 331
f 331 1427 1428
f 331 1428 330
f 330 1428 1429
f 330 1429 329
f 329 1429 1430
f 329 1430 328
f 328 1430 349
f 328 349 327
f 323 1374 1400
f 1400 1374 1401
f 1401 1374 1403
f 1403 1374 1405
f 1405 1374 1407
f 1407 1374 1409
f 1374 1413 1411
f 1374 1411 1409
f 314 1419 1374
f 1374 1419 1417
f 1374 1417 1415
f 1374 1415 1413
f 117 303 155
f 301 179 117
f 301 117 276
f 180 303 179
f 303 302 155
f 155 115 117
f 1431 1433 1432
f 1433 1431 1432
f 1438 788 1437
f 918 39 1439
f 788 1438 1437
f 962 1432 963
f 1079 1237 1238
f 1170 1168 1169
f 1078 1239 1240
f 544 545 578
f 545 579 574
f 559 579 545
f 707 719 176
f 774 587 775
f 474 756 471
f 738 756 737
f 747 738 737
f 737 707 176
f 719 720 1194
f 707 548 556
f 544 582 549
f 549 582 548
f 549 548 707
f 756 474 536
f 737 756 536
f 737 176 747
f 446 737 116
f 65 259 255
f 85 42 93
f 86 277 110
f 86 110 918
f 1166 116 115
f 133 134 136
f 136 115 155
f 136 155 1436
f 852 1436 154
f 276 117 277
f 115 134 133
f 264 259 61
f 61 259 234
f 234 259 305
f 234 305 263
f 234 263 246
f 246 263 261
f 246 261 245
f 245 261 260
f 245 260 244
f 304 305 65
f 65 305 259
f 260 262 244
f 244 262 240
f 240 262 305
f 240 305 304
f 918 1439 39
f 1439 40 39

