# https://github.com/mikedh/trimesh
v 0.00521172 -0.00784706 -0.01484223
v 0.05227228 0.00618735 0.00354786
v 0.05450000 0.00689656 -0.00763386
v 0.04804472 -0.00586719 -0.00788001
v 0.01043266 -0.01480163 -0.00455675
v 0.05182673 -0.00326576 0.00585122
v 0.05450000 -0.00199857 0.00150191
v 0.05450000 -0.00107167 0.00225865
v 0.05450000 0.00010073 0.00249797
v 0.05450000 -0.00246761 0.00040109
v 0.05450000 -0.00237136 -0.00079161
v 0.05450000 -0.00173186 -0.00180296
v 0.05450000 0.00050000 -0.00244949
v 0.05185294 0.00020267 -0.00606235
v 0.05450000 -0.00069561 -0.00240128
v 0.05450000 0.00229992 -0.00097998
v 0.05450000 0.00158106 -0.00193655
v 0.05450000 0.00211301 0.00133611
v 0.05450000 0.00249190 0.00020110
v 0.05450000 0.00125006 0.00216503
v 0.05292105 0.00530668 -0.00286449
v 0.00600000 0.00050000 -0.00244949
v 0.00600000 -0.00069561 -0.00240128
v 0.00600000 -0.00125006 -0.00216503
v 0.00600000 -0.00173186 -0.00180296
v 0.00600000 -0.00237136 -0.00079161
v 0.00600000 -0.00246761 0.00040109
v 0.00600000 -0.00199857 0.00150191
v 0.00600000 -0.00107167 0.00225865
v 0.00600000 0.00010073 0.00249797
v 0.00600000 0.00125006 0.00216503
v 0.00600000 0.00211301 0.00133611
v 0.00600000 0.00249190 0.00020110
v 0.00600000 0.00229992 -0.00097998
v 0.00600000 0.00158106 -0.00193655
v 0.00929653 0.00047090 0.01513589
v 0.01005922 0.01507374 -0.00579992
v 0.00712226 -0.00336193 -0.01254812
v 0.05498214 0.04850358 -0.05514896
v 0.05859840 0.03196795 -0.04059023
v 0.02574635 -0.05465513 -0.03123560
v 0.02443518 -0.06618823 -0.01063342
v 0.03853237 -0.01544479 -0.04133062
v 0.03968240 -0.01895103 -0.04767511
v 0.03853236 -0.03839822 -0.02173338
v 0.03862878 0.00700119 0.03575237
v 0.03830207 0.03757546 -0.02307948
v 0.03815648 0.03592666 -0.00002492
v 0.03884090 -0.05342819 -0.03220518
v 0.03859466 0.00877069 0.02799950
v 0.03845777 0.01438345 0.02686431
v 0.06128803 -0.02400057 -0.00664373
v 0.06095840 -0.02582455 -0.00597980
v 0.06088190 -0.02582443 -0.00597984
v 0.06057277 -0.02765179 -0.00531468
v 0.06124654 -0.02400221 -0.00663445
v 0.06120387 -0.02400711 -0.00660162
v 0.06042043 -0.02762682 -0.00528819
v 0.06045575 -0.02764213 -0.00530994
v 0.06039942 -0.02760971 -0.00525324
v 0.06077585 -0.02580825 -0.00586576
v 0.06117307 -0.02402088 -0.00652749
v 0.06119249 -0.02400994 -0.00658572
v 0.06118004 -0.02401461 -0.00655935
v 0.06190345 -0.02257849 -0.00353044
v 0.06174924 -0.02273910 -0.00371267
v 0.06174631 -0.02260316 -0.00355440
v 0.06178239 -0.02258370 -0.00353568
v 0.06171361 -0.02297802 -0.00138219
v 0.06213362 0.01805451 0.01371838
v 0.06059456 -0.02724379 -0.00232614
v 0.06065174 -0.02804802 -0.00460702
v 0.06252277 -0.02123356 0.00303557
v 0.05072416 0.04207933 0.00793476
v 0.03896373 0.04314548 0.00785723
v 0.05071381 0.04225950 0.00773687
v 0.03896159 0.04322992 0.00762121
v 0.05070914 0.04236454 0.00746884
v 0.03896374 0.04323119 0.00737062
v 0.05071311 0.04235745 0.00718104
v 0.03896993 0.04314945 0.00713342
v 0.05072346 0.04225580 0.00693347
v 0.03897947 0.04299376 0.00693622
v 0.05073678 0.04209963 0.00675777
v 0.03899927 0.04290106 0.00686811
v 0.05643322 0.04269821 0.00705702
v 0.05636968 0.04274889 0.00782809
v 0.05765610 0.04421361 0.00821084
v 0.05405307 0.02889202 0.00322070
v 0.03880851 0.03692243 0.00387705
v 0.03880851 0.04279693 0.00676580
v 0.03864159 0.03697724 0.00377796
v 0.03854258 0.04350391 0.00721314
v 0.03864159 0.03139388 0.00040170
v 0.04380759 0.04376288 0.01365322
v 0.03869664 0.04297290 0.00816353
v 0.03882900 0.03755068 -0.02075154
v 0.05073748 0.03724835 -0.02075118
v 0.03897946 0.03802752 -0.02122491
v 0.05072416 0.03733500 -0.02096969
v 0.03896373 0.03810189 -0.02171440
v 0.05071381 0.03734583 -0.02123710
v 0.03896159 0.03801486 -0.02194947
v 0.05070914 0.03725400 -0.02150994
v 0.03896374 0.03785475 -0.02214225
v 0.05071311 0.03706357 -0.02172585
v 0.03896993 0.03763967 -0.02227141
v 0.05072346 0.03682657 -0.02185016
v 0.05644677 0.03763287 -0.02099984
v 0.05631227 0.03766371 -0.02175420
v 0.05743991 0.03843198 -0.02194906
v 0.04019800 0.04887230 -0.03059831
v 0.05101339 0.02311991 -0.01528838
v 0.03864436 0.03822623 -0.02138809
v 0.03850547 0.02891372 -0.01055881
v 0.05712374 0.00143084 -0.02781499
v 0.05889481 0.01266050 -0.02084317
v 0.03901681 -0.01408133 -0.04078850
v 0.05073748 -0.01396781 -0.04028587
v 0.03897946 -0.01429905 -0.04113546
v 0.05072416 -0.01416796 -0.04040914
v 0.03896373 -0.01476819 -0.04129370
v 0.05071381 -0.01442942 -0.04046624
v 0.03896159 -0.01501480 -0.04124881
v 0.05070914 -0.01471407 -0.04042319
v 0.03896374 -0.01523245 -0.04112462
v 0.05071311 -0.01495976 -0.04027314
v 0.03896993 -0.01539700 -0.04093523
v 0.05072346 -0.01512334 -0.04006133
v 0.03897947 -0.01548994 -0.04070180
v 0.05644677 -0.01414593 -0.04070773
v 0.05631228 -0.01488347 -0.04086909
v 0.05717140 -0.01559418 -0.04070178
v 0.02337025 -0.00960965 -0.02775355
v 0.04619251 -0.01222504 -0.02774915
v 0.05347468 -0.02959327 -0.06180091
v 0.03875743 -0.01545283 -0.03476540
v 0.03877470 -0.01496935 -0.04629187
v 0.03884898 -0.01450594 -0.04129032
v 0.05073748 -0.03659522 -0.02188243
v 0.03897946 -0.03739507 -0.02232035
v 0.05072416 -0.03682779 -0.02184821
v 0.03896373 -0.03785616 -0.02214000
v 0.05071381 -0.03706478 -0.02172388
v 0.03896159 -0.03801623 -0.02194710
v 0.05070914 -0.03725515 -0.02150794
v 0.03896374 -0.03810313 -0.02171205
v 0.05071311 -0.03734692 -0.02123507
v 0.03896993 -0.03810744 -0.02146120
v 0.05072346 -0.03733608 -0.02096766
v 0.03897947 -0.03802859 -0.02122265
v 0.05644677 -0.03700284 -0.02209110
v 0.05631228 -0.03767155 -0.02174062
v 0.05818029 -0.02833295 -0.00795262
v 0.05119363 -0.02323364 -0.01886674
v 0.03830963 -0.03228303 -0.01284821
v 0.03845255 -0.02765700 -0.01123573
v 0.03864436 -0.03763574 -0.02241085
v 0.03882900 -0.03674675 -0.02214408
v 0.03850344 -0.02357266 -0.01975318
v 0.03902832 -0.02982279 0.00101234
v 0.03118590 -0.03818481 0.01882234
v 0.06111837 -0.05478260 0.02364867
v 0.04997371 -0.03008136 0.00119576
v 0.03898300 -0.03009205 0.00062634
v 0.04997763 -0.03025307 0.00098232
v 0.03898239 -0.03030769 0.00047702
v 0.04997904 -0.03048627 0.00081830
v 0.03898299 -0.03055427 0.00038910
v 0.04997763 -0.03075626 0.00072670
v 0.05048752 -0.02997616 0.00130202
v 0.05218353 -0.02946604 -0.00019397
v 0.05826356 -0.03854502 0.00345973
v 0.03902832 -0.02219486 0.01994522
v 0.05095362 -0.01546253 0.02581812
v 0.03849216 -0.01512125 0.02649668
v 0.04997763 -0.01600606 0.02627321
v 0.03898239 -0.01556556 0.02600956
v 0.04997904 -0.01595040 0.02599359
v 0.03898300 -0.01558707 0.02574814
v 0.05106924 -0.03775363 0.05076504
v 0.04997371 -0.02227504 0.02025193
v 0.03898300 -0.02264924 0.01982260
v 0.04997763 -0.02254377 0.02019880
v 0.05661459 -0.02779910 0.03202958
v 0.05615880 -0.02378523 0.01094981
v 0.05048752 -0.02212615 0.02026572
v 0.03425682 -0.01794919 0.02320427
v 0.03812127 -0.02368927 0.01802555
v 0.03860547 0.00499557 0.02989318
v 0.05941528 0.00865115 0.02499541
v 0.05454470 -0.00402169 0.02924272
v 0.03844808 -0.00057453 0.04695516
v 0.03815951 0.02914044 0.03572260
v 0.03902832 0.01578810 0.02532112
v 0.03901680 0.02718251 0.03351250
v 0.05073748 0.02690403 0.03307906
v 0.03897946 0.02750587 0.03376413
v 0.05072416 0.02713427 0.03312644
v 0.03896373 0.02800083 0.03375237
v 0.05071381 0.02739949 0.03309067
v 0.03896159 0.02821722 0.03362584
v 0.05070914 0.02765224 0.03295286
v 0.03896374 0.02837927 0.03343469
v 0.05071311 0.02783181 0.03272783
v 0.03896993 0.02846912 0.03320045
v 0.05072346 0.02791307 0.03247285
v 0.03897947 0.02847662 0.03294931
v 0.05073678 0.02790638 0.03223788
v 0.05644677 0.02721569 0.03341456
v 0.05643322 0.02817256 0.03285187
v 0.05638184 0.02784506 0.03337968
v 0.05770045 0.03351010 0.03850086
v 0.03855940 0.02355278 0.01965045
v 0.05188027 0.03975874 0.04681751
v 0.03904227 0.01595230 0.02673843
v 0.05038730 0.01616504 0.02655484
v 0.03898476 0.01572680 0.02650307
v 0.04997371 0.01607623 0.02545334
v 0.03898300 0.01558845 0.02574730
v 0.04997763 0.01597725 0.02570877
v 0.03898239 0.01556696 0.02600872
v 0.04997904 0.01595180 0.02599273
v 0.03898299 0.01561411 0.02626623
v 0.04997763 0.01600747 0.02627235
v 0.05048752 0.01611567 0.02530911
v 0.05259438 0.01407082 0.02534339
v 0.05717085 0.02405400 0.03118093
v 0.03885988 0.02846083 0.03281957
v 0.03844592 0.03210748 0.03610872
v 0.03884899 0.02775325 0.03383888
v 0.03871408 0.02856480 0.03334985
v 0.05980248 0.06195735 0.01064744
v 0.05837182 0.06505578 0.01309601
v 0.05852467 0.06478105 0.01339334
v 0.05835516 0.06501590 0.01306119
v 0.05836047 0.06503730 0.01308134
v 0.05816526 0.06554393 0.01241647
v 0.05817608 0.06556739 0.01242705
v 0.05857820 0.06443591 0.01346705
v 0.05816503 0.06592382 0.01210603
v 0.06173885 -0.02300070 -0.00123284
v 0.06166167 -0.02377228 -0.00108053
v 0.06049365 -0.02780215 -0.00446181
v 0.06109883 -0.02578430 -0.00276872
v 0.06102353 -0.02578413 -0.00276858
v 0.06049812 -0.02791110 -0.00458111
v 0.06047187 -0.02794463 -0.00507683
v 0.06043254 -0.02780425 -0.00522770
v 0.06165094 -0.02356054 -0.00096292
v 0.06155361 -0.02376047 -0.00108116
v 0.06151793 -0.02373705 -0.00109658
v 0.06149749 -0.02370761 -0.00112451
v 0.06102166 -0.02534688 -0.00255037
v 0.06045598 -0.02779155 -0.00446292
v 0.06042078 -0.02776994 -0.00447790
v 0.06039963 -0.02774210 -0.00450461
v 0.06036391 -0.02794190 -0.00471141
v 0.06035658 -0.02785242 -0.00476977
v 0.06035100 -0.02785283 -0.00491043
v 0.06061116 -0.02781302 -0.00446053
v 0.06064640 -0.02783495 -0.00444511
v 0.06066690 -0.02786235 -0.00441871
v 0.06175631 -0.02383703 -0.00103620
v 0.06173617 -0.02380776 -0.00106409
v 0.06170082 -0.02378437 -0.00107971
v 0.06182291 -0.02330859 -0.00092447
v 0.06185046 -0.02348991 -0.00088339
v 0.06201427 -0.02299929 -0.00095088
v 0.06199517 -0.02293897 -0.00137129
v 0.06064640 -0.02767691 -0.00534159
v 0.06061010 -0.02766122 -0.00531925
v 0.06201285 -0.02257307 -0.00352529
v 0.06201411 -0.02250116 -0.00393314
v 0.06199517 -0.02202494 -0.00655582
v 0.06231583 -0.02053314 -0.00748423
v 0.06173563 -0.02273597 -0.00714103
v 0.06143702 -0.02399602 -0.00667710
v 0.06140109 -0.02399939 -0.00665201
v 0.06176556 -0.02266916 -0.00717452
v 0.06184231 -0.02236418 -0.00715439
v 0.06096050 -0.02554527 -0.00296313
v 0.06096657 -0.02551457 -0.00301747
v 0.06115012 -0.02556545 -0.00289484
v 0.06106772 -0.02546256 -0.00305114
v 0.06131279 -0.02403135 -0.00646262
v 0.06138684 -0.02271706 -0.00645676
v 0.06221053 0.01989353 0.01020933
v 0.06227773 0.01940890 0.01077295
v 0.06278959 0.01799089 0.01099141
v 0.06242076 0.01888126 0.01103118
v 0.06210525 0.01979540 0.01015897
v 0.06219198 0.01937866 0.01066122
v 0.06214639 0.01968009 0.01035818
v 0.06213649 0.02207601 -0.00277707
v 0.06213649 0.02218808 0.00165885
v 0.06210525 0.02191208 0.00386308
v 0.06213649 0.02191208 0.00386308
v 0.06210525 0.02141766 0.00602880
v 0.06213649 0.02141766 0.00602880
v 0.06244401 -0.00755714 0.01685599
v 0.06376581 0.01694402 0.00958880
v 0.06215630 0.02198860 -0.00315413
v 0.06144561 0.02509229 -0.00502333
v 0.06221227 0.02212995 -0.00278386
v 0.06224834 0.02192493 -0.00334310
v 0.06220292 0.02211115 -0.00278149
v 0.06223454 0.02191043 -0.00333719
v 0.06218892 0.02209543 -0.00277952
v 0.06221784 0.02189957 -0.00333386
v 0.06217413 0.02208535 -0.00277825
v 0.06215386 0.02207791 -0.00277731
v 0.06231717 0.02164180 -0.00368286
v 0.06217413 0.01980377 0.01016327
v 0.06221791 0.01943887 0.01062213
v 0.06283996 0.01787475 0.01088245
v 0.06271920 0.01813560 0.01099964
v 0.06259289 0.01840470 0.01101859
v 0.06258354 0.01840168 0.01100252
v 0.06237983 0.01895563 0.01092481
v 0.06238920 0.01896370 0.01094064
v 0.06224841 0.01945953 0.01063948
v 0.06225777 0.01947262 0.01065278
v 0.06220292 0.01982690 0.01017514
v 0.06221227 0.01984377 0.01018380
v 0.06239400 0.01897090 0.01095809
v 0.06259844 0.01840606 0.01103601
v 0.06265887 0.01826629 0.01102293
v 0.06233405 0.01893332 0.01089964
v 0.06220022 0.01943282 0.01061907
v 0.06218892 0.01981281 0.01016791
v 0.06223460 0.01944793 0.01062897
v 0.06236655 0.01894741 0.01091217
v 0.06235074 0.01893978 0.01090372
v 0.06257103 0.01839720 0.01098917
v 0.06241108 0.01865567 0.01098306
v 0.06296956 0.01764824 0.01079647
v 0.06221608 0.01985937 0.01019180
v 0.06226201 0.01948584 0.01066743
v 0.06221608 0.02225978 0.00166422
v 0.06220292 0.02222339 0.00166149
v 0.06221608 0.02148687 0.00604829
v 0.06220292 0.02145175 0.00603840
v 0.06217413 0.02219746 0.00165956
v 0.06217413 0.02142671 0.00603135
v 0.06208783 0.01979369 0.01015810
v 0.06206749 0.02140854 0.00602624
v 0.06206749 0.01978697 0.01015465
v 0.06205268 0.01977787 0.01014998
v 0.06198526 0.02195484 -0.00335770
v 0.06346256 0.01697549 0.00937374
v 0.06213647 0.01939971 0.01064155
v 0.06328757 0.01704229 0.00995891
v 0.06302244 0.01731776 0.01044362
v 0.06274418 0.01774473 0.01079056
v 0.06227532 0.01885932 0.01091838
v 0.06248134 0.01826263 0.01095643
v 0.06348196 0.01696669 0.00937839
v 0.06354382 0.01713519 0.00879376
v 0.06345589 0.01696728 0.00938321
v 0.06325615 0.01705075 0.00994108
v 0.06327670 0.01704327 0.00995342
v 0.06299884 0.01731697 0.01042793
v 0.06301045 0.01731634 0.01043653
v 0.06271789 0.01773849 0.01077355
v 0.06273077 0.01774072 0.01078342
v 0.06245673 0.01826744 0.01094567
v 0.06247102 0.01827257 0.01095544
v 0.06224314 0.01884527 0.01090554
v 0.06225880 0.01885277 0.01091415
v 0.06210212 0.01938447 0.01063154
v 0.06211879 0.01939355 0.01063849
v 0.06296939 0.01967184 -0.00330253
v 0.06354382 0.01825581 0.00613761
v 0.06222567 0.02017768 0.00625705
v 0.06285245 -0.02057510 -0.00345418
v 0.06020426 -0.01874124 -0.01263060
v 0.06167551 -0.02310458 -0.00107198
v 0.06147841 -0.02408730 -0.00241515
v 0.03829868 -0.03080010 -0.00047439
v 0.03839283 -0.02791634 -0.03399035
v 0.02561382 0.05292458 0.02547890
v 0.02394765 0.05317592 0.02552321
v 0.02022744 0.06257694 0.02718061
v 0.02128155 0.06387231 0.02740898
v 0.01954969 0.06105704 0.02691265
v 0.01929447 0.05941617 0.02662336
v 0.01947919 0.05776617 0.02633247
v 0.02009126 0.05621947 0.02605979
v 0.02108896 0.05488147 0.02582390
v 0.02240430 0.05384338 0.02564088
v 0.02728928 0.05310650 0.02551097
v 0.02885983 0.05370927 0.02561724
v 0.03021845 0.05469181 0.02579046
v 0.01939445 0.05939673 0.02672148
v 0.01964571 0.06101219 0.02700628
v 0.02031297 0.06250855 0.02727009
v 0.02135075 0.06378386 0.02749492
v 0.02268833 0.06475119 0.02766547
v 0.02423456 0.06534462 0.02777009
v 0.02588407 0.06552372 0.02780166
v 0.02752444 0.06527628 0.02775804
v 0.02904388 0.06461915 0.02764219
v 0.03033885 0.06359714 0.02746201
v 0.03132110 0.06227987 0.02722977
v 0.03118703 0.05602085 0.02612631
v 0.03185429 0.05751721 0.02639012
v 0.03210555 0.05913267 0.02667492
v 0.03192369 0.06075712 0.02696131
v 0.02561593 0.05300568 0.02559474
v 0.02726544 0.05318477 0.02562631
v 0.02881167 0.05377821 0.02573094
v 0.03014925 0.05474554 0.02590148
v 0.01957631 0.05777228 0.02643509
v 0.02017890 0.05624953 0.02616663
v 0.02116115 0.05493226 0.02593439
v 0.02245612 0.05391024 0.02575421
v 0.02397556 0.05325312 0.02563836
v 0.02498053 0.06183357 0.02599931
v 0.02131615 0.06382173 0.02748800
v 0.02027020 0.06253640 0.02726139
v 0.02129082 0.06385411 0.02745654
v 0.02023890 0.06256143 0.02722864
v 0.01956255 0.06104468 0.02696124
v 0.01930787 0.05940721 0.02667255
v 0.01949221 0.05776063 0.02638226
v 0.02010300 0.05621714 0.02611015
v 0.02109863 0.05488192 0.02587475
v 0.02241125 0.05384598 0.02569211
v 0.02395139 0.05317990 0.02557468
v 0.02561411 0.05292909 0.02553047
v 0.02728608 0.05311063 0.02556247
v 0.02885338 0.05371215 0.02566852
v 0.03020918 0.05469266 0.02584138
v 0.01959770 0.06102826 0.02699551
v 0.01934446 0.05940010 0.02670847
v 0.01952775 0.05776286 0.02641982
v 0.02013508 0.05622814 0.02614925
v 0.02112506 0.05490051 0.02591519
v 0.02243021 0.05387045 0.02573360
v 0.02396161 0.05320816 0.02561683
v 0.02561488 0.05295878 0.02557287
v 0.02727736 0.05313928 0.02560469
v 0.02883575 0.05373738 0.02571013
v 0.03018385 0.05471233 0.02588202
v 0.03526223 -0.01688296 0.05579744
v 0.02128155 -0.06387084 0.02741241
v 0.02129082 -0.06385263 0.02745997
v 0.02036759 -0.06276060 0.02726739
v 0.02131615 -0.06382025 0.02749143
v 0.02039817 -0.06273443 0.02729994
v 0.02135075 -0.06378238 0.02749835
v 0.02043993 -0.06270503 0.02730836
v 0.01979538 -0.06145509 0.02708792
v 0.01974855 -0.06147466 0.02707777
v 0.01944942 -0.06009525 0.02684811
v 0.01939987 -0.06010412 0.02683607
v 0.01941940 -0.05869368 0.02660094
v 0.01936961 -0.05869153 0.02658695
v 0.01970682 -0.05732068 0.02635880
v 0.01965929 -0.05730773 0.02634291
v 0.02029728 -0.05604509 0.02613384
v 0.02025439 -0.05602210 0.02611619
v 0.02116115 -0.05493087 0.02593735
v 0.02112506 -0.05489912 0.02591814
v 0.02225513 -0.05403389 0.02577916
v 0.02222764 -0.05399509 0.02575871
v 0.02352435 -0.05339914 0.02566722
v 0.02350685 -0.05335534 0.02564589
v 0.02490518 -0.05305844 0.02560714
v 0.02489853 -0.05301196 0.02558533
v 0.02632837 -0.05302887 0.02560192
v 0.02633292 -0.05298217 0.02558008
v 0.02772256 -0.05331193 0.02565184
v 0.02773808 -0.05326745 0.02563039
v 0.02901784 -0.05389341 0.02575438
v 0.02904354 -0.05385349 0.02573374
v 0.03014925 -0.05474415 0.02590442
v 0.03018385 -0.05471093 0.02588496
v 0.01971426 -0.06149364 0.02704395
v 0.01936359 -0.06011526 0.02680087
v 0.01933316 -0.05869460 0.02655033
v 0.01962450 -0.05730290 0.02630490
v 0.02022299 -0.05600993 0.02607687
v 0.02109863 -0.05488053 0.02587770
v 0.02220751 -0.05397134 0.02571736
v 0.02349403 -0.05332794 0.02560389
v 0.02489367 -0.05298259 0.02554299
v 0.02633625 -0.05295262 0.02553770
v 0.02774943 -0.05323953 0.02558830
v 0.02906235 -0.05382894 0.02569224
v 0.03020918 -0.05469127 0.02584432
v 0.02035640 -0.06277654 0.02721942
v 0.01970171 -0.06150694 0.02699552
v 0.01935031 -0.06012570 0.02675194
v 0.01931982 -0.05870209 0.02650088
v 0.01961176 -0.05730749 0.02625493
v 0.02021150 -0.05601183 0.02602644
v 0.02108896 -0.05488009 0.02582685
v 0.02220015 -0.05396900 0.02566617
v 0.02348934 -0.05332426 0.02555247
v 0.02489189 -0.05297820 0.02549144
v 0.02633747 -0.05294817 0.02548615
v 0.02775359 -0.05323568 0.02553685
v 0.02906924 -0.05382630 0.02564101
v 0.03021845 -0.05469043 0.02579340
v 0.03210555 -0.05913124 0.02667810
v 0.03192369 -0.06075567 0.02696458
v 0.03132110 -0.06227840 0.02723312
v 0.03033885 -0.06359566 0.02746542
v 0.03185429 -0.05751580 0.02639321
v 0.03118703 -0.05601944 0.02612932
v 0.02268833 -0.06474970 0.02766894
v 0.02423456 -0.06534313 0.02777360
v 0.02904388 -0.06461767 0.02764566
v 0.02752444 -0.06527479 0.02776155
v 0.02588407 -0.06552223 0.02780518
v 0.01543606 -0.02194305 -0.00727821
v 0.01338884 0.01941506 0.00212690
v 0.01489475 0.01979485 -0.01016004
v 0.01512332 0.01981327 -0.01013492
v 0.01346928 0.01914382 0.00314246
v 0.01493071 0.02196789 0.00318546
v 0.01487504 0.02204990 0.00293567
v 0.01429150 0.02029102 0.00418955
v 0.01493025 0.02165255 -0.00087951
v 0.01489475 0.02191187 -0.00386426
v 0.01489475 0.02218799 -0.00166005
v 0.01489475 0.02141733 -0.00602996
v 0.02152056 0.02676631 -0.00509524
v 0.01479709 0.02222330 -0.00166269
v 0.01479709 0.02211130 0.00278030
v 0.01490017 0.02341494 0.00673999
v 0.01478947 0.01989298 -0.01021040
v 0.01478392 0.02148655 -0.00604944
v 0.01478392 0.01985882 -0.01019287
v 0.01479709 0.02145142 -0.00603955
v 0.01482587 0.02219737 -0.00166075
v 0.01482587 0.02142639 -0.00603250
v 0.01478773 0.01984322 -0.01018486
v 0.01479709 0.01982636 -0.01017621
v 0.01481108 0.01981226 -0.01016897
v 0.01482587 0.01980322 -0.01016433
v 0.01486351 0.02218799 -0.00166005
v 0.01486351 0.02207616 0.00277589
v 0.01484614 0.02207806 0.00277612
v 0.01482587 0.02208550 0.00277706
v 0.01481108 0.02209558 0.00277833
v 0.01485120 0.01958862 -0.01048524
v 0.01486351 0.02141733 -0.00602996
v 0.01486351 0.02191187 -0.00386426
v 0.01440711 0.01840410 -0.01101958
v 0.01438104 0.01834515 -0.01102430
v 0.01462018 0.01895504 -0.01092583
v 0.01461080 0.01896311 -0.01094166
v 0.01475159 0.01945896 -0.01064053
v 0.01474223 0.01947204 -0.01065383
v 0.01421041 0.01799031 -0.01099238
v 0.01460600 0.01897031 -0.01095911
v 0.01440155 0.01840547 -0.01103700
v 0.01476540 0.01944736 -0.01063001
v 0.01473388 0.01907868 -0.01087121
v 0.01473800 0.01948527 -0.01066848
v 0.01472227 0.01940833 -0.01077399
v 0.01457925 0.01888068 -0.01103219
v 0.01356087 0.01953548 0.00373789
v 0.01419682 0.02049733 0.00408746
v 0.01477227 0.02162088 0.00370435
v 0.01479984 0.02189303 0.00333188
v 0.01415192 0.02053941 0.00414683
v 0.01387218 0.01999917 0.00399098
v 0.01415821 0.02051523 0.00411244
v 0.01388300 0.01999750 0.00398029
v 0.01416986 0.02051008 0.00410089
v 0.01418306 0.02050396 0.00409249
v 0.01335953 0.01923487 0.00324329
v 0.01360758 0.01955600 0.00368286
v 0.01359028 0.01955578 0.00369552
v 0.01475166 0.02192511 0.00334192
v 0.01476547 0.02191061 0.00333601
v 0.01478216 0.02189975 0.00333268
v 0.01466589 0.02151925 0.00376685
v 0.01445802 0.02102834 0.00402434
v 0.01464921 0.02152672 0.00376847
v 0.01444274 0.02103597 0.00402759
v 0.01463340 0.02153677 0.00377380
v 0.01442818 0.02104446 0.00403478
v 0.01462012 0.02154882 0.00378287
v 0.01441566 0.02105323 0.00404579
v 0.01333993 0.01922957 0.00325367
v 0.01395417 0.01985605 -0.00457697
v 0.01406854 0.01741705 -0.01038701
v 0.01568722 -0.02403100 0.00646391
v 0.01556298 -0.02399566 0.00667839
v 0.01559891 -0.02399904 0.00665330
v 0.01579678 -0.02400690 0.00660212
v 0.01571198 -0.02400021 0.00664502
v 0.01575346 -0.02400185 0.00663574
v 0.01524131 -0.02211092 0.00698337
v 0.01581188 -0.02467251 0.00430142
v 0.01526437 -0.02273558 0.00714225
v 0.01523358 -0.02264309 0.00717408
v 0.01524207 -0.02276822 0.00721739
v 0.01462308 -0.02048058 0.00800929
v 0.01524378 -0.02275373 0.00717868
v 0.01642723 -0.02765151 0.00531617
v 0.01638990 -0.02766094 0.00532073
v 0.01604161 -0.02582422 0.00598119
v 0.01633321 -0.02769318 0.00537691
v 0.01635449 -0.02767611 0.00534219
v 0.01642098 -0.02852679 0.00663052
v 0.01642813 -0.02803661 0.00494415
v 0.01526044 -0.02361835 0.00098435
v 0.01525123 -0.02289551 0.00147197
v 0.01524369 -0.02383697 0.00103748
v 0.01526383 -0.02380770 0.00106537
v 0.01518059 -0.02361938 0.00092421
v 0.01521871 -0.02365688 0.00096880
v 0.01529918 -0.02378431 0.00108099
v 0.01533834 -0.02377222 0.00108181
v 0.01632974 -0.02788818 0.00439016
v 0.01633310 -0.02786211 0.00442021
v 0.01635361 -0.02783472 0.00444661
v 0.01590118 -0.02578415 0.00277011
v 0.01638884 -0.02781278 0.00446203
v 0.01647607 -0.02793755 0.00461341
v 0.01654402 -0.02779131 0.00446441
v 0.01668144 -0.02800315 0.00491073
v 0.01654425 -0.02764185 0.00531142
v 0.01653251 -0.02795042 0.00509442
v 0.01650635 -0.02780191 0.00446330
v 0.01572043 -0.02368825 0.00676601
v 0.01555237 -0.02419050 0.00215176
v 0.01597647 -0.02578398 0.00276996
v 0.01544639 -0.02376041 0.00108244
v 0.01518641 -0.02246249 0.00717649
v 0.01538613 -0.02362988 0.00099325
v 0.01773775 0.06126418 -0.00926365
v 0.01775424 0.06115042 -0.00920011
v 0.01777068 0.06120081 -0.00932658
v 0.02006765 0.06069911 -0.01633752
v 0.03145986 0.07170550 -0.00772691
v 0.01827745 0.06519354 -0.00915623
v 0.01862818 0.06505508 -0.01309951
v 0.01880653 0.06558716 -0.01243826
v 0.01861138 0.06507202 -0.01311031
v 0.01878484 0.06560249 -0.01244237
v 0.01851484 0.06490352 -0.01329664
v 0.01743500 0.06191634 -0.01381223
v 0.01774165 0.06073422 -0.01225227
v 0.01888321 0.06565794 -0.01197108
v 0.01883815 0.06551954 -0.01240785
v 0.01864484 0.06501520 -0.01306469
v 0.01863953 0.06503659 -0.01308484
v 0.01883474 0.06554326 -0.01242000
v 0.01882392 0.06556673 -0.01243058
v 0.01849363 0.06462051 -0.01337908
v 0.01776138 0.06233621 -0.00868352
v 0.01812937 0.06447580 -0.00879429
v 0.01862528 0.06553843 -0.00990691
v 0.01832499 0.06491949 -0.00916071
v 0.01878455 0.06590088 -0.01074718
v 0.01859121 0.06564648 -0.00993937
v 0.01880623 0.06588507 -0.01074580
v 0.01861155 0.06563143 -0.00994034
v 0.01882363 0.06586324 -0.01074604
v 0.01862835 0.06561180 -0.00994470
v 0.01883445 0.06583758 -0.01074797
v 0.01863970 0.06558941 -0.00995216
v 0.01883786 0.06581114 -0.01075128
v 0.01811700 0.06448759 -0.00878020
v 0.01835716 0.06515462 -0.00926618
v 0.01833811 0.06516766 -0.00926223
v 0.01883366 0.06600981 -0.01177314
v 0.01885913 0.06589013 -0.01161595
v 0.01888145 0.06587432 -0.01161317
v 0.01889912 0.06585217 -0.01160928
v 0.01890970 0.06582598 -0.01160469
v 0.01891238 0.06579904 -0.01159998
v 0.01738517 0.06003182 -0.01308607
v 0.01828158 0.06541611 -0.01436864
v 0.02124405 0.06429823 -0.00410286
v 0.01730236 0.06012226 -0.01308927
v 0.01778284 0.06064007 -0.01223998
v 0.01776720 0.06075081 -0.01218097
v 0.01777069 0.06069909 -0.01217104
v 0.01732246 0.06008540 -0.01305330
v 0.01733452 0.06007624 -0.01304382
v 0.01736086 0.06006459 -0.01303094
v 0.01736693 0.06006299 -0.01302899
v 0.01731183 0.06009765 -0.01306556
v 0.01747937 0.06274768 -0.00836813
v 0.01778624 0.06488537 -0.00891831
v 0.01784596 0.06437835 -0.00860629
v 0.01825381 0.06511954 -0.01311241
v 0.01845352 0.06563083 -0.01243811
v 0.01857097 0.06595395 -0.01119717
v 0.01804943 0.06428060 -0.01370026
v 0.01846949 0.06563640 -0.01241821
v 0.01810027 0.06493007 -0.01335563
v 0.01827539 0.06510963 -0.01311101
v 0.01851818 0.06568200 -0.01231909
v 0.01823498 0.06592851 -0.01011494
v 0.01724768 0.06106244 -0.01284803
v 0.01736827 0.06059688 -0.01231722
v 0.01727714 0.06064605 -0.01234965
v 0.01729250 0.06062566 -0.01233678
v 0.01729974 0.06061928 -0.01233270
v 0.01733271 0.06060205 -0.01232130
v 0.01727389 0.06067122 -0.01232456
v 0.01732284 0.06068677 -0.01226815
v 0.01934131 0.01918760 -0.01479392
v 0.03875298 -0.00567143 -0.03026895
v 0.02634260 0.00172025 -0.06331759
v 0.03012264 0.01311302 -0.02628130
v 0.03877430 -0.03150015 -0.03730395
v 0.03837950 -0.02860621 -0.03317387
v 0.03767680 -0.02824978 -0.03267259
v 0.03802054 -0.02847661 -0.03294954
v 0.03803627 -0.02837910 -0.03343495
v 0.03803841 -0.02821693 -0.03362609
v 0.03803626 -0.02800055 -0.03375250
v 0.03803007 -0.02775426 -0.03380031
v 0.03802053 -0.02750564 -0.03376410
v 0.03848742 -0.02662803 -0.03337787
v 0.01919193 -0.02519461 -0.02548248
v 0.02595825 -0.02238291 -0.01941163
v 0.01965446 -0.02870889 -0.03315592
v 0.02056678 -0.02746246 -0.03344775
v 0.02061540 -0.02808848 -0.03317181
v 0.02055323 -0.02818271 -0.03260308
v 0.02626321 -0.02690400 -0.03307902
v 0.02627654 -0.02713424 -0.03312641
v 0.02628689 -0.02739946 -0.03309064
v 0.02629086 -0.02765224 -0.03295286
v 0.02628619 -0.02783184 -0.03272787
v 0.02627584 -0.02791311 -0.03247289
v 0.02626252 -0.02790641 -0.03223791
v 0.01948328 -0.02771442 0.00169601
v 0.03982671 -0.02901043 -0.00231750
v 0.03761210 -0.05411976 -0.01019105
v 0.03825760 -0.04329384 -0.00714431
v 0.03816338 -0.04235627 -0.00668437
v 0.03802054 -0.04299390 -0.00693640
v 0.03803627 -0.04323122 -0.00737093
v 0.03841370 -0.04316387 -0.00819177
v 0.03803841 -0.04322985 -0.00762159
v 0.03803626 -0.04314535 -0.00785751
v 0.03803007 -0.04298742 -0.00805245
v 0.03802053 -0.04277369 -0.00818452
v 0.03829423 -0.04154290 -0.00840265
v 0.01545161 -0.02481601 0.00109588
v 0.01934896 -0.04375927 -0.00512959
v 0.01942662 -0.04041226 -0.00576479
v 0.02056678 -0.04253726 -0.00796994
v 0.02061540 -0.04283946 -0.00735615
v 0.02055323 -0.04254607 -0.00685991
v 0.02626321 -0.04187244 -0.00804644
v 0.02627654 -0.04207928 -0.00793475
v 0.02628689 -0.04225945 -0.00773686
v 0.02629086 -0.04236454 -0.00746884
v 0.02628619 -0.04235750 -0.00718104
v 0.02627584 -0.04225585 -0.00693348
v 0.02626252 -0.04209968 -0.00675778
v 0.03048149 -0.06298561 0.02779459
v 0.03490311 -0.00682054 0.03147675
v 0.03745930 -0.00410343 0.03054627
v 0.03823363 -0.01457898 0.04136443
v 0.03801831 -0.01425792 0.04110386
v 0.03802054 -0.01429684 0.04113623
v 0.03803627 -0.01476596 0.04129449
v 0.03803841 -0.01501258 0.04124962
v 0.03803626 -0.01523024 0.04112543
v 0.03803007 -0.01539480 0.04093605
v 0.03802053 -0.01548775 0.04070263
v 0.03829897 -0.01545285 0.04109146
v 0.03800074 -0.01550039 0.04058827
v 0.03695831 -0.01495128 0.02744799
v 0.01934835 -0.01221693 0.04129523
v 0.01962356 -0.01545998 0.04088694
v 0.02277709 -0.02238248 0.06084721
v 0.02001722 -0.01487627 0.04094802
v 0.02141121 -0.01511728 0.04043917
v 0.02057249 -0.01448203 0.04086252
v 0.02055323 -0.01414374 0.04070849
v 0.02626321 -0.01519527 0.03983906
v 0.02627654 -0.01512119 0.04006214
v 0.02628689 -0.01495760 0.04027395
v 0.02629086 -0.01471189 0.04042398
v 0.02628619 -0.01442725 0.04046701
v 0.02627584 -0.01416579 0.04040990
v 0.02626252 -0.01396565 0.04028662
v 0.03851297 0.01550449 0.04048410
v 0.03843239 0.00587209 0.02913912
v 0.03834426 0.00559287 0.03015327
v 0.03801700 0.00568888 0.03002252
v 0.03801761 0.00573265 0.02976442
v 0.03801700 0.00584226 0.02952612
v 0.03801522 0.00601034 0.02932434
v 0.01467590 -0.01425101 0.01491451
v 0.02583098 0.02301467 0.05600177
v 0.01470831 0.01483284 0.01755968
v 0.02675138 0.00617406 0.03062539
v 0.02551741 0.00515598 0.02917346
v 0.02702096 0.00609975 0.02988102
v 0.02702237 0.00622079 0.02962288
v 0.02702237 0.00605643 0.03016281
v 0.02702629 0.00609134 0.03043452
v 0.02676225 0.00651717 0.02931534
v 0.03834409 0.00608155 0.02917934
v 0.03900643 0.03881349 0.02083724
v 0.03839171 0.03781595 0.02242821
v 0.03819149 0.03713452 0.02232444
v 0.05500659 0.02330932 0.01620008
v 0.03819149 0.03077746 0.02076163
v 0.03824569 0.02749623 0.02024392
v 0.03355764 0.02799761 0.01420812
v 0.01831726 0.04472045 0.02590622
v 0.03614889 0.03680905 0.02200053
v 0.03848833 0.02801112 -0.00828788
v 0.03865436 0.04186646 -0.01053383
v 0.03826868 0.03033608 -0.00036459
v 0.03825760 0.04312639 -0.00809391
v 0.03816338 0.04208822 -0.00820542
v 0.03802054 0.04277344 -0.00818669
v 0.03803627 0.04314506 -0.00785954
v 0.03829742 0.04331747 -0.00716946
v 0.03803841 0.04322951 -0.00762353
v 0.03803626 0.04323079 -0.00737294
v 0.03803007 0.04314906 -0.00713574
v 0.03802053 0.04299339 -0.00693853
v 0.03847303 0.04255514 -0.00662703
v 0.01753342 0.06042538 -0.00909870
v 0.01956340 0.04500811 -0.00699499
v 0.03867982 0.04575109 -0.00598651
v 0.02118804 0.04281208 -0.00736576
v 0.02055323 0.04232646 -0.00810541
v 0.02626321 0.04209927 -0.00676003
v 0.02627654 0.04225543 -0.00693574
v 0.02628689 0.04235706 -0.00718331
v 0.02629086 0.04236414 -0.00747111
v 0.02628619 0.04225909 -0.00773914
v 0.02627584 0.04207890 -0.00793702
v 0.02626252 0.04187206 -0.00804870
v 0.01611810 -0.02582411 0.00598123
v 0.02128155 0.06939455 -0.00391412
v 0.02022744 0.06809919 -0.00414250
v 0.01954969 0.06657928 -0.00441046
v 0.01929447 0.06493841 -0.00469974
v 0.01947919 0.06328841 -0.00499063
v 0.02009126 0.06174170 -0.00526332
v 0.02108896 0.06040371 -0.00549920
v 0.02240430 0.05936562 -0.00568222
v 0.02394765 0.05869815 -0.00579989
v 0.02561382 0.05844682 -0.00584420
v 0.03021845 0.06021406 -0.00553264
v 0.02885983 0.05923151 -0.00570586
v 0.02728928 0.05862873 -0.00581213
v 0.02129082 0.06939371 -0.00396505
v 0.02023890 0.06810103 -0.00419294
v 0.02131615 0.06937405 -0.00400568
v 0.02027020 0.06808871 -0.00423228
v 0.02135075 0.06934082 -0.00402514
v 0.02031297 0.06806552 -0.00424997
v 0.01964571 0.06656916 -0.00451378
v 0.01959770 0.06658057 -0.00449817
v 0.01939445 0.06495370 -0.00479859
v 0.01934446 0.06495241 -0.00478521
v 0.01957631 0.06332924 -0.00508498
v 0.01952775 0.06331518 -0.00507385
v 0.02017890 0.06180650 -0.00535344
v 0.02013508 0.06178045 -0.00534442
v 0.02116115 0.06048923 -0.00558567
v 0.02112506 0.06045282 -0.00557848
v 0.02245612 0.05946721 -0.00576585
v 0.02243021 0.05942276 -0.00576008
v 0.02397556 0.05881009 -0.00588170
v 0.02396161 0.05876048 -0.00587684
v 0.02561593 0.05856264 -0.00592533
v 0.02561488 0.05851109 -0.00592081
v 0.02726544 0.05874174 -0.00589375
v 0.02727736 0.05869159 -0.00588899
v 0.02881167 0.05933518 -0.00578913
v 0.02883575 0.05928970 -0.00578354
v 0.03014925 0.06030250 -0.00561859
v 0.03018385 0.06026464 -0.00561166
v 0.01956255 0.06658427 -0.00446035
v 0.01930787 0.06494682 -0.00474903
v 0.01949221 0.06330024 -0.00503932
v 0.02010300 0.06175674 -0.00531144
v 0.02109863 0.06042152 -0.00554683
v 0.02241125 0.05938558 -0.00572947
v 0.02395139 0.05871951 -0.00584690
v 0.02561411 0.05846869 -0.00589112
v 0.02728608 0.05865023 -0.00585911
v 0.02885338 0.05925175 -0.00575306
v 0.03020918 0.06023226 -0.00558020
v 0.03210555 0.06468964 -0.00484514
v 0.03192369 0.06631409 -0.00455875
v 0.03132110 0.06783684 -0.00429029
v 0.03033885 0.06915410 -0.00405806
v 0.03185429 0.06307418 -0.00512994
v 0.03118703 0.06157781 -0.00539375
v 0.02904388 0.07017612 -0.00387788
v 0.02752444 0.07083325 -0.00376203
v 0.02588407 0.07108068 -0.00371840
v 0.02268833 0.07030816 -0.00385460
v 0.02423456 0.07090159 -0.00374998
v 0.05204634 -0.07107344 -0.01982953
v 0.05760555 0.01600138 -0.06313450
v 0.05742369 0.01600143 -0.06148499
v 0.05682110 0.01600147 -0.05993876
v 0.05583885 0.01600151 -0.05860118
v 0.05735429 0.01600134 -0.06477486
v 0.05668703 0.01600130 -0.06629431
v 0.05564925 0.01600126 -0.06758928
v 0.05431167 0.01600124 -0.06857153
v 0.05276544 0.01600122 -0.06917412
v 0.04567890 0.01600130 -0.06606210
v 0.04507631 0.01600135 -0.06451587
v 0.04489445 0.01600139 -0.06286636
v 0.05454388 0.01600153 -0.05756340
v 0.05302444 0.01600155 -0.05689614
v 0.05111593 0.01600122 -0.06935598
v 0.04947556 0.01600122 -0.06910472
v 0.04795612 0.01600124 -0.06843746
v 0.04666115 0.01600127 -0.06739968
v 0.04514571 0.01600143 -0.06122599
v 0.04581297 0.01600148 -0.05970655
v 0.04685075 0.01600151 -0.05841158
v 0.04818833 0.01600154 -0.05742933
v 0.04973456 0.01600155 -0.05682674
v 0.05138407 0.01600156 -0.05664488
v 0.05571846 0.01590126 -0.06766146
v 0.05570918 0.01595126 -0.06765179
v 0.05676110 0.01595130 -0.06633918
v 0.05568385 0.01598787 -0.06762537
v 0.05672980 0.01598790 -0.06632021
v 0.05740230 0.01598794 -0.06478883
v 0.05765554 0.01598799 -0.06313555
v 0.05747225 0.01598803 -0.06147308
v 0.05686492 0.01598807 -0.05991468
v 0.05587494 0.01598811 -0.05856657
v 0.05456979 0.01598814 -0.05752063
v 0.05303839 0.01598815 -0.05684813
v 0.05138512 0.01598816 -0.05659489
v 0.04972264 0.01598816 -0.05677818
v 0.04816425 0.01598814 -0.05738551
v 0.04681615 0.01598812 -0.05837549
v 0.05743745 0.01595134 -0.06479904
v 0.05769213 0.01595138 -0.06313632
v 0.05750779 0.01595143 -0.06146435
v 0.05689700 0.01595147 -0.05989705
v 0.05590137 0.01595151 -0.05854125
v 0.05458875 0.01595154 -0.05748933
v 0.05304861 0.01595155 -0.05681298
v 0.05138589 0.01595156 -0.05655830
v 0.04971392 0.01595156 -0.05674263
v 0.04814662 0.01595154 -0.05735343
v 0.04679082 0.01595151 -0.05834906
v 0.05677256 0.01590130 -0.06634612
v 0.05745031 0.01590134 -0.06480278
v 0.05770553 0.01590138 -0.06313661
v 0.05752081 0.01590143 -0.06146115
v 0.05690874 0.01590147 -0.05989060
v 0.05591104 0.01590151 -0.05853197
v 0.05459569 0.01590154 -0.05747787
v 0.05305235 0.01590155 -0.05680011
v 0.05138618 0.01590156 -0.05654490
v 0.04971072 0.01590156 -0.05672963
v 0.04814017 0.01590154 -0.05734169
v 0.04678154 0.01590151 -0.05833939
v 0.05467125 -0.00009478 0.06331975
v 0.04086697 0.05743797 0.01073361
v 0.05109280 0.06239603 -0.01017116
v 0.05130537 0.05209621 -0.03111834
v 0.02135075 0.00807692 -0.06898634
v 0.01992955 0.00738170 -0.06707609
v 0.02132427 0.00809352 -0.06900969
v 0.01989450 0.00739412 -0.06708794
v 0.02130182 0.00812190 -0.06902429
v 0.01986480 0.00741895 -0.06709278
v 0.02128681 0.00815773 -0.06902789
v 0.01984495 0.00745242 -0.06708988
v 0.01939445 0.00655340 -0.06480017
v 0.01935619 0.00656083 -0.06479833
v 0.01932376 0.00658144 -0.06479155
v 0.01930209 0.00661208 -0.06478088
v 0.02116115 0.00500303 -0.06054020
v 0.02319397 0.00451699 -0.05920469
v 0.02113352 0.00500113 -0.06051271
v 0.02317859 0.00451216 -0.05916917
v 0.02111010 0.00501382 -0.06048420
v 0.02316554 0.00452237 -0.05913384
v 0.02109446 0.00503918 -0.06045901
v 0.02315683 0.00454607 -0.05910409
v 0.02561593 0.00433399 -0.05870187
v 0.02561513 0.00432806 -0.05866331
v 0.02561444 0.00433734 -0.05862541
v 0.02561398 0.00436041 -0.05859395
v 0.01974085 0.00576466 -0.06245244
v 0.01976105 0.00573687 -0.06247093
v 0.01979128 0.00572053 -0.06248941
v 0.01982693 0.00571813 -0.06250507
v 0.02809185 0.00451047 -0.05900627
v 0.02808398 0.00448689 -0.05903634
v 0.02807220 0.00447686 -0.05907216
v 0.02805830 0.00448190 -0.05910827
v 0.03014925 0.00493819 -0.06036203
v 0.03017573 0.00493590 -0.06033347
v 0.03019818 0.00494826 -0.06030405
v 0.03021319 0.00497339 -0.06027825
v 0.03157046 0.00563341 -0.06227228
v 0.03210555 0.00646170 -0.06454820
v 0.03167307 0.00729698 -0.06684330
v 0.03033885 0.00801208 -0.06880817
v 0.02830603 0.00849812 -0.07014368
v 0.02588407 0.00868112 -0.07064650
v 0.02344170 0.00853321 -0.07024010
v 0.01486651 -0.03914130 0.05958211
v 0.03464491 -0.04274495 0.05850385
v 0.02315683 -0.02448670 0.05398483
v 0.01930209 -0.02836969 0.05861266
v 0.01982693 -0.02675128 0.05677984
v 0.02116115 -0.02540728 0.05517804
v 0.01979128 -0.02674818 0.05676430
v 0.02113352 -0.02539609 0.05515286
v 0.01976105 -0.02675721 0.05674135
v 0.02111010 -0.02539827 0.05512173
v 0.01974085 -0.02677700 0.05671446
v 0.02109446 -0.02541347 0.05508938
v 0.02135075 -0.03118454 0.06206349
v 0.01992955 -0.02987790 0.06050621
v 0.02132427 -0.03120813 0.06207975
v 0.01989450 -0.02989363 0.06051311
v 0.02130182 -0.03123978 0.06208376
v 0.01986480 -0.02991862 0.06050917
v 0.02128681 -0.03127469 0.06207490
v 0.01984495 -0.02994907 0.06049499
v 0.01939445 -0.02832115 0.05865084
v 0.01935619 -0.02832750 0.05864657
v 0.01932376 -0.02834455 0.05863316
v 0.02316554 -0.02447460 0.05402089
v 0.02317859 -0.02447709 0.05405758
v 0.02319397 -0.02449378 0.05408931
v 0.02561398 -0.02413776 0.05356896
v 0.02561444 -0.02412684 0.05360642
v 0.02561513 -0.02413108 0.05364520
v 0.02561593 -0.02414984 0.05367940
v 0.02805830 -0.02442783 0.05401070
v 0.02807220 -0.02441074 0.05397850
v 0.02808398 -0.02440791 0.05394141
v 0.02809185 -0.02441978 0.05390508
v 0.03014925 -0.02528541 0.05503280
v 0.03017573 -0.02527349 0.05500674
v 0.03019818 -0.02527504 0.05497487
v 0.03021319 -0.02528984 0.05494203
v 0.03157046 -0.02659205 0.05659007
v 0.03210555 -0.02814880 0.05844544
v 0.03167307 -0.02971867 0.06031644
v 0.03033885 -0.03106267 0.06191824
v 0.02830603 -0.03197617 0.06300697
v 0.02588407 -0.03232011 0.06341688
v 0.02344170 -0.03204213 0.06308558
v 0.02135075 -0.05053340 -0.04765214
v 0.02131615 -0.05057136 -0.04765859
v 0.02039817 -0.04961648 -0.04710732
v 0.02129082 -0.05061254 -0.04764010
v 0.02036759 -0.04965221 -0.04708568
v 0.02128155 -0.05064592 -0.04760163
v 0.02035640 -0.04968359 -0.04704606
v 0.01970171 -0.04856710 -0.04640150
v 0.01971426 -0.04853804 -0.04644245
v 0.01935031 -0.04735243 -0.04570025
v 0.01936359 -0.04732589 -0.04574267
v 0.01931982 -0.04610050 -0.04497750
v 0.01933316 -0.04607656 -0.04502141
v 0.01961176 -0.04487409 -0.04426947
v 0.01962450 -0.04485269 -0.04431485
v 0.02021150 -0.04373468 -0.04361168
v 0.02022299 -0.04371565 -0.04365842
v 0.02108896 -0.04273942 -0.04303710
v 0.02109863 -0.04272245 -0.04308503
v 0.02220015 -0.04193821 -0.04257455
v 0.02220751 -0.04192290 -0.04262344
v 0.02348934 -0.04137123 -0.04224722
v 0.02349403 -0.04135709 -0.04229679
v 0.02489189 -0.04106690 -0.04207153
v 0.02489367 -0.04105340 -0.04212147
v 0.02633747 -0.04104049 -0.04205628
v 0.02633625 -0.04102705 -0.04210625
v 0.02775359 -0.04129332 -0.04220224
v 0.02774943 -0.04127935 -0.04225191
v 0.02906924 -0.04181272 -0.04250210
v 0.02906235 -0.04179768 -0.04255114
v 0.03021845 -0.04257264 -0.04294081
v 0.03020918 -0.04255601 -0.04298894
v 0.01974855 -0.04850864 -0.04646775
v 0.01939987 -0.04730338 -0.04577193
v 0.01936961 -0.04606114 -0.04505477
v 0.01965929 -0.04484423 -0.04435223
v 0.02025439 -0.04371364 -0.04369953
v 0.02112506 -0.04272609 -0.04312940
v 0.02222764 -0.04193108 -0.04267043
v 0.02350685 -0.04136849 -0.04234564
v 0.02489853 -0.04106652 -0.04217130
v 0.02633292 -0.04104031 -0.04215617
v 0.02773808 -0.04129119 -0.04230101
v 0.02904354 -0.04180656 -0.04259854
v 0.03018385 -0.04256060 -0.04303386
v 0.02043993 -0.04958598 -0.04710518
v 0.01979538 -0.04848678 -0.04647059
v 0.01944942 -0.04729092 -0.04578022
v 0.01941940 -0.04605839 -0.04506865
v 0.01970682 -0.04485096 -0.04437159
v 0.02029728 -0.04372920 -0.04372398
v 0.02116115 -0.04274936 -0.04315830
v 0.02225513 -0.04196056 -0.04270291
v 0.02352435 -0.04140235 -0.04238065
v 0.02490518 -0.04110273 -0.04220768
v 0.02632837 -0.04107674 -0.04219267
v 0.02772256 -0.04132565 -0.04233638
v 0.02901784 -0.04183701 -0.04263159
v 0.03014925 -0.04258516 -0.04306351
v 0.02268833 -0.05138407 -0.04814325
v 0.02423456 -0.05190593 -0.04844452
v 0.02588407 -0.05206343 -0.04853545
v 0.02752444 -0.05184583 -0.04840983
v 0.02904388 -0.05126796 -0.04807621
v 0.03033885 -0.05036920 -0.04755735
v 0.03132110 -0.04921080 -0.04688859
v 0.03192369 -0.04787171 -0.04611551
v 0.03210555 -0.04644317 -0.04529079
v 0.03185429 -0.04502255 -0.04447065
v 0.03118703 -0.04370665 -0.04371096
v 0.02872342 0.02146926 -0.04779559
v 0.05974500 -0.03698034 -0.06208216
v 0.05564925 -0.03118787 -0.06206181
v 0.05707046 -0.02988116 -0.06050461
v 0.05567573 -0.03121146 -0.06207808
v 0.05710549 -0.02989688 -0.06051150
v 0.05569819 -0.03124312 -0.06208208
v 0.05713520 -0.02992187 -0.06050756
v 0.05571319 -0.03127803 -0.06207322
v 0.05715505 -0.02995232 -0.06049338
v 0.05760555 -0.02832430 -0.05864932
v 0.05764381 -0.02833065 -0.05864505
v 0.05767624 -0.02834770 -0.05863164
v 0.05769792 -0.02837284 -0.05861113
v 0.05583885 -0.02541025 -0.05517668
v 0.05380603 -0.02449669 -0.05408800
v 0.05586648 -0.02539905 -0.05515150
v 0.05382141 -0.02447999 -0.05405626
v 0.05588989 -0.02540123 -0.05512036
v 0.05383446 -0.02447750 -0.05401957
v 0.05590554 -0.02541644 -0.05508802
v 0.05384317 -0.02448960 -0.05398351
v 0.05138407 -0.02415272 -0.05367810
v 0.05138487 -0.02413396 -0.05364390
v 0.05138556 -0.02412972 -0.05360512
v 0.05138602 -0.02414064 -0.05356766
v 0.05725915 -0.02678005 -0.05671302
v 0.05723895 -0.02676026 -0.05673990
v 0.05720872 -0.02675123 -0.05676286
v 0.05717307 -0.02675433 -0.05677840
v 0.04890815 -0.02442268 -0.05390377
v 0.04891602 -0.02441081 -0.05394010
v 0.04892780 -0.02441364 -0.05397719
v 0.04894170 -0.02443073 -0.05400939
v 0.04685075 -0.02528837 -0.05503144
v 0.04682427 -0.02527644 -0.05500539
v 0.04680181 -0.02527800 -0.05497351
v 0.04678681 -0.02529279 -0.05494067
v 0.04542955 -0.02659509 -0.05658864
v 0.04489445 -0.02815194 -0.05844392
v 0.04532693 -0.02972192 -0.06031485
v 0.04666115 -0.03106600 -0.06191657
v 0.04869397 -0.03197956 -0.06300525
v 0.05111593 -0.03232352 -0.06341514
v 0.05355830 -0.03204552 -0.06308385
v 0.02135075 0.03118787 0.06206181
v 0.02132427 0.03121146 0.06207808
v 0.01989450 0.02989688 0.06051150
v 0.02130182 0.03124312 0.06208208
v 0.01986480 0.02992187 0.06050756
v 0.02128681 0.03127803 0.06207322
v 0.01984495 0.02995232 0.06049338
v 0.01974085 0.02678005 0.05671302
v 0.01930209 0.02837284 0.05861113
v 0.02809185 0.02442268 0.05390377
v 0.02561398 0.02414064 0.05356766
v 0.02109446 0.02541644 0.05508802
v 0.02315683 0.02448960 0.05398351
v 0.03021319 0.02529279 0.05494067
v 0.01932376 0.02834770 0.05863164
v 0.01976105 0.02676026 0.05673990
v 0.02111010 0.02540123 0.05512036
v 0.02316554 0.02447750 0.05401957
v 0.02561444 0.02412972 0.05360512
v 0.02808398 0.02441081 0.05394010
v 0.03019818 0.02527800 0.05497351
v 0.01935619 0.02833065 0.05864505
v 0.01979128 0.02675123 0.05676286
v 0.02113352 0.02539905 0.05515150
v 0.02317859 0.02447999 0.05405626
v 0.02561513 0.02413396 0.05364390
v 0.02807220 0.02441364 0.05397719
v 0.03017573 0.02527644 0.05500539
v 0.01992955 0.02988116 0.06050461
v 0.01939445 0.02832430 0.05864932
v 0.01982693 0.02675433 0.05677840
v 0.02116115 0.02541025 0.05517668
v 0.02319397 0.02449669 0.05408800
v 0.02561593 0.02415272 0.05367810
v 0.02805830 0.02443073 0.05400939
v 0.03014925 0.02528837 0.05503144
v 0.02588407 0.03232352 0.06341514
v 0.02344170 0.03204552 0.06308385
v 0.02830603 0.03197956 0.06300525
v 0.03033885 0.03106600 0.06191657
v 0.03167307 0.02972192 0.06031485
v 0.03210555 0.02815194 0.05844392
v 0.03157046 0.02659509 0.05658864
v 0.04870554 0.02166675 -0.06000502
v 0.03712023 0.05943995 -0.03603820
v 0.01791867 0.04988052 -0.02999756
v 0.02819073 0.07051444 -0.02323583
v 0.04572744 0.01590148 -0.05965473
v 0.04504969 0.01590144 -0.06119808
v 0.04479447 0.01590139 -0.06286425
v 0.04497920 0.01590135 -0.06453971
v 0.04559126 0.01590130 -0.06611026
v 0.04658896 0.01590127 -0.06746888
v 0.04790431 0.01590124 -0.06852298
v 0.04944765 0.01590122 -0.06920074
v 0.05111382 0.01590121 -0.06945596
v 0.05278928 0.01590122 -0.06927123
v 0.05435983 0.01590124 -0.06865916
v 0.03127256 -0.05598578 0.02602184
v 0.03195031 -0.05750567 0.02628988
v 0.03220553 -0.05914653 0.02657926
v 0.03202080 -0.06079652 0.02687024
v 0.03140874 -0.06234320 0.02714300
v 0.03041104 -0.06368119 0.02737896
v 0.02909570 -0.06471927 0.02756203
v 0.02755235 -0.06538672 0.02767974
v 0.02588618 -0.06563806 0.02772406
v 0.02264017 -0.06485338 0.02758568
v 0.02421072 -0.06545614 0.02769198
v 0.03160549 0.02659103 0.05657196
v 0.03163520 0.02659925 0.05654803
v 0.03165505 0.02661850 0.05652050
v 0.03175915 0.02979077 0.06030086
v 0.03219792 0.02819798 0.05840275
v 0.02340815 0.03214814 0.06311011
v 0.02588602 0.03243018 0.06344622
v 0.03040554 0.03115438 0.06192586
v 0.02834317 0.03208122 0.06303037
v 0.03217624 0.02817342 0.05842395
v 0.03173895 0.02976086 0.06031569
v 0.03038990 0.03111989 0.06193523
v 0.02833446 0.03204361 0.06303602
v 0.02588556 0.03239140 0.06345047
v 0.02341602 0.03211030 0.06311549
v 0.03214381 0.02815725 0.05843841
v 0.03170872 0.02973668 0.06032059
v 0.03036648 0.03108885 0.06193196
v 0.02832141 0.03200791 0.06302720
v 0.02588487 0.03235395 0.06343956
v 0.02342780 0.03207427 0.06310627
v 0.04865683 -0.03208122 -0.06303037
v 0.04480208 -0.02819798 -0.05840275
v 0.04529128 -0.02973668 -0.06032059
v 0.04663352 -0.03108885 -0.06193196
v 0.04526105 -0.02976086 -0.06031569
v 0.04661011 -0.03111989 -0.06193523
v 0.04524085 -0.02979077 -0.06030086
v 0.04659446 -0.03115438 -0.06192586
v 0.04539451 -0.02659103 -0.05657196
v 0.04536480 -0.02659925 -0.05654803
v 0.04534495 -0.02661850 -0.05652050
v 0.04485619 -0.02815725 -0.05843841
v 0.04482376 -0.02817342 -0.05842395
v 0.04866554 -0.03204361 -0.06303602
v 0.04867859 -0.03200791 -0.06302720
v 0.05111399 -0.03243018 -0.06344622
v 0.05111444 -0.03239140 -0.06345047
v 0.05111513 -0.03235395 -0.06343956
v 0.05357220 -0.03207427 -0.06310627
v 0.05358398 -0.03211030 -0.06311549
v 0.05359185 -0.03214814 -0.06311011
v 0.05476231 -0.03056648 -0.04103169
v 0.04785509 -0.04737637 -0.05317182
v 0.03437208 0.01941010 -0.07063217
v 0.01814022 0.02576481 -0.06647846
v 0.03127256 -0.04371177 -0.04359845
v 0.03195031 -0.04504837 -0.04437009
v 0.03220553 -0.04649134 -0.04520313
v 0.03202080 -0.04794235 -0.04604083
v 0.03140874 -0.04930251 -0.04682606
v 0.03041104 -0.05047913 -0.04750534
v 0.02909570 -0.05139203 -0.04803237
v 0.02755235 -0.05197899 -0.04837123
v 0.02264017 -0.05150996 -0.04810046
v 0.02421072 -0.05204004 -0.04840647
v 0.02588618 -0.05220002 -0.04849884
v 0.03122980 -0.04369091 -0.04368640
v 0.03126110 -0.04369279 -0.04364522
v 0.03193745 -0.04502661 -0.04441526
v 0.03219213 -0.04646659 -0.04524658
v 0.03200779 -0.04791458 -0.04608253
v 0.03139700 -0.04927192 -0.04686614
v 0.03040137 -0.05044610 -0.04754401
v 0.02908875 -0.05135711 -0.04806995
v 0.02754861 -0.05194285 -0.04840810
v 0.02588589 -0.05216341 -0.04853544
v 0.02421392 -0.05200377 -0.04844327
v 0.02264662 -0.05147480 -0.04813789
v 0.03190230 -0.04501716 -0.04445207
v 0.03215554 -0.04644896 -0.04527866
v 0.03197224 -0.04788873 -0.04610986
v 0.03136492 -0.04923836 -0.04688902
v 0.03037494 -0.05040587 -0.04756304
v 0.02906979 -0.05131169 -0.04808599
v 0.02753839 -0.05189411 -0.04842223
v 0.02588512 -0.05211342 -0.04854884
v 0.02422264 -0.05195468 -0.04845720
v 0.02266425 -0.05142872 -0.04815355
v 0.03160549 -0.02658799 0.05657339
v 0.03163520 -0.02659621 0.05654946
v 0.03165505 -0.02661546 0.05652193
v 0.03214381 -0.02815411 0.05843993
v 0.03217624 -0.02817028 0.05842547
v 0.03219792 -0.02819484 0.05840426
v 0.03036648 -0.03108552 0.06193363
v 0.02832141 -0.03200453 0.06302892
v 0.03038990 -0.03111656 0.06193690
v 0.02833446 -0.03204022 0.06303774
v 0.03040554 -0.03115106 0.06192754
v 0.02834317 -0.03207783 0.06303209
v 0.02588487 -0.03235054 0.06344130
v 0.02588556 -0.03238799 0.06345221
v 0.02588602 -0.03242677 0.06344797
v 0.03175915 -0.02978753 0.06030246
v 0.03173895 -0.02975762 0.06031729
v 0.03170872 -0.02973344 0.06032219
v 0.02340815 -0.03214475 0.06311184
v 0.02341602 -0.03210691 0.06311722
v 0.02342780 -0.03207088 0.06310800
v 0.01705843 -0.03674681 0.06203318
v 0.02834317 0.00858506 -0.07020205
v 0.03219792 0.00651905 -0.06452526
v 0.03170872 0.00730889 -0.06685375
v 0.03036648 0.00802829 -0.06883045
v 0.03173895 0.00733329 -0.06685741
v 0.03038990 0.00805633 -0.06884414
v 0.03175915 0.00736647 -0.06685371
v 0.03040554 0.00809195 -0.06884713
v 0.03160549 0.00563530 -0.06225522
v 0.03163520 0.00565121 -0.06223555
v 0.03165505 0.00567871 -0.06221626
v 0.03214381 0.00646858 -0.06454484
v 0.03217624 0.00648872 -0.06453679
v 0.02833446 0.00854779 -0.07019450
v 0.02832141 0.00851726 -0.07017400
v 0.02588602 0.00877072 -0.07071219
v 0.02588556 0.00873282 -0.07070292
v 0.02588487 0.00870136 -0.07067986
v 0.02342780 0.00855256 -0.07027100
v 0.02341602 0.00858327 -0.07029200
v 0.02340815 0.00862066 -0.07029989
v 0.05135059 0.05506239 0.03125068
v 0.05060972 0.00075668 -0.06178968
v 0.05635789 -0.01302610 -0.07170079
v 0.04573890 0.01595148 -0.05966168
v 0.04577020 0.01598808 -0.05968064
v 0.04509770 0.01598804 -0.06121204
v 0.04484446 0.01598799 -0.06286531
v 0.04502776 0.01598795 -0.06452779
v 0.04563508 0.01598791 -0.06608618
v 0.04662506 0.01598787 -0.06743428
v 0.04793021 0.01598784 -0.06848023
v 0.04946161 0.01598782 -0.06915273
v 0.05111488 0.01598782 -0.06940597
v 0.05277736 0.01598782 -0.06922267
v 0.05433575 0.01598784 -0.06861535
v 0.04506255 0.01595144 -0.06120182
v 0.04480787 0.01595139 -0.06286453
v 0.04499221 0.01595135 -0.06453651
v 0.04560300 0.01595130 -0.06610381
v 0.04659863 0.01595127 -0.06745961
v 0.04791125 0.01595124 -0.06851153
v 0.04945139 0.01595122 -0.06918788
v 0.05111410 0.01595121 -0.06944256
v 0.05278608 0.01595122 -0.06925822
v 0.05435338 0.01595124 -0.06864743
v 0.03126110 0.06152494 -0.00535230
v 0.03122980 0.06154997 -0.00538506
v 0.03190230 0.06305811 -0.00511917
v 0.03215554 0.06468627 -0.00483213
v 0.03197224 0.06632350 -0.00454349
v 0.03136492 0.06785822 -0.00427292
v 0.03037494 0.06918585 -0.00403886
v 0.02906979 0.07021591 -0.00385726
v 0.02753839 0.07087820 -0.00374050
v 0.02588512 0.07112759 -0.00369653
v 0.02422264 0.07094709 -0.00372835
v 0.02266425 0.07034899 -0.00383380
v 0.03193745 0.06304169 -0.00508490
v 0.03219213 0.06467915 -0.00479622
v 0.03200779 0.06632574 -0.00450593
v 0.03139700 0.06786923 -0.00423381
v 0.03040137 0.06920444 -0.00399841
v 0.02908875 0.07024039 -0.00381578
v 0.02754861 0.07090646 -0.00369835
v 0.02588589 0.07115728 -0.00365413
v 0.02421392 0.07097574 -0.00368614
v 0.02264662 0.07037421 -0.00379218
v 0.03127256 0.06150942 -0.00530427
v 0.03195031 0.06302933 -0.00503631
v 0.03220553 0.06467019 -0.00474703
v 0.03202080 0.06632020 -0.00445613
v 0.03140874 0.06786691 -0.00418345
v 0.03041104 0.06920489 -0.00394756
v 0.02909570 0.07024299 -0.00376455
v 0.02755235 0.07091045 -0.00364687
v 0.02588618 0.07116178 -0.00360256
v 0.02421072 0.07097987 -0.00363464
v 0.02264017 0.07037710 -0.00374090
v 0.02127459 0.05546245 0.00752237
v 0.01727858 0.06010951 -0.01326547
v 0.03126110 -0.05598393 0.02607229
v 0.03122980 -0.05599625 0.02611163
v 0.03190230 -0.05750438 0.02637759
v 0.03215554 -0.05913252 0.02666472
v 0.03197224 -0.06076974 0.02695346
v 0.03136492 -0.06230445 0.02722411
v 0.03037494 -0.06363207 0.02745824
v 0.02906979 -0.06466211 0.02763989
v 0.02753839 -0.06532440 0.02775669
v 0.02588512 -0.06557379 0.02780067
v 0.02422264 -0.06539328 0.02776884
v 0.02266425 -0.06479519 0.02766336
v 0.03193745 -0.05750067 0.02633977
v 0.03219213 -0.05913812 0.02662854
v 0.03200779 -0.06078469 0.02691892
v 0.03139700 -0.06232816 0.02719112
v 0.03040137 -0.06366336 0.02742659
v 0.02908875 -0.06469930 0.02760928
v 0.02754861 -0.06536537 0.02772675
v 0.02588589 -0.06561618 0.02777098
v 0.02421392 -0.06543464 0.02773897
v 0.02264662 -0.06483313 0.02763288
v 0.02570987 -0.06176279 0.01095908
v 0.02478986 -0.04101547 -0.04938106
v 0.03122980 0.05599765 0.02610862
v 0.03126110 0.05598534 0.02606928
v 0.03127256 0.05598718 0.02601883
v 0.03195031 0.05750708 0.02628679
v 0.03193745 0.05750209 0.02633668
v 0.03220553 0.05914795 0.02657608
v 0.03219213 0.05913955 0.02662537
v 0.03202080 0.06079796 0.02686697
v 0.03200779 0.06078614 0.02691566
v 0.03140874 0.06234466 0.02713965
v 0.03139700 0.06232963 0.02718777
v 0.03041104 0.06368265 0.02737554
v 0.03040137 0.06366484 0.02742317
v 0.02909570 0.06472075 0.02755856
v 0.02908875 0.06470078 0.02760581
v 0.02755235 0.06538821 0.02767623
v 0.02754861 0.06536686 0.02772324
v 0.02588618 0.06563954 0.02772054
v 0.02588589 0.06561767 0.02776745
v 0.02421072 0.06545763 0.02768847
v 0.02421392 0.06543613 0.02773545
v 0.02264017 0.06485486 0.02758220
v 0.02264662 0.06483462 0.02762940
v 0.03190230 0.05750579 0.02637450
v 0.03215554 0.05913395 0.02666155
v 0.03197224 0.06077119 0.02695019
v 0.03136492 0.06230591 0.02722076
v 0.03037494 0.06363354 0.02745482
v 0.02906979 0.06466360 0.02763642
v 0.02753839 0.06532589 0.02775318
v 0.02588512 0.06557528 0.02779715
v 0.02422264 0.06539477 0.02776532
v 0.02266425 0.06479667 0.02765988
v 0.01556210 -0.04050303 0.04373541
v 0.03742172 -0.03971818 0.04083775
v 0.05769508 -0.04763954 -0.03331124
v 0.01661986 0.03557737 0.04111190
v 0.03452733 0.04665246 0.05252504
v 0.03803111 0.03679075 -0.04824174
v 0.01988132 0.01522952 0.04064751
f 5 37 4
f 3 37 2
f 2 37 36
f 3 4 37
f 6 36 5
f 2 36 6
f 4 3 14
f 7 8 6
f 6 8 9
f 7 6 10
f 10 6 4
f 10 4 11
f 11 4 12
f 14 13 15
f 14 15 12
f 16 17 14
f 21 18 19
f 6 9 2
f 2 9 20
f 12 4 14
f 5 4 6
f 20 18 2
f 2 18 21
f 3 2 21
f 19 16 21
f 21 16 14
f 3 21 14
f 17 13 14
f 22 23 15
f 15 23 24
f 15 24 12
f 12 24 25
f 12 25 11
f 11 25 26
f 11 26 10
f 10 26 27
f 10 27 7
f 7 27 28
f 7 28 8
f 8 28 29
f 8 29 9
f 9 29 30
f 9 30 20
f 20 30 31
f 20 31 18
f 18 31 32
f 18 32 19
f 19 32 33
f 19 33 16
f 16 33 34
f 16 34 17
f 17 34 35
f 17 35 13
f 13 35 22
f 13 22 15
f 38 1 5
f 25 24 38
f 35 34 37
f 37 34 33
f 37 33 32
f 37 32 36
f 36 32 31
f 36 31 30
f 36 30 29
f 36 29 28
f 36 28 5
f 5 28 27
f 5 27 26
f 38 5 25
f 25 5 26
f 24 23 38
f 23 22 38
f 38 22 35
f 38 35 37
f 37 5 38
f 38 5 1
f 38 5 1
f 1 5 38
f 50 190 46
f 50 794 190
f 974 48 822
f 974 820 48
f 95 817 814
f 47 976 117
f 47 117 715
f 112 115 820
f 1224 116 715
f 44 135 134
f 138 713 116
f 49 154 156
f 156 154 740
f 49 160 135
f 162 186 189
f 46 973 50
f 157 156 740
f 176 181 192
f 820 822 48
f 286 52 53
f 53 52 54
f 53 54 55
f 55 54 249
f 54 52 56
f 57 58 59
f 248 60 61
f 61 60 62
f 61 62 286
f 58 57 63
f 58 63 60
f 60 63 64
f 60 64 62
f 249 54 59
f 59 54 56
f 59 56 57
f 68 65 242
f 378 66 67
f 378 67 69
f 69 67 68
f 69 68 242
f 73 268 269
f 974 93 95
f 89 96 74
f 74 96 75
f 74 75 76
f 76 75 77
f 76 77 78
f 78 77 79
f 78 79 80
f 80 79 81
f 80 81 82
f 82 81 83
f 82 83 84
f 83 85 84
f 84 85 89
f 84 89 86
f 84 86 82
f 82 86 87
f 82 87 80
f 80 87 78
f 78 87 76
f 76 87 74
f 74 87 89
f 89 88 86
f 86 88 87
f 87 88 89
f 89 820 974
f 89 822 817
f 974 975 233
f 233 88 974
f 88 89 974
f 814 304 89
f 88 95 814
f 1372 974 233
f 95 233 974
f 1372 975 974
f 814 89 88
f 89 85 90
f 90 85 91
f 90 91 92
f 92 91 93
f 92 93 822
f 822 93 974
f 89 90 94
f 94 90 92
f 94 92 822
f 94 822 89
f 93 96 95
f 75 96 93
f 75 93 77
f 77 93 79
f 79 93 81
f 81 93 83
f 91 85 93
f 93 85 83
f 817 95 96
f 96 89 817
f 98 304 97
f 98 97 99
f 98 99 100
f 99 114 100
f 100 114 101
f 100 101 102
f 102 101 103
f 102 103 104
f 104 103 105
f 104 105 106
f 106 105 107
f 106 107 108
f 108 107 47
f 108 47 117
f 117 110 108
f 108 110 106
f 106 110 104
f 104 110 102
f 102 110 100
f 100 110 109
f 100 109 98
f 98 109 304
f 117 111 110
f 110 111 109
f 109 111 304
f 117 976 111
f 47 112 976
f 976 112 820
f 976 820 89
f 113 97 304
f 117 113 304
f 117 715 113
f 47 114 112
f 97 114 99
f 101 114 47
f 101 47 103
f 103 47 105
f 105 47 107
f 47 715 117
f 115 112 114
f 115 114 97
f 115 97 113
f 115 113 715
f 715 117 116
f 44 43 138
f 119 116 118
f 119 118 120
f 119 120 121
f 120 139 121
f 121 139 122
f 121 122 123
f 123 122 124
f 123 124 125
f 125 124 126
f 125 126 127
f 127 126 128
f 127 128 129
f 129 128 130
f 129 130 137
f 137 133 132
f 137 132 129
f 129 132 127
f 127 132 125
f 125 132 123
f 123 132 121
f 121 132 131
f 121 131 119
f 119 131 116
f 132 133 131
f 131 133 116
f 133 137 134
f 134 135 133
f 135 44 136
f 135 118 116
f 138 116 136
f 138 136 1374
f 44 1374 136
f 138 1374 44
f 135 116 117
f 134 137 44
f 118 139 120
f 122 139 43
f 122 43 124
f 124 43 126
f 126 43 128
f 128 43 130
f 118 138 139
f 139 138 43
f 43 44 137
f 43 137 130
f 713 138 118
f 135 713 118
f 713 135 134
f 140 377 159
f 140 159 141
f 140 141 142
f 141 158 142
f 142 158 143
f 142 143 144
f 144 143 145
f 144 145 146
f 146 145 147
f 146 147 148
f 148 147 149
f 148 149 150
f 150 149 151
f 150 151 156
f 156 154 153
f 156 153 150
f 150 153 148
f 148 153 146
f 146 153 144
f 144 153 142
f 142 153 152
f 142 152 140
f 140 152 377
f 154 1491 153
f 153 1491 152
f 152 1491 377
f 154 49 909
f 155 377 154
f 1491 49 135
f 159 377 155
f 154 157 155
f 49 1491 909
f 157 154 156
f 45 158 49
f 159 158 141
f 143 158 45
f 143 45 145
f 145 45 147
f 147 45 149
f 149 45 151
f 45 49 156
f 45 156 151
f 160 49 158
f 160 158 159
f 160 159 155
f 160 155 157
f 161 171 162
f 186 163 162
f 162 163 380
f 380 163 173
f 162 163 186
f 186 73 301
f 186 162 171
f 154 173 740
f 164 171 161
f 164 161 165
f 164 165 166
f 166 165 167
f 166 167 168
f 168 167 169
f 168 169 170
f 170 169 173
f 171 164 166
f 168 172 166
f 168 170 172
f 172 170 173
f 171 166 172
f 172 186 171
f 172 173 71
f 154 72 173
f 740 173 163
f 380 163 162
f 740 163 380
f 173 72 71
f 172 71 186
f 71 73 186
f 380 173 169
f 380 169 167
f 380 167 165
f 380 165 161
f 380 161 162
f 174 187 188
f 185 181 176
f 185 176 177
f 177 176 178
f 177 178 179
f 179 178 180
f 179 180 175
f 175 180 188
f 179 175 177
f 177 175 185
f 175 186 192
f 185 175 192
f 185 192 181
f 301 192 186
f 175 188 187
f 181 189 186
f 182 187 174
f 182 174 183
f 182 183 184
f 184 183 189
f 184 189 185
f 187 182 184
f 185 186 184
f 187 184 186
f 187 186 175
f 186 185 181
f 178 176 180
f 180 176 188
f 189 181 185
f 189 183 174
f 189 174 188
f 192 193 46
f 51 50 973
f 767 191 190
f 190 191 192
f 51 973 191
f 191 973 192
f 46 193 973
f 191 192 301
f 192 191 767
f 193 767 192
f 193 192 973
f 46 190 192
f 767 193 192
f 195 226 214
f 197 228 196
f 197 196 198
f 197 198 199
f 198 231 199
f 199 231 200
f 199 200 201
f 201 200 202
f 201 202 203
f 203 202 204
f 203 204 205
f 205 204 206
f 205 206 207
f 207 206 208
f 207 208 209
f 208 229 209
f 209 229 814
f 209 814 211
f 209 211 207
f 207 211 212
f 207 212 205
f 205 212 203
f 203 212 201
f 201 212 199
f 199 212 210
f 199 210 197
f 197 210 228
f 814 213 211
f 211 213 212
f 212 213 210
f 210 213 228
f 814 214 230
f 814 230 213
f 230 215 213
f 215 230 194
f 301 70 814
f 301 814 191
f 814 214 226
f 228 191 217
f 228 217 216
f 216 196 228
f 215 194 213
f 219 226 195
f 219 195 220
f 219 220 221
f 221 220 222
f 221 222 223
f 223 222 224
f 223 224 225
f 225 224 218
f 225 218 217
f 217 218 216
f 226 219 221
f 223 227 221
f 223 225 227
f 227 225 217
f 226 221 227
f 226 227 814
f 227 217 191
f 51 191 213
f 51 213 194
f 191 228 213
f 191 814 227
f 814 229 214
f 214 229 230
f 196 231 198
f 200 231 232
f 200 232 202
f 202 232 204
f 204 232 206
f 206 232 208
f 232 194 230
f 196 194 231
f 231 194 232
f 232 230 229
f 232 229 208
f 51 194 196
f 216 51 196
f 51 216 218
f 51 218 224
f 51 224 222
f 51 222 220
f 51 220 195
f 51 195 214
f 234 241 235
f 237 238 239
f 233 238 236
f 236 238 237
f 236 237 234
f 234 237 239
f 234 239 241
f 241 233 235
f 235 233 234
f 234 233 240
f 234 240 236
f 236 240 233
f 241 239 238
f 241 238 233
f 1372 233 975
f 247 244 245
f 245 244 246
f 245 246 243
f 243 246 250
f 250 251 252
f 253 378 252
f 252 378 250
f 267 250 378
f 378 69 242
f 254 378 253
f 246 244 255
f 250 246 251
f 251 246 255
f 251 255 252
f 252 255 256
f 252 256 253
f 253 256 257
f 253 257 254
f 254 257 258
f 256 255 258
f 259 258 260
f 260 258 248
f 60 248 58
f 248 249 58
f 58 249 59
f 257 256 258
f 247 258 255
f 247 255 244
f 72 262 263
f 263 71 72
f 258 247 72
f 72 247 261
f 72 261 262
f 72 248 258
f 73 71 264
f 264 71 263
f 264 263 265
f 265 263 262
f 266 245 267
f 267 245 243
f 247 245 261
f 261 245 266
f 261 266 262
f 262 266 268
f 262 268 265
f 248 72 154
f 73 264 268
f 268 264 265
f 268 266 267
f 267 243 250
f 268 267 269
f 269 267 270
f 267 378 242
f 154 271 248
f 248 271 272
f 248 272 55
f 55 249 248
f 242 65 273
f 267 242 273
f 267 273 270
f 275 274 287
f 273 274 270
f 270 274 275
f 270 275 269
f 269 275 276
f 277 287 278
f 55 272 53
f 53 272 279
f 53 279 286
f 154 377 280
f 154 280 271
f 271 280 277
f 271 277 272
f 272 277 278
f 272 278 279
f 275 287 276
f 281 280 377
f 287 277 281
f 281 277 280
f 284 282 283
f 284 283 285
f 284 285 379
f 68 67 66
f 273 65 66
f 65 68 66
f 279 278 286
f 286 62 64
f 64 63 286
f 286 63 57
f 286 57 52
f 52 57 56
f 286 278 287
f 288 814 70
f 288 70 289
f 289 70 291
f 70 337 290
f 70 290 291
f 337 70 301
f 301 376 117
f 303 295 350
f 350 295 296
f 350 296 297
f 297 296 298
f 297 298 299
f 299 298 300
f 299 300 292
f 292 300 294
f 302 301 373
f 117 304 373
f 304 305 306
f 306 305 307
f 306 307 308
f 308 307 309
f 308 309 310
f 310 309 311
f 310 311 303
f 303 311 312
f 303 312 295
f 303 313 310
f 310 313 308
f 308 313 306
f 306 313 304
f 294 314 315
f 337 316 317
f 317 316 319
f 317 319 318
f 318 319 320
f 318 320 321
f 321 320 322
f 321 322 323
f 323 322 324
f 323 324 325
f 326 291 327
f 327 291 290
f 327 290 328
f 294 330 293
f 293 330 329
f 293 329 336
f 314 331 332
f 314 332 315
f 315 332 333
f 315 333 334
f 334 333 335
f 334 335 336
f 336 335 337
f 294 315 330
f 330 315 334
f 330 334 329
f 329 334 336
f 338 288 339
f 339 288 289
f 339 289 326
f 326 289 291
f 290 337 317
f 290 317 328
f 328 317 318
f 328 318 327
f 327 318 321
f 327 321 326
f 326 321 323
f 326 323 339
f 339 323 325
f 339 325 338
f 302 337 301
f 316 337 335
f 316 335 319
f 319 335 333
f 319 333 320
f 320 333 332
f 320 332 322
f 322 332 331
f 322 331 324
f 341 307 340
f 340 307 305
f 340 305 304
f 814 288 342
f 342 288 338
f 342 338 343
f 304 814 340
f 340 814 342
f 340 342 341
f 341 342 343
f 341 343 344
f 344 343 345
f 338 325 343
f 343 325 324
f 343 324 345
f 345 324 331
f 345 331 314
f 344 296 295
f 295 312 344
f 344 312 311
f 344 311 341
f 341 311 309
f 341 309 307
f 296 344 298
f 298 344 345
f 298 345 300
f 300 345 314
f 300 314 294
f 292 346 299
f 299 346 347
f 299 347 297
f 346 348 347
f 347 348 349
f 347 349 375
f 297 347 350
f 350 347 375
f 303 350 313
f 304 350 373
f 292 294 346
f 346 294 352
f 346 352 348
f 302 353 354
f 355 337 354
f 354 337 302
f 294 293 352
f 352 293 336
f 352 336 356
f 356 336 357
f 357 336 337
f 357 337 355
f 353 302 358
f 358 302 359
f 351 360 361
f 351 361 362
f 362 361 363
f 362 363 364
f 364 363 365
f 364 365 366
f 366 365 367
f 366 367 368
f 368 367 369
f 368 369 370
f 370 369 371
f 370 371 372
f 372 371 349
f 372 349 348
f 348 352 372
f 372 352 356
f 372 356 370
f 370 356 357
f 370 357 368
f 368 357 355
f 368 355 366
f 366 355 354
f 366 354 364
f 364 354 353
f 364 353 362
f 362 353 358
f 362 358 351
f 351 358 359
f 351 359 360
f 360 359 375
f 360 375 361
f 361 375 363
f 363 375 365
f 365 375 367
f 367 375 369
f 369 375 371
f 371 375 349
f 373 375 374
f 375 359 374
f 359 302 374
f 374 302 373
f 350 375 373
f 276 377 376
f 715 800 117
f 117 800 301
f 800 802 301
f 301 802 117
f 802 715 117
f 716 157 1455
f 741 162 42
f 189 188 162
f 767 46 793
f 817 822 48
f 767 190 46
f 160 157 716
f 188 176 181
f 51 214 1493
f 382 383 1430
f 384 385 1430
f 384 1430 386
f 386 1430 387
f 387 1430 388
f 388 1430 389
f 389 1430 390
f 1430 383 391
f 1430 391 390
f 382 1430 392
f 392 1430 393
f 393 1430 394
f 395 419 396
f 396 419 397
f 397 419 398
f 398 419 399
f 399 419 400
f 401 419 402
f 402 419 403
f 403 419 404
f 404 419 405
f 419 406 407
f 419 407 408
f 419 408 409
f 419 409 405
f 400 419 401
f 419 410 411
f 419 411 412
f 419 412 413
f 419 413 406
f 395 414 419
f 419 414 415
f 419 415 416
f 419 416 417
f 419 417 418
f 419 418 410
f 398 420 421
f 420 422 423
f 422 385 384
f 422 384 423
f 423 384 386
f 423 386 424
f 424 386 387
f 424 387 425
f 425 387 388
f 425 388 426
f 426 388 389
f 426 389 427
f 427 389 390
f 427 390 428
f 428 390 391
f 428 391 429
f 429 391 383
f 429 383 430
f 430 383 382
f 430 382 431
f 431 382 392
f 431 392 432
f 432 392 393
f 432 393 433
f 433 393 394
f 433 394 434
f 420 423 421
f 421 423 424
f 421 424 435
f 435 424 425
f 435 425 436
f 436 425 426
f 436 426 437
f 437 426 427
f 437 427 438
f 438 427 428
f 438 428 439
f 439 428 429
f 439 429 440
f 440 429 430
f 440 430 441
f 441 430 431
f 441 431 442
f 442 431 432
f 442 432 443
f 443 432 433
f 443 433 444
f 444 433 434
f 444 434 445
f 398 421 397
f 397 421 435
f 397 435 396
f 396 435 436
f 396 436 395
f 395 436 437
f 395 437 414
f 414 437 438
f 414 438 415
f 415 438 439
f 415 439 416
f 416 439 440
f 416 440 417
f 417 440 441
f 417 441 418
f 418 441 442
f 418 442 410
f 410 442 443
f 410 443 411
f 411 443 444
f 411 444 412
f 412 444 445
f 412 445 413
f 447 448 449
f 448 450 451
f 450 452 453
f 450 453 451
f 451 453 454
f 451 454 455
f 455 454 456
f 455 456 457
f 457 456 458
f 457 458 459
f 459 458 460
f 459 460 461
f 461 460 462
f 461 462 463
f 463 462 464
f 463 464 465
f 465 464 466
f 465 466 467
f 467 466 468
f 467 468 469
f 469 468 470
f 469 470 471
f 471 470 472
f 471 472 473
f 473 472 474
f 473 474 475
f 475 474 476
f 475 476 477
f 477 476 478
f 477 478 479
f 448 451 449
f 449 451 455
f 449 455 480
f 480 455 457
f 480 457 481
f 481 457 459
f 481 459 482
f 482 459 461
f 482 461 483
f 483 461 463
f 483 463 484
f 484 463 465
f 484 465 485
f 485 465 467
f 485 467 486
f 486 467 469
f 486 469 487
f 487 469 471
f 487 471 488
f 488 471 473
f 488 473 489
f 489 473 475
f 489 475 490
f 490 475 477
f 490 477 491
f 491 477 479
f 491 479 492
f 447 449 493
f 493 449 480
f 493 480 494
f 494 480 481
f 494 481 495
f 495 481 482
f 495 482 496
f 496 482 483
f 496 483 497
f 497 483 484
f 497 484 498
f 498 484 485
f 498 485 499
f 499 485 486
f 499 486 500
f 500 486 487
f 500 487 501
f 501 487 488
f 501 488 502
f 502 488 489
f 502 489 503
f 503 489 490
f 503 490 504
f 504 490 491
f 504 491 505
f 505 491 492
f 505 492 506
f 460 765 462
f 462 765 464
f 507 765 508
f 508 765 509
f 509 765 510
f 464 765 466
f 466 765 468
f 468 765 470
f 470 765 472
f 507 511 765
f 765 511 512
f 765 512 478
f 765 478 476
f 765 476 474
f 765 474 472
f 460 458 765
f 765 458 456
f 456 454 765
f 765 454 453
f 765 453 452
f 765 452 513
f 765 513 514
f 510 765 515
f 515 765 516
f 516 765 517
f 517 765 514
f 520 549 521
f 562 592 521
f 521 549 562
f 524 523 568
f 526 525 523
f 523 525 568
f 519 522 525
f 527 526 528
f 528 526 523
f 528 523 524
f 520 521 529
f 529 521 527
f 521 592 526
f 527 521 526
f 591 526 592
f 531 532 530
f 530 532 533
f 530 534 535
f 535 534 536
f 535 536 537
f 530 535 531
f 531 535 537
f 531 537 538
f 538 537 539
f 536 540 537
f 537 540 541
f 537 541 539
f 539 541 542
f 539 542 543
f 538 544 545
f 545 546 538
f 538 546 547
f 538 547 531
f 531 547 548
f 531 548 532
f 544 538 551
f 551 538 539
f 551 539 550
f 550 539 543
f 550 543 549
f 549 543 562
f 552 553 554
f 552 554 555
f 555 554 556
f 555 556 557
f 557 556 541
f 557 541 540
f 559 565 560
f 560 565 558
f 560 558 553
f 543 542 561
f 543 561 562
f 536 534 563
f 563 534 564
f 563 564 559
f 559 564 565
f 558 592 553
f 553 552 560
f 560 552 555
f 560 555 559
f 559 555 557
f 559 557 563
f 563 557 540
f 563 540 536
f 553 592 562
f 553 562 554
f 554 562 561
f 554 561 556
f 556 561 542
f 556 542 541
f 524 568 569
f 802 570 566
f 571 572 573
f 573 572 574
f 573 574 525
f 525 574 575
f 525 575 567
f 576 525 522
f 525 577 573
f 573 577 578
f 573 578 571
f 579 533 532
f 579 532 580
f 580 532 548
f 580 548 581
f 581 548 547
f 581 547 569
f 569 547 546
f 569 546 524
f 524 546 545
f 568 525 582
f 582 525 583
f 582 583 584
f 584 583 585
f 584 585 586
f 586 585 587
f 586 587 588
f 588 587 589
f 588 589 533
f 569 568 582
f 569 582 581
f 581 582 584
f 581 584 580
f 580 584 586
f 580 586 579
f 579 586 588
f 579 588 533
f 533 589 570
f 519 566 590
f 519 590 522
f 522 590 576
f 525 576 577
f 577 576 590
f 577 590 578
f 578 590 566
f 578 566 571
f 571 566 570
f 571 570 572
f 572 570 589
f 572 589 574
f 574 589 587
f 574 587 575
f 575 587 585
f 575 585 567
f 567 585 583
f 567 583 525
f 549 520 550
f 550 520 529
f 550 529 551
f 551 529 527
f 551 527 544
f 544 527 528
f 544 528 545
f 545 528 524
f 533 570 802
f 802 566 519
f 534 530 712
f 534 712 564
f 564 712 565
f 712 592 558
f 712 558 565
f 592 712 715
f 592 715 802
f 592 802 519
f 593 594 632
f 593 632 600
f 595 594 593
f 593 600 596
f 593 596 597
f 597 596 598
f 636 602 605
f 636 605 603
f 636 601 602
f 636 632 601
f 601 632 594
f 606 607 608
f 608 607 595
f 608 595 593
f 611 603 609
f 609 603 605
f 609 605 610
f 605 602 610
f 610 602 601
f 610 601 607
f 607 601 594
f 607 594 595
f 614 599 518
f 518 599 604
f 609 612 611
f 609 610 612
f 612 610 607
f 612 607 606
f 606 630 612
f 752 615 617
f 617 615 616
f 617 616 618
f 618 619 613
f 614 617 618
f 614 618 613
f 752 621 615
f 615 621 622
f 615 622 616
f 616 622 623
f 619 624 613
f 613 624 620
f 626 624 625
f 625 624 619
f 625 619 623
f 623 619 618
f 623 618 616
f 612 623 622
f 622 621 612
f 612 626 625
f 612 625 623
f 628 630 629
f 626 628 627
f 626 627 631
f 634 631 627
f 637 634 635
f 635 634 627
f 635 627 633
f 633 627 628
f 637 635 633
f 633 614 637
f 599 614 600
f 628 626 630
f 630 626 612
f 626 631 624
f 624 631 634
f 624 634 620
f 620 634 637
f 613 637 614
f 620 637 613
f 636 599 632
f 639 684 833
f 639 638 640
f 642 641 681
f 644 645 646
f 646 645 647
f 674 648 647
f 647 648 646
f 646 648 644
f 651 652 657
f 657 652 653
f 654 655 656
f 652 655 653
f 653 655 654
f 653 654 644
f 644 654 656
f 644 656 645
f 698 649 648
f 648 649 644
f 644 649 657
f 644 657 653
f 658 638 692
f 659 660 661
f 674 662 663
f 663 662 664
f 663 664 665
f 665 664 666
f 665 666 667
f 667 666 668
f 667 668 669
f 669 668 670
f 669 670 660
f 659 694 671
f 671 694 643
f 671 643 672
f 672 643 673
f 674 647 675
f 675 647 645
f 675 645 676
f 676 645 656
f 676 656 677
f 677 656 655
f 677 655 678
f 678 655 652
f 678 652 679
f 679 652 651
f 679 651 661
f 660 659 669
f 669 659 671
f 669 671 667
f 667 671 672
f 667 672 665
f 665 672 673
f 665 673 663
f 663 673 643
f 663 643 674
f 692 694 659
f 692 659 661
f 661 660 670
f 661 670 679
f 679 670 668
f 679 668 678
f 678 668 666
f 678 666 677
f 677 666 664
f 677 664 676
f 676 664 662
f 676 662 675
f 675 662 674
f 682 642 703
f 1431 641 680
f 681 641 649
f 649 641 1431
f 703 642 681
f 685 650 686
f 686 650 684
f 687 680 688
f 688 680 689
f 680 690 689
f 1431 680 687
f 1431 687 691
f 1431 691 683
f 638 833 692
f 681 700 696
f 681 696 697
f 681 697 703
f 700 695 696
f 693 703 694
f 695 699 696
f 696 699 702
f 696 702 697
f 700 698 701
f 701 698 702
f 681 649 698
f 692 682 693
f 693 682 703
f 681 698 700
f 695 700 701
f 695 701 699
f 699 701 702
f 692 693 694
f 711 650 649
f 650 711 684
f 684 711 705
f 641 833 684
f 680 641 684
f 710 683 706
f 706 683 691
f 706 691 707
f 707 691 687
f 707 687 708
f 680 705 690
f 690 705 709
f 690 709 689
f 689 709 708
f 689 708 688
f 688 708 687
f 706 707 710
f 708 709 711
f 711 649 704
f 709 705 711
f 711 710 708
f 708 710 707
f 710 711 704
f 1431 683 710
f 710 704 1431
f 1431 704 649
f 682 692 833
f 705 680 684
f 1226 1136 715
f 715 1136 1226
f 134 714 713
f 713 134 715
f 134 713 715
f 713 715 116
f 714 715 713
f 160 727 135
f 160 716 717
f 160 717 727
f 727 717 718
f 718 717 719
f 720 717 381
f 720 381 721
f 721 381 722
f 722 381 723
f 723 381 724
f 717 716 381
f 381 716 725
f 381 725 724
f 134 725 716
f 518 726 728
f 726 518 727
f 727 718 726
f 157 518 1455
f 134 716 1455
f 729 134 728
f 729 728 730
f 731 730 728
f 731 728 726
f 732 134 729
f 732 729 733
f 733 729 730
f 733 730 734
f 734 730 735
f 735 730 736
f 736 730 737
f 737 730 731
f 737 731 738
f 738 731 726
f 726 718 738
f 738 718 719
f 738 719 737
f 719 717 737
f 737 717 720
f 737 720 736
f 736 720 721
f 736 721 735
f 735 721 722
f 735 722 734
f 734 722 723
f 734 723 733
f 733 723 724
f 733 724 732
f 724 725 732
f 732 725 134
f 518 134 727
f 134 135 727
f 380 739 740
f 380 162 741
f 380 741 743
f 739 380 743
f 743 742 744
f 745 742 746
f 745 746 747
f 747 746 748
f 748 746 749
f 749 746 750
f 743 741 742
f 746 742 741
f 746 751 750
f 746 156 751
f 157 751 156
f 157 518 751
f 156 746 741
f 739 752 518
f 739 157 740
f 739 743 754
f 753 42 162
f 739 753 162
f 739 162 612
f 518 741 42
f 156 741 518
f 756 753 754
f 755 518 753
f 755 753 756
f 757 756 754
f 758 518 755
f 758 755 759
f 759 755 756
f 759 756 760
f 760 756 761
f 761 756 762
f 762 756 763
f 763 756 757
f 763 757 764
f 764 757 754
f 754 743 764
f 764 743 744
f 764 744 763
f 744 742 763
f 763 742 745
f 763 745 762
f 762 745 747
f 762 747 761
f 761 747 748
f 761 748 760
f 760 748 749
f 760 749 759
f 759 749 750
f 759 750 758
f 750 751 758
f 758 751 518
f 518 157 156
f 518 157 739
f 162 189 800
f 189 162 800
f 800 611 162
f 162 611 612
f 1489 162 765
f 162 1489 765
f 767 446 768
f 767 768 766
f 769 768 770
f 771 768 776
f 771 776 772
f 772 776 773
f 773 776 774
f 774 776 775
f 776 768 446
f 776 777 775
f 778 181 176
f 778 777 776
f 181 776 446
f 778 776 181
f 800 779 767
f 800 767 766
f 781 446 767
f 781 767 779
f 176 800 778
f 800 176 192
f 778 800 783
f 800 181 446
f 800 446 781
f 800 780 783
f 782 780 779
f 783 780 782
f 782 779 784
f 784 779 785
f 785 779 800
f 785 800 766
f 778 783 786
f 786 783 787
f 787 783 788
f 788 783 782
f 788 782 789
f 789 782 784
f 789 784 790
f 790 784 791
f 791 784 785
f 791 785 792
f 792 785 766
f 766 768 769
f 766 769 792
f 792 769 770
f 792 770 791
f 770 768 791
f 791 768 771
f 791 771 790
f 790 771 772
f 790 772 789
f 789 772 773
f 789 773 788
f 788 773 774
f 788 774 787
f 787 774 775
f 787 775 786
f 775 777 786
f 786 777 778
f 800 188 181
f 800 192 767
f 810 50 51
f 794 50 810
f 795 46 190
f 796 795 190
f 796 190 797
f 797 190 794
f 797 794 798
f 798 794 810
f 798 810 799
f 802 51 793
f 793 1495 802
f 801 793 51
f 801 51 802
f 804 805 806
f 805 804 807
f 807 804 803
f 807 803 808
f 809 804 806
f 46 795 803
f 803 795 808
f 808 795 796
f 808 796 807
f 807 796 797
f 807 797 805
f 805 797 798
f 805 798 806
f 806 798 799
f 806 799 809
f 809 799 810
f 809 802 804
f 803 804 1495
f 803 1495 46
f 767 793 801
f 804 800 1495
f 1495 793 46
f 804 802 800
f 809 810 802
f 802 810 51
f 811 812 819
f 811 1493 812
f 813 819 812
f 818 816 214
f 818 819 815
f 815 819 813
f 815 813 816
f 816 813 812
f 818 815 816
f 214 816 812
f 214 812 1493
f 818 1493 811
f 818 811 817
f 530 818 817
f 214 817 818
f 817 214 814
f 818 817 802
f 817 811 818
f 818 811 819
f 802 51 1493
f 533 802 817
f 1493 419 818
f 115 715 821
f 115 821 820
f 820 821 824
f 824 823 825
f 826 823 827
f 826 827 828
f 828 827 829
f 829 827 830
f 830 827 831
f 824 821 823
f 823 821 835
f 827 823 835
f 827 835 832
f 827 832 831
f 822 832 835
f 530 832 822
f 48 822 835
f 530 641 715
f 1227 642 641
f 820 824 530
f 641 821 715
f 835 642 682
f 833 834 682
f 530 834 836
f 834 48 835
f 48 834 530
f 834 835 682
f 837 836 834
f 837 834 530
f 530 836 838
f 838 836 839
f 839 836 840
f 840 836 841
f 841 836 842
f 842 836 843
f 843 836 837
f 843 837 844
f 844 837 530
f 530 824 844
f 844 824 825
f 844 825 843
f 825 823 843
f 843 823 826
f 843 826 842
f 842 826 828
f 842 828 841
f 841 828 829
f 841 829 840
f 840 829 830
f 840 830 839
f 839 830 831
f 839 831 838
f 831 832 838
f 838 832 530
f 530 817 48
f 530 822 820
f 642 835 821
f 642 821 641
f 686 684 639
f 686 639 640
f 686 640 685
f 685 640 638
f 692 650 658
f 658 650 685
f 658 685 638
f 661 651 657
f 661 657 649
f 661 649 692
f 692 649 650
f 641 642 1227
f 753 518 42
f 834 641 530
f 715 712 530
f 752 617 518
f 518 617 614
f 752 739 621
f 621 739 612
f 739 754 753
f 518 728 1455
f 714 134 715
f 1455 728 134
f 134 518 715
f 845 597 598
f 596 628 629
f 628 596 600
f 630 845 629
f 629 845 598
f 629 598 596
f 593 597 608
f 608 597 845
f 608 845 606
f 606 845 630
f 525 526 519
f 526 591 519
f 604 800 518
f 419 1493 818
f 1430 846 847
f 1430 847 848
f 848 849 1430
f 1430 849 850
f 1430 850 851
f 851 852 1430
f 1430 852 853
f 1430 853 854
f 1430 854 855
f 856 1430 857
f 857 1430 858
f 858 1430 855
f 846 859 860
f 859 861 862
f 861 863 864
f 861 864 862
f 862 864 865
f 862 865 866
f 866 865 867
f 866 867 868
f 868 867 869
f 868 869 870
f 870 869 871
f 870 871 872
f 872 871 873
f 872 873 874
f 874 873 875
f 874 875 876
f 876 875 877
f 876 877 878
f 878 877 879
f 878 879 880
f 880 879 881
f 880 881 882
f 882 881 883
f 882 883 884
f 884 883 885
f 884 885 886
f 859 862 860
f 860 862 866
f 860 866 887
f 887 866 868
f 887 868 888
f 888 868 870
f 888 870 889
f 889 870 872
f 889 872 890
f 890 872 874
f 890 874 891
f 891 874 876
f 891 876 892
f 892 876 878
f 892 878 893
f 893 878 880
f 893 880 894
f 894 880 882
f 894 882 895
f 895 882 884
f 895 884 896
f 896 884 886
f 896 886 897
f 846 860 847
f 847 860 887
f 847 887 848
f 848 887 888
f 848 888 849
f 849 888 889
f 849 889 850
f 850 889 890
f 850 890 851
f 851 890 891
f 851 891 852
f 852 891 892
f 852 892 853
f 853 892 893
f 853 893 854
f 854 893 894
f 854 894 855
f 855 894 895
f 855 895 858
f 858 895 896
f 858 896 857
f 857 896 897
f 857 897 856
f 867 682 869
f 869 682 871
f 871 682 873
f 873 682 875
f 875 682 877
f 898 682 899
f 899 682 900
f 900 682 901
f 898 902 682
f 682 902 903
f 682 903 885
f 682 885 883
f 682 883 881
f 682 881 879
f 682 879 877
f 901 682 904
f 904 682 905
f 905 682 906
f 867 865 682
f 682 865 864
f 682 864 863
f 682 863 907
f 682 907 908
f 682 908 906
f 910 1224 911
f 911 1224 912
f 912 1224 913
f 910 914 1224
f 1224 914 915
f 1224 915 916
f 1224 916 917
f 1224 917 918
f 1224 919 920
f 1224 920 921
f 913 1224 922
f 922 1224 923
f 1224 918 924
f 1224 924 925
f 1224 925 926
f 1224 926 927
f 1224 927 919
f 921 928 1224
f 1224 928 929
f 1224 929 930
f 1224 930 931
f 1224 931 932
f 923 1224 933
f 933 1224 932
f 934 935 936
f 935 937 938
f 937 916 915
f 937 915 938
f 938 915 914
f 938 914 939
f 939 914 910
f 939 910 940
f 940 910 911
f 940 911 941
f 941 911 912
f 941 912 942
f 942 912 913
f 942 913 943
f 943 913 922
f 943 922 944
f 944 922 923
f 944 923 945
f 945 923 933
f 945 933 946
f 946 933 932
f 946 932 947
f 947 932 931
f 947 931 948
f 948 931 930
f 948 930 949
f 935 938 936
f 936 938 939
f 936 939 950
f 950 939 940
f 950 940 951
f 951 940 941
f 951 941 952
f 952 941 942
f 952 942 953
f 953 942 943
f 953 943 954
f 954 943 944
f 954 944 955
f 955 944 945
f 955 945 956
f 956 945 946
f 956 946 957
f 957 946 947
f 957 947 958
f 958 947 948
f 958 948 959
f 959 948 949
f 959 949 960
f 934 936 961
f 961 936 950
f 961 950 962
f 962 950 951
f 962 951 963
f 963 951 952
f 963 952 964
f 964 952 953
f 964 953 965
f 965 953 954
f 965 954 966
f 966 954 955
f 966 955 967
f 967 955 956
f 967 956 968
f 968 956 957
f 968 957 969
f 969 957 958
f 969 958 970
f 970 958 959
f 970 959 971
f 971 959 960
f 971 960 972
f 977 978 979
f 979 978 980
f 979 980 981
f 981 980 982
f 981 982 983
f 983 982 984
f 983 984 1295
f 978 985 980
f 980 985 986
f 980 986 982
f 982 986 987
f 982 987 984
f 984 987 988
f 989 990 991
f 991 990 992
f 991 992 993
f 993 992 994
f 993 994 995
f 995 994 996
f 995 996 1136
f 990 997 992
f 992 997 998
f 992 998 994
f 994 998 999
f 994 999 996
f 996 999 1000
f 988 1295 984
f 1001 1295 988
f 1001 988 1002
f 1002 988 987
f 1002 987 1003
f 1003 987 986
f 1003 986 1004
f 1004 986 985
f 1004 989 1003
f 1003 989 991
f 1003 991 1002
f 1002 991 993
f 1002 993 1001
f 1001 993 995
f 1001 995 1295
f 1295 995 1136
f 1000 1136 996
f 1005 1136 1000
f 1005 1000 1006
f 1006 1000 999
f 1006 999 1007
f 1007 999 998
f 1007 998 1008
f 1008 998 997
f 1008 1009 1007
f 1007 1009 1010
f 1007 1010 1006
f 1006 1010 1011
f 1006 1011 1005
f 1005 1011 1012
f 1005 1012 1136
f 997 714 1008
f 1008 714 1009
f 1009 714 1013
f 1013 714 1014
f 1014 714 1015
f 1015 714 1016
f 1016 714 1017
f 1017 714 1018
f 1018 714 1019
f 1019 714 977
f 977 714 978
f 978 714 985
f 985 714 1004
f 1004 714 989
f 989 714 990
f 990 714 997
f 1024 1025 1026
f 1026 1025 1027
f 1026 1027 1028
f 1028 1027 1029
f 1028 1029 1030
f 1030 1029 1031
f 1032 1033 1034
f 1034 1033 1035
f 1034 1035 1036
f 1036 1035 1037
f 1036 1037 1038
f 1038 1037 1039
f 1038 1039 1350
f 1033 1040 1035
f 1035 1040 1041
f 1035 1041 1037
f 1037 1041 1042
f 1037 1042 1039
f 1039 1042 1023
f 1039 1023 1350
f 1350 1023 1489
f 1040 1024 1041
f 1041 1024 1026
f 1041 1026 1042
f 1042 1026 1028
f 1042 1028 1023
f 1023 1028 1030
f 1023 1030 1489
f 1031 1489 1030
f 1022 1489 1031
f 1022 1031 1043
f 1043 1031 1029
f 1043 1029 1044
f 1044 1029 1027
f 1044 1027 1045
f 1045 1027 1025
f 1046 1489 1022
f 1046 1022 1047
f 1047 1022 1043
f 1047 1043 1048
f 1048 1043 1044
f 1048 1044 1049
f 1049 1044 1045
f 1049 1050 1048
f 1048 1050 1051
f 1048 1051 1047
f 1047 1051 1052
f 1047 1052 1046
f 1046 1052 1053
f 1046 1053 1489
f 1050 1054 1051
f 1051 1054 1055
f 1051 1055 1052
f 1052 1055 1056
f 1052 1056 1053
f 1053 1056 1057
f 1053 1057 1489
f 1489 1057 1021
f 1049 781 1050
f 1050 781 1054
f 1054 781 1058
f 1058 781 1059
f 1059 781 1060
f 1060 781 1061
f 1061 781 1062
f 1062 781 1063
f 1063 781 1064
f 1064 781 1032
f 1032 781 1033
f 1033 781 1040
f 1040 781 1024
f 1024 781 1025
f 1025 781 1045
f 1045 781 1049
f 1065 1066 1067
f 1066 1068 1069
f 1068 1070 1071
f 1068 1071 1069
f 1069 1071 1072
f 1069 1072 1073
f 1073 1072 1074
f 1073 1074 1075
f 1075 1074 1076
f 1075 1076 1077
f 1077 1076 1078
f 1077 1078 1079
f 1079 1078 1080
f 1079 1080 1081
f 1081 1080 1082
f 1081 1082 1083
f 1083 1082 1084
f 1083 1084 1085
f 1085 1084 1086
f 1085 1086 1087
f 1087 1086 1088
f 1087 1088 1089
f 1089 1088 1090
f 1089 1090 1091
f 1091 1090 1092
f 1091 1092 1093
f 1093 1092 1094
f 1093 1094 1095
f 1095 1094 1096
f 1095 1096 1097
f 1066 1069 1067
f 1067 1069 1073
f 1067 1073 1098
f 1098 1073 1075
f 1098 1075 1099
f 1099 1075 1077
f 1099 1077 1100
f 1100 1077 1079
f 1100 1079 1101
f 1101 1079 1081
f 1101 1081 1102
f 1102 1081 1083
f 1102 1083 1103
f 1103 1083 1085
f 1103 1085 1104
f 1104 1085 1087
f 1104 1087 1105
f 1105 1087 1089
f 1105 1089 1106
f 1106 1089 1091
f 1106 1091 1107
f 1107 1091 1093
f 1107 1093 1108
f 1108 1093 1095
f 1108 1095 1109
f 1109 1095 1097
f 1109 1097 1110
f 1065 1067 1111
f 1111 1067 1098
f 1111 1098 1112
f 1112 1098 1099
f 1112 1099 1113
f 1113 1099 1100
f 1113 1100 1114
f 1114 1100 1101
f 1114 1101 1115
f 1115 1101 1102
f 1115 1102 1116
f 1116 1102 1103
f 1116 1103 1117
f 1117 1103 1104
f 1117 1104 1118
f 1118 1104 1105
f 1118 1105 1119
f 1119 1105 1106
f 1119 1106 1120
f 1120 1106 1107
f 1120 1107 1121
f 1121 1107 1108
f 1121 1108 1122
f 1122 1108 1109
f 1122 1109 1123
f 1123 1109 1110
f 1123 1110 1124
f 1114 1455 1113
f 1113 1455 1112
f 1112 1455 1111
f 1111 1455 1065
f 1065 1455 1125
f 1125 1455 1126
f 1127 1455 1128
f 1128 1455 1129
f 1129 1455 1130
f 1130 1455 1131
f 1131 1455 1132
f 1132 1455 1133
f 1133 1455 1134
f 1134 1455 1135
f 1135 1455 1124
f 1126 1455 1127
f 1114 1115 1455
f 1455 1115 1116
f 1455 1116 1117
f 1124 1455 1123
f 1123 1455 1122
f 1122 1455 1121
f 1120 1455 1119
f 1119 1455 1118
f 1118 1455 1117
f 1121 1455 1120
f 1070 41 1071
f 1071 41 1072
f 1072 41 1074
f 1074 41 1076
f 41 1082 1080
f 41 1080 1078
f 41 1078 1076
f 1090 1088 41
f 41 1088 1086
f 41 1086 1084
f 41 1084 1082
f 1090 41 1092
f 1092 41 1094
f 1094 41 1096
f 1491 1292 1293
f 1138 1139 1140
f 1140 1139 1141
f 1140 1141 1142
f 1142 1141 1143
f 1142 1143 1144
f 1144 1143 1145
f 1144 1145 1137
f 1139 1146 1141
f 1141 1146 1147
f 1141 1147 1143
f 1143 1147 1148
f 1143 1148 1145
f 1145 1148 1149
f 1150 1151 1152
f 1152 1151 1153
f 1152 1153 1154
f 1154 1153 1155
f 1154 1155 1156
f 1156 1155 1157
f 1156 1157 1292
f 1151 1158 1153
f 1153 1158 1159
f 1153 1159 1155
f 1155 1159 1160
f 1155 1160 1157
f 1157 1160 1161
f 1149 1292 1137
f 1149 1137 1145
f 1162 1292 1149
f 1162 1149 1163
f 1163 1149 1148
f 1163 1148 1164
f 1164 1148 1147
f 1164 1147 1165
f 1165 1147 1146
f 1165 1150 1164
f 1164 1150 1152
f 1164 1152 1163
f 1163 1152 1154
f 1163 1154 1162
f 1162 1154 1156
f 1162 1156 1292
f 1161 1292 1157
f 1166 1292 1161
f 1166 1161 1167
f 1167 1161 1160
f 1167 1160 1168
f 1168 1160 1159
f 1168 1159 1169
f 1169 1159 1158
f 1169 1170 1168
f 1168 1170 1171
f 1168 1171 1167
f 1167 1171 1172
f 1167 1172 1166
f 1166 1172 1173
f 1166 1173 1292
f 1158 136 1169
f 1169 136 1170
f 1170 136 1174
f 1174 136 1175
f 1175 136 1176
f 1176 136 1177
f 1177 136 1178
f 1178 136 1179
f 1179 136 1180
f 1180 136 1138
f 1138 136 1139
f 1139 136 1146
f 1146 136 1165
f 1165 136 1150
f 1150 136 1151
f 1151 136 1158
f 1181 1182 1183
f 1182 1184 1185
f 1184 1186 1187
f 1186 1493 1492
f 1492 1188 1189
f 1186 1492 1187
f 1187 1492 1189
f 1492 1190 1191
f 1188 1492 1192
f 1192 1492 1193
f 1193 1492 1191
f 1190 1492 1493
f 1190 1493 1194
f 1184 1187 1185
f 1185 1187 1189
f 1185 1189 1195
f 1195 1189 1188
f 1195 1188 1196
f 1196 1188 1192
f 1196 1192 1197
f 1197 1192 1193
f 1197 1193 1198
f 1198 1193 1191
f 1198 1191 1199
f 1199 1191 1190
f 1199 1190 1200
f 1200 1190 1194
f 1200 1194 1201
f 1182 1185 1183
f 1183 1185 1195
f 1183 1195 1202
f 1202 1195 1196
f 1202 1196 1203
f 1203 1196 1197
f 1203 1197 1204
f 1204 1197 1198
f 1204 1198 1205
f 1205 1198 1199
f 1205 1199 1206
f 1206 1199 1200
f 1206 1200 1207
f 1207 1200 1201
f 1207 1201 1208
f 1181 1183 1209
f 1209 1183 1202
f 1209 1202 1210
f 1210 1202 1203
f 1210 1203 1211
f 1211 1203 1204
f 1211 1204 1212
f 1212 1204 1205
f 1212 1205 1213
f 1213 1205 1206
f 1213 1206 1214
f 1214 1206 1207
f 1214 1207 1215
f 1215 1207 1208
f 1215 1208 1216
f 1214 801 1213
f 1213 801 1212
f 1212 801 1211
f 1211 801 1210
f 1210 801 1209
f 1209 801 1181
f 1181 801 1218
f 1218 801 1217
f 1217 801 1219
f 1219 801 1220
f 1220 801 1221
f 1221 801 1222
f 1222 801 1223
f 1223 801 1216
f 1216 801 1215
f 1215 801 1214
f 39 40 1224
f 1224 40 1494
f 1454 447 493
f 493 494 1454
f 1454 494 495
f 495 496 1454
f 1454 496 497
f 497 498 1454
f 1454 498 499
f 499 500 1454
f 1454 500 501
f 1454 501 502
f 1454 502 503
f 506 1454 505
f 505 1454 504
f 504 1454 503
f 1373 934 961
f 1373 961 962
f 962 963 1373
f 1373 963 964
f 964 965 1373
f 1373 965 966
f 966 967 1373
f 1373 967 968
f 1373 968 969
f 972 1373 971
f 971 1373 970
f 970 1373 969
f 641 1225 1227
f 641 1226 1225
f 641 1227 1226
f 972 1228 1373
f 1373 1228 1229
f 1229 1230 1373
f 1373 1230 1231
f 1373 1231 1232
f 1232 1233 1373
f 1373 1233 1234
f 1234 1235 1373
f 1373 1235 1236
f 1373 1236 1237
f 1373 1237 1238
f 1373 1238 934
f 1454 506 1239
f 1454 1239 1240
f 1240 1241 1454
f 1454 1241 1242
f 1242 1243 1454
f 1454 1243 1244
f 1454 1244 1245
f 1245 1246 1454
f 1454 1246 1247
f 447 1454 1248
f 1248 1454 1249
f 1249 1454 1247
f 1224 1494 39
f 1216 1208 1250
f 1208 1201 1251
f 1201 1194 1252
f 1493 1253 1254
f 1194 1493 1252
f 1252 1493 1254
f 1493 1255 1256
f 1253 1493 1257
f 1257 1493 1258
f 1258 1493 1256
f 1255 1493 1186
f 1201 1252 1251
f 1251 1252 1254
f 1251 1254 1259
f 1259 1254 1253
f 1259 1253 1260
f 1260 1253 1257
f 1260 1257 1261
f 1261 1257 1258
f 1261 1258 1262
f 1262 1258 1256
f 1262 1256 1263
f 1263 1256 1255
f 1263 1255 1264
f 1264 1255 1186
f 1264 1186 1184
f 1208 1251 1250
f 1250 1251 1259
f 1250 1259 1265
f 1265 1259 1260
f 1265 1260 1266
f 1266 1260 1261
f 1266 1261 1267
f 1267 1261 1262
f 1267 1262 1268
f 1268 1262 1263
f 1268 1263 1269
f 1269 1263 1264
f 1269 1264 1270
f 1270 1264 1184
f 1270 1184 1182
f 1216 1250 1223
f 1223 1250 1265
f 1223 1265 1222
f 1222 1265 1266
f 1222 1266 1221
f 1221 1266 1267
f 1221 1267 1220
f 1220 1267 1268
f 1220 1268 1219
f 1219 1268 1269
f 1219 1269 1217
f 1217 1269 1270
f 1217 1270 1218
f 1218 1270 1182
f 1218 1182 1181
f 1176 1177 1273
f 1273 1177 1274
f 1273 1274 1275
f 1275 1274 1276
f 1275 1276 1277
f 1277 1276 1278
f 1170 1174 1171
f 1171 1174 1279
f 1171 1279 1172
f 1172 1279 1280
f 1172 1280 1173
f 1173 1280 1281
f 1173 1281 1292
f 1292 1281 1293
f 1174 1175 1279
f 1279 1175 1282
f 1279 1282 1280
f 1280 1282 1283
f 1280 1283 1281
f 1281 1283 1272
f 1281 1272 1293
f 1175 1176 1282
f 1282 1176 1273
f 1282 1273 1283
f 1283 1273 1275
f 1283 1275 1272
f 1272 1275 1277
f 1272 1277 1293
f 1278 1293 1277
f 1137 1293 1271
f 1271 1293 1278
f 1271 1278 1284
f 1284 1278 1276
f 1284 1276 1285
f 1285 1276 1274
f 1285 1274 1178
f 1178 1274 1177
f 1286 1137 1271
f 1286 1271 1287
f 1287 1271 1284
f 1287 1284 1288
f 1288 1284 1285
f 1288 1285 1179
f 1179 1285 1178
f 1179 1180 1288
f 1288 1180 1289
f 1288 1289 1287
f 1287 1289 1290
f 1287 1290 1286
f 1286 1290 1291
f 1286 1291 1137
f 1180 1138 1289
f 1289 1138 1140
f 1289 1140 1290
f 1290 1140 1142
f 1290 1142 1291
f 1291 1142 1144
f 1291 1144 1137
f 1292 1491 1293
f 1296 1096 41
f 1296 41 1297
f 1297 41 1298
f 1298 41 1299
f 1299 41 1300
f 1300 41 1301
f 1301 41 1302
f 1302 41 1303
f 1070 1304 41
f 41 1304 1305
f 41 1305 1306
f 41 1306 1303
f 1124 1110 1307
f 1110 1097 1308
f 1097 1096 1296
f 1097 1296 1308
f 1308 1296 1297
f 1308 1297 1309
f 1309 1297 1298
f 1309 1298 1310
f 1310 1298 1299
f 1310 1299 1311
f 1311 1299 1300
f 1311 1300 1312
f 1312 1300 1301
f 1312 1301 1313
f 1313 1301 1302
f 1313 1302 1314
f 1314 1302 1303
f 1314 1303 1315
f 1315 1303 1306
f 1315 1306 1316
f 1316 1306 1305
f 1316 1305 1317
f 1317 1305 1304
f 1317 1304 1318
f 1318 1304 1070
f 1318 1070 1068
f 1110 1308 1307
f 1307 1308 1309
f 1307 1309 1319
f 1319 1309 1310
f 1319 1310 1320
f 1320 1310 1311
f 1320 1311 1321
f 1321 1311 1312
f 1321 1312 1322
f 1322 1312 1313
f 1322 1313 1323
f 1323 1313 1314
f 1323 1314 1324
f 1324 1314 1315
f 1324 1315 1325
f 1325 1315 1316
f 1325 1316 1326
f 1326 1316 1317
f 1326 1317 1327
f 1327 1317 1318
f 1327 1318 1328
f 1328 1318 1068
f 1328 1068 1066
f 1124 1307 1135
f 1135 1307 1319
f 1135 1319 1134
f 1134 1319 1320
f 1134 1320 1133
f 1133 1320 1321
f 1133 1321 1132
f 1132 1321 1322
f 1132 1322 1131
f 1131 1322 1323
f 1131 1323 1130
f 1130 1323 1324
f 1130 1324 1129
f 1129 1324 1325
f 1129 1325 1128
f 1128 1325 1326
f 1128 1326 1127
f 1127 1326 1327
f 1127 1327 1126
f 1126 1327 1328
f 1126 1328 1125
f 1125 1328 1066
f 1125 1066 1065
f 1054 1058 1055
f 1055 1058 1329
f 1055 1329 1056
f 1056 1329 1330
f 1056 1330 1057
f 1057 1330 1331
f 1057 1331 1021
f 1058 1059 1329
f 1329 1059 1332
f 1329 1332 1330
f 1330 1332 1333
f 1330 1333 1331
f 1331 1333 1334
f 1061 1062 1335
f 1335 1062 1336
f 1335 1336 1337
f 1337 1336 1338
f 1337 1338 1339
f 1339 1338 1340
f 1339 1340 1021
f 1062 1063 1336
f 1336 1063 1341
f 1336 1341 1338
f 1338 1341 1342
f 1338 1342 1340
f 1340 1342 1343
f 1334 1021 1331
f 1344 1021 1334
f 1344 1334 1345
f 1345 1334 1333
f 1345 1333 1346
f 1346 1333 1332
f 1346 1332 1060
f 1060 1332 1059
f 1060 1061 1346
f 1346 1061 1335
f 1346 1335 1345
f 1345 1335 1337
f 1345 1337 1344
f 1344 1337 1339
f 1344 1339 1021
f 1343 1350 1340
f 1340 1350 1021
f 1347 1350 1343
f 1347 1343 1348
f 1348 1343 1342
f 1348 1342 1349
f 1349 1342 1341
f 1349 1341 1064
f 1064 1341 1063
f 1064 1032 1349
f 1349 1032 1034
f 1349 1034 1348
f 1348 1034 1036
f 1348 1036 1347
f 1347 1036 1038
f 1347 1038 1350
f 1490 1021 1489
f 1020 1021 1350
f 1489 1021 1490
f 1489 1020 1350
f 1294 1136 1352
f 1015 1016 1353
f 1353 1016 1354
f 1353 1354 1355
f 1355 1354 1356
f 1355 1356 1357
f 1357 1356 1358
f 1009 1013 1010
f 1010 1013 1359
f 1010 1359 1011
f 1011 1359 1360
f 1011 1360 1012
f 1012 1360 1361
f 1012 1361 1136
f 1013 1014 1359
f 1359 1014 1362
f 1359 1362 1360
f 1360 1362 1363
f 1360 1363 1361
f 1361 1363 1352
f 1361 1352 1136
f 1014 1015 1362
f 1362 1015 1353
f 1362 1353 1363
f 1363 1353 1355
f 1363 1355 1352
f 1352 1355 1357
f 1352 1357 1294
f 1358 1294 1357
f 1351 1294 1358
f 1351 1358 1364
f 1364 1358 1356
f 1364 1356 1365
f 1365 1356 1354
f 1365 1354 1017
f 1017 1354 1016
f 1295 1294 1366
f 1366 1294 1351
f 1366 1351 1367
f 1367 1351 1364
f 1367 1364 1368
f 1368 1364 1365
f 1368 1365 1018
f 1018 1365 1017
f 1018 1019 1368
f 1368 1019 1369
f 1368 1369 1367
f 1367 1369 1370
f 1367 1370 1366
f 1366 1370 1371
f 1366 1371 1295
f 1019 977 1369
f 1369 977 979
f 1369 979 1370
f 1370 979 981
f 1370 981 1371
f 1371 981 983
f 1371 983 1295
f 972 960 1375
f 960 949 1376
f 949 930 929
f 949 929 1376
f 1376 929 928
f 1376 928 1377
f 1377 928 921
f 1377 921 1378
f 1378 921 920
f 1378 920 1379
f 1379 920 919
f 1379 919 1380
f 1380 919 927
f 1380 927 1381
f 1381 927 926
f 1381 926 1382
f 1382 926 925
f 1382 925 1383
f 1383 925 924
f 1383 924 1384
f 1384 924 918
f 1384 918 1385
f 1385 918 917
f 1385 917 1386
f 1386 917 916
f 1386 916 937
f 960 1376 1375
f 1375 1376 1377
f 1375 1377 1387
f 1387 1377 1378
f 1387 1378 1388
f 1388 1378 1379
f 1388 1379 1389
f 1389 1379 1380
f 1389 1380 1390
f 1390 1380 1381
f 1390 1381 1391
f 1391 1381 1382
f 1391 1382 1392
f 1392 1382 1383
f 1392 1383 1393
f 1393 1383 1384
f 1393 1384 1394
f 1394 1384 1385
f 1394 1385 1395
f 1395 1385 1386
f 1395 1386 1396
f 1396 1386 937
f 1396 937 935
f 972 1375 1228
f 1228 1375 1387
f 1228 1387 1229
f 1229 1387 1388
f 1229 1388 1230
f 1230 1388 1389
f 1230 1389 1231
f 1231 1389 1390
f 1231 1390 1232
f 1232 1390 1391
f 1232 1391 1233
f 1233 1391 1392
f 1233 1392 1234
f 1234 1392 1393
f 1234 1393 1235
f 1235 1393 1394
f 1235 1394 1236
f 1236 1394 1395
f 1236 1395 1237
f 1237 1395 1396
f 1237 1396 1238
f 1238 1396 935
f 1238 935 934
f 856 897 1397
f 897 886 1398
f 886 885 903
f 886 903 1398
f 1398 903 902
f 1398 902 1399
f 1399 902 898
f 1399 898 1400
f 1400 898 899
f 1400 899 1401
f 1401 899 900
f 1401 900 1402
f 1402 900 901
f 1402 901 1403
f 1403 901 904
f 1403 904 1404
f 1404 904 905
f 1404 905 1405
f 1405 905 906
f 1405 906 1406
f 1406 906 908
f 1406 908 1407
f 1407 908 907
f 1407 907 1408
f 1408 907 863
f 1408 863 861
f 897 1398 1397
f 1397 1398 1399
f 1397 1399 1409
f 1409 1399 1400
f 1409 1400 1410
f 1410 1400 1401
f 1410 1401 1411
f 1411 1401 1402
f 1411 1402 1412
f 1412 1402 1403
f 1412 1403 1413
f 1413 1403 1404
f 1413 1404 1414
f 1414 1404 1405
f 1414 1405 1415
f 1415 1405 1406
f 1415 1406 1416
f 1416 1406 1407
f 1416 1407 1417
f 1417 1407 1408
f 1417 1408 1418
f 1418 1408 861
f 1418 861 859
f 856 1397 1419
f 1419 1397 1409
f 1419 1409 1420
f 1420 1409 1410
f 1420 1410 1421
f 1421 1410 1411
f 1421 1411 1422
f 1422 1411 1412
f 1422 1412 1423
f 1423 1412 1413
f 1423 1413 1424
f 1424 1413 1414
f 1424 1414 1425
f 1425 1414 1415
f 1425 1415 1426
f 1426 1415 1416
f 1426 1416 1427
f 1427 1416 1417
f 1427 1417 1428
f 1428 1417 1418
f 1428 1418 1429
f 1429 1418 859
f 1429 859 846
f 856 1419 1430
f 1430 1419 1420
f 1430 1420 1421
f 1421 1422 1430
f 1430 1422 1423
f 1423 1424 1430
f 1430 1424 1425
f 1425 1426 1430
f 1430 1426 1427
f 846 1430 1429
f 1429 1430 1428
f 1428 1430 1427
f 694 703 643
f 643 703 674
f 703 697 674
f 674 697 702
f 698 648 674
f 698 674 702
f 833 638 639
f 715 518 800
f 591 592 519
f 506 492 1432
f 492 479 1433
f 479 478 512
f 479 512 1433
f 1433 512 511
f 1433 511 1434
f 1434 511 507
f 1434 507 1435
f 1435 507 508
f 1435 508 1436
f 1436 508 509
f 1436 509 1437
f 1437 509 510
f 1437 510 1438
f 1438 510 515
f 1438 515 1439
f 1439 515 516
f 1439 516 1440
f 1440 516 517
f 1440 517 1441
f 1441 517 514
f 1441 514 1442
f 1442 514 513
f 1442 513 1443
f 1443 513 452
f 1443 452 450
f 492 1433 1432
f 1432 1433 1434
f 1432 1434 1444
f 1444 1434 1435
f 1444 1435 1445
f 1445 1435 1436
f 1445 1436 1446
f 1446 1436 1437
f 1446 1437 1447
f 1447 1437 1438
f 1447 1438 1448
f 1448 1438 1439
f 1448 1439 1449
f 1449 1439 1440
f 1449 1440 1450
f 1450 1440 1441
f 1450 1441 1451
f 1451 1441 1442
f 1451 1442 1452
f 1452 1442 1443
f 1452 1443 1453
f 1453 1443 450
f 1453 450 448
f 506 1432 1239
f 1239 1432 1444
f 1239 1444 1240
f 1240 1444 1445
f 1240 1445 1241
f 1241 1445 1446
f 1241 1446 1242
f 1242 1446 1447
f 1242 1447 1243
f 1243 1447 1448
f 1243 1448 1244
f 1244 1448 1449
f 1244 1449 1245
f 1245 1449 1450
f 1245 1450 1246
f 1246 1450 1451
f 1246 1451 1247
f 1247 1451 1452
f 1247 1452 1249
f 1249 1452 1453
f 1249 1453 1248
f 1248 1453 448
f 1248 448 447
f 413 445 1456
f 445 434 1457
f 434 394 1458
f 434 1458 1457
f 1457 1458 1459
f 1457 1459 1460
f 1460 1459 1461
f 1460 1461 1462
f 1462 1461 1463
f 1462 1463 1464
f 1464 1463 1465
f 1464 1465 1466
f 1466 1465 1467
f 1466 1467 1468
f 1468 1467 1469
f 1468 1469 1470
f 1470 1469 1471
f 1470 1471 1472
f 1472 1471 1473
f 1472 1473 1474
f 1474 1473 1475
f 1474 1475 1476
f 1476 1475 1477
f 1476 1477 1478
f 1478 1477 385
f 1478 385 422
f 445 1457 1456
f 1456 1457 1460
f 1456 1460 1479
f 1479 1460 1462
f 1479 1462 1480
f 1480 1462 1464
f 1480 1464 1481
f 1481 1464 1466
f 1481 1466 1482
f 1482 1466 1468
f 1482 1468 1483
f 1483 1468 1470
f 1483 1470 1484
f 1484 1470 1472
f 1484 1472 1485
f 1485 1472 1474
f 1485 1474 1486
f 1486 1474 1476
f 1486 1476 1487
f 1487 1476 1478
f 1487 1478 1488
f 1488 1478 422
f 1488 422 420
f 413 1456 406
f 406 1456 1479
f 406 1479 407
f 407 1479 1480
f 407 1480 408
f 408 1480 1481
f 408 1481 409
f 409 1481 1482
f 409 1482 405
f 405 1482 1483
f 405 1483 404
f 404 1483 1484
f 404 1484 403
f 403 1484 1485
f 403 1485 402
f 402 1485 1486
f 402 1486 401
f 401 1486 1487
f 401 1487 400
f 400 1487 1488
f 400 1488 399
f 399 1488 420
f 399 420 398
f 394 1430 1458
f 1458 1430 1459
f 1459 1430 1461
f 1461 1430 1463
f 1463 1430 1465
f 1465 1430 1467
f 1430 1471 1469
f 1430 1469 1467
f 385 1477 1430
f 1430 1477 1475
f 1430 1475 1473
f 1430 1473 1471
f 313 350 304
f 301 117 373
f 276 376 269
f 269 376 73
f 73 376 301
f 117 376 377
f 976 39 1494
f 1020 1489 1021
f 1137 1292 1293
f 1227 1225 1226
f 1136 1294 1295
f 599 600 632
f 600 633 628
f 614 633 600
f 833 641 834
f 533 817 530
f 530 817 818
f 818 802 1493
f 802 1495 801
f 1495 800 801
f 767 801 800
f 779 780 781
f 781 780 800
f 800 162 188
f 800 603 611
f 599 636 604
f 604 636 603
f 604 603 800
f 66 287 273
f 273 287 274
f 88 233 95
f 89 304 111
f 89 111 976
f 1224 715 116
f 136 133 135
f 135 117 377
f 135 377 1491
f 909 1491 154
f 287 281 276
f 276 281 377
f 116 133 136
f 286 287 61
f 61 287 248
f 248 287 379
f 248 379 285
f 248 285 260
f 260 285 283
f 260 283 259
f 259 283 282
f 259 282 258
f 378 379 66
f 66 379 287
f 282 284 258
f 258 284 254
f 254 284 379
f 254 379 378
f 976 1494 39
f 1494 40 39

