# Mop collider with a sinusoidal wiping surface.
o mop
v -0.60000000 0.25000000 -2.20000000
v -0.60000000 0.85000000 -2.20000000
v -0.60000000 0.23459292 -2.10833333
v -0.60000000 0.85000000 -2.10833333
v -0.60000000 0.19250000 -2.01666667
v -0.60000000 0.85000000 -2.01666667
v -0.60000000 0.13500000 -1.92500000
v -0.60000000 0.85000000 -1.92500000
v -0.60000000 0.07750000 -1.83333333
v -0.60000000 0.85000000 -1.83333333
v -0.60000000 0.03540708 -1.74166667
v -0.60000000 0.85000000 -1.74166667
v -0.60000000 0.02000000 -1.65000000
v -0.60000000 0.85000000 -1.65000000
v -0.60000000 0.03540708 -1.55833333
v -0.60000000 0.85000000 -1.55833333
v -0.60000000 0.07750000 -1.46666667
v -0.60000000 0.85000000 -1.46666667
v -0.60000000 0.13500000 -1.37500000
v -0.60000000 0.85000000 -1.37500000
v -0.60000000 0.19250000 -1.28333333
v -0.60000000 0.85000000 -1.28333333
v -0.60000000 0.23459292 -1.19166667
v -0.60000000 0.85000000 -1.19166667
v -0.60000000 0.25000000 -1.10000000
v -0.60000000 0.85000000 -1.10000000
v -0.60000000 0.23459292 -1.00833333
v -0.60000000 0.85000000 -1.00833333
v -0.60000000 0.19250000 -0.91666667
v -0.60000000 0.85000000 -0.91666667
v -0.60000000 0.13500000 -0.82500000
v -0.60000000 0.85000000 -0.82500000
v -0.60000000 0.07750000 -0.73333333
v -0.60000000 0.85000000 -0.73333333
v -0.60000000 0.03540708 -0.64166667
v -0.60000000 0.85000000 -0.64166667
v -0.60000000 0.02000000 -0.55000000
v -0.60000000 0.85000000 -0.55000000
v -0.60000000 0.03540708 -0.45833333
v -0.60000000 0.85000000 -0.45833333
v -0.60000000 0.07750000 -0.36666667
v -0.60000000 0.85000000 -0.36666667
v -0.60000000 0.13500000 -0.27500000
v -0.60000000 0.85000000 -0.27500000
v -0.60000000 0.19250000 -0.18333333
v -0.60000000 0.85000000 -0.18333333
v -0.60000000 0.23459292 -0.09166667
v -0.60000000 0.85000000 -0.09166667
v -0.60000000 0.25000000 0.00000000
v -0.60000000 0.85000000 0.00000000
v -0.60000000 0.23459292 0.09166667
v -0.60000000 0.85000000 0.09166667
v -0.60000000 0.19250000 0.18333333
v -0.60000000 0.85000000 0.18333333
v -0.60000000 0.13500000 0.27500000
v -0.60000000 0.85000000 0.27500000
v -0.60000000 0.07750000 0.36666667
v -0.60000000 0.85000000 0.36666667
v -0.60000000 0.03540708 0.45833333
v -0.60000000 0.85000000 0.45833333
v -0.60000000 0.02000000 0.55000000
v -0.60000000 0.85000000 0.55000000
v -0.60000000 0.03540708 0.64166667
v -0.60000000 0.85000000 0.64166667
v -0.60000000 0.07750000 0.73333333
v -0.60000000 0.85000000 0.73333333
v -0.60000000 0.13500000 0.82500000
v -0.60000000 0.85000000 0.82500000
v -0.60000000 0.19250000 0.91666667
v -0.60000000 0.85000000 0.91666667
v -0.60000000 0.23459292 1.00833333
v -0.60000000 0.85000000 1.00833333
v -0.60000000 0.25000000 1.10000000
v -0.60000000 0.85000000 1.10000000
v -0.60000000 0.23459292 1.19166667
v -0.60000000 0.85000000 1.19166667
v -0.60000000 0.19250000 1.28333333
v -0.60000000 0.85000000 1.28333333
v -0.60000000 0.13500000 1.37500000
v -0.60000000 0.85000000 1.37500000
v -0.60000000 0.07750000 1.46666667
v -0.60000000 0.85000000 1.46666667
v -0.60000000 0.03540708 1.55833333
v -0.60000000 0.85000000 1.55833333
v -0.60000000 0.02000000 1.65000000
v -0.60000000 0.85000000 1.65000000
v -0.60000000 0.03540708 1.74166667
v -0.60000000 0.85000000 1.74166667
v -0.60000000 0.07750000 1.83333333
v -0.60000000 0.85000000 1.83333333
v -0.60000000 0.13500000 1.92500000
v -0.60000000 0.85000000 1.92500000
v -0.60000000 0.19250000 2.01666667
v -0.60000000 0.85000000 2.01666667
v -0.60000000 0.23459292 2.10833333
v -0.60000000 0.85000000 2.10833333
v -0.60000000 0.25000000 2.20000000
v -0.60000000 0.85000000 2.20000000
v 0.60000000 0.25000000 -2.20000000
v 0.60000000 0.85000000 -2.20000000
v 0.60000000 0.23459292 -2.10833333
v 0.60000000 0.85000000 -2.10833333
v 0.60000000 0.19250000 -2.01666667
v 0.60000000 0.85000000 -2.01666667
v 0.60000000 0.13500000 -1.92500000
v 0.60000000 0.85000000 -1.92500000
v 0.60000000 0.07750000 -1.83333333
v 0.60000000 0.85000000 -1.83333333
v 0.60000000 0.03540708 -1.74166667
v 0.60000000 0.85000000 -1.74166667
v 0.60000000 0.02000000 -1.65000000
v 0.60000000 0.85000000 -1.65000000
v 0.60000000 0.03540708 -1.55833333
v 0.60000000 0.85000000 -1.55833333
v 0.60000000 0.07750000 -1.46666667
v 0.60000000 0.85000000 -1.46666667
v 0.60000000 0.13500000 -1.37500000
v 0.60000000 0.85000000 -1.37500000
v 0.60000000 0.19250000 -1.28333333
v 0.60000000 0.85000000 -1.28333333
v 0.60000000 0.23459292 -1.19166667
v 0.60000000 0.85000000 -1.19166667
v 0.60000000 0.25000000 -1.10000000
v 0.60000000 0.85000000 -1.10000000
v 0.60000000 0.23459292 -1.00833333
v 0.60000000 0.85000000 -1.00833333
v 0.60000000 0.19250000 -0.91666667
v 0.60000000 0.85000000 -0.91666667
v 0.60000000 0.13500000 -0.82500000
v 0.60000000 0.85000000 -0.82500000
v 0.60000000 0.07750000 -0.73333333
v 0.60000000 0.85000000 -0.73333333
v 0.60000000 0.03540708 -0.64166667
v 0.60000000 0.85000000 -0.64166667
v 0.60000000 0.02000000 -0.55000000
v 0.60000000 0.85000000 -0.55000000
v 0.60000000 0.03540708 -0.45833333
v 0.60000000 0.85000000 -0.45833333
v 0.60000000 0.07750000 -0.36666667
v 0.60000000 0.85000000 -0.36666667
v 0.60000000 0.13500000 -0.27500000
v 0.60000000 0.85000000 -0.27500000
v 0.60000000 0.19250000 -0.18333333
v 0.60000000 0.85000000 -0.18333333
v 0.60000000 0.23459292 -0.09166667
v 0.60000000 0.85000000 -0.09166667
v 0.60000000 0.25000000 0.00000000
v 0.60000000 0.85000000 0.00000000
v 0.60000000 0.23459292 0.09166667
v 0.60000000 0.85000000 0.09166667
v 0.60000000 0.19250000 0.18333333
v 0.60000000 0.85000000 0.18333333
v 0.60000000 0.13500000 0.27500000
v 0.60000000 0.85000000 0.27500000
v 0.60000000 0.07750000 0.36666667
v 0.60000000 0.85000000 0.36666667
v 0.60000000 0.03540708 0.45833333
v 0.60000000 0.85000000 0.45833333
v 0.60000000 0.02000000 0.55000000
v 0.60000000 0.85000000 0.55000000
v 0.60000000 0.03540708 0.64166667
v 0.60000000 0.85000000 0.64166667
v 0.60000000 0.07750000 0.73333333
v 0.60000000 0.85000000 0.73333333
v 0.60000000 0.13500000 0.82500000
v 0.60000000 0.85000000 0.82500000
v 0.60000000 0.19250000 0.91666667
v 0.60000000 0.85000000 0.91666667
v 0.60000000 0.23459292 1.00833333
v 0.60000000 0.85000000 1.00833333
v 0.60000000 0.25000000 1.10000000
v 0.60000000 0.85000000 1.10000000
v 0.60000000 0.23459292 1.19166667
v 0.60000000 0.85000000 1.19166667
v 0.60000000 0.19250000 1.28333333
v 0.60000000 0.85000000 1.28333333
v 0.60000000 0.13500000 1.37500000
v 0.60000000 0.85000000 1.37500000
v 0.60000000 0.07750000 1.46666667
v 0.60000000 0.85000000 1.46666667
v 0.60000000 0.03540708 1.55833333
v 0.60000000 0.85000000 1.55833333
v 0.60000000 0.02000000 1.65000000
v 0.60000000 0.85000000 1.65000000
v 0.60000000 0.03540708 1.74166667
v 0.60000000 0.85000000 1.74166667
v 0.60000000 0.07750000 1.83333333
v 0.60000000 0.85000000 1.83333333
v 0.60000000 0.13500000 1.92500000
v 0.60000000 0.85000000 1.92500000
v 0.60000000 0.19250000 2.01666667
v 0.60000000 0.85000000 2.01666667
v 0.60000000 0.23459292 2.10833333
v 0.60000000 0.85000000 2.10833333
v 0.60000000 0.25000000 2.20000000
v 0.60000000 0.85000000 2.20000000
f 1 3 4
f 1 4 2
f 99 102 101
f 99 100 102
f 1 99 101
f 1 101 3
f 2 4 102
f 2 102 100
f 3 5 6
f 3 6 4
f 101 104 103
f 101 102 104
f 3 101 103
f 3 103 5
f 4 6 104
f 4 104 102
f 5 7 8
f 5 8 6
f 103 106 105
f 103 104 106
f 5 103 105
f 5 105 7
f 6 8 106
f 6 106 104
f 7 9 10
f 7 10 8
f 105 108 107
f 105 106 108
f 7 105 107
f 7 107 9
f 8 10 108
f 8 108 106
f 9 11 12
f 9 12 10
f 107 110 109
f 107 108 110
f 9 107 109
f 9 109 11
f 10 12 110
f 10 110 108
f 11 13 14
f 11 14 12
f 109 112 111
f 109 110 112
f 11 109 111
f 11 111 13
f 12 14 112
f 12 112 110
f 13 15 16
f 13 16 14
f 111 114 113
f 111 112 114
f 13 111 113
f 13 113 15
f 14 16 114
f 14 114 112
f 15 17 18
f 15 18 16
f 113 116 115
f 113 114 116
f 15 113 115
f 15 115 17
f 16 18 116
f 16 116 114
f 17 19 20
f 17 20 18
f 115 118 117
f 115 116 118
f 17 115 117
f 17 117 19
f 18 20 118
f 18 118 116
f 19 21 22
f 19 22 20
f 117 120 119
f 117 118 120
f 19 117 119
f 19 119 21
f 20 22 120
f 20 120 118
f 21 23 24
f 21 24 22
f 119 122 121
f 119 120 122
f 21 119 121
f 21 121 23
f 22 24 122
f 22 122 120
f 23 25 26
f 23 26 24
f 121 124 123
f 121 122 124
f 23 121 123
f 23 123 25
f 24 26 124
f 24 124 122
f 25 27 28
f 25 28 26
f 123 126 125
f 123 124 126
f 25 123 125
f 25 125 27
f 26 28 126
f 26 126 124
f 27 29 30
f 27 30 28
f 125 128 127
f 125 126 128
f 27 125 127
f 27 127 29
f 28 30 128
f 28 128 126
f 29 31 32
f 29 32 30
f 127 130 129
f 127 128 130
f 29 127 129
f 29 129 31
f 30 32 130
f 30 130 128
f 31 33 34
f 31 34 32
f 129 132 131
f 129 130 132
f 31 129 131
f 31 131 33
f 32 34 132
f 32 132 130
f 33 35 36
f 33 36 34
f 131 134 133
f 131 132 134
f 33 131 133
f 33 133 35
f 34 36 134
f 34 134 132
f 35 37 38
f 35 38 36
f 133 136 135
f 133 134 136
f 35 133 135
f 35 135 37
f 36 38 136
f 36 136 134
f 37 39 40
f 37 40 38
f 135 138 137
f 135 136 138
f 37 135 137
f 37 137 39
f 38 40 138
f 38 138 136
f 39 41 42
f 39 42 40
f 137 140 139
f 137 138 140
f 39 137 139
f 39 139 41
f 40 42 140
f 40 140 138
f 41 43 44
f 41 44 42
f 139 142 141
f 139 140 142
f 41 139 141
f 41 141 43
f 42 44 142
f 42 142 140
f 43 45 46
f 43 46 44
f 141 144 143
f 141 142 144
f 43 141 143
f 43 143 45
f 44 46 144
f 44 144 142
f 45 47 48
f 45 48 46
f 143 146 145
f 143 144 146
f 45 143 145
f 45 145 47
f 46 48 146
f 46 146 144
f 47 49 50
f 47 50 48
f 145 148 147
f 145 146 148
f 47 145 147
f 47 147 49
f 48 50 148
f 48 148 146
f 49 51 52
f 49 52 50
f 147 150 149
f 147 148 150
f 49 147 149
f 49 149 51
f 50 52 150
f 50 150 148
f 51 53 54
f 51 54 52
f 149 152 151
f 149 150 152
f 51 149 151
f 51 151 53
f 52 54 152
f 52 152 150
f 53 55 56
f 53 56 54
f 151 154 153
f 151 152 154
f 53 151 153
f 53 153 55
f 54 56 154
f 54 154 152
f 55 57 58
f 55 58 56
f 153 156 155
f 153 154 156
f 55 153 155
f 55 155 57
f 56 58 156
f 56 156 154
f 57 59 60
f 57 60 58
f 155 158 157
f 155 156 158
f 57 155 157
f 57 157 59
f 58 60 158
f 58 158 156
f 59 61 62
f 59 62 60
f 157 160 159
f 157 158 160
f 59 157 159
f 59 159 61
f 60 62 160
f 60 160 158
f 61 63 64
f 61 64 62
f 159 162 161
f 159 160 162
f 61 159 161
f 61 161 63
f 62 64 162
f 62 162 160
f 63 65 66
f 63 66 64
f 161 164 163
f 161 162 164
f 63 161 163
f 63 163 65
f 64 66 164
f 64 164 162
f 65 67 68
f 65 68 66
f 163 166 165
f 163 164 166
f 65 163 165
f 65 165 67
f 66 68 166
f 66 166 164
f 67 69 70
f 67 70 68
f 165 168 167
f 165 166 168
f 67 165 167
f 67 167 69
f 68 70 168
f 68 168 166
f 69 71 72
f 69 72 70
f 167 170 169
f 167 168 170
f 69 167 169
f 69 169 71
f 70 72 170
f 70 170 168
f 71 73 74
f 71 74 72
f 169 172 171
f 169 170 172
f 71 169 171
f 71 171 73
f 72 74 172
f 72 172 170
f 73 75 76
f 73 76 74
f 171 174 173
f 171 172 174
f 73 171 173
f 73 173 75
f 74 76 174
f 74 174 172
f 75 77 78
f 75 78 76
f 173 176 175
f 173 174 176
f 75 173 175
f 75 175 77
f 76 78 176
f 76 176 174
f 77 79 80
f 77 80 78
f 175 178 177
f 175 176 178
f 77 175 177
f 77 177 79
f 78 80 178
f 78 178 176
f 79 81 82
f 79 82 80
f 177 180 179
f 177 178 180
f 79 177 179
f 79 179 81
f 80 82 180
f 80 180 178
f 81 83 84
f 81 84 82
f 179 182 181
f 179 180 182
f 81 179 181
f 81 181 83
f 82 84 182
f 82 182 180
f 83 85 86
f 83 86 84
f 181 184 183
f 181 182 184
f 83 181 183
f 83 183 85
f 84 86 184
f 84 184 182
f 85 87 88
f 85 88 86
f 183 186 185
f 183 184 186
f 85 183 185
f 85 185 87
f 86 88 186
f 86 186 184
f 87 89 90
f 87 90 88
f 185 188 187
f 185 186 188
f 87 185 187
f 87 187 89
f 88 90 188
f 88 188 186
f 89 91 92
f 89 92 90
f 187 190 189
f 187 188 190
f 89 187 189
f 89 189 91
f 90 92 190
f 90 190 188
f 91 93 94
f 91 94 92
f 189 192 191
f 189 190 192
f 91 189 191
f 91 191 93
f 92 94 192
f 92 192 190
f 93 95 96
f 93 96 94
f 191 194 193
f 191 192 194
f 93 191 193
f 93 193 95
f 94 96 194
f 94 194 192
f 95 97 98
f 95 98 96
f 193 196 195
f 193 194 196
f 95 193 195
f 95 195 97
f 96 98 196
f 96 196 194
f 1 100 99
f 1 2 100
f 97 195 196
f 97 196 98
